<svg class="icon" viewBox="0 0 1024 1024" version="1.1" xmlns="http://www.w3.org/2000/svg" width="200" height="200">
    <path d="M512 4.500211a13.473684 13.473684 0 0 1 13.365895 11.802947l23.228631 185.802105h457.431579a13.473684 13.473684 0 0 1 13.258106 11.048421l0.215578 2.425263v790.447158a13.473684 13.473684 0 0 1-13.473684 13.473684H437.382737l2.182737-0.107789a13.527579 13.527579 0 0 1-4.581053-0.188632l-0.431158-0.107789a11.264 11.264 0 0 1-1.886316-0.592842l-0.188631-0.134737a9.916632 9.916632 0 0 1-1.751579-0.889263l-0.269474-0.215579a13.096421 13.096421 0 0 1-5.416421-7.168l-0.107789-0.404211a13.635368 13.635368 0 0 1-0.512-2.910315l-23.120842-184.885895H17.973895a13.473684 13.473684 0 0 1-13.258106-11.048421L4.500211 808.421053V17.973895a13.473684 13.473684 0 0 1 13.473684-13.473684zM992.552421 229.052632h-440.589474l21.342316 170.657684h210.405053a13.473684 13.473684 0 0 1 2.425263 26.731789l-2.425263 0.215579H576.673684l21.342316 170.684632h185.694316a13.473684 13.473684 0 0 1 2.425263 26.731789l-2.425263 0.215579h-182.325895l21.288421 170.630737 1.509053 11.829895a13.473684 13.473684 0 0 1-2.748632 9.970526l-0.485052 0.565895-153.384422 175.265684h524.988632V229.052632z m-411.486316 592.842105H428.463158l19.105684 152.656842 133.551158-152.656842zM500.116211 31.420632H31.420632v763.499789H595.536842l-21.557895-172.490105-50.661052-405.180632v-0.026947l-23.228632-185.802105z m-111.589053 565.894736a13.473684 13.473684 0 0 1 2.425263 26.758737l-2.425263 0.215579h-222.31579a13.473684 13.473684 0 0 1-2.425263-26.731789l2.425263-0.215579h222.31579z m-24.710737-197.605052a13.473684 13.473684 0 0 1 2.425263 26.731789l-2.425263 0.215579H166.184421a13.473684 13.473684 0 0 1-2.425263-26.731789l2.425263-0.215579H363.789474zM339.078737 202.105263a13.473684 13.473684 0 0 1 2.425263 26.73179l-2.425263 0.215579H166.184421a13.473684 13.473684 0 0 1-2.425263-26.73179l2.425263-0.215579h172.894316z"></path>
</svg>
