<svg class="icon" viewBox="0 0 1024 1024" version="1.1" xmlns="http://www.w3.org/2000/svg" width="200" height="200">
    <path d="M712.648649 13.837838a13.837838 13.837838 0 0 1 13.616432 11.347027l0.221405 2.490811v62.242594L940.972973 89.945946c34.179459 0 62.159568 26.568649 64.428973 60.166919l0.138378 4.428108v583.48627a13.837838 13.837838 0 0 1-27.45427 2.490811l-0.221405-2.490811V396.675459H41.513514V940.972973c0 19.179243 14.640432 34.954378 33.349189 36.725622l3.542486 0.166054h431.29773a13.837838 13.837838 0 0 1 2.490811 27.45427l-2.490811 0.221405H78.405189A64.567351 64.567351 0 0 1 13.976216 945.401081L13.837838 940.972973V154.513297A64.567351 64.567351 0 0 1 78.405189 89.945946l214.486487-0.027676V27.675676a13.837838 13.837838 0 0 1 27.45427-2.490811l0.221405 2.490811v62.242594H698.810811V27.675676a13.837838 13.837838 0 0 1 13.837838-13.837838z m-50.729514 507.378162a191.432649 191.432649 0 0 1 154.374919 304.653838 13.007568 13.007568 0 0 1 4.649514 1.577513l2.048 1.41146 152.216216 126.865297a13.837838 13.837838 0 0 1-15.664433 22.694054l-2.048-1.439135-152.216216-126.865297a13.782486 13.782486 0 0 1-4.206703-6.033298 191.432649 191.432649 0 1 1-139.153297-322.836756z m0 27.675676a163.756973 163.756973 0 1 0 0 327.513946 163.756973 163.756973 0 0 0 0-327.513946zM292.891676 117.621622l-214.486487 0.027675c-20.369297 0-36.891676 16.522378-36.891675 36.891676v214.486486h936.351135v-214.486486c0-19.179243-14.612757-34.926703-33.34919-36.725622L940.972973 117.621622l-214.486487-0.027676v113.027459a13.837838 13.837838 0 0 1-27.45427 2.490811l-0.221405-2.490811V117.621622H320.567351v113.027459a13.837838 13.837838 0 0 1-27.45427 2.490811l-0.221405-2.490811V117.621622z"></path>
</svg>
