<svg class="icon" viewBox="0 0 1024 1024" version="1.1" xmlns="http://www.w3.org/2000/svg" width="200" height="200">
    <path d="M497.372834 696.131368a13.473684 13.473684 0 0 1 13.258105 11.048421l0.215579 2.425264v296.421052a13.473684 13.473684 0 0 1-26.73179 2.425263l-0.215579-2.425263v-296.421052a13.473684 13.473684 0 0 1 13.473685-13.473685zM102.135781 152.710737a13.473684 13.473684 0 0 1 13.258105 11.048421l0.215579 2.425263v691.631158a13.473684 13.473684 0 0 1-26.731789 2.425263l-0.215579-2.425263V166.184421a13.473684 13.473684 0 0 1 13.473684-13.473684z m725.369263 224.956631l1.886316 1.562948 124.416 123.850105a13.473684 13.473684 0 0 1 1.616842 17.138526l-1.536 1.886316-124.416 125.925053a13.473684 13.473684 0 0 1-20.722526-17.084632l1.536-1.886316L912.631781 525.473684H299.767781a13.473684 13.473684 0 0 1-2.425263-26.731789l2.425263-0.215579H911.014939l-100.675368-100.217263a13.473684 13.473684 0 0 1-1.589895-17.165474l1.562947-1.886316a13.473684 13.473684 0 0 1 17.165474-1.589895zM497.372834 4.500211a13.473684 13.473684 0 0 1 13.258105 11.048421l0.215579 2.425263v296.421052a13.473684 13.473684 0 0 1-26.73179 2.425264l-0.215579-2.425264v-296.421052a13.473684 13.473684 0 0 1 13.473685-13.473684z"></path>
</svg>
