<svg class="icon" viewBox="0 0 1144 1024" version="1.1" xmlns="http://www.w3.org/2000/svg" width="200" height="200">
    <path d="M434.206118 27.617882c49.694118 0 97.400471 2.800941 141.793882 8.07153l20.239059 2.620235 19.757176 2.951529c6.505412 1.024 12.890353 2.108235 19.215059 3.282824l18.672941 3.614118c30.569412 6.264471 58.729412 13.854118 83.757177 22.588235l14.667294 5.421176c69.029647 26.714353 111.073882 62.885647 111.073882 104.538353v233.803294c153.780706 7.830588 276.058353 135.017412 276.058353 290.755765 0 160.768-130.349176 291.117176-291.117176 291.117177a289.852235 289.852235 0 0 1-143.420236-37.707294l5.632 3.072-7.710117 2.258823c-75.053176 20.781176-169.200941 32.376471-268.649412 32.376471-49.694118 0-97.400471-2.800941-141.793882-8.07153l-20.239059-2.620235-19.757177-2.951529C109.507765 959.909647 9.547294 910.185412 5.180235 847.570824L5.029647 843.294118V180.705882l0.150588-4.397176C9.637647 113.754353 109.598118 64.090353 252.385882 41.261176l19.757177-2.951529 20.239059-2.620235a1208.440471 1208.440471 0 0 1 141.824-8.07153zM35.147294 680.719059V843.294118c0 31.171765 43.158588 61.44 113.212235 84.118588l14.878118 4.577882c2.529882 0.752941 5.12 1.505882 7.710118 2.198588l15.962353 4.246589c10.872471 2.740706 22.226824 5.330824 33.972706 7.710117l17.92 3.46353 18.522352 3.162353 9.487059 1.475764 19.365647 2.710589 9.848471 1.234823 20.118588 2.228706 20.570353 1.897412c31.201882 2.56 63.849412 3.945412 97.490824 3.945412 84.690824 0 165.255529-8.613647 232.478117-24.154353l9.216-2.258824-2.017882-1.475765-0.602353-0.451764a292.111059 292.111059 0 0 1-102.942118-145.92 288.948706 288.948706 0 0 1-6.234353-23.341177l13.914353-1.566117a1197.176471 1197.176471 0 0 1-143.811764 8.432941c-11.474824 0-22.829176-0.150588-34.093177-0.451765l-22.287059-0.783059a1145.554824 1145.554824 0 0 1-95.623529-8.131764l-19.998118-2.770824-19.486117-3.102118c-94.087529-16.082824-168.538353-43.971765-207.600942-79.570823z m813.176471-236.483765l-7.529412 0.120471a260.216471 260.216471 0 0 0-186.729412 86.528 259.945412 259.945412 0 0 0-66.770823 174.381176c0 14.968471 1.264941 29.816471 3.734588 44.333177a261.270588 261.270588 0 0 0 128.722823 182.874353 261.029647 261.029647 0 1 0 128.572236-488.237177z m0 356.382118a15.058824 15.058824 0 0 1 14.817882 12.348235l0.240941 2.710588V843.294118a15.058824 15.058824 0 0 1-29.876706 2.710588l-0.240941-2.710588v-27.617883a15.058824 15.058824 0 0 1 15.058824-15.058823z m-813.176471-340.751059v162.575059c0 36.532706 59.331765 71.800471 151.792941 95.141647l16.624941 3.975529c2.831059 0.662588 5.692235 1.295059 8.58353 1.897412l17.618823 3.614118c5.993412 1.144471 12.047059 2.228706 18.221177 3.312941l18.823529 3.011765 9.637647 1.385411 19.576471 2.56 9.999059 1.144471 20.359529 2.078118c20.570353 1.867294 41.833412 3.252706 63.608471 4.035764l21.925647 0.602353a1219.041882 1219.041882 0 0 0 147.275294-6.26447 289.942588 289.942588 0 0 1 47.826823-196.668236c-53.729882 8.131765-112.338824 12.408471-172.815058 12.408471-7.649882 0-15.239529-0.090353-22.799059-0.210824l-22.467765-0.602353-22.166588-0.963764a1121.340235 1121.340235 0 0 1-94.629647-8.914824l-19.757177-2.951529c-98.665412-15.781647-176.850824-44.363294-217.238588-81.167059z m813.176471 92.280471a15.058824 15.058824 0 0 1 14.817882 12.348235l0.240941 2.710588V677.647059a15.058824 15.058824 0 0 1-29.876706 2.710588l-0.240941-2.710588v-110.441412a15.058824 15.058824 0 0 1 15.058824-15.058823z m-15.058824-313.163295c-19.094588 17.408-46.682353 33.008941-80.956235 46.260706l-14.667294 5.421177c-25.027765 8.734118-53.187765 16.323765-83.787294 22.588235l-18.672942 3.614118c-6.294588 1.174588-12.679529 2.258824-19.184941 3.312941l-19.757176 2.921412-20.239059 2.620235a1208.440471 1208.440471 0 0 1-141.793882 8.071529c-49.694118 0-97.430588-2.800941-141.824-8.071529l-20.239059-2.620235-19.757177-2.95153c-98.665412-15.751529-176.850824-44.363294-217.238588-81.136941v163.056941l0.210824 3.46353c2.499765 21.202824 24.696471 41.833412 61.500235 59.783529l11.595294 5.360941c36.141176 15.841882 83.968 29.334588 139.535059 38.851765l18.823529 3.011765 19.365647 2.710588 9.848471 1.204706 20.118588 2.228706c20.359529 2.078118 41.381647 3.614118 63.006118 4.608l21.775059 0.813176c10.962824 0.301176 22.076235 0.451765 33.28 0.451765 71.559529 0 140.348235-6.144 201.065411-17.618824l-3.614117 3.824941a293.948235 293.948235 0 0 1 74.089412-59.422117 290.123294 290.123294 0 0 1 123.361882-36.592941l4.126118-0.240942z m-399.058823-181.248c-33.641412 0-66.288941 1.385412-97.490824 3.945412l-20.570353 1.897412-20.118588 2.228706-9.848471 1.204706-19.365647 2.740706-9.487059 1.475764-18.522352 3.162353-17.92 3.46353c-11.745882 2.409412-23.100235 4.969412-33.972706 7.710117l-15.962353 4.216471a608.978824 608.978824 0 0 0-7.710118 2.228706l-14.878118 4.577882C78.305882 119.296 35.117176 149.534118 35.117176 180.705882c0 31.171765 43.188706 61.44 113.242353 84.118589l14.878118 4.577882c2.529882 0.752941 5.12 1.505882 7.710118 2.198588l15.962353 4.246588c10.872471 2.740706 22.226824 5.330824 33.972706 7.710118l17.92 3.463529 18.522352 3.162353 9.487059 1.475765 19.365647 2.710588 9.848471 1.234824 20.118588 2.228706 20.570353 1.897412c31.201882 2.56 63.849412 3.945412 97.490824 3.945411 33.611294 0 66.258824-1.385412 97.460706-3.945411l20.570352-1.897412 20.118589-2.228706 9.878588-1.204706 19.335529-2.740706 9.487059-1.475765 18.522353-3.162353c18.251294-3.312941 35.599059-7.047529 51.892706-11.173647l15.962353-4.21647 7.740235-2.228706 14.848-4.577882c70.083765-22.708706 113.242353-52.946824 113.242353-84.118589 0-31.171765-43.158588-61.44-113.242353-84.118588l-14.848-4.577882c-2.56-0.752941-5.12-1.505882-7.740235-2.198588l-15.962353-4.246589a790.226824 790.226824 0 0 0-51.892706-11.173647l-18.522353-3.162353a956.837647 956.837647 0 0 0-9.487059-1.475764l-19.335529-2.710589a1033.878588 1033.878588 0 0 0-9.878588-1.234823l-20.118589-2.228706-20.570352-1.897412a1188.201412 1188.201412 0 0 0-97.460706-3.945412z"></path>
</svg>
