<svg class="icon" viewBox="0 0 1024 1024" version="1.1" xmlns="http://www.w3.org/2000/svg" width="200" height="200">
    <path d="M507.615179 13.128205a493.042872 493.042872 0 0 1 358.505026 153.915077 494.933333 494.933333 0 0 1 98.907898 152.339692 13.128205 13.128205 0 1 1-24.28718 10.003693 468.676923 468.676923 0 0 0-93.630359-144.252718A466.786462 466.786462 0 0 0 507.615179 39.384615C254.844718 39.384615 48.836923 239.721026 39.699692 490.259692l-0.105025 4.227282h227.354256a13.128205 13.128205 0 0 1 9.793641 4.384821l1.312821 1.785436 107.940102 172.68841 206.165334-412.278154a13.128205 13.128205 0 0 1 20.926358-3.492102l1.575385 1.837948 164.548923 235.073641h209.788718a13.128205 13.128205 0 0 1 12.918154 10.765129l0.210051 2.363076c0 273.119179-221.394051 494.513231-494.513231 494.513231A492.832821 492.832821 0 0 1 161.476923 860.763897a495.458462 495.458462 0 0 1-107.204923-155.332923 13.128205 13.128205 0 0 1 24.077128-10.502564 469.202051 469.202051 0 0 0 101.507282 147.088411 466.57641 466.57641 0 0 0 327.758769 133.855179c252.796718 0 458.804513-200.33641 467.941744-450.901333l0.078769-4.227282h-203.250871a13.128205 13.128205 0 0 1-9.110975-3.675898l-1.654154-1.916718-155.831795-222.628102-206.76923 413.538461a13.128205 13.128205 0 0 1-21.372718 3.045744l-1.496616-1.969231-116.499692-186.394256H26.25641a13.128205 13.128205 0 0 1-12.918154-10.765129l-0.210051-2.363077C13.128205 234.522256 234.522256 13.128205 507.615179 13.128205z"></path>
</svg>
