<svg class="icon" viewBox="0 0 1024 1024" version="1.1" xmlns="http://www.w3.org/2000/svg" width="200" height="200">
    <path d="M914.285714 14.628571a95.085714 95.085714 0 0 1 95.085715 95.085715v804.571428a95.085714 95.085714 0 0 1-95.085715 95.085715H109.714286A95.085714 95.085714 0 0 1 14.628571 914.285714V109.714286A95.085714 95.085714 0 0 1 109.714286 14.628571z m0 29.257143H109.714286A65.828571 65.828571 0 0 0 43.885714 109.714286v804.571428a65.828571 65.828571 0 0 0 65.828572 65.828572h804.571428a65.828571 65.828571 0 0 0 65.828572-65.828572V109.714286a65.828571 65.828571 0 0 0-65.828572-65.828572z m-134.085485 185.285486h0.643657l0.585143 0.058514 0.6144 0.117029 0.789942 0.058514a14.5408 14.5408 0 0 1 7.694629 4.066743l0.438857 0.438857 0.877714 1.053257-1.316571-1.492114a14.687086 14.687086 0 0 1 4.3008 10.327771l-0.146286-1.930971c0.058514 0.438857 0.117029 0.877714 0.117029 1.316571v537.014858a14.628571 14.628571 0 0 1-14.628572 14.628571H243.126857l-0.585143-0.058514-0.6144-0.146286-0.760685-0.029257a14.5408 14.5408 0 0 1-7.694629-4.066743l-0.438857-0.438857a14.716343 14.716343 0 0 1-0.877714-1.053257l1.316571 1.492114a14.687086 14.687086 0 0 1-4.3008-10.327771l0.146286 1.930971a14.716343 14.716343 0 0 1-0.117029-1.287314V243.799771a14.628571 14.628571 0 0 1 14.628572-14.628571h536.3712z m-14.657829 291.313371l-245.057829 245.057829h245.057829V520.484571z m0-241.371428L279.113143 765.5424h200.001828l286.427429-286.427429V279.113143z m-20.6848-20.6848h-200.001829l-286.427428 286.427428v200.001829L744.8576 258.428343z m-241.371429 0H258.428343v245.057828l245.057828-245.057828z"></path>
</svg>
