<?xml version="1.0" encoding="UTF-8"?>
<svg width="57px" height="63px" viewBox="0 0 57 63" version="1.1" xmlns="http://www.w3.org/2000/svg" xmlns:xlink="http://www.w3.org/1999/xlink">
    <title>数据工坊</title>
    <defs>
        <linearGradient x1="-31.4695947%" y1="42.5092847%" x2="132.388119%" y2="58.5325948%" id="linearGradient-1">
            <stop stop-color="#007DC5" offset="0%"></stop>
            <stop stop-color="#14C1FF" offset="100%"></stop>
        </linearGradient>
        <linearGradient x1="17.4784592%" y1="22.1607783%" x2="80.8864361%" y2="76.438908%" id="linearGradient-2">
            <stop stop-color="#14C1FF" offset="0%"></stop>
            <stop stop-color="#38FFF2" offset="100%"></stop>
        </linearGradient>
        <linearGradient x1="-13.0274731%" y1="26.4101237%" x2="113.738073%" y2="76.8709794%" id="linearGradient-3">
            <stop stop-color="#007DC5" offset="0%"></stop>
            <stop stop-color="#14C1FF" offset="100%"></stop>
        </linearGradient>
        <linearGradient x1="15.5294199%" y1="31.5994097%" x2="82.7374385%" y2="67.4750484%" id="linearGradient-4">
            <stop stop-color="#14C1FF" offset="0%"></stop>
            <stop stop-color="#38FFF2" offset="100%"></stop>
        </linearGradient>
    </defs>
    <g id="首页" stroke="none" stroke-width="1" fill="none" fill-rule="evenodd">
        <g transform="translate(-626.000000, -574.000000)" id="编组-45">
            <g transform="translate(612.930620, 574.892277)">
                <polygon id="Fill-6167备份-2" fill="url(#linearGradient-1)" opacity="0.5" transform="translate(41.392925, 45.826807) scale(-1, 1) translate(-41.392925, -45.826807) " points="16.4812423 61.4412075 69.1022855 31.8272948 66.3046077 30.2124064 13.6835646 59.8258573"></polygon>
                <polygon id="Fill-6165备份-2" fill="url(#linearGradient-2)" opacity="0.7" transform="translate(15.082403, 15.913878) scale(-1, 1) rotate(-60.000000) translate(-15.082403, -15.913878) " points="2 25.0822475 28.1648069 9.97620955 28.1648069 6.74550914 2 21.8520089"></polygon>
                <polygon id="Fill-6163" fill="url(#linearGradient-3)" opacity="0.5" points="13.6838824 31.8650473 66.3046077 61.4412075 66.3042898 31.1910486 13.6835646 1.61488835"></polygon>
                <polygon id="Fill-6165" fill="url(#linearGradient-2)" opacity="0.7" transform="translate(67.703447, 45.527329) scale(-1, 1) rotate(-60.000000) translate(-67.703447, -45.527329) " points="54.6210431 54.6956983 80.78585 39.5896604 80.78585 36.35896 54.6210431 51.4654598"></polygon>
                <polygon id="Fill-6167" fill="url(#linearGradient-4)" opacity="0.7" transform="translate(41.392925, 15.614401) scale(-1, 1) translate(-41.392925, -15.614401) " points="16.4812423 31.2288011 69.1022855 1.61488835 66.3046077 0 13.6835646 29.6134509"></polygon>
                <path d="M25.2475048,28.9413187 C26.0893462,28.6597135 26.8151858,28.174694 27.4250236,27.48626 C27.961946,28.7884551 28.6347563,30.0320607 29.4434543,31.2170767 C29.5892851,30.9819122 29.7682592,30.724788 29.9803767,30.4457041 C29.1517927,29.3312858 28.4690395,28.1184218 27.932117,26.8071121 C28.6148703,25.6228407 29.0391053,23.738501 29.2048221,21.154093 L29.8312316,21.5142494 L29.8312316,20.5845619 L26.7886711,18.8352305 C26.9742739,18.1763185 27.1366764,17.4448226 27.2758785,16.6407428 L26.4804378,16.0193388 C26.2219196,18.0582028 25.7081975,19.617654 24.9392716,20.6976926 C25.1381317,21.1310384 25.3038485,21.5179846 25.436422,21.8585311 C25.5888814,21.6545216 25.7347122,21.4239144 25.8739143,21.1667096 C26.0462598,22.933769 26.4008938,24.6096723 26.9378162,26.1944195 C26.3611217,26.9292532 25.6087674,27.4491582 24.6807534,27.7541347 C24.9127569,28.1974219 25.101674,28.5931499 25.2475048,28.9413187 Z M20.3654878,19.6949318 C21.1675571,19.4998345 21.8701964,19.1427519 22.4734055,18.6236838 L22.4734055,20.5377463 L23.2091881,20.9607872 L23.2091881,19.4021935 C23.7593679,20.3109693 24.2167463,21.1071438 24.5813233,21.790717 L25.0585877,21.299497 C24.6409813,20.5854343 24.1239449,19.7412873 23.5074784,18.7670559 L23.2091881,19.0603966 L23.2091881,18.2264122 L25.1182457,19.324032 L25.1182457,18.4216882 L23.2091881,17.3240685 L23.2091881,14.2615685 L22.4734055,13.8385275 L22.4734055,16.9010275 L20.1865137,15.5861706 L20.1865137,16.4885143 L22.2347733,17.6661688 C21.5387628,18.1592241 20.7731511,18.4755433 19.9379385,18.6151263 C20.0970266,18.9982613 20.239543,19.3581965 20.3654878,19.6949318 Z M24.193546,17.5482318 C24.5581229,17.2018571 24.9226999,16.8053522 25.2872769,16.3587171 L24.6708103,15.4437305 C24.3393767,15.9003069 24.0013145,16.3074992 23.6566235,16.6653075 C23.8621123,16.9839749 24.0410865,17.278283 24.193546,17.5482318 Z M21.9364831,15.5532595 C21.6183068,14.7961041 21.3100736,14.0811239 21.0117833,13.4083187 L20.4450319,13.615666 C20.7366934,14.3120037 21.028355,15.0402425 21.3200166,15.8003823 L21.9364831,15.5532595 Z M27.4349666,25.4411955 C26.8914155,23.7523767 26.5599819,21.9075208 26.4406658,19.9066279 C26.4804378,19.82012 26.5168955,19.7271492 26.5500389,19.6277155 L28.4093814,20.6967514 C28.2900653,22.8338793 27.9652604,24.4153607 27.4349666,25.4411955 Z M20.2660577,26.0225297 C21.4061893,26.2496672 22.3507751,26.209427 23.0998151,25.901809 C23.5439361,26.4761685 23.9714854,27.041 24.3824631,27.5963035 L24.8199555,26.904482 C24.4421212,26.4502656 24.0709155,25.9998604 23.7063386,25.5532663 C24.2167463,25.172248 24.597895,24.6075367 24.8497845,23.8591323 L24.8497845,22.9704604 L22.4137475,21.5698519 C22.5198062,21.3847371 22.625865,21.1950649 22.7319238,21.0008354 L22.0160272,20.2747749 C21.876825,20.5593235 21.7343086,20.8328518 21.5884778,21.0953601 L20.0771406,20.2264111 L20.0771406,21.1287549 L21.2106435,21.7804666 C21.0117833,22.1127458 20.8062945,22.4275419 20.594177,22.724855 C21.2172722,23.5023767 21.8138527,24.2555391 22.3839185,24.9843422 C21.7144226,25.1645173 20.8957816,25.1267793 19.9279954,24.8711283 C20.0473115,25.2860837 20.159999,25.6698842 20.2660577,26.0225297 Z M23.020271,24.7213092 C22.5231206,24.1164604 22.0392275,23.5329057 21.5685918,22.9706453 C21.7210513,22.739292 21.8735107,22.4988241 22.0259702,22.2492417 L24.0941159,23.4383297 C23.8355977,24.0188604 23.4776494,24.4465202 23.020271,24.7213092 Z M30.38804,31.5004042 C30.792389,31.7511153 31.097308,31.9309868 31.3027968,32.0400188 C31.9590353,32.3990964 32.2871546,32.0636613 32.2871546,31.0337134 L32.2871546,26.8979712 C32.6020165,26.9331689 32.9301358,26.9737103 33.2715124,27.0195954 C33.2383691,26.6997583 33.218483,26.332856 33.2118544,25.9188886 C32.9102498,25.8867559 32.6020165,25.8485335 32.2871546,25.8042212 L32.2871546,22.9946509 L33.3709425,23.6177787 L33.3709425,22.6334037 L32.2871546,22.0102759 L32.2871546,19.3989477 L31.551372,18.9759068 L31.551372,21.5872349 L30.298553,20.866922 L30.298553,21.851297 L31.551372,22.5716099 L31.551372,25.6956334 C31.107251,25.622576 30.6498726,25.5396176 30.1792369,25.4467582 L30.278667,26.6797072 C30.6730729,26.7150661 31.097308,26.7584608 31.551372,26.8098912 L31.551372,30.4192662 C31.551372,30.8841099 31.4022269,31.0307803 31.1039366,30.8592772 C30.9117051,30.748753 30.6333009,30.5613397 30.2687239,30.2970373 C30.3217533,30.7194538 30.3615254,31.1205761 30.38804,31.5004042 Z M32.9533362,33.1804088 C33.8216922,32.1529806 34.2923279,30.2588608 34.3652433,27.4980494 L36.6819642,28.8300567 L36.6819642,30.5663848 L34.6337045,29.3887303 L34.6337045,34.0098241 L35.3496011,34.4214315 L35.3496011,33.6284627 L38.7501099,35.5835979 L38.7501099,36.3765666 L39.4660065,36.788174 L39.4660065,32.1670803 L37.3978608,30.9779922 L37.3978608,29.2416641 L40.022815,30.7508913 L40.022815,29.8212038 L37.3978608,28.3119766 L37.3978608,26.8764297 L36.6819642,26.4648223 L36.6819642,27.9003692 L34.3751863,26.5740787 L34.3751863,24.8787662 L38.809768,27.4284454 L38.809768,27.8522735 L39.5256646,28.2638809 L39.5256646,24.2990372 L33.6592897,20.9261432 L33.6592897,26.2581744 C33.6592897,29.1657265 33.2449977,31.0831267 32.4164137,32.0103751 C32.6152739,32.4163772 32.794248,32.8063884 32.9533362,33.1804088 Z M38.809768,26.5261016 L34.3751863,23.9764225 L34.3751863,22.2400943 L38.809768,24.7897735 L38.809768,26.5261016 Z M38.7501099,34.694926 L35.3496011,32.7397909 L35.3496011,30.7026815 L38.7501099,32.6578166 L38.7501099,34.694926 Z M50.0851392,42.0460276 L50.0851392,40.9796213 L45.7201586,38.4699595 L45.7201586,29.3508189 L49.5283308,31.5403416 L49.5283308,30.4465916 L41.0568878,25.575904 L41.0568878,26.669654 L44.8451739,28.8477432 L44.8451739,37.9668838 L40.4901363,35.4629388 L40.4901363,36.529345 L50.0851392,42.0460276 Z M53.9529694,45.349929 C55.2256745,44.3681338 55.881913,42.3802062 55.921685,39.3861462 L58.8847015,41.0897435 C58.8051574,43.6507802 58.752128,45.1925564 58.7256133,45.7150721 C58.6792126,46.362873 58.4240087,46.5533822 57.9600017,46.2865996 C57.4429653,45.9893276 56.9159858,45.6362086 56.3790634,45.2272426 C56.4453501,45.6390523 56.4983795,46.0614689 56.5381515,46.4944922 C57.0684453,46.8358449 57.529138,47.118951 57.9202297,47.3438106 C58.4770381,47.6639497 58.8714441,47.7312097 59.1034476,47.5455906 C59.3288225,47.3652749 59.4647103,46.8919718 59.511111,46.1256813 C59.550883,45.5287567 59.6105411,43.6854531 59.6900851,40.5957706 L55.9515141,38.4462653 L56.0111721,36.3477534 L60.2866656,38.8059643 L60.2866656,37.8215893 L57.075074,35.9750727 L57.8108566,35.8649106 C57.6716545,35.3473758 57.4065076,34.5660224 57.0154159,33.5208503 L56.3194054,33.5718483 C56.6176956,34.3996013 56.8629565,35.196865 57.055188,35.9636392 L53.9827984,34.1971574 L53.9827984,35.1815324 L55.2356175,35.9018454 L55.1759594,38.1780917 C55.1428161,39.8178899 55.0102426,41.0541663 54.7782391,41.8869209 C54.4932062,42.8988214 54.0026844,43.6649712 53.3066739,44.1853702 C53.5187914,44.5169634 53.7342232,44.9051497 53.9529694,45.349929 Z M50.8606939,41.4802168 C52.1002556,41.4637408 53.2238155,41.489944 54.2313736,41.5588267 C54.2114876,41.2466119 54.1949159,40.8588287 54.1816586,40.3954772 C53.7441662,40.3991477 53.2934165,40.3951958 52.8294095,40.3836216 L52.8294095,35.8582309 L54.0921715,36.5842607 L54.0921715,35.5862138 L52.8294095,34.8601841 L52.8294095,31.3054966 L52.0737409,30.8710221 L52.0737409,34.4257096 L50.7214918,33.6482289 L50.7214918,34.6462758 L52.0737409,35.4237565 L52.0737409,40.3456315 C51.5964765,40.3173203 51.1026404,40.2840384 50.5922326,40.2457859 L50.8606939,41.4802168 Z" id="数据工坊" fill="#FFFFFF" fill-rule="nonzero"></path>
            </g>
        </g>
    </g>
</svg>