<?xml version="1.0" encoding="UTF-8"?>
<svg width="79px" height="88px" viewBox="0 0 79 88" version="1.1" xmlns="http://www.w3.org/2000/svg" xmlns:xlink="http://www.w3.org/1999/xlink">
    <title>编组 35备份 2</title>
    <defs>
        <linearGradient x1="69.9747546%" y1="63.9700768%" x2="63.8070403%" y2="63.9700768%" id="linearGradient-1">
            <stop stop-color="#B7C8D6" offset="0%"></stop>
            <stop stop-color="#DAE2EB" offset="100%"></stop>
        </linearGradient>
    </defs>
    <g id="首页" stroke="none" stroke-width="1" fill="none" fill-rule="evenodd">
        <g id="首页备份" transform="translate(-913.000000, -271.000000)">
            <g id="编组-35备份-2" transform="translate(913.500000, 271.209578)">
                <path d="M2.82079467,32.4049489 L2.79681228,35.2410185 C2.78767289,36.3218099 3.36061161,37.3239679 4.29662022,37.8644135 L47.3242493,62.7082995 C49.1806814,63.7801918 51.4679519,63.7802292 53.3244189,62.7083974 L70.3390306,52.8850068 C71.233263,52.3687215 71.799138,51.4288439 71.8370119,50.3969681 L71.9636486,46.9467392 L71.9636486,46.9467392 L51.2394024,36.0044209 L56.8528497,31.727197 L56.7435066,28.3447944 L44.5560219,31.2841121 L29.0676343,21.70549 C27.2449776,20.5782881 24.959495,20.5087985 23.0717237,21.5231855 L2.82079467,32.4049489 L2.82079467,32.4049489 Z" id="Fill-6163" fill="url(#linearGradient-1)" transform="translate(37.372836, 42.162244) rotate(-240.000000) translate(-37.372836, -42.162244) "></path>
                <path d="M6.54910527,38.5190048 L49.6168254,63.51622 C51.4750273,64.594751 53.7680884,64.5973821 55.6287604,63.5231181 L72.6728372,53.6826748 C74.1077136,52.8542451 74.5993357,51.019473 73.770906,49.5845966 C73.5010434,49.1171829 73.110082,48.7312281 72.6392292,48.4674118 L52.4689184,37.1660994 L52.4689184,37.1660994 L59.022384,32.2990263 L43.6333425,32.0648212 L29.7287399,23.5631969 C27.8537757,22.4167965 25.5020904,22.3871902 23.59886,23.4860254 L6.5550634,33.3263069 C5.12018703,34.1547366 4.62856487,35.9895087 5.45699458,37.4243851 C5.71913136,37.8784174 6.0956757,38.2558268 6.54910527,38.5190048 Z" id="Fill-6163备份" fill="#FFFFFF" transform="translate(39.653763, 43.481505) rotate(-240.000000) translate(-39.653763, -43.481505) "></path>
                <path d="M21.835484,60.6221876 C22.3462607,60.3248454 22.7317376,60.0834192 22.9919145,59.897909 C23.2520914,59.7123988 23.4516136,59.4466422 23.5904811,59.1006391 C23.7293485,58.7546361 23.7987822,58.3287048 23.7987822,57.8228455 L23.7987822,54.042572 C24.3127514,53.5383788 24.6256021,53.2347479 24.7373346,53.1316794 C24.7245651,52.637469 24.7213728,52.0285649 24.7277575,51.3049669 L23.7987822,52.183197 L23.7987822,50.0572205 L24.7181804,49.5466139 L24.7181804,47.8513014 L23.7987822,48.361908 L23.7987822,46.1333923 L22.582495,46.8088823 L22.582495,49.0373979 L21.5194408,49.6277868 L21.5194408,51.3230993 L22.582495,50.7327104 L22.582495,53.296187 C22.2089895,53.6312251 21.845061,53.9495511 21.4907096,54.2511651 L21.5960573,56.2024237 L22.582495,55.2375932 L22.582495,57.9377885 C22.582495,58.2385698 22.5154556,58.436446 22.3813766,58.5314173 C22.2472977,58.6263886 21.9855246,58.7751876 21.5960573,58.9778143 C21.691828,59.562647 21.7716369,60.1107714 21.835484,60.6221876 Z M29.3534797,48.5445713 C29.742947,48.3282727 30.0717596,48.0317276 30.3399174,47.6549361 C30.6080752,47.2781446 30.821963,46.430191 30.9815807,45.1110753 C30.5729593,45.1648345 30.1771073,45.1522571 29.7940247,45.0733432 C29.7589088,45.6488351 29.706235,46.0905235 29.6360032,46.3984084 C29.5657713,46.7062932 29.3726339,46.9479962 29.0565907,47.1235172 L26.9400594,48.2989761 C26.5122839,48.53655 26.2983961,48.3955713 26.2983961,47.8760401 L26.2983961,47.7529932 C27.9743824,46.5442052 29.4971357,45.3430443 30.866656,44.1495105 L30.426111,42.767223 C29.0693602,44.0493681 27.6934552,45.2099895 26.2983961,46.2490869 L26.2983961,44.7998682 L25.0246465,45.5072711 L25.0246465,48.8842242 C25.0246465,50.2605263 25.4907303,50.6898281 26.4228979,50.1721298 L29.3534797,48.5445713 Z M26.3941668,58.1451175 L26.3941668,57.43418 L29.3247485,55.8066215 L29.3247485,56.4902153 L30.5889211,55.7881312 L30.5889211,48.6787562 L25.1299942,51.7104828 L25.1299942,58.8472016 L26.3941668,58.1451175 Z M29.3247485,51.8417778 L26.3941668,53.4693363 L26.3941668,52.5669925 L29.3247485,50.939434 L29.3247485,51.8417778 Z M29.3247485,54.2480278 L26.3941668,55.8755863 L26.3941668,54.9732425 L29.3247485,53.345684 L29.3247485,54.2480278 Z M33.6152735,54.1484002 L33.6152735,48.3651971 C33.8706619,48.4694557 34.0653956,48.5663845 34.1994745,48.6559835 L34.7932525,46.7812949 C34.419747,46.6742757 34.0270873,46.5710582 33.6152735,46.4716424 L33.6152735,44.8925408 L34.5346717,44.3819342 L34.5346717,42.5909186 L33.6152735,43.1015252 L33.6152735,40.7089471 L32.4372946,41.3631618 L32.4372946,43.7557399 L31.3359321,44.367404 L31.3359321,46.1584196 L32.3606781,45.5893061 C32.1244438,46.9646442 31.7605153,48.3972281 31.2688927,49.8870576 C31.3646633,50.5539215 31.4668187,51.3311718 31.5753588,52.2188085 C31.9073637,51.2141103 32.1946756,50.1977749 32.4372946,49.1698024 L32.4372946,54.8026149 L33.6152735,54.1484002 Z M40.3575271,39.4527801 L40.3575271,37.6754363 L34.9464855,40.6805688 L34.9464855,42.4579125 L40.3575271,39.4527801 Z M35.7701131,52.8833066 C36.3798529,52.5446752 36.8611004,52.261454 37.2138556,52.0336432 C37.5666108,51.8058323 37.8371629,51.5086031 38.0255118,51.1419554 C38.2138608,50.7753076 38.3080352,50.3481687 38.3080352,49.8605385 L38.3080352,44.008976 L40.7214555,42.6686337 L40.7214555,40.89129 L34.5634029,44.3112903 L34.5634029,46.088634 L36.9768232,44.7482918 L36.9768232,49.642823 C36.9768232,50.1350105 36.7916667,50.4839348 36.4213535,50.6895957 C36.1531957,50.8385227 35.849922,50.9841655 35.5115323,51.1265241 C35.5945336,51.6090735 35.6807272,52.1946677 35.7701131,52.8833066 Z M35.2721057,51.6012915 C35.6807272,50.089199 36.0797715,48.3408888 36.4692388,46.356361 L35.3295681,46.5244567 C34.9592549,48.4254302 34.5634029,50.1081653 34.1420121,51.5726621 C34.4931711,51.523472 34.869869,51.5330152 35.2721057,51.6012915 Z M40.8651115,47.8935389 C40.4947983,46.5861791 40.1085234,45.3560433 39.7062867,44.2031316 L38.566616,45.4239616 C38.9433139,46.5272548 39.3168194,47.7827115 39.6871325,49.1903317 L40.8651115,47.8935389 Z M42.3782877,49.3637125 C43.1412605,48.3429747 43.7087016,47.3134793 44.080611,46.2752261 C44.4525203,45.2369729 44.6703985,43.8706898 44.7342456,42.1763769 L47.300899,40.7509335 L47.300899,46.3564022 L48.6895734,45.5851736 L48.6895734,39.9797048 L50.6337175,38.8999846 L50.6337175,37.1226409 L48.6895734,38.2023611 L48.6895734,34.8527517 L50.2314808,33.9964219 L50.2314808,32.2190781 L41.679162,36.9687831 L41.679162,38.7461269 L43.3743025,37.804696 L43.3743025,41.1543054 L41.1524234,42.3882713 L41.1524234,44.165615 L43.3216286,42.9609026 C43.2609739,44.2751874 43.0351147,45.3553755 42.6440513,46.2014668 C42.2529878,47.0475582 41.7621632,47.8601867 41.1715776,48.6393524 C41.6185073,48.8742138 42.020744,49.1156671 42.3782877,49.3637125 Z M47.300899,38.9735897 L44.7629768,40.3830767 L44.7629768,37.0334673 L47.300899,35.6239804 L47.300899,38.9735897 Z M52.9800983,43.4621085 C54.263425,42.1933972 55.3743645,40.9064924 56.3129169,39.601394 C57.2259304,39.9237604 58.3336775,39.9328993 59.6361583,39.6288108 C59.8979314,38.8089506 60.1692816,37.9928862 60.4502088,37.1806175 C59.2307292,37.5935575 58.257061,37.7697207 57.5292041,37.7091072 C58.3145234,36.3615057 58.9529944,34.9450689 59.444617,33.4597966 L59.444617,31.9422185 L54.7901636,34.5271643 C54.9178578,34.0005175 55.0295902,33.5191938 55.1253608,33.0831931 L60.4214776,30.1418865 L60.4214776,28.4602458 L58.8029537,29.3591262 L59.4063088,28.1490406 C58.9976873,27.847331 58.49968,27.536019 57.9122867,27.2151044 L57.069505,28.8179261 C57.4462028,29.1100213 57.8133237,29.4074353 58.1708674,29.7101682 L55.4892893,31.1994374 L55.891526,28.4330783 L54.5028516,29.0402445 C54.3560033,30.1517476 54.209155,31.1356466 54.0623067,31.9919414 L52.6832093,32.7578512 C52.8492118,31.8271167 52.9800983,31.0526033 53.075869,30.4343109 L51.7638111,30.9579109 C51.6233475,31.8562328 51.4637298,32.7287339 51.2849579,33.5754144 L51.2849579,35.2160394 L53.6888011,33.8810159 C53.075869,36.4271495 52.1468937,38.8799238 50.9018753,41.239339 C51.0487236,41.8231483 51.1891872,42.5062067 51.3232662,43.2885141 C52.2809726,41.580851 53.130139,39.6782595 53.8707654,37.5807396 C54.2474632,38.1736161 54.6688541,38.6505256 55.1349379,39.0114681 C54.2793868,40.05172 53.318488,41.0821196 52.2522414,42.1026668 C52.5076298,42.5350504 52.7502488,42.9881976 52.9800983,43.4621085 Z M56.2937627,37.4108598 C55.7446777,37.1051283 55.2913633,36.6459482 54.9338195,36.0333195 L57.8452472,34.4163987 C57.474934,35.3694555 56.9577725,36.3676092 56.2937627,37.4108598 Z" id="指标开发" fill="#0F71E2" fill-rule="nonzero"></path>
            </g>
        </g>
    </g>
</svg>