<?xml version="1.0" encoding="UTF-8"?>
<svg width="79px" height="88px" viewBox="0 0 79 88" version="1.1" xmlns="http://www.w3.org/2000/svg" xmlns:xlink="http://www.w3.org/1999/xlink">
    <title>编组 35备份 14</title>
    <defs>
        <linearGradient x1="69.9747546%" y1="63.9700768%" x2="63.8070403%" y2="63.9700768%" id="linearGradient-1">
            <stop stop-color="#B7C8D6" offset="0%"></stop>
            <stop stop-color="#DAE2EB" offset="100%"></stop>
        </linearGradient>
    </defs>
    <g id="首页" stroke="none" stroke-width="1" fill="none" fill-rule="evenodd">
        <g id="首页备份" transform="translate(-1215.000000, -681.000000)">
            <g id="编组-35备份-14" transform="translate(1215.438117, 681.780097)">
                <path d="M2.82079467,32.4049489 L2.79681228,35.2410185 C2.78767289,36.3218099 3.36061161,37.3239679 4.29662022,37.8644135 L47.3242493,62.7082995 C49.1806814,63.7801918 51.4679519,63.7802292 53.3244189,62.7083974 L70.3390306,52.8850068 C71.233263,52.3687215 71.799138,51.4288439 71.8370119,50.3969681 L71.9636486,46.9467392 L71.9636486,46.9467392 L51.2394024,36.0044209 L56.8528497,31.727197 L56.7435066,28.3447944 L44.5560219,31.2841121 L29.0676343,21.70549 C27.2449776,20.5782881 24.959495,20.5087985 23.0717237,21.5231855 L2.82079467,32.4049489 L2.82079467,32.4049489 Z" id="Fill-6163" fill="url(#linearGradient-1)" transform="translate(37.372836, 42.162244) rotate(-240.000000) translate(-37.372836, -42.162244) "></path>
                <path d="M6.54910527,38.5190048 L49.6168254,63.51622 C51.4750273,64.594751 53.7680884,64.5973821 55.6287604,63.5231181 L72.6728372,53.6826748 C74.1077136,52.8542451 74.5993357,51.019473 73.770906,49.5845966 C73.5010434,49.1171829 73.110082,48.7312281 72.6392292,48.4674118 L52.4689184,37.1660994 L52.4689184,37.1660994 L59.022384,32.2990263 L43.6333425,32.0648212 L29.7287399,23.5631969 C27.8537757,22.4167965 25.5020904,22.3871902 23.59886,23.4860254 L6.5550634,33.3263069 C5.12018703,34.1547366 4.62856487,35.9895087 5.45699458,37.4243851 C5.71913136,37.8784174 6.0956757,38.2558268 6.54910527,38.5190048 Z" id="Fill-6163备份" fill="#FFFFFF" transform="translate(39.653763, 43.481505) rotate(-240.000000) translate(-39.653763, -43.481505) "></path>
                <path d="M26.0284592,58.2007364 C26.7548926,57.229382 27.3930211,56.1387138 27.9428445,54.9287321 C28.3693742,55.4511209 28.8742121,55.813283 29.4573582,56.0152184 C29.7972491,54.9723831 30.087156,54.1930771 30.327079,53.6773006 C29.707278,53.5379305 29.1841126,53.2484667 28.7575829,52.8089094 C29.3640548,50.8897849 29.7389345,48.6694214 29.8822218,46.1478191 L30.2870918,45.9142133 L30.2870918,44.2299731 L27.7828959,45.6748683 C27.9328477,44.939501 28.0744689,44.1767281 28.2077595,43.3865498 L26.8381992,43.9973036 C26.4416599,46.4441458 25.9701446,48.5246927 25.4236534,50.2389442 C25.0504399,50.1551708 24.6555667,50.0792931 24.2390338,50.0113111 L23.8991429,50.842466 L23.8991429,49.8760987 L25.6485812,48.8666909 L25.6485812,47.4585557 L25.0687674,47.7931023 C25.3986614,47.0505469 25.6752393,46.3525597 25.8985009,45.6991406 L24.9588027,45.468243 C24.7322088,46.1327882 24.4522986,46.8419016 24.1190723,47.5955831 L24.9488059,47.8623188 L23.8991429,48.4679635 L23.8991429,45.762135 L22.6295506,46.4946767 L22.6295506,49.2005051 L21.5099101,49.8465261 L22.4096212,48.5819188 C22.0564013,48.0586466 21.7764912,47.686349 21.5698908,47.4650258 L20.6701797,48.7572437 C20.9667512,49.1429367 21.2033419,49.5310257 21.3799518,49.9215107 L20.6002022,50.3714182 L20.6002022,51.7795534 L22.0947223,50.9172308 C21.5615602,51.8276889 20.9634189,52.6513922 20.3002985,53.3883405 C20.4735762,53.7761465 20.6301926,54.2379903 20.7701476,54.7738721 C21.5165746,53.726557 22.1363756,52.7016847 22.6295506,51.6992549 L22.6295506,53.0245587 L22.0897239,53.2670068 C22.0097496,53.6766894 21.9147801,54.095024 21.8048154,54.5220107 L20.4902375,55.2805085 L20.4902375,56.6886438 L21.3099743,56.2156641 C21.1300321,56.7750621 20.926764,57.3479188 20.7001701,57.9342343 C21.2133387,57.9280516 21.6998491,57.9326485 22.1597014,57.9480251 C21.6298716,58.53904 21.0167351,59.0860868 20.3202921,59.5891657 C20.5535505,60.0804159 20.7301605,60.5445289 20.8501219,60.9815048 C21.8664623,60.1097785 22.7395153,59.127454 23.469281,58.0345314 C23.9424624,58.0882348 24.3789889,58.158486 24.7788605,58.2452849 L25.1337465,57.2260097 C25.4603083,57.5023636 25.7585459,57.8272725 26.0284592,58.2007364 Z M27.9478429,51.5021467 C27.6146166,50.663623 27.3813581,49.5166236 27.2480676,48.0611484 C27.2880548,47.9092272 27.3247097,47.7569279 27.3580323,47.6042503 L28.657615,46.8544046 C28.580973,48.5184419 28.3443823,50.0676893 27.9478429,51.5021467 Z M25.4886326,56.2205398 L24.4939519,56.2491529 C24.8838268,55.4443788 25.2087224,54.5919646 25.468639,53.6919103 L25.468639,52.4080223 L23.1393869,53.7519767 C23.2326903,53.4542489 23.317663,53.1705313 23.394305,52.900824 L23.8991429,52.6095377 L23.8991429,51.5603389 C24.3789889,51.6792232 24.8255121,51.8127325 25.2387128,51.960867 L25.5336181,51.1763761 C25.7368862,51.4502412 25.9151623,51.7270221 26.0684464,52.0067187 C26.1884079,51.6706007 26.3067032,51.3239397 26.4233324,50.9667356 C26.5966101,52.0125917 26.8465299,52.9037841 27.1730917,53.6403129 C26.6532586,54.7823713 26.025127,55.8304574 25.2886968,56.7845712 L25.4886326,56.2205398 Z M22.2996565,56.3625006 L22.5945618,55.4744704 L24.0790851,54.6179158 C23.8858139,55.2080132 23.6392264,55.7690508 23.3393227,56.3010286 L22.2996565,56.3625006 Z M30.9568767,55.1776222 C31.2834385,55.0076064 31.6233294,54.7976877 31.9765493,54.547866 C32.5830213,54.1703274 32.8862572,53.470764 32.8862572,52.4491757 L32.8862572,48.6665379 C33.1728319,48.3999488 33.4627388,48.131437 33.755978,47.8610026 C33.7493134,47.404673 33.7626425,46.7987549 33.7959651,46.0432482 C33.4760678,46.3382676 33.1728319,46.6098684 32.8862572,46.8580505 L32.8862572,44.9253159 L33.7459812,44.429264 L33.7459812,42.6621924 L32.8862572,43.1582442 L32.8862572,40.7147154 L31.6766456,41.4126488 L31.6766456,43.8561776 L30.7269506,44.4041418 L30.7269506,46.1712135 L31.6766456,45.6232492 L31.6766456,47.9287256 C31.263445,48.2867835 30.9068928,48.593749 30.6069891,48.8496218 L30.7169538,50.6912974 C31.0368511,50.396278 31.3567483,50.0966569 31.6766456,49.792434 L31.6766456,52.3325995 C31.6766456,52.7835709 31.5633487,53.069826 31.3367548,53.1913649 C31.1101609,53.3129037 30.8868992,53.4325199 30.6669698,53.5502134 C30.7935958,54.1305998 30.8902315,54.6730695 30.9568767,55.1776222 Z M36.515092,52.1086419 L36.515092,51.4183796 L38.7443762,50.1321056 L38.7443762,50.822368 L39.9239975,50.1417387 L39.9239975,45.1856549 L38.2445367,46.1546864 L38.2445367,44.9950456 L40.5238049,43.6799315 L40.5238049,42.2303805 L38.2445367,43.5454946 L38.2445367,42.3168276 L40.1039397,41.2439713 L40.1039397,36.9229289 L34.0558817,40.4125959 L34.0558817,45.4515112 C34.0558817,48.2125606 33.7226553,50.5906596 33.0562027,52.5858081 C33.3760999,52.8337951 33.6760036,53.1301322 33.9559138,53.4748194 C34.6890117,51.5700662 35.1155414,49.3222021 35.2355029,46.731227 L36.9849412,45.7218192 L36.9849412,46.88146 L35.3354708,47.8331874 L35.3354708,52.7892712 L36.515092,52.1086419 Z M38.8743345,40.5038898 L35.2754901,42.5803859 L35.2754901,41.1584454 L38.8743345,39.0819494 L38.8743345,40.5038898 Z M36.9849412,44.2722683 L35.2754901,45.2586039 L35.2754901,44.0299369 L36.9849412,43.0436012 L36.9849412,44.2722683 Z M38.7443762,48.6825546 L36.515092,49.9688286 L36.515092,48.6021091 L38.7443762,47.3158351 L38.7443762,48.6825546 Z M47.1116895,45.9945147 C47.6415194,45.2286334 48.116367,44.4254501 48.5362321,43.5849649 C48.9627618,43.9094785 49.4376094,44.1278836 49.9607747,44.24018 C50.2540139,43.3623147 50.533924,42.584175 50.8005051,41.9057611 C50.2740075,41.9196346 49.8058245,41.8216314 49.3959561,41.6117516 C49.8857988,40.3075291 50.2606784,38.9223831 50.520595,37.4563137 L50.520595,35.8687103 L46.5118821,38.1816961 L46.5118821,34.8684368 L48.9810893,33.4437297 C48.9810893,33.9453204 48.9236078,34.2856534 48.8086447,34.4647288 C48.6936816,34.6438041 48.5412305,34.7881383 48.3512915,34.8977311 C48.0747137,35.0573137 47.6481839,35.2758064 47.0717024,35.5532093 C47.1849993,36.0676585 47.2716382,36.5790822 47.3316189,37.0874803 C48.4279336,36.4733251 49.0943862,36.0646296 49.3309769,35.8613939 C49.5675676,35.6581581 49.7708357,35.3844151 49.9407811,35.0401648 C50.1107266,34.6959144 50.2281889,34.2899113 50.293168,33.8221555 C50.3581471,33.3543997 50.3906367,32.4141533 50.3906367,31.0014163 L45.232293,33.9777273 L45.232293,46.9822703 L46.5118821,46.2439606 L46.5118821,44.897949 C46.7351438,45.2431095 46.9350796,45.6086314 47.1116895,45.9945147 Z M41.7534101,49.1276023 C42.2665786,47.8145228 42.5464887,46.1390421 42.5931404,44.1011602 L43.5028483,43.5762681 L43.5028483,45.2881188 C43.5028483,45.8219217 43.3428997,46.1811119 43.0230024,46.3656893 C42.8363956,46.4733595 42.6331276,46.5676343 42.4131982,46.6485138 C42.5598178,47.1437362 42.676447,47.7022802 42.7630859,48.3241459 C43.6494679,47.7943056 44.1909607,47.313906 44.3875642,46.8829471 C44.5841678,46.4519882 44.6824696,45.9788108 44.6824696,45.4634149 L44.6824696,34.308775 L41.4435096,36.1776214 L41.4431031,41.2385061 C41.4387677,43.0926623 41.3997491,44.4654467 41.3260473,45.3568592 C41.2477391,46.3039851 41.0836251,47.2131867 40.8337054,48.0844642 C41.1669317,48.352371 41.4734999,48.7000837 41.7534101,49.1276023 Z M43.5028483,38.5235476 L42.6431244,39.0195994 L42.6431244,37.2525277 L43.5028483,36.7564759 L43.5028483,38.5235476 Z M43.5028483,41.9334437 L42.6331276,42.4352636 C42.6397921,41.8930135 42.6431244,41.302067 42.6431244,40.6624238 L43.5028483,40.166372 L43.5028483,41.9334437 Z M46.5118821,39.7969101 L49.1910219,38.2510741 C49.0144119,39.1536806 48.774489,40.0076857 48.471253,40.8130893 C48.154688,40.4021184 47.8981037,39.8714069 47.7015002,39.2209548 L46.5918565,40.4962491 C46.8717666,41.3563321 47.218322,42.0721213 47.6315226,42.6436167 C47.3016286,43.2435178 46.9284151,43.8154937 46.5118821,44.3595444 L46.5118821,39.7969101 Z M51.6302387,37.1197762 C53.3030349,35.8186624 54.7842259,34.4808468 56.0738119,33.1063294 C57.2967525,33.0265432 58.7612823,32.6048856 60.4674011,31.8413566 C60.6206852,31.2099068 60.8006275,30.4940494 61.0072278,29.6937843 C59.8542647,30.3268198 58.8046017,30.7714033 57.8582389,31.0275347 C58.75795,29.8641658 59.5277029,28.6791447 60.1674974,27.4724715 L60.1674974,25.9815048 L54.9591698,28.986656 C55.1757669,28.4843383 55.379035,27.9759061 55.568974,27.4613593 L54.0594587,28.332334 C53.4263286,29.9585228 52.4633045,31.6554115 51.1703863,33.4230003 C51.4836191,33.7484606 51.7535324,34.0575001 51.9801263,34.3501186 C52.4199851,33.7189812 52.8348519,33.0723526 53.2247267,32.4102327 C53.5846111,32.6765632 53.9994779,32.8697538 54.4693271,32.9898044 C53.4596513,33.9221098 52.3333462,34.8273733 51.090412,35.7055947 C51.3103414,36.2413496 51.4902836,36.7127434 51.6302387,37.1197762 Z M56.1437894,31.2919788 C55.4440141,31.3045933 54.8208808,31.1786502 54.2743897,30.9141495 L58.1681394,28.6674962 C57.5883256,29.5634562 56.9135422,30.4382837 56.1437894,31.2919788 Z M52.0201135,43.17621 C53.962823,41.3190069 55.1890959,39.2723511 55.6989322,37.0362426 L58.617995,35.3519736 C58.5946691,36.0280843 58.5638457,36.4853361 58.5255246,36.7237292 C58.4872036,36.9621222 58.3880688,37.1872858 58.2281201,37.39922 C58.0681715,37.6111542 57.8449099,37.7997966 57.5583352,37.9651472 C57.0085117,38.2823897 56.3653849,38.6120515 55.6289547,38.9541326 C55.7822388,39.5651551 55.8888713,40.1248654 55.948852,40.6332636 C56.3187332,40.4428547 56.670287,40.2515161 57.0035134,40.059248 C57.9665375,39.503593 58.6129966,39.0489118 58.9428906,38.6952042 C59.2727847,38.3414966 59.5327012,37.9395817 59.7226403,37.4894594 C59.9125793,37.0393371 60.0242101,36.5423629 60.0575327,35.9985367 L60.2274782,32.7528835 L56.0038343,35.1898823 C56.0604828,34.7338358 56.1054684,34.2753152 56.138791,33.8143205 L54.70925,34.6391509 C54.6692629,35.122398 54.6176128,35.5847639 54.5542998,36.0262488 L51.4303029,37.8287627 L51.4303029,39.4991977 L54.1294362,37.9418256 C53.6295967,39.3438512 52.6132564,40.7401769 51.0804152,42.1308028 C51.4469642,42.4899247 51.7601969,42.8383938 52.0201135,43.17621 Z" id="数据服务" fill="#0F71E2" fill-rule="nonzero"></path>
            </g>
        </g>
    </g>
</svg>