<?xml version="1.0" encoding="UTF-8"?>
<svg width="79px" height="88px" viewBox="0 0 79 88" version="1.1" xmlns="http://www.w3.org/2000/svg" xmlns:xlink="http://www.w3.org/1999/xlink">
    <title>编组 35备份 11</title>
    <defs>
        <linearGradient x1="69.9747546%" y1="63.9700768%" x2="63.8070403%" y2="63.9700768%" id="linearGradient-1">
            <stop stop-color="#B7C8D6" offset="0%"></stop>
            <stop stop-color="#DAE2EB" offset="100%"></stop>
        </linearGradient>
    </defs>
    <g id="首页" stroke="none" stroke-width="1" fill="none" fill-rule="evenodd">
        <g id="首页备份" transform="translate(-1419.000000, -373.000000)">
            <g id="编组-35备份-11" transform="translate(1419.402496, 373.190404)">
                <path d="M2.82079467,32.4049489 L2.79681228,35.2410185 C2.78767289,36.3218099 3.36061161,37.3239679 4.29662022,37.8644135 L47.3242493,62.7082995 C49.1806814,63.7801918 51.4679519,63.7802292 53.3244189,62.7083974 L70.3390306,52.8850068 C71.233263,52.3687215 71.799138,51.4288439 71.8370119,50.3969681 L71.9636486,46.9467392 L71.9636486,46.9467392 L51.2394024,36.0044209 L56.8528497,31.727197 L56.7435066,28.3447944 L44.5560219,31.2841121 L29.0676343,21.70549 C27.2449776,20.5782881 24.959495,20.5087985 23.0717237,21.5231855 L2.82079467,32.4049489 L2.82079467,32.4049489 Z" id="Fill-6163" fill="url(#linearGradient-1)" transform="translate(37.372836, 42.162244) rotate(-240.000000) translate(-37.372836, -42.162244) "></path>
                <path d="M6.54910527,38.5190048 L49.6168254,63.51622 C51.4750273,64.594751 53.7680884,64.5973821 55.6287604,63.5231181 L72.6728372,53.6826748 C74.1077136,52.8542451 74.5993357,51.019473 73.770906,49.5845966 C73.5010434,49.1171829 73.110082,48.7312281 72.6392292,48.4674118 L52.4689184,37.1660994 L52.4689184,37.1660994 L59.022384,32.2990263 L43.6333425,32.0648212 L29.7287399,23.5631969 C27.8537757,22.4167965 25.5020904,22.3871902 23.59886,23.4860254 L6.5550634,33.3263069 C5.12018703,34.1547366 4.62856487,35.9895087 5.45699458,37.4243851 C5.71913136,37.8784174 6.0956757,38.2558268 6.54910527,38.5190048 Z" id="Fill-6163备份" fill="#FFFFFF" transform="translate(39.653763, 43.481505) rotate(-240.000000) translate(-39.653763, -43.481505) "></path>
                <path d="M26.6540645,57.9916834 C27.3494243,57.0476775 27.9602565,55.9833268 28.4865609,54.7986315 C28.8948456,55.3265214 29.3780888,55.697669 29.9362905,55.9120744 C30.2616423,54.8877192 30.5391483,54.1231113 30.7688084,53.6182509 C30.1755198,53.4648999 29.6747331,53.1652951 29.2664484,52.7194364 C29.8469782,50.8338503 30.2058222,48.6442083 30.3429803,46.1505106 L30.7305318,45.9291738 L30.7305318,44.2612051 L28.3334542,45.6302138 C28.4769917,44.9056591 28.612555,44.1537576 28.740144,43.3745093 L27.4291674,43.9454943 C27.0495902,46.3588914 26.5982443,48.4076778 26.0751296,50.0918535 C25.7178805,49.9996601 25.3398982,49.9147505 24.9411827,49.8371246 L24.6158308,50.6518445 L24.6158308,49.6948132 L26.2904359,48.7384199 L26.2904359,47.3438886 L25.735424,47.6608647 C26.0512066,46.9336413 26.3159537,46.2492369 26.5296652,45.6076516 L25.6301631,45.3557465 C25.4132618,46.008268 25.145325,46.7036087 24.8263526,47.4417684 L25.6205939,47.726446 L24.6158308,48.300282 L24.6158308,45.6205945 L23.400546,46.3146628 L23.400546,48.9943503 L22.3287987,49.606442 L23.1900242,48.3763013 C22.8519135,47.8493496 22.5839766,47.4737267 22.3862137,47.2494326 L21.5249883,48.506917 C21.8088737,48.8962179 22.0353441,49.2864083 22.2043995,49.6774883 L21.4580041,50.1037665 L21.4580041,51.4982978 L22.8885953,50.6812646 C22.3782394,51.5697421 21.805684,52.3706958 21.1709289,53.0841259 C21.3367946,53.4724703 21.4867116,53.9337254 21.62068,54.467891 C22.3351782,53.4491527 22.9284668,52.449509 23.400546,51.4689596 L23.400546,52.7814596 L22.8838107,53.0082159 C22.8072573,53.4119628 22.7163502,53.8239073 22.6110893,54.2440495 L21.3527432,54.9627108 L21.3527432,56.357242 L22.1374153,55.9091034 C21.9651702,56.4586472 21.770597,57.0209429 21.5536958,57.5959905 C22.0449133,57.6025578 22.510613,57.6191414 22.9507949,57.6457414 C22.4436288,58.2179441 21.8567196,58.7445434 21.1900672,59.2255394 C21.4133479,59.717812 21.5824033,60.1818087 21.6972334,60.6175295 C22.6700992,59.7793585 23.5058069,58.8281143 24.2043564,57.7637971 C24.6572972,57.8286832 25.0751511,57.9090507 25.457918,58.0048996 L25.7976236,57.0042478 C26.1102165,57.2860075 26.3956968,57.6151527 26.6540645,57.9916834 Z M28.4913455,51.4052739 C28.1723731,50.5666108 27.9490924,49.4249241 27.8215035,47.9802141 C27.8597801,47.8307495 27.8948671,47.680828 27.9267644,47.5304495 L29.1707567,46.8199859 C29.0973931,48.4660517 28.8709227,49.994481 28.4913455,51.4052739 Z M26.1373292,56.0172678 L25.1851966,56.0210067 C25.5583943,55.2336488 25.8693924,54.3975043 26.1181908,53.512573 L26.1181908,52.2410886 L23.8885738,53.514458 C23.977886,53.2219139 24.059224,52.9430387 24.1325876,52.6778322 L24.6158308,52.4018445 L24.6158308,51.362782 C25.0751511,51.492384 25.5025741,51.6356458 25.8980999,51.7925673 L26.1803905,51.0229483 C26.3749636,51.2991943 26.5456139,51.5777098 26.6923412,51.8584949 C26.8071712,51.5285907 26.9204064,51.1882041 27.0320468,50.8373352 C27.1979124,51.8773724 27.4371417,52.7661354 27.7497347,53.5036242 C27.2521377,54.6217941 26.6508747,55.6442213 25.9459457,56.5709058 L26.1373292,56.0172678 Z M23.0847633,56.0789956 L23.3670539,55.2068375 L24.7880759,54.3952694 C24.6030719,54.9748865 24.3670324,55.5244059 24.0799572,56.0438278 L23.0847633,56.0789956 Z M31.3716663,55.1196524 C31.6842592,54.9593548 32.0096111,54.7598694 32.3477218,54.5211961 C32.9282516,54.1623027 33.2185165,53.4769966 33.2185165,52.4652779 L33.2185165,48.7191841 C33.4928327,48.4622574 33.7703387,48.2035089 34.0510344,47.9429387 C34.044655,47.490853 34.0574139,46.8911183 34.0893111,46.1437346 C33.7830976,46.4279929 33.4928327,46.6894709 33.2185165,46.9281685 L33.2185165,45.014106 L34.0414653,44.544107 L34.0414653,42.794107 L33.2185165,43.264106 L33.2185165,40.8441841 L32.0606467,41.5054618 L32.0606467,43.9253836 L31.1515753,44.4445686 L31.1515753,46.1945686 L32.0606467,45.6753836 L32.0606467,47.9585868 C31.6651209,48.3029673 31.3238204,48.5981498 31.0367453,48.8441342 L31.1420061,50.6707368 C31.4482197,50.3864785 31.7544332,50.0976628 32.0606467,49.8042899 L32.0606467,52.3199149 C32.0606467,52.7665295 31.952196,53.0472173 31.7352948,53.1619785 C31.5183936,53.2767396 31.3046821,53.389679 31.0941603,53.5007967 C31.2153698,54.0787075 31.3078718,54.618326 31.3716663,55.1196524 Z M36.6921259,52.217773 L36.6921259,51.5341792 L38.8260513,50.3154609 L38.8260513,50.9990546 L39.9552136,50.3541723 L39.9552136,45.4459692 L38.3475927,46.3641067 L38.3475927,45.2156692 L40.5293639,43.9696254 L40.5293639,42.5340785 L38.3475927,43.7801224 L38.3475927,42.5633255 L40.1274587,41.546816 L40.1274587,37.2675191 L34.3381096,40.5739075 L34.3381096,45.5641419 C34.3381096,48.2985169 34.0191372,50.6454006 33.3811924,52.6047929 C33.6874059,52.858295 33.9744811,53.1591856 34.2424179,53.5074648 C34.9441572,51.6392425 35.3524418,49.4236428 35.4672719,46.8606658 L37.141877,45.9042724 L37.141877,47.0527099 L35.5629636,47.9544522 L35.5629636,52.8626553 L36.6921259,52.217773 Z M38.9504505,40.783477 L35.5055486,42.7509147 L35.5055486,41.3427116 L38.9504505,39.3752739 L38.9504505,40.783477 Z M37.141877,44.4687256 L35.5055486,45.4032585 L35.5055486,44.1864616 L37.141877,43.2519287 L37.141877,44.4687256 Z M38.8260513,48.879914 L36.6921259,50.0986324 L36.6921259,48.7451167 L38.8260513,47.5263984 L38.8260513,48.879914 Z M41.8881863,49.2502211 C42.5963051,47.323668 42.9503644,44.8154695 42.9503644,41.7256258 L42.9503644,37.5283601 C43.8785741,36.9572294 44.8610091,36.3346218 45.8976694,35.6605376 L45.8976694,36.6790923 L43.3044238,38.1601356 L43.3044238,39.7050575 L45.8976694,38.2240142 L45.8976694,39.1537017 L43.5819298,40.476257 L43.5819298,45.2340695 L44.8259221,44.5236059 L44.8259221,41.3107153 L48.3665158,39.2886265 L48.3665158,42.5015171 L49.6105082,41.7910535 L49.6105082,37.033241 L47.208646,38.4049823 L47.208646,37.4752948 L49.93586,35.91774 L49.93586,34.3728181 L47.208646,35.9303729 L47.208646,34.8024432 L50.1081051,32.8525712 L49.5148164,31.5097671 C46.8482072,33.4246367 44.226254,35.104367 41.648957,36.5489581 L41.648957,42.3868488 C41.648957,44.8113279 41.371451,46.8337482 40.8164391,48.4541097 C41.2630004,48.7368319 41.6202495,49.0022024 41.8881863,49.2502211 Z M43.3809772,48.4113367 C44.9248036,47.0374456 46.0029303,45.6743147 46.6153573,44.3219438 C47.5850334,44.4426257 48.5547095,44.6179951 49.5243856,44.848052 L50.2994885,42.7647535 C49.0905831,42.7032253 48.0299999,42.6845921 47.1177388,42.7088539 C47.2708456,41.992506 47.3553733,41.210507 47.3713219,40.3628568 L46.0316378,41.1279714 C45.9965509,42.5197549 45.7373858,43.6156849 45.2541426,44.4157612 C44.7708994,45.2158375 43.9296097,46.1383686 42.7302735,47.1833544 C42.9407953,47.5006221 43.1576965,47.9099495 43.3809772,48.4113367 Z M59.1796802,30.0368864 L59.1796802,26.3454801 L51.6008959,30.673843 L51.6008959,34.3652493 L59.1796802,30.0368864 Z M57.8782728,28.5242812 L52.9023033,31.3661357 L52.9023033,30.88762 L57.8782728,28.0457656 L57.8782728,28.5242812 Z M57.8782728,29.8231093 L52.9023033,32.6649638 L52.9023033,32.1864482 L57.8782728,29.3445937 L57.8782728,29.8231093 Z M60.117459,30.9641967 L60.117459,29.952478 L50.7013938,35.330141 L50.7013938,36.3418597 L60.117459,30.9641967 Z M60.1365974,38.3770946 L60.1365974,37.3653759 L56.0122842,39.720836 L56.0122842,39.2013048 L59.5624471,37.1737509 L59.5624471,36.2167197 L56.0122842,38.2442735 L56.0122842,37.752086 L59.1892493,35.9376713 L59.1892493,31.9591556 L51.5817576,36.3039138 L51.5817576,40.2824295 L54.7491535,38.4734798 L54.7491535,38.9656673 L51.2659749,40.9549654 L51.2659749,41.9119967 L54.7491535,39.9226986 L54.7491535,40.4422298 L50.6631171,42.7758295 L50.6631171,43.7875483 L60.1365974,38.3770946 Z M57.9643953,34.2309547 L56.0122842,35.345836 L56.0122842,34.7306016 L57.9643953,33.6157203 L57.9643953,34.2309547 Z M54.7491535,36.0672298 L52.8066116,37.1766461 L52.8066116,36.5614117 L54.7491535,35.4519955 L54.7491535,36.0672298 Z M57.9643953,35.6801734 L56.0122842,36.7950548 L56.0122842,36.1798204 L57.9643953,35.064939 L57.9643953,35.6801734 Z M54.7491535,37.5164486 L52.8066116,38.6258648 L52.8066116,38.0106305 L54.7491535,36.9012142 L54.7491535,37.5164486 Z" id="数据质量" fill="#0F71E2" fill-rule="nonzero"></path>
            </g>
        </g>
    </g>
</svg>