<?xml version="1.0" encoding="UTF-8"?>
<svg width="77px" height="87px" viewBox="0 0 77 87" version="1.1" xmlns="http://www.w3.org/2000/svg" xmlns:xlink="http://www.w3.org/1999/xlink">
    <title>编组 35备份 5</title>
    <defs>
        <linearGradient x1="69.9747546%" y1="63.9700768%" x2="63.8070403%" y2="63.9700768%" id="linearGradient-1">
            <stop stop-color="#B7C8D6" offset="0%"></stop>
            <stop stop-color="#DAE2EB" offset="100%"></stop>
        </linearGradient>
    </defs>
    <g id="首页" stroke="none" stroke-width="1" fill="none" fill-rule="evenodd">
        <g id="首页备份" transform="translate(-1095.000000, -420.000000)">
            <g id="编组-35备份-5" transform="translate(1095.582647, 420.022772)">
                <path d="M2.75380737,32.5209743 L2.72986822,35.3519305 C2.72070576,36.4354503 3.29654032,37.4397086 4.23628639,37.979131 L45.395656,61.6049664 C47.2500815,62.6694227 49.5308572,62.6665605 51.3826052,61.5974533 L68.4060179,51.7689814 C69.3002503,51.2526961 69.8661253,50.3128185 69.9039992,49.2809427 L70.0306359,45.8307138 L70.0306359,45.8307138 L50.6724151,35.2544209 L56.2858624,30.977197 L56.1765193,27.5947944 L43.9890346,30.5341121 L28.9633414,21.7081555 C27.1575147,20.6474292 24.9292785,20.6050652 23.0844377,21.5963837 L2.75380737,32.5209743 L2.75380737,32.5209743 Z" id="Fill-6163" fill="url(#linearGradient-1)" transform="translate(36.372836, 41.662244) rotate(-240.000000) translate(-36.372836, -41.662244) "></path>
                <path d="M6.49995354,38.631613 L47.6877691,62.4116707 C49.5441827,63.4834833 51.8313865,63.4834867 53.6878032,62.4116795 L70.8075651,52.5275392 C72.2424414,51.6991095 72.7340636,49.8643374 71.9056339,48.4294611 C71.6423314,47.9734097 71.2636233,47.5947005 70.8075727,47.3313967 L51.9019311,36.4160994 L51.9019311,36.4160994 L58.4553967,31.5490263 L43.0663552,31.3148212 L29.6197572,23.551339 C27.7633436,22.4795263 25.4761398,22.4795229 23.6197231,23.5513301 L6.49996122,33.4354704 C5.06508484,34.2639001 4.57346269,36.0986722 5.4018924,37.5335486 C5.66519488,37.9895999 6.04390295,38.3683091 6.49995354,38.631613 Z" id="Fill-6163备份" fill="#FFFFFF" transform="translate(38.653763, 42.981505) rotate(-240.000000) translate(-38.653763, -42.981505) "></path>
                <path d="M21.7538364,54.9427603 L21.7538364,54.423229 L28.9066692,50.1480696 L28.9066692,49.3004133 L25.1585456,51.5406203 L25.1585456,50.5425735 L28.4455126,48.577994 L28.4455126,47.7850253 L25.1585456,49.7496047 L25.1585456,48.7789016 L28.4455126,46.8143221 L28.4455126,46.0213534 L25.1585456,47.9859328 L25.1585456,47.0152297 L28.8772336,44.7926159 L28.8772336,43.9449597 L25.1192982,46.1910311 L25.5706429,45.5247836 C25.3744061,45.1863428 25.1225688,44.872019 24.8151311,44.5818124 L24.2362324,45.4200005 C24.4782579,45.7265167 24.6875772,46.0343519 24.8641903,46.3435059 L22.0874391,48.0031357 C22.2771347,47.5069445 22.4635597,46.994479 22.6467141,46.465739 L21.969697,46.4465556 C21.3155742,48.4507979 20.5142738,50.2877982 19.5657957,51.9575563 C19.775115,52.1696884 19.9321045,52.376639 20.0367641,52.5784081 C20.3867198,51.9317439 20.7301343,51.2343019 21.0670075,50.4860819 L21.0670075,55.3532694 L21.7538364,54.9427603 Z M24.4717166,48.396442 L21.7538364,50.0208853 L21.7538364,49.0501821 L24.4717166,47.4257388 L24.4717166,48.396442 Z M24.4717166,50.1601138 L21.7538364,51.7845571 L21.7538364,50.813854 L24.4717166,49.1894107 L24.4717166,50.1601138 Z M24.4717166,51.9511295 L21.7538364,53.5755728 L21.7538364,52.5775259 L24.4717166,50.9530826 L24.4717166,51.9511295 Z M24.8053193,58.1365049 L24.8053193,54.9304503 C25.9565754,55.63689 27.3302332,55.8344264 28.9262928,55.5230595 C29.0571174,55.1532006 29.2108363,54.7240852 29.3874494,54.2357132 C27.9876266,54.6758855 26.7153578,54.6752371 25.5706429,54.233768 L29.0244113,52.1694935 L29.0244113,51.2944935 L24.8053193,53.8161924 L24.8053193,52.8865049 L24.1184903,53.2970141 L24.1184903,54.2267016 L19.8895865,56.754265 L19.8895865,57.629265 L23.3237311,55.5767193 C22.2051812,57.4073721 20.9427242,58.9822395 19.5363602,60.3013215 C19.7064321,60.4913383 19.860151,60.6865718 19.9975168,60.887022 C21.554329,59.2774982 22.9279869,57.4242534 24.1184903,55.3272875 L24.1184903,58.5470141 L24.8053193,58.1365049 Z M34.9017045,52.1156925 L34.9017045,44.6371769 L37.6980794,42.9658182 L37.6980794,46.8349589 C37.6980794,47.4365214 37.4854895,47.864365 37.0603097,48.1184897 C36.7332483,48.3139702 36.2982567,48.5511729 35.7553348,48.8300977 C35.8142058,49.2232966 35.8599944,49.5605126 35.8927005,49.8417458 C36.4683286,49.5159292 36.9360264,49.2455066 37.2957939,49.0304781 C38.0742001,48.5652344 38.4634031,47.7583938 38.4634031,46.6099563 L38.4634031,41.496675 L34.9017045,43.6254581 L34.9017045,41.7387394 L39.277786,39.1232097 L39.277786,38.0841472 L34.5288545,40.9225247 L35.1764361,40.0843013 C34.9409519,39.6234848 34.6825734,39.1900238 34.4013006,38.7839183 L33.6457888,39.7276659 C33.9172497,40.1441931 34.1543692,40.5766884 34.3571473,41.025152 L29.7799231,43.7609021 L29.7799231,44.7999646 L34.1167572,42.2078927 L34.1167572,44.0946114 L30.6139296,46.188208 L30.6139296,53.2565674 L31.3792533,52.7991429 L31.3792533,46.7425023 L34.1167572,45.1063302 L34.1167572,52.5848458 L34.9017045,52.1156925 Z M44.8705358,46.3488518 C45.7012718,45.0867063 46.4175362,43.7562601 47.0193292,42.3575134 C47.5491687,43.0343245 48.2131033,43.4942699 49.0111331,43.7373494 C49.1550401,43.3323276 49.3316533,42.866742 49.5409726,42.3405928 C48.7233191,42.1912733 48.0495726,41.7736508 47.5197331,41.0877251 C48.1934796,39.1082122 48.6121182,36.7297419 48.7756489,33.9523142 L49.3937949,33.5828559 L49.3937949,32.6531684 L46.3913713,34.4476798 C46.5745257,33.5725857 46.7347858,32.6519304 46.8721516,31.685714 L46.0872042,31.9908048 C45.8320963,34.3307797 45.3251512,36.4885922 44.5663687,38.4642425 C44.7626056,38.6659646 44.9261363,38.859891 45.0569608,39.0460217 C45.2074091,38.664434 45.3513161,38.2639694 45.4886819,37.844628 C45.6587538,39.4109468 46.0087095,40.6737879 46.538549,41.6331511 C45.9694621,43.0396935 45.2270328,44.4359082 44.3112609,45.8217954 C44.5402038,45.9948549 44.7266288,46.1705404 44.8705358,46.3488518 Z M40.0529215,42.7888271 C40.8444101,41.6595142 41.5377802,40.4840277 42.133032,39.2623677 L42.133032,41.1764302 L42.8591083,40.7424634 L42.8591083,39.1838697 C43.4020302,39.4518199 43.8533749,39.7152599 44.2131424,39.9741896 L44.6841108,38.9270726 C44.2720135,38.6994198 43.7617977,38.4574944 43.1534635,38.2012965 L42.8591083,38.8420728 L42.8591083,38.0080884 L44.7429819,36.8821205 L44.7429819,35.9797767 L42.8591083,37.1057447 L42.8591083,34.0432447 L42.133032,34.4772115 L42.133032,37.5397115 L39.8763083,38.8885272 L39.8763083,39.790871 L41.8975478,38.5828012 C41.2107188,39.8865395 40.455207,41.09461 39.6310123,42.2070126 C39.7880018,42.4048486 39.9286382,42.5987868 40.0529215,42.7888271 Z M43.8304806,36.1833706 C44.1902481,35.4123524 44.5500157,34.591204 44.9097832,33.7199254 L44.301449,33.5229723 C43.9743876,34.3655883 43.640785,35.166541 43.3006411,35.9258303 C43.5034192,36.0051532 43.6800324,36.091 43.8304806,36.1833706 Z M41.6031925,36.8173274 C41.2892136,36.43077 40.9850465,36.0748065 40.6906912,35.7494369 L40.1314162,36.6169118 C40.4192303,36.9735347 40.7070443,37.3620587 40.9948583,37.7824837 L41.6031925,36.8173274 Z M47.029141,40.3008678 C46.4927604,39.2451538 46.165699,37.7863374 46.0479569,35.9244188 C46.0872042,35.7915861 46.123181,35.6561509 46.1558871,35.5181133 L47.9907015,34.4214675 C47.8729594,36.6975696 47.5524393,38.6573697 47.029141,40.3008678 Z M39.9548031,49.2322369 C41.0798943,48.1313984 42.0120192,46.9909455 42.751178,45.8108782 C43.1894403,45.8679447 43.6113495,45.9347852 44.0169056,46.0113998 L44.4486266,44.8100061 C44.0757766,44.7958748 43.7094679,44.7778338 43.3497004,44.7558832 C43.8533749,43.780364 44.2294955,42.7717072 44.4780622,41.7299129 L44.4780622,40.841241 L42.0741609,42.278023 C42.1788206,41.9693754 42.2834802,41.6561706 42.3881398,41.3384085 L41.6816872,41.4461934 C41.5443215,41.8928785 41.4036851,42.3324039 41.259778,42.7647695 L39.7683781,43.6561608 L39.7683781,44.5585045 L40.886928,43.8899611 C40.6906912,44.453864 40.4879131,45.0080046 40.2785939,45.552383 C40.8934693,45.6041504 41.4821798,45.6624417 42.0447254,45.7272568 C41.3840614,46.6872317 40.5762197,47.6030113 39.6212004,48.4745958 C39.7389426,48.7505769 39.8501434,49.003124 39.9548031,49.2322369 Z M42.6726833,44.7230279 C42.1820912,44.6972383 41.7045815,44.6773014 41.2401544,44.6632171 C41.3906026,44.2542856 41.5410508,43.8362396 41.6914991,43.4090789 L43.7323622,42.1892804 C43.4772543,43.0709219 43.124028,43.9155044 42.6726833,44.7230279 Z M49.9432581,42.9204643 C50.342273,42.7002072 50.6431695,42.5249224 50.8459475,42.3946098 C51.4935291,41.9893292 51.8173199,41.2717149 51.8173199,40.241767 L51.8173199,36.1060248 C52.1280282,35.774485 52.451819,35.4328472 52.7886922,35.0811117 C52.7559861,34.7998785 52.7363624,34.4561386 52.7298212,34.0498919 C52.4321953,34.3690552 52.1280282,34.6898495 51.8173199,35.0122748 L51.8173199,32.2027045 L52.8868106,31.5634831 L52.8868106,30.5791081 L51.8173199,31.2183295 L51.8173199,28.6070014 L51.0912436,29.0409682 L51.0912436,31.6522963 L49.8549515,32.3912127 L49.8549515,33.3755877 L51.0912436,32.6366713 L51.0912436,35.7606947 C50.6529813,36.2049303 50.2016366,36.6547065 49.7372094,37.1100232 L49.8353278,38.2271603 C50.2245309,37.8031322 50.6431695,37.3523963 51.0912436,36.8749526 L51.0912436,40.4843276 C51.0912436,40.9491713 50.9440659,41.2695594 50.6497107,41.4454919 C50.4600151,41.5588706 50.1852835,41.6957305 49.825516,41.8560716 C49.8778458,42.2167218 49.9170932,42.5715194 49.9432581,42.9204643 Z M52.4747133,41.612523 C53.3316141,39.5736713 53.7960413,37.1313753 53.8679948,34.2856353 L56.154154,32.9192263 L56.154154,34.6555544 L54.1329145,35.8636241 L54.1329145,40.4847179 L54.8393672,40.0624799 L54.8393672,39.2695112 L58.1950171,37.2638808 L58.1950171,38.0568496 L58.9014697,37.6346116 L58.9014697,33.0135178 L56.8606066,34.2333164 L56.8606066,32.4969883 L59.4509328,30.9487824 L59.4509328,30.0190949 L56.8606066,31.5673008 L56.8606066,30.1317539 L56.154154,30.5539919 L56.154154,31.9895388 L53.8778067,33.3500833 L53.8778067,31.6547708 L58.2538881,29.0392412 L58.2538881,29.4630693 L58.9603407,29.0408313 L58.9603407,25.0759876 L53.171354,28.5359932 L53.171354,33.8680244 C53.171354,36.7755765 52.7625273,39.1755261 51.9448738,41.0678733 C52.1411106,41.2422517 52.3177238,41.4238016 52.4747133,41.612523 Z M58.2538881,28.1368974 L53.8778067,30.7524271 L53.8778067,29.016099 L58.2538881,26.4005693 L58.2538881,28.1368974 Z M58.1950171,36.3752089 L54.8393672,38.3808393 L54.8393672,36.3437299 L58.1950171,34.3380996 L58.1950171,36.3752089 Z" id="集市数据" fill="#000000" fill-rule="nonzero"></path>
            </g>
        </g>
    </g>
</svg>