<?xml version="1.0" encoding="UTF-8"?>
<svg width="37px" height="37px" viewBox="0 0 37 37" version="1.1" xmlns="http://www.w3.org/2000/svg" xmlns:xlink="http://www.w3.org/1999/xlink">
    <title>数据服务</title>
    <defs>
        <path d="M5,-3.0000796 C5,-4.10460514 5.89702623,-5 7.00494659,-5 L26.9950534,-5 C28.1023548,-5 29,-4.10805885 29,-3.0000796 L29,27.0000796 C29,28.1046051 28.1029738,29 26.9950534,29 L7.00494659,29 C5.89764516,29 5,28.1080589 5,27.0000796 L5,-3.0000796 Z" id="path-1"></path>
        <filter x="-6.2%" y="-4.4%" width="112.5%" height="108.8%" filterUnits="objectBoundingBox" id="filter-3">
            <feGaussianBlur stdDeviation="1.5" in="SourceAlpha" result="shadowBlurInner1"></feGaussianBlur>
            <feOffset dx="0" dy="0" in="shadowBlurInner1" result="shadowOffsetInner1"></feOffset>
            <feComposite in="shadowOffsetInner1" in2="SourceAlpha" operator="arithmetic" k2="-1" k3="1" result="shadowInnerInner1"></feComposite>
            <feColorMatrix values="0 0 0 0 0.0588235294   0 0 0 0 0.443137255   0 0 0 0 0.88627451  0 0 0 0.3 0" type="matrix" in="shadowInnerInner1"></feColorMatrix>
        </filter>
        <filter x="-30.0%" y="-20.0%" width="160.0%" height="140.0%" filterUnits="objectBoundingBox" id="filter-4">
            <feGaussianBlur stdDeviation="2" in="SourceGraphic"></feGaussianBlur>
        </filter>
    </defs>
    <g id="数据工坊" stroke="none" stroke-width="1" fill="none" fill-rule="evenodd">
        <g id="数据流监控" transform="translate(-1442.000000, -646.000000)">
            <g id="编组-9" transform="translate(1442.140882, 646.614251)">
                <path d="M29.0224938,5.96560137 C30.1219796,5.96560137 31.0132889,6.86344178 31.0132889,7.9572184 L31.0132889,33.9739843 C31.0132889,35.0739241 30.1150765,35.9656014 29.0224938,35.9656014 L13.0040841,35.9656014 C11.9045983,35.9656014 11.0132889,35.067761 11.0132889,33.9739843 L11.0132889,33.9513238 L25.3558271,33.9521736 C26.398747,33.9521736 27.264565,33.1397156 27.3411209,32.1091933 L27.3466223,31.9605566 L27.3462889,5.96532375 L29.0224938,5.96560137 Z" id="形状结合" fill="#0F71E2" transform="translate(21.013289, 20.965463) scale(-1, 1) rotate(-270.000000) translate(-21.013289, -20.965463) "></path>
                <path d="M20.0134277,26.9663342 C20.0134277,26.4135681 20.4572926,25.9654626 21.0134277,25.9654626 L21.0134277,25.9654626 C21.5657125,25.9654626 22.0134277,26.4100934 22.0134277,26.9663342 L22.0134277,40.9645909 C22.0134277,41.5173571 21.5695629,41.9654626 21.0134277,41.9654626 L21.0134277,41.9654626 C20.461143,41.9654626 20.0134277,41.5208317 20.0134277,40.9645909 L20.0134277,26.9663342 Z" id="Base备份-30" fill="#0F71E2" transform="translate(21.013428, 33.965463) scale(-1, 1) rotate(-270.000000) translate(-21.013428, -33.965463) "></path>
                <g id="编组-5" transform="translate(17.000000, 15.380013) scale(-1, 1) translate(-17.000000, -15.380013) translate(0.000000, 3.380013)">
                    <mask id="mask-2" fill="white">
                        <use xlink:href="#path-1"></use>
                    </mask>
                    <g id="Base备份-30" opacity="0.5" transform="translate(17.000000, 12.000000) rotate(-270.000000) translate(-17.000000, -12.000000) ">
                        <use fill="#CAE3FF" fill-rule="evenodd" xlink:href="#path-1"></use>
                        <use fill="black" fill-opacity="1" filter="url(#filter-3)" xlink:href="#path-1"></use>
                    </g>
                    <path d="M2.98657227,4.59046859 C2.98657227,3.49052888 3.88478465,2.59885156 4.9773674,2.59885156 L20.9957771,2.59885156 C22.0952629,2.59885156 22.9865723,3.49669197 22.9865723,4.59046859 L22.9865723,30.6072345 C22.9865723,31.7071742 22.0883599,32.5988516 20.9957771,32.5988516 L4.9773674,32.5988516 C3.87788161,32.5988516 2.98657227,31.7010112 2.98657227,30.6072345 L2.98657227,4.59046859 Z" id="Base备份-30" fill="#6AAFFF" filter="url(#filter-4)" mask="url(#mask-2)" transform="translate(12.986572, 17.598852) rotate(-270.000000) translate(-12.986572, -17.598852) "></path>
                </g>
                <path d="M18.4608953,16.1418457 L28.8115572,16.1418457 C29.3682636,16.1418457 29.8195632,16.5857105 29.8195632,17.1418457 L29.8195632,17.1418457 C29.8195632,17.6941305 29.37429,18.1418457 28.8115572,18.1418457 L18.4608953,18.1418457 L18.4608953,16.1418457 Z" id="Base备份-30" fill="#FFFFFF" transform="translate(24.140229, 17.141846) scale(-1, 1) rotate(-90.000000) translate(-24.140229, -17.141846) "></path>
                <path d="M12.647082,15.454834 L24.3806605,15.454834 C24.9324553,15.454834 25.3797734,15.8986988 25.3797734,16.454834 L25.3797734,16.454834 C25.3797734,17.0071187 24.9266102,17.454834 24.3806605,17.454834 L12.647082,17.454834 L12.647082,15.454834 Z" id="Base备份-43" fill="#FFFFFF" transform="translate(19.013428, 16.454834) scale(-1, 1) rotate(-90.000000) translate(-19.013428, -16.454834) "></path>
                <path d="M9.06544652,17 L17.7122217,17 C18.2620677,17 18.7078059,17.4438648 18.7078059,18 L18.7078059,18 C18.7078059,18.5522847 18.2684379,19 17.7122217,19 L9.06544652,19 L9.06544652,17 Z" id="Base备份-44" fill="#FFFFFF" transform="translate(13.886626, 18.000000) scale(-1, 1) rotate(-90.000000) translate(-13.886626, -18.000000) "></path>
                <path d="M4.81669675,17.8780518 L11.7041529,17.8780518 C12.2557747,17.8780518 12.7029526,18.3219166 12.7029526,18.8780518 L12.7029526,18.8780518 C12.7029526,19.4303365 12.2563576,19.8780518 11.7041529,19.8780518 L4.81669675,19.8780518 L4.81669675,17.8780518 Z" id="Base备份-45" fill="#FFFFFF" transform="translate(8.759825, 18.878052) scale(-1, 1) rotate(-90.000000) translate(-8.759825, -18.878052) "></path>
            </g>
        </g>
    </g>
</svg>