<?xml version="1.0" encoding="UTF-8"?>
<svg width="37px" height="37px" viewBox="0 0 37 37" version="1.1" xmlns="http://www.w3.org/2000/svg" xmlns:xlink="http://www.w3.org/1999/xlink">
    <title>ODS贴源层</title>
    <defs>
        <path d="M5,-3.0000796 C5,-4.10460514 5.89702623,-5 7.00494659,-5 L26.9950534,-5 C28.1023548,-5 29,-4.10805885 29,-3.0000796 L29,27.0000796 C29,28.1046051 28.1029738,29 26.9950534,29 L7.00494659,29 C5.89764516,29 5,28.1080589 5,27.0000796 L5,-3.0000796 Z" id="path-1"></path>
        <filter x="-6.2%" y="-4.4%" width="112.5%" height="108.8%" filterUnits="objectBoundingBox" id="filter-3">
            <feGaussianBlur stdDeviation="1.5" in="SourceAlpha" result="shadowBlurInner1"></feGaussianBlur>
            <feOffset dx="0" dy="0" in="shadowBlurInner1" result="shadowOffsetInner1"></feOffset>
            <feComposite in="shadowOffsetInner1" in2="SourceAlpha" operator="arithmetic" k2="-1" k3="1" result="shadowInnerInner1"></feComposite>
            <feColorMatrix values="0 0 0 0 0.0588235294   0 0 0 0 0.443137255   0 0 0 0 0.88627451  0 0 0 0.3 0" type="matrix" in="shadowInnerInner1"></feColorMatrix>
        </filter>
        <filter x="-26.1%" y="-26.1%" width="152.2%" height="152.2%" filterUnits="objectBoundingBox" id="filter-4">
            <feGaussianBlur stdDeviation="2" in="SourceGraphic"></feGaussianBlur>
        </filter>
    </defs>
    <g id="数据工坊" stroke="none" stroke-width="1" fill="none" fill-rule="evenodd">
        <g id="数据流监控" transform="translate(-926.000000, -353.000000)">
            <g id="编组-7备份" transform="translate(926.000000, 353.511063)">
                <path d="M30.0050165,27.4899461 L30.0050165,31.5012934 C30.0050165,31.9147549 29.7995698,32.3513292 29.3938125,32.7981758 C28.8853319,33.3605862 28.0917939,33.90502 27.0979454,34.3698433 C26.0116459,34.880892 24.73274,35.2815131 23.297181,35.5665704 C21.7820114,35.8670363 20.1666865,36.0185532 18.5,36.0185532 C16.8333135,36.0185532 15.2179886,35.8670363 13.702819,35.5665704 C12.26726,35.2815131 10.9883542,34.8783239 9.90205461,34.3698433 C8.90820609,33.90502 8.11466812,33.3605862 7.60618748,32.7981758 C7.20043018,32.3513292 6.99498346,31.9147549 6.99498346,31.5012934 L6.99498346,27.4899461 C9.23692082,29.3851921 13.5487339,30.666666 18.5,30.6666661 C23.4512661,30.6666661 27.7630792,29.3851921 30.0050165,27.4899461 Z M9.15212717,30.8092901 C8.83427615,30.9928238 8.63849922,31.3320019 8.63855725,31.6990358 C8.63849922,32.0660698 8.83427615,32.4052479 9.15212717,32.5887816 C9.46997819,32.7723153 9.86160356,32.7723153 10.1794546,32.5887816 C10.4973056,32.4052479 10.6930825,32.0660698 10.6930245,31.6990358 C10.6930825,31.3320019 10.4973056,30.9928238 10.1794546,30.8092901 C9.86160356,30.6257563 9.46997819,30.6257563 9.15212717,30.8092901 Z M30.0049835,23.998952 L30.0050165,24.5058324 C30.0050165,24.919294 29.7995698,25.3558682 29.3938125,25.8027149 C28.8853319,26.3651253 28.0917939,26.9095591 27.0979454,27.3743823 C26.0116459,27.8828629 24.73274,28.2860521 23.297181,28.5711095 C21.7820114,28.8715753 20.1666865,29.0230923 18.5,29.0230923 C16.8333135,29.0230923 15.2179886,28.8715753 13.702819,28.5711095 C12.26726,28.2860521 10.9883542,27.8828629 9.90205461,27.3743823 C8.90820609,26.9095591 8.11466812,26.3651253 7.60618748,25.8027149 C7.20043018,25.3533002 6.99498346,24.9167259 6.99498346,24.5058324 L6.99498346,23.998952 L8.92918151,23.9976808 C8.7452944,24.1868872 8.63851439,24.4427699 8.63855725,24.7138472 C8.63849922,25.0808811 8.83427615,25.4200593 9.15212717,25.603593 C9.46997819,25.7871267 9.86160356,25.7871267 10.1794546,25.603593 C10.4973056,25.4200593 10.6930825,25.0808811 10.6930245,24.7138472 C10.6930674,24.4427699 10.5862874,24.1868872 10.4024002,23.9976808 L30.0049835,23.998952 Z" id="形状结合" fill="#0F71E2" fill-rule="nonzero"></path>
                <g id="Base备份-40" transform="translate(1.000000, 0.000000)">
                    <mask id="mask-2" fill="white">
                        <use xlink:href="#path-1"></use>
                    </mask>
                    <g id="Base备份-30" opacity="0.5" transform="translate(17.000000, 12.000000) rotate(-270.000000) translate(-17.000000, -12.000000) ">
                        <use fill="#CAE3FF" fill-rule="evenodd" xlink:href="#path-1"></use>
                        <use fill="black" fill-opacity="1" filter="url(#filter-3)" xlink:href="#path-1"></use>
                    </g>
                    <path d="M29.0050165,28.4799922 L29.0050165,32.4913395 C29.0050165,32.904801 28.7995698,33.3413753 28.3938125,33.7882219 C27.8853319,34.3506323 27.0917939,34.8950661 26.0979454,35.3598894 C25.0116459,35.8709381 23.73274,36.2715592 22.297181,36.5566165 C20.7820114,36.8570824 19.1666865,37.0085993 17.5,37.0085993 C15.8333135,37.0085993 14.2179886,36.8570824 12.702819,36.5566165 C11.26726,36.2715592 9.98835416,35.86837 8.90205461,35.3598894 C7.90820609,34.8950661 7.11466812,34.3506323 6.60618748,33.7882219 C6.20043018,33.3413753 5.99498346,32.904801 5.99498346,32.4913395 L5.99498346,28.4799922 C8.23692082,30.3752382 12.5487339,31.6567121 17.5,31.6567122 C22.4512661,31.6567122 26.7630792,30.3752382 29.0050165,28.4799922 Z M8.15212717,31.7993362 C7.83427615,31.9828699 7.63849922,32.322048 7.63855725,32.6890819 C7.63849922,33.0561159 7.83427615,33.395294 8.15212717,33.5788277 C8.46997819,33.7623614 8.86160356,33.7623614 9.17945458,33.5788277 C9.49730561,33.395294 9.69308253,33.0561159 9.69302451,32.6890819 C9.69308253,32.322048 9.49730561,31.9828699 9.17945458,31.7993362 C8.86160356,31.6158024 8.46997819,31.6158024 8.15212717,31.7993362 Z M29.0050165,21.507644 L29.0050165,25.4958785 C29.0050165,25.9093401 28.7995698,26.3459143 28.3938125,26.792761 C27.8853319,27.3551714 27.0917939,27.8996052 26.0979454,28.3644284 C25.0116459,28.872909 23.73274,29.2760982 22.297181,29.5611556 C20.7820114,29.8616214 19.1666865,30.0131384 17.5,30.0131384 C15.8333135,30.0131384 14.2179886,29.8616214 12.702819,29.5611556 C11.26726,29.2760982 9.98835416,28.872909 8.90205461,28.3644284 C7.90820609,27.8996052 7.11466812,27.3551714 6.60618748,26.792761 C6.20043018,26.3433462 5.99498346,25.906772 5.99498346,25.4958785 L5.99498346,21.507644 C8.23692082,23.40289 12.5487339,24.6843639 17.5,24.6843639 C22.4512661,24.6843639 26.7630792,23.40289 29.0050165,21.507644 Z M8.15212717,24.8141475 C7.83427615,24.9976813 7.63849922,25.3368594 7.63855725,25.7038933 C7.63849922,26.0709272 7.83427615,26.4101054 8.15212717,26.5936391 C8.46997819,26.7771728 8.86160356,26.7771728 9.17945458,26.5936391 C9.49730561,26.4101054 9.69308253,26.0709272 9.69302451,25.7038933 C9.69308253,25.3368594 9.49730561,24.9976813 9.17945458,24.8141475 C8.86160356,24.6306138 8.46997819,24.6306138 8.15212717,24.8141475 Z M17.5,14.0011343 C19.1692547,14.0011343 20.7820114,14.1526513 22.297181,14.4531171 C23.73274,14.7381744 25.0116458,15.1413636 26.0979454,15.6498443 C27.0917939,16.1146675 27.8853319,16.6591013 28.3938125,17.2215117 C28.7995698,17.6709264 29.0050165,18.1075007 29.0050165,18.5183942 C29.0050165,18.9318557 28.7995698,19.36843 28.3938125,19.8152766 C27.8853319,20.377687 27.0917939,20.9221208 26.0979454,21.386944 C25.0116459,21.8979928 23.73274,22.2986139 22.297181,22.5836712 C20.7820114,22.884137 19.1666865,23.035654 17.5,23.035654 C15.8333135,23.035654 14.2179886,22.884137 12.702819,22.5836712 C11.26726,22.2986139 9.98835416,21.8954247 8.90205461,21.386944 C7.90820609,20.9221208 7.11466812,20.377687 6.60618748,19.8152766 C6.20043018,19.3709981 5.99498346,18.9344238 5.99498346,18.5209622 C5.99498346,18.1075007 6.20043018,17.6709264 6.60618748,17.2215117 C7.11466812,16.6591013 7.90820609,16.1146675 8.90205461,15.6498443 C9.98835416,15.1413636 11.26726,14.7381744 12.702819,14.4531171 C14.2179886,14.1526513 15.8307454,14.0011343 17.5,14.0011343 Z" id="形状结合" fill="#6AAFFF" filter="url(#filter-4)" mask="url(#mask-2)"></path>
                </g>
                <text id="DWD" font-family="MicrosoftYaHei-Bold, Microsoft YaHei" font-size="11" font-weight="bold" line-spacing="20" fill="#FFFFFF">
                    <tspan x="3" y="14">DWD</tspan>
                </text>
            </g>
        </g>
    </g>
</svg>