<?xml version="1.0" encoding="UTF-8"?>
<svg width="16px" height="16px" viewBox="0 0 16 16" version="1.1" xmlns="http://www.w3.org/2000/svg" xmlns:xlink="http://www.w3.org/1999/xlink">
    <title>数据连接管理</title>
    <g id="数据工坊" stroke="none" stroke-width="1" fill="none" fill-rule="evenodd">
        <g id="数据流监控" transform="translate(-1480.000000, -16.000000)" fill="#7F8FA4" fill-rule="nonzero">
            <g id="数据连接管理" transform="translate(1480.000000, 16.000000)">
                <path d="M14.4240774,1 C14.7408348,1 15,1.25017635 15,1.55960498 L15,5.58053139 C15,5.88831413 14.7425287,6.13849048 14.4257713,6.13849048 L5.18218811,6.13906394 C5.25845812,6.80660915 5.84204516,7.32682812 6.5491833,7.32682812 L9.45759226,7.32682812 C10.8499698,7.32682812 11.9831821,8.42793322 11.9831821,9.78086057 L11.9831821,9.83682107 L11.981,9.861 L14.4240774,9.86150952 C14.7408348,9.86150952 15,10.1116859 15,10.4211145 L15,14.4420409 C15,14.7498237 14.7425287,15 14.4257713,15 L1.57592257,15 C1.25916515,15 1,14.7498237 1,14.440395 L1,10.4211145 C1,10.1133318 1.25747126,9.86150952 1.57592257,9.86150952 L10.8302257,9.86218531 C10.8298387,9.85377792 10.8296431,9.84532185 10.8296431,9.83682107 L10.8296431,9.78086057 C10.8296431,9.04349871 10.2130672,8.44439219 9.45420448,8.44439219 L6.54748941,8.44439219 C5.2063099,8.44439219 4.10558684,7.42277403 4.02645259,6.13853827 L1.57592257,6.13849048 C1.25916515,6.13849048 1,5.88831413 1,5.57888549 L1,1.55960498 C1,1.25182224 1.25747126,1 1.57592257,1 L14.4240774,1 Z M5.08688465,11.8711498 L3.91513626,11.8711498 C3.59668496,11.8711498 3.33921369,12.1213261 3.33921369,12.4307548 C3.33921369,12.7092405 3.54913747,12.939732 3.82203837,12.9830454 L3.91513626,12.9903597 L5.08688465,12.9903597 C5.40364206,12.9903597 5.66280721,12.7401834 5.66280721,12.4307548 C5.66280721,12.1213261 5.40364206,11.8711498 5.08688465,11.8711498 Z M8.60368966,11.8711498 L7.40502477,11.8711498 C7.08657347,11.8711498 6.8291022,12.1213261 6.8291022,12.4307548 C6.8291022,12.7092405 7.03902598,12.939732 7.31192688,12.9830454 L7.40502477,12.9903597 L8.60368966,12.9903597 C8.92044707,12.9903597 9.17961222,12.7401834 9.17961222,12.4307548 C9.17961222,12.1213261 8.92044707,11.8711498 8.60368966,11.8711498 Z M5.08688465,3.00964025 L3.91513626,3.00964025 C3.59668496,3.00964025 3.33921369,3.2598166 3.33921369,3.56924524 C3.33921369,3.84773101 3.54913747,4.07822243 3.82203837,4.12153586 L3.91513626,4.12885022 L5.08688465,4.12885022 C5.40364206,4.12885022 5.66280721,3.87867388 5.66280721,3.56924524 C5.66280721,3.2598166 5.40364206,3.00964025 5.08688465,3.00964025 Z M8.60368966,3.00964025 L7.40502477,3.00964025 C7.08657347,3.00964025 6.8291022,3.2598166 6.8291022,3.56924524 C6.8291022,3.84773101 7.03902598,4.07822243 7.31192688,4.12153586 L7.40502477,4.12885022 L8.60368966,4.12885022 C8.92044707,4.12885022 9.17961222,3.87867388 9.17961222,3.56924524 C9.17961222,3.2598166 8.92044707,3.00964025 8.60368966,3.00964025 Z" id="形状结合"></path>
            </g>
        </g>
    </g>
</svg>