<?xml version="1.0" encoding="UTF-8"?>
<svg width="79px" height="88px" viewBox="0 0 79 88" version="1.1" xmlns="http://www.w3.org/2000/svg" xmlns:xlink="http://www.w3.org/1999/xlink">
    <title>编组 35备份 16</title>
    <defs>
        <linearGradient x1="69.9747546%" y1="63.9700768%" x2="63.8070403%" y2="63.9700768%" id="linearGradient-1">
            <stop stop-color="#B7C8D6" offset="0%"></stop>
            <stop stop-color="#DAE2EB" offset="100%"></stop>
        </linearGradient>
    </defs>
    <g id="首页" stroke="none" stroke-width="1" fill="none" fill-rule="evenodd">
        <g id="首页备份" transform="translate(-764.000000, -682.000000)">
            <g id="编组-35备份-16" transform="translate(764.808832, 682.711418)">
                <path d="M2.82079467,32.4049489 L2.79681228,35.2410185 C2.78767289,36.3218099 3.36061161,37.3239679 4.29662022,37.8644135 L47.3242493,62.7082995 C49.1806814,63.7801918 51.4679519,63.7802292 53.3244189,62.7083974 L70.3390306,52.8850068 C71.233263,52.3687215 71.799138,51.4288439 71.8370119,50.3969681 L71.9636486,46.9467392 L71.9636486,46.9467392 L51.2394024,36.0044209 L56.8528497,31.727197 L56.7435066,28.3447944 L44.5560219,31.2841121 L29.0676343,21.70549 C27.2449776,20.5782881 24.959495,20.5087985 23.0717237,21.5231855 L2.82079467,32.4049489 L2.82079467,32.4049489 Z" id="Fill-6163" fill="url(#linearGradient-1)" transform="translate(37.372836, 42.162244) rotate(-240.000000) translate(-37.372836, -42.162244) "></path>
                <path d="M6.54910527,38.5190048 L49.6168254,63.51622 C51.4750273,64.594751 53.7680884,64.5973821 55.6287604,63.5231181 L72.6728372,53.6826748 C74.1077136,52.8542451 74.5993357,51.019473 73.770906,49.5845966 C73.5010434,49.1171829 73.110082,48.7312281 72.6392292,48.4674118 L52.4689184,37.1660994 L52.4689184,37.1660994 L59.022384,32.2990263 L43.6333425,32.0648212 L29.7287399,23.5631969 C27.8537757,22.4167965 25.5020904,22.3871902 23.59886,23.4860254 L6.5550634,33.3263069 C5.12018703,34.1547366 4.62856487,35.9895087 5.45699458,37.4243851 C5.71913136,37.8784174 6.0956757,38.2558268 6.54910527,38.5190048 Z" id="Fill-6163备份" fill="#FFFFFF" transform="translate(39.653763, 43.481505) rotate(-240.000000) translate(-39.653763, -43.481505) "></path>
                <path d="M26.9266111,57.9375294 C27.6021101,56.9822617 28.1954956,55.9080183 28.7067678,54.7147991 C29.1033911,55.2360766 29.5728319,55.5993979 30.1150902,55.8047628 C30.4311494,54.7751383 30.7007293,54.0060361 30.9238299,53.4974562 C30.3474867,53.3537138 29.8610035,53.0622195 29.4643802,52.6229733 C30.0283289,50.7279851 30.3769236,48.5325315 30.5101642,46.0366124 L30.8866464,45.808999 L30.8866464,44.1410303 L28.5580341,45.5488611 C28.6974719,44.8219817 28.8291633,44.0678847 28.953108,43.2865701 L27.6795755,43.8787871 C27.3108398,46.2983316 26.8723852,48.3544278 26.3642117,50.0470757 C26.0171663,49.9606682 25.6499799,49.8818802 25.2626525,49.8107118 L24.9465934,50.6307008 L24.9465934,49.6736696 L26.5733685,48.6901551 L26.5733685,47.2956238 L26.0342087,47.6215886 C26.340972,46.8892509 26.5981574,46.2005588 26.8057649,45.5555124 L25.9319543,45.3181752 C25.7212482,45.9742095 25.4609642,46.6738896 25.1511023,47.4172153 L25.9226584,47.6890296 L24.9465934,48.2791383 L24.9465934,45.5994508 L23.7660195,46.3132014 L23.7660195,48.9928889 L22.7248834,49.6223382 L23.5615106,48.3782495 C23.233057,47.8567737 22.9727729,47.4854901 22.7806586,47.2643989 L21.9440314,48.5358314 C22.2198085,48.9205346 22.4398104,49.3070572 22.6040373,49.6953993 L21.8789604,50.1337657 L21.8789604,51.528297 L23.2686911,50.6880946 C22.772912,51.5848376 22.2167099,52.3950642 21.6000846,53.1187745 C21.7612128,53.5044326 21.9068479,53.9632597 22.0369899,54.4952556 C22.7310806,53.4649456 23.3074238,52.4556932 23.7660195,51.4674983 L23.7660195,52.7799983 L23.2640431,53.0151234 C23.1896763,53.4201101 23.1013656,53.8335269 22.9991112,54.2553739 L21.7767059,54.9944148 L21.7767059,56.388946 L22.5389663,55.9280992 C22.3716408,56.4804326 22.182625,57.0458795 21.9719189,57.6244399 C22.4491063,57.6230517 22.9015047,57.6320931 23.3291142,57.651564 C22.8364337,58.2319805 22.2662878,58.7680852 21.6186763,59.2598781 C21.8355797,59.7485345 21.9998065,60.2097932 22.1113568,60.6436543 C23.0564357,59.7897271 23.8682739,58.8249482 24.5468715,57.7493175 C24.9868754,57.806868 25.3927946,57.8804681 25.7646289,57.9701179 L26.0946318,56.9639643 C26.3982965,57.2406614 26.6756229,57.5651831 26.9266111,57.9375294 Z M28.7114157,51.3213641 C28.4015538,50.4878669 28.1846505,49.3497964 28.0607057,47.9071527 C28.0978891,47.7570682 28.1319739,47.6065784 28.1629601,47.4556834 L29.3714216,46.7250726 C29.3001534,48.3723265 29.0801514,49.9044237 28.7114157,51.3213641 Z M26.4246348,55.9714826 L25.4996969,55.9906418 C25.8622354,55.1972399 26.1643507,54.3560585 26.406043,53.4670978 L26.406043,52.1956134 L24.2401082,53.5050928 C24.3268695,53.2111022 24.4058843,52.9309096 24.4771526,52.664515 L24.9465934,52.3807008 L24.9465934,51.3416383 C25.3927946,51.4638014 25.8080095,51.6001409 26.1922383,51.7506566 L26.4664661,50.9764657 C26.6554819,51.2495605 26.821258,51.5253122 26.9637945,51.803721 C27.0753448,51.471957 27.1853458,51.1297366 27.2937974,50.7770596 C27.4549256,51.8144104 27.6873221,52.699299 27.9909868,53.4317252 C27.5076022,54.5579539 26.9235124,55.5901189 26.2387176,56.5282202 L26.4246348,55.9714826 Z M23.4592562,56.0826485 L23.733484,55.2059186 L25.1139188,54.3713362 C24.9341989,54.9539495 24.7049011,55.5072918 24.4260254,56.031363 L23.4592562,56.0826485 Z M31.5094689,54.9890941 C31.8131336,54.8237339 32.1291927,54.6189792 32.4576464,54.37483 C33.0215951,54.0065345 33.3035694,53.3165274 33.3035694,52.3048087 L33.3035694,48.5587149 C33.5700507,48.2973455 33.8396305,48.0341027 34.112309,47.7689865 C34.1061118,47.317004 34.1185063,46.7170627 34.1494925,45.9691624 C33.852025,46.25838 33.5700507,46.524559 33.3035694,46.7676993 L33.3035694,44.8536368 L34.1030132,44.3703097 L34.1030132,42.6203097 L33.3035694,43.1036368 L33.3035694,40.6837149 L32.1787706,41.363745 L32.1787706,43.7836669 L31.2956642,44.3175748 L31.2956642,46.0675748 L32.1787706,45.5336669 L32.1787706,47.81687 C31.7945419,48.1676563 31.4629896,48.4683664 31.1841139,48.7190001 L31.2863683,50.543898 C31.5838357,50.2546803 31.8813032,49.9609054 32.1787706,49.6625731 L32.1787706,52.1781981 C32.1787706,52.6248127 32.0734176,52.907257 31.8627115,53.0255309 C31.6520054,53.1438049 31.4443979,53.2602055 31.239889,53.3747328 C31.3576365,53.9506805 31.4474965,54.4888009 31.5094689,54.9890941 Z M36.6779657,52.0010467 L36.6779657,51.3174529 L38.750942,50.0641744 L38.750942,50.7477682 L39.8478532,50.0845984 L39.8478532,45.1763952 L38.2861491,46.1205692 L38.2861491,44.9721317 L40.4056047,43.6907528 L40.4056047,42.2552059 L38.2861491,43.5365848 L38.2861491,42.3197879 L40.0151786,41.2744525 L40.0151786,36.9951556 L34.3911848,40.3953059 L34.3911848,45.3855402 C34.3911848,48.1199152 34.0813228,50.4719649 33.461599,52.4416892 C33.7590664,52.6902319 34.0379422,52.9864732 34.2982262,53.3304129 C34.9799224,51.4508256 35.3765457,49.2286135 35.488096,46.6637767 L37.1148711,45.6802621 L37.1148711,46.8286996 L35.5810545,47.7560134 L35.5810545,52.6642165 L36.6779657,52.0010467 Z M38.8717881,40.5301758 L35.5252794,42.5534057 L35.5252794,41.1452026 L38.8717881,39.1219727 L38.8717881,40.5301758 Z M37.1148711,44.2447153 L35.5252794,45.2057495 L35.5252794,43.9889526 L37.1148711,43.0279184 L37.1148711,44.2447153 Z M38.750942,48.6286275 L36.6779657,49.8819061 L36.6779657,48.5283904 L38.750942,47.2751119 L38.750942,48.6286275 Z M49.589912,35.0892826 L49.589912,32.1088138 L46.2898826,34.1039433 L45.93664,32.8546158 L44.4028235,34.2331014 C44.4895848,34.4996577 44.5763461,34.7844432 44.6631075,35.0874578 L41.0934981,37.2455697 L41.0934981,40.171351 L42.4413975,39.3564389 L42.4413975,38.1259702 L48.2420127,34.6190384 L48.2420127,35.9041946 L49.589912,35.0892826 Z M49.004273,44.5898322 L49.6735747,42.353155 L47.0010157,42.4786945 C47.5308796,41.3562664 47.9414466,40.0780981 48.2327168,38.6441897 L49.9245629,37.6213346 L49.9245629,35.8986784 L45.1000128,38.8155014 L45.6484684,37.007354 L44.1518353,37.3379687 C43.9628195,38.1540666 43.7614093,38.9594288 43.5476045,39.7540553 L40.7309597,41.4569405 L40.7309597,43.1795967 L42.9433738,41.842017 C42.6675967,42.74247 42.3732279,43.6268196 42.0602673,44.4950655 C42.7109774,44.4616857 43.4453501,44.4438059 44.2633856,44.4414261 C43.3678846,45.4704576 42.1873107,46.5601848 40.7216638,47.7106074 C40.907581,48.0630495 41.1275829,48.540718 41.3816697,49.1436128 C43.299715,47.5191586 44.7855029,45.9600747 45.8390335,44.4663611 L49.004273,44.5898322 Z M43.8636637,42.6528162 C44.0433836,42.1294478 44.2323994,41.5594436 44.430711,40.9428037 L46.7407316,39.546213 C46.4835463,40.7088635 46.1163599,41.7101536 45.6391725,42.5500835 L43.8636637,42.6528162 Z M59.0530951,37.9539756 L59.0530951,36.2039756 L55.5299651,38.333987 L55.5299651,36.693362 L58.3280182,35.001717 L58.3280182,33.251717 L55.5299651,34.943362 L55.5299651,33.5625027 L57.3333614,32.4722065 L57.3333614,31.3511128 C57.7361819,31.5086175 58.1699886,31.6291595 58.6347815,31.7127387 C58.8640793,31.1001516 59.1429551,30.3937887 59.4714087,29.5936499 C57.711393,29.4454794 56.4316633,28.7699588 55.6322195,27.567088 L55.8739118,26.9014346 L54.2471367,27.8849491 C53.5406515,30.0985338 52.1958508,32.5886558 50.2127345,35.3553152 C50.5845688,35.8232202 50.8603459,36.1896942 51.0400658,36.4547371 C51.5048587,35.7635767 51.941764,35.080162 52.3507817,34.4044929 L52.3507817,35.4845711 L54.1448823,34.399895 L54.1448823,35.7807544 L51.3747167,37.4555391 L51.3747167,39.2055391 L54.1448823,37.5307544 L54.1448823,39.1713794 L50.6310481,41.2957708 L50.6310481,43.0457708 L59.0530951,37.9539756 Z M52.9457166,33.3748857 C53.7017797,32.0427857 54.333898,30.7491617 54.8420716,29.4940138 C55.3626396,30.1636641 55.9947579,30.6929568 56.7384266,31.0818919 L52.9457166,33.3748857 Z" id="数据安全" fill="#0F71E2" fill-rule="nonzero"></path>
            </g>
        </g>
    </g>
</svg>