<?xml version="1.0" encoding="UTF-8"?>
<svg width="77px" height="87px" viewBox="0 0 77 87" version="1.1" xmlns="http://www.w3.org/2000/svg" xmlns:xlink="http://www.w3.org/1999/xlink">
    <title>编组 35备份 6</title>
    <defs>
        <linearGradient x1="69.9747546%" y1="63.9700768%" x2="63.8070403%" y2="63.9700768%" id="linearGradient-1">
            <stop stop-color="#B7C8D6" offset="0%"></stop>
            <stop stop-color="#DAE2EB" offset="100%"></stop>
        </linearGradient>
    </defs>
    <g id="首页" stroke="none" stroke-width="1" fill="none" fill-rule="evenodd">
        <g id="首页备份" transform="translate(-413.000000, -98.000000)">
            <g id="编组-35备份-6" transform="translate(413.354412, 98.150243)">
                <path d="M2.75380737,32.5209743 L2.72986822,35.3519305 C2.72070576,36.4354503 3.29654032,37.4397086 4.23628639,37.979131 L45.395656,61.6049664 C47.2500815,62.6694227 49.5308572,62.6665605 51.3826052,61.5974533 L68.4060179,51.7689814 C69.3002503,51.2526961 69.8661253,50.3128185 69.9039992,49.2809427 L70.0306359,45.8307138 L70.0306359,45.8307138 L50.6724151,35.2544209 L56.2858624,30.977197 L56.1765193,27.5947944 L43.9890346,30.5341121 L28.9633414,21.7081555 C27.1575147,20.6474292 24.9292785,20.6050652 23.0844377,21.5963837 L2.75380737,32.5209743 L2.75380737,32.5209743 Z" id="Fill-6163" fill="url(#linearGradient-1)" transform="translate(36.372836, 41.662244) rotate(-240.000000) translate(-36.372836, -41.662244) "></path>
                <path d="M6.49995354,38.631613 L47.6877691,62.4116707 C49.5441827,63.4834833 51.8313865,63.4834867 53.6878032,62.4116795 L70.8075651,52.5275392 C72.2424414,51.6991095 72.7340636,49.8643374 71.9056339,48.4294611 C71.6423314,47.9734097 71.2636233,47.5947005 70.8075727,47.3313967 L51.9019311,36.4160994 L51.9019311,36.4160994 L58.4553967,31.5490263 L43.0663552,31.3148212 L29.6197572,23.551339 C27.7633436,22.4795263 25.4761398,22.4795229 23.6197231,23.5513301 L6.49996122,33.4354704 C5.06508484,34.2639001 4.57346269,36.0986722 5.4018924,37.5335486 C5.66519488,37.9895999 6.04390295,38.3683091 6.49995354,38.631613 Z" id="Fill-6163备份" fill="#FFFFFF" transform="translate(38.653763, 42.981505) rotate(-240.000000) translate(-38.653763, -42.981505) "></path>
                <path d="M30.3384574,55.0267392 C31.1363288,53.7862095 31.8242573,52.4744006 32.4022429,51.0913127 C32.9111215,51.7819103 33.5487904,52.2591313 34.3152495,52.5229757 C34.4534635,52.1216983 34.6230897,51.6607083 34.8241281,51.1400056 C34.0388216,50.9694106 33.3917291,50.5342571 32.8828505,49.8345449 C33.529943,47.872563 33.93202,45.5049858 34.0890813,42.7318131 L34.682773,42.3784391 L34.682773,41.4487516 L31.7991275,43.1651395 C31.9750362,42.2948111 32.1289562,41.3783258 32.2608877,40.4156837 L31.5069935,40.7003501 C31.2619779,43.033687 30.7750878,45.1783087 30.0463234,47.1342154 C30.2347969,47.3410436 30.3918582,47.5392251 30.5175073,47.7287598 C30.6620037,47.3510868 30.8002176,46.9543667 30.9321491,46.5385996 C31.0954929,48.1093437 31.4316041,49.3812907 31.9404827,50.3544403 C31.3939093,51.746175 30.680851,53.1230717 29.8013078,54.4851304 C30.0211936,54.664147 30.2002435,54.8446832 30.3384574,55.0267392 Z M25.7114315,51.3413595 C26.4716082,50.2326412 27.1375481,49.0751963 27.7092512,47.8690249 L27.7092512,49.7830874 L28.4066034,49.3680132 L28.4066034,47.8094194 C28.9280469,48.0914965 29.3615361,48.3666806 29.707071,48.6349715 L30.1594075,47.6001092 C29.763613,47.3617335 29.2735818,47.1065323 28.6893137,46.8345055 L28.4066034,47.4676225 L28.4066034,46.6336382 L30.2159496,45.5566889 L30.2159496,44.6543451 L28.4066034,45.7312944 L28.4066034,42.6687944 L27.7092512,43.0838686 L27.7092512,46.1463686 L25.5418053,47.4364641 L25.5418053,48.3388079 L27.483083,47.183331 C26.8234255,48.4691979 26.0978023,49.6576099 25.3062133,50.7485669 C25.4569922,50.9504878 25.5920649,51.1480853 25.7114315,51.3413595 Z M29.3395475,44.8341956 C29.6850824,44.0725386 30.0306173,43.2607514 30.3761521,42.398834 L29.7918841,42.186052 C29.4777615,43.0201578 29.1573564,43.81243 28.8306689,44.5628688 C29.0254249,44.647468 29.1950511,44.7379103 29.3395475,44.8341956 Z M27.2003726,45.4101981 C26.8988149,45.0154709 26.6066809,44.6515929 26.3239706,44.3185642 L25.7868209,45.1714866 C26.0632488,45.5355985 26.3396767,45.9316115 26.6161046,46.3595255 L27.2003726,45.4101981 Z M32.4116666,49.0349223 C31.8965055,47.9652516 31.5823829,46.4979251 31.4692988,44.6329428 C31.5069935,44.5011313 31.541547,44.3666323 31.5729592,44.2294457 L33.335187,43.1805419 C33.2221029,45.4535804 32.9142627,47.4050406 32.4116666,49.0349223 Z M25.6171947,57.7822162 C26.6977765,56.7106528 27.5930259,55.5944539 28.3029429,54.4336196 C28.7238672,54.5020898 29.1290854,54.5799084 29.5185974,54.6670756 L29.9332392,53.4769153 C29.5751395,53.4530824 29.2233222,53.42551 28.8777873,53.3941982 C29.3615361,52.4317847 29.7227771,51.4329146 29.9615103,50.397588 L29.9615103,49.5089161 L27.6527092,50.8831483 C27.7532284,50.577224 27.8537476,50.2667425 27.9542669,49.9517036 L27.275762,50.0411065 C27.1438306,50.4842173 27.0087578,50.9200834 26.8705439,51.3487045 L25.4381448,52.2012893 L25.4381448,53.1036331 L26.5124441,52.4641944 C26.3239706,53.0229912 26.1292145,53.5718556 25.9281761,54.1107874 C26.5187266,54.178554 27.0841473,54.2521636 27.6244381,54.3316162 C26.9899105,55.2744005 26.2140277,56.16916 25.2967897,57.0158947 C25.4098738,57.2949396 25.5166755,57.5503801 25.6171947,57.7822162 Z M28.2275535,53.3437269 C27.7563696,53.305172 27.2977506,53.2728102 26.8516965,53.2466414 C26.9961929,52.8416247 27.1406893,52.4274933 27.2851857,52.0042473 L29.2453108,50.8375523 C29.0002951,51.7125558 28.6610427,52.5479474 28.2275535,53.3437269 Z M35.2104989,51.7303445 C35.5937285,51.5204698 35.8827213,51.3530144 36.0774773,51.2279782 C36.6994401,50.8395477 37.0104215,50.1303585 37.0104215,49.1004106 L37.0104215,44.9646684 C37.3088379,44.6412132 37.6198193,44.3080006 37.9433656,43.9650305 C37.9119533,43.6829463 37.893106,43.3386958 37.8868235,42.9322789 C37.6009719,43.243698 37.3088379,43.5565778 37.0104215,43.8709184 L37.0104215,41.0613481 L38.0376024,40.449955 L38.0376024,39.46558 L37.0104215,40.0769731 L37.0104215,37.465645 L36.3130693,37.8807192 L36.3130693,40.4920473 L35.1256858,41.1987953 L35.1256858,42.1831703 L36.3130693,41.4764223 L36.3130693,44.6004457 C35.892145,45.0332777 35.4586558,45.4713098 35.0126017,45.9145421 L35.1068385,47.0342322 C35.4806444,46.6203313 35.8827213,46.1804884 36.3130693,45.7147035 L36.3130693,49.3240785 C36.3130693,49.7889223 36.1717141,50.1054808 35.8890038,50.2737542 C35.7068127,50.382197 35.4429497,50.5119083 35.0974148,50.6628882 C35.1476744,51.0249 35.1853691,51.3807188 35.2104989,51.7303445 Z M37.6418079,50.488272 C38.4648091,48.471717 38.9108632,46.0415055 38.9799702,43.1976377 L41.1756871,41.8907149 L41.1756871,43.627043 L39.2344095,44.7825198 L39.2344095,49.4036136 L39.9129143,48.9997576 L39.9129143,48.2067888 L43.1358122,46.2884729 L43.1358122,47.0814417 L43.814317,46.6775857 L43.814317,42.0564919 L41.854192,43.223187 L41.854192,41.4868589 L44.342043,40.0060536 L44.342043,39.0763661 L41.854192,40.5571714 L41.854192,39.1216245 L41.1756871,39.5254805 L41.1756871,40.9610274 L38.9893938,42.2623411 L38.9893938,40.5670286 L43.1923542,38.0653651 L43.1923542,38.4891933 L43.8708591,38.0853373 L43.8708591,34.1204935 L38.310889,37.4298689 L38.310889,42.7619002 C38.310889,45.6694523 37.9182358,48.0587642 37.1329293,49.9298359 C37.3214028,50.1093204 37.491029,50.2954657 37.6418079,50.488272 Z M43.1923542,37.1630214 L38.9893938,39.6646848 L38.9893938,37.9283567 L43.1923542,35.4266933 L43.1923542,37.1630214 Z M43.1358122,45.3998011 L39.9129143,47.318117 L39.9129143,45.2810076 L43.1358122,43.3626917 L43.1358122,45.3998011 Z M46.4906416,34.6256138 C46.6477029,34.2860349 46.8361764,33.8958579 47.0560622,33.4550828 C46.5283363,33.0764847 46.0163164,32.766012 45.5200027,32.5236648 L45.0393951,33.5616825 C45.4603194,33.8124443 45.9440682,34.1670881 46.4906416,34.6256138 Z M46.7168098,45.0866983 C47.6843074,42.9613504 48.1680562,40.1076609 48.1680562,36.5256296 L48.1680562,32.5881296 L50.5522468,31.1690246 C50.4234565,31.8062293 50.291525,32.4225173 50.1564523,33.0178885 L48.9313742,33.7470729 L48.9313742,39.3525416 L49.609879,38.9486857 L49.609879,38.5932169 L50.750144,37.9145145 L50.750144,41.031702 C50.750144,41.469202 50.6056476,41.7739584 50.3166548,41.9459711 C50.0842041,42.0843292 49.8109174,42.2287642 49.4967948,42.3792762 C49.5533369,42.7010903 49.5973141,42.9893676 49.6287263,43.2441081 C49.9616963,43.0550341 50.234983,42.8969271 50.4485863,42.7697873 C51.1019613,42.3808889 51.4286488,41.6988096 51.4286488,40.7235491 L51.4286488,37.5106585 L52.6443033,36.7870832 L52.6443033,37.142552 L53.3228081,36.738696 L53.3228081,31.1332272 L50.8349571,32.6140325 C51.0171482,31.9769439 51.1946275,31.3335452 51.3673949,30.6838365 L54.0107366,29.1104809 L54.0107366,28.1807934 L47.4707041,32.0735163 L47.4707041,36.9543757 C47.4707041,40.1080215 47.0372149,42.6446865 46.1702365,44.5643705 C46.3838399,44.7197827 46.566031,44.893892 46.7168098,45.0866983 Z M46.2362022,38.3317473 C46.3744162,38.039845 46.5534661,37.6370479 46.7733519,37.1233561 C46.1576716,36.7788806 45.6048158,36.4972713 45.1147846,36.2785284 L44.6436007,37.3382808 C45.1022197,37.5848353 45.6330869,37.9159908 46.2362022,38.3317473 Z M52.6443033,33.7109113 L49.609879,35.517045 L49.609879,34.2455607 L52.6443033,32.439427 L52.6443033,33.7109113 Z M52.6443033,35.8847395 L49.609879,37.6908732 L49.609879,36.392045 L52.6443033,34.5859113 L52.6443033,35.8847395 Z M45.5671211,45.6069473 C45.8875262,43.4201438 46.176519,41.4753446 46.4340995,39.7725498 C46.2142137,39.8031686 45.9911866,39.7809696 45.7650183,39.7059529 C45.5137203,41.6055292 45.2058801,43.5980049 44.8414979,45.6833801 L45.5671211,45.6069473 Z M53.9918893,39.4439647 C53.5646825,38.832359 53.0652276,38.2136263 52.4935245,37.5877665 L51.9469511,38.4736418 C52.4683947,39.0838439 52.9521435,39.7438262 53.3981975,40.4535887 L53.9918893,39.4439647 Z M48.6298165,43.3875019 C49.1324126,42.2589223 49.6224439,41.0011027 50.0999102,39.6140431 L49.4967948,39.4398231 C49.082153,40.7256865 48.6078279,41.9422565 48.0738195,43.0895332 L48.6298165,43.3875019 Z" id="数据源" fill="#000000" fill-rule="nonzero"></path>
            </g>
        </g>
    </g>
</svg>