<?xml version="1.0" encoding="UTF-8"?>
<svg width="79px" height="88px" viewBox="0 0 79 88" version="1.1" xmlns="http://www.w3.org/2000/svg" xmlns:xlink="http://www.w3.org/1999/xlink">
    <title>编组 35备份 10</title>
    <defs>
        <linearGradient x1="69.9747546%" y1="63.9700768%" x2="63.8070403%" y2="63.9700768%" id="linearGradient-1">
            <stop stop-color="#B7C8D6" offset="0%"></stop>
            <stop stop-color="#DAE2EB" offset="100%"></stop>
        </linearGradient>
    </defs>
    <g id="首页" stroke="none" stroke-width="1" fill="none" fill-rule="evenodd">
        <g id="首页备份" transform="translate(-1186.000000, -245.000000)">
            <g id="编组-35备份-10" transform="translate(1186.250428, 245.488588)">
                <path d="M2.82079467,32.4049489 L2.79681228,35.2410185 C2.78767289,36.3218099 3.36061161,37.3239679 4.29662022,37.8644135 L47.3242493,62.7082995 C49.1806814,63.7801918 51.4679519,63.7802292 53.3244189,62.7083974 L70.3390306,52.8850068 C71.233263,52.3687215 71.799138,51.4288439 71.8370119,50.3969681 L71.9636486,46.9467392 L71.9636486,46.9467392 L51.2394024,36.0044209 L56.8528497,31.727197 L56.7435066,28.3447944 L44.5560219,31.2841121 L29.0676343,21.70549 C27.2449776,20.5782881 24.959495,20.5087985 23.0717237,21.5231855 L2.82079467,32.4049489 L2.82079467,32.4049489 Z" id="Fill-6163" fill="url(#linearGradient-1)" transform="translate(37.372836, 42.162244) rotate(-240.000000) translate(-37.372836, -42.162244) "></path>
                <path d="M6.54910527,38.5190048 L49.6168254,63.51622 C51.4750273,64.594751 53.7680884,64.5973821 55.6287604,63.5231181 L72.6728372,53.6826748 C74.1077136,52.8542451 74.5993357,51.019473 73.770906,49.5845966 C73.5010434,49.1171829 73.110082,48.7312281 72.6392292,48.4674118 L52.4689184,37.1660994 L52.4689184,37.1660994 L59.022384,32.2990263 L43.6333425,32.0648212 L29.7287399,23.5631969 C27.8537757,22.4167965 25.5020904,22.3871902 23.59886,23.4860254 L6.5550634,33.3263069 C5.12018703,34.1547366 4.62856487,35.9895087 5.45699458,37.4243851 C5.71913136,37.8784174 6.0956757,38.2558268 6.54910527,38.5190048 Z" id="Fill-6163备份" fill="#FFFFFF" transform="translate(39.653763, 43.481505) rotate(-240.000000) translate(-39.653763, -43.481505) "></path>
                <path d="M27.1115947,58.195661 C27.7722227,57.2271759 28.352545,56.1413217 28.8525616,54.9380986 C29.2404533,55.4516154 29.6995594,55.8057511 30.2298801,56.0005057 C30.5389812,54.9646969 30.8026264,54.1903198 31.0208154,53.6773745 C30.4571603,53.5449094 29.981387,53.2629341 29.5934953,52.8314486 C30.1450288,50.9254257 30.4859492,48.7231511 30.6162565,46.2246249 L30.9844506,45.9896449 L30.9844506,44.3216762 L28.7071022,45.7750708 C28.8434704,45.045463 28.9722625,44.2887892 29.0934787,43.5050494 L27.8479828,44.1221855 C27.4873647,46.548945 27.0585626,48.6136205 26.5615764,50.3162117 C26.2221712,50.2365948 25.8630683,50.1649915 25.4842679,50.1014019 L25.1751667,50.9275753 L25.1751667,49.9705441 L26.7661286,48.9551986 L26.7661286,47.5606673 L26.2388384,47.8971818 C26.5388484,47.1588417 26.7903719,46.4651172 26.9934089,45.8160086 L26.1388351,45.5957692 C25.9327676,46.2559264 25.6782137,46.9606994 25.3751734,47.7100881 L26.1297439,47.9668055 L25.1751667,48.5760128 L25.1751667,45.8963253 L24.0205829,46.6331761 L24.0205829,49.3128636 L23.0023673,49.9626847 L23.8205763,48.7022258 C23.4993535,48.1871768 23.2447996,47.8209862 23.0569145,47.6036541 L22.2387055,48.8914568 C22.5084115,49.2707639 22.7235701,49.6529817 22.8841815,50.0381104 L22.1750671,50.4906644 L22.1750671,51.8851956 L23.5342031,51.0178004 C23.0493385,51.9242443 22.5053811,52.7453541 21.9023307,53.4811299 C22.0599117,53.8636352 22.2023407,54.3196126 22.3296176,54.8490621 C23.0084281,53.8051709 23.5720832,52.7846412 24.0205829,51.7874729 L24.0205829,53.0999729 L23.5296575,53.3449202 C23.4569278,53.751362 23.3705613,54.1665068 23.270558,54.5903546 L22.0750637,55.3533142 L22.0750637,56.7478455 L22.820543,56.2720836 C22.6569012,56.827691 22.4720466,57.3968363 22.2659792,57.9795196 C22.7326613,57.9687943 23.1751003,57.9689836 23.593296,57.9800876 C23.1114618,58.5701443 22.5538675,59.117405 21.9205131,59.6218697 C22.1326414,60.1062819 22.2932528,60.5643272 22.4023473,60.9960056 C23.3266205,60.1235862 24.1205862,59.1429221 24.7842446,58.0540133 C25.214562,58.1029543 25.6115448,58.1686118 25.9751933,58.2509859 L26.2979313,57.2383752 C26.5949108,57.5091305 26.866132,57.8282258 27.1115947,58.195661 Z M28.8571072,51.5445726 C28.5540668,50.7171384 28.3419386,49.5833121 28.2207224,48.1430936 C28.2570873,47.9922815 28.2904217,47.8411248 28.3207257,47.6896234 L29.5025832,46.9353668 C29.4328839,48.5840152 29.2177252,50.1204172 28.8571072,51.5445726 Z M26.6206693,56.2394364 L25.7160938,56.2766938 C26.070651,55.476198 26.3661154,54.6291052 26.6024868,53.7354153 L26.6024868,52.463931 L24.4842347,53.815791 C24.569086,53.5201028 24.6463613,53.2383641 24.7160606,52.970575 L25.1751667,52.6775753 L25.1751667,51.6385128 C25.6115448,51.7519451 26.0176189,51.8801601 26.393389,52.0231576 L26.6615797,51.2436009 C26.8464343,51.5129973 27.0085609,51.7855053 27.1479595,52.061125 C27.257054,51.7271784 27.3646334,51.3828055 27.4706975,51.0280065 C27.6282785,52.0622045 27.8555588,52.9425458 28.1525383,53.6690303 C27.6797954,54.8047173 27.1085643,55.8483112 26.4388451,56.7998118 L26.6206693,56.2394364 Z M23.7205729,56.4086256 L23.9887637,55.5265299 L25.3388085,54.6649367 C25.1630451,55.2510665 24.9387952,55.8088954 24.6660589,56.3384234 L23.7205729,56.4086256 Z M31.5935617,55.1575533 C31.8905413,54.9862513 32.1996425,54.7753123 32.5208653,54.5247363 C33.0723987,54.1454061 33.3481655,53.4498816 33.3481655,52.4381628 L33.3481655,48.6920691 C33.6087802,48.4254854 33.8724253,48.1569677 34.1391008,47.8865161 C34.13304,47.4346549 34.1451616,46.834471 34.1754657,46.0859644 C33.8845469,46.3810026 33.6087802,46.6526989 33.3481655,46.9010535 L33.3481655,44.986991 L34.1300096,44.4880212 L34.1300096,42.7380212 L33.3481655,43.236991 L33.3481655,40.8170691 L32.2481289,41.519108 L32.2481289,43.9390299 L31.3844639,44.4902174 L31.3844639,46.2402174 L32.2481289,45.6890299 L32.2481289,47.972233 C31.8723589,48.3305375 31.5481057,48.637735 31.2753693,48.8938255 L31.3753727,50.7167225 C31.6662914,50.4216844 31.9572102,50.1220889 32.2481289,49.8179361 L32.2481289,52.3335611 C32.2481289,52.7801757 32.1450952,53.0646814 31.9390278,53.1870782 C31.7329603,53.3094751 31.5299233,53.4299379 31.3299166,53.5484668 C31.445072,54.1221105 31.5329537,54.6584727 31.5935617,55.1575533 Z M36.6482751,52.0683743 L36.6482751,51.3847805 L38.6756152,50.0909402 L38.6756152,50.774534 L39.7483781,50.089901 L39.7483781,45.1816979 L38.2210546,46.1564296 L38.2210546,45.0079921 L40.2938507,43.6851419 L40.2938507,42.249595 L38.2210546,43.5724452 L38.2210546,42.3556483 L39.9120199,41.2764811 L39.9120199,36.9971842 L34.4118372,40.5073787 L34.4118372,45.4976131 C34.4118372,48.2319881 34.1087968,50.5901008 33.5027161,52.5719511 C33.7936348,52.8146734 34.0663711,53.1054579 34.3209251,53.4443047 C34.9876139,51.5513787 35.3755055,49.3214059 35.4846001,46.7543864 L37.075562,45.7390408 L37.075562,46.8874783 L35.5755122,47.8448041 L35.5755122,52.7530072 L36.6482751,52.0683743 Z M38.7938009,40.5545771 L35.5209649,42.6432878 L35.5209649,41.2350847 L38.7938009,39.1463739 L38.7938009,40.5545771 Z M37.075562,44.303494 L35.5209649,45.2956316 L35.5209649,44.0788347 L37.075562,43.0866971 L37.075562,44.303494 Z M38.6756152,48.6553933 L36.6482751,49.9492336 L36.6482751,48.595718 L38.6756152,47.3018777 L38.6756152,48.6553933 Z M42.7757514,48.1304998 L42.7757514,42.3472966 C43.0181837,42.4386711 43.2030383,42.5257757 43.3303152,42.6086106 L43.8939703,40.7039663 C43.5394131,40.6157902 43.1666734,40.5323821 42.7757514,40.453742 L42.7757514,38.8746404 L43.6485076,38.3176509 L43.6485076,36.5266352 L42.7757514,37.0836248 L42.7757514,34.6910466 L41.6575324,35.4046895 L41.6575324,37.7972676 L40.6120431,38.4644947 L40.6120431,40.2555103 L41.5848027,39.634699 C41.3605528,41.021955 41.0150868,42.4728988 40.5484046,43.9875304 C40.6393168,44.6495627 40.7362897,45.4216594 40.8393234,46.3038203 C41.1544854,45.2823727 41.4272217,44.2515426 41.6575324,43.2113301 L41.6575324,48.8441426 L42.7757514,48.1304998 Z M49.175964,33.0947379 L49.175964,31.3173942 L44.0394297,34.5955097 L44.0394297,36.3728535 L49.175964,33.0947379 Z M44.8212739,46.7566962 C45.400081,46.3873038 45.8569143,46.079804 46.1917739,45.834197 C46.5266335,45.5885899 46.7834602,45.2777114 46.9622541,44.9015617 C47.1410479,44.5254119 47.2304448,44.0935219 47.2304448,43.6058917 L47.2304448,37.7543292 L49.52143,36.2922316 L49.52143,34.5148879 L43.6757813,38.2455574 L43.6757813,40.0229012 L45.9667664,38.5608036 L45.9667664,43.4553349 C45.9667664,43.9475224 45.791003,44.3057876 45.4394762,44.5301306 C45.1849223,44.6925859 44.8970339,44.8535287 44.5758112,45.0129588 C44.6546016,45.4913209 44.7364225,46.0725667 44.8212739,46.7566962 Z M44.3485309,45.4998051 C44.7364225,43.9670979 45.115223,42.1986563 45.4849323,40.1944801 L44.4030781,40.4200714 C44.0515513,42.3397269 43.6757813,44.0424324 43.275768,45.5281881 C43.6091124,45.4612823 43.9667,45.4518213 44.3485309,45.4998051 Z M49.6577981,41.5098895 C49.3062713,40.2212117 48.9395925,39.0105632 48.5577616,37.8779441 L47.4759075,39.1562696 C47.8334951,40.2405586 48.1880524,41.4771723 48.5395792,42.8661105 L49.6577981,41.5098895 Z M54.0670355,40.9381194 L54.0670355,39.9537444 L58.8490125,36.9019059 L58.8490125,35.4526872 L56.8944022,36.7001117 L56.8944022,35.1962054 L58.6762795,34.0590184 L58.6762795,32.6508153 L56.8944022,33.7880023 L56.8944022,32.3114398 L58.6762795,31.1742528 L58.6762795,29.7660497 L56.8944022,30.9032367 L56.8944022,29.4266742 L58.7490092,28.2430714 L58.7490092,26.7665089 L56.7080323,28.0690521 L57.2853242,27.0990643 C56.9398582,26.6997476 56.5671186,26.3223942 56.1671053,25.967004 L55.2579842,27.5179045 C55.5670853,27.844726 55.8428521,28.1609202 56.0852844,28.4664874 L54.2170405,29.6587931 C54.3958343,28.9476824 54.5609913,28.2224882 54.7125115,27.4832105 L53.5306541,27.7726234 C53.1367016,30.0201361 52.5366817,32.1302799 51.7305943,34.103055 C51.9184793,34.5026788 52.1124251,34.9895804 52.3124318,35.5637599 C52.4912256,35.1169721 52.6639586,34.6672163 52.8306308,34.2144926 L52.8306308,41.727188 L54.0670355,40.9381194 Z M52.2306109,32.1433214 C51.7457463,31.4136975 51.2760337,30.756435 50.8214732,30.1715337 L49.8123487,31.7999278 C50.2850917,32.4734856 50.7305611,33.1872357 51.1487568,33.9411782 L52.2306109,32.1433214 Z M55.6579975,31.6923052 L54.0670355,32.7076507 L54.0670355,31.2310882 L55.6579975,30.2157427 L55.6579975,31.6923052 Z M52.2851581,35.7178846 C51.9033273,35.6972446 51.5093748,35.6478822 51.1033007,35.5697975 C50.6669226,38.0449068 50.2396357,40.1997611 49.8214399,42.0343602 C50.2456965,42.1190702 50.6244969,42.2419046 50.9578413,42.4028634 L52.2851581,35.7178846 Z M55.6579975,34.5770708 L54.0670355,35.5924163 L54.0670355,34.1158538 L55.6579975,33.1005083 L55.6579975,34.5770708 Z M55.6579975,37.4891802 L54.0670355,38.5045257 L54.0670355,37.0006194 L55.6579975,35.9852739 L55.6579975,37.4891802 Z" id="数据标准" fill="#0F71E2" fill-rule="nonzero"></path>
            </g>
        </g>
    </g>
</svg>