<?xml version="1.0" encoding="UTF-8"?>
<svg width="77px" height="87px" viewBox="0 0 77 87" version="1.1" xmlns="http://www.w3.org/2000/svg" xmlns:xlink="http://www.w3.org/1999/xlink">
    <title>编组 35备份 4</title>
    <defs>
        <linearGradient x1="69.9747546%" y1="63.9700768%" x2="63.8070403%" y2="63.9700768%" id="linearGradient-1">
            <stop stop-color="#B7C8D6" offset="0%"></stop>
            <stop stop-color="#DAE2EB" offset="100%"></stop>
        </linearGradient>
    </defs>
    <g id="首页" stroke="none" stroke-width="1" fill="none" fill-rule="evenodd">
        <g id="首页备份" transform="translate(-856.000000, -562.000000)">
            <g id="编组-35备份-4" transform="translate(856.238243, 562.438546)">
                <path d="M2.75380737,32.5209743 L2.72986822,35.3519305 C2.72070576,36.4354503 3.29654032,37.4397086 4.23628639,37.979131 L45.395656,61.6049664 C47.2500815,62.6694227 49.5308572,62.6665605 51.3826052,61.5974533 L68.4060179,51.7689814 C69.3002503,51.2526961 69.8661253,50.3128185 69.9039992,49.2809427 L70.0306359,45.8307138 L70.0306359,45.8307138 L50.6724151,35.2544209 L56.2858624,30.977197 L56.1765193,27.5947944 L43.9890346,30.5341121 L28.9633414,21.7081555 C27.1575147,20.6474292 24.9292785,20.6050652 23.0844377,21.5963837 L2.75380737,32.5209743 L2.75380737,32.5209743 Z" id="Fill-6163" fill="url(#linearGradient-1)" transform="translate(36.372836, 41.662244) rotate(-240.000000) translate(-36.372836, -41.662244) "></path>
                <path d="M6.49995354,38.631613 L47.6877691,62.4116707 C49.5441827,63.4834833 51.8313865,63.4834867 53.6878032,62.4116795 L70.8075651,52.5275392 C72.2424414,51.6991095 72.7340636,49.8643374 71.9056339,48.4294611 C71.6423314,47.9734097 71.2636233,47.5947005 70.8075727,47.3313967 L51.9019311,36.4160994 L51.9019311,36.4160994 L58.4553967,31.5490263 L43.0663552,31.3148212 L29.6197572,23.551339 C27.7633436,22.4795263 25.4761398,22.4795229 23.6197231,23.5513301 L6.49996122,33.4354704 C5.06508484,34.2639001 4.57346269,36.0986722 5.4018924,37.5335486 C5.66519488,37.9895999 6.04390295,38.3683091 6.49995354,38.631613 Z" id="Fill-6163备份" fill="#FFFFFF" transform="translate(38.653763, 42.981505) rotate(-240.000000) translate(-38.653763, -42.981505) "></path>
                <path d="M20.2138927,60.5139957 L20.2138927,53.6601099 C20.5886868,53.9261988 20.9396304,54.2015918 21.2667235,54.4862889 L21.8084713,53.4627228 C21.4745638,53.2122089 21.0895481,52.9735966 20.653424,52.7468859 L20.2138927,53.5822248 L20.2138927,51.2846154 L21.6040382,50.4901195 L21.6040382,49.607422 L20.2138927,50.401918 L20.2138927,47.8576725 L19.4983767,48.2666042 L19.4983767,50.8108497 L17.9446847,51.6988157 L17.9446847,52.5815131 L19.4268251,51.7344403 C19.1474331,53.5123969 18.6295358,55.357433 17.8731331,57.2695485 C18.0026075,57.5849767 18.1150457,57.9014874 18.2104478,58.2190807 C18.7079018,57.0304437 19.1372115,55.5886835 19.4983767,53.8938002 L19.4983767,60.9229274 L20.2138927,60.5139957 Z M27.5019346,45.3669398 L27.5019346,44.4582807 L22.0640128,47.5661617 L22.0640128,48.4748208 L27.5019346,45.3669398 Z M22.6159823,58.9983642 C23.1543229,58.7079996 23.6074831,58.4533364 23.9754627,58.2343748 C24.7591232,57.7864972 25.1509534,57.0216899 25.1509534,55.9399529 L25.1509534,50.5139599 L27.9721309,48.9016006 L27.9721309,47.9929415 L21.5938165,51.6382756 L21.5938165,52.5469347 L24.3741074,50.9579429 L24.3741074,56.0594148 C24.3741074,56.6998031 24.1696742,57.1368349 23.7608079,57.3705101 C23.3723849,57.5925016 22.9430753,57.8032451 22.4728791,58.0027405 C22.534209,58.3744223 22.5819101,58.7062969 22.6159823,58.9983642 Z M28.1663424,54.1646744 C27.7370328,53.2244497 27.1986921,52.1518256 26.5513205,50.9468024 L25.8255828,51.8029247 C26.3979956,52.9036722 26.9056713,53.9981488 27.3486098,55.0863545 L28.1663424,54.1646744 Z M21.6449248,58.3591053 C22.1968943,56.8147904 22.752271,55.0911234 23.311055,53.1881042 L22.5444307,53.23682 C21.9924612,55.2051758 21.4438989,56.9033135 20.8987438,58.3312331 C21.1849502,58.3147766 21.4336772,58.3240674 21.6449248,58.3591053 Z M36.2005653,40.1229008 C35.8598434,39.6945496 35.5566009,39.348625 35.2908378,39.0851269 L34.62643,39.9970638 C34.8853787,40.307726 35.1749923,40.6830745 35.4952709,41.1231095 L36.2005653,40.1229008 Z M32.745645,53.4427147 L32.745645,52.4042472 L38.479995,49.1269516 L38.479995,48.257235 L35.8632506,49.7527567 L35.8632506,47.6368791 L38.091572,46.3633489 L38.091572,45.4676706 L35.8632506,46.7412008 L35.8632506,44.807055 L38.0711287,43.5452086 L38.0711287,42.6495303 L35.8632506,43.9113768 L35.8632506,41.9772309 L38.3471134,40.5576537 L38.3471134,39.6619755 L32.9705215,42.7348052 C33.212434,41.9864476 33.444125,41.2179703 33.6655942,40.4293731 L32.9091915,40.5241704 C32.3027065,42.9044543 31.5088244,45.1365495 30.5275453,47.2204558 C30.7660506,47.3437622 30.9602621,47.4967102 31.1101798,47.6793001 C31.3997934,47.024835 31.6791854,46.3480866 31.9483557,45.6490549 L31.9483557,53.8983815 L32.745645,53.4427147 Z M30.0982357,46.2715772 C30.5207309,45.5628024 30.755829,45.1731491 30.8035301,45.1026176 C30.2243028,44.4990367 29.65189,43.9391577 29.0862916,43.4229806 L28.4423271,44.4530422 C29.0351833,45.0488338 29.5871528,45.6550122 30.0982357,46.2715772 Z M35.0659613,44.3670435 L32.745645,45.6931506 L32.745645,43.7590048 L35.0659613,42.4328977 L35.0659613,44.3670435 Z M35.0659613,47.1968676 L32.745645,48.5229747 L32.745645,46.5888289 L35.0659613,45.2627218 L35.0659613,47.1968676 Z M29.3316114,54.4203399 C29.8018076,52.3689107 30.2788183,50.30926 30.7626434,48.2413877 C30.5105092,48.2729868 30.2515605,48.2738649 29.9857974,48.244022 C29.5156012,50.477183 29.0181472,52.5355366 28.4934354,54.4190829 L29.3316114,54.4203399 Z M35.0659613,50.2084235 L32.745645,51.5345306 L32.745645,49.418653 L35.0659613,48.0925458 L35.0659613,50.2084235 Z M44.2450099,47.0523297 C45.1104436,45.8307898 45.8566246,44.5475967 46.4835529,43.2027504 C47.0355224,43.8305635 47.7271879,44.2487291 48.5585494,44.4572472 C48.7084671,44.0686799 48.8924569,43.6216971 49.1105189,43.1162989 C48.2587141,42.9973496 47.556827,42.6196415 47.0048574,41.9831745 C47.7067446,40.084908 48.1428687,37.8149696 48.3132296,35.1733594 L48.9571941,34.8053208 L48.9571941,33.9226234 L45.8293668,35.7102392 C46.0201711,34.8742635 46.1871248,33.9956685 46.330228,33.0744542 L45.5124954,33.3860346 C45.2467323,35.6148586 44.7186133,37.677757 43.9281385,39.5747299 C44.1325716,39.7607786 44.3029326,39.9403386 44.4392214,40.1134098 C44.5959535,39.7469096 44.7458711,39.3626693 44.8889743,38.9606888 C45.0661497,40.4430925 45.4307222,41.6323363 45.9826917,42.5284202 C45.3898355,43.8797552 44.6163968,45.226123 43.6623754,46.5675238 C43.9008807,46.7254457 44.0950922,46.8870476 44.2450099,47.0523297 Z M39.226176,43.8067159 C40.050723,42.7123903 40.7730535,41.5769636 41.3931674,40.400436 L41.3931674,42.2177542 L42.1495701,41.785455 L42.1495701,40.3056387 C42.7151684,40.5448912 43.1853647,40.7824175 43.5601588,41.0182178 L44.0507984,40.0108802 C43.6214888,39.8062367 43.0899626,39.5907807 42.4562198,39.3645124 L42.1495701,39.9811176 L42.1495701,39.1892861 L44.1121283,38.0676448 L44.1121283,37.2109091 L42.1495701,38.3325504 L42.1495701,35.4248412 L41.3931674,35.8571405 L41.3931674,38.7648496 L39.0421861,40.1084824 L39.0421861,40.9652181 L41.1478476,39.7617905 C40.4323316,41.018804 39.6452639,42.1869023 38.7866447,43.2660853 C38.9501912,43.4495399 39.0967016,43.6297501 39.226176,43.8067159 Z M43.1615142,37.429683 C43.5363083,36.687593 43.9111024,35.8979066 44.2858965,35.0606237 L43.6521537,34.8906057 C43.3114318,35.6997618 42.9638955,36.4695429 42.6095447,37.1999491 C42.8207922,37.2696026 43.0047821,37.3461806 43.1615142,37.429683 Z M40.8411979,38.093767 C40.5141048,37.7355118 40.1972334,37.4060303 39.8905837,37.1053224 L39.3079492,37.9445626 C39.6077845,38.2751267 39.9076198,38.6359795 40.2074551,39.0271209 L40.8411979,38.093767 Z M46.4937746,41.2497819 C45.9349906,40.2623998 45.5942687,38.886447 45.4716088,37.1219236 C45.5124954,36.9947093 45.5499748,36.8651154 45.584047,36.7331418 L47.495497,35.6407099 C47.3728371,37.8050554 47.0389296,39.674746 46.4937746,41.2497819 Z M39.1239594,49.927189 C40.2960428,48.8505868 41.2671003,47.7417587 42.0371318,46.6007047 C42.4936992,46.6426537 42.9332305,46.6943391 43.3557257,46.7557611 L43.8054786,45.60304 C43.4170556,45.6000302 43.0354471,45.5931258 42.6606529,45.5823268 C43.1853647,44.6420553 43.5771949,43.6738814 43.8361436,42.6778052 L43.8361436,41.8340503 L41.3318374,43.2653113 C41.4408685,42.9693427 41.5498995,42.6690472 41.6589305,42.3644247 L40.9229711,42.4864808 C40.7798679,42.9144229 40.6333575,43.3356585 40.4834399,43.7501875 L38.9297479,44.6381535 L38.9297479,45.4948893 L40.0950169,44.8289147 C39.8905837,45.3697933 39.6793361,45.9015856 39.4612741,46.4242916 C40.1018313,46.4562796 40.7151308,46.495192 41.3011725,46.5410289 C40.6129142,47.4709238 39.771331,48.3629655 38.776423,49.2171539 C38.8990829,49.4758994 39.0149284,49.7125777 39.1239594,49.927189 Z M41.9553586,45.5700297 C41.4442757,45.5592374 40.9468217,45.5536368 40.4629965,45.5532278 C40.6197286,45.1607659 40.7764607,44.7596501 40.9331928,44.3498805 L43.0592976,43.1347691 C42.7935345,43.9789697 42.4255548,44.7907232 41.9553586,45.5700297 Z M49.5296069,43.6556324 C49.9452876,43.4353703 50.2587518,43.2605463 50.4699994,43.1311601 C51.1446288,42.7282882 51.4819435,42.037907 51.4819435,41.0600168 L51.4819435,37.1333114 C51.8056293,36.8098561 52.142944,36.4764482 52.4938876,36.1330876 C52.4598154,35.866982 52.4393721,35.5411638 52.4325577,35.1556331 C52.1225007,35.4669722 51.8056293,35.7800424 51.4819435,36.0948438 L51.4819435,33.4272803 L52.5961042,32.7905152 L52.5961042,31.8558944 L51.4819435,32.4926595 L51.4819435,30.0133182 L50.7255408,30.4456175 L50.7255408,32.9249588 L49.437612,33.6610358 L49.437612,34.5956566 L50.7255408,33.8595795 L50.7255408,36.8257025 C50.2689735,37.2597178 49.7987772,37.6993588 49.3149521,38.1446255 L49.4171687,39.2025593 C49.8226277,38.7890995 50.2587518,38.3494602 50.7255408,37.8836413 L50.7255408,41.3105842 C50.7255408,41.7519329 50.572216,42.0602355 50.2655662,42.2354919 C50.0679475,42.348435 49.7817411,42.486046 49.406947,42.6483249 C49.4614625,42.9892857 49.5023491,43.3250549 49.5296069,43.6556324 Z M52.1667946,42.3431396 C53.059486,40.383421 53.5433111,38.0516049 53.6182699,35.3476914 L55.9999162,33.9865329 L55.9999162,35.6351002 L53.8942547,36.8385278 L53.8942547,41.2260532 L54.6302141,40.8054377 L54.6302141,40.0525487 L58.126021,38.0546252 L58.126021,38.8075142 L58.8619803,38.3868987 L58.8619803,33.9993733 L56.7358755,35.2144847 L56.7358755,33.5659175 L59.4343932,32.0236607 L59.4343932,31.1409633 L56.7358755,32.6832201 L56.7358755,31.3202314 L55.9999162,31.7408469 L55.9999162,33.1038355 L53.6284916,34.4591521 L53.6284916,32.8495274 L58.1873509,30.2440482 L58.1873509,30.6464543 L58.9233103,30.2258389 L58.9233103,26.461394 L52.8925323,29.9081042 L52.8925323,34.9706335 C52.8925323,37.7312264 52.4666299,40.0212845 51.614825,41.840808 C51.8192582,42.0008951 52.003248,42.1683389 52.1667946,42.3431396 Z M58.1873509,29.3873124 L53.6284916,31.9927917 L53.6284916,30.3442244 L58.1873509,27.7387452 L58.1873509,29.3873124 Z M58.126021,37.2108703 L54.6302141,39.2087938 L54.6302141,37.274648 L58.126021,35.2767245 L58.126021,37.2108703 Z" id="标准数据" fill="#000000" fill-rule="nonzero"></path>
            </g>
        </g>
    </g>
</svg>