<?xml version="1.0" encoding="utf-8"?>
<!-- Generator: Adobe Illustrator 22.1.0, SVG Export Plug-In . SVG Version: 6.00 Build 0)  -->
<svg version="1.1" id="图层_1" xmlns="http://www.w3.org/2000/svg" xmlns:xlink="http://www.w3.org/1999/xlink" x="0px" y="0px"  width="32px" height="32.00px"
	 viewBox="0 0 32 32" xml:space="preserve">
<g id="jR3mYk.tif" class="st0">
		<image  width="16" height="16" id="图层_1_1_" xlink:href="1ECF8B9F42269D4A.png"  transform="matrix(2 0 0 2 0 0)">
	</image>
</g>
<g>
	<path  d="M12,28H4v-4V8V4h8v4h2V2c0-1.1-0.9-2-2-2H2C0.9,0,0,0.9,0,2v28c0,1.1,0.9,2,2,2h10c1.1,0,2-0.9,2-2v-6h-2V28z"
		fill='#454D66' />
	<circle  cx="8" cy="8" r="2" fill='#454D66'/>
	<path  d="M30,0H20c-1.1,0-2,0.9-2,2v6h2V4h8v4v16v4h-8v-4h-2v6c0,1.1,0.9,2,2,2h10c1.1,0,2-0.9,2-2V2
		C32,0.9,31.1,0,30,0z" fill='#454D66'/>
	<circle  cx="24" cy="8" r="2" fill='#454D66'/>
	<polygon  points="13,11 7,15 23,15 23,13 14,13 17,11" fill='#454D66'/>
	<polygon  points="19,21 25,17 9,17 9,19 18,19 15,21" fill='#454D66'/>
</g>
</svg>
