<?xml version="1.0" encoding="utf-8"?>
<!-- Generator: Adobe Illustrator 22.1.0, SVG Export Plug-In . SVG Version: 6.00 Build 0)  -->
<svg version="1.1" id="图层_1" xmlns="http://www.w3.org/2000/svg" xmlns:xlink="http://www.w3.org/1999/xlink" x="0px" y="0px"
	 viewBox="0 0 32 32" style="enable-background:new 0 0 32 32;" xml:space="preserve">
<style type="text/css">
	.st0{fill:#454D66;}
</style>
<g>
	<path class="st0" d="M18.2,28.3c-1.4-0.8-2.4-2.3-2.6-3.9c0-0.4-1.8-0.2-1.8,0.2c0.2,1.6,1,3.1,2,4.1c0.8,0.6,1.6,1.2,2.4,1.6V32
		l4.3-2.7l-4.1-2.9L18.2,28.3z"/>
	<path class="st0" d="M23.5,16.4c-2.2-0.8-5.1-0.2-6.9,1.2L15,16.8l0.2,4.9l4.4-2.1l-1.4-1c1.4-0.8,3-1,4.7-0.4
		C23.3,18.4,24.1,16.6,23.5,16.4z"/>
	<path class="st0" d="M25.1,19l-0.2,5l1.6-0.8c0,1.6-0.6,3.3-2,4.3c-0.4,0.4,1,1.7,1.4,1.3c2-1.3,2.6-4,2.2-6.5l1.6-1.2L25.1,19z"/>
	<path class="st0" d="M16,0C8,0,2,2.8,2,6.6v18c0,3.4,4.9,6,11.8,6.5c-0.3-0.4-1.2-1.6-1.8-3.1c-1.4-0.4-6.9-2.1-6.9-3.9v-2.3
		c1.6,1.2,3.2,1.8,5.8,2.2c0-0.3-0.1-1.3,0.1-2.2c-3.6-0.7-5.9-2.2-5.9-3.6V16c1.8,1.4,3.9,2.1,7,2.4c0.4-0.7,0.9-1.4,1.4-2
		c-4.6-0.5-8.4-2.2-8.4-4.3v-2c2.5,1.9,6,3.1,10.9,3.1c5,0,8.4-1.2,10.9-3.1v2c0,0.9,0,1.7-1,2.4c2,0.7,3.8,2.8,4.1,3.1v-11
		C30,2.8,24,0,16,0z M16,10.6c-5,0-10.6-1.7-10.6-4c0-2.3,5.6-4,10.6-4s10.6,1.7,10.6,4C26.6,8.9,21,10.6,16,10.6z"/>
</g>
</svg>
