<?xml version="1.0" standalone="no"?><!DOCTYPE svg PUBLIC "-//W3C//DTD SVG 1.1//EN" "http://www.w3.org/Graphics/SVG/1.1/DTD/svg11.dtd"><svg t="1657765329129" class="icon" viewBox="0 0 1024 1024" version="1.1" xmlns="http://www.w3.org/2000/svg" p-id="8029" xmlns:xlink="http://www.w3.org/1999/xlink" width="200" height="200"><defs><style type="text/css"></style></defs><path d="M701.62963 540.444444H322.37037c-4.740741 0-9.481481-4.740741-9.481481-9.481481v-37.925926c0-4.740741 4.740741-9.481481 9.481481-9.481481h379.25926c5.688889 0 9.481481 4.740741 9.481481 9.481481v37.925926c0 4.740741-4.740741 9.481481-9.481481 9.481481z" fill="#515151" p-id="8030"></path><path d="M483.555556 701.62963V322.37037c0-4.740741 4.740741-9.481481 9.481481-9.481481h37.925926c4.740741 0 9.481481 4.740741 9.481481 9.481481v379.25926c0 5.688889-3.792593 9.481481-9.481481 9.481481h-37.925926c-5.688889 0-9.481481-3.792593-9.481481-9.481481z" fill="#515151" p-id="8031"></path><path d="M512 115.674074l332.8 117.57037v279.703704c0 202.903704-262.637037 355.555556-333.748148 393.481482-70.162963-37.925926-332.8-193.422222-332.8-394.42963V232.296296L512 115.674074M512 56.888889c-2.844444 0-5.688889 0.948148-9.481481 1.896296L140.325926 185.837037c-11.377778 3.792593-18.962963 15.17037-18.962963 26.548148V512c0 245.57037 310.992593 418.133333 377.362963 451.318519 3.792593 1.896296 8.533333 2.844444 12.325926 2.844444s8.533333-0.948148 12.325926-2.844444c66.37037-33.185185 378.311111-205.748148 378.311111-451.318519V213.333333c0-12.325926-7.585185-22.755556-18.962963-26.548148L521.481481 58.785185c-3.792593-0.948148-6.637037-1.896296-9.481481-1.896296z" fill="#515151" p-id="8032"></path></svg>