<?xml version="1.0" encoding="utf-8"?>
<!-- Generator: Adobe Illustrator 22.1.0, SVG Export Plug-In . SVG Version: 6.00 Build 0)  -->
<svg version="1.1" id="图层_1" xmlns="http://www.w3.org/2000/svg" xmlns:xlink="http://www.w3.org/1999/xlink" x="0px" y="0px" width="32px" height="32.00px"
	 viewBox="0 0 32 32"  xml:space="preserve">
<path class="st0" d="M28.2,14.3C28.2,14.3,28.2,14.3,28.2,14.3l-2.4-7.3c1.6-1.2,2-3.6,0.8-5.2c-1.2-1.6-3.6-2-5.2-0.8
	c-0.8,0.6-1.3,1.4-1.4,2.3L9.1,4.8c-0.9-1.8-3.2-2.6-5-1.6C2.3,4,1.5,6.3,2.4,8.1c0.4,0.8,0.9,1.4,1.7,1.7l-1.1,7.7
	c-2.1,0.4-3.4,2.4-3,4.4c0.4,2.1,2.4,3.4,4.4,3c0.6-0.1,1.2-0.4,1.7-0.8l8.8,3.8c-0.1,2.1,1.4,3.8,3.5,4c2.1,0.2,3.8-1.4,4-3.5
	c0.1-0.7-0.1-1.4-0.4-2l4.7-4.9c0,0,0,0,0,0c0.5,0.2,1,0.4,1.6,0.4c2.1,0,3.8-1.7,3.8-3.8C32,15.9,30.3,14.3,28.2,14.3z M22.6,7.6
	c0.4,0.1,0.7,0.1,1,0.1L26,15c-0.5,0.3-0.8,0.8-1.1,1.3L21,15.6v-0.2c0-1.3-0.5-2.6-1.3-3.6L22.6,7.6z M9.4,7l10.8-1.5
	c0.1,0.3,0.2,0.5,0.4,0.7l-2.8,4.1c-2-0.9-4.4-0.6-6.1,0.8L9.1,8.2C9.2,7.8,9.3,7.5,9.4,7z M5.4,17.9l1.1-7.7
	c0.3-0.1,0.6-0.2,0.9-0.3l3,3.2c-0.6,1.3-0.7,2.7-0.3,4.1l-3.6,1.6C6.2,18.3,5.8,18.1,5.4,17.9z M16.6,25c-0.4,0.2-0.6,0.4-0.9,0.7
	L7.3,22c0.1-0.4,0.1-0.8,0.1-1.2l3.8-1.7c1.2,1.4,3.1,2.1,4.9,1.8l0.7,3.9L16.6,25z M15.4,18.6c-1.8,0-3.2-1.4-3.2-3.2
	s1.5-3.2,3.2-3.2c1.8,0,3.2,1.5,3.2,3.2C18.6,17.1,17.2,18.6,15.4,18.6z M20.2,24.7c-0.4-0.2-0.7-0.3-1.1-0.3l-0.8-4.4
	c0.9-0.5,1.6-1.3,2.1-2.2l4.2,0.7c0.1,0.4,0.2,0.8,0.4,1.2L20.2,24.7z" fill='#434C64'/>
</svg>
