<?xml version="1.0" encoding="UTF-8"?>
<svg width="95px" height="108px" viewBox="0 0 95 108" version="1.1" xmlns="http://www.w3.org/2000/svg" xmlns:xlink="http://www.w3.org/1999/xlink">
    <title>编组 35备份 8</title>
    <defs>
        <linearGradient x1="69.9747546%" y1="63.9700768%" x2="63.8070403%" y2="63.9700768%" id="linearGradient-1">
            <stop stop-color="#B7C8D6" offset="0%"></stop>
            <stop stop-color="#DAE2EB" offset="100%"></stop>
        </linearGradient>
    </defs>
    <g id="首页" stroke="none" stroke-width="1" fill="none" fill-rule="evenodd">
        <g id="首页备份" transform="translate(-473.000000, -516.000000)">
            <g id="编组-35备份-8" transform="translate(473.015349, 516.540054)">
                <path d="M2.49066765,37.9767456 L2.46683794,40.7947606 C2.4576172,41.8851718 3.04079712,42.8947193 3.98998451,43.4314921 L63.670094,77.1810503 C65.5193469,78.226817 67.7837431,78.2167092 69.6235864,77.1544752 L86.6691576,67.31321 C87.56339,66.7969247 88.129265,65.8570471 88.1671389,64.8251713 L88.2937756,61.3749424 L88.2937756,61.3749424 L58.7394024,45.1383955 L64.3528497,40.8611716 L64.2435066,37.478769 L52.0560219,40.4180867 L28.6772776,27.0993984 C26.8821461,26.0767261 24.6871415,26.0495508 22.8672418,27.0274673 L2.49066765,37.9767456 L2.49066765,37.9767456 Z" id="Fill-6163" fill="url(#linearGradient-1)" transform="translate(45.372836, 52.162244) rotate(-240.000000) translate(-45.372836, -52.162244) "></path>
                <path d="M6.2901267,44.07699 L65.9628172,77.9897959 C67.8138019,79.0417359 70.0836202,79.0340119 71.9274029,77.969499 L89.0442357,68.0870499 C90.479112,67.2586202 90.9707342,65.4238481 90.1423045,63.9889717 C89.8764218,63.5284513 89.4929098,63.1468783 89.0310476,62.8833332 L59.9689184,46.300074 L59.9689184,46.300074 L66.522384,41.4330009 L51.1333425,41.1987958 L29.3361606,28.9494517 C27.4891139,27.9114684 25.2315601,27.9245786 23.3966933,28.9839439 L6.27241021,38.8706945 C4.83753383,39.6991242 4.34591168,41.5338963 5.17434139,42.9687727 C5.44110803,43.4308241 5.82627042,43.8133741 6.2901267,44.07699 Z" id="Fill-6163备份" fill="#FFFFFF" transform="translate(47.653763, 53.481505) rotate(-240.000000) translate(-47.653763, -53.481505) "></path>
                <path d="M24.8801463,72.7586792 C25.4487179,71.9218751 25.9481741,70.9718058 26.378515,69.9084713 C26.7123552,70.4067334 27.1074864,70.7645127 27.5639085,70.9818089 C27.8299374,70.0574551 28.0568444,69.3688093 28.2446295,68.9158715 C27.759518,68.7530723 27.3500421,68.4600486 27.0162019,68.0368005 C27.490881,66.334594 27.7842952,64.3459095 27.8964446,62.0707469 L28.213332,61.8830849 L28.213332,60.3577991 L26.2533249,61.5185235 C26.3706906,60.861409 26.481536,60.1789837 26.5858611,59.4712476 L25.5139211,59.9435245 C25.203554,62.1360348 24.8345041,63.9923946 24.4067714,65.5126037 C24.1146612,65.4147085 23.8055982,65.3226854 23.4795824,65.2365343 L23.2135535,65.9691855 L23.2135535,65.0940215 L24.5828199,64.2831362 L24.5828199,63.0078973 L24.1290059,63.2766479 C24.3872104,62.6236444 24.6036849,62.0078559 24.7784294,61.4292825 L24.0429377,61.1647125 C23.8655851,61.7531654 23.6465025,62.3788333 23.3856898,63.0417162 L24.0351133,63.3322514 L23.2135535,63.8187826 L23.2135535,61.3683235 L22.2198573,61.9567945 L22.2198573,64.4072537 L21.3435268,64.9262203 L22.047721,63.834067 C21.7712595,63.3393319 21.5521769,62.9856497 21.3904731,62.7730203 L20.6862789,63.8901782 C20.9184022,64.2569749 21.1035792,64.6224014 21.2418099,64.9864574 L20.6315083,65.3478806 L20.6315083,66.6231195 L21.801253,65.9303918 C21.3839528,66.7234544 20.9157941,67.4341145 20.3967769,68.0623721 C20.5323995,68.4238052 20.6549814,68.8513054 20.7645227,69.3448725 C21.348743,68.4404568 21.8338546,67.5488919 22.2198573,66.6701776 L22.2198573,67.8704025 L21.7973408,68.0581068 C21.7347458,68.4244042 21.6604142,68.7976521 21.574346,69.1778504 L20.5454401,69.7871727 L20.5454401,71.0624117 L21.1870392,70.682454 C21.0462004,71.1784366 20.8871047,71.6852311 20.7097521,72.2028373 C21.1114035,72.2275268 21.49219,72.2604052 21.8521115,72.3014725 C21.4374194,72.8054367 20.9575241,73.2646655 20.4124256,73.6791589 C20.5949945,74.1378137 20.7332252,74.568549 20.8271177,74.9713646 C21.6225963,74.2418971 22.3059255,73.4038122 22.8771052,72.4571099 C23.2474591,72.5336735 23.5891237,72.6230596 23.9020989,72.7252683 L24.1798644,71.8231362 C24.4354608,72.0926831 24.6688881,72.4045308 24.8801463,72.7586792 Z M26.3824272,66.8055735 C26.1216145,66.0265196 25.9390457,64.9740036 25.8347206,63.6480253 C25.8660181,63.5128022 25.8947075,63.37704 25.9207888,63.2407386 L26.9379581,62.6383667 C26.8779712,64.1408327 26.6927942,65.5299016 26.3824272,66.8055735 Z M24.4576298,70.9335064 L23.6791041,70.9007101 C23.9842549,70.1949002 24.2385472,69.442111 24.4419811,68.6423427 L24.4419811,67.4796248 L22.6189007,68.5592607 C22.6919282,68.2951388 22.7584354,68.0432131 22.8184223,67.8034837 L23.2135535,67.5694853 L23.2135535,66.6193073 C23.5891237,66.7552935 23.9386127,66.9025578 24.2620203,67.0611 L24.4928395,66.3680536 C24.6519353,66.6280695 24.79147,66.8892509 24.9114438,67.1515977 C25.0053364,66.8542821 25.0979249,66.5473203 25.1892093,66.2307121 C25.3248319,67.1880902 25.5204414,68.0099251 25.7760378,68.6962168 C25.36917,69.6998085 24.8775382,70.6119046 24.3011422,71.4325052 L24.4576298,70.9335064 Z M21.9616528,70.8738464 L22.192472,70.0870325 L23.3543923,69.3989384 C23.203121,69.9219364 23.0101196,70.4154704 22.7753882,70.8795402 L21.9616528,70.8738464 Z M28.7375654,70.311769 C28.9931618,70.1770736 29.2591907,70.0070278 29.5356521,69.8016317 C30.0103312,69.4955201 30.2476707,68.8798777 30.2476707,67.9547043 L30.2476707,64.5290625 C30.4719695,64.3045479 30.6988765,64.0784888 30.9283917,63.8508851 C30.9231754,63.4372295 30.9336079,62.8892831 30.9596892,62.2070461 C30.7093091,62.455341 30.4719695,62.6834109 30.2476707,62.8912556 L30.2476707,61.1409277 L30.9205673,60.7424355 L30.9205673,59.1421357 L30.2476707,59.5406279 L30.2476707,57.3277133 L29.3009207,57.8883825 L29.3009207,60.1012971 L28.5576047,60.541492 L28.5576047,62.1417918 L29.3009207,61.701597 L29.3009207,63.7894882 C28.9775131,64.0893652 28.6984435,64.3463152 28.4637121,64.5603381 L28.5497803,66.2346915 C28.8001605,65.9863965 29.0505406,65.7339342 29.3009207,65.4773044 L29.3009207,67.7777354 C29.3009207,68.1861452 29.2122444,68.4386972 29.0348918,68.5353913 C28.8575392,68.6320853 28.6827948,68.7272348 28.5106584,68.8208398 C28.6097672,69.3539247 28.6854029,69.8509011 28.7375654,70.311769 Z M33.0879204,67.860494 L33.0879204,67.2353769 L34.832757,66.2020773 L34.832757,66.8271945 L35.7560338,66.2804261 L35.7560338,61.7920851 L34.4415381,62.570535 L34.4415381,61.5203383 L36.2254966,60.4638706 L36.2254966,59.1511246 L34.4415381,60.2075923 L34.4415381,59.0948838 L35.8968727,58.2330286 L35.8968727,54.3197954 L31.1631231,57.1231418 L31.1631231,61.6864967 C31.1631231,64.1869652 30.9023104,66.3209571 30.3806851,68.0884724 C30.6310653,68.3319363 30.8657966,68.6180071 31.0848793,68.9466846 C31.6586671,67.264967 31.9925073,65.2544258 32.0863998,62.915061 L33.4556663,62.1041757 L33.4556663,63.1543725 L32.1646436,63.9189215 L32.1646436,68.4072624 L33.0879204,67.860494 Z M34.934474,57.4902192 L32.1176974,59.1583261 L32.1176974,57.8705848 L34.934474,56.2024779 L34.934474,57.4902192 Z M33.4556663,60.7914297 L32.1176974,61.5837805 L32.1176974,60.471072 L33.4556663,59.6787213 L33.4556663,60.7914297 Z M34.832757,64.8893314 L33.0879204,65.9226309 L33.0879204,64.684899 L34.832757,63.6515995 L34.832757,64.8893314 Z M43.9090373,60.9770943 L43.9090373,59.3767944 L40.9435974,61.1329403 L40.9435974,59.6326592 L43.2987357,58.2379365 L43.2987357,56.6376367 L40.9435974,58.0323594 L40.9435974,56.7696228 L42.4615271,55.8706985 L42.4615271,54.8455065 C42.8005835,55.0114512 43.1657212,55.1452807 43.5569402,55.246995 C43.7499415,54.6992842 43.9846729,54.0685165 44.2611343,53.3546918 C42.7797185,53.1234515 41.7025622,52.4360996 41.0296656,51.2926363 L41.2330995,50.6970729 L39.8638331,51.5079582 C39.2691802,53.4937535 38.1372533,55.697706 36.4680524,58.1198157 C36.7810275,58.5679225 37.0131508,58.9180495 37.1644221,59.1701967 C37.5556411,58.5634449 37.9233869,57.9622591 38.2676596,57.3666393 L38.2676596,58.3543244 L39.7777649,57.4600337 L39.7777649,58.7227703 L37.4460998,60.1035922 L37.4460998,61.703892 L39.7777649,60.3230702 L39.7777649,61.8233512 L36.8201494,63.5748635 L36.8201494,65.1751633 L43.9090373,60.9770943 Z M38.7684199,56.4574722 C39.4048028,55.2804537 39.9368606,54.1318773 40.3645934,53.0117431 C40.8027586,53.6524285 41.3348164,54.1708311 41.9607668,54.566951 L38.7684199,56.4574722 Z M52.1559333,56.0182339 L52.1559333,54.2804083 L49.2765616,55.9855842 L49.2765616,53.860186 L51.5691048,52.5025323 L51.5691048,50.8147161 L49.2765616,52.1723698 L49.2765616,50.0969809 L51.8742556,48.5586157 L51.8742556,46.8707994 L49.2765616,48.4091647 L49.2765616,45.9337009 L48.1029047,46.6287454 L48.1029047,49.1042092 L46.6945164,49.9382627 C46.8249227,49.3567744 46.9475046,48.7674174 47.0622622,48.1701916 L45.8964297,48.3980159 C45.5208594,50.5207862 45.0644373,52.3121996 44.5271632,53.7722562 C44.7201646,54.3997656 44.8975172,55.0115376 45.059221,55.6075722 C45.4843457,54.4223034 45.8677403,53.1909007 46.2094048,51.913364 L48.1029047,50.7920255 L48.1029047,52.8674143 L45.7868883,54.2389689 L45.7868883,55.9267851 L48.1029047,54.5552306 L48.1029047,56.6806288 L44.8088409,58.6313871 L44.8088409,60.3692127 L52.1559333,56.0182339 Z M53.0870344,48.7405716 C53.5825784,48.1387173 54.0416087,47.5209795 54.4641252,46.8873583 L54.4641252,47.5749871 L58.3137199,45.295241 L58.3137199,44.5451004 C58.7675339,44.6430853 59.263078,44.6580131 59.800352,44.589884 C59.9359746,43.8927855 60.1028947,43.218827 60.3011123,42.5680084 C58.9031565,42.9457994 57.8155678,42.6605332 57.0383461,41.7122099 L57.2417799,41.2166652 L55.903811,42.009016 C55.1683194,43.9781979 54.0311762,45.7768297 52.4923816,47.4049113 C52.7166804,47.7805092 52.9148981,48.2257293 53.0870344,48.7405716 Z M55.1996169,45.6891541 C55.6377821,44.9295771 56.0290011,44.1436251 56.3732738,43.331298 C56.7175465,43.7525354 57.1165899,44.0704908 57.5704039,44.2851641 L55.1996169,45.6891541 Z M57.593877,53.3729685 L57.593877,48.0344683 L58.7205876,47.3672256 L58.7205876,49.2800839 C58.7205876,49.6218146 58.6058301,49.8606399 58.376315,49.9965597 C58.1363673,50.1303228 57.9225009,50.2361381 57.7347158,50.3140057 C57.8442571,50.7325588 57.9225009,51.2488279 57.9694472,51.862813 C58.3554499,51.6342206 58.665817,51.4295827 58.9005484,51.2488993 C59.4586874,50.835018 59.737757,50.2280025 59.737757,49.4278526 L59.737757,45.3145819 L56.5767077,47.1865685 L56.5767077,53.9753405 L57.593877,53.3729685 Z M54.0729062,54.4704171 L54.0729062,53.7077742 L54.996183,53.1610059 L54.996183,53.7236113 L56.0133523,53.1212393 L56.0133523,47.5827016 L53.0557369,49.3342139 L53.0557369,55.0727891 L54.0729062,54.4704171 Z M54.996183,51.7607435 L54.0729062,52.3075119 L54.0729062,50.1321043 L54.996183,49.5853359 L54.996183,51.7607435 Z M61.3417548,51.2284737 C61.9468401,49.3948632 62.2493828,47.1111352 62.2493828,44.3772896 L62.2493828,40.1765026 L64.0255169,39.1246685 L64.0255169,39.9873301 L62.6718993,40.7889482 L62.6718993,41.989173 L64.0255169,41.187555 L64.0255169,42.0377143 L62.4684654,42.9598067 L62.4684654,44.1850363 L66.584089,41.7477467 L66.584089,40.5225172 L65.0426863,41.4353423 L65.0426863,40.585183 L66.3963039,39.783565 L66.3963039,38.5833401 L65.0426863,39.3849582 L65.0426863,38.5222965 L66.7875229,37.488997 L66.7875229,45.1404306 C66.7875229,45.3738076 66.7581815,45.6120584 66.6994986,45.855183 C66.6408158,46.0983076 66.4249933,46.3303048 66.0520312,46.5511745 C65.7547048,46.7272525 65.4860678,46.8696706 65.2461201,46.9784291 C65.3295802,47.4457672 65.407824,47.9578688 65.4808515,48.514734 C65.9346655,48.2543184 66.3474016,48.0036432 66.7190596,47.7627085 C67.0907176,47.5217739 67.3750034,47.1377532 67.571917,46.6106466 C67.7688305,46.08354 67.8672873,45.417828 67.8672873,44.6135106 L67.8672873,35.3992843 L61.1696184,39.3656718 L61.1696184,44.8416978 C61.1748347,47.2223887 60.9322789,49.1288615 60.4419511,50.5611163 C60.7392776,50.7434388 61.0392121,50.9658913 61.3417548,51.2284737 Z M63.8377318,48.0875341 L63.8377318,47.4749193 L66.1928701,46.0801966 L66.1928701,42.7170664 L62.8440356,44.7002602 L62.8440356,48.6760051 L63.8377318,48.0875341 Z M65.1991739,45.4934474 L63.8377318,46.2996991 L63.8377318,45.2870093 L65.1991739,44.4807577 L65.1991739,45.4934474 Z M73.1330947,44.1955834 C73.5816924,42.8213809 73.8320726,41.3478564 73.8842351,39.77501 L74.9405263,39.1494699 L74.9405263,40.7497697 C74.9405263,41.1331749 74.8231607,41.394382 74.5884293,41.5333909 C74.4215092,41.6322416 74.1946022,41.7499471 73.9077083,41.8865073 C74.0172496,42.5050979 74.0954934,43.0130321 74.1424396,43.41031 C74.6171187,43.1292031 74.9685637,42.9033642 75.1967748,42.7327933 C75.4249858,42.5622225 75.6010344,42.3266912 75.7249204,42.0261995 C75.8488064,41.7257078 75.9107494,41.3629221 75.9107494,40.9378425 L75.9107494,30.6734193 L72.9609583,32.420298 L72.9609583,38.1588731 C72.9609583,40.4342995 72.7744773,42.0929411 72.4015152,43.1347979 C72.1172294,42.7905571 71.8290314,42.4757215 71.5369213,42.1902912 L72.7184026,41.490613 L72.7184026,40.0153366 L72.2724129,40.2794535 L72.2724129,34.9534556 L72.7184026,34.6893387 L72.7184026,33.2140623 L72.2724129,33.4781792 L72.2724129,32.4404848 L71.2943655,33.0196886 L71.2943655,34.057383 L70.0972354,34.7663285 L70.0972354,33.728634 L69.1426611,34.2939369 L69.1426611,35.3316314 L68.6419008,35.6281837 L68.6419008,37.1034601 L69.1426611,36.8069078 L69.1426611,42.1329057 L68.5401839,42.4896952 L68.5401839,43.9649716 L69.6199483,43.3255306 C69.3095812,44.1927927 68.9600923,45.0248786 68.5714814,45.8217884 C68.8009966,45.9942597 69.0461605,46.2033057 69.3069731,46.4489263 C69.7034083,45.5890386 70.0946273,44.6613933 70.48063,43.6659906 L69.7764359,43.232858 L71.4977994,42.2134593 L70.7857808,43.485279 C71.1352698,43.8950924 71.4769344,44.342879 71.8107745,44.8286388 L72.3780421,43.8050718 C72.664936,43.9268933 72.9166202,44.0570639 73.1330947,44.1955834 Z M74.9405263,34.5611102 L73.9311814,35.1588485 L73.9311814,33.4460276 L74.9405263,32.8482893 L74.9405263,34.5611102 Z M71.2943655,36.3828187 L70.0972354,37.0917642 L70.0972354,36.2416049 L71.2943655,35.5326594 L71.2943655,36.3828187 Z M71.2943655,38.583231 L70.0972354,39.2921764 L70.0972354,38.4420171 L71.2943655,37.7330717 L71.2943655,38.583231 Z M74.9405263,37.6616912 L73.9272692,38.2617463 L73.9311814,36.6466273 L74.9405263,36.048889 L74.9405263,37.6616912 Z M71.2943655,40.8586573 L70.0972354,41.5676028 L70.0972354,40.6424294 L71.2943655,39.933484 L71.2943655,40.8586573 Z" id="数据全生命周期" fill="#0F71E2" fill-rule="nonzero"></path>
            </g>
        </g>
    </g>
</svg>