<?xml version="1.0" encoding="UTF-8"?>
<svg width="16px" height="16px" viewBox="0 0 16 16" version="1.1" xmlns="http://www.w3.org/2000/svg" xmlns:xlink="http://www.w3.org/1999/xlink">
    <!-- Generator: Sketch 51 (57462) - http://www.bohemiancoding.com/sketch -->
    <title>icon_warning_slice</title>
    <desc>Created with Sketch.</desc>
    <defs></defs>
    <g id="Page-1" stroke="none" stroke-width="1" fill="none" fill-rule="evenodd">
        <g id="Artboard" transform="translate(-194.000000, -281.000000)">
            <g id="icon_warning" transform="translate(194.000000, 281.000000)">
                <rect id="Rectangle-16" fill="#FBBD13" x="0" y="0" width="16" height="16" rx="8"></rect>
                <path d="M9,4 L9,9 C9,9.55228475 8.55228475,10 8,10 C7.44771525,10 7,9.55228475 7,9 L7,4 C7,3.44771525 7.44771525,3 8,3 C8.55228475,3 9,3.44771525 9,4 Z M8,13 C7.44771525,13 7,12.5522847 7,12 C7,11.4477153 7.44771525,11 8,11 C8.55228475,11 9,11.4477153 9,12 C9,12.5522847 8.55228475,13 8,13 Z" id="icon_informational" fill="#FFFFFF"></path>
            </g>
        </g>
    </g>
</svg>