<svg width="96.000000" height="50.000000" viewBox="0 0 96 50" fill="none" xmlns="http://www.w3.org/2000/svg" xmlns:xlink="http://www.w3.org/1999/xlink">
	<desc>
			Created with Pixso.
	</desc>
	<path d="M36.3902 15.5606L49.8302 13.0098L49.8297 13.0098C49.9704 12.9839 50.1096 13.0079 50.22 13.1001C50.3304 13.1917 50.4 13.3324 50.4 13.475L50.4 36.5199C50.4 36.6625 50.3304 36.8032 50.22 36.8949C50.1336 36.9664 50.0304 37 49.92 37C49.8902 37 49.86 36.9904 49.8302 36.9851L36.3902 34.4344C36.1632 34.3911 36 34.1847 36 33.9543L36 16.0407C36 15.8102 36.1632 15.6038 36.3902 15.5606ZM51.36 16.4756C52.0762 16.395 52.8245 16.3556 53.5949 16.3556C57.5419 16.3556 59.9698 17.3869 60 17.9611L60 18.1411C60 18.6774 57.8112 19.7163 53.7902 19.7163C52.9779 19.7153 52.1663 19.6653 51.36 19.5666L51.36 16.4756ZM53.7898 20.6765C56.233 20.6765 58.691 20.2713 60 19.4763L60 23.0771C60 23.6133 57.8112 24.6523 53.7902 24.6523C52.9536 24.6523 52.127 24.611 51.36 24.5174L51.36 20.5416C52.1304 20.6314 52.9555 20.6765 53.7898 20.6765ZM46.62 29.5435C45.6936 26.4061 44.7975 23.2552 43.86 20.1216L43.86 20.1216C43.2057 20.172 42.5626 20.2094 41.9102 20.2565C41.0981 23.2024 40.2375 26.1473 39.42 29.0932C39.9658 29.1288 40.5226 29.1552 41.0703 29.1984C41.2406 28.5382 41.4 27.8819 41.5651 27.2179C42.42 27.2592 43.2859 27.289 44.1451 27.2928C44.3326 27.991 44.5126 28.6912 44.6851 29.3933C45.3264 29.4514 45.973 29.5003 46.62 29.5435ZM41.9251 25.7027C42.2935 24.394 42.8323 23.1164 43.0758 21.787L43.0764 21.7866C43.403 23.1126 43.9099 24.4084 44.3251 25.7176C43.5197 25.7138 42.7249 25.708 41.9251 25.7027ZM53.7898 25.612C56.2329 25.612 58.691 25.2073 60 24.4117L60 27.7432C60 28.2794 57.8112 29.3184 53.7902 29.3179C52.9779 29.3169 52.1663 29.2668 51.36 29.1681L51.36 25.4771C52.1304 25.5673 52.9555 25.612 53.7898 25.612ZM53.7898 30.2781C56.2329 30.2781 58.691 29.8729 60 29.0779L60 32.019C60 32.5888 57.5664 33.6393 53.5949 33.6388C52.824 33.6388 52.0761 33.5994 51.36 33.5188L51.36 30.1432C52.1323 30.233 52.9555 30.2781 53.7898 30.2781Z" fill-rule="evenodd" fill="#D81E06"/>
	<defs/>
</svg>
