<?xml version="1.0" encoding="utf-8"?>
<!-- Generator: Adobe Illustrator 24.1.0, SVG Export Plug-In . SVG Version: 6.00 Build 0)  -->
<svg version="1.1" id="图层_1" xmlns="http://www.w3.org/2000/svg" xmlns:xlink="http://www.w3.org/1999/xlink" x="0px" y="0px"
	 viewBox="0 0 96.1 49.9" style="enable-background:new 0 0 96.1 49.9;" xml:space="preserve">
<style type="text/css">
	.st0{fill:#4ABC99;}
</style>
<desc>Created with Sketch.</desc>
<g id="组件库">
	<g id="组件2" transform="translate(-1158.000000, -1966.000000)">
		<g id="图标" transform="translate(40.000000, 1101.000000)">
			<g id="Component" transform="translate(40.000000, 725.000000)">
				<g id="Iconography" transform="translate(0.000000, 49.000000)">
					<g id="Icon" transform="translate(1056.000000, 74.000000)">
						<path id="activemq" class="st0" d="M69.8,49.2l-3.4-2l0,0c0-0.1,0-0.3,0-0.4l3.6-2l1.2,2.2L69.8,49.2L69.8,49.2z M69.6,49.4
							l-1.3,2.3h-5.6L60,46.9l2.7-4.7h2.5v4.1c-0.3,0.1-0.7,0.4-0.7,0.8c0,0.5,0.3,0.8,0.8,0.8c0.4,0,0.7-0.2,0.8-0.5L69.6,49.4
							L69.6,49.4z M70.4,49.6l1.3-2.3h2.7v4.1l0,0c-0.2,0-0.4,0.1-0.5,0.3L70.4,49.6L70.4,49.6z M70.3,49.8l3.5,2l0,0
							c0,0.1-0.1,0.2-0.1,0.4c0,0.5,0.3,0.8,0.8,0.8c0.5,0,0.8-0.3,0.8-0.8c0-0.5-0.3-0.8-0.8-0.8v-4.1h2.5l2.7,4.7l-2.7,4.7h-5.3
							v0.2L69,52L70.3,49.8L70.3,49.8z M69.7,34.5l1.2,2.1l-1.2,2.2l-3.4-2l0,0c0-0.1,0-0.3,0-0.4L69.7,34.5L69.7,34.5z M69.5,34.2
							l-3.3,1.9c-0.1-0.2-0.4-0.3-0.7-0.3c-0.3,0-0.8,0.3-0.8,0.8c0,0.4,0.3,0.8,0.7,0.8v4.1h-2.5L60,36.6l2.7-4.7h5.4L69.5,34.2
							L69.5,34.2z M70.4,44.1L69,41.9l1.3-2.3l3.5,2l0,0c0,0.1-0.1,0.2-0.1,0.3v0c0,0.1,0,0.2,0,0.2L70.4,44.1L70.4,44.1z
							 M70.6,44.4l3.4-1.9l0,0c0.1,0.1,0.3,0.2,0.5,0.3v3.9h-2.5L70.6,44.4L70.6,44.4z M70.3,33.8L69,31.7l2.7-4.7h5.4l2.9,4.7
							l-2.7,4.7h-2.7v-3.9c0.5,0,0.8-0.3,0.8-0.8c0-0.5-0.3-0.8-0.8-0.8c-0.5,0-0.8,0.3-0.8,0.8c0,0,0,0,0,0.1L70.3,33.8L70.3,33.8z
							 M70.4,34l3.4-2l0,0c0.1,0.3,0.3,0.5,0.6,0.5v3.9h-2.5L70.4,34L70.4,34z M69.7,44.5l-3.5,2.1c-0.1-0.2-0.4-0.3-0.7-0.3v-4.1
							h2.9L69.7,44.5L69.7,44.5z M69.6,39l-1.4,2.5h-2.7v-4.1c0.3,0,0.6-0.1,0.7-0.4L69.6,39L69.6,39z M70.5,39.3l1.3-2.2h2.7V41
							l0,0c-0.2,0.1-0.4,0.2-0.5,0.3L70.5,39.3L70.5,39.3z M74.6,37.1h2.5l2.9,4.7l-2.7,4.7h-2.7v-3.9c0.5,0,0.8-0.3,0.8-0.8
							c0-0.5-0.3-0.8-0.8-0.8V37.1L74.6,37.1z"/>
					</g>
				</g>
			</g>
		</g>
	</g>
</g>
</svg>
