<?xml version="1.0" encoding="utf-8"?>
<!-- Generator: Adobe Illustrator 21.0.0, SVG Export Plug-In . SVG Version: 6.00 Build 0)  -->
<svg version="1.1" id="图层_1" xmlns="http://www.w3.org/2000/svg" xmlns:xlink="http://www.w3.org/1999/xlink" x="0px" y="0px"
	 viewBox="0 0 96.1 49.9" style="enable-background:new 0 0 96.1 49.9;" xml:space="preserve">
<style type="text/css">
	.st0{fill:#FFA964;}
</style>
<title>AnalyticDB for MySQL</title>
<desc>Created with Sketch.</desc>
<g id="组件库">
	<g id="组件2" transform="translate(-964.000000, -1543.000000)">
		<g id="图标" transform="translate(40.000000, 749.000000)">
			<g id="Component" transform="translate(40.000000, 725.000000)">
				<g id="Iconography" transform="translate(0.000000, 49.000000)">
					<g id="Icon" transform="translate(864.000000, 0.000000)">
						<path id="AnalyticDB-for-MySQL" class="st0" d="M79.8,47.3l-1.1-2.3l1.1-2.3l0,0c0.6-1.3,0-2.8-1.2-3.4c0,0,0,0,0,0l0,0
							l-3.2-1.5l-1.5-3.2l0,0c-0.6-1.3-2.1-1.8-3.4-1.2c0,0,0,0,0,0L68,34.3l-2.3-1.1l0,0c-1.3-0.6-2.8,0-3.4,1.2c0,0,0,0,0,0
							l-1.5,3.2l-3.2,1.5l0,0c-1.3,0.6-1.8,2.1-1.2,3.4c0,0,0,0,0,0l1.1,2.3l-1.1,2.3l0,0c-0.6,1.3,0,2.8,1.2,3.4c0,0,0,0,0,0
							l3.2,1.5l1.5,3.2l0,0c0.6,1.3,2.1,1.8,3.4,1.2l0,0l2.3-1.1l2.3,1.1l0,0c1.3,0.6,2.8,0,3.4-1.2c0,0,0,0,0,0l1.5-3.2l3.2-1.5
							l0,0C79.9,50.1,80.4,48.6,79.8,47.3L79.8,47.3z M68,55.2L57.8,44.9L68,34.6l10.3,10.3L68,55.2L68,55.2L68,55.2z"/>
					</g>
				</g>
			</g>
		</g>
	</g>
</g>
</svg>
