<?xml version="1.0" encoding="utf-8"?>
<!-- Generator: Adobe Illustrator 21.0.0, SVG Export Plug-In . SVG Version: 6.00 Build 0)  -->
<svg version="1.1" id="图层_1" xmlns="http://www.w3.org/2000/svg" xmlns:xlink="http://www.w3.org/1999/xlink" x="0px" y="0px"
	 viewBox="0 0 96.1 49.9" style="enable-background:new 0 0 96.1 49.9;" xml:space="preserve">
<style type="text/css">
	.st0{fill:#333333;}
</style>
<title>AnalyticDB for PostgreSQL</title>
<desc>Created with Sketch.</desc>
<g id="组件库">
	<g id="组件2" transform="translate(-866.000000, -1543.000000)">
		<g id="图标" transform="translate(40.000000, 749.000000)">
			<g id="Component" transform="translate(40.000000, 725.000000)">
				<g id="Iconography" transform="translate(0.000000, 49.000000)">
					<g id="AnalyticDB1" transform="translate(786.000000, 20.000000)">
						<path id="AnalyticDB-for-PostgreSQL" class="st0" d="M48,12.9c-7.4,0-13.5,6-13.5,13.5c0,1.4,0.2,2.7,0.6,4
							c0.8-0.6,1.6-1.1,2.5-1.6c-0.2-0.8-0.3-1.6-0.3-2.4c0-5.9,4.8-10.7,10.7-10.7s10.7,4.8,10.7,10.7c0,0.8-0.1,1.6-0.3,2.4
							c0.9,0.5,1.7,1,2.5,1.6c0.4-1.3,0.6-2.6,0.6-4C61.5,18.9,55.5,12.9,48,12.9L48,12.9z M50.3,26.4
							C50.3,26.4,50.3,26.4,50.3,26.4c0-1.3-1-2.3-2.2-2.3s-2.2,1-2.2,2.2c0,0,0,0,0,0c0.7-0.1,1.5-0.1,2.2-0.1S49.6,26.3,50.3,26.4
							L50.3,26.4z M43,26.3c0-2.8,2.3-5.1,5.1-5.1c2.8,0,5.1,2.3,5.1,5.1c0,0.2,0,0.3,0,0.5c0.9,0.2,1.9,0.5,2.7,0.8
							c0.1-0.4,0.1-0.8,0.1-1.2c0-4.3-3.5-7.9-7.9-7.9c-4.3,0-7.9,3.5-7.9,7.9c0,0.4,0,0.8,0.1,1.2c0.9-0.3,1.8-0.6,2.7-0.8
							C43,26.7,43,26.5,43,26.3L43,26.3z M48,34.2c-3.9,0-7.2-2.9-7.8-6.6c-0.9,0.3-1.8,0.7-2.6,1.2C38.7,33.5,43,37,48,37
							c5.1,0,9.3-3.5,10.4-8.3c-0.8-0.4-1.7-0.8-2.6-1.2C55.2,31.3,52,34.2,48,34.2L48,34.2z M48,28.6c-1.2,0-2.2-1-2.2-2.2
							c-1,0.1-1.9,0.2-2.8,0.4c0.2,2.6,2.4,4.6,5,4.6c2.6,0,4.8-2,5-4.6c-0.9-0.2-1.8-0.3-2.8-0.4C50.3,27.6,49.3,28.6,48,28.6
							L48,28.6z"/>
					</g>
				</g>
			</g>
		</g>
	</g>
</g>
</svg>
