<?xml version="1.0" encoding="utf-8"?>
<!-- Generator: Adobe Illustrator 21.0.0, SVG Export Plug-In . SVG Version: 6.00 Build 0)  -->
<svg version="1.1" id="图层_1" xmlns="http://www.w3.org/2000/svg" xmlns:xlink="http://www.w3.org/1999/xlink" x="0px" y="0px"
	 viewBox="0 0 96.1 50" style="enable-background:new 0 0 96.1 50;" xml:space="preserve">
<style type="text/css">
	.st0{fill:#583ACA;}
</style>
<title>datahub-data</title>
<desc>Created with Sketch.</desc>
<g id="组件库">
	<g id="组件2" transform="translate(-1156.000000, -1543.000000)">
		<g id="图标" transform="translate(40.000000, 749.000000)">
			<g id="Component" transform="translate(40.000000, 725.000000)">
				<g id="Iconography" transform="translate(0.000000, 49.000000)">
					<g id="Icon" transform="translate(1056.000000, 0.000000)">
						<g id="datahub-data" transform="translate(20.000000, 20.000000)">
							<path id="路径" class="st0" d="M58.1,23.9c-0.4,0-0.8,0.2-1,0.4l-4.3-0.6l0,0c-0.1-0.5-0.2-1-0.5-1.4l3.6-3.8
								c0.3,0.1,0.6,0.2,0.9,0.2l0,0c1.4,0,2.6-1.2,2.6-2.6c0-1.4-1.2-2.6-2.6-2.6l0,0c-1.4,0-2.6,1.2-2.6,2.6
								c0,0.5,0.1,0.9,0.4,1.3L51.1,21l0,0c-0.5-0.3-1-0.4-1.6-0.4l-0.9-4.2l0,0c0.3-0.3,0.5-0.8,0.5-1.3v0c0-1-0.8-1.7-1.7-1.7l0,0
								c-1,0-1.7,0.8-1.7,1.7c0,0,0,0,0,0c0,0.8,0.5,1.4,1.2,1.7l0.9,4.2l0,0c-0.4,0.2-0.8,0.5-1.1,0.8l-4.2-2.2c0,0,0-0.1,0-0.1v0
								c0-1-0.8-1.7-1.7-1.7l0,0c-1,0-1.7,0.8-1.7,1.7v0c0,1,0.8,1.7,1.7,1.7c0.3,0,0.5-0.1,0.8-0.2l4.4,2.3v0
								c-0.1,0.2-0.1,0.5-0.1,0.7c0,0.7,0.2,1.3,0.6,1.9l-3.6,3.8l0,0c-1.3-0.6-2.9-0.1-3.5,1.3c-0.2,0.3-0.2,0.7-0.2,1.1v0
								c0,1.4,1.2,2.6,2.6,2.6l0,0c1.4,0,2.6-1.2,2.6-2.6v0c0-0.4-0.1-0.8-0.3-1.1l3.6-3.8l0,0c0.5,0.3,1.1,0.4,1.6,0.4
								c0.4,0,0.7-0.1,1.1-0.2l2.7,4.2c-0.1,0.2-0.2,0.5-0.2,0.8v0c0,1,0.8,1.7,1.7,1.7l0,0c1,0,1.7-0.8,1.7-1.7l0,0
								c0-1-0.8-1.7-1.7-1.7h-0.1l-2.7-4.2l0,0c0.3-0.3,0.5-0.6,0.7-1l4,0.6l0,0c0.2,0.6,0.8,1.1,1.5,1.1c0.9,0,1.6-0.7,1.6-1.6
								S58.9,23.9,58.1,23.9"/>
							<path id="形状" class="st0" d="M41.8,23.6L41.8,23.6c0.5-0.1,0.8-0.6,0.7-1c0,0,0,0,0,0l0,0c-0.1-0.5-0.6-0.8-1-0.7
								c0,0,0,0,0,0c-1.4,0.3-2.8-0.6-3.2-1.9l0,0c-0.2-0.7,0-1.4,0.3-1.9l0,0c0.4-0.6,1-1,1.7-1.2c1.4-0.3,2.8,0.6,3.2,2l0,0
								c0.1,0.5,0.6,0.8,1,0.7c0,0,0,0,0,0l0,0c0.5-0.1,0.8-0.6,0.7-1c0,0,0,0,0,0c-0.5-2.3-2.9-3.8-5.2-3.3l0,0
								c-1.1,0.3-2.1,0.9-2.8,1.9l0,0c-0.6,1-0.8,2.1-0.6,3.3c0.5,2,2.3,3.4,4.3,3.4l0,0C41.2,23.7,41.5,23.7,41.8,23.6 M55.4,28
								L55.4,28c-0.5-0.1-0.9,0.2-1,0.7c0,0,0,0,0,0l0,0c-0.1,0.5,0.2,0.9,0.7,1c0,0,0,0,0,0c1.4,0.3,2.3,1.7,2.1,3.1l0,0
								c-0.1,0.7-0.5,1.3-1.1,1.7l0,0c-0.6,0.4-1.3,0.5-1.9,0.4c-1.4-0.3-2.3-1.7-2.1-3.1c0.1-0.5-0.2-0.9-0.7-1
								c-0.5-0.1-0.9,0.2-1,0.7c-0.4,2.4,1.1,4.7,3.4,5.1c0.3,0,0.5,0.1,0.8,0.1l0,0c0.9,0,1.7-0.3,2.4-0.8l0,0
								c1-0.7,1.6-1.7,1.8-2.8C59.3,30.7,57.8,28.4,55.4,28"/>
						</g>
					</g>
				</g>
			</g>
		</g>
	</g>
</g>
</svg>
