<?xml version="1.0" encoding="utf-8"?>
<!-- Generator: Adobe Illustrator 21.0.0, SVG Export Plug-In . SVG Version: 6.00 Build 0)  -->
<svg version="1.1" id="图层_1" xmlns="http://www.w3.org/2000/svg" xmlns:xlink="http://www.w3.org/1999/xlink" x="0px" y="0px"
	 viewBox="0 0 96.1 49.9" style="enable-background:new 0 0 96.1 49.9;" xml:space="preserve">
<style type="text/css">
	.st0{fill:#333333;}
</style>
<title>Data Lake Analytics(</title>
<desc>Created with Sketch.</desc>
<g id="组件库">
	<g id="组件2" transform="translate(-194.000000, -1615.000000)">
		<g id="图标" transform="translate(40.000000, 749.000000)">
			<g id="Component" transform="translate(40.000000, 725.000000)">
				<g id="Iconography" transform="translate(0.000000, 49.000000)">
					<g id="Icon" transform="translate(96.000000, 74.000000)">
						<g id="Data-Lake-Analytics_x28_" transform="translate(18.000000, 18.000000)">
							<path id="形状" class="st0" d="M48.4,32.3l6.5-3.2c0.2-0.1,0.3-0.3,0.3-0.5v-7.5c0-0.2-0.1-0.4-0.3-0.4l-6.5-3.2
								c-0.1-0.1-0.3-0.1-0.4,0l-6.6,3.1c-0.1,0.1-0.2,0.1-0.2,0.2C41.1,21,41,21.1,41,21.2v7.4c0,0.2,0.1,0.4,0.3,0.5
								c0.1,0.1,0.1,0.1,0.1,0.1l6.5,3.2c0.1,0.1,0.1,0.1,0.2,0.1C48.2,32.4,48.3,32.3,48.4,32.3L48.4,32.3z M54.2,28.4l-5.6,2.7
								v-6.4l5.6-2.7V28.4z M42.7,21.1l5.5-2.6l5.4,2.6l-5.4,2.6L42.7,21.1z M48,11.5c-7.4,0-13.5,6-13.5,13.5S40.6,38.4,48,38.4
								s13.5-6,13.5-13.5C61.5,17.5,55.5,11.5,48,11.5z M48,37.7c-7,0-12.7-5.8-12.7-12.7c0-7,5.7-12.8,12.7-12.8
								c7,0,12.7,5.8,12.7,12.7C60.8,31.9,55.1,37.7,48,37.7z M36.6,21.4l1.9,0.5c0.2-0.7,0.5-1.3,0.8-2l-1.7-1
								C37.2,19.7,36.8,20.5,36.6,21.4z M47.7,14.7v-2c-0.9,0-1.8,0.1-2.6,0.4l0.5,1.9C46.3,14.8,47,14.8,47.7,14.7z M58.1,24.5h2
								c-0.2-6.5-5.4-11.6-11.9-11.7v2C53.6,14.8,58,19.1,58.1,24.5L58.1,24.5z M57.8,27.1l1.9,0.5c0.2-0.9,0.3-1.8,0.3-2.7h-2
								C58.1,25.6,58,26.4,57.8,27.1L57.8,27.1z M36.1,24.5h2c0-0.7,0.1-1.5,0.3-2.1l-1.9-0.5C36.2,22.6,36.1,23.5,36.1,24.5z
								 M42.8,16.2l-1-1.7c-0.7,0.4-1.5,1-2.1,1.6l1.3,1.3C41.7,17,42.2,16.6,42.8,16.2L42.8,16.2z M45.2,15.1l-0.5-1.9
								c-0.9,0.2-1.7,0.6-2.5,1l0.9,1.7C43.8,15.6,44.5,15.4,45.2,15.1z M55.3,31.7l1.4,1.4c0.6-0.7,1.2-1.4,1.7-2.1l-1.7-1
								C56.3,30.5,55.8,31.1,55.3,31.7L55.3,31.7z M53.3,33.3l1,1.7c0.8-0.5,1.5-1,2.1-1.7L55,32C54.5,32.5,53.9,33,53.3,33.3
								L53.3,33.3z M56.9,29.5l1.7,1c0.4-0.8,0.8-1.7,1-2.5l-1.9-0.5C57.5,28.2,57.2,28.9,56.9,29.5z M37.8,18.5l1.7,1
								c0.4-0.6,0.8-1.2,1.3-1.7l-1.4-1.4C38.9,17,38.3,17.8,37.8,18.5L37.8,18.5z M50.8,34.4l0.5,1.9c0.9-0.3,1.8-0.6,2.6-1l-1-1.7
								C52.2,33.9,51.5,34.2,50.8,34.4L50.8,34.4z M48.2,34.8v2c0.9,0,1.8-0.1,2.7-0.4l-0.5-1.9C49.7,34.7,49,34.7,48.2,34.8
								L48.2,34.8z"/>
						</g>
					</g>
				</g>
			</g>
		</g>
	</g>
</g>
</svg>
