<?xml version="1.0" encoding="utf-8"?>
<!-- Generator: Adobe Illustrator 21.0.0, SVG Export Plug-In . SVG Version: 6.00 Build 0)  -->
<svg version="1.1" id="图层_1" xmlns="http://www.w3.org/2000/svg" xmlns:xlink="http://www.w3.org/1999/xlink" x="0px" y="0px"
	 viewBox="0 0 96 50" style="enable-background:new 0 0 96 50;" xml:space="preserve">
<style type="text/css">
	.st0{fill:#001A66;}
	.st1{fill:#D90000;}
</style>
<title>dm</title>
<desc>Created with Sketch.</desc>
<g id="组件库">
	<g id="组件2" transform="translate(-480.000000, -1543.000000)">
		<g id="图标" transform="translate(40.000000, 749.000000)">
			<g id="Component" transform="translate(40.000000, 725.000000)">
				<g id="Iconography" transform="translate(0.000000, 49.000000)">
					<g id="Icon" transform="translate(384.000000, 0.000000)">
						<g id="dm" transform="translate(16.000000, 20.000000)">
							<path id="路径" class="st0" d="M51.9,13.1c-1.4,0.3-3,0.7-3,0.8c0,0-0.1,0.8-0.2,1.6c-0.2,1.8,0,3.8,0.5,4.9
								c0.2,0.4,0.6,1,0.9,1.3c0.6,0.6,1.2,0.9,3,1.3c3,0.7,5.1,2.5,5.5,5c0.1,0.3,0.2,0.6,0.2,0.6c0.4,0,2.7-3.1,3.6-4.8
								c1.2-2.3,1.5-4.9,0.8-6.8c-0.7-1.9-2.8-3.3-5.9-3.9C55.8,12.8,53.3,12.8,51.9,13.1z"/>
							<path id="路径_1_" class="st1" d="M46.2,14.9c-1.1,0.5-1.1,0.6-1.1,3.3c0,1.6,0,1.9,0.4,2.7c0.8,1.8,1.8,2.5,4.7,3.4
								c3.7,1.2,4.3,2,4.7,5.8c0.1,0.9,0.2,1.6,0.3,1.7c0.1,0.1,1.8-1.2,2-1.5c0.2-0.4-0.1-2.4-0.5-3.3c-0.4-0.8-1.5-2.1-2.3-2.4
								c-0.3-0.1-1.3-0.6-2.4-1c-2.3-0.9-3.1-1.4-3.7-2.3c-0.6-0.9-0.8-2.2-0.8-4.7c0-1.5,0-2.1-0.2-2.1
								C47.2,14.4,46.7,14.6,46.2,14.9L46.2,14.9z"/>
							<path id="路径_2_" class="st1" d="M43,16.5c-0.5,0.3-0.9,0.6-1,0.8c-0.1,0.2-0.2,1.1-0.1,2.4c0,1.8,0.1,2.1,0.5,2.8
								c0.8,1.5,1.8,2.1,4.4,2.8c4,1.1,4.8,2,5.1,6.1c0.1,1.2,0.2,2.2,0.2,2.2c0,0,0.4-0.2,0.9-0.5l0.9-0.5v-1.3
								c0-1.6-0.3-3.3-0.8-4.1c-0.7-1.1-1.6-1.7-4.4-2.5c-3.8-1.2-4.6-2.3-4.6-6.9c0-1,0-1.8-0.1-1.8C43.9,16,43.5,16.2,43,16.5z"/>
							<path id="路径_3_" class="st1" d="M39.5,18.9l-1.1,0.9v1.4c0,1.7,0.3,2.8,1.1,3.6c0.8,0.9,1.9,1.4,4.4,2
								c3.1,0.7,4.2,1.4,4.8,2.6c0.4,0.9,0.4,3.3,0.1,4.6c-0.1,0.6-0.2,1.1-0.2,1.2c0.1,0.1,1.8-0.6,1.8-0.7c0-0.1,0.1-0.7,0.2-1.4
								c0.4-2.9-0.5-5.2-2.2-6.1c-0.4-0.2-1.3-0.5-2-0.7c-2.8-0.8-4.4-1.7-5.1-3.1c-0.4-0.8-0.5-1.1-0.5-3c0-1.1-0.1-2.1-0.2-2.1
								C40.6,18,40.1,18.4,39.5,18.9L39.5,18.9z"/>
							<path id="路径_4_" class="st0" d="M35.8,22.5c-1.1,1.2-1.9,2.4-2.6,3.8c-0.7,1.5-0.9,2.5-0.9,4.4c0,1.6,0,1.8,0.4,2.6
								c1.1,2.2,3.7,3.6,7,3.8c2.2,0.1,6.5-0.6,7.1-1.1c0.6-0.5,0.8-4.3,0.3-5.5c-0.6-1.3-2.1-2.3-4.5-3c-3.6-1-4.7-2.1-5.5-5.4
								c-0.1-0.4-0.2-0.7-0.3-0.7C36.8,21.5,36.3,21.9,35.8,22.5L35.8,22.5z"/>
						</g>
					</g>
				</g>
			</g>
		</g>
	</g>
</g>
</svg>
