<?xml version="1.0" encoding="utf-8"?>
<!-- Generator: Adobe Illustrator 21.0.0, SVG Export Plug-In . SVG Version: 6.00 Build 0)  -->
<svg version="1.1" id="图层_1" xmlns="http://www.w3.org/2000/svg" xmlns:xlink="http://www.w3.org/1999/xlink" x="0px" y="0px"
	 viewBox="0 0 96.1 49.9" style="enable-background:new 0 0 96.1 49.9;" xml:space="preserve">
<style type="text/css">
	.st0{fill:#00C1DE;}
</style>
<title>drds</title>
<desc>Created with Sketch.</desc>
<g id="组件库">
	<g id="组件2" transform="translate(-579.000000, -1541.000000)">
		<g id="图标" transform="translate(40.000000, 749.000000)">
			<g id="Component" transform="translate(40.000000, 725.000000)">
				<g id="Iconography" transform="translate(0.000000, 49.000000)">
					<g id="Icon" transform="translate(480.000000, 0.000000)">
						<g id="drds" transform="translate(19.000000, 18.000000)">
							<path id="形状" class="st0" d="M53.9,15L48,11.4L42.2,15v7l5.8,3.6l6-3.6v-7H53.9L53.9,15z M52.3,21L48,23.6L43.8,21v-5
								l4.3-2.6l4.3,2.6V21L52.3,21z M35.3,27.9v7l5.8,3.6l5.8-3.6v-7l-5.8-3.6L35.3,27.9L35.3,27.9z M45.5,28.9v5l-4.3,2.6
								l-4.3-2.6v-5l4.3-2.6L45.5,28.9L45.5,28.9z M54.7,24.3l-5.8,3.6v7l6,3.6l5.8-3.6v-7L54.7,24.3z M59,33.7l-4.1,2.6l-4.3-2.4
								v-4.8l4.3-2.6l4.1,2.4V33.7L59,33.7z"/>
						</g>
					</g>
				</g>
			</g>
		</g>
	</g>
</g>
</svg>
