<?xml version="1.0" encoding="utf-8"?>
<!-- Generator: Adobe Illustrator 24.1.0, SVG Export Plug-In . SVG Version: 6.00 Build 0)  -->
<svg version="1.1" id="图层_1" xmlns="http://www.w3.org/2000/svg" xmlns:xlink="http://www.w3.org/1999/xlink" x="0px" y="0px"
	 viewBox="0 0 96.1 49.9" style="enable-background:new 0 0 96.1 49.9;" xml:space="preserve">
<style type="text/css">
	.st0{fill:#00C1DE;}
	.st1{fill:#FFFFFF;}
</style>
<desc>Created with Sketch.</desc>
<g id="组件库">
	<g id="组件2" transform="translate(-197.000000, -2043.000000)">
		<g id="图标" transform="translate(40.000000, 1101.000000)">
			<g id="Component" transform="translate(40.000000, 725.000000)">
				<g id="Iconography" transform="translate(0.000000, 49.000000)">
					<g id="Icon" transform="translate(96.000000, 148.000000)">
						<g id="文件" transform="translate(21.000000, 20.000000)">
							<path id="形状结合" class="st0" d="M51.4,12.5l6.8,6.8V35c0,1.1-0.9,2-2,2l0,0H39.2c-1.1,0-2-0.9-2-2l0,0V14.4
								c0-1.1,0.9-2,2-2l0,0H51.4z M53.9,31.2H41.7c-0.4,0-0.7,0.3-0.7,0.7s0.3,0.7,0.7,0.7l0,0h12.2c0.4,0,0.7-0.3,0.7-0.7
								S54.3,31.2,53.9,31.2L53.9,31.2z M53.9,26.3H41.7c-0.4,0-0.7,0.3-0.7,0.7c0,0.4,0.3,0.7,0.7,0.7l0,0h12.2
								c0.4,0,0.7-0.3,0.7-0.7C54.6,26.6,54.3,26.3,53.9,26.3L53.9,26.3z M47.5,21.3h-5.9c-0.4,0-0.7,0.3-0.7,0.7
								c0,0.4,0.3,0.7,0.7,0.7l0,0h5.9c0.4,0,0.7-0.3,0.7-0.7C48.3,21.7,47.9,21.3,47.5,21.3L47.5,21.3z"/>
							<path id="路径" class="st1" d="M53.4,19.3h4.9l-6.8-6.8v4.9C51.4,18.4,52.3,19.3,53.4,19.3L53.4,19.3z"/>
						</g>
					</g>
				</g>
			</g>
		</g>
	</g>
</g>
</svg>
