<?xml version="1.0" encoding="utf-8"?>
<!-- Generator: Adobe Illustrator 21.0.0, SVG Export Plug-In . SVG Version: 6.00 Build 0)  -->
<svg version="1.1" id="图层_1" xmlns="http://www.w3.org/2000/svg" xmlns:xlink="http://www.w3.org/1999/xlink" x="0px" y="0px"
	 viewBox="0 0 96.1 49.9" style="enable-background: new 0 0 96.1 49.9;" xml:space="preserve">
<title>ftp</title>
<desc>Created with Sketch.</desc>
<g id="组件库">
	<g id="组件2" transform="translate(-484.000000, -1617.000000)">
		<g id="图标" transform="translate(40.000000, 749.000000)">
			<g id="Component" transform="translate(40.000000, 725.000000)">
				<g id="Iconography" transform="translate(0.000000, 49.000000)">
					<g id="Icon" transform="translate(384.000000, 74.000000)">
						<g id="ftp" transform="translate(20.000000, 20.000000)">
							<path id="形状" fill='#3F9EFF' d="M39.2,13.4h17.7l0,0c1.3,0,2.3,1,2.3,2.3l0,0v9.4l0,0c0,1.3-1,2.3-2.3,2.3l0,0H39.2l0,0
								c-1.3,0-2.3-1-2.3-2.3l0,0v-9.4v0C36.9,14.4,37.9,13.4,39.2,13.4L39.2,13.4L39.2,13.4z M47.6,29.9v-2.5h1.7v2.5h3.3v1.7h5
								v3.3h-5v1.7h-9.1v-1.7h-5v-3.3h5v-1.7H47.6L47.6,29.9z M38.5,15v10.8h19V15L38.5,15L38.5,15z"/>
						</g>
					</g>
				</g>
			</g>
		</g>
	</g>
</g>
</svg>
