<svg class="icon" viewBox="0 0 1024 1024" version="1.1" xmlns="http://www.w3.org/2000/svg" width="96" height="50">
    <path d="M788.48 611.413333L853.333333 810.666667h-39.082666l-14.336-43.861334h-61.952L723.626667 810.666667h-39.082667l64.711111-199.253334h39.253333z m-556.686222 0v76.288h73.386666v-76.288h39.082667v199.111111H305.208889v-86.129777H231.822222v86.101333H192.711111v-199.082667h39.082667z m221.582222 0l64.853333 199.082667h-39.054222l-14.336-43.832889h-61.952l-14.336 43.832889h-39.082667l64.711112-199.082667h39.224888z m109.169778 0l77.568 132.295111v-132.266666h39.082666v199.054222h-39.082666l-77.568-132.266667v132.266667h-39.082667v-199.082667h39.082667z m206.250666 60.074667l-20.252444 62.407111h40.533333l-20.280889-62.407111z m-334.933333 0L413.582222 733.866667h40.533334l-20.252445-62.407111zM568.860444 483.555556c15.672889 0 28.472889 12.8 28.472889 28.444444s-12.8 28.444444-28.444444 28.444444-28.444444-12.8-28.444445-28.444444 12.8-28.444444 28.444445-28.444444z m203.804445-270.222223L473.912889 538.168889H170.666667V213.333333h601.998222z m-203.804445 274.972445a23.836444 23.836444 0 0 0-23.665777 23.694222c0 12.970667 10.695111 23.722667 23.665777 23.722667a23.722667 23.722667 0 0 0 0-47.416889z m0.625778 7.395555c2.872889 0 4.750222 0.227556 5.973334 0.853334a6.968889 6.968889 0 0 1 2.901333 3.072c0.853333 1.564444 1.28 3.356444 1.223111 5.148444 0 2.503111-0.398222 4.551111-1.649778 5.973333a8.618667 8.618667 0 0 1-4.920889 2.901334 15.928889 15.928889 0 0 1 5.347556 8.049778l3.100444 6.172444h-6.200889l-3.697777-7.025778a46.791111 46.791111 0 0 0-2.702223-4.721778 2.759111 2.759111 0 0 0-1.422222-1.223111 5.916444 5.916444 0 0 0-2.474666-0.426666h-1.052445v13.397333h-5.12v-32.142222h10.695111z m-1.934222 4.096l1.393778 0.028445H563.2v9.728h4.096c2.730667 0 4.323556-0.227556 5.006222-0.711111a3.128889 3.128889 0 0 0 1.564445-1.450667 5.489778 5.489778 0 0 0 0.711111-2.929778 5.489778 5.489778 0 0 0-0.682667-2.958222 3.584 3.584 0 0 0-1.820444-1.422222c-0.455111-0.284444-2.048-0.284444-4.551111-0.284445zM220.728889 277.617778c-8.988444 3.271111-22.158222 8.419556-31.573333 22.755555-14.307556 22.186667-7.509333 47.587556-6.656 49.777778 6.257778 21.390222 24.32 31.829333 33.735111 37.432889 25.912889 15.303111 48.469333 10.922667 53.276444 25.770667 0.142222 0.455111 1.991111 6.542222-0.568889 11.690666-6.968889 14.023111-39.253333 6.855111-41.272889 6.4a71.992889 71.992889 0 0 1-21.674666-8.96l-4.949334-3.356444-19.541333 39.822222 3.242667 1.962667a133.12 133.12 0 0 0 58.709333 18.432c11.861333 0.796444 21.703111 1.706667 33.735111-2.304 7.879111-3.043556 15.36-7.310222 22.101333-12.657778l4.949334-4.209778-5.347556 15.303111h53.845334l8.533333-29.184 6.257778 1.877334a93.667556 93.667556 0 0 0 52.081777-0.910223l3.925334-1.28 8.96 29.496889h84.679111v-61.496889h30.691555l4.352-0.170666c33.137778-2.417778 59.448889-32.284444 59.448889-68.636445 0-36.323556-26.168889-66.190222-59.448889-68.636444l-4.352-0.142222h-78.051555v155.676444l-52.679111-155.875555h-49.493334l-44.885333 129.678222-0.910222-4.295111a68.124444 68.124444 0 0 0-11.235556-24.263111c-6.542222-8.106667-14.051556-12.174222-25.031111-18.119112-10.723556-5.916444-16.355556-5.745778-31.004444-12.316444-8.248889-3.726222-15.473778-3.896889-20.110222-10.609778-0.995556-1.251556-4.778667-6.712889-3.328-11.690666 2.161778-7.196444 13.909333-8.590222 19.541333-9.386667 8.988444-1.080889 26.197333-1.393778 48.924444 11.719111 6.229333-12.942222 12.600889-25.742222 18.972445-38.684444-15.075556-7.68-56.604444-26.083556-97.848889-10.609778z m170.496 64.739555l19.114667 62.236445-5.290667 1.251555a68.266667 68.266667 0 0 1-26.766222-0.085333l-5.290667-1.308444 18.232889-62.094223z m150.983111-19.342222c11.264 0 20.423111 9.813333 20.423111 21.987556a23.153778 23.153778 0 0 1-6.030222 15.644444 19.683556 19.683556 0 0 1-11.207111 6.115556l-3.185778 0.227555h-25.315556v-44.003555h25.315556z" fill="#4581E5"></path>
</svg>
