<?xml version="1.0" encoding="UTF-8"?>
<svg width="96px" height="50px" viewBox="0 0 96 50" version="1.1" xmlns="http://www.w3.org/2000/svg" xmlns:xlink="http://www.w3.org/1999/xlink">
    <title>Hbase</title>
    <g id="组件库" stroke="none" stroke-width="1" fill="none" fill-rule="evenodd">
        <g id="图标Iconography" transform="translate(-189.000000, -1317.000000)" fill-rule="nonzero">
            <g id="编组" transform="translate(189.000000, 1317.000000)">
                <g id="Hbase" transform="translate(30.000000, 8.000000)">
                    <path d="M1.04743079,23.5166008 C1.80171738,24.1954587 2.82000428,23.6674581 3.32914773,23.7428868 C3.83829118,23.8183154 4.91314957,23.1017432 5.38457869,23.0451717 C5.85600781,22.9886002 9.85372675,22.6491712 12.0034435,21.6685986 L10.6268705,20.2920256 C10.6268705,20.2920256 10.457156,19.650882 10.8531565,19.3680245 C11.2491569,19.1040242 11.946872,19.1794529 12.4560155,18.9154526 C12.9651589,18.6514523 14.5868751,17.0485933 15.8880195,17.0863076 C17.1703067,17.1051648 18.7731657,18.0103087 19.3200235,18.0103087 C19.8668813,18.0103087 20.526882,16.4074497 25.2600304,16.4074497 C29.9931788,16.4074497 32.1051812,22.1588849 32.1051812,22.1588849 L31.6526093,23.082886 C31.6526093,23.082886 31.3131803,24.2708874 31.6526093,24.459459 C31.9920382,24.6480307 33.0291823,24.0257442 33.7080402,25.1571741 C34.3868982,26.2697468 34.8583273,26.9863191 34.8583273,26.9863191 C34.8583273,26.9863191 35.7823283,24.7046022 35.3108992,23.309172 C34.8394701,21.9137418 33.7080402,21.819456 33.2554683,20.7823119 C32.8028963,19.7451678 31.9731811,13.4657319 27.0891754,9.97715646 C22.2051697,6.48858097 18.0000219,6.96001009 17.4908785,6.50743814 C16.9628779,6.05486618 16.8120206,5.05543645 16.8120206,3.98057806 C16.8120206,2.90571966 17.4908785,0.303430919 17.4908785,0.303430919 C17.4908785,0.303430919 15.2845902,-0.413141343 14.2851605,2.830291 C13.3045879,6.07372335 13.4177309,7.29943906 12.4560155,7.88401117 C10.2497272,9.29829853 8.17543908,10.9011575 6.2897226,12.7114454 C3.76286252,15.1251625 2.29200366,16.5205926 1.72628872,17.9914515 C1.16057378,19.4623104 0.500573008,21.6120271 0.576001668,22.1211706 C0.651430327,22.630314 0.274287031,22.8377429 1.04743079,23.5166008 Z M4.00800566,14.3143044 L6.96858053,11.5611583 L6.74229456,9.73201332 C6.74229456,9.73201332 4.93200674,10.5240142 4.46057762,11.5611583 C3.9891485,12.5983024 4.00800566,14.3143044 4.00800566,14.3143044 Z M11.3245856,19.8394537 C11.3434428,19.8394537 13.0217304,22.0080276 16.9063064,22.0268848 C20.7720252,22.0457419 22.5257415,19.3868817 22.5257415,19.3868817 C22.5257415,19.3868817 19.1314518,18.7268809 18.6411655,18.4628806 C18.1508793,18.1988803 17.6040215,17.4068794 16.3594486,17.5388795 C15.1148757,17.6708797 13.9268743,18.2931661 13.8514457,18.6891666 C13.7571599,19.0851671 11.3245856,19.8394537 11.3245856,19.8394537 L11.3245856,19.8394537 Z M7.66629563,17.7651655 C8.15658192,17.4257366 8.60915387,16.9165931 9.57086928,16.7468786 C10.5514418,16.5771641 11.1737283,16.8223073 11.3245856,17.0863076 C11.4754429,17.3503079 11.0982996,18.0291658 10.4194417,18.6703094 C9.96686974,19.0663099 9.40115479,19.311453 8.79772552,19.3868817 C7.364581,19.650882 7.44000965,19.5754533 7.19486651,19.3868817 C6.96858053,19.1794529 7.17600935,18.1045945 7.66629563,17.7651655 Z M6.76115172,20.0657396 L7.44000965,20.0657396 L7.66629563,20.2920256 L6.76115172,20.5183116 L6.76115172,20.0657396 Z M7.66629563,21.4423127 C8.6468682,21.0840265 9.6651551,19.990311 10.1742986,20.2920256 C10.683442,20.5937402 11.5508716,21.6685986 11.5508716,21.6685986 L5.38457869,22.8188857 C5.38457869,22.8188857 2.00914619,23.6674581 1.91486037,23.3846006 C1.82057454,23.1017432 2.40514665,23.0451717 3.2348619,22.9320287 C4.06457716,22.8377429 3.76286252,22.2908851 5.29029287,22.0457419 C6.79886605,21.819456 6.68572306,21.8005988 7.66629563,21.4423127 L7.66629563,21.4423127 Z M18.6411655,17.5388795 C18.6411655,17.5388795 21.8845979,13.7485894 25.0337444,13.6354464 C28.1828909,13.5223034 30.2383219,16.3885925 30.4080364,17.1617363 C30.4646079,17.4257366 27.9754621,15.5400201 27.3154614,15.3514484 C26.7497464,15.2005911 25.8823168,15.4457343 25.8823168,15.4457343 C25.8823168,15.4457343 27.2400327,15.7474489 27.9943193,16.1811637 C28.7486059,16.6148785 29.4651781,17.6143082 29.4651781,17.6143082 C29.4651781,17.6143082 26.7497464,15.992592 25.0148872,15.9171634 C23.9400289,15.879449 22.8651705,16.0491635 21.8468836,16.3885925 C21.8468836,16.3885925 19.9988814,17.3880222 19.5651666,17.5388795 C19.2445948,17.6143082 18.924023,17.6143082 18.6411655,17.5388795 L18.6411655,17.5388795 Z M27.7680333,24.4217447 C27.7680333,24.4217447 28.2583196,23.0451717 28.9183204,23.2714576 C29.5783211,23.4977436 30.5211794,23.7240296 30.5211794,23.7240296 C30.5211794,23.7240296 31.4263233,23.422315 31.4263233,22.8000285 C31.4451804,22.1777421 30.7474653,20.4994544 30.7474653,20.4994544 C30.7474653,20.4994544 28.1640338,21.4611698 27.7868905,22.5737425 C27.4097472,23.6863153 27.7680333,24.4217447 27.7680333,24.4217447 L27.7680333,24.4217447 Z M28.9183204,21.8948846 C29.8800358,21.140598 30.5211794,20.9708835 30.5211794,20.9708835 C30.709751,21.4045983 30.8606083,21.8571703 30.9737513,22.3097422 C31.0680371,22.8000285 30.8606083,23.2714576 30.5211794,23.2714576 C30.1063217,23.2714576 29.2954637,23.1206003 28.7108915,23.082886 C28.4280341,23.082886 28.1451766,23.2337433 28.0131765,23.4977436 C27.9943193,23.5166008 27.956605,22.6680284 28.9183204,21.8948846 Z" id="形状" fill="#000000"></path>
                    <path d="M30.596608,30.6257519 L30.596608,31.549753 L34.8771844,31.549753 L34.8771844,32.7188972 L30.596608,32.7188972 L30.596608,33.6428983 L35.1034704,33.6428983 L35.1034704,34.7931853 L29.446321,34.7931853 L29.446321,29.4754649 L35.2354706,29.4754649 L35.2354706,30.6257519 L30.596608,30.6257519 L30.596608,30.6257519 Z M23.7891715,31.549753 L27.7114618,31.549753 C27.7114618,31.549753 28.8617489,32.0211821 28.8617489,33.1714692 C28.8617489,34.3028991 27.7114618,34.7931853 27.7114618,34.7931853 L22.7331703,34.7931853 L22.7331703,33.6428983 L27.4663187,33.6428983 C27.730319,33.4543266 27.7680333,33.0960405 27.5794617,32.8320402 L27.4663187,32.7188972 L23.5440284,32.7188972 C23.5440284,32.7188972 22.5068843,32.4171826 22.5068843,31.097181 C22.5068843,29.7771795 23.5440284,29.4754649 23.5440284,29.4754649 L28.6354629,29.4754649 L28.6354629,30.5126089 L23.7703144,30.5126089 C23.6005999,30.6634662 23.5251712,30.8708951 23.5440284,31.097181 C23.5440284,31.4931815 23.7891715,31.549753 23.7891715,31.549753 L23.7891715,31.549753 Z M20.4325962,29.3623219 L16.6045917,29.3623219 C15.5674477,29.3623219 15.2091616,30.6257519 15.2091616,30.6257519 L15.2091616,34.7931853 L16.4914488,34.7931853 L16.4914488,33.0583262 L20.5457392,33.0583262 L20.5457392,34.7931853 L21.8091692,34.7931853 L21.8091692,30.5126089 C21.8091692,30.5126089 21.3377401,29.3623219 20.4325962,29.3623219 Z M20.5457392,30.8520379 L20.5457392,31.776039 L16.4914488,31.776039 L16.4914488,30.8520379 C16.5668774,30.7200377 16.6988776,30.6446091 16.8497349,30.6257519 L20.2063102,30.6257519 C20.3383104,30.6446091 20.4703105,30.7388949 20.5457392,30.8520379 Z M6.21429394,32.7188972 L1.93371753,32.7188972 L1.93371753,34.7931853 L0.764573316,34.7931853 L0.764573316,29.3623219 L1.93371753,29.3623219 L1.93371753,31.549753 L6.21429394,31.549753 L6.21429394,29.3623219 L7.364581,29.3623219 L7.364581,34.7931853 L6.21429394,34.7931853 L6.21429394,32.7188972 Z M14.1343032,32.0777536 C14.3983035,31.7194675 14.5491608,31.2857527 14.5491608,30.8331807 C14.5491608,30.0788941 13.7194455,29.3623219 13.7194455,29.3623219 L8.08115326,29.3623219 L8.08115326,34.7931853 L13.7194455,34.7931853 C14.2474461,34.6046137 14.6057323,34.0954702 14.5868751,33.5297553 C14.5868751,32.5303256 14.1343032,32.0777536 14.1343032,32.0777536 Z M13.3045879,33.7371841 L9.11829732,33.7371841 L9.11829732,32.9074689 L13.2857307,32.9074689 C13.4177309,32.9828975 13.4931596,33.1337548 13.4931596,33.2846122 C13.4931596,33.4731838 13.4177309,33.6240411 13.3045879,33.7371841 Z M13.3045879,31.4554672 L9.11829732,31.4554672 L9.11829732,30.6257519 L13.2857307,30.6257519 C13.4177309,30.7011806 13.4931596,30.8520379 13.4931596,31.0028952 C13.4931596,31.1726097 13.4177309,31.323467 13.3045879,31.4554672 Z" id="形状" fill="#BA160C"></path>
                </g>
            </g>
        </g>
    </g>
</svg>