<?xml version="1.0" encoding="utf-8"?>
<!-- Generator: Adobe Illustrator 21.0.0, SVG Export Plug-In . SVG Version: 6.00 Build 0)  -->
<svg version="1.1" id="图层_1" xmlns="http://www.w3.org/2000/svg" xmlns:xlink="http://www.w3.org/1999/xlink" x="0px" y="0px"
	 viewBox="0 0 96.1 49.9" style="enable-background:new 0 0 96.1 49.9;" xml:space="preserve">
<title>hdfs</title>
<desc>Created with Sketch.</desc>
<g id="组件库">
	<g id="组件2" transform="translate(-382.000000, -1613.000000)">
		<g id="图标" transform="translate(40.000000, 749.000000)">
			<g id="Component" transform="translate(40.000000, 725.000000)">
				<g id="Iconography" transform="translate(0.000000, 49.000000)">
					<g id="Icon" transform="translate(288.000000, 74.000000)">
						<g id="hdfs" transform="translate(14.000000, 16.000000)">
							<path id="形状" d="M61.3,16.2c0.3-0.3,0.7-0.7,1-1.1c0.4-0.5,0.6-1.1,1.4-1c0.7,0.2,1.3,0.6,1.5,1.5
								c0.3,1.3,0.6,2.7,0.8,4.1c0.2,1.9,0,3.8-0.6,5.5c-1.1,2.8-3.4,4-5.9,3.7c-0.7-0.1-1,0-1.2,0.8c-0.4,1.6-2.7,2.9-4.2,1.4
								c-0.3-0.4-0.7-0.7-1.2-1c0.2,0.6,0.4,1.2,0.6,1.9c0.1,0.5,0.2,1,0.3,1.6c0.1,0.7,0.1,1.5,0.3,2.2c0.2,1.4-0.3,2.2-1.6,2.2
								c-1,0-2.1-0.2-3.1-0.2c-0.1,0-0.2,0-0.2,0.1c-0.5,0.6-1.2,1-1.6,1.7c-0.8,1.3-2.3,1.6-3.3,0.4C43.4,39,42.9,38,42.4,37
								c-0.3-0.7-0.3-1.5,0.5-2.1h-1.6c-0.3,0.8-0.6,1.5-0.9,2.2c-0.2,0.5-0.2,1.1-0.3,1.7c-0.2,0.9-0.5,1.2-1.2,1.2
								c-1.5,0.1-2.8-0.4-4.2-1c-0.7-0.3-0.8-0.9-0.6-1.7c0.1-0.3,0.2-0.5,0.2-0.6c-0.8-0.5-1.6-0.8-2.3-1.4
								c-0.8-0.7-1.4-1.6-1.5-2.8c0-0.4,0.1-0.8,0.3-1.1c0.2-0.4,0.6-0.7,0.9-1c0.5-0.6,0.7-1.3,0.6-2.1c-0.1-1.2,0-2.3,0-3.3
								c-0.6-0.3-1.2-0.4-1.5-0.9c-0.4-0.7-0.8-1.6-0.9-2.5c-0.1-1.2,1.4-2.7,2.8-3c0.1,1.1,0.2,2.1,0.2,3.1c-0.1,0-0.1,0-0.2,0
								l-0.4-0.4c-0.1,0.4-0.2,0.8-0.3,1.2c0,0.1,0.1,0.1,0.1,0.2c0.4-0.4,1-0.8,1.2-1.3c1.7-3.4,4.5-5,7.8-5.6
								c0.6-0.1,1.1-0.4,1.5-0.9c0.6-0.6,1.1-1.3,2-1.4c0.2,0,0.4-0.4,0.6-0.6c2.1-2.8,4.8-3.8,7.9-3.4c1.2,0.2,2.2,1,3.2,1.9
								c0.9,0.8,1.9,1.5,2.8,2.4C60,14.4,60.6,15.3,61.3,16.2z M45.3,34.7c-0.3,0.1-0.5,0.1-0.7,0.2c-0.3,0.2-0.6,0.4-1,0.6
								c-0.5,0.3-0.6,0.7-0.3,1.1c0.4,0.8,0.8,1.7,1.4,2.4c0.5,0.7,1.3,0.6,1.9-0.2c0.3-0.4,0.6-0.7,0.9-1c0.7-0.7,1.6-1.3,2.2-2.1
								c1.3-1.7,1.9-3.8,2.4-6c0.1-0.4,0-0.6-0.4-0.9c-0.4-0.3-0.8-0.7-1.2-1c0-0.1,0.1-0.1,0.1-0.2c1.1,0.8,2.5,1.1,3.4,2.3
								c0.3,0.4,0.7,0.7,1.1,0.9c1.2,0.5,2.5-0.6,2.6-2.5c-0.4,0.9-0.7,2.1-2,1.8c0.2,0,0.4,0.1,0.7,0.1c-0.9,0.6-1.8,0.1-1.7-0.9
								c0.1-0.9,0.3-1.9,0.4-2.6c1.4,0.4,2.8,0.9,4.2,1.1c2.4,0.5,4.4-0.8,5.4-3.4c0.7-2,0.7-4.2,0.4-6.3c-0.1-0.9-0.4-1.9-0.7-2.7
								c-0.3-0.8-0.7-0.7-1.2-0.1c-0.4,0.5-0.9,1-1.4,1.4c-0.8,0.5-0.9,0.5-0.7,1.6c0.2,1.3-0.1,2.6-0.6,3.8c0.1-1,0.1-2,0.2-3.1
								c-1.2,0.1-1.1,1.3-1.5,2.1c-0.1,0-0.1,0-0.2-0.1c0.2-0.7,0.3-1.5,0.5-2.2c-0.2,0.1-0.5,0.3-0.8,0.5c-0.2,0.3-0.4,0.6-0.6,0.9
								c-0.1,0-0.1-0.1-0.2-0.1c0.3-0.5,0.5-1.1,0.9-1.4c0.4-0.3,1-0.3,1.6-0.4c-0.2-0.7-0.9-0.2-1.3-0.5c0.2-0.1,0.4-0.2,0.6-0.3
								c0-0.1,0-0.2,0-0.2c-0.3-0.1-0.5-0.1-0.8-0.2c0-0.1-0.1-0.3-0.2-0.5c0.3-0.1,0.6-0.3,0.8-0.4c0.3-0.1,0.6-0.1,0.9-0.1
								c-0.6-1.5-1.3-2.2-2.6-2.5c0-0.7-2.5-2.9-3.8-3.4c-2.5-0.8-6.5,0.8-7.7,3.2h1.5c-0.7,0.3-1.4,0.4-2,0.5
								c-0.7,0.1-1.3,0.4-1.8,1c-1,1.3-2.1,2.6-3.1,3.9c-0.7,1-1.2,2-1.8,3.1c-0.2,0.4-0.1,1,0.1,1.4c0.4,0.8,0.9,1.4,1.3,2.1
								c0.5-0.7,1-1.3,1.5-2c0,0.3,0,0.4-0.1,0.6c-0.4,0.9-0.9,1.7-1.3,2.6c-0.4,0.9-0.3,1.3,0.4,2c0.8,0.8,1.7,0.9,2.7,0.4
								c1.1-0.6,2.1-1.3,3.2-1.7c0.8-0.3,1.2-0.8,1.2-1.6c0-1.4-0.1-2.8-0.2-4.1c-0.1-1.1-0.2-2.3,0.2-3.4c0.1,0.1,0.1,0.3,0.1,0.4
								c0.2,1.4,0.3,2.7,0.5,4.1c0.2,1.5,0.2,3.1-0.3,4.5C48.2,27.7,48,28,47.8,28c-1.3,0.2-2.5,1-3.6,1.7c-1.9,1.1-2.9,0.9-4.4-0.8
								c-0.3-0.4-0.5-0.7-0.3-1.2c0.3-0.9,0.1-1.7-0.5-2.5c-0.3-0.4-0.5-0.7-0.7-1.1c-0.4-0.7-0.5-1.4-0.1-2.1
								c0.5-0.9,0.9-1.9,1.5-2.8c0.5-0.8,1.2-1.6,1.8-2.4c-0.7,0-1.4,0.2-2.1,0.4c-3.7,1.2-6.4,5.3-6.2,9.6c0.1,2.3,0.7,4.4,1.8,6.2
								c0.7,1.2,0.7,2.4,0.3,3.6c-0.1,0.2-0.1,0.4-0.2,0.6c-0.2,0.6,0,1,0.5,1.2c1,0.3,2,0.5,3,0.7c0.5,0.1,0.7-0.2,0.8-0.8
								c0.1-0.7,0.4-1.3,0.6-2c0.2-0.6,0.3-1.2,0.4-1.8c0.1-0.6,0-1.2,0-1.8c0.1,0,0.1,0,0.2,0c0,0.1,0.1,0.2,0.1,0.3
								c0,0.8,0.4,0.9,1,0.9c0.6,0,1.3,0,2,0c0.8,0,1.5-0.1,1.7-1.2c0,0,0.1,0,0.1-0.1C45.3,33.4,45.3,34.1,45.3,34.7z M33,30.6
								c-0.4,0.3-0.9,0.7-1.3,1.2c-0.2,0.2-0.3,0.5-0.3,0.8c0.1,1.1,1.6,2.7,2.6,2.7c0.2,0,0.5-0.2,0.6-0.4c0.1-0.1,0.1-0.5,0-0.6
								C34.1,33,33.5,31.7,33,30.6z M50,37c0.7,0,1.5,0,2.3,0c0.6,0,0.9-0.4,0.8-1.1c-0.1-0.8-0.1-1.6-0.2-2.4
								c-0.1-0.7-0.2-1.3-0.4-2C51.6,33.3,50.9,35.1,50,37L50,37z M33,22.9c-0.3,0.1-0.5,0.3-0.8,0.4c-0.2,0-0.5-0.1-0.6-0.2
								c-0.1-0.2-0.2-0.5-0.2-0.8c0.2-0.9,0.4-1.7,0.6-2.7c-1.4,1.1-1.5,1.6-1,3.1c0,0.1,0,0.2,0.1,0.3c0.2,0.5,0.3,0.9,0.9,0.9
								C32.5,23.9,32.9,23.7,33,22.9z"/>
							<path id="形状_1_" d="M56.1,18.7c-0.9,0.6-1.7,1.3-2.6,1.9c0,0-0.1-0.1-0.1-0.1c0.3-0.4,0.6-0.7,0.9-1.1
								c-0.5-0.5-0.6-0.4-0.9,0.3c-0.1-0.2-0.3-0.3-0.4-0.5c-0.1,0.1-0.3,0.1-0.5,0.2c0-0.1-0.1-0.1-0.1-0.1
								c0.8-1.4,1.4-1.9,2.5-1.9C55,18.1,55.5,18.7,56.1,18.7L56.1,18.7z M45,16.2l-1.5,3.2c0,0-0.1,0-0.1-0.1
								c0.3-0.9,0.6-1.9,0.9-2.8c0.3-0.8,0.9-1.2,1.7-1.3c0.5,0,1-0.1,1.5-0.1c-1.3,0.3-2.1,1.1-2.5,2.5v-1.4
								C45.1,16.2,45.1,16.2,45,16.2z M52.8,15.1c-0.4,0.4-0.7,0.6-0.9,1c-0.2,0.3-0.4,0.7-0.6,1.1C51,16.1,51.6,15.4,52.8,15.1z
								 M54.1,27.1c-0.1-1,0.1-1.3,0.8-1.3c-0.3,0.2-0.7,0.6-1.1,1C53.9,26.9,54,27,54.1,27.1z"/>
						</g>
					</g>
				</g>
			</g>
		</g>
	</g>
</g>
</svg>
