<?xml version="1.0" encoding="UTF-8"?>
<svg width="96px" height="50px" viewBox="0 0 96 50" version="1.1" xmlns="http://www.w3.org/2000/svg" xmlns:xlink="http://www.w3.org/1999/xlink">
    <!-- Generator: Sketch 57.1 (83088) - https://sketch.com -->
    <title>hive</title>
    <desc>Created with Sketch.</desc>
    <g id="组件库" stroke="none" stroke-width="1" fill="none" fill-rule="evenodd">
        <g id="图标Iconography" transform="translate(-1065.000000, -1252.000000)" fill-rule="nonzero">
            <g id="hive" transform="translate(1065.000000, 1252.000000)">
                <path d="M38.1365706,8.92160659 C38.2466627,8.81568466 38.4067968,8.85738612 38.5427455,8.86572654 C40.2041373,9.05671967 41.8480129,9.44871629 43.3976314,10.0817446 C43.8079762,10.2327042 44.1507629,10.5137721 44.5544345,10.6797439 C45.3050627,11.0325404 46.0456846,11.4078528 46.7704569,11.8106911 C47.3959821,12.2277057 48.0365169,12.6238709 48.7179204,12.9449749 C49.4351863,12.468742 49.9489514,11.7064375 50.7713075,11.3870034 C51.3175983,11.193508 51.8964149,11.0375436 52.4810713,11.0925903 C53.1266125,11.1409642 53.8163559,11.1668191 54.3776596,11.5296243 C55.3242855,12.0550657 55.984003,12.9424733 56.5895121,13.814038 C57.0465622,14.4712556 57.3810091,15.1993645 57.7538217,15.9041207 C57.8730882,16.1451557 58.0082013,16.4045395 57.9656658,16.6831048 C57.3693331,17.9800239 56.9414755,19.3686869 56.7771703,20.7890325 C56.9539849,21.0550884 57.2492333,21.2143901 57.4460642,21.4654328 C57.7571582,21.8699378 57.8422294,22.3887061 58.0849324,22.8299099 C58.3551585,23.3386685 58.6328898,23.8432572 58.8839359,24.3628588 C59.177515,24.8816271 59.1032862,25.5096522 59.0340615,26.0767924 C59.8364016,26.0701202 60.4752697,25.5046457 61.2409108,25.3578566 C61.6087201,25.3628608 61.8022145,25.759025 62.0007121,26.0167408 C62.2033819,26.2561079 62.1133065,26.5813811 62.0841154,26.8624496 C61.8997944,27.9658743 61.5603439,29.0409398 61.1108003,30.0651301 C60.7146351,30.9742237 60.2092131,31.8424519 59.5636718,32.5980833 C58.9131273,33.1969193 58.026553,33.4980039 57.1524851,33.5422059 C56.0582368,33.5905799 54.9539788,33.2569672 54.0657346,32.6172661 C53.7955085,33.0017549 53.5035976,33.4162696 53.0423776,33.5822414 C52.4268622,33.8007577 51.7512951,33.6656447 51.1441227,33.4863279 C50.5661394,33.1969189 50.4460396,32.5096762 50.1549614,31.9984144 C49.6795618,32.0809836 49.2075022,31.964219 48.7337726,31.9575469 C48.5436134,31.9517086 48.4618781,32.1543782 48.351787,32.2719768 C48.7279361,32.8140977 49.0390304,33.4354497 49.5986642,33.8149353 C50.0156787,34.0951699 50.4702256,34.3462133 50.9781508,34.4037616 C50.294244,34.5038454 49.6120071,34.2920015 49.0031648,33.9975867 C48.627849,33.8157677 48.340944,33.5096775 48.030683,33.2402854 C48.0223427,33.2344471 48.0073301,33.2211026 47.9998238,33.2152644 L47.9989898,33.2436215 C47.9539521,33.8799863 48.1240945,34.5188545 48.4351872,35.0718184 C48.6595417,35.2002594 48.9197598,35.247799 49.1607961,35.3387087 C49.6904074,35.5438804 50.2675573,35.4696516 50.820518,35.4596432 C50.2425347,35.8566417 49.4919065,35.7290354 48.830519,35.7282014 C49.0240144,36.0943408 49.1899853,36.4738264 49.3501206,36.8549787 C49.5027485,37.2628202 50.039864,37.1076904 50.371811,37.2177815 C50.0940784,37.3237035 49.7888212,37.3353801 49.5227656,37.4729951 C49.6612149,37.9642409 50.2183488,38.0267924 50.647873,38.0659913 C52.0965843,38.1510625 53.5461323,38.033464 54.9923536,37.9650735 C53.368494,38.5055245 51.7563108,39.0826745 50.1224547,39.5947729 C49.4035189,39.8232976 48.6387111,39.8608289 47.8922527,39.7799279 C45.4552134,39.2077811 43.1449372,37.9592373 41.4543661,36.0960147 C40.951444,35.5363809 40.5577821,34.8875031 40.2391814,34.2069328 C39.3242479,32.1760651 38.941429,29.8975044 39.230004,27.6848219 C39.3918063,26.4512876 39.9172474,25.288648 40.640353,24.2844672 C40.7329307,24.1668686 40.848861,24.0676188 40.9781366,23.99339 C41.0773864,23.9692031 41.1808064,23.8799616 41.1441088,23.7673675 C41.0923989,23.7832141 40.9906469,23.8157415 40.939771,23.831588 C40.7120803,23.9425141 40.4668747,24.0117388 40.2258384,24.0868016 C39.3050684,24.362032 38.3559393,24.6097398 37.3867941,24.5772107 C36.802971,24.5538578 36.2183147,24.5213307 35.6369949,24.452106 C35.4418315,24.4170767 35.1807781,24.4104046 35.125733,24.1735394 C34.7479173,23.2736189 34.4818617,22.3111468 33.9105483,21.5063068 C33.3317317,20.6614313 32.5202186,20.0192299 31.8588311,19.2452457 C31.1532416,18.395367 30.5127035,17.3928628 30.4743379,16.2552424 C30.4192919,15.3611617 30.850487,14.5454787 31.2174597,13.7598182 C31.493524,13.258566 31.7337248,12.6430506 32.3042015,12.4128572 C32.5802659,12.2852503 32.849659,12.4829159 33.127391,12.4904223 C33.7379033,12.508771 34.402624,12.4804139 34.9172224,12.1117733 C35.6703539,11.5629792 36.1949587,10.777322 36.8379967,10.1167711 C37.2525114,9.70058988 37.6511765,9.25771939 38.1365824,8.92160249 L38.1365706,8.92160659 Z M37.8405013,9.81318329 C37.4852049,10.1526334 37.1916235,10.5521352 36.8963787,10.9441305 C36.4143093,11.6138577 35.8379927,12.2293732 35.1273967,12.6589007 C34.9839432,12.7114449 35.0715166,12.8365496 35.162426,12.8840892 C36.7137243,13.3002705 38.0398359,14.246063 39.446855,14.9816784 C38.3033981,14.4579069 37.1557714,13.9391386 35.973949,13.5054412 C34.8655212,13.1251222 33.6853654,13.0800835 32.5260756,13.0383847 C31.8596849,13.7022755 31.3350768,14.5221284 31.085704,15.4337219 C30.9322422,16.4904413 31.2208171,17.5971992 31.8221527,18.4754337 C32.4234886,19.3870306 33.2333351,20.1293191 33.996473,20.9016333 C34.2408442,21.1651874 34.4843821,21.441251 34.628668,21.7748647 C34.9606117,22.5329994 35.0848847,23.3803748 35.5427681,24.0834644 C36.130761,24.1151576 36.7195873,24.0951408 37.3067436,24.1385105 C37.8079958,24.1643654 38.3184243,24.2410965 38.8146732,24.1218298 C39.5744745,23.9199943 40.3242694,23.6822959 41.0757343,23.4504359 C43.0407139,22.5938841 45.1399631,22.1101481 47.2292357,21.6639411 C46.9339886,22.6981411 46.8455801,23.7865528 46.9831965,24.8541119 C47.0607616,25.3011522 46.969018,25.8432732 47.3376595,26.18189 C47.9331589,26.7657131 48.758015,27.0192591 49.5411723,27.2427793 C49.2559335,27.7106723 48.9848718,28.2119245 48.9373331,28.7673884 C48.8972996,29.354548 49.1917127,29.9116785 49.5945507,30.3203567 C49.7830419,30.5255284 50.0340846,30.6789896 50.1658608,30.9325356 C50.380207,31.3337039 50.6154045,31.7240326 50.7872128,32.1460504 C51.0274139,32.6739917 51.5261647,33.1702407 52.1425135,33.1543945 C52.7922247,33.1894238 53.3910573,32.8166109 53.8222548,32.3595609 C53.7029882,32.2586431 53.6337636,31.9742387 53.4402692,32.0534714 C53.1783831,32.2561412 53.1225031,32.6239482 52.8372634,32.804933 C52.3860531,32.832456 51.9631987,32.6631474 51.5770399,32.4479666 C51.7580247,32.6839975 52.0415964,32.7974265 52.2534403,32.9992607 C52.1174932,32.9950905 51.9807119,32.9925884 51.8455988,32.9767418 C51.5236625,32.955057 51.3968885,32.6005927 51.288465,32.3470468 C51.1925514,32.1035095 51.4077315,31.9191892 51.5336702,31.739871 C51.88313,31.2886608 52.2517727,30.8074247 52.3343403,30.2261049 C52.7046496,30.6873249 53.0732922,31.1568846 53.5403487,31.5255272 C53.8906418,31.8591409 54.275964,32.1560556 54.7163345,32.3612263 C55.5111681,32.8483022 56.4627972,33.1744061 57.40025,32.9967579 C58.1675578,32.9709029 58.8281119,32.4854961 59.3235276,31.9342021 C59.9332032,31.2394522 60.3885867,30.4279424 60.813941,29.6122594 C61.170074,28.7882366 61.4386296,27.9175085 61.5437198,27.0242578 C61.5654047,26.6247561 61.6046041,26.0667889 61.1634009,25.8741278 C60.6329563,25.9149953 60.2643136,26.37288 59.7413755,26.4329283 C59.3827425,26.4554471 59.023273,26.4279241 58.6654733,26.4471069 C58.4628035,27.0059073 58.2592985,27.5655444 58.0149289,28.1076653 C57.7196818,28.476308 57.3802306,28.8115883 57.0699696,29.1693879 C57.1984106,28.9700543 57.3460339,28.7840657 57.4744746,28.5847315 C57.7196798,28.2185921 57.8589634,27.7957377 58.0557944,27.4045757 C57.8439505,27.2511139 57.5612121,27.2619562 57.3160092,27.2969855 C56.7672151,27.5747181 56.4669638,28.1260115 56.0816416,28.5747218 C56.3510338,28.1335179 56.5945701,27.6739679 56.9039978,27.25862 C57.0074178,27.0809711 57.228436,27.0859753 57.4035833,27.0367674 C57.183399,26.9575344 56.9456999,26.9533642 56.7205098,26.8933139 C56.2701328,26.9950656 55.9790546,27.3728833 55.653784,27.6672948 C55.8322669,27.383724 56.0290998,27.1118309 56.2409437,26.8532784 C56.3293511,26.7615351 56.4160902,26.6155793 56.5670499,26.6489407 C56.9682182,26.6681234 57.3610468,26.764037 57.7505422,26.8549464 C57.7563804,26.9041543 57.7663888,27.0034041 57.771393,27.0534459 C57.8564642,27.0909775 57.9415354,27.1301767 58.0274406,27.1685423 C58.0991672,27.005072 58.1650559,26.8390998 58.2175997,26.6672901 C57.909842,26.6264227 57.6312767,26.4854711 57.3468716,26.3703748 C57.4911591,26.3670386 57.6354466,26.3553622 57.7788991,26.3428517 C57.7980818,26.1818837 57.9548797,25.930007 57.7396996,25.8407663 C57.6112586,25.7982308 57.4803158,25.7657034 57.3485376,25.7356783 L57.4519576,25.643935 C57.4444513,25.5988973 57.4286047,25.5096559 57.4210984,25.4646182 C57.7171798,25.4996475 58.0441204,25.4379291 58.3093427,25.6097396 C58.3952478,25.698981 58.4169329,25.827422 58.4694767,25.9366801 C58.6496275,25.7940606 58.5895772,25.5471881 58.5728967,25.3495205 C58.5361994,25.1118214 58.5603862,24.8541049 58.424439,24.642261 C58.1792338,24.2360862 57.9673889,23.8123985 57.7622182,23.3853742 C57.6162628,23.4053909 57.5236851,23.353681 57.4844856,23.2319123 C57.5403656,23.2310783 57.6521261,23.2294102 57.7080061,23.2294102 C57.4719753,22.844088 57.3185141,22.4162304 57.1441991,22.0017158 C57.0224303,21.7273194 57.034941,21.3720207 56.7630469,21.1868661 C56.7555406,21.3803615 56.7547065,21.5730216 56.7472003,21.7665193 C56.4677997,21.1768597 56.320176,20.488783 56.4077501,19.8332354 C56.7021632,18.7456569 57.2417826,17.7264698 57.3827318,16.5996958 C57.4703053,16.0192093 57.125016,15.5137873 56.8514539,15.0367211 L56.8514545,15.0367222 C56.1563641,13.8814766 55.3147987,12.8209676 54.3476938,11.8815837 C54.0966504,11.6105235 53.7054891,11.604685 53.387725,11.4553927 C53.4319287,11.6105225 53.5336804,11.7356272 53.6379344,11.8548944 C53.0858071,11.7281218 52.5712087,11.410354 51.9848823,11.4637325 C50.8697814,11.4937576 49.9798705,12.2652359 49.2667745,13.0458899 C49.1867075,13.1301271 49.3460075,13.1926796 49.3968834,13.2385513 C50.2042266,13.7206207 50.9882172,14.250232 51.6896369,14.879927 C51.8280862,15.0175424 52.007403,15.1409788 52.054943,15.3419803 C52.319331,16.3970297 52.5295059,17.4662587 52.8072411,18.5179715 C52.8889761,19.0901182 53.4369362,19.4120523 53.9006561,19.660595 C53.5870602,19.6964583 53.2951503,19.5413285 53.0007355,19.4587596 C53.0549476,19.8332387 53.0791346,20.2193975 53.2084095,20.5788637 C53.170044,20.5071372 53.1350146,20.4337423 53.088309,20.3678539 C52.6938104,18.7506674 52.2426002,17.1293078 51.5069849,15.6297312 C50.8539371,14.8615868 50.0349176,14.2460713 49.1875421,13.707287 C48.7146459,13.4679199 48.2467561,13.2168779 47.7738598,12.9758415 C46.1424938,12.1684983 44.5978686,11.1810069 42.8972812,10.5146129 L42.8972814,10.514613 C41.6895337,10.0259995 40.4321938,9.67027654 39.1474636,9.45372379 C38.6829071,9.3636484 38.2333635,9.59217311 37.8405349,9.81319004 L37.8405013,9.81318329 Z M41.7738142,23.6881475 C41.5002518,23.8240946 41.2241869,23.9717183 40.9956635,24.1777234 C41.009842,24.5346897 41.0940793,24.8874828 41.1791505,25.2344427 C41.4368663,26.8741485 42.2417063,28.4804952 43.5961737,29.4880192 C44.941468,30.4705074 46.2992687,31.4646752 47.8088781,32.1819411 C47.9006215,32.0193048 47.961506,31.8416576 48.0332326,31.6698459 C47.1808507,31.2928635 46.6562459,30.4655042 46.2133754,29.6848502 C45.0157068,27.6097803 43.8830897,25.4629859 43.2542312,23.1377067 C42.746306,23.276156 42.2308742,23.4204435 41.7738242,23.6881674 L41.7738142,23.6881475 Z M39.4460417,27.2770013 C39.3859914,27.8016147 39.2934138,28.3237196 39.3142645,28.8541642 C39.3342813,29.378769 39.2658906,29.9250598 39.4135143,30.434655 C39.8789041,30.8216471 40.3217746,31.2361584 40.7888311,31.6214806 C42.2141897,32.9092266 44.0649061,33.5781172 45.8947697,34.0601898 C46.3518197,34.1636098 46.8013634,34.3154034 47.2717564,34.352101 C47.2700883,33.8508489 47.3468192,33.343757 47.5428169,32.8800337 C47.1358087,32.7932946 46.7212974,32.7440867 46.3192924,32.6339945 C44.1049399,32.0593479 42.1107545,30.7449127 40.6212042,29.0192928 C40.2625712,28.5655793 39.9039383,28.1026927 39.6587321,27.5755847 C39.5986818,27.4696627 39.5736609,27.323707 39.4460539,27.2770013 L39.4460417,27.2770013 Z M40.0673927,33.3887708 C40.3893422,34.0918604 40.6779182,34.8174661 41.1182854,35.4580041 C41.2625729,35.669848 41.4302134,35.8850284 41.6770859,35.9826089 C42.3167873,36.2870304 42.9673318,36.5889513 43.6570785,36.7590931 C44.4794346,37.0526722 45.3576691,37.1661013 46.2250606,37.2386625 C47.017391,37.2561771 47.8305708,37.2670196 48.6020517,37.0860346 C48.3209832,36.6598436 48.0324082,36.2361559 47.7855354,35.7891155 C45.5520001,35.7699328 43.3893694,35.06184 41.391001,34.1077076 C40.9481305,33.8725108 40.4994202,33.6456544 40.0673927,33.3887708 L40.0673927,33.3887708 Z M45.2775948,38.5330694 C45.146652,38.5330694 45.0157088,38.5372395 44.8847662,38.5439117 C45.9631683,39.2061325 47.2117154,39.5964612 48.4769486,39.6590127 C48.8756171,39.6640169 49.3076445,39.6765274 49.6596044,39.4588452 C49.7847091,39.3587614 49.8697803,39.1861168 49.8205723,39.0268177 C49.7163184,38.6106365 49.3535159,38.3362411 49.1691946,37.9592587 C47.9615163,38.5464183 46.5861995,38.4988764 45.277614,38.533072 L45.2775948,38.5330694 Z" id="形状" fill="#020202"></path>
                <path d="M53.6479006,12.8899361 C53.7546565,12.9591627 53.8497364,13.0467359 53.9247992,13.1509898 C54.3259676,13.6864377 54.6879371,14.2519113 55.0057046,14.8415708 C55.1199669,15.0467425 55.1399837,15.283608 55.1850214,15.5096314 C55.2884414,16.0901179 55.4769326,16.6555915 55.5219716,17.2460844 C55.5019548,17.1760258 55.483606,17.1068011 55.4652575,17.0367425 C55.1600021,16.0459145 54.9273065,14.973349 54.2067041,14.1851885 C53.8672539,13.834062 53.7546605,13.3494894 53.6479006,12.8899361 L53.6479006,12.8899361 Z M44.3826295,16.2093752 C44.973959,16.204371 45.5644518,16.2260558 46.154948,16.2318941 C47.0156697,16.2535789 47.8855645,16.2861061 48.7254335,16.4946141 C48.8947419,16.5213031 49.0231828,16.6422378 49.1282718,16.7698445 C49.9389516,17.7173036 50.1591352,18.9825303 50.6812401,20.0817751 L50.5945009,20.0384054 C50.225025,19.5680124 49.9589693,19.0283947 49.6120127,18.5429854 C49.4193513,18.2794314 49.1966648,18.0092043 48.8855705,17.8866012 C48.224183,17.777343 47.5394429,17.569669 46.8755554,17.7815132 C47.2750572,17.5571587 47.672889,17.258575 48.144952,17.2310525 C48.3643023,17.2060316 48.6603837,17.4095353 48.8055061,17.1651641 C48.4635527,16.9950217 48.1082563,16.8490662 47.7346105,16.7656623 C46.6303525,16.5062785 45.4935688,16.4337186 44.3826295,16.2093618 L44.3826295,16.2093752 Z M52.6670691,22.7648518 C53.1558116,22.6814486 53.6570638,22.6631001 54.1499761,22.7289885 C53.8196997,22.8065536 53.4719091,22.8090555 53.1574783,22.9450026 C52.8255345,23.0809497 52.5628122,23.332828 52.3317856,23.5988836 C52.4051804,23.3111427 52.4577242,22.9900413 52.6670658,22.7648512 L52.6670691,22.7648518 Z M52.3518023,25.2744524 C53.0607314,24.7273282 54.0557325,24.4787855 54.9081111,24.8199056 C54.7955167,24.8457605 54.6829227,24.8691135 54.5703276,24.8916321 C54.6453904,25.1852113 54.7246235,25.4829617 54.6862579,25.7890495 C54.9064422,25.8199086 55.1257918,25.8699504 55.3242927,25.9733704 C54.8755824,25.9550217 54.4343819,26.0475993 53.9873415,26.045097 C53.7671572,26.044263 53.5486409,26.0792924 53.3418002,26.1568571 C53.3559788,26.103479 53.3835017,25.9967231 53.3968463,25.943345 L53.4293735,25.8983073 C53.5553122,25.9008094 53.6812512,25.9024774 53.8080226,25.9049795 C53.7896739,25.7398413 53.8447198,25.5154875 53.6687393,25.4179037 C53.5269537,25.3586874 53.3593136,25.3628576 53.2166957,25.4187377 C53.0265365,25.5413405 53.1433008,25.8040599 53.1199482,25.9892145 L53.1574797,26.0259118 C53.190007,26.0609411 53.2558956,26.1293318 53.2884226,26.1643611 C53.0990974,26.2169052 52.9122735,26.2769555 52.7246157,26.3345037 L52.7246154,26.3345037 C52.8317685,26.2415001 52.9416298,26.1516641 53.0540579,26.0651115 C53.0131904,25.7790388 52.9506379,25.4963013 52.9431318,25.206893 C52.7463005,25.2360842 52.5494698,25.2594372 52.3518023,25.2744498 L52.3518023,25.2744524 Z M59.6487338,26.8232475 C60.1950246,26.8407621 60.6954434,26.598059 61.1624999,26.3445147 C60.9448175,26.6948078 60.5311382,26.8466001 60.1608289,26.9792129 C59.7096186,27.1418492 59.1608246,26.9908894 58.8805894,26.5955574 C59.134135,26.6789606 59.3693319,26.8482691 59.6487338,26.8232481 L59.6487338,26.8232475 Z M51.4443518,30.4946636 C51.5094063,30.1977455 51.6495235,29.8541262 51.9631201,29.7540424 C52.1207522,29.7640508 52.3409358,29.7014983 52.4360164,29.872475 C52.0164986,29.9175127 51.759616,30.2628003 51.4443518,30.4946636 L51.4443518,30.4946636 Z M52.0556974,34.3328696 C52.5636227,34.3312016 53.0707146,34.3320356 53.5786399,34.3320356 C53.5786399,35.1927573 53.5744698,36.0543123 53.581142,36.9150307 C53.7629611,36.9133626 53.9456148,36.9133626 54.1290995,36.9150307 C54.1332696,36.0534757 54.1324356,35.1919207 54.1299335,34.3303657 C54.6411953,34.3345358 55.1532905,34.3286976 55.6653856,34.3345358 L55.6570453,34.4721511 C55.194992,34.4746532 54.7329388,34.4729852 54.2708855,34.4779893 C54.2733876,35.2970089 54.2608771,36.1151919 54.2750556,36.9342114 C54.28423,36.1193618 54.2750556,35.3053487 54.2817279,34.4913323 C54.7412779,34.4796559 55.2016646,34.4863281 55.6612146,34.482992 C55.6603805,35.4688167 55.6578785,36.4538082 55.6628826,37.4396329 C55.6670528,37.5622357 55.6445339,37.6831702 55.617011,37.8024357 C55.0698868,37.7690744 54.5244293,37.8332949 53.9773052,37.8441372 C53.3376037,37.895013 52.695399,37.8683241 52.054861,37.895013 C52.0573631,36.7073508 52.055695,35.5196919 52.055695,34.3328564 L52.0556974,34.3328696 Z M56.3034209,34.3328696 C56.7921634,34.3320356 57.2800725,34.3362058 57.768815,34.3303675 C57.7596407,36.5830856 57.7746533,38.8366501 57.7613088,41.0902047 C57.2784061,41.070188 56.7955001,41.0776943 56.3134307,41.0843665 C56.2917459,38.8341484 56.3109286,36.583937 56.3034224,34.3328955 L56.3034209,34.3328696 Z M58.2675629,34.3295335 C58.7905021,34.3345377 59.3142736,34.3312016 59.838045,34.3312016 C59.9931749,35.2836673 60.1157776,36.2411329 60.2675629,37.1944319 C60.2667385,37.3153664 60.412694,37.4529817 60.5294586,37.3820891 C60.6462229,37.3420556 60.6512274,37.1986021 60.6779163,37.0976844 C60.7996851,36.1744111 60.9581509,35.2569777 61.0682417,34.3328679 C61.5861767,34.3286977 62.1049416,34.336204 62.6237099,34.3278637 C62.1975189,36.5780818 61.7729979,38.8274665 61.3526468,41.078508 C60.7538108,41.0843462 60.1549782,41.0643294 59.5569755,41.0893504 C59.0982588,38.8424689 58.7037603,36.5814144 58.2675629,34.3295132 L58.2675629,34.3295335 Z M63.2100438,34.3295335 C64.2367407,34.3303675 65.2634342,34.3395419 66.2901245,34.3245293 C66.3026349,34.8658169 66.2826182,35.4071013 66.3018009,35.9483889 C65.6846188,35.9709077 65.0674334,35.9442187 64.4510846,35.9634014 C64.4569229,36.2553126 64.4569229,36.5480578 64.4494166,36.8399694 C64.7454976,36.8533139 65.0415794,36.8508118 65.3384941,36.8499777 C65.3226475,37.3912654 65.3710213,37.9350529 65.3109711,38.4746706 C65.0248984,38.4613261 64.7388244,38.4629942 64.453586,38.4679984 C64.456088,38.7882664 64.456088,39.1085331 64.4519179,39.4296371 C65.0682667,39.4329733 65.6837822,39.4354754 66.2992977,39.4738409 C66.2901233,40.010122 66.2926254,40.5464064 66.2976296,41.0826875 C65.2717694,41.0801854 64.2459124,41.0660069 63.2200522,41.0893598 C63.2008695,38.8366418 63.2217203,36.5830772 63.2100438,34.3295226 L63.2100438,34.3295335 Z M54.1299571,38.4204483 C54.6420522,38.2419654 55.1474742,38.0484691 55.6562361,37.8608145 C55.6570702,38.9342134 55.6745848,40.0084455 55.6470618,41.0818444 C55.1441397,41.0785083 54.6412209,41.0693339 54.1391322,41.0876826 C54.1207835,40.1986051 54.1382981,39.3095275 54.1299571,38.42045 L54.1299571,38.4204483 Z M52.0582238,39.1235379 C52.5678157,38.9558974 53.0715711,38.7724114 53.5778297,38.5947632 C53.5711575,39.4246258 53.5911743,40.2536517 53.5678214,41.082681 C53.0682359,41.0751747 52.567817,41.0751747 52.0682315,41.082681 C52.0432106,40.4304699 52.0598912,39.7765889 52.0582232,39.1235412 L52.0582238,39.1235379 Z" id="形状" fill="#020202"></path>
                <path d="M37.8405123,9.81318408 C38.2333409,9.59216582 38.6828846,9.36364046 39.1474411,9.45371783 C40.4310172,9.6697319 41.6912373,10.0266979 42.8972589,10.5146071 C44.5978496,11.1809977 46.1424748,12.1684924 47.7738375,12.9758357 C48.2467338,13.2168707 48.7146235,13.4679147 49.1875198,13.7072811 C50.0348952,14.2460655 50.8539148,14.861581 51.5069625,15.6297253 C52.2425779,17.1293152 52.6937881,18.7506715 53.0882867,20.367848 C51.8489159,18.6831035 50.8522482,16.7856852 49.2817572,15.3669997 C49.0724152,15.1685001 48.8021877,15.058408 48.5411386,14.9458152 C46.1674841,13.8991056 43.7321181,12.9916786 41.2567099,12.2143611 C39.8163383,11.7473046 38.3526108,11.3578093 36.8963897,10.9441313 C37.1916368,10.552136 37.485216,10.1526342 37.8405123,9.81318408 Z M53.3876881,11.4553931 C53.7054542,11.6046848 54.0966142,11.6105229 54.3476569,11.8815841 C55.3134656,12.8190369 56.1575045,13.8832594 56.851421,15.0367259 C57.1249834,15.5137921 57.470273,16.0192141 57.3826989,16.5997006 C57.2417477,17.7264779 56.7021287,18.745665 56.4077172,19.8332401 C56.5002948,18.8932874 56.6262335,17.9550013 56.6629308,17.010042 C56.6345737,16.493777 56.6904538,15.9041174 56.3618455,15.4670834 C55.4577551,14.2602384 54.5820205,13.0308774 53.6378979,11.8548949 C53.5336439,11.7356283 53.4318922,11.6105236 53.3876881,11.4553931 L53.3876881,11.4553931 Z" id="形状" fill="#FDF2A4"></path>
                <path d="M51.8931114,12.0250432 C52.5803548,12.0091966 53.1733509,12.4345513 53.6479138,12.8899348 C53.7546697,13.3494848 53.8672641,13.8340574 54.2067143,14.1851872 C54.9273167,14.9733477 55.1600133,16.0459132 55.4652678,17.0367412 C55.2459175,16.8582583 55.2142244,16.5580084 55.0874521,16.3203086 C54.848085,15.8424091 54.6587612,15.3311473 54.3151378,14.9157993 C53.7997061,14.2035367 53.4510796,13.3703375 52.8222211,12.7414791 C52.5603351,12.4437297 52.2200519,12.2393936 51.8931114,12.0250465 L51.8931114,12.0250432 Z M40.3984914,14.8690882 C42.089909,15.2911118 43.7863133,15.6947834 45.481084,16.100955 C45.6954301,16.180188 46.0040221,16.0359005 46.1549811,16.2318979 C45.5644882,16.2260596 44.973992,16.2043748 44.3826625,16.209379 C45.4935936,16.4337335 46.6303773,16.5062944 47.7346386,16.7656795 C48.1082844,16.8490828 48.4635808,16.9950382 48.8055342,17.1651813 C48.6604128,17.4095525 48.3643304,17.2060488 48.1449801,17.2310697 C47.6729171,17.2585927 47.2750853,17.5571759 46.8755835,17.7815304 C47.5394743,17.5696865 48.2242111,17.7773603 48.8855986,17.8866183 C49.1966926,18.0092211 49.4193798,18.279447 49.6120408,18.5430026 C49.9589975,19.0284086 50.2250531,19.5680262 50.594529,20.0384226 C50.7538291,20.4938027 51.0107103,20.9041475 51.2225541,21.3353416 C50.9256388,21.0751238 50.7288085,20.723996 50.4285572,20.4671135 C48.9781759,18.9591839 46.8597208,18.2569309 44.8030203,18.2168954 C44.8238711,18.1960446 44.8655728,18.1543429 44.8872575,18.1334922 C45.3643237,17.9958768 45.8597393,17.8899549 46.3051097,17.6647658 C46.4118656,17.5004615 46.3501474,17.29112 46.3618238,17.1076319 C46.1791707,17.0384073 45.9931811,16.979191 45.8046899,16.9283152 C44.2583948,16.4962877 42.7763211,15.8749324 41.2934141,15.2677567 C40.9964987,15.1326436 40.6603825,15.0742613 40.3984914,14.8690882 L40.3984914,14.8690882 Z M40.9956551,24.1777141 C41.2241822,23.9717084 41.5002462,23.8240843 41.7738082,23.6881383 C41.5519557,24.1943969 41.3626302,24.7131619 41.1791421,25.2344334 C41.0940709,24.8874768 41.0098337,24.5346804 40.9956551,24.1777141 L40.9956551,24.1777141 Z M40.9397774,23.8315908 C40.9906533,23.8157442 41.0924053,23.7832169 41.1441151,23.7673703 C41.1808124,23.8799647 41.0773927,23.9692058 40.978143,23.9933928 C40.9689686,23.9525253 40.9489518,23.8724583 40.9397774,23.8315908 Z M39.4460274,27.2769828 C39.5736344,27.3236898 39.5986553,27.4696455 39.6587056,27.5755675 C39.9039108,28.1026755 40.2625447,28.5655621 40.6211776,29.0192756 C40.5936546,29.8900037 40.6745558,30.7590651 40.7888181,31.6214535 C40.3217617,31.2361313 39.8788912,30.8216167 39.4135013,30.4346279 C39.2658776,29.925036 39.3342683,29.3787451 39.3142515,28.854137 C39.2934007,28.3236924 39.3859781,27.8015876 39.4460287,27.2769828 L39.4460274,27.2769828 Z M48.0029189,33.2200463 C48.0256184,33.2377015 48.0710174,33.2780562 48.0962391,33.2957113 L48.0003968,33.3057999 L48.0029189,33.2200463 Z M40.0673761,33.3887573 C40.4994036,33.6456391 40.9481139,33.8724966 41.3909844,34.1076931 C41.5786416,34.5880958 41.7879828,35.0659953 42.1074169,35.4755034 C42.5094186,36.0234609 43.0640525,36.4371422 43.6570486,36.7590795 C42.9673053,36.5889371 42.3167608,36.2870165 41.6770561,35.9825954 C41.4301826,35.8850135 41.2625414,35.6698334 41.1182556,35.4579906 C40.6778884,34.8174558 40.3893134,34.0918469 40.0673761,33.3887573 L40.0673761,33.3887573 Z M60.4069061,36.9492274 L60.4961475,36.9517295 C60.5812187,37.11937 60.3134945,37.1110296 60.4069061,36.9492274 Z M44.8847232,38.5438945 C45.0156727,38.5372223 45.1466159,38.5330521 45.2775584,38.5330521 C45.8488685,38.9408936 46.5352786,39.1385579 47.2058391,39.3137061 C48.0065092,39.5205458 48.8405417,39.5080355 49.6595613,39.4588276 C49.3076015,39.67651 48.8755707,39.6639993 48.4769056,39.6589951 C47.211679,39.5964426 45.9631352,39.2061149 44.8847232,38.5438941 L44.8847232,38.5438945 Z" id="形状" fill="#FDF2A4"></path>
                <path d="M36.8963864,10.9441313 C38.3526042,11.3578126 39.8163317,11.7473046 41.2567066,12.2143611 C43.7321114,12.9916786 46.1674775,13.8991056 48.5411353,14.9458152 C48.8021871,15.0584096 49.0724132,15.1685017 49.2817538,15.3669997 C50.852235,16.7856885 51.8489027,18.6830969 53.0882834,20.367848 C53.134989,20.4337364 53.1700183,20.5071313 53.2083839,20.5788579 C53.079109,20.2193916 53.054922,19.8332328 53.0007099,19.4587537 C53.295123,19.541323 53.5870329,19.6964528 53.9006305,19.6605895 C53.4369073,19.412048 52.8889498,19.0901127 52.8072155,18.517966 C52.5294829,17.4662531 52.3193063,16.3970242 52.0549173,15.3419748 C52.0073774,15.1409733 51.8280606,15.0175365 51.6896113,14.8799215 C50.9881916,14.2502264 50.204201,13.7206184 49.3968578,13.2385458 C49.3459819,13.1926741 49.1866819,13.1301216 49.2667489,13.0458844 C49.9798449,12.2652303 50.869759,11.4937527 51.9848567,11.4637269 C52.5711797,11.4103488 53.0857781,11.7281149 53.6379088,11.8548889 C54.5820314,13.0308748 55.457766,14.2602358 56.3618564,15.4670775 C56.6904649,15.9041115 56.6345848,16.493771 56.6629417,17.0100361 C56.6262444,17.9549953 56.5003054,18.8932781 56.4077281,19.8332342 C56.3201546,20.4887818 56.4677784,21.1768585 56.7471783,21.7665181 C56.7546845,21.5730227 56.7555186,21.3803626 56.7630248,21.1868649 C57.0349193,21.3720199 57.0224086,21.7273159 57.1441771,22.0017146 C57.3184897,22.4162293 57.4719516,22.8440868 57.7079841,23.229409 C57.652104,23.229409 57.5403436,23.2310771 57.4844636,23.2319111 C57.5236631,23.3536799 57.6162404,23.4053897 57.7621962,23.385373 C57.9673679,23.8123973 58.1792107,24.236085 58.424417,24.6422599 C58.560364,24.8541037 58.5361771,25.1118196 58.5728747,25.3495193 C58.5895553,25.5471849 58.6496054,25.7940598 58.4694547,25.936679 C58.4169105,25.8274208 58.3952258,25.6989799 58.3093206,25.6097384 C58.0440987,25.4379281 57.7171578,25.4996463 57.4210764,25.464617 C57.4285827,25.5096547 57.4444293,25.5988961 57.4519356,25.6439338 L57.3485156,25.7356771 C57.4802924,25.7657023 57.6112356,25.7982296 57.7396776,25.8407651 C57.5903859,25.8207483 57.4402602,25.7998976 57.2918039,25.7790469 C57.242596,25.9516915 57.1983922,26.1260035 57.1641969,26.301985 C57.2100686,26.3194997 57.3018122,26.3536949 57.3468499,26.3703757 C57.6312547,26.485472 57.9098203,26.6264233 58.217578,26.6672911 C58.1650339,26.8391014 58.0991455,27.0050746 58.0274189,27.1685432 C57.9415137,27.1301777 57.8564425,27.0909782 57.7713713,27.0534469 C57.7663671,27.003405 57.7563587,26.9041552 57.7505205,26.8549473 C57.3610285,26.764038 56.9681999,26.6681241 56.5670282,26.6489416 C56.4160686,26.6155803 56.3293291,26.761536 56.240922,26.8532794 C56.0290781,27.1118292 55.8322471,27.383724 55.6537623,27.6672958 C55.9790346,27.3728826 56.2701111,26.9950653 56.7204881,26.8933149 C56.9456765,26.9533651 57.1833747,26.9575353 57.4035616,27.0367684 C57.228415,27.0859763 57.0073964,27.0809721 56.9039761,27.2586209 C56.5945504,27.6739689 56.3510121,28.1335189 56.0816199,28.5747228 C56.4669421,28.1260125 56.7671934,27.5747184 57.3159875,27.2969865 C57.5611927,27.2619572 57.8439288,27.2511148 58.0557727,27.4045767 C57.8589414,27.7957387 57.7196591,28.2185931 57.4744529,28.5847325 C57.3460119,28.784066 57.1983885,28.9700546 57.0699479,29.1693888 C57.3802076,28.8115892 57.7196591,28.4763089 58.0149072,28.1076663 C58.2592784,27.5655454 58.4627809,27.0059116 58.6654516,26.4471078 C59.0232513,26.4279251 59.3827175,26.4554481 59.7413538,26.4329293 C60.2642919,26.372879 60.6329346,25.9149943 61.1633792,25.8741288 C61.604583,26.0667902 61.5653809,26.624757 61.5436981,27.0242588 C61.4386102,27.9175062 61.1700523,28.7882343 60.8139193,29.6122604 C60.3885617,30.4279434 59.9331815,31.2394565 59.3235059,31.934203 C58.8280902,32.485497 58.1675394,32.970903 57.4002283,32.9967589 C56.4627755,33.1744077 55.5111464,32.8483012 54.7163128,32.3612273 C54.2759456,32.1560556 53.8906201,31.8591418 53.540327,31.5255282 C53.0732705,31.1568856 52.7046279,30.6873258 52.3343186,30.2261059 C52.2517493,30.8074257 51.8831083,31.2886617 51.5336485,31.739872 C51.4077098,31.9191888 51.1925284,32.1035114 51.2884433,32.3470477 C51.3968675,32.6005934 51.5236401,32.9550567 51.8455771,32.9767428 C51.9806902,32.9925894 52.1174715,32.9950915 52.2534186,32.9992616 C52.0415747,32.7974258 51.758003,32.6839978 51.5770182,32.4479676 C51.9631737,32.6631477 52.3860281,32.8324565 52.8372417,32.8049339 C53.1224804,32.6239492 53.1783618,32.2561398 53.4402475,32.0534724 C53.6337429,31.9742393 53.7029675,32.2586441 53.8222331,32.3595618 C53.3910389,32.8166119 52.792203,33.1894244 52.1424918,33.1543954 C51.526143,33.170242 51.0273908,32.6739927 50.7871911,32.1460513 C50.6153808,31.7240303 50.3801829,31.3337049 50.1658391,30.9325365 C50.0340623,30.6789909 49.7830202,30.5255283 49.594529,30.3203576 C49.1916907,29.9116828 48.8972793,29.354549 48.9373114,28.7673893 C48.9848514,28.2119254 49.2559115,27.71067 49.5411506,27.2427802 C48.7579933,27.0192597 47.9331372,26.7657141 47.3376378,26.181891 C46.9689952,25.8432741 47.0607392,25.3011532 46.9831748,24.8541128 C46.8455594,23.7865538 46.9339669,22.698142 47.229214,21.663942 C45.1399646,22.1101491 43.0407154,22.5938884 41.0757126,23.4504369 C40.324251,23.6822978 39.5744561,23.9199966 38.8146515,24.1218308 C38.3184026,24.2410973 37.8079741,24.1643665 37.3067219,24.1385114 C36.7195623,24.0951417 36.130736,24.1151585 35.5427464,24.0834653 C35.084863,23.3803757 34.9605933,22.5330003 34.6286463,21.7748656 C34.4843588,21.441252 34.2408209,21.16519 33.9964513,20.9016343 C33.2333134,20.12932 32.4234669,19.3870316 31.822131,18.4754347 C31.2207951,17.5972001 30.9322201,16.4904389 31.0856823,15.4337229 C31.3350578,14.522126 31.8596632,13.7022731 32.5260539,13.0383857 C33.685357,13.0800871 34.8655127,13.1251248 35.9739273,13.5054422 C37.1557497,13.9391396 38.3033765,14.4579078 39.4468333,14.9816793 C38.0398208,14.246064 36.7137126,13.3002714 35.1624043,12.8840902 C35.0714949,12.8365502 34.9839215,12.7114455 35.127375,12.6589017 C35.837971,12.2293742 36.4142843,11.6138587 36.896357,10.9441313 L36.8963864,10.9441313 Z M51.893079,12.0250368 C52.2200225,12.2393829 52.560306,12.4437213 52.8221917,12.7414693 C53.4510502,13.3703278 53.7996767,14.2035269 54.3151084,14.9157896 C54.6587285,15.3311375 54.8480563,15.8423994 55.0874227,16.3202988 C55.2141957,16.5579979 55.2458888,16.8582499 55.4652384,17.0367314 C55.4835871,17.10679 55.5019357,17.1760147 55.5219524,17.2460733 C55.4769147,16.6555804 55.2884235,16.0901068 55.1850022,15.5096204 C55.1399645,15.2835979 55.1199478,15.0467338 55.0056854,14.8415597 C54.6879193,14.2519002 54.3259485,13.6864266 53.9247801,13.1509788 C53.8497173,13.0467248 53.7546377,12.9591517 53.6478815,12.889927 C53.1733186,12.4345469 52.5803224,12.0091892 51.893079,12.0250354 L51.893079,12.0250368 Z M40.3984488,14.8690829 C40.6603451,15.0742547 40.9964584,15.132637 41.2933764,15.2677514 C42.7762834,15.8749271 44.2583604,16.4962791 45.8046523,16.9283099 C45.9931435,16.9791857 46.1791314,17.038402 46.3617861,17.1076267 C46.3501097,17.2911137 46.411828,17.5004553 46.3050721,17.6647605 C45.8596983,17.889949 45.364286,17.9958709 44.8872198,18.1334869 C44.865535,18.1543377 44.8238334,18.1960394 44.8029826,18.2168901 C46.8597063,18.2569236 48.9781548,18.9591786 50.4285195,20.4671082 C50.7287708,20.7239901 50.9256018,21.0751172 51.2225165,21.3353363 C51.0106726,20.9041422 50.7537901,20.4937974 50.5944914,20.0384173 L50.6812305,20.081787 C50.1591257,18.9825323 49.938942,17.7173089 49.1282622,16.7698564 C49.0231743,16.6422494 48.8947333,16.5213149 48.7254239,16.494626 C47.8855549,16.2861181 47.0156602,16.253591 46.1549385,16.231906 C46.0039789,16.0359086 45.6953885,16.1801961 45.4810414,16.1009631 C43.7862905,15.6947882 42.0898796,15.2911199 40.3984488,14.8690829 L40.3984488,14.8690829 Z M52.6670596,22.7648897 C52.4577177,22.9900782 52.4051735,23.3111805 52.3317793,23.5989222 C52.5628059,23.3328662 52.825525,23.0809872 53.157472,22.9450411 C53.4719019,22.8090941 53.8196928,22.8065918 54.1499699,22.7290271 C53.6570575,22.6631386 53.1558054,22.6814871 52.6670629,22.7648904 L52.6670596,22.7648897 Z M52.351799,25.2744909 C52.5494646,25.2594783 52.7462976,25.2361253 52.9431285,25.2069342 C52.9506348,25.4963431 53.0131872,25.7790809 53.0540547,26.0651526 L53.0540542,26.065153 C52.9416261,26.1517057 52.8317648,26.241542 52.7246117,26.3345452 C52.9122689,26.2769969 53.0990909,26.2169466 53.2884187,26.1644028 C53.2558915,26.1293735 53.1900029,26.0609828 53.1574758,26.0259535 C53.2500535,26.0418001 53.3292862,26.0142771 53.3968429,25.9433842 C53.3834984,25.9967623 53.3559754,26.1035182 53.3417968,26.1568964 C53.5486365,26.0793313 53.7671545,26.044302 53.9873381,26.0451363 C54.4343784,26.0476384 54.8755823,25.9550609 55.3242893,25.9734097 C55.1257897,25.8699897 54.9064381,25.8199478 54.6862545,25.7890887 C54.72462,25.4829992 54.645387,25.1852495 54.5703242,24.8916714 C54.6829186,24.8691525 54.7955127,24.8457997 54.9081077,24.8199448 C54.0557258,24.4788247 53.060728,24.7273671 52.351799,25.2744916 L52.351799,25.2744909 Z M59.6487303,26.8232867 C59.3693298,26.8483076 59.1341319,26.6789992 58.8805859,26.595596 C59.1608205,26.9909278 59.7096119,27.1418868 60.1608255,26.9792515 C60.5311347,26.8466403 60.9448161,26.6948468 61.1624964,26.3445532 C60.69544,26.5980989 60.1950211,26.8408022 59.6487303,26.823286 L59.6487303,26.8232867 Z M51.4443484,30.4946995 C51.7596122,30.2628386 52.0164951,29.9175496 52.436013,29.8725109 C52.3409334,29.7015345 52.1207491,29.7640867 51.9631167,29.7540783 C51.6495208,29.8541621 51.5094032,30.1977821 51.4443484,30.4946995 L51.4443484,30.4946995 Z" id="形状" fill="#FEE83E"></path>
                <path d="M41.7737917,23.6881449 C42.2308418,23.4204207 42.7462735,23.2761335 43.2541987,23.1376842 C43.8830572,25.4629634 45.0156743,27.6097744 46.2133429,29.6848277 C46.6562134,30.4654817 47.1808182,31.292841 48.0332001,31.6698234 C47.9614735,31.8416338 47.900589,32.0192833 47.8088456,32.1819186 C46.2992494,31.4646527 44.9414455,30.4704849 43.5961412,29.4879967 C42.2416739,28.4804859 41.4368339,26.8741425 41.179118,25.2344202 C41.362605,24.713152 41.5519305,24.1943837 41.7737841,23.688125 L41.7737917,23.6881449 Z M40.6211585,29.0192769 C42.1107386,30.7448869 44.1049107,32.0593221 46.3192467,32.6339787 C46.7212483,32.7440708 47.135763,32.7932787 47.5427712,32.8800179 C47.3467738,33.3437411 47.2700427,33.8508297 47.2717107,34.3520852 C46.8013177,34.3153879 46.351774,34.163594 45.894724,34.060174 C44.0648571,33.5781046 42.2141507,32.9092107 40.7887854,31.6214647 C40.674523,30.7590764 40.593622,29.8900149 40.6211449,29.0192769 L40.6211585,29.0192769 Z M41.3909695,34.1076884 C43.3893082,35.0618218 45.5519554,35.7699146 47.7855039,35.7890973 C48.0323774,36.2361377 48.3209517,36.6598254 48.6020202,37.0860164 C47.8305426,37.2670011 47.0173595,37.2561588 46.2250292,37.2386443 C45.3576376,37.1660834 44.4793998,37.0526554 43.657047,36.7590749 C43.0640508,36.4371386 42.5094202,36.0234595 42.1074153,35.4754988 C41.7879812,35.0659907 41.5786406,34.5880879 41.3909695,34.1076884 L41.3909695,34.1076884 Z M51.8847518,34.1535611 C52.5077737,34.1543952 53.1307957,34.1535611 53.7538176,34.1535611 C53.7504814,35.0067764 53.7529835,35.8608249 53.7513155,36.7140369 L53.9448109,36.7607425 C53.948981,35.8908477 53.9506491,35.020953 53.9439768,34.1518915 C54.572002,34.1568957 55.2008637,34.1527255 55.8288888,34.1543936 C55.8280548,36.5205416 55.833059,38.8866963 55.8263867,41.2528476 C55.1966916,41.2470094 54.5669999,41.2520136 53.9373048,41.2503455 C53.9639938,40.3220691 53.9356368,39.3921228 53.9523174,38.4638463 L53.757154,38.4838631 C53.7521499,39.4029664 53.7421415,40.3229031 53.7621582,41.2420064 C53.1341331,41.2553509 52.5052714,41.257019 51.8772462,41.2411724 C51.8989311,40.5639387 51.870574,39.8850384 51.8930928,39.2078047 C51.0181949,39.4571801 50.139957,39.7574321 49.2250269,39.8433363 C48.7821564,39.9183991 48.3267763,39.88754 47.8922455,39.7799498 C48.6387039,39.8608507 49.4035117,39.8233195 50.1224475,39.5947948 C51.7563168,39.0826996 53.3685,38.5055497 54.9923464,37.9650954 C53.546135,38.0334861 52.096587,38.1510844 50.6478658,38.0660132 C50.2183382,38.0268136 49.6612077,37.9642614 49.5227584,37.473017 C50.1774727,38.0143046 51.0907363,37.8942015 51.8814,37.9250606 C51.8889063,36.6681737 51.883068,35.4112902 51.8847361,34.1535832 L51.8847518,34.1535611 Z M52.0557125,34.3329 C52.0557125,35.5197256 52.0573805,36.7073878 52.0548785,37.8950566 C52.6954133,37.8683676 53.337618,37.8950566 53.9773227,37.8441808 C54.5244469,37.8333383 55.0699044,37.7691179 55.6170285,37.8024793 C55.6445515,37.6832128 55.6670704,37.5622783 55.6629002,37.4396765 C55.657896,36.4538517 55.6603981,35.4688603 55.6612321,34.4830356 C55.2016821,34.4863717 54.7412955,34.4796994 54.2817454,34.4913759 C54.2750732,35.3053923 54.2842475,36.1194053 54.2750732,36.934255 C54.2608946,36.1152355 54.2734051,35.2970525 54.270903,34.4780329 C54.7329563,34.4730287 55.1950096,34.4746968 55.6570628,34.4721947 L55.6654032,34.3345794 C55.153308,34.3287412 54.6412129,34.3345794 54.129951,34.3304092 C54.1324531,35.1919643 54.1332872,36.0535193 54.129117,36.9150743 C53.94563,36.9134062 53.7629776,36.9134062 53.5811595,36.9150743 C53.5744873,36.0543526 53.5786574,35.1927976 53.5786574,34.3320792 C53.0707322,34.3320792 52.5636402,34.3312451 52.0557149,34.3329132 L52.0557125,34.3329 Z M54.1299507,38.4204881 C54.1382918,39.3095657 54.1207771,40.1986432 54.1391258,41.0877208 C54.6412112,41.0693721 55.1441333,41.0785464 55.6470554,41.0818825 C55.6745784,40.0084837 55.6570638,38.9342515 55.6562297,37.8608526 C55.1474712,38.0485098 54.6420458,38.2420049 54.1299507,38.4204864 L54.1299507,38.4204881 Z M52.0582174,39.123576 C52.0598855,39.7766237 52.0432049,40.4305047 52.0682258,41.0827158 C52.5678113,41.0752096 53.0682301,41.0752096 53.5678156,41.0827158 C53.5911685,40.2536899 53.5711518,39.4246606 53.577824,38.594798 C53.0715654,38.7724469 52.5678133,38.9559342 52.0582181,39.1235727 L52.0582174,39.123576 Z M56.1274726,34.1552336 C56.7329784,34.1552336 57.3376509,34.1585697 57.9423266,34.1535655 C57.9548371,36.5188802 57.92648,38.8850415 57.9565052,41.2503331 C57.3443262,41.247831 56.7321473,41.2578393 56.1208017,41.2444949 C56.1399845,38.8816834 56.1249719,36.5188719 56.127474,34.1552338 L56.1274726,34.1552336 Z M56.3034545,34.3328826 C56.3109608,36.583934 56.2917781,38.8341388 56.3134629,41.0843536 C56.7955323,41.0776813 57.2784383,41.070175 57.7613409,41.0901918 C57.7746854,38.8366372 57.7596729,36.5830825 57.7688472,34.3303546 C57.2801047,34.3361928 56.7921955,34.3320227 56.3034531,34.3328567 L56.3034545,34.3328826 Z M58.082438,34.1468937 C58.7246477,34.1627403 59.3668524,34.1502298 60.0090571,34.1535659 C60.1091408,35.0893488 60.2759473,36.0167919 60.4068889,36.9492415 C60.3134772,37.1110438 60.5812015,37.1193839 60.4961303,36.9517436 C60.6971318,36.0251338 60.7580163,35.0735047 60.9423373,34.1452283 C61.5645259,34.1610749 62.1875479,34.1569048 62.8097332,34.1468964 C62.6404248,35.3812639 62.3485132,36.5964487 62.1408393,37.8241298 C61.9356675,38.9625835 61.6837892,40.0951973 61.5178173,41.2394974 C60.8038847,41.2586801 60.0891221,41.2545099 59.3751895,41.2419994 C59.2767737,40.3871176 59.0532531,39.5522518 58.9223093,38.7032064 C58.7296479,37.7549139 58.5645097,36.8016149 58.3776851,35.8516525 C58.2917799,35.2811757 58.1324799,34.7223752 58.082438,34.1468919 L58.082438,34.1468937 Z M58.267593,34.3295449 C58.7037903,36.5814296 59.0982889,38.8424742 59.5570056,41.0893821 C60.1550049,41.0643612 60.7538408,41.0843779 61.3526768,41.0785397 C61.7730279,38.8274883 62.1975523,36.5781102 62.6237399,34.3278954 C62.1049717,34.3362358 61.5862034,34.3287295 61.0682717,34.3328996 C60.9581796,35.2570062 60.7997135,36.1744429 60.6779464,37.0977161 C60.6512573,37.1986338 60.6462531,37.3420873 60.5294887,37.3821208 C60.4127244,37.4530135 60.2667686,37.3153984 60.267593,37.1944636 C60.115809,36.2411646 59.9932062,35.2836957 59.8380751,34.3312333 C59.3143036,34.3312333 58.7905321,34.3345695 58.267593,34.3295653 L58.267593,34.3295449 Z M63.0257549,34.1510621 C64.1725483,34.1518962 65.3193417,34.1644066 66.4661218,34.1443899 C66.4636197,34.8099472 66.4669559,35.4755046 66.4644538,36.1410619 C65.8497716,36.1235473 65.2342561,36.1343897 64.6195773,36.1352237 C64.6254155,36.3128726 64.6262495,36.4905201 64.6212453,36.6690049 C64.9198287,36.6756771 65.2192447,36.6748431 65.5178293,36.6748431 C65.5178293,37.3303908 65.5161613,37.9859417 65.5186633,38.6423227 C65.2184121,38.6398206 64.9189941,38.6414887 64.6187428,38.6406547 C64.6279171,38.8458264 64.6270831,39.0518327 64.6212449,39.2578368 C65.2367604,39.2836918 65.8531091,39.2578368 66.4694579,39.2845258 C66.4661218,39.9425767 66.4552794,40.6014609 66.4752961,41.2595119 C65.3234995,41.2403291 64.1708663,41.2528396 63.0190565,41.2528396 C63.0424094,38.8858582 63.0290649,36.5180568 63.0257287,34.1510457 L63.0257549,34.1510621 Z M63.2100497,34.3295285 C63.2217261,36.5830831 63.2008754,38.8366378 63.2200581,41.0893657 C64.2459183,41.0660128 65.2717753,41.0801914 66.2976355,41.0826935 C66.2926313,40.5464123 66.2901292,40.0101279 66.2993035,39.4738468 C65.6837881,39.4354812 65.0682726,39.4329793 64.4519238,39.4296431 C64.4560939,39.108541 64.4560939,38.7882717 64.4535918,38.4680043 C64.7388306,38.4630001 65.0249019,38.4613321 65.310977,38.4746765 C65.3710272,37.9350588 65.3226534,37.391268 65.3385,36.8499836 C65.0415846,36.8508177 64.7455039,36.8533198 64.4494225,36.8399753 C64.4569287,36.5480641 64.4569287,36.2553189 64.4510905,35.9634074 C65.0674393,35.9442246 65.6846247,35.9709137 66.3018068,35.9483948 C66.2826241,35.4071072 66.3026409,34.8658229 66.2901304,34.3245352 C65.2634368,34.3395478 64.2367433,34.3303735 63.2100497,34.3295394 L63.2100497,34.3295285 Z" id="形状" fill="#FEE83E"></path>
                <path d="M45.2775376,38.5330545 C46.5861455,38.4988591 47.9614656,38.546399 49.1691307,37.9592411 C49.3534517,38.3362235 49.7162548,38.6106189 49.8205085,39.0268002 C49.8697164,39.1861002 49.7846452,39.3587439 49.6595405,39.4588276 C48.8405209,39.5080355 48.0064884,39.5205458 47.2058183,39.3137062 C46.5352577,39.1385596 45.8488477,38.9408937 45.2775376,38.5330522 L45.2775376,38.5330545 Z" id="路径" fill="#FEE83E"></path>
            </g>
        </g>
    </g>
</svg>