<?xml version="1.0" encoding="utf-8"?>
<!-- Generator: Adobe Illustrator 21.0.0, SVG Export Plug-In . SVG Version: 6.00 Build 0)  -->
<svg version="1.1" id="图层_1" xmlns="http://www.w3.org/2000/svg" xmlns:xlink="http://www.w3.org/1999/xlink" x="0px" y="0px"
	 viewBox="0 0 96.1 49.9" style="enable-background:new 0 0 96.1 49.9;" xml:space="preserve">
<style type="text/css">
	.st0{fill:#00C1DE;}
</style>
<title>HybridDB for MySQL</title>
<desc>Created with Sketch.</desc>
<g id="组件库">
	<g id="组件2" transform="translate(-770.000000, -1541.000000)">
		<g id="图标" transform="translate(40.000000, 749.000000)">
			<g id="Component" transform="translate(40.000000, 725.000000)">
				<g id="Iconography" transform="translate(0.000000, 49.000000)">
					<g id="Icon" transform="translate(672.000000, 0.000000)">
						<g id="HybridDB-for-MySQL" transform="translate(18.000000, 18.000000)">
							<path id="形状" class="st0" d="M58.9,36.4c-1.6,0.9-3.7,0.3-4.6-1.3c-0.9-1.6-0.3-3.7,1.3-4.6c1.6-0.9,3.7-0.3,4.6,1.3
								C61.1,33.4,60.5,35.4,58.9,36.4L58.9,36.4z M58.9,32.4c-0.5-0.9-1.7-1.3-2.7-0.8c-0.9,0.5-1.3,1.7-0.8,2.7
								c0.5,0.9,1.7,1.3,2.7,0.8C59.1,34.6,59.4,33.4,58.9,32.4z M47.4,16c-1.2,0.7-2.8,0.3-3.4-0.9c-0.7-1.2-0.3-2.8,0.9-3.4
								c1.2-0.7,2.8-0.3,3.4,0.9C49,13.9,48.6,15.4,47.4,16L47.4,16z M47,13.3c-0.3-0.5-0.9-0.7-1.4-0.4c-0.5,0.3-0.7,0.9-0.4,1.4
								c0.3,0.5,0.9,0.7,1.4,0.4C47.2,14.5,47.4,13.9,47,13.3L47,13.3z M38.4,26.5c-1.4,0.8-3.1,0.3-3.8-1c-0.8-1.4-0.3-3.1,1-3.9
								c1.4-0.8,3.1-0.3,3.9,1C40.2,24,39.8,25.7,38.4,26.5L38.4,26.5z M38.2,23.4c-0.3-0.6-1.2-0.9-1.8-0.5
								c-0.6,0.3-0.9,1.2-0.5,1.8c0.3,0.6,1.2,0.9,1.8,0.5C38.4,24.9,38.6,24,38.2,23.4L38.2,23.4z M45,38.3
								c-1.2,0.7-2.8,0.3-3.4-0.9c-0.7-1.2-0.3-2.8,0.9-3.4c1.2-0.7,2.8-0.3,3.4,0.9C46.6,36,46.2,37.6,45,38.3L45,38.3z M54,26
								l1.7,3.1c-0.3,0.1-0.5,0.2-0.8,0.3c-0.2,0.1-0.3,0.3-0.5,0.3L53,27.1l-2.2,2.4l2.8,1.2c-0.3,0.4-0.5,0.9-0.6,1.3l-3.2-1.4
								l-2.8,3c-0.3-0.4-0.7-0.8-1.1-0.9l2.4-2.7l-3-1.4l-0.4,3.5C44.3,32,43.9,32,43.3,32l0.5-4l-3.7-1.6c0.3-0.4,0.5-0.9,0.6-1.4
								l3.3,1.5l0.3-3.3l-3.5,0.7c0-0.5-0.1-0.9-0.3-1.5l4-0.9l0.4-4c0.5,0.2,0.9,0.2,1.5,0.2L46,21.2l3.3-0.7l-1.8-3.1
								c0.2-0.1,0.3-0.2,0.6-0.3c0.3-0.2,0.5-0.3,0.7-0.5l2.1,3.6l4.1-0.9c0,0.5,0.1,0.9,0.3,1.5l-3.7,0.8l1.6,2.8l2.6-2.8
								c0.3,0.4,0.7,0.8,1.1,1L54,26L54,26z M50.1,22.1L45.9,23l-0.4,4.2l3.9,1.7l2.9-3.1L50.1,22.1L50.1,22.1z M60.4,21.8
								c-1.4,0.8-3.1,0.3-3.8-1c-0.8-1.4-0.3-3.1,1-3.8c1.4-0.8,3.1-0.3,3.8,1C62.3,19.4,61.7,21.1,60.4,21.8L60.4,21.8z"/>
						</g>
					</g>
				</g>
			</g>
		</g>
	</g>
</g>
</svg>
