<?xml version="1.0" encoding="utf-8"?>
<!-- Generator: Adobe Illustrator 24.1.0, SVG Export Plug-In . SVG Version: 6.00 Build 0)  -->
<svg version="1.1" id="图层_1" xmlns="http://www.w3.org/2000/svg" xmlns:xlink="http://www.w3.org/1999/xlink" x="0px" y="0px"
	 viewBox="0 0 96.1 49.9" style="enable-background:new 0 0 96.1 49.9;" xml:space="preserve">
<style type="text/css">
	.st0{fill:#191b1d;}
</style>
<desc>Created with Sketch.</desc>
<g id="组件库">
	<g id="组件2" transform="translate(-951.000000, -1969.000000)">
		<g id="图标" transform="translate(40.000000, 1101.000000)">
			<g id="Component" transform="translate(40.000000, 725.000000)">
				<g id="Iconography" transform="translate(0.000000, 49.000000)">
					<g id="Icon" transform="translate(864.000000, 74.000000)">
						<path id="kafka" class="st0" d="M41.1,46.1c-0.9,0-1.7,0.4-2.3,1l-1.4-1c0.2-0.4,0.2-0.9,0.2-1.3s-0.1-0.9-0.2-1.2l1.4-0.9
							c0.5,0.6,1.3,1,2.3,1c1.6,0,3-1.3,3-3c0-1.6-1.3-3-3-3c-1.6,0-3,1.3-3,3c0,0.3,0.1,0.5,0.2,0.9l-1.4,0.9
							c-0.5-0.7-1.4-1.3-2.3-1.4v-1.6c1.3-0.3,2.3-1.5,2.3-2.9c0-1.6-1.3-3-3-3c-1.6,0-3,1.3-3,3c0,1.4,1,2.6,2.3,2.9v1.7
							C31.5,41.4,30,43,30,44.9c0,1.9,1.4,3.4,3.2,3.8v1.8c-1.3,0.3-2.3,1.5-2.3,2.9c0,1.6,1.3,3,3,3c1.6,0,3-1.3,3-3
							c0-1.4-1-2.6-2.3-2.9v-1.8c0.9-0.2,1.8-0.6,2.3-1.3l1.4,1c-0.1,0.2-0.2,0.5-0.2,0.9c0,1.6,1.3,3,3,3c1.6,0,3-1.3,3-3
							C44.1,47.4,42.7,46.1,41.1,46.1L41.1,46.1z M41.1,39.2c0.8,0,1.4,0.6,1.4,1.4S41.8,42,41.1,42s-1.4-0.6-1.4-1.4
							S40.3,39.2,41.1,39.2z M32.4,36.5c0-0.8,0.6-1.4,1.4-1.4s1.4,0.6,1.4,1.4c0,0.8-0.6,1.4-1.4,1.4S32.4,37.3,32.4,36.5z
							 M35.3,53.2c0,0.8-0.6,1.4-1.4,1.4s-1.4-0.6-1.4-1.4c0-0.8,0.6-1.4,1.4-1.4S35.3,52.4,35.3,53.2z M33.9,46.8c-1.1,0-2-0.9-2-2
							s0.9-2,2-2s2,0.9,2,2C35.9,45.9,35,46.8,33.9,46.8z M41.1,50.5c-0.8,0-1.4-0.6-1.4-1.4c0-0.8,0.6-1.4,1.4-1.4s1.4,0.6,1.4,1.4
							C42.5,49.8,41.9,50.5,41.1,50.5z M54,42.6l-1.9-0.1l-2.2,2.6v-4.8h-1.6v8.9h1.6V46l2.3,3.2H54l-2.7-3.7L54,42.6z M59.8,43.7
							c-0.5-0.7-1.4-1.2-2.3-1.2c-1.7,0-3.2,1.6-3.2,3.5c0,2,1.4,3.5,3.2,3.5c0.9,0,1.8-0.5,2.3-1.2v0.9h1.6v-6.5h-1.6V43.7z
							 M57.7,47.9c-1,0-1.9-0.9-1.9-1.9c0-1.1,0.9-1.9,1.9-1.9c1,0,1.9,0.9,1.9,1.9C59.5,47.1,58.7,47.9,57.7,47.9z M78.2,42.6v1
							c-0.5-0.7-1.4-1.3-2.3-1.3c-1.7,0-3.2,1.6-3.2,3.5c0,2,1.4,3.5,3.2,3.5c0.9,0,1.8-0.5,2.3-1.2v0.9h1.6v-6.6L78.2,42.6
							L78.2,42.6z M76,47.8c-1,0-1.9-0.9-1.9-1.9c0-1.1,0.9-1.9,1.9-1.9s1.9,0.9,1.9,1.9C77.9,47,77.1,47.8,76,47.8z M63.1,42.6
							h-0.8v1.2h0.8v5.3h1.6v-5.3h1v-1.2h-1c-0.2-1.5,1-1.3,1-1.3v-1.2C62.7,40,63.1,42.6,63.1,42.6z M72.5,42.6l-1.9-0.1l-2.3,2.6
							l0.1-4.8h-1.6v8.9h1.6V46l2.3,3.2h1.8l-2.7-3.7L72.5,42.6z"/>
					</g>
				</g>
			</g>
		</g>
	</g>
</g>
</svg>
