<?xml version="1.0" encoding="utf-8"?>
<!-- Generator: Adobe Illustrator 21.0.0, SVG Export Plug-In . SVG Version: 6.00 Build 0)  -->
<svg version="1.1" id="图层_1" xmlns="http://www.w3.org/2000/svg" xmlns:xlink="http://www.w3.org/1999/xlink" x="0px" y="0px"
	 viewBox="0 0 96.1 49.9" style="enable-background:new 0 0 96.1 49.9;" xml:space="preserve">
<style type="text/css">
	.st0{fill:#00C1DE;}
</style>
<title>maxcompute</title>
<desc>Created with Sketch.</desc>
<g id="组件库">
	<g id="组件2" transform="translate(-1057.000000, -1543.000000)">
		<g id="图标" transform="translate(40.000000, 749.000000)">
			<g id="Component" transform="translate(40.000000, 725.000000)">
				<g id="Iconography" transform="translate(0.000000, 49.000000)">
					<g id="maxcompute" transform="translate(977.000000, 20.000000)">
						<path id="路径" class="st0" d="M60.4,27.1c-0.1,0-0.3,0-0.4,0l-5.2-8.5c0.5-0.6,0.8-1.4,0.8-2.2c0-1.8-1.4-3.3-3.2-3.3
							c-1.8,0-3.2,1.5-3.2,3.3c0,1.1,0.5,2,1.2,2.6l-5.8,11.3c-0.3-0.1-0.5-0.1-0.8-0.1c-0.5,0-1,0.1-1.5,0.4l-4.8-5.9
							c0.3-0.4,0.4-0.9,0.4-1.4c0-1.4-1.1-2.4-2.4-2.4c-1.3,0-2.4,1.1-2.4,2.4s1.1,2.4,2.4,2.4c0.2,0,0.5,0,0.7-0.1l4.9,6
							c-0.3,0.5-0.5,1.2-0.5,1.8c0,1.8,1.4,3.3,3.2,3.3s3.2-1.5,3.2-3.3c0-0.9-0.4-1.8-1-2.3L52,19.7c0.2,0,0.3,0,0.5,0
							c0.4,0,0.7-0.1,1.1-0.2l5.1,8.4c-0.4,0.5-0.6,1-0.6,1.6c0,1.4,1.1,2.4,2.4,2.4c1.3,0,2.4-1.1,2.4-2.4
							C62.8,28.2,61.7,27.1,60.4,27.1C60.4,27.1,60.4,27.1,60.4,27.1"/>
					</g>
				</g>
			</g>
		</g>
	</g>
</g>
</svg>
