<?xml version="1.0" encoding="UTF-8"?>
<svg width="96px" height="50px" viewBox="0 0 96 50" version="1.1" xmlns="http://www.w3.org/2000/svg" xmlns:xlink="http://www.w3.org/1999/xlink">
    <!-- Generator: Sketch 57.1 (83088) - https://sketch.com -->
    <title>supos</title>
    <desc>Created with Sketch.</desc>
    <g id="组件库" stroke="none" stroke-width="1" fill="none" fill-rule="evenodd">
        <g id="图标Iconography" transform="translate(-80.000000, -1317.000000)" fill="#0075DB">
            <g id="编组" transform="translate(80.000000, 1317.000000)">
                <path d="M41.2648649,22.8318785 C42.2456757,22.8318785 43.0778378,23.2205271 43.7616216,23.9978244 C44.4456757,24.775392 44.7872973,25.8583649 44.7872973,27.2470136 C44.7872973,28.6729595 44.4427027,29.7813379 43.7537838,30.572419 C43.0645946,31.3629595 42.2294595,31.7583649 41.2489189,31.7583649 C40.7827027,31.7583649 40.3597297,31.6645812 39.9808108,31.4767433 C39.6018919,31.2891758 39.2027027,30.9675541 38.7840541,30.5118785 L38.7840541,34.8143109 L36.5497297,34.8143109 L36.5497297,23.0248514 L38.632973,23.0248514 L38.632973,24.279446 C38.9035135,23.8505271 39.2689189,23.5021487 39.7302703,23.2340406 C40.1913514,22.9659325 40.702973,22.8318785 41.2648649,22.8318785 Z M62.2759459,17.7856622 C65.0759459,15.8007974 68.9854054,16.0570136 71.4967568,18.5583649 C72.8683784,19.9245812 73.5662162,21.7062028 73.5940541,23.4964731 C74.417027,23.7529595 75.1916216,24.2045812 75.8435135,24.8537704 C77.9981081,27.0002568 77.9981081,30.4799866 75.8435135,32.6262028 C74.8143243,33.6513379 73.4794595,34.1856622 72.1310811,34.2316082 L72.1310811,34.2329595 L72.0583784,34.2329595 C71.9808108,34.2345812 71.902973,34.2345812 71.8254054,34.2329595 L55.5767568,34.2329595 C55.5145946,34.2335001 55.4518919,34.2335001 55.3894595,34.2329595 L55.0259459,34.2329595 L55.0259459,34.2243109 C52.7102703,34.1156622 50.4262162,33.1805271 48.6578378,31.4180947 C44.8881081,27.662419 44.8881081,21.5726893 48.6578378,17.8164731 C52.4167568,14.0710677 58.5037838,14.0616082 62.2759459,17.7856622 Z M66.0521622,18.6635001 C65.0564865,18.6635001 64.2067568,18.8132298 63.5027027,19.1132298 C62.7989189,19.4126893 62.26,19.849446 61.8859459,20.4226893 C61.5116216,20.9959325 61.3248649,21.6118785 61.3248649,22.2702568 C61.3248649,23.2929595 61.7221622,24.1602568 62.5178378,24.8716082 C63.0832432,25.3775541 64.0667568,25.8035001 65.4689189,26.1502568 C66.5586486,26.4207974 67.2567568,26.6089055 67.5632432,26.7148514 C68.0108108,26.8735001 68.3243243,27.0599866 68.5040541,27.2745812 C68.6837838,27.489446 68.7735135,27.749446 68.7735135,28.0551217 C68.7735135,28.5313379 68.56,28.9475541 68.132973,29.3029595 C67.7059459,29.6589055 67.0710811,29.8367433 66.2289189,29.8367433 C65.4337838,29.8367433 64.8018919,29.6370136 64.3335135,29.2370136 C63.8651351,28.8372839 63.5545946,28.2110677 63.4010811,27.3586352 L60.8564865,27.605392 C61.0272973,29.0518785 61.5516216,30.1526893 62.4294595,30.9080947 C63.307027,31.6637704 64.5645946,32.0413379 66.2024324,32.0413379 C67.3275676,32.0413379 68.267027,31.8840406 69.0210811,31.569446 C69.7748649,31.2551217 70.3583784,30.7745812 70.7705405,30.1275541 C71.1827027,29.4807974 71.3891892,28.7870136 71.3891892,28.0464731 C71.3891892,27.2291758 71.2167568,26.5426893 70.8721622,25.9872839 C70.5278378,25.4316082 70.0505405,24.9937704 69.4408108,24.6732298 C68.8310811,24.3529595 67.89,24.0426893 66.6175676,23.7426893 C65.3454054,23.4429595 64.5440541,23.1551217 64.2143243,22.8786352 C63.9548649,22.6613379 63.8256757,22.399446 63.8256757,22.0937704 C63.8256757,21.7586352 63.9635135,21.4910677 64.2408108,21.2913379 C64.6708108,20.9797163 65.2656757,20.8240406 66.0254054,20.8240406 C66.7618919,20.8240406 67.3140541,20.969446 67.6824324,21.2602568 C68.0505405,21.5516082 68.2905405,22.0291758 68.4024324,22.6935001 L71.0181081,22.5789055 C70.977027,21.3913379 70.5454054,20.4418785 69.7235135,19.7302568 C68.9018919,19.0191758 67.6781081,18.6635001 66.0521622,18.6635001 Z M54.6737838,18.6635001 C53.6194595,18.6635001 52.6889189,18.8337704 51.8816216,19.1748514 C51.2748649,19.4275541 50.7167568,19.8156622 50.2072973,20.3389055 C49.6975676,20.8621487 49.2956757,21.4529595 49.0010811,22.1113379 C48.6064865,23.0051217 48.4091892,24.1102568 48.4091892,25.4270136 C48.4091892,27.4851217 48.9775676,29.1002568 50.1143243,30.2729595 C51.2513514,31.4459325 52.782973,32.032419 54.7091892,32.032419 C56.6118919,32.032419 58.1316216,31.4429595 59.2686486,30.2643109 C60.4054054,29.0856622 60.9740541,27.4526893 60.9740541,25.3656622 C60.9740541,23.2607974 60.4013514,21.6175541 59.2556757,20.4359325 C58.1097297,19.2543109 56.5827027,18.6635001 54.6737838,18.6635001 Z M21.8645946,22.8318785 C23.02,22.8318785 23.8789189,23.022419 24.4408108,23.4029595 C25.0027027,23.7835001 25.3897297,24.3464731 25.6018919,25.0916082 L23.4945946,25.4856622 C23.4043243,25.1535001 23.2332432,24.8986352 22.9818919,24.7216082 C22.73,24.5448514 22.3708108,24.4564731 21.9040541,24.4564731 C21.3159459,24.4564731 20.8943243,24.539446 20.64,24.7056622 C20.4702703,24.8237704 20.3854054,24.9764731 20.3854054,25.1640406 C20.3854054,25.3248514 20.4597297,25.4613379 20.6081081,25.5740406 C20.8094595,25.7243109 21.5054054,25.9359325 22.6954054,26.209446 C23.8854054,26.4829595 24.7164865,26.8180947 25.1883784,27.2148514 C25.6545946,27.6167433 25.8881081,28.1770136 25.8881081,28.895392 C25.8881081,29.6783649 25.5645946,30.3510677 24.9181081,30.9140406 C24.2710811,31.4767433 23.3143243,31.7583649 22.0475676,31.7583649 C20.897027,31.7583649 19.9867568,31.522419 19.3159459,31.0507974 C18.6454054,30.5789055 18.207027,29.9383649 18,29.1286352 L20.2424324,28.7826893 C20.3375676,29.222419 20.5310811,29.5562028 20.8227027,29.7843109 C21.1140541,30.0118785 21.5227027,30.1259325 22.0475676,30.1259325 C22.6251351,30.1259325 23.06,30.0186352 23.3516216,29.8043109 C23.5472973,29.6540406 23.6456757,29.4532298 23.6456757,29.2010677 C23.6456757,29.0297163 23.5924324,28.8872839 23.4867568,28.7748514 C23.3754054,28.6678244 23.1262162,28.5686352 22.7391892,28.4772839 C20.9367568,28.0751217 19.7945946,27.7080947 19.3118919,27.375392 C18.6443243,26.9143109 18.31,26.2737704 18.31,25.4535001 C18.31,24.7137704 18.5991892,24.0918785 19.1767568,23.5878244 C19.7545946,23.0840406 20.6505405,22.8318785 21.8645946,22.8318785 Z M29.427027,23.0248514 L29.427027,26.9491758 C29.427027,28.1505271 29.4681081,28.8862028 29.55,29.1567433 C29.6324324,29.4275541 29.7821622,29.6421487 29.9994595,29.8002568 C30.2167568,29.9583649 30.4927027,30.0372839 30.8264865,30.0372839 C31.2081081,30.0372839 31.55,29.9316082 31.8521622,29.7197163 C32.1543243,29.5080947 32.3610811,29.2451217 32.4724324,28.9316082 C32.5837838,28.6180947 32.6394595,27.8499866 32.6394595,26.6275541 L32.6394595,23.0248514 L34.8737838,23.0248514 L34.8737838,31.565392 L32.7983784,31.565392 L32.7983784,30.2867433 C32.4908108,30.742419 32.0867568,31.1018785 31.5859459,31.3643109 C31.0848649,31.6270136 30.5562162,31.7583649 29.9994595,31.7583649 C29.4321622,31.7583649 28.9232432,31.6321487 28.4727027,31.3805271 C28.0221622,31.1283649 27.6962162,30.7748514 27.4948649,30.3189055 C27.2932432,29.8635001 27.1927027,29.2332298 27.1927027,28.4291758 L27.1927027,23.0248514 L29.427027,23.0248514 Z M40.6608108,24.6172839 C40.1145946,24.6172839 39.6613514,24.8302568 39.3008108,25.2564731 C38.9402703,25.6826893 38.76,26.3140406 38.76,27.1502568 C38.76,28.1099866 38.9483784,28.8189055 39.3245946,29.2775541 C39.7010811,29.7359325 40.1597297,29.9651217 40.7002703,29.9651217 C41.2197297,29.9651217 41.6518919,29.7545812 41.9964865,29.3340406 C42.3408108,28.9129595 42.5132432,28.2226893 42.5132432,27.2626893 C42.5132432,26.3678244 42.3356757,25.7029595 41.9805405,25.2686352 C41.6254054,24.8343109 41.1854054,24.6172839 40.6608108,24.6172839 Z M54.7005405,20.8943109 C55.7783784,20.8943109 56.642973,21.2591758 57.2940541,21.9878244 C57.9445946,22.7170136 58.2702703,23.8221487 58.2702703,25.3037704 C58.2702703,26.8029595 57.9359459,27.9272839 57.2672973,28.6770136 C56.5986486,29.4264731 55.742973,29.8013379 54.7005405,29.8013379 C53.6578378,29.8013379 52.7975676,29.4237704 52.1202703,28.6680947 C51.4427027,27.9126893 51.1040541,26.8029595 51.1040541,25.3389055 C51.1040541,23.8516082 51.4340541,22.7391758 52.0937838,22.0013379 C52.7535135,21.2635001 53.6224324,20.8943109 54.7005405,20.8943109 Z" id="形状结合"></path>
            </g>
        </g>
    </g>
</svg>