<?xml version="1.0" encoding="utf-8"?>
<!-- Generator: Adobe Illustrator 21.0.0, SVG Export Plug-In . SVG Version: 6.00 Build 0)  -->
<svg version="1.1" id="图层_1" xmlns="http://www.w3.org/2000/svg" xmlns:xlink="http://www.w3.org/1999/xlink" x="0px" y="0px"
	 viewBox="0 0 96.1 49.9" style="enable-background:new 0 0 96.1 49.9;" xml:space="preserve">
<style type="text/css">
	.st0{fill:#008A2B;}
	.st1{fill:#00A625;}
	.st2{fill:#ABA881;}
	.st3{fill:#47261B;}
	.st4{fill:#966E49;}
</style>
<title>mongodb</title>
<desc>Created with Sketch.</desc>
<g id="组件库">
	<g id="组件2" transform="translate(-564.000000, -1618.000000)">
		<g id="图标" transform="translate(40.000000, 749.000000)">
			<g id="Component" transform="translate(40.000000, 725.000000)">
				<g id="Iconography" transform="translate(0.000000, 49.000000)">
					<g id="Icon" transform="translate(480.000000, 74.000000)">
						<g id="mongodb" transform="translate(4.000000, 21.000000)">
							<path id="路径" class="st0" d="M25.1,34.2V13.5c0.6,1.7,4.9,5.8,4.9,10.9C30,31.7,25.1,34.2,25.1,34.2z"/>
							<path id="路径_1_" class="st1" d="M20.2,24.4c0-5.1,4.2-9.3,4.9-10.9v20.7C25.1,34.2,20.2,31.7,20.2,24.4z"/>
							<path id="路径_2_" class="st2" d="M25.1,36.4c0.4,0,0.7-0.3,0.6-0.8V34v0c0-0.2-0.1-0.5-0.2-0.6l-0.4-0.6l-0.4,0.6l0,0
								c-0.1,0.2-0.2,0.4-0.2,0.6v1.7l0,0C24.5,36,24.8,36.3,25.1,36.4C25.2,36.4,25.2,36.4,25.1,36.4L25.1,36.4z"/>
							<path id="形状" class="st3" d="M33.7,23.5l0.6-0.6l0,0c0.1-0.1,0.3-0.2,0.5-0.3l0,0c0.2-0.1,0.4-0.1,0.5-0.1l0,0
								c0.3,0,0.5,0.1,0.8,0.3l0,0c0.2,0.2,0.4,0.5,0.4,0.8l0,0c0.2-0.3,0.5-0.6,0.9-0.8l0,0c0.2-0.1,0.5-0.2,0.8-0.2l0,0
								c0.2,0,0.5,0.1,0.7,0.2l0,0c0.2,0.2,0.4,0.4,0.5,0.6l0,0c0.1,0.3,0.1,0.6,0.1,0.9v2.1l0,0c0,0.2,0,0.4,0.1,0.6l0,0
								c0,0.1,0.1,0.1,0.2,0.2l0,0c0.1,0.1,0.3,0.1,0.5,0.1v0.2h-2.3v-0.2h0.1l0,0c0.2,0,0.3,0,0.5-0.1v0c0.1-0.1,0.1-0.2,0.2-0.3
								l0,0c0-0.2,0-0.3,0-0.5v-2.1l0,0c0-0.3,0-0.6-0.1-0.9l0,0C38.3,23.1,38,23,37.8,23l0,0c-0.2,0-0.4,0-0.6,0.1l0,0
								c-0.2,0.1-0.5,0.3-0.7,0.5v2.6l0,0c0,0.2,0,0.4,0.1,0.6l0,0c0,0.1,0.1,0.2,0.2,0.2l0,0c0.2,0.1,0.3,0.1,0.5,0.1v0.2h-2.4
								v-0.1l0,0c0.2,0,0.4,0,0.5-0.1l0,0c0.1-0.1,0.2-0.2,0.2-0.3l0,0c0-0.2,0-0.3,0-0.5v-2.1l0,0c0-0.3,0-0.6-0.2-0.9l0,0
								c-0.1-0.2-0.4-0.3-0.6-0.3l0,0c-0.2,0-0.4,0.1-0.6,0.2l0,0c-0.3,0.1-0.5,0.3-0.7,0.5v2.6l0,0c0,0.2,0,0.4,0.1,0.6l0,0
								c0,0.1,0.1,0.2,0.2,0.2l0,0c0.2,0.1,0.3,0.1,0.5,0.1v0.2h-2.3v-0.2l0,0c0.2,0,0.3,0,0.5-0.1l0,0c0.1,0,0.2-0.1,0.2-0.2l0,0
								c0.1-0.2,0.1-0.4,0.1-0.6v-1.8v0c0-0.3,0-0.7,0-1l0,0c0-0.1-0.1-0.2-0.1-0.2l0,0c-0.1,0-0.1-0.1-0.2-0.1l0,0
								c-0.1,0-0.2,0-0.3,0.1L32,23l1.4-0.6h0.2L33.7,23.5L33.7,23.5z M44.6,23.3L44.6,23.3c-0.4-0.5-1.1-0.8-1.7-0.8l0,0
								c-0.8,0-1.6,0.5-2,1.3l0,0c-0.2,0.4-0.3,0.8-0.3,1.3v0c0,0.6,0.2,1.2,0.6,1.6l0,0c0.4,0.6,1,0.9,1.7,0.9l0,0
								c0.4,0,0.8-0.1,1.2-0.3l0,0c0.4-0.2,0.7-0.6,0.9-1l0,0c0.2-0.4,0.3-0.8,0.3-1.3v0C45.2,24.3,45,23.7,44.6,23.3L44.6,23.3z
								 M43.8,26.7L43.8,26.7c-0.2,0.3-0.5,0.4-0.9,0.4l0,0c-0.5-0.1-0.8-0.4-1-0.8l0,0c-0.3-0.6-0.4-1.2-0.4-1.8l0,0
								c0-0.4,0-0.7,0.2-1.1l0,0c0.1-0.2,0.2-0.4,0.5-0.6l0,0c0.2-0.1,0.4-0.2,0.6-0.2l0,0c0.4,0,0.7,0.2,0.9,0.5l0,0
								c0.4,0.6,0.6,1.3,0.5,2v0C44.2,25.8,44.1,26.3,43.8,26.7L43.8,26.7z M47.2,23.5L47.2,23.5c0.4-0.6,0.9-0.9,1.6-1l0,0
								c0.2,0,0.5,0.1,0.7,0.2l0,0c0.2,0.2,0.4,0.4,0.4,0.7v0c0.1,0.3,0.1,0.6,0.1,1v2l0,0c0,0.2,0,0.4,0.1,0.6l0,0
								c0,0.1,0.1,0.2,0.2,0.2l0,0c0.1,0.1,0.3,0.1,0.5,0.1v0.2h-2.4v-0.2h0.1l0,0c0.2,0,0.3,0,0.5-0.1l0,0c0.1-0.1,0.2-0.2,0.2-0.3
								l0,0c0-0.2,0-0.3,0-0.5v-2l0,0c0-0.3,0-0.7-0.2-0.9l0,0c-0.1-0.2-0.3-0.3-0.6-0.3l0,0c-0.5,0-0.9,0.3-1.2,0.7v2.5v0
								c0,0.2,0,0.4,0.1,0.6l0,0c0,0.1,0.1,0.2,0.2,0.2l0,0c0.2,0.1,0.3,0.1,0.5,0.1v0.2h-2.3v-0.2h0.1l0,0c0.2,0,0.4,0,0.5-0.2l0,0
								c0.1-0.2,0.2-0.5,0.1-0.7v-1.7v0c0-0.4,0-0.7-0.1-1.1l0,0c0-0.1,0-0.2-0.1-0.3l0,0c-0.1-0.1-0.1-0.1-0.2-0.1l0,0
								c-0.1,0-0.2,0-0.3,0.1L45.6,23l1.4-0.6h0.2L47.2,23.5L47.2,23.5z M55.9,22.8L55.9,22.8C55.9,22.8,55.9,22.8,55.9,22.8
								L55.9,22.8c-0.1-0.1-0.2-0.1-0.3,0h-1l0,0c-0.3-0.2-0.8-0.3-1.2-0.3l0,0c-0.5,0-1,0.2-1.4,0.5l0,0c-0.6,0.5-0.7,1.4-0.3,2.1
								l0,0c0.2,0.3,0.4,0.5,0.7,0.6l0,0c-0.3,0.2-0.5,0.4-0.7,0.7l0,0c-0.1,0.1-0.1,0.3-0.1,0.4l0,0c0,0.1,0,0.2,0.1,0.3l0,0
								c0.1,0.1,0.2,0.2,0.4,0.3l-0.5,0.6l0,0c-0.1,0.2-0.3,0.3-0.4,0.5l0,0c0,0.1-0.1,0.2-0.1,0.3c0,0.2,0.1,0.4,0.4,0.5l0,0
								c1.2,0.7,2.7,0.6,3.8-0.3l0,0c0.3-0.3,0.5-0.7,0.5-1.1v0c0-0.3-0.1-0.5-0.3-0.7l0,0c-0.2-0.2-0.5-0.3-0.8-0.4
								c-0.2,0-0.7-0.1-1.4-0.1h-0.7l0,0c-0.1,0-0.2-0.1-0.3-0.1l0,0c0,0-0.1-0.1-0.1-0.2l0,0c0-0.1,0-0.2,0.1-0.3l0,0
								c0.1-0.1,0.2-0.3,0.3-0.3l0,0c0.2,0.1,0.5,0.1,0.7,0.1l0,0c0.5,0,1-0.1,1.4-0.5l0,0c0.3-0.3,0.5-0.7,0.5-1.1v0
								c0-0.4-0.1-0.7-0.3-1h0.9l0,0c0,0,0,0,0.1,0l0,0c0-0.1,0-0.1,0-0.2l0,0C55.9,23,55.9,22.9,55.9,22.8L55.9,22.8z M52.4,27.4
								L52.4,27.4c0.6,0.1,1.2,0.1,1.8,0.1l0,0c0.4,0,0.7,0,1.1,0.1l0,0c0.2,0.1,0.3,0.2,0.3,0.4v0c0,0.3-0.2,0.6-0.4,0.7l0,0
								c-0.4,0.3-0.9,0.4-1.4,0.3l0,0c-0.5,0-1-0.1-1.5-0.3l0,0c-0.2-0.1-0.3-0.2-0.3-0.4l0,0c0-0.1,0-0.3,0.1-0.4l0,0
								C52.1,27.7,52.2,27.5,52.4,27.4L52.4,27.4z M54.1,25.3L54.1,25.3c-0.2,0.2-0.4,0.3-0.7,0.3l0,0c-0.3,0-0.5-0.1-0.7-0.3l0,0
								c-0.3-0.4-0.4-0.8-0.3-1.3l0,0c0-0.3,0.1-0.7,0.3-0.9l0,0c0.3-0.4,0.9-0.4,1.2-0.1c0,0,0.1,0.1,0.1,0.1l0,0
								c0.3,0.4,0.4,0.8,0.4,1.3l0,0C54.4,24.6,54.3,25,54.1,25.3L54.1,25.3z M60.5,23.3L60.5,23.3c-0.4-0.5-1.1-0.8-1.7-0.8l0,0
								c-0.8,0-1.6,0.5-2,1.3l0,0c-0.2,0.4-0.3,0.8-0.3,1.3v0c0,0.6,0.2,1.2,0.5,1.6l0,0c0.4,0.6,1,0.9,1.7,0.9l0,0
								c0.4,0,0.8-0.1,1.2-0.3l0,0c0.4-0.2,0.7-0.6,0.9-1l0,0c0.2-0.4,0.3-0.9,0.2-1.3l0,0C61.1,24.3,60.9,23.7,60.5,23.3L60.5,23.3
								z M59.8,26.7L59.8,26.7c-0.2,0.3-0.5,0.4-0.9,0.4l0,0c-0.5,0-0.9-0.3-1.1-0.8l0,0c-0.3-0.6-0.4-1.2-0.4-1.8l0,0
								c0-0.4,0-0.7,0.2-1.1l0,0c0.1-0.2,0.2-0.4,0.4-0.6l0,0c0.2-0.1,0.4-0.2,0.6-0.2l0,0c0.4,0,0.7,0.2,0.9,0.5l0,0
								c0.4,0.6,0.6,1.3,0.5,2l0,0C60.1,25.8,60,26.3,59.8,26.7L59.8,26.7z"/>
							<path id="形状_1_" class="st4" d="M68.2,21.9L68.2,21.9c-0.3-0.6-0.8-1-1.4-1.3l0,0c-0.6-0.3-1.3-0.4-2-0.3h-3.2v0.2h0.2
								l0,0c0.2,0,0.3,0,0.5,0.1l0,0c0.1,0.1,0.2,0.1,0.2,0.2l0,0c0,0.2,0.1,0.5,0.1,0.7v4.7v0c0,0.2,0,0.4,0,0.7l0,0
								c-0.1,0.1-0.1,0.2-0.2,0.3l0,0c-0.1,0.1-0.3,0.1-0.5,0.1h-0.2v0.2h3.2l0,0c0.3,0,0.7,0,1-0.1l0,0c0.4-0.1,0.8-0.2,1.2-0.4
								l0,0c0.3-0.2,0.6-0.4,0.9-0.7l0,0c0.3-0.3,0.5-0.7,0.6-1l0,0c0.2-0.4,0.2-0.9,0.2-1.4v0C68.7,23.2,68.5,22.5,68.2,21.9
								L68.2,21.9z M66.2,26.4L66.2,26.4c-0.3,0.4-0.8,0.6-1.3,0.6l0,0c-0.1,0-0.3,0-0.4-0.1l0,0c-0.1,0-0.1-0.1-0.1-0.2l0,0
								c0-0.2-0.1-0.4,0-0.5v-5.5l0,0c0.4,0,0.8,0,1.2,0.2l0,0c0.4,0.2,0.7,0.5,0.9,0.9l0,0c0.3,0.7,0.5,1.4,0.4,2.2l0,0
								C66.9,24.8,66.7,25.6,66.2,26.4L66.2,26.4z M75.3,24.2L75.3,24.2c-0.4-0.3-0.9-0.5-1.4-0.6l0,0c0.5-0.1,0.9-0.3,1.3-0.6v0
								c0.2-0.2,0.4-0.5,0.4-0.9v0c0-0.3-0.1-0.6-0.3-0.9l0,0c-0.2-0.3-0.5-0.5-0.8-0.6l0,0c-0.6-0.2-1.1-0.3-1.7-0.2h-3.3v0.2l0,0
								c0.2,0,0.4,0,0.7,0.1l0,0c0.1,0.1,0.2,0.1,0.2,0.2l0,0c0.1,0.2,0.1,0.5,0.1,0.7v4.6l0,0c0,0.2,0,0.5-0.1,0.7l0,0
								c-0.1,0.1-0.1,0.2-0.2,0.2l0,0c-0.2,0.1-0.4,0.1-0.7,0.1v0.2h3.6l0,0c0.8,0.1,1.6-0.2,2.3-0.6l0,0c0.4-0.3,0.6-0.8,0.6-1.3
								l0,0C75.9,24.9,75.6,24.5,75.3,24.2L75.3,24.2z M72,20.7L72,20.7c0.4,0,0.7,0,1.1,0.1l0,0c0.2,0.1,0.4,0.3,0.5,0.5l0,0
								c0.1,0.2,0.2,0.5,0.2,0.8l0,0c0,0.3-0.1,0.5-0.2,0.8l0,0c-0.1,0.2-0.3,0.4-0.5,0.5l0,0c-0.3,0.1-0.7,0.2-1.1,0.2V20.7z
								 M73.8,26.3L73.8,26.3c-0.1,0.2-0.3,0.4-0.5,0.5l0,0c-0.2,0.1-0.5,0.2-0.8,0.2l0,0c-0.2,0-0.3,0-0.4-0.1l0,0
								C72,26.7,72,26.6,72,26.4v-2.5l0,0c0.4,0,0.8,0,1.2,0.1l0,0c0.3,0.1,0.5,0.3,0.6,0.6l0,0c0.2,0.3,0.2,0.6,0.2,0.9l0,0
								C74,25.7,74,26,73.8,26.3L73.8,26.3z"/>
						</g>
					</g>
				</g>
			</g>
		</g>
	</g>
</g>
</svg>
