<?xml version="1.0" encoding="utf-8"?>
<!-- Generator: Adobe Illustrator 21.0.0, SVG Export Plug-In . SVG Version: 6.00 Build 0)  -->
<svg version="1.1" id="图层_1" xmlns="http://www.w3.org/2000/svg" xmlns:xlink="http://www.w3.org/1999/xlink" x="0px" y="0px"
	 viewBox="0 0 96.1 49.9" style="enable-background:new 0 0 96.1 49.9;" xml:space="preserve">
<style type="text/css">
	.st0{fill:#1296DB;}
</style>
<title>my-SQL</title>
<desc>Created with Sketch.</desc>
<g id="组件库">
	<g id="组件2" transform="translate(-93.000000, -1541.000000)">
		<g id="图标" transform="translate(40.000000, 749.000000)">
			<g id="Component" transform="translate(40.000000, 725.000000)">
				<g id="Iconography" transform="translate(0.000000, 49.000000)">
					<g id="my-SQL" transform="translate(13.000000, 18.000000)">
						<path id="形状" class="st0" d="M67,27.1c-0.1-0.1-0.2-0.2-0.3-0.3c-0.3-0.4-0.7-0.8-1.1-1.2c-0.3-0.3-1-0.6-1.2-1l0,0
							c0.2,0,0.5-0.1,0.7-0.2c0.3-0.1,0.7-0.1,1-0.2c0.2,0,0.3-0.1,0.5-0.2V24c-0.2-0.2-0.3-0.5-0.5-0.7c-0.5-0.5-1.1-1-1.7-1.4
							c-0.3-0.2-0.7-0.4-1.1-0.6c-0.1-0.1-0.3-0.1-0.4-0.2c-0.2-0.3-0.3-0.6-0.4-0.9c-0.3-0.7-0.6-1.3-0.8-2
							c-0.2-0.5-0.3-0.9-0.5-1.3c-1-2-2.2-3.2-3.9-4.3c-0.4-0.2-0.8-0.3-1.3-0.5c-0.3,0-0.5,0-0.8,0c-0.2-0.1-0.3-0.3-0.5-0.4
							c-0.6-0.4-2.1-1.3-2.5-0.1c-0.3,0.8,0.4,1.5,0.6,1.9c0.2,0.3,0.4,0.6,0.5,0.9c0.1,0.2,0.1,0.4,0.2,0.6
							c0.2,0.5,0.3,1.1,0.5,1.6c0.1,0.2,0.2,0.5,0.4,0.7c0.1,0.1,0.2,0.2,0.3,0.4c-0.1,0.2-0.2,0.6-0.2,0.9
							c-0.4,1.3-0.2,2.9,0.3,3.9c0.2,0.3,0.5,0.9,1.1,0.7c0.5-0.2,0.4-0.9,0.5-1.4c0-0.1,0-0.2,0.1-0.3v0c0.1,0.3,0.3,0.6,0.4,1
							c0.3,0.6,0.9,1.2,1.3,1.5c0.2,0.2,0.4,0.6,0.7,0.7v0h0c-0.1-0.1-0.2-0.2-0.2-0.2c-0.2-0.2-0.4-0.4-0.5-0.7
							c-0.4-0.7-0.8-1.4-1.1-2.1c-0.2-0.4-0.3-0.8-0.4-1.1c-0.1-0.1-0.1-0.3-0.2-0.4c-0.2,0.3-0.4,0.5-0.5,0.8
							c-0.2,0.5-0.2,1.1-0.3,1.7c0,0,0,0,0,0c-0.3-0.1-0.4-0.5-0.6-0.8c-0.3-0.8-0.4-2.1-0.1-3.1c0.1-0.2,0.4-1,0.3-1.2
							c-0.1-0.2-0.3-0.3-0.4-0.5c-0.1-0.2-0.3-0.5-0.4-0.7c-0.2-0.6-0.4-1.4-0.6-2c-0.1-0.3-0.3-0.6-0.5-0.9
							c-0.2-0.3-0.4-0.5-0.6-0.9c-0.1-0.1-0.1-0.3,0-0.5c0-0.1,0.1-0.1,0.1-0.2c0.1-0.1,0.5,0,0.6,0.1c0.4,0.2,0.7,0.3,1,0.6
							c0.1,0.1,0.3,0.3,0.5,0.4h0.2c0.3,0.1,0.7,0,1,0.1c0.5,0.2,1,0.5,1.5,0.8c1.3,1,2.4,2.3,3.2,4c0.1,0.3,0.2,0.5,0.3,0.8
							c0.2,0.6,0.5,1.1,0.7,1.7c0.2,0.5,0.4,1.1,0.7,1.6c0.2,0.2,0.8,0.4,1,0.5c0.2,0.1,0.5,0.2,0.7,0.3c0.3,0.2,0.7,0.5,1,0.8
							c0.2,0.1,0.7,0.4,0.7,0.7c-0.8,0-1.4,0.1-2,0.3c-0.2,0.1-0.4,0.1-0.4,0.3c0.1,0.1,0.1,0.2,0.2,0.4c0.1,0.2,0.3,0.5,0.5,0.7
							c0.2,0.2,0.4,0.4,0.6,0.5c0.4,0.3,0.8,0.4,1.2,0.7c0.2,0.2,0.4,0.4,0.7,0.5c0.1,0.1,0.2,0.2,0.3,0.3v0
							C67.1,27.4,67.1,27.2,67,27.1L67,27.1z M35.5,27l-2,7h0l-2-7h-1.7c-0.3,3-0.7,6.2-0.8,9.6h1.6c0-2.5,0-4.8,0.2-7.3h0l2,7.3H34
							l2-7.3h0c0.2,2.5,0.3,4.8,0.3,7.3H38c-0.1-2.9-0.5-6.1-0.8-9.6L35.5,27L35.5,27z M41.3,35.2c0-0.4-0.1-0.7-0.3-1.6l-1.1-4.1
							h-1.7l1.5,5.5c0.2,0.8,0.3,1.4,0.3,1.6c0,0.4,0,0.5-0.2,0.7c-0.2,0.3-0.6,0.4-1,0.4c-0.2,0-0.4,0-0.6,0v1.2
							c0.3,0.2,0.6,0.2,0.9,0.2c0.9,0,1.7-0.6,2.4-1.9c0.9-1.6,1.7-4.2,2.3-7.7h-1.6C42.1,31.6,41.9,33.3,41.3,35.2L41.3,35.2z
							 M61.9,27h-1.6v9.6h4V35h-2.4V27z M57.7,35.9c0.1-0.1,0.3-0.3,0.4-0.4c0.7-0.9,1-2.2,1-3.9c0-3.2-1.1-4.7-3.3-4.7
							c-1.1,0-1.9,0.4-2.5,1.2c-0.7,0.9-1,2.2-1,3.9c0,1.7,0.3,2.9,0.9,3.7c0.5,0.7,1.3,1.1,2.4,1.1c0.4,0,0.8-0.1,1.1-0.2l2,1.3
							l0.5-1.1h0L57.7,35.9z M55.8,35c-0.6,0-1-0.3-1.3-0.7v0c-0.3-0.5-0.4-1.4-0.4-2.6c0-2.1,0.6-3.1,1.7-3.1c0.6,0,1,0.3,1.3,0.7
							c0.3,0.5,0.4,1.4,0.4,2.6C57.4,33.9,56.9,35,55.8,35L55.8,35z M50.8,31.9c0,0-1.2-0.8-1.8-1.2c-0.7-0.4-1.1-0.9-1.1-1.5
							c0-0.3,0.2-0.6,0.4-0.8c0.2-0.2,0.6-0.4,1-0.4c0.6,0,1.1,0.3,1.6,0.5l0.3-1.3c-0.6-0.5-1.3-0.7-2.1-0.7
							c-0.8,0-1.4,0.2-1.8,0.7c-0.5,0.5-0.9,1.4-0.9,2.1c0,0.9,0.3,1.5,1,2c0,0,1.2,0.8,1.8,1.1c0.6,0.4,1,0.9,1,1.5
							c0,0.4-0.2,0.8-0.5,1.1c-0.3,0.3-0.6,0.1-1,0.1c-0.5,0-1.1-0.2-1.8-0.6l-0.4,1.1c0.8,0.6,1.6,0.9,2.4,0.9
							c0.9,0,1.6-0.3,2.1-0.8c0.5-0.5,0.8-1.2,0.8-2l0,0C51.8,32.9,51.5,32.4,50.8,31.9L50.8,31.9z"/>
						<path id="路径" class="st0" d="M55.6,13.8c-0.2,0-0.3,0-0.4,0.1v0h0c0.1,0.2,0.2,0.3,0.3,0.5c0.1,0.2,0.2,0.4,0.2,0.6l0,0
							c0.1-0.1,0.2-0.3,0.2-0.6C56,14.2,56,14.1,55.9,14C55.9,13.9,55.7,13.9,55.6,13.8z"/>
					</g>
				</g>
			</g>
		</g>
	</g>
</g>
</svg>
