<svg width="96" height="50" xmlns="http://www.w3.org/2000/svg" version="1.1">
 <!-- Generator: Sketch 57.1 (83088) - https://sketch.com -->

 <title>networkfile</title>
 <desc>Created with Sketch.</desc>
 <g>
  <title>Layer 1</title>
  <g>
   <title>编组 17</title>
   <g fill-rule="evenodd" fill="none" id="svg_1">
    <g transform="translate(-822 -527)" id="svg_2">
     <g transform="translate(780 512.934)" id="svg_3">
      <g transform="translate(41.5062 14.5188)" id="svg_4">
       <rect height="2" width="15" y="35.65296" x="31.49375" fill="#694B4B" id="svg_9"/>
       <rect height="2" width="15" y="35.65296" x="50.49375" fill="#694B4B" id="svg_8"/>
       <rect height="4" width="2" y="30.01691" x="47.49375" fill="#694B4B" id="svg_7"/>
       <circle r="2.5" cy="36.51691" cx="48.5" fill="#D8D8D8" fill-opacity="0" stroke-width="2" stroke="#593F3F" id="svg_6"/>
       <path fill-rule="nonzero" fill="#694B4B" id="svg_5" d="m37.625,12.5089l10.69063,0c0,0 1.38124,-2.43125 2.78437,-2.43125l7.96563,0c0.64687,0 1.17812,0.61875 1.17812,1.375l0.03437,18.69063c0,0.75624 -0.61874,1.375 -1.375,1.375l-21.28125,0c-0.75624,0 -1.37499,-0.61876 -1.37499,-1.375l0,-16.25938c0.00312,-0.75625 0.62187,-1.375 1.37812,-1.375z"/>
       <polygon points="59.27187728881836,25.793274879455566 37.771873474121094,26.99014949798584 37.078125,14.290149688720703 58.58124923706055,12.437024116516113 " fill-rule="nonzero" fill="#593F3F" id="路径"/>
       <polygon points="59.51874923706055,25.80264949798584 39.875,26.902649879455566 39.21562576293945,14.77764892578125 59.046875,13.67764949798584 " fill-rule="nonzero" fill="#593F3F" id="路径"/>
       <polygon points="58.578125,25.86202335357666 39.12187576293945,27.465149879455566 38.4375,15.483899116516113 57.91875076293945,13.737024307250977 " fill-rule="nonzero" fill="#FFFFFF" id="路径"/>
       <polygon points="57.55312728881836,27.155774116516113 37.88750076293945,28.246399879455566 37.193748474121094,15.549524307250977 56.87187576293945,14.046399116516113 " fill-rule="nonzero" fill="#F2F2F1" id="路径"/>
       <polygon points="57.181251525878906,27.105774879455566 37.837501525878906,28.24014949798584 37.146873474121094,15.54327392578125 56.484375,14.290149688720703 " fill-rule="nonzero" fill="#FFFFFF" id="路径"/>
       <path fill-rule="nonzero" fill="#0F71E2" id="路径" d="m60.28125,18.09328l-12.06563,0c0,0 -1.38124,-2.23125 -2.78437,-2.23125l-9.21562,0c-0.64688,0 -1.21563,0.50937 -1.21563,1.125l1.25,13.41249c0,0.61563 0.61875,1.11876 1.375,1.11876l21.40625,0c0.75625,0 1.375,-0.50313 1.375,-1.11876l1.25,-11.18749c0,-0.61563 -0.61875,-1.11875 -1.375,-1.11875z"/>
      </g>
     </g>
    </g>
   </g>
  </g>
 </g>
</svg>