<?xml version="1.0" encoding="utf-8"?>
<!-- Generator: Adobe Illustrator 21.0.0, SVG Export Plug-In . SVG Version: 6.00 Build 0)  -->
<svg version="1.1" id="图层_1" xmlns="http://www.w3.org/2000/svg" xmlns:xlink="http://www.w3.org/1999/xlink" x="0px" y="0px"
	 viewBox="0 0 96.1 49.9" style="enable-background:new 0 0 96.1 49.9;" xml:space="preserve">
<style type="text/css">
	.st0{fill:#EA1B22;}
</style>
<title>oracle</title>
<desc>Created with Sketch.</desc>
<g id="组件库">
	<g id="组件2" transform="translate(-368.000000, -1551.000000)">
		<g id="图标" transform="translate(40.000000, 749.000000)">
			<g id="Component" transform="translate(40.000000, 725.000000)">
				<g id="Iconography" transform="translate(0.000000, 49.000000)">
					<g id="Icon" transform="translate(288.000000, 0.000000)">
						<g id="oracle" transform="translate(0.000000, 27.000000)">
							<path id="形状" class="st0" d="M43.7,27.2h4.2l-2.2-3.6L41.6,30h-1.9l5-7.7c0.2-0.3,0.6-0.5,1-0.5c0.4,0,0.7,0.2,1,0.5
								l5,7.7h-1.9l-0.9-1.5h-4.2L43.7,27.2L43.7,27.2z M62.9,28.6v-6.7h-1.6v7.4c0,0.2,0.1,0.4,0.2,0.6c0.1,0.1,0.3,0.2,0.6,0.2
								h7.2l0.9-1.5H62.9L62.9,28.6z M37,27.4c1.5,0,2.8-1.2,2.8-2.8c0-1.5-1.2-2.8-2.8-2.8h-6.9V30h1.6v-6.7h5.2
								c0.7,0,1.3,0.6,1.3,1.3c0,0.7-0.6,1.3-1.3,1.3h-4.4l4.7,4.1h2.3l-3.2-2.6L37,27.4L37,27.4z M20.4,30c-2.2,0-4.1-1.8-4.1-4.1
								c0-2.2,1.8-4.1,4.1-4.1h4.7c2.2,0,4.1,1.8,4.1,4.1c0,2.2-1.8,4.1-4.1,4.1L20.4,30L20.4,30L20.4,30z M25.1,28.6
								c1.5,0,2.6-1.2,2.6-2.6c0-1.5-1.2-2.6-2.6-2.6h-4.5c-1.5,0-2.6,1.2-2.6,2.6c0,1.5,1.2,2.6,2.6,2.6H25.1z M54.8,30
								c-2.2,0-4.1-1.8-4.1-4.1c0-2.2,1.8-4.1,4.1-4.1h5.6l-0.9,1.5h-4.6c-1.5,0-2.6,1.2-2.6,2.6c0,1.5,1.2,2.6,2.6,2.6h5.7
								l-0.9,1.5L54.8,30L54.8,30z M74,28.6c-1.2,0-2.2-0.8-2.5-1.9h6.7l0.9-1.5h-7.6c0.3-1.1,1.3-1.9,2.5-1.9h4.6l0.9-1.5H74
								c-2.2,0-4.1,1.8-4.1,4.1c0,2.2,1.8,4.1,4.1,4.1h4.8l0.9-1.5L74,28.6L74,28.6L74,28.6z"/>
						</g>
					</g>
				</g>
			</g>
		</g>
	</g>
</g>
</svg>
