<?xml version="1.0" encoding="utf-8"?>
<!-- Generator: Adobe Illustrator 21.0.0, SVG Export Plug-In . SVG Version: 6.00 Build 0)  -->
<svg version="1.1" id="图层_1" xmlns="http://www.w3.org/2000/svg" xmlns:xlink="http://www.w3.org/1999/xlink" x="0px" y="0px"
	 viewBox="0 0 96.1 49.9" style="enable-background:new 0 0 96.1 49.9;" xml:space="preserve">
<style type="text/css">
	.st0{fill:#00C1DE;}
</style>
<title>oss</title>
<desc>Created with Sketch.</desc>
<g id="组件库">
	<g id="组件2" transform="translate(-292.000000, -1620.000000)">
		<g id="图标" transform="translate(40.000000, 749.000000)">
			<g id="Component" transform="translate(40.000000, 725.000000)">
				<g id="Iconography" transform="translate(0.000000, 49.000000)">
					<g id="Icon" transform="translate(192.000000, 74.000000)">
						<g id="oss" transform="translate(20.000000, 23.000000)">
							<path id="路径" class="st0" d="M50.8,16c-4.2,0-7.8,2.9-8.7,6.8l0,0c-0.1,0-0.2,0-0.3,0c-3.1,0-5.6,2.5-5.6,5.6v0
								c0,1.5,0.6,2.9,1.6,3.9l0,0c1,1,2.5,1.6,3.9,1.6l0,0c1.5,0,2.9-0.6,3.9-1.6c0.9-0.9,1.4-2,1.5-3.3l-2-0.2
								c-0.5-0.1-0.6-0.4-0.3-0.8l3.4-4.2c0.3-0.4,0.7-0.3,0.8,0.1l1.9,4.7c0.2,0.4,0,0.7-0.5,0.7l-1.5-0.1c-0.2,1.6-0.9,2.9-1.9,4
								l0,0c1.1,0.5,2.3,0.7,3.6,0.7c5,0,9-4,9-9C59.8,20,55.8,16,50.8,16L50.8,16z"/>
						</g>
					</g>
				</g>
			</g>
		</g>
	</g>
</g>
</svg>
