<?xml version="1.0" encoding="utf-8"?>
<!-- Generator: Adobe Illustrator 21.0.0, SVG Export Plug-In . SVG Version: 6.00 Build 0)  -->
<svg version="1.1" id="图层_1" xmlns="http://www.w3.org/2000/svg" xmlns:xlink="http://www.w3.org/1999/xlink" x="0px" y="0px"
	 viewBox="0 0 96.1 49.9" style="enable-background:new 0 0 96.1 49.9;" xml:space="preserve">
<style type="text/css">
	.st0{fill:#00C1DE;}
</style>
<title>POLARDB</title>
<desc>Created with Sketch.</desc>
<g id="组件库">
	<g id="组件2" transform="translate(-674.000000, -1543.000000)">
		<g id="图标" transform="translate(40.000000, 749.000000)">
			<g id="Component" transform="translate(40.000000, 725.000000)">
				<g id="Iconography" transform="translate(0.000000, 49.000000)">
					<g id="Icon" transform="translate(576.000000, 0.000000)">
						<g id="POLARDB" transform="translate(18.000000, 20.000000)">
							<path id="形状" class="st0" d="M57.3,13.5l-4.2,2.4L48,13L43,15.9l-4.2-2.4l-4.6,2.7h0v5.4l3.6,2.1v7.3l10.3,6l10.3-5.9h0
								v-7.3l3.5-2.1v-5.4L57.3,13.5z M35.9,20.6v-3.3l2.9-1.6l2.9,1.7v1.5l6.4-3.7l6.4,3.7v-1.5l2.9-1.6l2.9,1.7v3.3l-3.6,2.1v7.3
								L48,34.8l-8.6-4.9v-7.3L35.9,20.6z"/>
							<polygon id="路径" class="st0" points="47.1,30 48.9,30 48.9,27.6 52.8,25.3 52.8,23.3 47.9,26.1 43.3,23.5 43.3,25.5 
								47.1,27.7 47.1,30 							"/>
						</g>
					</g>
				</g>
			</g>
		</g>
	</g>
</g>
</svg>
