<?xml version="1.0" encoding="utf-8"?>
<!-- Generator: Adobe Illustrator 21.0.0, SVG Export Plug-In . SVG Version: 6.00 Build 0)  -->
<svg version="1.1" id="图层_1" xmlns="http://www.w3.org/2000/svg" xmlns:xlink="http://www.w3.org/1999/xlink" x="0px" y="0px"
	 viewBox="0 0 96.1 49.9" style="enable-background:new 0 0 96.1 49.9;" xml:space="preserve">
<style type="text/css">
	.st0{fill:#1AB394;}
</style>
<title>postgresql</title>
<desc>Created with Sketch.</desc>
<g id="组件库">
	<g id="组件2" transform="translate(-289.000000, -1540.000000)">
		<g id="图标" transform="translate(40.000000, 749.000000)">
			<g id="Component" transform="translate(40.000000, 725.000000)">
				<g id="Iconography" transform="translate(0.000000, 49.000000)">
					<g id="Icon" transform="translate(192.000000, 0.000000)">
						<g id="postgresql" transform="translate(17.000000, 16.000000)">
							<path id="形状" class="st0" d="M50.8,40.9L50.8,40.9c-2.6,0-2.8-3.5-3-6.5c-0.1-1.3-0.2-2.6-0.4-3.5
								c-0.3-1.1-0.7-1.2-1-1.2c-1.8,0.1-3-0.9-3.7-1.7c-1-1.2-1.5-2.8-1.3-3.8c0.3-1.4,0.2-3.4,0.2-3.4v0c0-0.1-0.1-2.2,0.7-4.5
								c1-3,3.1-4.7,5.9-4.9l0,0c1-0.1,2,0,3,0.3c0.9-0.9,3-0.9,4.7-0.7c2.5,0.3,5.6,1.4,6.2,3.5c0.6,1.8-0.1,5.1-0.5,6.5
								c-0.6,2.6-1.6,5.2-2.5,6.7c-0.6,0.9-1.1,1.4-1.6,1.5C56,29.7,55.7,31,55.7,34c0,1.9-0.2,4.3-1.6,5.8
								C53.3,40.5,52.2,40.9,50.8,40.9L50.8,40.9z M46.4,28.9c0.9,0,1.5,0.6,1.8,1.8c0.3,1,0.3,2.3,0.4,3.6c0.2,2.8,0.3,5.7,2.1,5.7
								c1.2,0,2.1-0.3,2.8-1c1.3-1.2,1.4-3.6,1.4-5.2c0-2.9,0.2-4.9,2.5-5.4c0.1,0,0.4-0.1,1-1.2c1.8-3,3.7-10.2,2.9-12.6
								c-0.5-1.6-3.2-2.6-5.6-3c-1.7-0.2-3-0.1-3.7,0.2c1.8,0.8,3.1,2.1,3.8,3c1.4,1.7,2.1,3.7,1.9,4.4c-0.3,1-0.1,3.6,0,5.5l0,0.2
								c0.1,2.1-1.2,3.3-1.2,3.4l-0.5-0.6c0,0,1.1-1,1-2.7l0-0.2c-0.1-2-0.3-4.6,0-5.7c0.1-0.3-0.4-2-1.8-3.7
								c-1.1-1.3-3.4-3.6-7.1-3.3c-2.5,0.2-4.2,1.6-5.2,4.3c-0.7,2.1-0.7,4.1-0.7,4.2c0,0.2,0.1,2.2-0.2,3.6
								c-0.2,0.7,0.2,2.1,1.1,3.1C43.8,28.2,44.8,29,46.4,28.9C46.3,28.9,46.4,28.9,46.4,28.9L46.4,28.9z"/>
							<path id="路径" class="st0" d="M39.7,33L39.7,33c-0.3,0-0.5-0.1-0.7-0.2c-1.7-1.1-3.3-6.1-3.8-7.6c-0.9-2.9-1.7-7-1.3-9.1
								c0.3-1.6,1-2.7,2.2-3.4c1.8-1.1,4.7-1.1,8.7,0.1l-0.2,0.8c-3.8-1.1-6.5-1.1-8.1-0.2C35.6,14,35,15,34.7,16.3
								c-0.7,3.5,2.5,14.5,4.7,15.8c0.3,0.2,0.4,0.1,0.5,0c2.2-1.6,3.6-3.8,3.6-3.8l0.7,0.4c-0.1,0.1-1.4,2.3-3.8,4l0,0
								C40.1,33,39.9,33,39.7,33L39.7,33z"/>
							<path id="形状_1_" class="st0" d="M46.5,29.5l-0.8-0.2c0.3-1,0.3-1.1,0.4-1.3c0.1-0.2,0.2-0.4,0.5-1.6
								c0.8-2.4,0.6-6.1-0.7-6.7c-1.1-0.5-3.2,0.3-3.9,0.7l-0.4-0.7c0.1-0.1,2.8-1.6,4.6-0.8c0.9,0.4,1.4,1.6,1.6,3.3
								c0.1,1.5,0,3.1-0.5,4.4c-0.4,1.2-0.5,1.5-0.6,1.6C46.9,28.4,46.8,28.4,46.5,29.5L46.5,29.5z M57,29.5
								c-2.2-2.2-3.1-4.4-3.5-5.9c-0.4-1.7-0.3-3.4,0.2-4.2c1-1.6,3.8-0.8,4-0.8l-0.2,0.8c-0.6-0.2-2.5-0.4-3.1,0.5
								c-0.4,0.5-0.5,1.9-0.1,3.6c0.3,1.4,1.2,3.5,3.3,5.5L57,29.5z"/>
							<path id="形状_2_" class="st0" d="M45.4,33.2c-0.8,0-1.8-0.2-3.1-1l0,0c-0.2-0.1-0.3-0.4-0.2-0.6c0.1-0.1,0.1-0.2,0.3-0.2
								c1.4-0.4,2.9-1.1,2.9-1.5c0-0.6,0.4-1,0.9-1c0.6-0.1,1.5,0.4,1.7,1.4c0.2,0.7-0.1,1.7-0.9,2.4C46.8,32.9,46.2,33.2,45.4,33.2
								L45.4,33.2z M43.6,32c1.3,0.5,2.3,0.6,3,0c0.6-0.4,0.7-1.1,0.6-1.5c-0.1-0.5-0.6-0.8-0.9-0.7c-0.1,0-0.2,0-0.2,0.3
								c0,0.6-0.7,1.2-1.9,1.7C44.1,31.8,43.8,31.9,43.6,32z M57.6,32c-0.1,0-0.2,0-0.2,0c-1.2-0.1-2.1-0.6-2.1-0.6l0,0
								c-0.1-0.1-0.2-0.2-0.2-0.4c0.2-1.1,0.8-1.9,1.9-2.4l0,0c0.1-0.1,0.3,0,0.4,0c0.9,0.7,3.2,0.6,4,0.5l0,0
								c0.2,0,0.4,0.1,0.4,0.4c0,0.1,0,0.2-0.1,0.3C60.3,31.7,58.7,32,57.6,32L57.6,32z M55.9,30.9c0.7,0.3,2.5,0.9,4.4-0.7
								c-1,0-2.4-0.1-3.3-0.6C56.5,29.8,56.1,30.3,55.9,30.9z M55.4,20.7c0.4-0.1,0.8-0.2,0.7-0.6c-0.1-0.4-1.4-0.3-1.5,0.1
								C54.4,20.6,55,20.8,55.4,20.7L55.4,20.7z M45.4,21c0.7,0.1,1-0.3,0.9-0.7s-1.5-0.5-1.6-0.1C44.6,20.6,44.7,20.9,45.4,21z"/>
						</g>
					</g>
				</g>
			</g>
		</g>
	</g>
</g>
</svg>
