<?xml version="1.0" encoding="utf-8"?>
<!-- Generator: Adobe Illustrator 21.0.0, SVG Export Plug-In . SVG Version: 6.00 Build 0)  -->
<svg version="1.1" id="图层_1" xmlns="http://www.w3.org/2000/svg" xmlns:xlink="http://www.w3.org/1999/xlink" x="0px" y="0px"
	 viewBox="0 0 96.1 49.9" style="enable-background:new 0 0 96.1 49.9;" xml:space="preserve">
<style type="text/css">
	.st0{fill:#D81E06;}
</style>
<title>redis</title>
<desc>Created with Sketch.</desc>
<g id="组件库">
	<g id="组件2" transform="translate(-771.000000, -1618.000000)">
		<g id="图标" transform="translate(40.000000, 749.000000)">
			<g id="Component" transform="translate(40.000000, 725.000000)">
				<g id="Iconography" transform="translate(0.000000, 49.000000)">
					<g id="redis" transform="translate(691.000000, 95.000000)">
						<path id="路径" class="st0" d="M60.8,27.4c0,0.2-0.3,0.5-1,0.9c-1.4,0.7-8.4,3.6-9.9,4.4c-1.5,0.8-2.3,0.8-3.5,0.2
							c-1.2-0.6-8.7-3.6-10-4.2c-0.7-0.3-1-0.6-1-0.9v2.6c0,0.3,0.4,0.5,1,0.9c1.4,0.6,8.8,3.7,10,4.2c1.2,0.6,2,0.6,3.5-0.2
							c1.5-0.8,8.5-3.7,9.9-4.4c0.7-0.4,1-0.6,1-0.9L60.8,27.4L60.8,27.4L60.8,27.4z"/>
						<path id="路径_1_" class="st0" d="M60.8,23.2c0,0.2-0.3,0.5-1,0.9c-1.4,0.7-8.4,3.6-9.9,4.4c-1.5,0.8-2.3,0.8-3.5,0.2
							c-1.2-0.6-8.7-3.6-10-4.2c-0.7-0.3-1-0.6-1-0.9v2.6c0,0.3,0.4,0.5,1,0.9c1.4,0.6,8.8,3.7,10,4.2c1.2,0.6,2,0.6,3.5-0.2
							c1.5-0.8,8.5-3.7,9.9-4.4c0.7-0.4,1-0.6,1-0.9L60.8,23.2L60.8,23.2L60.8,23.2z"/>
						<path id="形状" class="st0" d="M60.8,18.9c0-0.3-0.3-0.5-1-0.7c-1.3-0.5-8.3-3.3-9.7-3.8c-1.3-0.5-1.9-0.5-3.5,0.1
							c-1.6,0.6-9,3.5-10.4,4c-0.7,0.3-1,0.5-1,0.8v2.6c0,0.3,0.4,0.5,1,0.9c1.4,0.6,8.8,3.7,10,4.2c1.2,0.6,2,0.6,3.5-0.2
							c1.5-0.8,8.5-3.7,9.9-4.4c0.7-0.4,1-0.6,1-0.9L60.8,18.9L60.8,18.9L60.8,18.9z M44.4,21.3l5.9-0.9L48.6,23L44.4,21.3
							L44.4,21.3z M57.5,19L54,20.3l-0.4,0.1l-3.5-1.4l3.9-1.5L57.5,19L57.5,19z M47.2,16.4l-0.6-1.1l1.8,0.7l1.7-0.5l-0.5,1.1
							l1.7,0.6l-2.2,0.2l-0.5,1.2l-0.8-1.3l-2.5-0.2L47.2,16.4L47.2,16.4z M42.8,17.9c1.7,0,3.2,0.5,3.2,1.2c0,0.7-1.4,1.2-3.2,1.2
							c-1.7,0-3.2-0.5-3.2-1.2C39.7,18.5,41.1,17.9,42.8,17.9L42.8,17.9z"/>
					</g>
				</g>
			</g>
		</g>
	</g>
</g>
</svg>
