<?xml version="1.0" encoding="UTF-8"?>
<svg width="16px" height="17px" viewBox="0 0 16 17" version="1.1" xmlns="http://www.w3.org/2000/svg" xmlns:xlink="http://www.w3.org/1999/xlink">
    <title>形状结合 2</title>
    <g id="数据源管理" stroke="none" stroke-width="1" fill="none" fill-rule="evenodd">
        <g transform="translate(-1034.000000, -398.000000)" fill="#354052" id="Delete-Icon-2备份">
            <g transform="translate(1034.000000, 398.003687)">
                <path d="M10.009222,1 C10.5490248,1 11,1.45190985 11,2.0093689 L11,2.0093689 L11,3.9906311 C11,3.99402856 10.999984,3.99742159 10.9999521,4.00081014 L14.5017326,4 C14.7800934,4 15,4.22385763 15,4.5 L15,4.5 L14.9919722,4.58774863 C14.949783,4.81674383 14.7463419,5 14.5017326,5 L14.5017326,5 L13,5 L13,13.007983 C13,14.0501947 12.1842793,14.9177698 11.1496186,14.9944869 L11.000385,15 L4.99961498,15 C3.88743329,15 3,14.1081436 3,13.007983 L3,13.007983 L3,5 L1.49826741,5 C1.25083555,5 1.04958978,4.82312484 1.00792322,4.58987563 L1,4.5 L1.00802776,4.41225137 C1.05021701,4.18325617 1.25365809,4 1.49826741,4 L1.49826741,4 L5,4 L5,3.9906311 L5,2.0093689 C5,1.44335318 5.44358641,1 5.99077797,1 L5.99077797,1 Z M12,5 L4,5 L4,13.0024554 C4,13.553384 4.45303631,14 4.99703014,14 L11.0029699,14 C11.5536144,14 12,13.5536886 12,13.0024554 L12,5 Z M9.5,7 C9.76806641,7 10,7.22282734 10,7.49769878 L10,7.49769878 L10,11.5023012 C10,11.7851562 9.77614237,12 9.5,12 L9.5,12 L9.41225137,11.9919814 C9.18325617,11.9498403 9,11.7466314 9,11.5023012 L9,11.5023012 L9,7.49769878 C9,7.21484375 9.22385763,7 9.5,7 Z M6.5,7 C6.76806641,7 7,7.22282734 7,7.49769878 L7,7.49769878 L7,11.5023012 C7,11.7851562 6.77614237,12 6.5,12 L6.5,12 L6.41225137,11.9919814 C6.18325617,11.9498403 6,11.7466314 6,11.5023012 L6,11.5023012 L6,7.49769878 C6,7.21484375 6.22385763,7 6.5,7 Z M10,2 L6,2 L6,4 L10,4 L10,2 Z" id="Delete-Icon"></path>
            </g>
        </g>
    </g>
</svg>