<?xml version="1.0" encoding="UTF-8"?>
<svg viewBox="0 0 96 50" version="1.1" xmlns="http://www.w3.org/2000/svg" xmlns:xlink="http://www.w3.org/1999/xlink">
    <!-- Generator: Sketch 57.1 (83088) - https://sketch.com -->
    <title>restful</title>
    <desc>Created with Sketch.</desc>
    <g id="组件库" stroke="none" stroke-width="1" fill="none" fill-rule="evenodd">
        <g id="图标Iconography" transform="translate(-954.000000, -1252.000000)" fill-rule="nonzero">
            <g id="编组-8" transform="translate(954.000000, 1252.000000)">
                <g id="restful" transform="translate(32.000000, 8.000000)">
                    <polygon id="路径" fill="#6AAA60" points="0 0 34.0000396 0 34.0000396 34.0000396 0 34.0000396"></polygon>
                    <polygon id="路径" fill="#FFFFFF" points="28.0500326 23.3750272 17.0000198 29.7500346 5.95000692 23.3750272 5.95000692 10.6250124 16.7875195 4.25000495 28.0500326 10.4125121"></polygon>
                    <path d="M9.866,17 L8.888,15.482 L8.438,15.482 L8.438,17 L7.526,17 L7.526,12.836 L8.942,12.836 C9.2220014,12.836 9.46299899,12.8599998 9.665,12.908 C9.86700101,12.9560002 10.0339993,13.0319995 10.166,13.136 C10.2980007,13.2400005 10.3949997,13.3759992 10.457,13.544 C10.5190003,13.7120008 10.55,13.9159988 10.55,14.156 C10.55,14.5040017 10.4870006,14.775999 10.361,14.972 C10.2349994,15.168001 10.0380013,15.3059996 9.77,15.386 L10.94,17 L9.866,17 Z M8.804,14.804 C8.95600076,14.804 9.08599946,14.7950001 9.194,14.777 C9.30200054,14.7589999 9.38899967,14.7260002 9.455,14.678 C9.52100033,14.6299998 9.56899985,14.5640004 9.599,14.48 C9.62900015,14.3959996 9.644,14.2880007 9.644,14.156 C9.644,14.0319994 9.62900015,13.9310004 9.599,13.853 C9.56899985,13.7749996 9.52100033,13.7140002 9.455,13.67 C9.38899967,13.6259998 9.30200054,13.5960001 9.194,13.58 C9.08599946,13.5639999 8.95600076,13.556 8.804,13.556 L8.438,13.556 L8.438,14.804 L8.804,14.804 Z M13.654,16.208 L13.654,17 L11.026,17 L11.026,12.836 L13.57,12.836 L13.57,13.628 L11.938,13.628 L11.938,14.486 L13.45,14.486 L13.45,15.248 L11.938,15.248 L11.938,16.208 L13.654,16.208 Z M15.078,17.06 C14.8339988,17.06 14.6030011,17.0440002 14.385,17.012 C14.1669989,16.9799998 13.9940006,16.9460002 13.866,16.91 L13.866,16.112 C13.9300003,16.1360001 14.0079995,16.1579999 14.1,16.178 C14.1920005,16.1980001 14.2899995,16.2149999 14.394,16.229 C14.4980005,16.2430001 14.6049994,16.2549999 14.715,16.265 C14.8250005,16.275 14.9339995,16.28 15.042,16.28 C15.1780007,16.28 15.2929995,16.2720001 15.387,16.256 C15.4810005,16.2399999 15.5569997,16.2120002 15.615,16.172 C15.6730003,16.1319998 15.7139999,16.0800003 15.738,16.016 C15.7620001,15.9519997 15.774,15.8740005 15.774,15.782 C15.774,15.7019996 15.7640001,15.6340003 15.744,15.578 C15.7239999,15.5219997 15.6870003,15.4720002 15.633,15.428 C15.5789997,15.3839998 15.5030005,15.3440002 15.405,15.308 C15.3069995,15.2719998 15.1780008,15.2340002 15.018,15.194 C14.7939989,15.1419997 14.6090007,15.0850003 14.463,15.023 C14.3169993,14.9609997 14.2000004,14.8850004 14.112,14.795 C14.0239996,14.7049996 13.9620002,14.5960006 13.926,14.468 C13.8899998,14.3399994 13.872,14.1820009 13.872,13.994 C13.872,13.5539978 14.0049987,13.2410009 14.271,13.055 C14.5370013,12.8689991 14.9119976,12.776 15.396,12.776 C15.6320012,12.776 15.8409991,12.7909999 16.023,12.821 C16.2050009,12.8510002 16.3519994,12.8859998 16.464,12.926 L16.464,13.676 C16.4119997,13.6599999 16.3460004,13.6430001 16.266,13.625 C16.1859996,13.6069999 16.0980005,13.5900001 16.002,13.574 C15.9059995,13.5579999 15.8090005,13.546 15.711,13.538 C15.6129995,13.53 15.5200004,13.526 15.432,13.526 C15.1959988,13.526 15.0250005,13.5559997 14.919,13.616 C14.8129995,13.6760003 14.76,13.7939991 14.76,13.97 C14.76,14.0380003 14.7679999,14.0959998 14.784,14.144 C14.8000001,14.1920002 14.8329997,14.2349998 14.883,14.273 C14.9330002,14.3110002 15.0049995,14.3459998 15.099,14.378 C15.1930005,14.4100002 15.3159992,14.4439998 15.468,14.48 C15.7160012,14.5400003 15.9189992,14.6069996 16.077,14.681 C16.2350008,14.7550004 16.3589995,14.8429995 16.449,14.945 C16.5390004,15.0470005 16.5999998,15.1669993 16.632,15.305 C16.6640002,15.4430007 16.68,15.609999 16.68,15.806 C16.68,16.214002 16.5560012,16.5249989 16.308,16.739 C16.0599988,16.9530011 15.6500029,17.06 15.078,17.06 Z M19.664,13.634 L18.572,13.634 L18.572,17 L17.666,17 L17.666,13.634 L16.574,13.634 L16.574,12.836 L19.664,12.836 L19.664,13.634 Z M21.346,13.046 C21.2379995,13.046 21.1500003,13.0559999 21.082,13.076 C21.0139997,13.0960001 20.9610002,13.1329997 20.923,13.187 C20.8849998,13.2410003 20.8590001,13.3139995 20.845,13.406 C20.8309999,13.4980005 20.824,13.6159993 20.824,13.76 L21.46,13.76 L21.46,14.438 L20.824,14.438 L20.824,17 L19.954,17 L19.954,14.438 L19.456,14.438 L19.456,13.76 L19.954,13.76 L19.954,13.73 C19.954,13.4499986 19.9839997,13.2240009 20.044,13.052 C20.1040003,12.8799991 20.1889994,12.7470005 20.299,12.653 C20.4090005,12.5589995 20.5429992,12.4960002 20.701,12.464 C20.8590008,12.4319998 21.035999,12.416 21.232,12.416 C21.2960003,12.416 21.3589997,12.419 21.421,12.425 C21.4830003,12.431 21.5439997,12.438 21.604,12.446 L21.604,13.07 C21.5639998,13.062 21.5220002,13.056 21.478,13.052 C21.4339998,13.048 21.3900002,13.046 21.346,13.046 Z M24.474,13.76 L24.474,17 L23.688,17 L23.622,16.61 C23.5299995,16.7660008 23.4010008,16.8799996 23.235,16.952 C23.0689992,17.0240004 22.8660012,17.06 22.626,17.06 C22.425999,17.06 22.2570007,17.0370002 22.119,16.991 C21.9809993,16.9449998 21.8690004,16.8760005 21.783,16.784 C21.6969996,16.6919995 21.6350002,16.5790007 21.597,16.445 C21.5589998,16.3109993 21.54,16.1560009 21.54,15.98 L21.54,13.76 L22.41,13.76 L22.41,15.746 C22.41,15.9580011 22.4449996,16.1119995 22.515,16.208 C22.5850003,16.3040005 22.7259989,16.352 22.938,16.352 C23.1060008,16.352 23.2469994,16.3190003 23.361,16.253 C23.4750006,16.1869997 23.5579997,16.0700008 23.61,15.902 L23.61,13.76 L24.474,13.76 Z M25.886,17.036 C25.7059991,17.036 25.5560006,17.0190002 25.436,16.985 C25.3159994,16.9509998 25.2190004,16.9000003 25.145,16.832 C25.0709996,16.7639997 25.0190001,16.6770005 24.989,16.571 C24.9589998,16.4649995 24.944,16.3400007 24.944,16.196 L24.944,12.44 L25.814,12.44 L25.814,15.986 C25.814,16.1300007 25.8339998,16.2259998 25.874,16.274 C25.9140002,16.3220002 25.9839995,16.346 26.084,16.346 C26.1080001,16.346 26.1339999,16.345 26.162,16.343 C26.1900001,16.341 26.2219998,16.336 26.258,16.328 L26.258,17 C26.1419994,17.0240001 26.0180007,17.036 25.886,17.036 Z M14.259,19.706 C14.5310014,19.706 14.7599991,19.7289998 14.946,19.775 C15.1320009,19.8210002 15.2819994,19.8879996 15.396,19.976 C15.5100006,20.0640004 15.5919998,20.1729993 15.642,20.303 C15.6920003,20.4330007 15.717,20.5839991 15.717,20.756 L15.717,23 L14.937,23 L14.853,22.622 C14.7849997,22.7420006 14.6630009,22.8449996 14.487,22.931 C14.3109991,23.0170004 14.0890013,23.06 13.821,23.06 C13.4569982,23.06 13.1810009,22.9790008 12.993,22.817 C12.8049991,22.6549992 12.711,22.4060017 12.711,22.07 C12.711,21.6939981 12.8239989,21.4300008 13.05,21.278 C13.2760011,21.1259992 13.6069978,21.05 14.043,21.05 L14.847,21.05 L14.847,20.966 C14.847,20.8699995 14.8380001,20.7880003 14.82,20.72 C14.8019999,20.6519997 14.7670003,20.5970002 14.715,20.555 C14.6629997,20.5129998 14.5930004,20.4820001 14.505,20.462 C14.4169996,20.4419999 14.3010007,20.432 14.157,20.432 C14.0409994,20.432 13.9250006,20.437 13.809,20.447 C13.6929994,20.457 13.5790006,20.4719999 13.467,20.492 L13.467,19.754 C13.5910006,19.7379999 13.7249993,19.726 13.869,19.718 C14.0130007,19.71 14.1429994,19.706 14.259,19.706 Z M14.043,22.394 C14.243001,22.394 14.4129993,22.3590004 14.553,22.289 C14.6930007,22.2189997 14.7909997,22.1280006 14.847,22.016 L14.847,21.638 L14.175,21.638 C13.9589989,21.638 13.8040005,21.6639997 13.71,21.716 C13.6159995,21.7680003 13.569,21.8759992 13.569,22.04 C13.569,22.1680006 13.6059996,22.2589997 13.68,22.313 C13.7540004,22.3670003 13.8749992,22.394 14.043,22.394 Z M18.059,19.7 C18.3230013,19.7 18.5379992,19.7389996 18.704,19.817 C18.8700008,19.8950004 19.0009995,20.0069993 19.097,20.153 C19.1930005,20.2990007 19.2589998,20.475999 19.295,20.684 C19.3310002,20.892001 19.349,21.1239987 19.349,21.38 C19.349,21.6120012 19.3310002,21.829999 19.295,22.034 C19.2589998,22.238001 19.1930005,22.4159992 19.097,22.568 C19.0009995,22.7200008 18.8700008,22.8399996 18.704,22.928 C18.5379992,23.0160004 18.3230013,23.06 18.059,23.06 C17.7629985,23.06 17.5420007,23.0170004 17.396,22.931 C17.2499993,22.8449996 17.1450003,22.7300007 17.081,22.586 L17.081,24.2 L16.211,24.2 L16.211,19.76 L17.081,19.76 L17.081,20.15 C17.1450003,20.0299994 17.2529992,19.9250004 17.405,19.835 C17.5570008,19.7449995 17.7749986,19.7 18.059,19.7 Z M17.783,22.4 C17.9310007,22.4 18.0499996,22.3730003 18.14,22.319 C18.2300005,22.2649997 18.2989998,22.1920005 18.347,22.1 C18.3950002,22.0079995 18.4259999,21.9000006 18.44,21.776 C18.4540001,21.6519994 18.461,21.5200007 18.461,21.38 C18.461,21.2319993 18.4530001,21.0950006 18.437,20.969 C18.4209999,20.8429994 18.3890002,20.7340005 18.341,20.642 C18.2929998,20.5499995 18.2250004,20.4780003 18.137,20.426 C18.0489996,20.3739997 17.9310007,20.348 17.783,20.348 C17.6349993,20.348 17.5130005,20.3709998 17.417,20.417 C17.3209995,20.4630002 17.2440003,20.5299996 17.186,20.618 C17.1279997,20.7060004 17.0880001,20.8139994 17.066,20.942 C17.0439999,21.0700006 17.033,21.2159992 17.033,21.38 C17.033,21.5360008 17.0439999,21.6769994 17.066,21.803 C17.0880001,21.9290006 17.1279997,22.0359996 17.186,22.124 C17.2440003,22.2120004 17.3209995,22.2799998 17.417,22.328 C17.5130005,22.3760002 17.6349993,22.4 17.783,22.4 Z M20.077,19.31 C19.9809995,19.31 19.9010003,19.3050001 19.837,19.295 C19.7729997,19.2849999 19.7230002,19.2640002 19.687,19.232 C19.6509998,19.1999998 19.6260001,19.1540003 19.612,19.094 C19.5979999,19.0339997 19.591,18.9520005 19.591,18.848 C19.591,18.7479995 19.5979999,18.6680003 19.612,18.608 C19.6260001,18.5479997 19.6509998,18.5020002 19.687,18.47 C19.7230002,18.4379998 19.7729997,18.418 19.837,18.41 C19.9010003,18.402 19.9809995,18.398 20.077,18.398 C20.1770005,18.398 20.2579997,18.402 20.32,18.41 C20.3820003,18.418 20.4309998,18.4379998 20.467,18.47 C20.5030002,18.5020002 20.5279999,18.5479997 20.542,18.608 C20.5560001,18.6680003 20.563,18.7479995 20.563,18.848 C20.563,18.9520005 20.5560001,19.0339997 20.542,19.094 C20.5279999,19.1540003 20.5030002,19.1999998 20.467,19.232 C20.4309998,19.2640002 20.3820003,19.2849999 20.32,19.295 C20.2579997,19.3050001 20.1770005,19.31 20.077,19.31 Z M19.639,19.76 L20.509,19.76 L20.509,23 L19.639,23 L19.639,19.76 Z" id="RESTfulapi" fill="#6AAA60"></path>
                </g>
            </g>
        </g>
    </g>
</svg>
