<svg width="90" height="50" xmlns="http://www.w3.org/2000/svg" version="1.1">
 <title>rocketmq</title>

 <g>
  <title>Layer 1</title>
  <g stroke="null" fill-rule="evenodd" fill="none" id="基础配置">
   <g stroke="null" fill-rule="nonzero" fill="#C47A00" id="基础配置-数据连接管理/新增数据源滚动至底部">
    <g stroke="null" id="RESTful备份">
     <g stroke="null" id="编组-16">
      <path stroke="null" id="形状" d="m16.22402,39c-2.205,-2.0475 -2.11517,-4.36683 -2.11517,-4.36683l4.23034,0c0,0 0.08983,2.31933 -2.11517,4.36683zm0,-25.68067c-1.86083,2.457 -5.47517,8.04184 -5.47517,14.3395c0,1.82234 0.34184,3.34834 0.68717,4.42517l9.576,0c0.34533,-1.07683 0.68717,-2.60283 0.68717,-4.42517c0,-6.29766 -3.61434,-11.8825 -5.47517,-14.3395zm6.94167,14.3395c0,4.14867 -1.59017,6.88684 -1.59017,6.88684l-1.701,-0.99517l-7.301,0l-1.701,0.99517c0,0 -1.59017,-2.73817 -1.59017,-6.88684c0,-9.1385 6.93934,-16.6565 6.94167,-16.65883c0.00233,0.00233 6.94167,7.52033 6.94167,16.65883zm0.96016,2.72417c0,1.59017 -0.70583,3.31917 -1.19233,4.04833l3.3705,0l-0.37333,-2.2925l-1.80484,-1.75583zm-17.6085,1.757l-0.37333,2.2925l3.3705,0c-0.48767,-0.72917 -1.19233,-2.45817 -1.19233,-4.04833l-1.80484,1.75583zm8.38484,-6.61733c-0.12287,-0.01042 -0.24113,0.04925 -0.30577,0.15426c-0.06464,0.10501 -0.06464,0.23747 0,0.34248c0.06464,0.10501 0.1829,0.16467 0.30577,0.15426c0.16911,-0.01433 0.29908,-0.15578 0.29908,-0.3255c0,-0.16972 -0.12997,-0.31117 -0.29908,-0.3255l0,0zm1.04416,0c-0.12287,-0.01042 -0.24113,0.04925 -0.30577,0.15426c-0.06464,0.10501 -0.06464,0.23747 0,0.34248c0.06464,0.10501 0.1829,0.16467 0.30577,0.15426c0.16912,-0.01433 0.29909,-0.15578 0.29909,-0.3255c0,-0.16972 -0.12997,-0.31117 -0.29909,-0.3255zm1.04417,0c-0.12287,-0.01042 -0.24113,0.04925 -0.30577,0.15426c-0.06464,0.10501 -0.06464,0.23747 0,0.34248c0.06464,0.10501 0.1829,0.16467 0.30577,0.15426c0.16911,-0.01433 0.29908,-0.15578 0.29908,-0.3255c0,-0.16972 -0.12997,-0.31117 -0.29908,-0.3255zm3.56767,4.12066c-0.00136,0.7073 -0.44408,1.33855 -1.10863,1.58072c-0.66454,0.24217 -1.4096,0.04376 -1.8657,-0.49683c-0.4561,-0.5406 -0.52626,-1.30842 -0.17567,-1.92272l-0.42117,-0.57517c-0.91002,0.39996 -1.96869,0.24354 -2.72417,-0.4025l-0.47016,0.40834c0.08949,0.41823 -0.09437,0.84745 -0.45887,1.07121c-0.3645,0.22375 -0.83046,0.19344 -1.1629,-0.07566c-0.33244,-0.26909 -0.45914,-0.71852 -0.31621,-1.12163c0.14293,-0.40311 0.52444,-0.67234 0.95214,-0.67192c0.12134,0 0.23567,0.0245 0.343,0.06416l0.5005,-0.43516c-0.47706,-0.89358 -0.3886,-1.9834 0.22634,-2.78834l-0.52617,-0.57166c-0.0385,0.00466 -0.07583,0.01166 -0.11433,0.01166c-0.36426,0.00057 -0.68912,-0.22905 -0.81014,-0.57261c-0.12101,-0.34357 -0.01177,-0.72609 0.27244,-0.95393c0.2842,-0.22784 0.68133,-0.25127 0.99035,-0.05842c0.30901,0.19285 0.46247,0.55989 0.38268,0.9153l0.53083,0.5775c0.80148,-0.48866 1.80479,-0.50474 2.6215,-0.042l0.44917,-0.44917c-0.20197,-0.58757 0.02823,-1.23679 0.55522,-1.5659c0.52699,-0.32911 1.21138,-0.25104 1.65072,0.1883c0.43933,0.43933 0.5174,1.12372 0.18829,1.65071c-0.3291,0.527 -0.97832,0.75719 -1.5659,0.55522l-0.41183,0.41184c0.66882,0.96614 0.6027,2.26163 -0.161,3.15466l0.38383,0.52384c0.17617,-0.06184 0.364,-0.098 0.56117,-0.098c0.93098,0.00193 1.68467,0.75718 1.68467,1.68816l0,0zm-4.61184,-1.74883c0.74253,0.01773 1.43636,-0.36826 1.81284,-1.00851c0.37647,-0.64025 0.37647,-1.43423 0,-2.07448c-0.37648,-0.64025 -1.07031,-1.02624 -1.81284,-1.00851c-1.1108,0.02653 -1.99747,0.93463 -1.99747,2.04575c0,1.11112 0.88667,2.01922 1.99747,2.04575l0,0z"/>
      <path stroke="null" id="RocketMQ" d="m30.90823,28.08173l0,-3.42139l2.12939,0c0.21533,0 0.39876,0.0309 0.55029,0.09271c0.15153,0.06181 0.27316,0.14156 0.36487,0.23926c0.09172,0.0977 0.15851,0.20835 0.20038,0.33197c0.04187,0.12362 0.06281,0.24723 0.06281,0.37085l0,0l0,1.26807c0,0.06779 0.00299,0.14554 0.00897,0.23327c0.00598,0.08773 0.01794,0.18144 0.03589,0.28113c0.01794,0.09969 0.04585,0.20138 0.08374,0.30505c0.03788,0.10368 0.08673,0.20337 0.14654,0.29908l0,0l1.54322,0c-0.12761,-0.21534 -0.2283,-0.42469 -0.30207,-0.62806c-0.07377,-0.20336 -0.11065,-0.38081 -0.11065,-0.53234l0,0l0,-1.20826c0,-0.16748 -0.01994,-0.33595 -0.05982,-0.50543c-0.03987,-0.16947 -0.10168,-0.32898 -0.18542,-0.47851c-0.08374,-0.14954 -0.19141,-0.28412 -0.323,-0.40375c-0.13159,-0.11963 -0.2891,-0.21135 -0.47254,-0.27515c0.3868,-0.23527 0.67491,-0.51341 0.86432,-0.83441c0.18942,-0.321 0.28412,-0.66494 0.28412,-1.0318c0,-0.29907 -0.05882,-0.59416 -0.17645,-0.88525c-0.11764,-0.2911 -0.2911,-0.55229 -0.52039,-0.78357c-0.22929,-0.23128 -0.51141,-0.4187 -0.84637,-0.56226c-0.33496,-0.14355 -0.71777,-0.21533 -1.14844,-0.21533l0,0l-3.54101,0l0,8.34412l1.41162,0zm2.12939,-4.60572l-2.12939,0l0,-2.54809l2.12939,0c0.18343,0 0.35291,0.0329 0.50842,0.09869c0.15552,0.0658 0.2901,0.15552 0.40375,0.26917c0.11365,0.11364 0.20237,0.24922 0.26618,0.40673c0.0638,0.15752 0.0957,0.32799 0.0957,0.51142c0,0.18742 -0.0339,0.35888 -0.10169,0.5144c-0.06778,0.15552 -0.1605,0.28811 -0.27813,0.39777c-0.11764,0.10966 -0.25322,0.19539 -0.40674,0.2572c-0.15352,0.06181 -0.31602,0.09271 -0.48749,0.09271l0,0zm6.88465,4.72534c0.45458,0 0.86033,-0.08274 1.21722,-0.24822c0.35689,-0.16549 0.65796,-0.39179 0.9032,-0.6789c0.24524,-0.28711 0.43166,-0.62207 0.55926,-1.00488c0.12761,-0.38281 0.19141,-0.78955 0.19141,-1.22022c0,-0.43465 -0.0648,-0.84438 -0.1944,-1.22918c-0.1296,-0.38481 -0.31701,-0.72176 -0.56225,-1.01087c-0.24524,-0.2891 -0.54631,-0.51739 -0.9032,-0.68487c-0.3569,-0.16748 -0.76264,-0.25122 -1.21723,-0.25122c-0.45459,0 -0.86033,0.08374 -1.21722,0.25122c-0.35689,0.16748 -0.65696,0.39577 -0.90021,0.68487c-0.24324,0.28911 -0.42867,0.62606 -0.55627,1.01087c-0.12761,0.3848 -0.19141,0.79453 -0.19141,1.22918c0,0.43067 0.0638,0.83741 0.19141,1.22022c0.1276,0.38281 0.31402,0.71777 0.55926,1.00488c0.24524,0.28711 0.54631,0.51341 0.9032,0.6789c0.35689,0.16548 0.76264,0.24822 1.21723,0.24822zm-0.00599,-1.17834c-0.2233,0 -0.42468,-0.05184 -0.60412,-0.15552c-0.17945,-0.10368 -0.33197,-0.24524 -0.45758,-0.42468c-0.12561,-0.17944 -0.22231,-0.38879 -0.2901,-0.62805c-0.06779,-0.23926 -0.10169,-0.49447 -0.10169,-0.76563c0,-0.27116 0.0339,-0.52736 0.10169,-0.76861c0.06779,-0.24125 0.16449,-0.4516 0.2901,-0.63104c0.12561,-0.17945 0.27813,-0.32201 0.45758,-0.42768c0.17944,-0.10567 0.38082,-0.15851 0.60412,-0.15851c0.22331,0 0.42568,0.05284 0.60712,0.15851c0.18144,0.10567 0.33596,0.24823 0.46356,0.42768c0.12761,0.17944 0.2253,0.38979 0.29309,0.63104c0.06779,0.24125 0.10169,0.49745 0.10169,0.76861c0,0.27116 -0.0339,0.52637 -0.10169,0.76563c-0.06779,0.23926 -0.16548,0.44861 -0.29309,0.62805c-0.1276,0.17944 -0.28212,0.321 -0.46356,0.42468c-0.18144,0.10368 -0.38381,0.15552 -0.60712,0.15552zm6.26258,1.17834c0.37483,0 0.71578,-0.05782 1.02282,-0.17346c0.30705,-0.11564 0.57422,-0.28312 0.80152,-0.50244c0.22729,-0.21932 0.41272,-0.4845 0.55627,-0.79553c0.14356,-0.31104 0.23926,-0.66394 0.28711,-1.05872l0,0l-1.46545,0c-0.03589,0.18742 -0.08574,0.36387 -0.14954,0.52936c-0.0638,0.16549 -0.14455,0.31104 -0.24225,0.43665c-0.09769,0.12561 -0.21134,0.2253 -0.34094,0.29907c-0.1296,0.07377 -0.27415,0.11066 -0.43365,0.11066c-0.20736,0 -0.39378,-0.05982 -0.55927,-0.17945c-0.16549,-0.11963 -0.30705,-0.27714 -0.42468,-0.47253c-0.11764,-0.1954 -0.20736,-0.4197 -0.26917,-0.67291c-0.06181,-0.25322 -0.09271,-0.51142 -0.09271,-0.7746c0,-0.25122 0.02991,-0.49247 0.08972,-0.72376c0.05982,-0.23128 0.14854,-0.43465 0.26618,-0.6101c0.11763,-0.17546 0.26119,-0.31602 0.43066,-0.4217c0.16947,-0.10567 0.36387,-0.1585 0.58319,-0.1585c0.2911,0 0.52936,0.08872 0.71478,0.26617c0.18543,0.17745 0.33397,0.46356 0.44562,0.85834l0,0l1.44751,0c-0.06779,-0.323 -0.17147,-0.62407 -0.31103,-0.9032c-0.13957,-0.27913 -0.31702,-0.52039 -0.53235,-0.72376c-0.21533,-0.20336 -0.46855,-0.36387 -0.75965,-0.4815c-0.29109,-0.11764 -0.62207,-0.17645 -0.99292,-0.17645c-0.42268,0 -0.8055,0.07576 -1.14843,0.22729c-0.34294,0.15153 -0.63603,0.36387 -0.87928,0.63702c-0.24324,0.27316 -0.43166,0.59815 -0.56524,0.97498c-0.13359,0.37683 -0.20038,0.78855 -0.20038,1.23517c0,0.27116 0.02392,0.53933 0.07178,0.8045c0.04785,0.26518 0.12062,0.5184 0.21832,0.75965c0.0977,0.24125 0.22032,0.46555 0.36786,0.67291c0.14754,0.20736 0.322,0.3858 0.52337,0.53534c0.20138,0.14953 0.42967,0.26717 0.68488,0.3529c0.25521,0.08574 0.54032,0.1286 0.85535,0.1286zm4.98852,-0.11962l0,-2.08155c0.06779,-0.06779 0.13758,-0.13956 0.20935,-0.21533c0.0638,-0.06779 0.13558,-0.14156 0.21533,-0.22131c0.07976,-0.07975 0.16549,-0.16549 0.25721,-0.2572l0,0l1.62097,2.77539l1.59704,0c-0.36287,-0.61809 -0.73472,-1.24614 -1.11554,-1.88416c-0.38081,-0.63802 -0.75266,-1.26607 -1.11553,-1.88415l0,0l2.3208,-2.32081l-1.72266,0l-2.26697,2.23108l0,-4.4801l-1.41162,0l0,8.33814l1.41162,0zm7.13587,0.11962c0.31103,0 0.61309,-0.05183 0.90619,-0.15551c0.29309,-0.10368 0.56125,-0.25322 0.8045,-0.44861c0.24325,-0.19539 0.45359,-0.43465 0.63104,-0.71777c0.17745,-0.28313 0.30605,-0.60612 0.38581,-0.969l0,0l-1.30396,0c-0.13558,0.37883 -0.31801,0.66294 -0.5473,0.85236c-0.22929,0.18941 -0.5174,0.28412 -0.86432,0.28412c-0.18742,0 -0.36287,-0.04387 -0.52637,-0.1316c-0.16349,-0.08772 -0.30705,-0.20636 -0.43066,-0.35589c-0.12362,-0.14954 -0.2253,-0.323 -0.30506,-0.52039c-0.07975,-0.19739 -0.13159,-0.40574 -0.15551,-0.62506l0,0l4.19299,0l0,-0.55029c0,-0.42269 -0.0648,-0.81647 -0.1944,-1.18134c-0.12959,-0.36487 -0.31602,-0.68188 -0.55926,-0.95105c-0.24325,-0.26916 -0.53634,-0.47951 -0.87927,-0.63104c-0.34294,-0.15153 -0.72575,-0.22729 -1.14844,-0.22729c-0.43864,0 -0.83441,0.08374 -1.18732,0.25122c-0.3529,0.16748 -0.65297,0.39377 -0.90021,0.67889c-0.24723,0.28512 -0.43764,0.6141 -0.57122,0.98694c-0.13359,0.37284 -0.20038,0.76263 -0.20038,1.16937c0,0.43465 0.06679,0.84837 0.20038,1.24115c0.13358,0.39278 0.32399,0.73672 0.57122,1.0318c0.24724,0.29509 0.54631,0.53036 0.89722,0.70581c0.35091,0.17546 0.74569,0.26318 1.18433,0.26318zm1.3518,-3.85803l-2.75744,0c0.02791,-0.17545 0.08075,-0.34094 0.15851,-0.49646c0.07775,-0.15551 0.17545,-0.29109 0.29309,-0.40674c0.11763,-0.11564 0.25321,-0.20735 0.40673,-0.27514c0.15353,-0.06779 0.32001,-0.10169 0.49945,-0.10169c0.1954,0 0.37484,0.03091 0.53833,0.09272c0.1635,0.0618 0.30506,0.14953 0.42469,0.26318c0.11963,0.11365 0.21633,0.24823 0.2901,0.40375c0.07377,0.15551 0.12262,0.32898 0.14654,0.52038l0,0zm4.24085,3.85803c0.14355,0 0.32599,-0.01295 0.5473,-0.03887c0.22131,-0.02592 0.45559,-0.08674 0.70282,-0.18244l0,0l0,-1.11255c-0.23128,0.09172 -0.41272,0.14455 -0.54431,0.15851c-0.13159,0.01396 -0.21932,0.02094 -0.26319,0.02094c-0.13956,0 -0.24823,-0.05583 -0.32598,-0.16748c-0.07776,-0.11166 -0.11664,-0.25123 -0.11664,-0.41871l0,0l0,-3.31372l1.11853,0l0,-1.15442l-1.11853,0l0,-1.6748l-1.41162,0l0,1.6748l-0.86731,0l0,1.15442l0.86731,0l0,3.46924c0,0.23926 0.03788,0.45659 0.11364,0.65198c0.07577,0.19539 0.17845,0.36188 0.30805,0.49945c0.1296,0.13757 0.28013,0.24424 0.4516,0.32001c0.17147,0.07576 0.35091,0.11364 0.53833,0.11364zm3.84607,-0.11962l0,-5.52686l1.95593,5.52686l1.19629,0l1.92004,-5.50892l0,5.50892l1.41162,0l0,-8.34412l-1.59106,0l-2.38062,6.5437l-2.33276,-6.5437l-1.59106,0l0,8.34412l1.41162,0zm15.23474,0.86731l0.87927,-0.86731l-1.1604,-1.15442c0.29907,-0.39877 0.52836,-0.85336 0.68787,-1.36377c0.1595,-0.51042 0.23925,-1.07068 0.23925,-1.68079c0,-0.64599 -0.08573,-1.23616 -0.2572,-1.77051c-0.17147,-0.53434 -0.42169,-0.99292 -0.75067,-1.37573c-0.32898,-0.38281 -0.73372,-0.67989 -1.21423,-0.89123c-0.48051,-0.21135 -1.02981,-0.31702 -1.64789,-0.31702c-0.61808,0 -1.16638,0.10567 -1.6449,0.31702c-0.47851,0.21134 -0.88126,0.50842 -1.20825,0.89123c-0.32699,0.38281 -0.57621,0.84139 -0.74768,1.37573c-0.17147,0.53435 -0.2572,1.12452 -0.2572,1.77051c0,0.646 0.08573,1.24015 0.2572,1.78247c0.17147,0.54232 0.42069,1.00788 0.74768,1.39667c0.32699,0.38879 0.72974,0.69185 1.20825,0.90918c0.47852,0.21733 1.02682,0.32599 1.6449,0.32599c0.40674,0 0.77858,-0.04486 1.11554,-0.13458c0.33695,-0.08973 0.643,-0.22231 0.91815,-0.39777l0,0l1.19031,1.18433zm-3.224,-1.83631c-0.34294,0 -0.66294,-0.07377 -0.96002,-0.22131c-0.29708,-0.14754 -0.55528,-0.35989 -0.7746,-0.63703c-0.21932,-0.27714 -0.39079,-0.61509 -0.5144,-1.01385c-0.12362,-0.39876 -0.18543,-0.85136 -0.18543,-1.35779c0,-0.50643 0.06181,-0.95703 0.18543,-1.35181c0.12361,-0.39477 0.29508,-0.72674 0.5144,-0.99591c0.21932,-0.26916 0.47752,-0.47452 0.7746,-0.61608c0.29708,-0.14157 0.61708,-0.21235 0.96002,-0.21235c0.34692,0 0.66992,0.07078 0.96899,0.21235c0.29908,0.14156 0.55827,0.34692 0.77759,0.61608c0.21932,0.26917 0.39179,0.60114 0.5174,0.99591c0.12561,0.39478 0.18841,0.84538 0.18841,1.35181c0,0.43465 -0.04187,0.82046 -0.12561,1.15741c-0.08374,0.33696 -0.20536,0.63703 -0.36487,0.90021l0,0l-0.78357,-0.78955l-0.87329,0.89123l0.79554,0.79554c-0.18344,0.10367 -0.35989,0.17545 -0.52936,0.21533c-0.16948,0.03987 -0.35989,0.05981 -0.57123,0.05981z"/>
     </g>
    </g>
   </g>
  </g>
 </g>
</svg>