<?xml version="1.0" encoding="utf-8"?>
<!-- Generator: Adobe Illustrator 24.1.0, SVG Export Plug-In . SVG Version: 6.00 Build 0)  -->
<svg version="1.1" id="图层_1" xmlns="http://www.w3.org/2000/svg" xmlns:xlink="http://www.w3.org/1999/xlink" x="0px" y="0px"
	 viewBox="0 0 96.1 49.9" style="enable-background:new 0 0 96.1 49.9;" xml:space="preserve">
<desc>Created with Sketch.</desc>
<g id="组件库">
	<g id="组件2" transform="translate(-387.000000, -2039.000000)">
		<g id="图标" transform="translate(40.000000, 1101.000000)">
			<g id="Component" transform="translate(40.000000, 725.000000)">
				<g id="Iconography" transform="translate(0.000000, 49.000000)">
					<g id="Icon" transform="translate(288.000000, 148.000000)">
						<path id="SMB" d="M78,41.8c-0.4,0-0.7-0.3-0.7-0.7V26.3H64.5v7.1c0,0.4-0.3,0.7-0.7,0.7h-7.1v20.7h20.7v-3.2
							c0-0.4,0.3-0.6,0.7-0.6c0.3,0,0.6,0.3,0.6,0.6v3.9c0,0.4-0.3,0.7-0.7,0.7h-22c-0.4,0-0.7-0.3-0.7-0.7v-22c0-0.1,0-0.2,0-0.2
							c0,0,0-0.1,0.1-0.1c0,0,0-0.1,0.1-0.1l7.8-7.7c0,0,0.1,0,0.1-0.1c0,0,0.1,0,0.1-0.1c0.1,0,0.2,0,0.2,0H78
							c0.4,0,0.7,0.3,0.7,0.7v15.5C78.7,41.5,78.4,41.8,78,41.8z M63.2,32.7v-5.5l-5.5,5.5H63.2z M59,47.4l0.8-0.1
							c0,0.3,0.1,0.6,0.2,0.8c0.1,0.2,0.3,0.4,0.6,0.5s0.6,0.2,0.9,0.2c0.3,0,0.6,0,0.8-0.1c0.2-0.1,0.4-0.2,0.5-0.4
							c0.1-0.2,0.2-0.3,0.2-0.5s-0.1-0.4-0.2-0.5c-0.1-0.2-0.3-0.3-0.6-0.4c-0.2-0.1-0.5-0.2-1.1-0.3c-0.6-0.1-1-0.3-1.2-0.4
							c-0.3-0.2-0.5-0.3-0.7-0.6c-0.1-0.2-0.2-0.5-0.2-0.8c0-0.3,0.1-0.6,0.3-0.9c0.2-0.3,0.4-0.5,0.8-0.6c0.3-0.1,0.7-0.2,1.1-0.2
							c0.5,0,0.9,0.1,1.2,0.2c0.3,0.1,0.6,0.4,0.8,0.7c0.2,0.3,0.3,0.6,0.3,1l-0.8,0.1c0-0.4-0.2-0.7-0.4-0.9
							c-0.2-0.2-0.6-0.3-1.1-0.3c-0.5,0-0.9,0.1-1.1,0.3c-0.2,0.2-0.3,0.4-0.3,0.7c0,0.2,0.1,0.4,0.2,0.5c0.2,0.1,0.6,0.3,1.2,0.4
							c0.7,0.2,1.1,0.3,1.4,0.4c0.4,0.2,0.6,0.4,0.8,0.6c0.2,0.2,0.2,0.5,0.2,0.9s-0.1,0.6-0.3,0.9c-0.2,0.3-0.5,0.5-0.8,0.7
							c-0.4,0.2-0.7,0.2-1.2,0.2c-0.6,0-1-0.1-1.4-0.2c-0.4-0.2-0.7-0.4-0.9-0.7S59,47.9,59,47.4L59,47.4z M65.7,49.4v-6.1H67
							l1.5,4.3c0.1,0.4,0.2,0.7,0.3,0.9c0.1-0.2,0.2-0.6,0.3-1l1.5-4.3h1.1v6.1h-0.8v-5.1L69,49.4h-0.7l-1.8-5.2v5.2L65.7,49.4
							L65.7,49.4z M73.6,49.4v-6.1h2.3c0.5,0,0.8,0.1,1.1,0.2c0.3,0.1,0.5,0.3,0.7,0.6c0.2,0.3,0.2,0.5,0.2,0.8
							c0,0.3-0.1,0.5-0.2,0.7c-0.1,0.2-0.4,0.4-0.7,0.6c0.4,0.1,0.7,0.3,0.9,0.6c0.2,0.3,0.3,0.6,0.3,0.9c0,0.3-0.1,0.6-0.2,0.8
							c-0.1,0.2-0.3,0.4-0.5,0.6c-0.2,0.1-0.4,0.2-0.7,0.3c-0.3,0.1-0.6,0.1-1,0.1L73.6,49.4L73.6,49.4z M74.5,45.9h1.3
							c0.4,0,0.6,0,0.8-0.1c0.2-0.1,0.4-0.2,0.5-0.3c0.1-0.1,0.2-0.3,0.2-0.5c0-0.2,0-0.4-0.1-0.5c-0.1-0.2-0.2-0.3-0.4-0.3
							C76.4,44,76.1,44,75.7,44h-1.2L74.5,45.9L74.5,45.9z M74.5,48.7H76c0.3,0,0.5,0,0.6,0c0.2,0,0.3-0.1,0.5-0.2
							c0.1-0.1,0.2-0.2,0.3-0.3c0.1-0.2,0.1-0.3,0.1-0.5c0-0.2-0.1-0.4-0.2-0.6c-0.1-0.2-0.3-0.3-0.5-0.4c-0.2-0.1-0.5-0.1-0.9-0.1
							h-1.4L74.5,48.7L74.5,48.7z"/>
					</g>
				</g>
			</g>
		</g>
	</g>
</g>
</svg>
