<?xml version="1.0" encoding="utf-8"?>
<!-- Generator: Adobe Illustrator 21.0.0, SVG Export Plug-In . SVG Version: 6.00 Build 0)  -->
<svg version="1.1" id="图层_1" xmlns="http://www.w3.org/2000/svg" xmlns:xlink="http://www.w3.org/1999/xlink" x="0px" y="0px"
	 viewBox="0 0 96.1 49.9" style="enable-background:new 0 0 96.1 49.9;" xml:space="preserve">
<style type="text/css">
	.st0{fill:#909CA9;}
	.st1{fill:#A91D22;}
	.st2{fill:#231F1F;}
</style>
<title>SQL Server</title>
<desc>Created with Sketch.</desc>
<g id="组件库">
	<g id="组件2" transform="translate(-192.000000, -1538.000000)">
		<g id="图标" transform="translate(40.000000, 749.000000)">
			<g id="Component" transform="translate(40.000000, 725.000000)">
				<g id="Iconography" transform="translate(0.000000, 49.000000)">
					<g id="SQL-Server" transform="translate(112.000000, 15.000000)">
						<path id="形状" class="st0" d="M52.1,23.8L45.4,26l-5.8,2.6L37.9,29c-0.4,0.4-0.9,0.8-1.3,1.2c-0.5,0.4-1,0.9-1.4,1.1
							c-0.4,0.3-1,0.9-1.3,1.3c-0.5,0.6-0.8,1.2-1,1.7c-0.3,0.9-0.1,1.7,0.4,2.5c0.7,1,2.1,2,3.7,2.8c0.8,0.4,2.2,0.8,3.2,1.1
							c1.7,0.4,5,0.9,6.9,1c0.4,0,0.9,0,0.9,0c0,0,0.3-0.6,0.7-1.2c1.1-2.3,1.9-4.4,2.4-6.3c0.3-1.1,0.5-2.6,0.6-4.4
							c0-0.5,0.1-2.1,0-2.7c0-0.9-0.1-1.7-0.3-2.4c0-0.1,0-0.2,0-0.2c0,0,0.1,0,0.9-0.3L52.1,23.8L52.1,23.8z M50.5,24.7
							c0.1,0,0.2,1.6,0.3,2.5c0,0.2,0,0.3,0,0.3c0,0-0.9-0.5-1.4-0.8c-0.5-0.3-1.5-1-1.6-1.1c-0.1,0,0,0,0.4-0.2
							C48.8,25.2,50.5,24.7,50.5,24.7L50.5,24.7z M47.1,25.8c0,0,0.2,0.1,0.4,0.2c1,0.7,2.5,1.4,3.1,1.7c0.2,0.1,0.2,0.1-0.2,0.3
							c-0.9,0.6-2.1,1.2-3.5,1.9c-0.2,0.1-0.5,0.2-0.5,0.2c0,0,0-0.1,0.1-0.3c0.3-1.3,0.5-2.5,0.5-3.6
							C47.1,25.8,47.1,25.8,47.1,25.8C47.1,25.8,47.1,25.8,47.1,25.8L47.1,25.8z M46.4,26.1c0,0,0,1.2,0,1.5l0,0
							c-0.1,0.7-0.2,1.5-0.5,2.2c-0.1,0.2-0.1,0.3-0.1,0.4c0,0-0.7-0.7-0.9-0.9c-0.4-0.5-0.7-0.9-0.9-1.4c-0.1-0.2-0.3-0.7-0.3-0.7
							C43.7,27.1,46.4,26.1,46.4,26.1L46.4,26.1z M43.1,27.4L43.1,27.4C43.1,27.4,43.1,27.4,43.1,27.4L43.1,27.4
							c0,0.1,0.1,0.1,0.1,0.2c0.2,0.4,0.5,1.1,0.8,1.5c0.3,0.5,0.8,0.9,1.2,1.3c0.1,0.1,0.2,0.2,0.2,0.2c0,0,0,0-0.8,0.3
							c-1,0.4-2,0.7-3.2,1.1c-0.3,0.1-0.6,0.2-0.9,0.3c0,0,0,0,0.1-0.2c0.6-0.9,1.5-2.7,2-4c0.1-0.2,0.2-0.4,0.2-0.5
							C42.9,27.5,42.9,27.4,43.1,27.4L43.1,27.4C43,27.4,43.1,27.4,43.1,27.4L43.1,27.4z M42.1,27.8c0,0-0.2,0.6-0.5,1
							c-0.5,1-1,1.9-1.7,3c-0.1,0.2-0.2,0.4-0.3,0.4c0,0,0,0-0.1-0.1c-0.2-0.3-0.3-0.8-0.4-1.2c-0.1-0.4-0.1-1.1,0-1.5
							c0.1-0.3,0.1-0.3,0.2-0.4C40,28.8,42.1,27.8,42.1,27.8L42.1,27.8z M50.8,28.2v0.2c0,1.1-0.1,2.7-0.3,3.8
							c0,0.2-0.1,0.4-0.1,0.4c0,0-0.1,0-0.3-0.1h0c-0.8-0.3-1.6-0.6-2.3-1c-0.5-0.3-1.2-0.7-1.2-0.7c0,0,0.2-0.1,0.5-0.2
							c1-0.5,1.9-1.1,2.8-1.6C50.2,28.7,50.6,28.3,50.8,28.2L50.8,28.2L50.8,28.2z M38.3,29.7c0,0,0,0,0,0.2c0,0.1,0,0.4-0.1,0.5
							c0,0.7,0.1,1.3,0.4,2c0.1,0.2,0.2,0.4,0.2,0.4c0,0-3.4,1-4.4,1.3c-0.3,0.1-0.6,0.2-0.6,0.2c0,0,0,0,0-0.1
							c0.1-0.7,0.7-1.7,1.5-2.5c0.5-0.5,0.9-0.9,1.7-1.3C37.4,30.1,38.2,29.7,38.3,29.7C38.3,29.7,38.3,29.7,38.3,29.7L38.3,29.7z
							 M46.2,31.1c0,0,0.1,0.1,0.3,0.1c1.1,0.6,2.6,1.2,3.9,1.5l0.1,0l-0.2,0.1c-0.7,0.4-2.9,1.3-5.2,2.1c-0.3,0.1-0.7,0.2-0.7,0.3
							c-0.1,0-0.1,0-0.1,0s0.1-0.2,0.2-0.4c0.6-1.2,1.3-2.6,1.6-3.6C46.1,31.2,46.2,31.1,46.2,31.1L46.2,31.1z M45.4,31.3
							c0,0,0,0.1-0.1,0.2c-0.4,1.1-1,2.2-1.8,3.5c-0.2,0.3-0.3,0.6-0.3,0.6s-0.2-0.1-0.3-0.2c-1.1-0.7-2-1.5-2.6-2.3l-0.1-0.1
							l0.5-0.1c1.7-0.5,3.1-0.9,4.4-1.5C45.2,31.4,45.4,31.3,45.4,31.3L45.4,31.3z M50.4,33.1c0,0.1-0.3,1.2-0.5,1.9
							c-0.2,0.6-0.3,1.1-0.6,2c-0.1,0.4-0.2,0.7-0.2,0.7l0,0c0,0,0,0-0.1,0c-1.5-0.3-2.9-0.7-4.1-1.2c-0.4-0.1-0.9-0.4-0.9-0.4
							c0,0,0.3-0.2,0.7-0.3c2.3-1,4.7-2.2,5.5-2.6C50.3,33.1,50.4,33.1,50.4,33.1L50.4,33.1z M38.8,33.5c0,0-0.6,0.9-1.5,2.2
							c-0.3,0.4-0.7,1-0.8,1.2c-0.1,0.2-0.3,0.5-0.5,0.7l-0.2,0.3l-0.2-0.2c-0.3-0.2-0.7-0.7-0.9-1c-0.4-0.5-0.7-1.1-0.8-1.6
							c-0.1-0.2-0.1-0.4,0-0.4c0.1,0,1.4-0.3,2.7-0.6c0.7-0.2,1.5-0.4,1.8-0.4S38.8,33.5,38.8,33.5L38.8,33.5z M39.5,33.7l0.2,0.2
							c0.7,0.8,1.5,1.4,2.4,1.9c0.2,0.1,0.3,0.2,0.3,0.2c0,0-3.1,1.1-4.6,1.6c-0.8,0.3-1.5,0.5-1.5,0.5h0c0,0-0.1,0-0.1-0.1L36,38
							l0.1-0.2c0.5-0.7,1.1-1.4,2.4-3L39.5,33.7L39.5,33.7z M43.5,36.6c0,0,0.2,0.1,0.5,0.2c0.7,0.2,1.2,0.4,1.9,0.6
							c0.9,0.2,2.1,0.4,2.8,0.5c0.1,0,0.2,0,0.2,0c0,0-0.8,0.3-1.3,0.4c-0.9,0.3-3.5,1.1-5.7,1.7c-0.4,0.1-0.7,0.2-0.8,0.2
							c-0.1,0-0.2,0-0.2-0.1c0,0,0.1-0.2,0.3-0.3l0,0c0.7-0.9,1.4-1.8,2.1-2.8C43.4,36.8,43.5,36.6,43.5,36.6L43.5,36.6z M42.6,36.7
							c0,0-0.4,0.6-1,1.6c-0.3,0.4-0.6,0.9-0.7,1.1c-0.1,0.2-0.3,0.4-0.3,0.6l-0.1,0.3l-0.1,0c-0.2-0.1-1.5-0.5-1.8-0.6l0,0
							c-0.4-0.2-0.8-0.3-1.2-0.5c-0.4-0.2-0.9-0.5-0.9-0.6c0,0,0.7-0.2,1.5-0.4c2.2-0.6,3.5-1,4.3-1.2
							C42.5,36.7,42.6,36.6,42.6,36.7L42.6,36.7z M48.9,38.1L48.9,38.1c0,0.1-0.8,2.3-1.1,3.1c-0.1,0.2-0.1,0.2-0.1,0.2
							c-0.1,0-1.3-0.2-2-0.3c-1.3-0.2-3.4-0.6-3.9-0.7l-0.1,0l0.8-0.2c1.6-0.4,2.4-0.6,3.2-0.8l0,0c1-0.3,2-0.7,3-1.2
							C48.8,38.2,48.9,38.1,48.9,38.1L48.9,38.1z M45.2,8.2c-0.1,0-1.9,0.6-3.1,1.1c-1.6,0.6-2.8,1.2-3.5,1.8
							c-0.3,0.2-0.6,0.5-0.7,0.7l0,0c0,0.1,0,0.1,0,0.2l0.7,0.6l1.6,0.5l3.8,0.7l4.4,0.8l0-0.4c0,0,0,0,0,0L47.8,14l-0.1-0.2
							c-0.6-1.1-1.3-2.4-1.6-3.2c-0.3-0.7-0.6-1.5-0.7-2C45.2,8.2,45.2,8.2,45.2,8.2L45.2,8.2z M45.1,8.4L45.1,8.4
							c0,0,0,0.1,0.1,0.3v0c0.1,0.7,0.3,1.4,0.5,2.1c0.2,0.6,0.2,0.5,0,0.5c-0.5-0.1-2.8-0.5-4.5-0.8c-0.3,0-0.5-0.1-0.5-0.1
							c0,0,1.2-0.7,1.8-0.9C43,9.3,44.9,8.5,45.1,8.4L45.1,8.4z M40.2,10.7l0.2,0.1c1.1,0.4,3.8,0.9,5.3,1c0.2,0,0.3,0,0.3,0
							c0,0-0.1,0.1-0.3,0.2c-0.7,0.4-1.5,0.8-2.1,1.1c-0.2,0.1-0.3,0.2-0.3,0.2c0,0-0.1,0-0.2,0l-0.2,0l-0.5-0.5
							c-0.9-0.9-1.6-1.5-1.9-1.8L40.2,10.7z M40,10.9l0.7,0.9c0.4,0.5,0.8,1,0.9,1.1c0.1,0.1,0.2,0.2,0.2,0.2c0,0-1-0.2-1.6-0.3
							c-0.6-0.1-0.8-0.2-1.1-0.3l-0.3-0.1v-0.1C38.8,11.9,39.2,11.4,40,10.9L40,10.9L40,10.9z M46.1,12.1c0,0,0,0,0.1,0.2
							c0.2,0.4,0.7,1.4,0.8,1.6c0,0.1,0.1,0.1-0.6,0c-1.7-0.3-2.3-0.4-2.3-0.4l0,0c0,0,0.1-0.1,0.1-0.1l0,0c0.5-0.3,1.1-0.7,1.5-1.1
							C45.9,12.2,46,12.1,46.1,12.1C46,12.1,46,12.1,46.1,12.1L46.1,12.1z"/>
						<path id="形状_1_" class="st1" d="M37.9,11.7c0,0-0.1,0.2,0,0.4c0.1,0.2,0.3,0.4,0.5,0.6c0,0,2.3,2.2,2.5,2.5
							c1.2,1.4,1.8,2.9,1.8,4.8c0,1.3-0.2,2.4-0.8,3.6c-1.1,2.3-3.3,4.8-6.7,7.7l0.5-0.2c0.3-0.2,0.8-0.5,1.8-1.1
							c2.4-1.3,5.1-2.5,8.4-3.7c4.7-1.8,12.5-3.9,17-4.6l0.5-0.1l-0.1-0.1c-0.4-0.6-0.7-1-1-1.4c-1-1.2-2.2-2.2-3.6-3
							c-2-1.1-4.6-2-7.8-2.6c-0.6-0.1-2-0.4-3.1-0.5c-2.3-0.4-3.8-0.6-5.5-0.9c-0.6-0.1-1.5-0.3-2.1-0.4c-0.3-0.1-0.9-0.2-1.3-0.4
							C38.5,12.2,38,12.1,37.9,11.7L37.9,11.7z M39.2,12.9c0,0,0.1,0,0.2,0.1c0.2,0.1,0.4,0.1,0.7,0.2c0.2,0.1,0.4,0.1,0.7,0.2
							c0.3,0.1,0.6,0.1,0.6,0.1c0,0,0.5,1.7,0.7,2.3c0.1,0.2,0.1,0.4,0.1,0.4c0,0-0.1-0.1-0.1-0.2c-0.6-1-1.5-2.1-2.6-3l0,0
							C39.4,13.1,39.3,13,39.2,12.9L39.2,12.9z M41.7,13.6L41.7,13.6c0.1,0,0.2,0,0.3,0c0.9,0.2,2.4,0.5,3.4,0.7
							c0.2,0,0.3,0.1,0.3,0.1c0,0-0.1,0-0.1,0.1c-0.2,0.1-0.8,0.5-1.1,0.6c-0.6,0.4-1.1,0.8-1.4,1.1c-0.1,0.1-0.3,0.3-0.3,0.3
							s0-0.1-0.1-0.2c-0.2-0.7-0.6-1.7-0.9-2.5l0,0C41.8,13.8,41.7,13.7,41.7,13.6C41.7,13.6,41.7,13.6,41.7,13.6L41.7,13.6z
							 M46.1,14.5c0,0,0.1,0.2,0.2,0.6l0,0c0.2,0.8,0.3,1.5,0.2,2.3c0,0.2,0,0.4,0,0.4l0,0.1l-0.3-0.1c-0.5-0.2-1.4-0.4-2.2-0.6
							c-0.4-0.1-0.8-0.2-0.8-0.2c0,0,0.6-0.7,0.9-0.9C44.7,15.5,46,14.4,46.1,14.5L46.1,14.5z M46.4,14.5c0,0,2.1,0.3,3,0.5
							c0.7,0.1,1.7,0.3,1.8,0.4c0,0-0.1,0.1-0.4,0.2c-1.3,0.6-2.3,1.1-3.3,1.8c-0.3,0.2-0.5,0.3-0.5,0.3s0-0.1,0-0.3
							c0-1-0.2-1.9-0.5-2.8C46.5,14.6,46.4,14.5,46.4,14.5L46.4,14.5z M51.8,15.6c0,0-0.1,0.4-0.1,0.7c-0.2,0.8-0.7,1.9-1.3,2.9
							c-0.1,0.2-0.2,0.3-0.2,0.3c0,0-0.1-0.1-0.3-0.2c-0.6-0.3-1.3-0.7-2-1c-0.2-0.1-0.4-0.2-0.4-0.2c0,0,1.6-1.1,2.5-1.6
							C50.7,16.2,51.8,15.6,51.8,15.6L51.8,15.6z M52.2,15.6c0,0,1,0.3,1.4,0.4c1.2,0.4,2.6,0.9,3.5,1.3l0.4,0.2l-0.3,0.1
							c-2.2,0.5-4,1.1-5.8,1.8c-0.1,0.1-0.3,0.1-0.3,0.1s0-0.1,0.1-0.3c0.5-1.2,0.9-2.4,1-3.4C52.2,15.7,52.2,15.6,52.2,15.6
							L52.2,15.6z M43,17.7c0,0,0.7,0.2,1.1,0.3c0.6,0.2,1.8,0.6,1.8,0.6c0,0-0.1,0.1-0.3,0.3c-0.7,0.6-1.3,1.1-2.1,1.9
							c-0.2,0.2-0.4,0.4-0.4,0.4c0,0,0,0,0-0.1c0.1-0.9,0.1-1.9-0.1-3.1C43,17.9,43,17.7,43,17.7L43,17.7z M57.8,17.8
							c0,0-0.3,0.5-0.5,0.8c-0.3,0.4-0.8,1-1.8,2.3c-0.5,0.7-1.1,1.4-1.3,1.7C54,22.8,53.8,23,53.8,23l0,0c-0.1-0.1-0.1-0.1-0.1-0.2
							l0,0c-0.6-0.9-1.3-1.6-2.1-2.3c-0.2-0.1-0.3-0.3-0.4-0.3l0,0c0,0-0.1-0.1-0.1-0.1c0,0,0.9-0.4,1.5-0.6c1.1-0.5,2.7-1,3.9-1.4
							C57.2,17.9,57.8,17.7,57.8,17.8L57.8,17.8z M58.2,17.9c0,0,0.1,0.1,0.3,0.1c1.2,0.7,2.4,1.6,3.4,2.5c0.3,0.3,0.9,1,0.9,1
							c0,0-0.2,0-0.5,0c-2.1,0.2-4.9,0.6-7.5,1.2c-0.2,0-0.3,0.1-0.3,0.1c0,0,0.2-0.2,0.4-0.4c1.5-1.5,2.2-2.4,3.1-4.1
							C58.1,18.1,58.2,17.9,58.2,17.9L58.2,17.9z M46.9,19c0.1,0,0.7,0.3,1.2,0.6c0.5,0.2,1.1,0.6,1.2,0.6c0,0-0.2,0.1-0.5,0.3
							c-1,0.5-1.8,0.9-2.6,1.4c-0.2,0.1-0.4,0.3-0.5,0.3c0,0,0,0,0.1-0.3c0.5-0.8,0.8-1.8,1-2.8C46.9,19.1,46.9,19,46.9,19L46.9,19z
							 M46.3,19.1c0,0-0.2,0.6-0.3,1v0c-0.2,0.7-0.5,1.4-0.9,2.1c-0.1,0.1-0.2,0.3-0.3,0.5l-0.1,0.2l-0.3-0.3
							c-0.3-0.3-0.6-0.5-0.9-0.7c-0.1-0.1-0.2-0.1-0.2-0.1c0,0,0.9-0.8,1.5-1.4C45.3,19.9,46.3,19.1,46.3,19.1L46.3,19.1z
							 M50.3,20.8l0.2,0.2l0,0c0.6,0.4,1.2,0.8,1.7,1.3c0.3,0.2,0.8,0.7,1,0.9l0.1,0.1l-0.4,0.1c-2.3,0.6-4.1,1.2-6.2,2
							c-0.2,0.1-0.4,0.2-0.4,0.2c0,0-0.1,0,0.5-0.5c1.3-1.2,2.5-2.6,3.4-3.9L50.3,20.8L50.3,20.8z M49.2,21.1c0,0-0.7,1-1.1,1.5
							c-0.5,0.7-1.4,1.8-2,2.5c-0.3,0.3-0.5,0.5-0.5,0.6c0,0,0-0.1,0-0.2c0-0.6-0.2-1.3-0.4-1.8c-0.1-0.2-0.1-0.3-0.1-0.3
							c0.1-0.1,1.6-0.9,2.5-1.4C48.2,21.5,49.2,21,49.2,21.1L49.2,21.1z M42.8,22.6c0,0,0.1,0.1,0.3,0.1l0,0
							c0.3,0.2,0.6,0.4,0.9,0.6c0,0-0.1,0.1-0.3,0.2c-0.5,0.3-1.2,0.9-1.6,1.2c-0.4,0.4-0.5,0.4-0.4,0.3c0.3-0.5,0.5-0.8,0.7-1.2
							l0,0c0.2-0.3,0.3-0.7,0.4-1.1C42.8,22.7,42.8,22.6,42.8,22.6L42.8,22.6z M44.6,24c0,0,0.1,0,0.2,0.2c0.3,0.4,0.5,1,0.6,1.5
							l0,0.1L44.6,26c-1.2,0.5-2.4,1-3.2,1.3c-0.2,0.1-0.6,0.3-0.8,0.4c-0.2,0.1-0.5,0.2-0.5,0.2s0.2-0.1,0.3-0.3
							c1.5-1.1,2.8-2.3,3.8-3.5C44.4,24.1,44.5,24,44.6,24L44.6,24z M43.8,24.2c0,0-0.6,0.7-1,1.1c-1,1-1.9,1.8-3.1,2.5
							c-0.2,0.1-0.3,0.2-0.3,0.2c0,0,0,0,0.5-0.6c0.3-0.4,0.6-0.7,0.9-1c0.2-0.2,0.2-0.3,0.5-0.5C42,25.3,43.7,24.1,43.8,24.2
							L43.8,24.2z"/>
						<path id="形状_2_" class="st2" d="M49.2,41.7h0.1v-0.9h0.3v-0.1H49v0.1h0.3V41.7L49.2,41.7z M49.9,41L49.9,41
							c0-0.1,0-0.1,0-0.2l0,0C49.9,40.9,49.9,40.9,49.9,41l0.4,0.7h0.1l0.3-0.8c0,0,0-0.1,0-0.1c0,0.1,0,0.1,0,0.2v0.7h0.1v-1h-0.1
							l-0.3,0.7c0,0,0,0.1,0,0.1h0l0,0c0,0,0-0.1,0-0.1l-0.3-0.7h-0.2v1h0.1L49.9,41L49.9,41L49.9,41z"/>
					</g>
				</g>
			</g>
		</g>
	</g>
</g>
</svg>
