<?xml version="1.0" encoding="UTF-8"?>
<svg width="17px" height="17px" viewBox="0 0 17 17" version="1.1" xmlns="http://www.w3.org/2000/svg" xmlns:xlink="http://www.w3.org/1999/xlink">
    <title>形状结合 2</title>
    <defs>
        <rect id="path-1" x="320" y="160" width="298" height="281" rx="3"></rect>
        <filter x="-3.7%" y="-3.9%" width="108.7%" height="109.3%" filterUnits="objectBoundingBox" id="filter-2">
            <feOffset dx="2" dy="2" in="SourceAlpha" result="shadowOffsetOuter1"></feOffset>
            <feGaussianBlur stdDeviation="4" in="shadowOffsetOuter1" result="shadowBlurOuter1"></feGaussianBlur>
            <feComposite in="shadowBlurOuter1" in2="SourceAlpha" operator="out" result="shadowBlurOuter1"></feComposite>
            <feColorMatrix values="0 0 0 0 0   0 0 0 0 0   0 0 0 0 0  0 0 0 0.3 0" type="matrix" in="shadowBlurOuter1"></feColorMatrix>
        </filter>
    </defs>
    <g id="数据工厂" stroke="none" stroke-width="1" fill="none" fill-rule="evenodd">
        <g id="数据源管理" transform="translate(-424.000000, -404.000000)">
            <rect fill="#EFF3F6" x="0" y="0" width="1580" height="1020"></rect>
            <g id="active备份-10">
                <use fill="black" fill-opacity="1" filter="url(#filter-2)" xlink:href="#path-1"></use>
                <rect stroke="#CED0DA" stroke-width="1" stroke-linejoin="square" fill="#FFFFFF" fill-rule="evenodd" x="320.5" y="160.5" width="297" height="280" rx="3"></rect>
            </g>
            <g id="编组-7" transform="translate(424.666667, 404.003687)" fill="#354052" fill-rule="nonzero">
                <path d="M13.8904831,1 C14.1960009,1 14.444531,1.24853008 14.444531,1.55404794 L14.444531,5.58276798 C14.444531,5.88828584 14.1960009,6.13681592 13.8904831,6.13681592 C13.5849652,6.13681592 13.3364351,5.88828584 13.3364351,5.58276798 L13.3364351,2.10809588 L2.09717688,2.10809588 L2.09717688,13.8919041 L6.04516422,13.8919041 C6.35068208,13.8919041 6.59921216,14.1404342 6.59921216,14.4459521 C6.59921216,14.7514699 6.35226508,15 6.04516422,15 L1.54312894,15 C1.23761108,15 0.989080999,14.7514699 0.989080999,14.4459521 L0.989080999,1.55404794 C0.989080999,1.24853008 1.23761108,1 1.54312894,1 L13.8904831,1 Z M10.4917947,6.77159656 C11.4685021,6.77159656 12.3866387,7.15151515 13.0768241,7.84170059 C13.7670095,8.53188602 14.1469281,9.45002261 14.1469281,10.42673 C14.1469281,11.2455771 13.8798937,12.0232565 13.3868685,12.659957 L14.8291986,13.9710538 C15.0555668,14.1768431 15.0729797,14.5266848 14.8671905,14.7530529 C14.7579639,14.8749435 14.6075794,14.9350972 14.457195,14.9350972 C14.3242235,14.9350972 14.191252,14.8876074 14.0851914,14.7910448 L12.583999,13.4265457 C11.9750596,13.8538177 11.2511277,14.0834464 10.4917947,14.0834464 C9.51508733,14.0834464 8.59695074,13.7035278 7.90676531,13.0133424 C7.21657987,12.3215739 6.83666128,11.4034374 6.83666128,10.42673 C6.83666128,9.45002261 7.21657987,8.53188602 7.90676531,7.84170059 C8.59695074,7.15151515 9.51508733,6.77159656 10.4917947,6.77159656 Z M10.4917947,7.87969245 C9.08767892,7.87969245 7.94475716,9.0226142 7.94475716,10.42673 C7.94475716,11.8308458 9.08767892,12.9737675 10.4917947,12.9737675 C11.8959105,12.9737675 13.0388339,11.8308458 13.0388339,10.42673 C13.0404152,9.0226142 11.8974935,7.87969245 10.4917947,7.87969245 Z M7.17067304,6.17955676 C7.4761909,6.17955676 7.72472098,6.42808684 7.72472098,6.7336047 C7.72472098,7.03912257 7.4777739,7.28765265 7.17225603,7.28765265 L3.23376666,7.28765265 C2.9282488,7.28765265 2.67971872,7.03912257 2.67971872,6.7336047 C2.67971872,6.42808684 2.9282488,6.17955676 3.23376666,6.17955676 L7.17067304,6.17955676 Z M12.1650195,3.2066938 C12.4705374,3.2066938 12.7190674,3.45522388 12.7190674,3.76074175 C12.7190674,4.06625961 12.4721203,4.31478969 12.1650195,4.31478969 L3.17361289,4.31478969 C2.86809502,4.31478969 2.61956494,4.06625961 2.61956494,3.76074175 C2.61956494,3.45522388 2.86809502,3.2066938 3.17361289,3.2066938 L12.1650195,3.2066938 Z" id="形状结合"></path>
            </g>
        </g>
    </g>
</svg>