<?xml version="1.0" encoding="UTF-8"?>
<svg width="16px" height="16px" viewBox="0 0 16 16" version="1.1" xmlns="http://www.w3.org/2000/svg" xmlns:xlink="http://www.w3.org/1999/xlink">
    <title>形状</title>
    <defs>
        <linearGradient x1="50%" y1="97.783801%" x2="50%" y2="1.55905295%" id="linearGradient-1">
            <stop stop-color="#0F71E2" offset="0%"></stop>
            <stop stop-color="#1991EB" offset="100%"></stop>
        </linearGradient>
    </defs>
    <g id="数据工厂" stroke="none" stroke-width="1" fill="none" fill-rule="evenodd">
        <g id="数据源管理" transform="translate(-1481.000000, -127.000000)">
            <rect fill="#EFF3F6" x="0" y="0" width="1580" height="1020"></rect>
            <g id="编组-3" transform="translate(1465.000000, 117.000000)">
                <path d="M47.5,0.5 L47.5,35.5 L4.00989318,35.5 C3.04024106,35.5 2.16227018,35.1093331 1.52685082,34.4770378 C0.892505393,33.8458111 0.5,32.9737213 0.5,32.0098214 L0.5,32.0098214 L0.5,3.99017859 C0.5,3.02653365 0.892465792,2.15422323 1.52699145,1.52281722 C2.16222904,0.890702757 3.03997843,0.5 4.00989318,0.5 L4.00989318,0.5 L47.5,0.5 Z" id="Base" stroke="#0F71E2" fill="url(#linearGradient-1)"></path>
                <path d="M17,11.2828571 C17,11.2055373 17.0626801,11.1428571 17.14,11.1428571 L23.3,11.1428571 C23.3773199,11.1428571 23.44,11.2055373 23.44,11.2828571 L23.44,17.4428571 C23.44,17.520177 23.3773199,17.5828571 23.3,17.5828571 L17.14,17.5828571 C17.0626801,17.5828571 17,17.520177 17,17.4428571 L17,11.2828571 Z M25.68,12.2628571 L29.88,12.2628571 L29.88,16.4628571 L25.68,16.4628571 L25.68,12.2628571 Z M24.7,11.1428571 C24.6226801,11.1428571 24.56,11.2055373 24.56,11.2828571 L24.56,17.4428571 C24.56,17.520177 24.6226801,17.5828571 24.7,17.5828571 L30.86,17.5828571 C30.9373199,17.5828571 31,17.520177 31,17.4428571 L31,11.2828571 C31,11.2055373 30.9373199,11.1428571 30.86,11.1428571 L24.7,11.1428571 Z M17,18.8428571 C17,18.7655373 17.0626801,18.7028571 17.14,18.7028571 L23.3,18.7028571 C23.3773199,18.7028571 23.44,18.7655373 23.44,18.8428571 L23.44,25.0028571 C23.44,25.080177 23.3773199,25.1428571 23.3,25.1428571 L17.14,25.1428571 C17.0626801,25.1428571 17,25.080177 17,25.0028571 L17,18.8428571 Z M24.56,18.8428571 C24.56,18.7655373 24.6226801,18.7028571 24.7,18.7028571 L30.86,18.7028571 C30.9373199,18.7028571 31,18.7655373 31,18.8428571 L31,25.0028571 C31,25.080177 30.9373199,25.1428571 30.86,25.1428571 L24.7,25.1428571 C24.6226801,25.1428571 24.56,25.080177 24.56,25.0028571 L24.56,18.8428571 Z" id="形状" fill="#FFFFFF" fill-rule="nonzero"></path>
            </g>
        </g>
    </g>
</svg>