<?xml version="1.0" encoding="UTF-8"?>
<svg width="16px" height="16px" viewBox="0 0 16 16" version="1.1" xmlns="http://www.w3.org/2000/svg" xmlns:xlink="http://www.w3.org/1999/xlink">
    <title>形状</title>
    <defs>
        <linearGradient x1="50%" y1="100%" x2="50%" y2="0%" id="linearGradient-1">
            <stop stop-color="#F2F4F7" offset="0%"></stop>
            <stop stop-color="#FFFFFF" offset="100%"></stop>
        </linearGradient>
    </defs>
    <g id="数据工厂" stroke="none" stroke-width="1" fill="none" fill-rule="evenodd">
        <g id="数据源管理" transform="translate(-1528.000000, -127.000000)">
            <rect fill="#EFF3F6" x="0" y="0" width="1580" height="1020"></rect>
            <g id="编组-4" transform="translate(1465.000000, 117.000000)">
                <g id="编组-2" transform="translate(47.000000, 0.000000)">
                    <path d="M43.9901068,0.5 C44.9597589,0.5 45.8377298,0.89066692 46.4731492,1.52296224 C47.1074946,2.15418892 47.5,3.02627872 47.5,3.99017859 L47.5,3.99017859 L47.5,32.0098214 C47.5,32.9734664 47.1075342,33.8457768 46.4730086,34.4771828 C45.837771,35.1092972 44.9600216,35.5 43.9901068,35.5 L43.9901068,35.5 L0.5,35.5 L0.5,0.5 Z" id="Base" stroke="#CED0DA" fill="url(#linearGradient-1)"></path>
                    <path d="M16,11.1428571 L16,25.1428571 L32,25.1428571 L32,11.1428571 L16,11.1428571 Z M26.8571429,13.7678571 L30.8571429,13.7678571 L30.8571429,16.3928571 L26.8571429,16.3928571 L26.8571429,13.7678571 Z M21.1428571,23.9761905 L17.1428571,23.9761905 L17.1428571,21.2928571 L21.1428571,21.2928571 L21.1428571,23.9761905 Z M21.1428571,20.1261905 L17.1428571,20.1261905 L17.1428571,17.5595238 L21.1428571,17.5595238 L21.1428571,20.1261905 Z M21.1428571,16.3928571 L17.1428571,16.3928571 L17.1428571,13.7678571 L21.1428571,13.7678571 L21.1428571,16.3928571 L21.1428571,16.3928571 Z M25.7142857,23.9761905 L22.2857143,23.9761905 L22.2857143,21.2928571 L25.7142857,21.2928571 L25.7142857,23.9761905 Z M25.7142857,20.1261905 L22.2857143,20.1261905 L22.2857143,17.5595238 L25.7142857,17.5595238 L25.7142857,20.1261905 Z M25.7142857,16.3928571 L22.2857143,16.3928571 L22.2857143,13.7678571 L25.7142857,13.7678571 L25.7142857,16.3928571 L25.7142857,16.3928571 Z M30.8571429,23.9761905 L26.8571429,23.9761905 L26.8571429,21.2928571 L30.8571429,21.2928571 L30.8571429,23.9761905 Z M30.8571429,20.1261905 L26.8571429,20.1261905 L26.8571429,17.5595238 L30.8571429,17.5595238 L30.8571429,20.1261905 Z" id="形状" fill="#979DA6" fill-rule="nonzero" opacity="0.5"></path>
                </g>
            </g>
        </g>
    </g>
</svg>