<?xml version="1.0" encoding="UTF-8"?>
<svg width="17px" height="17px" viewBox="0 0 17 17" version="1.1" xmlns="http://www.w3.org/2000/svg" xmlns:xlink="http://www.w3.org/1999/xlink">
    <title>形状结合 2</title>
    <defs>
        <rect id="path-1" x="320" y="160" width="298" height="281" rx="3"></rect>
        <filter x="-3.7%" y="-3.9%" width="108.7%" height="109.3%" filterUnits="objectBoundingBox" id="filter-2">
            <feOffset dx="2" dy="2" in="SourceAlpha" result="shadowOffsetOuter1"></feOffset>
            <feGaussianBlur stdDeviation="4" in="shadowOffsetOuter1" result="shadowBlurOuter1"></feGaussianBlur>
            <feComposite in="shadowBlurOuter1" in2="SourceAlpha" operator="out" result="shadowBlurOuter1"></feComposite>
            <feColorMatrix values="0 0 0 0 0   0 0 0 0 0   0 0 0 0 0  0 0 0 0.3 0" type="matrix" in="shadowBlurOuter1"></feColorMatrix>
        </filter>
    </defs>
    <g id="数据工厂" stroke="none" stroke-width="1" fill="none" fill-rule="evenodd">
        <g id="数据源管理" transform="translate(-497.000000, -404.000000)">
            <rect fill="#EFF3F6" x="0" y="0" width="1580" height="1020"></rect>
            <g id="active备份-10">
                <use fill="black" fill-opacity="1" filter="url(#filter-2)" xlink:href="#path-1"></use>
                <rect stroke="#CED0DA" stroke-width="1" stroke-linejoin="square" fill="#FFFFFF" fill-rule="evenodd" x="320.5" y="160.5" width="297" height="280" rx="3"></rect>
            </g>
            <g id="编组-6" transform="translate(497.333333, 404.003687)" fill="#354052" fill-rule="nonzero">
                <g id="形状结合-3" transform="translate(2.000000, 1.000000)">
                    <path d="M-2.30926389e-14,2.87179487 L0.00617321772,2.74029173 C0.149700435,1.21472381 2.77794117,-5.5067062e-14 6,-5.5067062e-14 C9.31411766,-5.5067062e-14 12,1.28512819 12,2.87179487 L12,2.87179487 L12,11.1282051 C12,12.7148718 9.31411764,14 6,14 C2.68588236,14 -2.48689958e-14,12.7148718 -2.48689958e-14,11.1282051 L-2.48689958e-14,11.1282051 L-2.30926389e-14,2.87179487 Z M11.1891607,9.8188345 C10.1498186,10.6734654 8.21525677,11.2484615 6,11.2484615 C3.78474323,11.2484615 1.85018144,10.6734655 0.8108393,9.81883451 L0.811764695,11.1282051 C0.811764695,11.9628205 2.82352941,13.174359 6,13.174359 C9.17647059,13.174359 11.1882353,11.9628205 11.1882353,11.1282051 L11.1882353,11.1282051 Z M1.94117646,10.9487179 C2.2250972,11.0972542 2.52013708,11.222689 2.82352941,11.3238462 L2.82352941,11.3238462 L2.82352941,12.1889744 C2.52330712,12.0993788 2.22865707,11.9914916 1.94117646,11.8658974 L1.94117646,11.8658974 Z M11.1891607,7.06629887 C10.1498186,7.92093406 8.21525677,8.49512821 6,8.49512821 C3.78474323,8.49512821 1.85018144,7.92093406 0.8108393,7.06629887 L0.811764695,8.37666667 C0.811764695,9.20948717 2.83235294,10.4228205 6,10.4228205 C9.16764706,10.4228205 11.1882353,9.20948719 11.1882353,8.37666667 L11.1882353,8.37666667 Z M1.94117646,8.20076923 C2.2258877,8.34656744 2.52080952,8.47075221 2.82352941,8.57230769 L2.82352941,8.57230769 L2.82352941,9.43564102 C2.52309145,9.34743207 2.22839425,9.24012702 1.94117646,9.11435897 L1.94117646,9.11435897 Z M11.1891607,4.31476041 C10.1498186,5.16939561 8.21525677,5.74358975 6,5.74358975 C3.78474323,5.74358975 1.85018144,5.1693956 0.8108393,4.3147604 L0.811764695,5.62333333 C0.811764695,6.46153847 2.82352941,7.66948718 6,7.66948718 C9.17647059,7.66948718 11.1882353,6.46153847 11.1882353,5.62333333 L11.1882353,5.62333333 Z M1.94117646,5.44743589 C2.22520539,5.59474427 2.52024264,5.71897765 2.82352941,5.81897435 L2.82352941,5.81897435 L2.82352941,6.68410256 C2.52360424,6.59428612 2.22900104,6.4870153 1.94117646,6.36282051 L1.94117646,6.36282051 Z M6,0.825641014 C2.83235294,0.825641014 0.811764695,2.03717948 0.811764695,2.87179487 C0.811764695,3.70641026 2.82352941,4.91794872 6,4.91794872 C9.17647059,4.91794872 11.1882353,3.70641026 11.1882353,2.87179487 C11.1882353,2.03717948 9.17647059,0.825641014 6,0.825641014 Z" id="形状结合"></path>
                </g>
            </g>
        </g>
    </g>
</svg>