<?xml version="1.0" encoding="utf-8"?>
<!-- Generator: Adobe Illustrator 21.0.0, SVG Export Plug-In . SVG Version: 6.00 Build 0)  -->
<svg version="1.1" id="图层_1" xmlns="http://www.w3.org/2000/svg" xmlns:xlink="http://www.w3.org/1999/xlink" x="0px" y="0px"
	 viewBox="0 0 96.1 49.9" style="enable-background:new 0 0 96.1 49.9;" xml:space="preserve">
<title>Table Store</title>
<desc>Created with Sketch.</desc>
<g id="组件库">
	<g id="组件2" transform="translate(-867.000000, -1618.000000)">
		<g id="图标" transform="translate(40.000000, 749.000000)">
			<g id="Component" transform="translate(40.000000, 725.000000)">
				<g id="Iconography" transform="translate(0.000000, 49.000000)">
					<g id="Icon" transform="translate(768.000000, 74.000000)">
						<g id="Table-Store" transform="translate(19.000000, 21.000000)">
							<path id="路径" d="M53,19L53,19c0,0.7-0.2,1.5-0.6,2.1l4,2.9l0,0c0.5-0.3,1.1-0.5,1.8-0.5c1.7,0,3.1,1.3,3.1,2.9
								c0,1.6-1.4,2.9-3.1,2.9c-1.7,0-3.1-1.3-3.1-2.9c0-0.4,0.1-0.7,0.2-1l-4-2.9l0,0c-0.7,0.6-1.5,1-2.4,1.1v4.5
								c1.8,0.4,3.1,1.9,3.1,3.7c0,2.1-1.8,3.8-4,3.8c-2.2,0-4-1.7-4-3.8c0-1.8,1.3-3.3,3.1-3.7v-4.5l0,0c-0.9-0.1-1.7-0.5-2.4-1.1
								l-4,2.9c0.1,0.3,0.2,0.7,0.2,1c0,1.6-1.4,2.9-3.1,2.9c-1.7,0-3.1-1.3-3.1-2.9c0-1.6,1.4-2.9,3.1-2.9c0.7,0,1.3,0.2,1.8,0.5
								l4-2.9l0,0c-0.4-0.7-0.6-1.4-0.6-2.1c0-2.6,2.2-4.7,5-4.7C50.8,14.4,53,16.4,53,19L53,19z"/>
						</g>
					</g>
				</g>
			</g>
		</g>
	</g>
</g>
</svg>
