<?xml version="1.0" encoding="utf-8"?>
<!-- Generator: Adobe Illustrator 24.1.0, SVG Export Plug-In . SVG Version: 6.00 Build 0)  -->
<svg version="1.1" id="图层_1" xmlns="http://www.w3.org/2000/svg" xmlns:xlink="http://www.w3.org/1999/xlink" x="0px" y="0px"
	 viewBox="0 0 96.1 49.9" style="enable-background:new 0 0 96.1 49.9;" xml:space="preserve">
<style type="text/css">
	.st0{fill:#108EE9;}
</style>
<desc>Created with Sketch.</desc>
<g id="组件库">
	<g id="组件2" transform="translate(-96.000000, -2042.000000)">
		<g id="图标" transform="translate(40.000000, 1101.000000)">
			<g id="Component" transform="translate(40.000000, 725.000000)">
				<g id="Iconography" transform="translate(0.000000, 49.000000)">
					<g id="Icon" transform="translate(0.000000, 148.000000)">
						<g id="webservice" transform="translate(16.000000, 19.000000)">
							<path id="形状" class="st0" d="M59,25.9L59,25.9c-0.4-0.4-0.9-0.7-1.3-1c0-0.6,0-1.1-0.1-1.7v0c-0.1-0.6-0.2-1.1-0.4-1.7
								H52c0.1,0.8,0.2,1.5,0.2,2.3c-0.5,0.1-0.9,0.2-1.4,0.3v0c0-0.9-0.1-1.7-0.2-2.6H40.5v0c-0.3,2.3-0.3,4.6,0,6.9h5.2
								c-0.2,0.4-0.4,0.9-0.5,1.4h-4.4c0.1,0.4,0.2,0.8,0.3,1.3c0.1,0.5,0.3,1,0.5,1.6c0.2,0.5,0.4,1.1,0.7,1.6
								c0.3,0.5,0.6,1,0.9,1.4c0.3,0.4,0.7,0.8,1.1,1c0.4,0.3,0.8,0.4,1.3,0.4c0.3,0,0.7-0.1,0.9-0.2c0.4,0.5,0.8,1,1.4,1.4l0,0
								c-0.8,0.1-1.5,0.2-2.3,0.2l0,0c-1.2,0-2.4-0.2-3.6-0.5l0,0c-1.1-0.3-2.2-0.8-3.2-1.4l0,0c-1-0.6-1.9-1.3-2.7-2.1l0,0
								c-0.8-0.8-1.5-1.7-2.1-2.7l0,0c-1.2-2.1-1.8-4.4-1.8-6.8v0c0-2.4,0.6-4.7,1.8-6.8c0.6-1,1.3-1.9,2.1-2.7l0,0
								c0.8-0.8,1.7-1.5,2.7-2.1l0,0c1-0.6,2.1-1,3.2-1.4l0,0c1.2-0.3,2.4-0.5,3.6-0.5l0,0c1.2,0,2.4,0.2,3.6,0.5
								c1.1,0.3,2.2,0.8,3.2,1.4l0,0c1,0.6,1.9,1.3,2.7,2.1l0,0c0.8,0.8,1.5,1.7,2.1,2.7l0,0c1.2,2.1,1.8,4.4,1.8,6.8
								C59,25.3,59,25.6,59,25.9L59,25.9z M56.7,20.1L56.7,20.1c-0.3-0.8-0.8-1.6-1.3-2.3c-0.5-0.7-1.1-1.4-1.8-2l0,0
								c-1.3-1.2-2.9-2.1-4.6-2.6c0.4,0.5,0.7,1,1,1.5c0.3,0.6,0.6,1.1,0.8,1.7c0.2,0.6,0.4,1.2,0.6,1.8c0.2,0.6,0.3,1.2,0.4,1.8
								L56.7,20.1L56.7,20.1z M33.4,24.9c0,0.6,0,1.2,0.1,1.7c0.1,0.6,0.2,1.1,0.4,1.7h5.2l0,0c-0.3-2.3-0.3-4.6,0-6.9h-5.2
								c-0.2,0.6-0.3,1.1-0.4,1.7C33.5,23.8,33.4,24.4,33.4,24.9L33.4,24.9z M45.5,12.8c-0.5,0-0.9,0.1-1.3,0.4v0
								c-0.4,0.3-0.8,0.6-1.1,1l0,0c-0.3,0.4-0.7,0.9-0.9,1.4c-0.3,0.5-0.5,1.1-0.7,1.6l0,0c-0.4,0.9-0.6,1.9-0.8,2.9h9.7l0,0
								c-0.1-0.4-0.2-0.9-0.3-1.3v0c-0.3-1.1-0.7-2.2-1.2-3.2v0c-0.3-0.5-0.6-1-0.9-1.4l0,0c-0.3-0.4-0.7-0.7-1.1-1l0,0
								C46.5,13,46,12.8,45.5,12.8L45.5,12.8z M42.1,13.3L42.1,13.3c-0.9,0.2-1.7,0.6-2.5,1l0,0c-0.8,0.4-1.5,0.9-2.2,1.5
								c-0.7,0.6-1.2,1.2-1.8,2l0,0c-0.5,0.7-1,1.5-1.3,2.3h4.9c0.1-0.6,0.2-1.2,0.4-1.8c0.2-0.6,0.4-1.2,0.6-1.8
								c0.2-0.6,0.5-1.2,0.8-1.7C41.4,14.3,41.7,13.8,42.1,13.3L42.1,13.3z M34.4,29.8L34.4,29.8c1,2.4,2.9,4.5,5.2,5.8
								c0.8,0.4,1.6,0.8,2.4,1l0,0c-0.4-0.5-0.7-1-1-1.5l0,0c-0.3-0.6-0.6-1.1-0.8-1.7c-0.2-0.6-0.4-1.2-0.6-1.8v0
								c-0.2-0.6-0.3-1.2-0.4-1.8H34.4L34.4,29.8z"/>
							<path id="形状_1_" class="st0" d="M48,35.3l-2-8.7h1.7l1.2,6l1.5-6h2l1.5,6.1l1.3-6.1h1.7l-2,8.7h-1.8l-1.6-6.5l-1.6,6.5
								H48L48,35.3z M57.3,32.5l1.6-0.2c0.1,0.6,0.3,1,0.6,1.3c0.3,0.3,0.7,0.4,1.2,0.4c0.5,0,0.9-0.1,1.2-0.4
								c0.3-0.2,0.4-0.5,0.4-0.8c0-0.2-0.1-0.4-0.2-0.5c-0.1-0.1-0.3-0.3-0.6-0.4c-0.2-0.1-0.6-0.2-1.3-0.4
								c-0.9-0.2-1.5-0.5-1.9-0.9c-0.5-0.5-0.8-1.1-0.8-1.8c0-0.4,0.1-0.9,0.4-1.2c0.2-0.4,0.6-0.7,1-0.9c0.4-0.2,1-0.3,1.6-0.3
								c1,0,1.8,0.2,2.3,0.7c0.5,0.5,0.8,1.1,0.8,1.9l-1.7,0.1c-0.1-0.4-0.2-0.8-0.5-1c-0.2-0.2-0.6-0.3-1.1-0.3s-0.9,0.1-1.1,0.3
								c-0.2,0.1-0.3,0.3-0.3,0.5c0,0.2,0.1,0.4,0.3,0.5c0.2,0.2,0.7,0.4,1.5,0.6c0.8,0.2,1.4,0.4,1.8,0.6s0.7,0.5,0.9,0.9
								c0.2,0.4,0.3,0.8,0.3,1.4c0,0.5-0.1,1-0.4,1.4c-0.3,0.4-0.6,0.8-1.1,1c-0.5,0.2-1.1,0.3-1.8,0.3c-1,0-1.9-0.3-2.4-0.8
								C57.8,34.2,57.5,33.4,57.3,32.5L57.3,32.5z"/>
						</g>
					</g>
				</g>
			</g>
		</g>
	</g>
</g>
</svg>
