<?xml version="1.0" standalone="no"?><!DOCTYPE svg PUBLIC "-//W3C//DTD SVG 1.1//EN" "http://www.w3.org/Graphics/SVG/1.1/DTD/svg11.dtd"><svg t="1625384375321" class="icon" viewBox="0 0 1024 1024" version="1.1" xmlns="http://www.w3.org/2000/svg" p-id="5566" xmlns:xlink="http://www.w3.org/1999/xlink" width="200" height="200"><defs><style type="text/css"></style></defs><path d="M827.284211 704.026947c-29.642105 0-59.284211 11.856842-82.997895 23.713685l-47.427369-47.427369c23.713684-35.570526 41.498947-77.069474 41.498948-124.496842 0-65.212632-29.642105-124.496842-77.069474-160.067368l23.713684-47.427369h23.713684c82.997895 0 148.210526-65.212632 148.210527-148.210526S791.713684 51.900632 708.715789 51.900632 560.505263 117.113263 560.505263 200.111158c0 53.355789 29.642105 94.854737 65.212632 124.496842l-17.785263 41.498947c-23.713684-11.856842-47.427368-17.785263-77.069474-17.785263-112.64 0-207.494737 94.854737-207.494737 207.494737 0 29.642105 5.928421 53.355789 17.785263 77.069474l-41.498947 17.785263c-29.642105-35.570526-71.141053-65.212632-124.496842-65.212632-82.997895 0-148.210526 65.212632-148.210527 148.210527s65.212632 148.210526 148.210527 148.210526 148.210526-65.212632 148.210526-148.210526v-23.713685l47.427368-23.713684c35.570526 47.427368 94.854737 77.069474 160.067369 77.069474 47.427368 0 88.926316-17.785263 124.496842-41.498947l47.427368 47.427368c-11.856842 23.713684-23.713684 53.355789-23.713684 82.997895 0 82.997895 65.212632 148.210526 148.210527 148.210526s148.210526-65.212632 148.210526-148.210526-65.212632-148.210526-148.210526-148.210527z m-118.568422-592.842105c47.427368 0 88.926316 41.498947 88.926316 88.926316 0 47.427368-41.498947 88.926316-88.926316 88.926316-47.427368 0-88.926316-41.498947-88.926315-88.926316 0-47.427368 41.498947-88.926316 88.926315-88.926316z m-533.557894 711.410526c-47.427368 0-88.926316-41.498947-88.926316-88.926315 0-47.427368 41.498947-88.926316 88.926316-88.926316 47.427368 0 88.926316 41.498947 88.926316 88.926316 0 47.427368-41.498947 88.926316-88.926316 88.926315z m207.494737-266.778947c0-82.997895 65.212632-148.210526 148.210526-148.210526s148.210526 65.212632 148.210526 148.210526-65.212632 148.210526-148.210526 148.210526-148.210526-65.212632-148.210526-148.210526z m444.631579 385.347368c-47.427368 0-88.926316-41.498947-88.926316-88.926315 0-47.427368 41.498947-88.926316 88.926316-88.926316 47.427368 0 88.926316 41.498947 88.926315 88.926316 0 47.427368-41.498947 88.926316-88.926315 88.926315z" fill="#0F71E2" p-id="5567"></path></svg>
