<?xml version="1.0" encoding="UTF-8"?>
<svg viewBox="0 0 16 15" version="1.1" xmlns="http://www.w3.org/2000/svg" xmlns:xlink="http://www.w3.org/1999/xlink">
    <title>collect</title>
    <g id="元数据中心" stroke="none" stroke-width="1" fill-rule="evenodd">
        <g id="表详情页" transform="translate(-701.000000, -18.000000)" fill-rule="nonzero">
            <g id="Active-Tab" transform="translate(541.000000, 0.000000)">
                <path d="M167.681059,18 C168.201054,18 168.695048,18.2859969 168.940601,18.7229249 L170.579245,22.0430026 L174.096237,22.661839 C174.65319,22.7443351 175.117302,23.1465788 175.272011,23.6829036 C175.431408,24.1704576 175.326564,24.6921073 175.003984,25.0851234 L174.890395,25.2093358 L172.363526,27.5918096 L173.00299,31.0263052 C173.10613,31.5729286 172.889522,32.1298813 172.435724,32.4805399 C172.188189,32.6661908 171.878786,32.7796441 171.569368,32.7693302 C171.352776,32.7693302 171.105241,32.7074465 170.888664,32.5939932 L167.681075,30.9850495 L164.442544,32.5939932 C164.236265,32.707462 163.99906,32.7590162 163.761839,32.7590162 C163.452421,32.7590162 163.153332,32.6662062 162.895484,32.4805399 C162.44167,32.1401953 162.214764,31.5523007 162.317903,31.0159913 L162.977995,27.5814957 L160.451111,25.2196498 C160.059197,24.8174215 159.904488,24.2501549 160.059197,23.71383 L160.069511,23.6932021 C160.239677,23.1826763 160.635186,22.8194692 161.128906,22.7068814 L164.782904,22.0430026 L166.360906,18.8354137 C166.618754,18.3300461 167.134436,18 167.681059,18 Z M167.681059,19 C167.545826,19 167.400844,19.0777318 167.307511,19.1990776 L167.258201,19.2768458 L165.4577,22.9367058 L161.394427,23.6741724 C161.250355,23.6928451 161.130626,23.7767174 161.056808,23.9178945 L161.015,24.017 L161.002307,24.0827623 C160.989778,24.205689 161.020564,24.3285541 161.08217,24.4235249 L161.133958,24.489088 L164.06424,27.227985 L163.299909,31.2048439 C163.268775,31.3667362 163.348595,31.5703786 163.479821,31.6690285 C163.563356,31.7291789 163.657013,31.7590162 163.761839,31.7590162 C163.818024,31.7590162 163.867524,31.7517556 163.918656,31.7338033 L163.997615,31.6984272 L167.683219,29.867372 L171.352697,31.7081753 C171.426145,31.746651 171.514888,31.7693302 171.602683,31.7699848 C171.665097,31.7719657 171.754691,31.7413141 171.82428,31.6892519 C171.956358,31.5871929 172.027292,31.4446647 172.027977,31.2977412 L172.019886,31.2093482 L171.280557,27.2384928 L174.193618,24.4918997 C174.332736,24.3527816 174.378365,24.1675285 174.311187,23.9600643 C174.273157,23.8282262 174.166454,23.7191438 174.017312,23.6692508 L173.922943,23.6467092 L169.906815,22.9400467 L168.082103,19.2396571 C168.026052,19.1088746 167.855637,19 167.681059,19 Z" id="collect"></path>
            </g>
        </g>
    </g>
</svg>
