<?xml version="1.0" encoding="UTF-8"?>
<svg viewBox="-3 0 17 14" version="1.1" xmlns="http://www.w3.org/2000/svg" xmlns:xlink="http://www.w3.org/1999/xlink">
    <!-- Generator: Sketch 63.1 (92452) - https://sketch.com -->
    <title>copy</title>
    <desc>Created with Sketch.</desc>
    <g id="页面-1" stroke="none" stroke-width="1" fill-rule="evenodd">
        <g id="a2-指标定义-列表" transform="translate(-222.000000, -210.000000)">
            <g id="矩形-2" transform="translate(59.000000, 50.000000)">
                <g id="打开" transform="translate(10.000000, 65.000000)">
                    <g id="编组">
                        <g id="copy" transform="translate(151.000000, 95.000000)">
                            <path d="M10.0625,2.1875 C10.3041246,2.1875 10.5,2.38337542 10.5,2.625 L10.5,12.6875 C10.5,12.9291246 10.3041246,13.125 10.0625,13.125 L5.70130067,13.125 C5.58080421,13.125 5.46564243,13.0753026 5.38298031,12.9876306 L2.74417963,10.1889026 C2.66763363,10.1077175 2.625,10.000353 2.625,9.88877201 L2.625,2.625 C2.625,2.38337542 2.82087542,2.1875 3.0625,2.1875 L10.0625,2.1875 Z M9.625,3.0625 L3.5,3.0625 L3.5,9.625 L5.5125,9.625 C5.81694697,9.625 6.06951439,9.84712273 6.11698341,10.1381493 L6.125,10.2375 L6.125,12.25 L9.625,12.25 L9.625,3.0625 Z M11.2725677,0.875 C11.6350046,0.875 11.9288177,1.16881313 11.9288177,1.53125 L11.9288177,1.53125 L11.9288177,11.215744 C11.9288177,11.4573686 11.7329423,11.653244 11.4913177,11.653244 C11.2496932,11.653244 11.0538177,11.4573686 11.0538177,11.215744 L11.0538177,11.215744 L11.0538177,1.75 L4.375,1.75 C4.13337542,1.75 3.9375,1.55412458 3.9375,1.3125 C3.9375,1.07087542 4.13337542,0.875 4.375,0.875 L4.375,0.875 Z M5.25,10.5 L4.24,10.5 L5.25,11.571 L5.25,10.5 Z" id="形状结合"></path>
                        </g>
                    </g>
                </g>
            </g>
        </g>
    </g>
</svg>
