<svg width="200" height="200" viewBox="0 0 16 17" version="1.1" xmlns="http://www.w3.org/2000/svg">
    <path d="M8.17833381,0.03002559 L14.1288598,2.0936025 C14.3472278,2.17003128 14.4964458,2.37748081 14.4964458,2.6104066 L14.4964458,9.75470638 C14.4964458,10.0562096 14.2520292,10.3006262 13.950526,10.3006262 C13.6490228,10.3006262 13.4046062,10.0562096 13.4046062,9.75470638 L13.4046062,2.9998294 L8,1.12550469 L2.5953938,2.9998294 L2.5953938,8.60824566 C2.5953938,8.96855274 2.995735,10.2168894 3.96383281,11.5962468 C4.73539949,12.6990048 6.05652545,14.1475121 8.00363947,14.8754052 C8.25494043,14.7822657 8.5730649,14.6312124 8.95801286,14.4222455 C9.22108536,14.2794305 9.55004442,14.3722787 9.69963037,14.631561 C9.84692922,14.886879 9.75936239,15.2132645 9.50404437,15.3605633 C9.49854992,15.3637332 9.49299939,15.3668049 9.4874004,15.3697862 C8.95539329,15.6519307 8.51903776,15.8522967 8.17833381,15.9708843 C8.12010236,15.9890816 8.06187091,16 8,16 C7.93812909,16 7.87989764,15.9890816 7.82166619,15.9708843 C5.5033267,15.1738413 3.95655388,13.4924083 3.06852431,12.2222349 C2.04219505,10.7555303 1.50355417,9.29246517 1.50355417,8.60824566 L1.50355417,2.6104066 C1.50355417,2.37748081 1.65277225,2.17003128 1.87114018,2.0936025 L7.82166619,0.03002559 C7.93812909,-0.01000853 8.06187091,-0.01000853 8.17833381,0.03002559 Z M9.875,6.125 C10.0821068,5.91789322 10.4178932,5.91789322 10.625,6.125 C10.8321068,6.33210678 10.8321068,6.66789322 10.625,6.875 L10.625,6.875 L7.25,10.25 L5.36812213,8.36812213 C5.16370031,8.16370031 5.16058354,7.83324117 5.36111328,7.625 L5.36111328,7.625 C5.56408845,7.41823207 5.89052376,7.41523772 6.09370981,7.61473004 L6.09370981,7.61473004 L7.25,8.75 Z" />
    <path d="M13.4957062,9.31141074 C14.3241333,9.31141074 14.9957062,9.98298362 14.9957062,10.8114107 C14.9957062,11.6398379 14.3241333,12.3114107 13.4957062,12.3114107 C12.6672791,12.3114107 11.9957062,11.6398379 11.9957062,10.8114107 C11.9957062,9.98298362 12.6672791,9.31141074 13.4957062,9.31141074 Z M13.4957062,10.3114107 C13.2195638,10.3114107 12.9957062,10.5352684 12.9957062,10.8114107 C12.9957062,11.0875531 13.2195638,11.3114107 13.4957062,11.3114107 C13.7718486,11.3114107 13.9957062,11.0875531 13.9957062,10.8114107 C13.9957062,10.5352684 13.7718486,10.3114107 13.4957062,10.3114107 Z" />
</svg>