<svg t="1634610192611" class="icon" viewBox="0 0 1024 1024" version="1.1" xmlns="http://www.w3.org/2000/svg" p-id="1459" width="20" height="20"><path d="M892.8256 162.5088c19.1488 6.5024 25.4976 19.6608 25.4976 32.7168v405.9648c0 98.2016-50.9952 183.296-133.7856 235.6736l-223.0784 131.072c-12.8 6.5024-38.2976 6.5024-50.9952 0l-223.0784-130.9696C204.5952 784.5888 153.6 692.8896 153.6 601.2416V201.8304c0-19.6608 12.8-32.768 25.4976-39.3216L523.1616 51.2h25.4976l344.1664 111.3088z m-485.376 502.9376v-187.392c0-24.2688-15.7696-48.4352-47.1552-48.4352s-55.04 24.2688-47.1552 48.4352v187.392c0 24.2688 23.6032 48.4864 47.1552 48.4864 23.552-0.1024 47.1552-24.2688 47.1552-48.4864z m170.0864 23.808V277.4016c0-24.6784-24.0128-49.2544-47.9232-49.2544-23.9104 0-47.9232 24.6784-47.9232 49.2544v382.976c0 24.6784 24.0128 78.1312 47.9232 78.1312 23.9104 0 47.9232-24.576 47.9232-49.2544z m175.7184-16.384V424.704c0-24.6272-16.4864-49.3056-48.4352-49.3056-32 0-47.36 24.6784-47.36 49.3056v248.064c0 24.6784 23.9616 49.3056 47.9744 49.3056 24.0128 0 47.8208-24.6272 47.8208-49.3056z" p-id="1460"></path></svg>
