<svg width="200" height="200" viewBox="0 0 16 16" version="1.1" xmlns="http://www.w3.org/2000/svg">
  <path d="M14.4240774,1 C14.7408348,1 15,1.25017635 15,1.55960498 L15,5.58053139 C15,5.88831413 14.7425287,6.13849048 14.4257713,6.13849048 L5.18218811,6.13906394 C5.25845812,6.80660915 5.84204516,7.32682812 6.5491833,7.32682812 L9.45759226,7.32682812 C10.8499698,7.32682812 11.9831821,8.42793322 11.9831821,9.78086057 L11.9831821,9.83682107 L11.981,9.861 L14.4240774,9.86150952 C14.7408348,9.86150952 15,10.1116859 15,10.4211145 L15,14.4420409 C15,14.7498237 14.7425287,15 14.4257713,15 L1.57592257,15 C1.25916515,15 1,14.7498237 1,14.440395 L1,10.4211145 C1,10.1133318 1.25747126,9.86150952 1.57592257,9.86150952 L10.8302257,9.86218531 C10.8298387,9.85377792 10.8296431,9.84532185 10.8296431,9.83682107 L10.8296431,9.78086057 C10.8296431,9.04349871 10.2130672,8.44439219 9.45420448,8.44439219 L6.54748941,8.44439219 C5.2063099,8.44439219 4.10558684,7.42277403 4.02645259,6.13853827 L1.57592257,6.13849048 C1.25916515,6.13849048 1,5.88831413 1,5.57888549 L1,1.55960498 C1,1.25182224 1.25747126,1 1.57592257,1 L14.4240774,1 Z M13.8498488,10.9790736 L2.15184513,10.9790736 L2.15184513,13.8824359 L13.8498488,13.8824359 L13.8498488,10.9790736 Z M4.15544577,11.9307548 C4.43158815,11.9307548 4.65544577,12.1546124 4.65544577,12.4307548 C4.65544577,12.7068971 4.43158815,12.9307548 4.15544577,12.9307548 C3.8793034,12.9307548 3.65544577,12.7068971 3.65544577,12.4307548 C3.65544577,12.1546124 3.8793034,11.9307548 4.15544577,11.9307548 Z M7.17652074,11.9510933 C7.44802709,11.9510933 7.67016865,12.1655302 7.67016865,12.4307548 C7.67016865,12.6959793 7.44802709,12.9104162 7.17652074,12.9104162 L6.14909369,12.9104162 C5.87758733,12.9104162 5.65544577,12.6959793 5.65544577,12.4307548 C5.65544577,12.1655302 5.87613543,11.9510933 6.14909369,11.9510933 L7.17652074,11.9510933 Z M13.8498488,2.11756407 L2.15184513,2.11756407 L2.15184513,5.0209264 L13.8498488,5.0209264 L13.8498488,2.11756407 Z M4.15544577,3.06924524 C4.43158815,3.06924524 4.65544577,3.29310286 4.65544577,3.56924524 C4.65544577,3.84538761 4.43158815,4.06924524 4.15544577,4.06924524 C3.8793034,4.06924524 3.65544577,3.84538761 3.65544577,3.56924524 C3.65544577,3.29310286 3.8793034,3.06924524 4.15544577,3.06924524 Z M7.17652074,3.08958382 C7.44802709,3.08958382 7.67016865,3.30402069 7.67016865,3.56924524 C7.67016865,3.83446979 7.44802709,4.04890665 7.17652074,4.04890665 L6.14909369,4.04890665 C5.87758733,4.04890665 5.65544577,3.83446979 5.65544577,3.56924524 C5.65544577,3.30402069 5.87613543,3.08958382 6.14909369,3.08958382 L7.17652074,3.08958382 Z" />
</svg>