<svg width="200" height="200" viewBox="0 0 16 17" version="1.1" xmlns="http://www.w3.org/2000/svg" xmlns:xlink="http://www.w3.org/1999/xlink">
    <path d="M7.71134021,0.0774074984 L1.28865979,3.78854418 C1.11005219,3.8917451 1,4.08246147 1,4.28886332 L1,11.7111367 C1,11.9175385 1.11005219,12.1082549 1.28865979,12.2114558 L7.71134021,15.9225925 C7.88996351,16.0258025 8.11003649,16.0258025 8.28865979,15.9225925 L14.7113402,12.2114558 C14.8899478,12.1082549 15,11.9175385 15,11.7111367 L15,4.28886332 C15,4.08246147 14.8899478,3.8917451 14.7113402,3.78854418 L8.28865979,0.0774074984 C8.11003649,-0.0258024995 7.88996351,-0.0258024995 7.71134021,0.0774074984 Z M13.4845361,4.24715501 L8,7.41626424 L2.51546392,4.24715501 L8,1.07822635 L13.4845361,4.24715501 Z M2.01030928,5.12284894 L7.49484536,8.29195816 L7.49484536,14.6294544 L2.01030928,11.4608868 L2.01030928,5.12284894 Z M8.50515464,14.6298155 L8.50515464,8.29231927 L13.9896907,5.12284894 L13.9896907,11.4603452 L8.50515464,14.6298155 Z" />
    <rect x="7.75" y="5.58222656" width="1" height="2" />
    <rect transform="translate(9.241025, 8.586328) rotate(-60.000000) translate(-9.241025, -8.586328) " x="8.9910254" y="7.58632813" width="1" height="2" />
    <rect transform="translate(6.758975, 8.586328) rotate(-300.000000) translate(-6.758975, -8.586328) " x="6.5089746" y="7.58632812" width="1" height="2" />
    <path d="M8,2.93880208 C8.82842712,2.93880208 9.5,3.61037496 9.5,4.43880208 C9.5,5.26722921 8.82842712,5.93880208 8,5.93880208 C7.17157288,5.93880208 6.5,5.26722921 6.5,4.43880208 C6.5,3.61037496 7.17157288,2.93880208 8,2.93880208 Z M8,3.93880208 C7.72385763,3.93880208 7.5,4.16265971 7.5,4.43880208 C7.5,4.71494446 7.72385763,4.93880208 8,4.93880208 C8.27614237,4.93880208 8.5,4.71494446 8.5,4.43880208 C8.5,4.16265971 8.27614237,3.93880208 8,3.93880208 Z" />
    <path d="M11.2151693,8 C12.0435964,8 12.7151693,8.67157288 12.7151693,9.5 C12.7151693,10.3284271 12.0435964,11 11.2151693,11 C10.3867421,11 9.71516927,10.3284271 9.71516927,9.5 C9.71516927,8.67157288 10.3867421,8 11.2151693,8 Z M11.2151693,9 C10.9390269,9 10.7151693,9.22385763 10.7151693,9.5 C10.7151693,9.77614237 10.9390269,10 11.2151693,10 C11.4913116,10 11.7151693,9.77614237 11.7151693,9.5 C11.7151693,9.22385763 11.4913116,9 11.2151693,9 Z" />
    <path d="M5,8 C5.82842712,8 6.5,8.67157288 6.5,9.5 C6.5,10.3284271 5.82842712,11 5,11 C4.17157288,11 3.5,10.3284271 3.5,9.5 C3.5,8.67157288 4.17157288,8 5,8 Z M5,9 C4.72385763,9 4.5,9.22385763 4.5,9.5 C4.5,9.77614237 4.72385763,10 5,10 C5.27614237,10 5.5,9.77614237 5.5,9.5 C5.5,9.22385763 5.27614237,9 5,9 Z" />
</svg>