<svg width="200" height="200" viewBox="0 0 17 16" version="1.1" xmlns="http://www.w3.org/2000/svg">
    <path d="M15.5,13 C15.775,13 16,13.225 16,13.5 C16,13.775 15.775,14 15.5,14 L15.5,14 L0.5,14 C0.225,14 0,13.775 0,13.5 C0,13.225 0.225,13 0.5,13 L0.5,13 Z M14,2 L14,3 L1,3 L1,10 L3,10 L3,7.5 C3,7.225 3.225,7 3.5,7 C3.775,7 4,7.225 4,7.5 L4,7.5 L4,10 L6,10 L6,8.5 C6,8.225 6.225,8 6.5,8 C6.775,8 7,8.225 7,8.5 L7,8.5 L7,10 L9,10 L9,8.5 C9,8.225 9.225,8 9.5,8 C9.775,8 10,8.225 10,8.5 L10,8.5 L10,10 L12,10 L12,7.5 C12,7.225 12.225,7 12.5,7 C12.775,7 13,7.225 13,7.5 L13,7.5 L13,10 L15,10 L15,6.525 C15,6.25 15.225,6.025 15.5,6.025 C15.775,6.025 16,6.25 16,6.525 L16,6.525 L16,10 C16,10.55 15.55,11 15,11 L15,11 L1,11 C0.45,11 0,10.55 0,10 L0,10 L0,3 C0,2.45 0.45,2 1,2 L1,2 L14,2 Z M10.6,4 C10.82,4 11,4.225 11,4.5 C11,4.775 10.82,5 10.6,5 L10.6,5 L3.4,5 C3.18,5 3,4.775 3,4.5 C3,4.225 3.18,4 3.4,4 L3.4,4 Z" />
    <path d="M14.5,1 C15.3284271,1 16,1.67157288 16,2.5 C16,3.32842712 15.3284271,4 14.5,4 C13.6715729,4 13,3.32842712 13,2.5 C13,1.67157288 13.6715729,1 14.5,1 Z M14.5,2 C14.2238576,2 14,2.22385763 14,2.5 C14,2.77614237 14.2238576,3 14.5,3 C14.7761424,3 15,2.77614237 15,2.5 C15,2.22385763 14.7761424,2 14.5,2 Z" />
</svg>