<svg width="200" height="200" viewBox="0 0 16 16" version="1.1" xmlns="http://www.w3.org/2000/svg">
  <circle cx="4.03491211" cy="12.0187988" r="1" />
  <rect x="5.53491211" y="11.5187988" width="2" height="1" rx="0.5" />
  <path d="M4.5026,4 C4.77874237,4 5.0026,4.22385763 5.0026,4.5 C5.0026,4.77614237 4.77874237,5 4.5026,5 L4.5026,5 L3.6696,5 L2.002,8.9989 L14.002,8.9989 L12.3357,4.9999 L11.5027,4.9999 C11.2265576,4.9999 11.0027,4.77604237 11.0027,4.4999 C11.0027,4.22375763 11.2265576,3.9999 11.5027,3.9999 L11.5027,3.9999 L12.2817,3.9999 C12.7127,3.9999 13.0947,4.2759 13.2307,4.6839 L13.2307,4.6839 L15.0027,8.9999 L15,8.9999 L15,13.9998 C15,14.5123714 14.6137143,14.9352694 14.1165685,14.9930682 L14,14.9998 L2,14.9998 C1.448,14.9998 1,14.5518 1,13.9998 L1,13.9998 L1,8.9998 L1.002,8.9989 L2.7746,4.684 C2.89823636,4.31218182 3.22600496,4.05110744 3.60764282,4.00671225 L3.7236,4 Z M14,9.9998 L2,9.9998 L2,13.9998 L14,13.9998 L14,9.9998 Z" />
  <path d="M7.99363599,1.00355441 L10.1434292,3.15334762 C10.3357178,3.34563619 10.3357178,3.65739757 10.1434292,3.84968614 C9.95113385,4.04198149 9.63936727,4.04200028 9.44704874,3.84972809 L8.48541003,2.88855441 L8.48593517,7.10389654 C8.48593517,7.37578587 8.26552532,7.59619572 7.99363599,7.59619572 C7.72174667,7.59619572 7.50133682,7.37578587 7.50133682,7.10389654 L7.50041003,2.88955441 L6.53935488,3.85059624 C6.34751595,4.04238894 6.03652685,4.04237021 5.84471103,3.85055439 C5.65286294,3.6587063 5.65275484,3.34769244 5.84446951,3.15571103 L7.99363599,1.00355441 Z" />
</svg>