<?xml version="1.0" encoding="UTF-8"?>
<svg width="12px" height="12px" viewBox="0 0 12 12" version="1.1" xmlns="http://www.w3.org/2000/svg" xmlns:xlink="http://www.w3.org/1999/xlink">
    <!-- Generator: Sketch 63.1 (92452) - https://sketch.com -->
    <title>stop</title>
    <desc>Created with Sketch.</desc>
    <g id="页面-1" stroke="none" stroke-width="1" fill="none" fill-rule="evenodd">
        <g id="调试效果" transform="translate(-333.000000, -604.000000)" fill="#0F71E2" fill-rule="nonzero">
            <g id="Popup备份-2" transform="translate(298.000000, 589.000000)">
                <g id="btn_add" transform="translate(16.000000, 7.000000)">
                    <g id="btn-line-blue">
                        <path d="M26.7559948,13.1706632 L22.7342971,13.1706632 C22.2574526,13.1706632 21.8725881,13.4291554 21.8725881,13.745199 C21.8725881,14.0611744 22.2574526,14.3196802 22.7342971,14.3196802 L26.7559796,14.3196802 C27.2328105,14.3196802 27.6177022,14.061188 27.6177022,13.745199 C27.6177022,13.4291569 27.2328256,13.1706632 26.7559933,13.1706632 L26.7559948,13.1706632 Z M24.7451914,8 C21.5721831,8 19,10.5721831 19,13.7451914 C19,16.9181239 21.5721831,19.4903222 24.7451914,19.4903222 C27.9181087,19.4903222 30.490307,16.9181391 30.490307,13.7451914 C30.490307,10.5721831 27.9181239,8 24.7451914,8 Z M24.7451914,18.6285905 C22.0481207,18.6285905 19.8617772,16.4421863 19.8617772,13.7451914 C19.8617772,11.0481359 22.0481207,8.86179236 24.7451914,8.86179236 C27.4422015,8.86179236 29.6285905,11.0481359 29.6285905,13.7451914 C29.6253798,16.4408669 27.4408669,18.6254057 24.7451914,18.6285905 Z" id="stop"></path>
                    </g>
                </g>
            </g>
        </g>
    </g>
</svg>
