<?xml version="1.0" encoding="UTF-8"?>
<svg  version="1.1" xmlns="http://www.w3.org/2000/svg" xmlns:xlink="http://www.w3.org/1999/xlink">
    <!-- Generator: Sketch 63.1 (92452) - https://sketch.com -->
    <title>tiaos</title>
    <desc>Created with Sketch.</desc>
    <g id="页面-1" stroke="none" stroke-width="1" fill="none" fill-rule="evenodd">
        <g id="调试效果" transform="translate(-333.000000, -457.000000)" fill="#0F71E2" fill-rule="nonzero">
            <g id="Popup备份-3" transform="translate(298.000000, 442.000000)">
                <g id="btn_add" transform="translate(16.000000, 7.000000)">
                    <g id="btn-line-blue">
                        <g id="tiaos" transform="translate(19.000000, 8.000000)">
                            <path d="M6.41844887,4.3865676 L6.41844887,0.564621751 C6.41844887,0.333680076 6.23094866,0.146472827 6.00000698,0.146472827 C5.76906531,0.146472827 5.58156509,0.333680076 5.58156509,0.564621751 L5.58156509,4.3865676 C4.86189238,4.57320063 4.32741129,5.22142404 4.32741129,5.99999526 C4.32741129,6.7785782 4.86190409,7.42708286 5.58156509,7.61373933 L5.58156509,11.4236734 C5.58156509,11.6611894 5.76906531,11.8535529 6.00000698,11.8535529 C6.23094866,11.8535529 6.41844887,11.6611894 6.41844887,11.4233922 L6.41844887,7.61315339 C7.13813331,7.42680161 7.67260268,6.77799226 7.67260268,5.99970229 C7.67260268,5.22115451 7.13813331,4.57320063 6.41844887,4.3865676 Z M2.2255104,8.56435372 C2.22836978,8.54548651 2.23694792,8.52834196 2.23694792,8.50860756 L2.23694792,0.564621751 C2.23694792,0.333680076 2.05002192,0.146472827 1.81850602,0.146472827 C1.58813857,0.146472827 1.40121257,0.333680076 1.40121257,0.564621751 L1.40121257,8.50860756 C1.40121257,8.52834196 1.40921648,8.54547479 1.41207586,8.56435372 C0.668953903,8.74926409 0.147621266,9.41579221 0.146472827,10.181215 C0.146472827,11.1047004 0.895313542,11.8535411 1.81850602,11.8535411 C2.74227272,11.8535411 3.49111344,11.1047004 3.49111344,10.181215 C3.489965,9.41579221 2.96863236,8.74927581 2.2255104,8.56435372 Z M1.81850602,11.0172434 C1.35719689,11.0172434 0.982782394,10.6425241 0.982782394,10.1806408 C0.982782394,9.7187574 1.35720861,9.34463587 1.81908024,9.34463587 C2.28096359,9.34463587 2.65537809,9.71905037 2.65537809,10.181215 C2.65537809,10.6430983 2.28096359,11.0175128 1.81850602,11.0172434 L1.81850602,11.0172434 Z M11.8535411,1.81878727 C11.8535411,0.895313542 11.1047004,0.146472827 10.1809337,0.146472827 C9.25775296,0.146472827 8.50832631,0.895313542 8.50832631,1.81878727 C8.51003725,2.58419832 9.03136988,3.25071472 9.77391762,3.4359415 C9.77164418,3.45451574 9.76305433,3.47195326 9.76305433,3.49138297 L9.76305433,11.4356735 C9.76305433,11.6663222 9.94998033,11.8535411 10.180922,11.8535411 C10.4118637,11.8535411 10.598778,11.6663105 10.598778,11.4356735 L10.598778,3.49138297 C10.598778,3.47195326 10.5902115,3.45451574 10.5879147,3.4359415 C11.3310601,3.25072644 11.8523927,2.58421004 11.8535411,1.81878727 Z M10.1809337,2.65507359 C9.71905037,2.65507359 9.34463587,2.28037765 9.34463587,1.8184943 C9.34463587,1.35661095 9.71962459,0.982196455 10.1815079,0.982477547 C10.6433913,0.982477547 11.0178058,1.3568922 11.0178058,1.81877555 C11.0178058,2.28095187 10.6428288,2.65537809 10.1809337,2.65507359 Z" id="形状"></path>
                        </g>
                    </g>
                </g>
            </g>
        </g>
    </g>
</svg>
