<?xml version="1.0" encoding="UTF-8"?>
<svg width="16px" height="16px" viewBox="0 0 16 16" version="1.1" xmlns="http://www.w3.org/2000/svg" xmlns:xlink="http://www.w3.org/1999/xlink">
    <title>展开</title>
    <g id="数据集成" stroke="none" stroke-width="1" fill="none" fill-rule="evenodd">
        <g id="数据血缘-默认备份" transform="translate(-1552.000000, -994.000000)" fill="#0F71E2">
            <g id="编组-2" transform="translate(1552.000000, 994.000000)">
                <path d="M7.52954568,2.70256815 L7.94497092,3.11799338 C8.14267384,3.3156963 8.13974573,3.63916418 7.94908216,3.82982776 L3.77746033,8.00003538 L7.94908216,12.1730714 C8.1445145,12.3685038 8.14563146,12.6842453 7.94497092,12.8849058 L7.52954568,13.300331 C7.33184276,13.498034 7.00837488,13.4951058 6.81771131,13.3044423 L2.29543692,8.78202966 C2.29298033,8.77966507 2.2905401,8.77727107 2.28811667,8.77484763 L1.87269143,8.3594224 L1.84281617,8.32247607 L1.81064318,8.28603404 C1.69307459,8.1166173 1.69201073,7.89098855 1.81089385,7.71773257 C1.82763111,7.69268507 1.84689095,7.66927726 1.86858019,7.64758802 L6.81771131,2.69845691 C7.01314365,2.50302456 7.32888514,2.50190761 7.52954568,2.70256815 Z M13.1863999,2.70256815 L13.6018252,3.11799338 C13.7995281,3.3156963 13.7966,3.63916418 13.6059364,3.82982776 L9.43431458,8.00003538 L13.6059364,12.1730714 C13.8013688,12.3685038 13.8024857,12.6842453 13.6018252,12.8849058 L13.1863999,13.300331 C12.988697,13.498034 12.6652291,13.4951058 12.4745656,13.3044423 L7.52954568,8.3594224 L7.49967042,8.32247607 L7.46749743,8.28603404 C7.34992884,8.1166173 7.34886498,7.89098855 7.4677481,7.71773257 C7.48448536,7.69268507 7.5037452,7.66927726 7.52543444,7.64758802 L12.4745656,2.69845691 C12.6699979,2.50302456 12.9857394,2.50190761 13.1863999,2.70256815 Z" id="形状结合"></path>
            </g>
        </g>
    </g>
</svg>