<?xml version="1.0" encoding="UTF-8"?>
<svg width="17px" height="17px" viewBox="0 0 17 17" version="1.1" xmlns="http://www.w3.org/2000/svg"
    xmlns:xlink="http://www.w3.org/1999/xlink">
    <title>形状结合</title>
    <g id="数据工坊" stroke="none" stroke-width="1" fill="none" fill-rule="evenodd">
        <g id="指标管理-指标开发/通过SQL创建指标" transform="translate(-278.000000, -335.000000)">
            <rect fill="#EFF3F6" x="0" y="0" width="1580" height="1020"></rect>
            <g id="编组-2" transform="translate(208.000000, 117.000000)"></g>
            <polygon id="base" fill="#FFFFFF" points="208 181 580 181 580 960 208 960"></polygon>
            <g id="编组-10" transform="translate(218.000000, 329.000000)">
                <rect id="Base备份-8" fill="#FFFFFF" x="0" y="0" width="351" height="28"></rect>
                <path
                    d="M73.3461538,7 C74.5307692,7 75.5,7.96923077 75.5,9.15384615 L75.5,9.15384615 L75.5,18.8461538 C75.5,20.0307692 74.5307692,21 73.3461538,21 L73.3461538,21 L63.6538462,21 C62.4692308,21 61.5,20.0307692 61.5,18.8461538 L61.5,18.8461538 L61.5,9.15384615 C61.5,7.96923077 62.4692308,7 63.6538462,7 L63.6538462,7 Z M73.3461538,8.07692308 L63.6538462,8.07692308 C63.3685625,8.07692308 63.0987933,8.18959615 62.8941947,8.39419471 C62.6895962,8.59879327 62.5769231,8.8685625 62.5769231,9.15384615 L62.5769231,9.15384615 L62.5769231,18.8461538 C62.5769231,19.1314375 62.6895962,19.4012067 62.8941947,19.6058053 C63.0987933,19.8104038 63.3685625,19.9230769 63.6538462,19.9230769 L63.6538462,19.9230769 L73.3461538,19.9230769 C73.6314375,19.9230769 73.9012067,19.8104038 74.1058053,19.6058053 C74.3104038,19.4012067 74.4230769,19.1314375 74.4230769,18.8461538 L74.4230769,18.8461538 L74.4230769,9.15384615 C74.4230769,8.8685625 74.3104038,8.59879327 74.1058053,8.39419471 C73.9012067,8.18959615 73.6314375,8.07692308 73.3461538,8.07692308 L73.3461538,8.07692308 Z M72.2692308,17.2307692 C72.5653846,17.2307692 72.8076923,17.4730769 72.8076923,17.7692308 C72.8076923,18.0653846 72.5653846,18.3076923 72.2692308,18.3076923 L64.7307692,18.3076923 C64.4346154,18.3076923 64.1923077,18.0653846 64.1923077,17.7692308 C64.1923077,17.4730769 64.4346154,17.2307692 64.7307692,17.2307692 L72.2692308,17.2307692 Z M67.9615385,9.69230769 C68.2576923,9.69230769 68.5,9.93461538 68.5,10.2307692 C68.5,10.5269231 68.2576923,10.7692308 67.9615385,10.7692308 L67.9615385,10.7692308 L66.8846154,10.7692308 L66.8846154,14.5384615 C66.8846154,14.8346154 66.6423077,15.0769231 66.3461538,15.0769231 C66.05,15.0769231 65.8076923,14.8346154 65.8076923,14.5384615 L65.8076923,14.5384615 L65.8076923,10.7692308 L64.7307692,10.7692308 C64.4346154,10.7692308 64.1923077,10.5269231 64.1923077,10.2307692 C64.1923077,9.93461538 64.4346154,9.69230769 64.7307692,9.69230769 L64.7307692,9.69230769 Z M72.2692308,13.4615385 C72.5653846,13.4615385 72.8076923,13.7038462 72.8076923,14 C72.8076923,14.2961538 72.5653846,14.5384615 72.2692308,14.5384615 L72.2692308,14.5384615 L70.1153846,14.5384615 C69.8192308,14.5384615 69.5769231,14.2961538 69.5769231,14 C69.5769231,13.7038462 69.8192308,13.4615385 70.1153846,13.4615385 L70.1153846,13.4615385 Z M72.2692308,9.67548077 C72.5653846,9.67548077 72.8076923,9.91778846 72.8076923,10.2139423 C72.8076923,10.5100962 72.5653846,10.7524038 72.2692308,10.7524038 L72.2692308,10.7524038 L70.1153846,10.7524038 C69.8192308,10.7524038 69.5769231,10.5100962 69.5769231,10.2139423 C69.5769231,9.91778846 69.8192308,9.67548077 70.1153846,9.67548077 L70.1153846,9.67548077 Z"
                    id="形状结合" fill="#000000" fill-rule="nonzero"></path>
            </g>
        </g>
    </g>
</svg>