<svg viewBox="0 0 1024 1024" version="1.1" xmlns="http://www.w3.org/2000/svg" width="200" height="200">
  <path d="M895.7 796.2l1e-8-192c0-17.7-14.3-32-32.00000001-32s-32 14.3-32 32l0 192c0 17.7-14.3 32-32 32l-576 1e-8c-17.7 0-32-14.3-32-32.00000001l0-192c0-17.7-14.3-32-32-32s-32 14.3-32 32.00000001l0 191.99999999c0 52.89999999 43.1 95.99999999 96 96l576 0c52.89999999 0 95.99999999-43.1 96-96z" p-id="9357"></path><path d="M340.7 426.6c-11.6-11.7-30.7-11.7-42.4 0-11.7 11.6-11.7 30.7 0 42.4l191.5 191c6.2 6.2 14.4 9.1 22.6 8.7 8.1 0.4 16.4-2.5 22.6-8.7L725.90000001 468.4c11.7-11.6 11.7-30.7-1e-8-42.4-11.6-11.7-30.7-11.7-42.4 0l-144.3 145L539.2 158.3c0-16.5-13.5-30-30-30s-30 13.5-30 30l0 406.3-138.5-138z" />
</svg>