<?xml version="1.0" standalone="no"?><!DOCTYPE svg PUBLIC "-//W3C//DTD SVG 1.1//EN" "http://www.w3.org/Graphics/SVG/1.1/DTD/svg11.dtd"><svg t="1605776795951" class="icon" viewBox="0 0 1024 1024" version="1.1" xmlns="http://www.w3.org/2000/svg" p-id="2034" xmlns:xlink="http://www.w3.org/1999/xlink" width="200" height="200"><defs><style type="text/css"></style></defs><path d="M512 0a512 512 0 1 1 0 1024A512 512 0 0 1 512 0z m0 96a416 416 0 1 0 0 832 416 416 0 0 0 0-832z m-28.416 112a48 48 0 0 1 48 48v257.28l183.488 90.88a48 48 0 1 1-42.56 86.08L462.272 586.112a48 48 0 0 1-26.688-43.008V256a48 48 0 0 1 48-48z"  p-id="2035"></path></svg>