<svg width="200" height="200" viewBox="0 0 17 17" version="1.1" xmlns="http://www.w3.org/2000/svg">
    <path d="M13.5907321,4.34625289 C13.9588895,4.34604498 14.2870009,4.44209576 14.5620127,4.6883575 C14.8393845,4.93679725 14.984966,5.25094068 14.9935947,5.61626763 C15.0046571,6.08541366 14.9986097,6.55506789 14.9958809,7.02450431 C14.9944059,7.27809872 14.8137935,7.44820227 14.5517616,7.45255831 C14.2897297,7.45698696 14.1010048,7.28506839 14.0984235,7.02733574 C14.0940723,6.59347368 14.0934823,5.6035625 14.0780687,5.5444655 C14.031459,5.36594026 13.8821163,5.24687504 13.6923589,5.23569452 L13.6923589,5.23569452 L13.2782171,5.23502335 C13.2347019,5.23498923 13.1880724,5.23495576 13.1384804,5.234923 L5.93025099,5.23488118 C5.82922058,5.23492661 5.72917428,5.23497432 5.63026388,5.2350244 L4.25077442,5.23595989 C4.16701784,5.23603506 4.08515612,5.23611288 4.00534105,5.23619343 L3.34636361,5.23699354 C3.28019462,5.23709098 3.21652766,5.23719132 3.15551454,5.23729463 L2.82249606,5.23795055 C2.67312413,5.2382968 2.55036892,5.23867084 2.45832884,5.23907432 L2.31641654,5.23992103 C2.28357317,5.24021668 2.26559531,5.2405259 2.2636973,5.24084918 C2.04480885,5.27794816 1.9180335,5.42699749 1.90232486,5.6610623 L1.90232486,5.6610623 L1.90208651,5.71535924 C1.90205181,5.7325433 1.90201971,5.75366053 1.90199032,5.77850972 L1.90194452,7.20963377 C1.90197377,7.2853615 1.90200682,7.36301044 1.90204379,7.4423794 L1.9029075,8.73676534 C1.9029867,8.82830455 1.90307042,8.9205578 1.90315878,9.01332389 L1.90374566,9.57446501 C1.90385309,9.66847769 1.90396539,9.76260083 1.90408271,9.85663323 L1.90484764,10.4181291 C1.90746627,12.1825574 1.91197918,13.7689651 1.91921349,13.7973553 C1.96685566,13.9835763 2.12202456,14.1028593 2.32594186,14.1107002 C2.33132558,14.1109048 2.35287932,14.1110896 2.38833126,14.1112552 L2.63401046,14.1118728 C2.67002793,14.1119275 2.70866802,14.1119776 2.74964674,14.1120232 L4.39662108,14.1121162 C4.4559747,14.1120793 4.51482717,14.1120386 4.57289452,14.1119943 L5.34952296,14.1110632 C5.75949631,14.1102646 6.10951133,13.9673863 6.38297439,13.6615919 C6.58386797,13.43682 6.69803216,13.1711739 6.70511211,12.8731478 C6.71587954,12.4166343 6.70813584,11.9597578 6.71167582,11.5030266 C6.71219206,11.4421145 6.68040604,11.4470514 6.63999132,11.447124 L5.40277008,11.4473418 C5.0967835,11.447124 4.86646388,11.1434351 4.94898954,10.8496198 C4.96661567,10.7868202 5.0052604,10.7367257 5.04751885,10.6882284 C6.81943036,8.65266871 7.72340229,7.61440543 7.75943465,7.57343855 C7.94447209,7.36296899 8.23482378,7.36739764 8.41875498,7.57844801 C8.44977106,7.61402237 8.61128596,7.79935628 8.84483458,8.06737435 L9.06129641,8.31578886 C9.29267192,8.58132368 9.56469762,8.89352608 9.84055583,9.21015617 L10.1163279,9.52669772 C10.4820911,9.94654914 10.8328497,10.349241 11.0813324,10.634649 C11.2461625,10.8239918 11.2702048,11.0266205 11.1532381,11.2227877 C11.0651075,11.3706028 10.9358984,11.4477774 10.7600059,11.4475596 C10.3398551,11.4469788 9.91970436,11.4490842 9.49955358,11.445672 C9.43126156,11.4451638 9.41422544,11.4617167 9.41481543,11.5290902 C9.41828166,11.9477061 9.41577417,12.3664672 9.41680667,12.7850831 C9.41820791,13.370826 9.77722037,13.8622604 10.3402976,14.0477553 C10.4728254,14.0913884 10.6099257,14.1119344 10.7504185,14.1117892 L10.7504185,14.1117892 L13.6193469,14.1114988 C13.9270297,14.1113536 14.097096,13.9437184 14.0971698,13.6390131 L14.0971698,13.6390131 L14.0977379,11.5790745 C14.0984973,11.5370306 14.1014964,11.4950835 14.1126572,11.4533623 C14.1698868,11.2397709 14.3575792,11.1198345 14.6043449,11.1417599 C14.8225696,11.1611443 14.981721,11.3200673 14.9961022,11.5335861 C14.9979459,11.5613922 14.9976509,11.5894161 14.9976509,11.6172948 L14.9977984,13.6445308 C14.9978722,14.0542894 14.8560519,14.403862 14.5401829,14.6764052 C14.3007921,14.8829543 14.0175941,14.9910568 13.7002501,14.994832 C13.1951399,15.0007853 12.6898822,14.9973005 12.1846983,14.9972279 C11.6923468,14.9972279 11.1999953,15.0018017 10.7077175,14.9951224 C9.61711025,14.9803119 8.70069924,14.1833009 8.54471909,13.1210068 C8.52996919,13.0205274 8.51816928,12.9196849 8.51802178,12.8181165 C8.51743178,12.2142235 8.51662054,11.6102579 8.51780053,11.0063648 C8.51824303,10.7746233 8.64413339,10.6156276 8.85962936,10.5712686 C8.88952248,10.5651217 9.1959024,10.5618789 9.7787691,10.5615401 C9.73402775,10.5085899 9.17682587,9.85782104 8.10716344,8.6092334 C8.07781115,8.57489325 8.06343,8.56393054 8.02803025,8.60545816 C7.86488165,8.79655785 7.65097645,9.04686925 7.43121304,9.30399568 L7.21115979,9.56145318 C6.77379943,10.073149 6.37287072,10.5422428 6.36756075,10.5495609 C6.37798401,10.5585634 6.48646312,10.5617149 6.62460065,10.562559 L6.9566035,10.5620597 C7.0286793,10.561748 7.09534518,10.5615239 7.14805148,10.5618305 C7.44400813,10.5636455 7.61414818,10.7283766 7.61510692,11.0204494 C7.61717191,11.6167193 7.62049063,12.2131345 7.61422193,12.8093318 C7.60308576,13.8717711 6.86064976,14.7499497 5.8033035,14.9593303 C5.64629086,14.990476 5.48691824,14.9979539 5.32666062,14.9978087 C4.34977504,14.9967923 3.3728157,14.98975 2.39600387,14.9999141 C1.72318738,15.0069564 1.14285274,14.5804996 1.0205761,13.9057483 C1.01733113,13.8878159 1.02529607,13.863422 1,13.8530401 L1,13.8530401 L1,5.49422578 C1.0348835,5.45030233 1.02986854,5.39476276 1.0424797,5.34481344 C1.18673368,4.77271956 1.68033893,4.37370586 2.27763596,4.34967501 L2.27763596,4.34967501 L2.77106126,4.34900596 C2.80973373,4.3489825 2.8504677,4.34895952 2.89318717,4.34893699 L6.41996632,4.34804477 C6.50823145,4.34802967 6.59719023,4.34801456 6.68676667,4.34799941 L11.4173355,4.34705651 C11.5059511,4.34703204 11.5938925,4.34700707 11.6810837,4.34698157 Z M12.9715094,2.6914177 L13.048172,2.69736189 C13.290734,2.7369293 13.4250318,2.92140779 13.4066682,3.1848033 C13.3907383,3.41276964 13.2222945,3.56951465 12.9850424,3.57670213 C12.9516339,3.57771854 12.9180779,3.57742814 12.8845956,3.57742814 L3.02337777,3.57738276 L3.02337777,3.57738276 L2.95046719,3.57176528 C2.70657767,3.53292388 2.57183737,3.34510575 2.59211848,3.07677339 C2.60878586,2.85599452 2.78099089,2.6986687 3.01359675,2.69213464 C3.04457153,2.69126343 3.07547256,2.69148123 3.10637359,2.69148123 L12.9715094,2.6914177 L12.9715094,2.6914177 Z M11.6256552,1 C11.9479404,1.02708008 12.1247179,1.27595544 12.040201,1.5834922 C11.9932226,1.75439436 11.8413724,1.87411299 11.6562612,1.8853661 C11.6228527,1.88739892 11.5892967,1.88696332 11.5558144,1.88696332 L4.37077151,1.88640974 L4.37077151,1.88640974 L4.29805453,1.87970324 C4.06625992,1.83824822 3.92952839,1.66037639 3.94044331,1.41948711 C3.95150573,1.17641981 4.10873962,1.02330484 4.37114026,1 C4.3942976,1.00094381 4.41738118,1.00261363 4.44046477,1.00261363 L4.44046477,1.00261363 L11.5563306,1.00261363 C11.5794142,1.00261363 11.6024978,1.00094381 11.6256552,1 Z" />
    <path d="M14.4862518,9.02282715 C15.314679,9.02282715 15.9862518,9.69440002 15.9862518,10.5228271 C15.9862518,11.3512543 15.314679,12.0228271 14.4862518,12.0228271 C13.6578247,12.0228271 12.9862518,11.3512543 12.9862518,10.5228271 C12.9862518,9.69440002 13.6578247,9.02282715 14.4862518,9.02282715 Z M14.4862518,10.0228271 C14.2101095,10.0228271 13.9862518,10.2466848 13.9862518,10.5228271 C13.9862518,10.7989695 14.2101095,11.0228271 14.4862518,11.0228271 C14.7623942,11.0228271 14.9862518,10.7989695 14.9862518,10.5228271 C14.9862518,10.2466848 14.7623942,10.0228271 14.4862518,10.0228271 Z" />
</svg>