<?xml version="1.0" standalone="no"?><!DOCTYPE svg PUBLIC "-//W3C//DTD SVG 1.1//EN" "http://www.w3.org/Graphics/SVG/1.1/DTD/svg11.dtd"><svg t="1605776792510" class="icon" viewBox="0 0 1024 1024" version="1.1" xmlns="http://www.w3.org/2000/svg" p-id="1909" xmlns:xlink="http://www.w3.org/1999/xlink" width="200" height="200"><defs><style type="text/css"></style></defs><path d="M818.944 895.552a48 48 0 0 1 0 96H146.368a48 48 0 1 1 0-96z m-204.16-799.36c42.88-42.88 112.32-42.88 155.136 0l103.424 103.36c42.88 42.88 42.88 112.32 0 155.2l-414.72 414.72c-15.744 15.744-37.76 23.424-59.84 20.992l-197.76-21.952-22.016-197.76a73.152 73.152 0 0 1 20.992-59.84z m87.296 67.84a13.696 13.696 0 0 0-19.456 0L275.648 571.008l12.288 110.528 110.592 12.288 406.976-406.976a13.696 13.696 0 0 0 0-19.392z"  p-id="1910"></path></svg>