<?xml version="1.0" standalone="no"?><!DOCTYPE svg PUBLIC "-//W3C//DTD SVG 1.1//EN" "http://www.w3.org/Graphics/SVG/1.1/DTD/svg11.dtd"><svg t="1605776799214" class="icon" viewBox="0 0 1024 1024" version="1.1" xmlns="http://www.w3.org/2000/svg" p-id="2159" xmlns:xlink="http://www.w3.org/1999/xlink" width="200" height="200"><defs><style type="text/css"></style></defs><path d="M715.648 116.16a48 48 0 1 1 92.992 23.68l-44.992 177.088h95.424a48 48 0 0 1 6.528 95.552l-6.528 0.448H739.2l-48.768 192h111.168a48 48 0 0 1 6.528 95.552l-6.528 0.448h-135.552l-60.032 236.288a48 48 0 0 1-51.904 35.84l-6.4-1.152a48 48 0 0 1-34.752-58.368l54.016-212.608H346.048l-60.032 236.288a48 48 0 0 1-51.904 35.84l-6.4-1.152a48 48 0 0 1-35.904-51.968l1.152-6.4 54.016-212.608H128a48 48 0 0 1-6.528-95.552L128 604.928h143.36l48.832-192H185.472a48 48 0 0 1-6.528-95.552l6.528-0.448h159.104l51.072-200.768a48 48 0 0 1 94.208 17.28l-1.216 6.4-44.992 177.088h220.928zM591.36 604.928l48.832-192H419.2l-48.768 192H591.36z" p-id="2160"></path></svg>