<svg t="1659935975172" class="icon" viewBox="0 0 1024 1024" version="1.1" xmlns="http://www.w3.org/2000/svg" p-id="3723"
    width="200" height="200">
    <path
        d="M865.882353 60.355765c37.406118 0 67.764706 30.358588 67.764706 67.764706v707.764705c0 37.406118-30.358588 67.764706-67.764706 67.764706H158.117647A67.764706 67.764706 0 0 1 90.352941 835.885176V128.120471c0-37.406118 30.358588-67.764706 67.764706-67.764706z m0 67.764706H158.117647v707.764705h707.764706V128.120471zM627.712 289.129412a58.970353 58.970353 0 1 1 5.300706 110.652235L441.524706 591.149176h156.431059a59.030588 59.030588 0 1 1 0 55.055059H427.068235a59.030588 59.030588 0 0 1-111.254588-27.527529 57.946353 57.946353 0 0 1 31.442824-51.862588V395.745882a59.030588 59.030588 0 1 1 54.994823 0v156.491294L594.100706 360.809412a58.970353 58.970353 0 0 1 33.671529-71.800471z"
        p-id="3724"></path>
</svg>