<svg width="200" height="200" viewBox="0 0 17 17" version="1.1" xmlns="http://www.w3.org/2000/svg">
    <path d="M14.9962594,7.04766689 C15.3002594,7.04766689 15.5466594,7.29406689 15.5498594,7.59806689 C15.5498594,10.7643389 13.5465117,13.5357905 10.6022632,14.5508122 C10.4616088,15.2324958 9.85754562,15.7451449 9.13374684,15.7451449 C8.30531971,15.7451449 7.63374684,15.0735721 7.63374684,14.2451449 C7.63374684,13.4167178 8.30531971,12.7451449 9.13374684,12.7451449 C9.66978792,12.7451449 10.1401565,13.0263225 10.405408,13.4492332 L10.6173438,13.36552 C12.9130469,12.4035044 14.4458594,10.1540669 14.4458594,7.59806689 C14.4458594,7.29406689 14.6922594,7.04766689 14.9962594,7.04766689 Z M9.13374684,13.7451449 C8.85760446,13.7451449 8.63374684,13.9690026 8.63374684,14.2451449 C8.63374684,14.5212873 8.85760446,14.7451449 9.13374684,14.7451449 C9.40988921,14.7451449 9.63374684,14.5212873 9.63374684,14.2451449 C9.63374684,13.9690026 9.40988921,13.7451449 9.13374684,13.7451449 Z M2.70045441,3.79932695 C3.41789334,4.21354051 3.66370607,5.13092612 3.24949251,5.84836505 C2.98147197,6.31259025 2.50278078,6.57935257 2.00390358,6.59761181 L1.97043346,6.82301016 C1.65571187,9.2921552 2.83737564,11.7443285 5.05093657,13.0223285 C5.31420829,13.1743285 5.40439695,13.5109172 5.25239695,13.7741889 C5.10039695,14.0374606 4.76380829,14.1276493 4.49893657,13.9784206 C1.75718448,12.3954692 0.358717219,9.27533682 0.951273117,6.21837391 C0.431614061,5.75553821 0.289311142,4.97554958 0.651416301,4.34836505 C1.06562986,3.63092612 1.98301547,3.38511338 2.70045441,3.79932695 Z M1.5193473,4.84946525 C1.38188373,5.08755913 1.46346072,5.39200859 1.7015546,5.52947216 C1.93964848,5.66693572 2.24409795,5.58535874 2.38156151,5.34726486 C2.51902508,5.10917098 2.43744809,4.80472151 2.19935421,4.66725795 C1.96126033,4.52979438 1.65681087,4.61137137 1.5193473,4.84946525 Z M5.02137094,1.00330958 C7.867163,-0.38467595 11.2362901,0.200965704 13.4392606,2.4022169 C14.1128743,2.22952695 14.8390834,2.54771665 15.1565548,3.19862941 C15.5197134,3.94321478 15.2105058,4.84121865 14.4659205,5.2043772 C13.7213351,5.56753575 12.8233312,5.25832822 12.4601727,4.51374285 C12.2251877,4.03195232 12.2717125,3.48592774 12.5355435,3.06212936 L12.3553135,2.89776631 C10.484788,1.26501852 7.7977098,0.87751118 5.50533268,1.9955782 C5.23209929,2.12884303 4.90262179,2.01539483 4.76935696,1.74216144 C4.63609213,1.46892805 4.74954034,1.13945055 5.02137094,1.00330958 Z M13.5891782,3.40678911 C13.340983,3.52784196 13.2379139,3.82717658 13.3589667,4.0753717 C13.4800196,4.32356683 13.7793542,4.426636 14.0275493,4.30558315 C14.2757444,4.1845303 14.3788136,3.88519568 14.2577608,3.63700056 C14.1367079,3.38880543 13.8373733,3.28573626 13.5891782,3.40678911 Z" />
</svg>