<svg width="200" height="200" viewBox="0 0 17 16" version="1.1" xmlns="http://www.w3.org/2000/svg">
    <path d="M5.95502877,15.0592935 C5.92807426,15.0543541 5.90195735,15.0469874 5.87690823,15.0374259 L6.03532204,15.0666573 C5.13674942,14.9177983 4.25680229,14.6455877 3.41740413,14.254523 C2.2263578,13.8072837 1.57881924,13.0763735 1.5067595,12.3287767 L1.5,12.188472 L1.5,3.98624937 C1.5,3.19426314 2.13913471,2.48836237 3.41740413,1.86854706 C4.8837064,1.29020761 6.43932448,1.02018931 8,1.07311742 C9.56067552,1.02018931 11.1162936,1.32119838 12.5825959,1.89953783 C13.785673,2.48289342 14.4225961,3.14250463 14.4933654,3.87837148 L14.5,4.01724014 L14.5009311,6.58347171 C14.4870815,6.7807397 14.3248234,6.93632643 14.1265718,6.93632643 C13.9198188,6.93632643 13.7522124,6.76710998 13.7522124,6.5583709 L13.7547288,6.57831836 C13.7543911,6.57832556 13.7540534,6.57833278 13.7537157,6.57834001 L13.753,6.56860351 L13.7522124,6.5583709 C13.7522124,6.55459437 13.7522673,6.55083078 13.7523762,6.54708089 L13.7522124,5.57710867 C13.0180295,5.99251931 12.2430631,6.31822183 11.4417404,6.54815265 C10.3139297,6.83692724 9.15920003,6.98595999 8,6.99235362 C6.83438442,6.98753687 5.67313826,6.83849341 4.53908555,6.54815265 C3.87680012,6.35533496 3.232762,6.09703664 2.61513162,5.77671603 L2.24778761,5.57710867 L2.24778761,6.54815265 C2.24778761,7.07499566 2.91887906,7.60183868 4.05973451,8.04603965 C4.70588889,8.24704197 5.3633478,8.39971991 6.0274176,8.50333334 C6.27603581,8.50202497 6.47077758,8.69863747 6.47077758,8.94117127 C6.47077758,9.18370507 6.27603581,9.38031756 6.03580967,9.38031756 L6.03580967,9.38031756 L6.03570003,9.38711544 C5.53277651,9.31147398 5.03327334,9.20870571 4.53908555,9.07906516 C3.87539243,8.86797593 3.23121191,8.59223805 2.61447389,8.25542668 L2.24778761,8.04603965 L2.24778761,9.36831231 C2.24778761,9.98812762 2.91887906,10.5149706 4.06932153,10.8661993 C4.71492783,11.0670493 5.37182442,11.2196577 6.03532962,11.3232843 C6.29956597,11.3262959 6.51338269,11.5421665 6.51338269,11.8084565 C6.51338269,12.0747465 6.29956597,12.2906172 6.03580967,12.2906172 L6.03580967,12.2906172 L6.03567221,12.2965909 L5.96461273,12.2852955 C5.95689196,12.2841304 5.94923158,12.2827787 5.94163626,12.2812451 L6.03567221,12.2965909 C5.53262902,12.2235165 5.03307066,12.1219597 4.53908555,11.9921971 C3.87537097,11.7811729 3.2311815,11.5054434 2.61446047,11.1685899 L2.24778761,10.9591716 L2.24778761,12.2814443 C2.24778761,12.8082873 2.91887906,13.3454605 4.06932153,13.6966892 C4.71485518,13.8974984 5.37167165,14.0500761 6.03509081,14.1536842 C6.28400852,14.1591618 6.48521345,14.3622996 6.48521345,14.6128827 C6.48521345,14.8634658 6.28400852,15.0666035 6.03580967,15.0666035 L6.03532204,15.0666573 Z M7.99041298,1.96151936 C6.69547318,1.94121808 5.40438874,2.118593 4.15560472,2.48836237 C3.00516224,2.95322386 2.35324484,3.36643406 2.35324484,3.98624937 C2.35324484,4.60606468 2.91887906,5.13290769 4.16519174,5.48413637 C5.40023579,5.92967957 6.69799333,6.13943452 8,6.10395168 C9.3016086,6.13263636 10.7663736,5.92305476 12.0028881,5.48413637 C13.2300268,5.10191693 13.6371681,4.62672519 13.6371681,4.09988218 C13.6371681,3.57303917 12.9852507,3.04619615 11.8348083,2.60199518 C10.5870633,2.1976494 9.29322479,1.98209606 7.99041298,1.96151936 Z" />
    <path d="M11.2623352,8.44136458 C9.46035926,8.44136458 8,9.90196224 8,11.7036998 C8,13.5054373 9.46035926,14.966035 11.2623352,14.966035 C13.0640728,14.966035 14.5246704,13.5054373 14.5246704,11.7036998 L11.2623352,11.7036998 L11.2623352,8.44136458 Z M13.9771878,12.2055975 C13.7404552,13.4890127 12.6131427,14.4641373 11.2623352,14.4641373 C9.74021743,14.4641373 8.50189772,13.2258176 8.50189772,11.7036998 C8.50189772,10.3528923 9.47702227,9.22557978 10.7604375,8.98897264 L10.7604375,11.7036998 L10.7604375,12.2055975 L11.2623352,12.2055975 L13.9771878,12.2055975 Z M11.7642329,7.93946686 L11.7642329,11.2018021 L15.0265681,11.2018021 C15.0265681,9.40006452 13.5659705,7.93946686 11.7642329,7.93946686 Z M12.2661307,8.48707492 C13.3868181,8.69365602 14.2722535,9.57932984 14.4790856,10.6999043 L12.2661307,10.6999043 L12.2661307,8.48707492 Z" />
</svg>