<svg width="200" height="200" viewBox="0 0 17 16" version="1.1" xmlns="http://www.w3.org/2000/svg" xmlns:xlink="http://www.w3.org/1999/xlink">
    <path d="M12.8336538,0.0485378785 C13.5336538,0.0485378785 14.0003204,0.505680745 14.0003204,1.19139502 L14.0003204,1.19139502 L14.0003204,14.9056807 C14.0003204,15.591395 13.5336538,16.0485379 12.8336538,16.0485379 L12.8336538,16.0485379 L1.1669871,16.0485379 C0.466987111,16.0485379 0.00032043457,15.591395 0.00032043457,14.9056807 L0.00032043457,14.9056807 L0.00032043457,1.19139502 C0.00032043457,0.505680745 0.466987111,0.0485378785 1.1669871,0.0485378785 L1.1669871,0.0485378785 Z M13.0003204,1.04853788 L1.00032043,1.04853788 L1.00032043,15.0485379 L13.0003204,15.0485379 L13.0003204,1.04853788 Z" />
    <path d="M1.00022702,4.76470587 L6.88485006,4.76470587 C7.23792745,4.76470587 7.47331238,4.95294117 7.47331238,5.23529412 C7.47331238,5.51764706 7.23792745,5.70588235 6.88485006,5.70588235 L1.00022702,5.70588235 C0.647149635,5.70588235 0.411764709,5.51764705 0.411764709,5.23529412 C0.411764709,4.95294119 0.647149635,4.76470587 1.00022702,4.76470587 Z" />
    <path d="M0.705995867,7.0099954 L3.64830739,7.0099954 C3.82484608,7.0099954 3.94253854,7.1982307 3.94253854,7.48058365 C3.94253854,7.76293659 3.82484608,7.95117187 3.64830739,7.95117187 L0.705995867,7.95117187 C0.529457172,7.95117187 0.411764709,7.76293658 0.411764709,7.48058365 C0.411764709,7.19823072 0.529457172,7.0099954 0.705995867,7.0099954 Z" />
    <path d="M0.882352953,9.25528493 L4.50062326,9.25528493 C4.78749307,9.25528493 5.060548,9.37848474 5.2503752,9.59356593 L6.36505862,10.8565432 C6.55488583,11.0716244 6.82794075,11.1948242 7.11481056,11.1948242 L9.07377625,11.1948242 L9.07377625,11.1948242 C9.35612919,11.1948242 9.54436449,11.3830595 9.54436449,11.6654124 C9.54436449,11.9477654 9.35612919,12.1360007 9.07377625,12.1360007 L6.69635353,12.1360007 C6.40948372,12.1360007 6.1364288,12.0128009 5.94660159,11.7977197 L4.83191817,10.5347424 C4.64209097,10.3196612 4.36903604,10.1964614 4.08216623,10.1964614 L0.882352953,10.1964614 L0.882352953,10.1964614 C0.600000007,10.1964614 0.411764709,10.0082261 0.411764709,9.72587316 C0.411764709,9.44352021 0.600000007,9.25528493 0.882352953,9.25528493 Z"/>
    <path d="M8.29931641,3.73529411 C9.12774353,3.73529411 9.79931641,4.40686699 9.79931641,5.23529411 C9.79931641,6.06372123 9.12774353,6.73529411 8.29931641,6.73529411 C7.47088928,6.73529411 6.79931641,6.06372123 6.79931641,5.23529411 C6.79931641,4.40686699 7.47088928,3.73529411 8.29931641,3.73529411 Z M8.29931641,4.73529411 C8.02317403,4.73529411 7.79931641,4.95915173 7.79931641,5.23529411 C7.79931641,5.51143648 8.02317403,5.73529411 8.29931641,5.73529411 C8.57545878,5.73529411 8.79931641,5.51143648 8.79931641,5.23529411 C8.79931641,4.95915173 8.57545878,4.73529411 8.29931641,4.73529411 Z" />
    <path d="M10.1425781,10.1874533 C10.9710052,10.1874533 11.6425781,10.8590262 11.6425781,11.6874533 C11.6425781,12.5158805 10.9710052,13.1874533 10.1425781,13.1874533 C9.314151,13.1874533 8.64257813,12.5158805 8.64257813,11.6874533 C8.64257813,10.8590262 9.314151,10.1874533 10.1425781,10.1874533 Z M10.1425781,11.1874533 C9.86643575,11.1874533 9.64257813,11.411311 9.64257813,11.6874533 C9.64257813,11.9635957 9.86643575,12.1874533 10.1425781,12.1874533 C10.4187205,12.1874533 10.6425781,11.9635957 10.6425781,11.6874533 C10.6425781,11.411311 10.4187205,11.1874533 10.1425781,11.1874533 Z" />
    <circle cx="4.38690186" cy="7.48058364" r="1" />
</svg>