<svg width="200" height="200" viewBox="0 0 17 16" version="1.1" xmlns="http://www.w3.org/2000/svg">
    <path d="M5.95502877,14.9926899 C5.92807426,14.9877506 5.90195735,14.9803839 5.87690823,14.9708224 L6.03532204,15.0000538 C5.13674942,14.8511947 4.25680229,14.5789842 3.41740413,14.1879195 C2.2263578,13.7406802 1.57881924,13.00977 1.5067595,12.2621732 L1.5,12.1218685 L1.5,3.91964587 C1.5,3.12765964 2.13913471,2.42175887 3.41740413,1.80194356 C4.8837064,1.22360411 6.43932448,0.953585808 8,1.00651391 C9.56067552,0.953585808 11.1162936,1.25459487 12.5825959,1.83293432 C13.785673,2.41628991 14.4225961,3.07590113 14.4933654,3.81176798 L14.5,3.95063663 L14.5009311,6.5168682 C14.4870815,6.7141362 14.3248234,6.86972293 14.1265718,6.86972293 C13.9198188,6.86972293 13.7522124,6.70050647 13.7522124,6.49176739 L13.7547288,6.51171485 C13.7543911,6.51172205 13.7540534,6.51172927 13.7537157,6.5117365 L13.753,6.502 L13.7522124,6.49176739 C13.7522124,6.48799086 13.7522673,6.48422727 13.7523762,6.48047738 L13.7522124,5.51050516 C13.0180295,5.92591581 12.2430631,6.25161833 11.4417404,6.48154915 C10.3139297,6.77032373 9.15920003,6.91935649 8,6.92575012 C6.83438442,6.92093337 5.67313826,6.7718899 4.53908555,6.48154915 C3.87680012,6.28873146 3.232762,6.03043313 2.61513162,5.71011253 L2.24778761,5.51050516 L2.24778761,6.48154915 C2.24778761,7.00839216 2.91887906,7.53523517 4.05973451,7.97943614 C4.70588889,8.18043846 5.3633478,8.3331164 6.0274176,8.43672984 C6.27603581,8.43542147 6.47077758,8.63203396 6.47077758,8.87456776 C6.47077758,9.11710156 6.27603581,9.31371406 6.03580967,9.31371406 L6.03580967,9.31371406 L6.03570003,9.32051194 C5.53277651,9.24487047 5.03327334,9.1421022 4.53908555,9.01246166 C3.87539243,8.80137242 3.23121191,8.52563454 2.61447389,8.18882318 L2.24778761,7.97943614 L2.24778761,9.3017088 C2.24778761,9.92152411 2.91887906,10.4483671 4.06932153,10.7995958 C4.71492783,11.0004458 5.37182442,11.1530542 6.03532962,11.2566808 C6.29956597,11.2596924 6.51338269,11.475563 6.51338269,11.741853 C6.51338269,12.008143 6.29956597,12.2240137 6.03580967,12.2240137 L6.03580967,12.2240137 L6.03567221,12.2299874 L5.96461273,12.218692 C5.95689196,12.2175269 5.94923158,12.2161752 5.94163626,12.2146416 L6.03567221,12.2299874 C5.53262902,12.156913 5.03307066,12.0553562 4.53908555,11.9255936 C3.87537097,11.7145694 3.2311815,11.4388399 2.61446047,11.1019864 L2.24778761,10.8925681 L2.24778761,12.2148408 C2.24778761,12.7416838 2.91887906,13.278857 4.06932153,13.6300857 C4.71485518,13.8308949 5.37167165,13.9834726 6.03509081,14.0870807 C6.28400852,14.0925583 6.48521345,14.2956961 6.48521345,14.5462792 C6.48521345,14.7968623 6.28400852,15 6.03580967,15 L6.03532204,15.0000538 Z M7.99041298,1.89491586 C6.69547318,1.87461457 5.40438874,2.05198949 4.15560472,2.42175887 C3.00516224,2.88662035 2.35324484,3.29983056 2.35324484,3.91964587 C2.35324484,4.53946118 2.91887906,5.06630419 4.16519174,5.41753286 C5.40023579,5.86307607 6.69799333,6.07283101 8,6.03734817 C9.3016086,6.06603286 10.7663736,5.85645125 12.0028881,5.41753286 C13.2300268,5.03531342 13.6371681,4.56012169 13.6371681,4.03327867 C13.6371681,3.50643566 12.9852507,2.97959265 11.8348083,2.53539168 C10.5870633,2.1310459 9.29322479,1.91549255 7.99041298,1.89491586 Z" />
    <path d="M14.6547791,12.9984633 C14.8446506,12.9984633 15,13.1584087 15,13.356236 L15,14.6432795 C15,14.8400545 14.845666,15 14.6557945,15 L12.348109,15 C12.1582375,15 12.0028881,14.8400545 12.0028881,14.6422272 L12.0028881,13.356236 C12.0028881,13.159461 12.1572222,12.9984633 12.348109,12.9984633 L14.6547791,12.9984633 Z M10.6595593,11.4206133 C10.8494308,11.4206133 11.0047802,11.5805588 11.0047802,11.7783861 L11.0047802,14.6422272 C11.0047802,14.8390022 10.8504462,15 10.6595593,15 L8.35288922,15 C8.16301774,15 8.00766835,14.8400545 8.00766835,14.6422272 L8.00766835,11.7773339 C8.00766835,11.5805588 8.16200239,11.4206133 8.35187387,11.4206133 L10.6595593,11.4206133 Z M14.3105736,13.7129566 L12.6933299,13.7129566 L12.6933299,14.2855067 L14.3105736,14.2855067 L14.3105736,13.7129566 Z M10.3143385,12.1351067 L8.69709474,12.1351067 L8.69709474,14.2855067 L10.3143385,14.2855067 L10.3143385,12.1351067 Z M14.6547791,8.42960786 C14.8446506,8.42960786 15,8.58955334 15,8.78738065 L15,11.652274 C15,11.849049 14.845666,12.0089945 14.6557945,12.0089945 L12.348109,12.0089945 C12.1582375,12.0089945 12.0028881,11.849049 12.0028881,11.6512217 L12.0028881,8.78738065 C12.0028881,8.59060561 12.1572222,8.42960786 12.348109,8.42960786 L14.6547791,8.42960786 Z M14.3105736,9.14410117 L12.6933299,9.14410117 L12.6933299,11.2945012 L14.3105736,11.2945012 L14.3105736,9.14410117 Z M10.6595593,8.42960786 C10.8494308,8.42960786 11.0047802,8.58955334 11.0047802,8.78738065 L11.0047802,10.0733718 C11.0047802,10.2701468 10.8504462,10.4311446 10.6595593,10.4311446 L8.35288922,10.4311446 C8.16301774,10.4311446 8.00766835,10.2711991 8.00766835,10.0733718 L8.00766835,8.78632838 C8.00766835,8.58955334 8.16200239,8.42960786 8.35187387,8.42960786 L10.6595593,8.42960786 Z M10.3143385,9.14410117 L8.69709474,9.14410117 L8.69709474,9.71665129 L10.3143385,9.71665129 L10.3143385,9.14410117 Z" />
</svg>