<svg width="200" height="200" viewBox="0 0 17 16" version="1.1" xmlns="http://www.w3.org/2000/svg" >
    <path d="M12.5,13 L2,13 L2,13 L2,3 L14,3 L14,8.5 C14,8.77614237 14.2238576,9 14.5,9 C14.7761424,9 15,8.77614237 15,8.5 L15,3 L15,3 C15,2.448 14.552,2 14,2 L2,2 C1.448,2 1,2.448 1,3 L1,13 C1,13.552 1.448,14 2,14 L12.5,14 C12.7761424,14 13,13.7761424 13,13.5 C13,13.2238576 12.7761424,13 12.5,13 Z" />
    <path d="M14.5,8 C15.3284271,8 16,8.67157288 16,9.5 C16,10.3284271 15.3284271,11 14.5,11 C13.6715729,11 13,10.3284271 13,9.5 C13,8.67157288 13.6715729,8 14.5,8 Z M14.5,9 C14.2238576,9 14,9.22385763 14,9.5 C14,9.77614237 14.2238576,10 14.5,10 C14.7761424,10 15,9.77614237 15,9.5 C15,9.22385763 14.7761424,9 14.5,9 Z" id="形状结合备份-3" />
    <path transform="translate(3.000000, 5.500000)" d="M4,4 C4.27614237,4 4.5,4.22385763 4.5,4.5 C4.5,4.77614237 4.27614237,5 4,5 L3,5 C2.72385763,5 2.5,4.77614237 2.5,4.5 C2.5,4.22385763 2.72385763,4 3,4 L4,4 Z M1,4 C1.27614237,4 1.5,4.22385763 1.5,4.5 C1.5,4.77614237 1.27614237,5 1,5 C0.723857625,5 0.5,4.77614237 0.5,4.5 C0.5,4.22385763 0.723857625,4 1,4 Z M1,2 C1.27614237,2 1.5,2.22385763 1.5,2.5 C1.5,2.77614237 1.27614237,3 1,3 C0.723857625,3 0.5,2.77614237 0.5,2.5 C0.5,2.22385763 0.723857625,2 1,2 Z M7,2 C7.27614237,2 7.5,2.22385763 7.5,2.5 C7.5,2.77614237 7.27614237,3 7,3 L3,3 C2.72385763,3 2.5,2.77614237 2.5,2.5 C2.5,2.22385763 2.72385763,2 3,2 L7,2 Z M9,0 C9.27614237,-5.07265313e-17 9.5,0.223857625 9.5,0.5 C9.5,0.776142375 9.27614237,1 9,1 L3,1 C2.72385763,1 2.5,0.776142375 2.5,0.5 C2.5,0.223857625 2.72385763,5.07265313e-17 3,0 L9,0 Z M1,0 C1.27614237,1.69088438e-17 1.5,0.223857625 1.5,0.5 C1.5,0.776142375 1.27614237,1 1,1 C0.723857625,1 0.5,0.776142375 0.5,0.5 C0.5,0.223857625 0.723857625,-1.69088438e-17 1,0 Z" />
</svg>