<?xml version="1.0" encoding="UTF-8"?>
<svg  version="1.1" xmlns="http://www.w3.org/2000/svg" xmlns:xlink="http://www.w3.org/1999/xlink">
    <!-- Generator: Sketch 63.1 (92452) - https://sketch.com -->
    <title>double-right</title>
    <desc>Created with Sketch.</desc>
    <g id="页面-1" stroke="none" stroke-width="1" fill="none" fill-rule="evenodd">
        <g id="开发任务" transform="translate(-948.000000, -429.000000)" fill="#FFFFFF" fill-rule="nonzero">
            <g id="Option-2备份" transform="translate(905.000000, 420.000000)">
                <g id="double-right" transform="translate(39.000000, 5.000000)">
                    <path d="M8.45849746,4.15146111 C8.65099034,4.34945379 8.64653188,4.66600489 8.4485392,4.85849777 L5.21727944,8.00000062 L8.4485392,11.1415029 C8.64653188,11.3339957 8.65099034,11.6505468 8.45849746,11.8485395 C8.26600458,12.0465322 7.94945348,12.0509907 7.7514608,11.8584978 L4.1514608,8.35849777 C3.94951307,8.16215969 3.94951307,7.83784093 4.1514608,7.64150285 L7.7514608,4.14150285 C7.94945348,3.94900997 8.26600458,3.95346843 8.45849746,4.15146111 Z M12.4584975,4.15146111 C12.6509903,4.34945379 12.6465319,4.66600489 12.4485392,4.85849777 L9.21727944,8.00000062 L12.4485392,11.1415029 C12.6465319,11.3339957 12.6509903,11.6505468 12.4584975,11.8485395 C12.2660046,12.0465322 11.9494535,12.0509907 11.7514608,11.8584978 L8.1514608,8.35849777 C7.94951307,8.16215969 7.94951307,7.83784093 8.1514608,7.64150285 L11.7514608,4.14150285 C11.9494535,3.94900997 12.2660046,3.95346843 12.4584975,4.15146111 Z" id="形状结合" transform="translate(8.300000, 8.000000) scale(-1, 1) translate(-8.300000, -8.000000) "></path>
                </g>
            </g>
        </g>
    </g>
</svg>
