<svg t="1634613390897" class="icon" viewBox="0 0 1024 1024" version="1.1" xmlns="http://www.w3.org/2000/svg" p-id="1489" width="32" height="32"><path d="M3.842974 581.292142C-21.586275 377.772821 80.216053 158.89355 278.615391 57.176556c244.223186-127.146243 549.544835-35.583881 681.811061 208.639305h-422.398592v-137.386209c-71.167763 0-137.386209 10.239966-203.433989 40.703864-147.626175 76.373079-223.91392 234.068553-203.519321 391.764028 0 35.669214-66.133113 91.562361-127.146243 20.394598z m742.82419 381.609395c-244.223186 127.146243-549.544835 35.583881-681.81106-208.639305h422.398592v132.266226c71.167763 5.119983 147.540842-5.119983 208.553971-40.703864a388.862704 388.862704 0 0 0 203.519322-381.609395c-15.274616-122.02626 116.99161-96.682344 122.111593-30.463898 20.309266 213.673954-81.407729 427.347909-274.772418 529.064903z" fill="#FA6400" p-id="1490"></path></svg>
