<svg t="1660118891381" class="icon" viewBox="0 0 1024 1024" version="1.1" xmlns="http://www.w3.org/2000/svg" p-id="3771"
    width="200" height="200">
    <path
        d="M896 64c35.328 0 64 28.672 64 64v592a32 32 0 1 1-64 0V128H128v768h592a32 32 0 1 1 0 64H128c-35.328 0-64-28.672-64-64V128c0-35.328 28.672-64 64-64zM624 416A208.256 208.256 0 0 1 832 624c0 44.096-14.08 87.04-40.256 122.496l110.848 110.848a32 32 0 1 1-45.248 45.248l-110.848-110.848A206.72 206.72 0 0 1 624 832 208.256 208.256 0 0 1 416 624 208.256 208.256 0 0 1 624 416z m0 64C544.64 480 480 544.64 480 624S544.64 768 624 768 768 703.36 768 624 703.36 480 624 480zM352 422.656a32 32 0 0 1 0 64H256a32 32 0 0 1 0-64zM768 232a32 32 0 1 1 0 64H256a32 32 0 0 1 0-64z"
        p-id="3772"></path>
</svg>