<svg width="200" height="200" viewBox="2 2 14 14" version="1.1" xmlns="http://www.w3.org/2000/svg" xmlns:xlink="http://www.w3.org/1999/xlink">
    <path d="M8.375,9.00737499 L8.375,16.007375 L2.25,16.007375 L2.25,9.00737499 L8.375,9.00737499 Z M16.25,10.757375 L16.25,16.007375 L10.125,16.007375 L10.125,10.757375 L16.25,10.757375 Z M7.0625,10.319875 L3.5625,10.319875 L3.5625,14.694875 L7.0625,14.694875 L7.0625,10.319875 Z M14.9375,12.069875 L11.4375,12.069875 L11.4375,14.694875 L14.9375,14.694875 L14.9375,12.069875 Z M16.25,2.007375 L16.25,9.007375 L10.125,9.007375 L10.125,2.007375 L16.25,2.007375 Z M14.9375,3.319875 L11.4375,3.319875 L11.4375,7.69487499 L14.9375,7.69487499 L14.9375,3.319875 Z M8.375,2.007375 L8.375,7.257375 L2.25,7.257375 L2.25,2.007375 L8.375,2.007375 Z M7.0625,3.319875 L3.5625,3.319875 L3.5625,5.944875 L7.0625,5.944875 L7.0625,3.319875 Z" id="形状" />
</svg>
