<svg width="200" height="200" viewBox="0 0 17 17" version="1.1" xmlns="http://www.w3.org/2000/svg">
    <path d="M14.9874874,11.5416867 C14.8731194,11.0495017 14.3563726,10.7191233 13.8010033,10.7831164 L9.51067706,11.3094278 L9.5296608,11.2455033 C9.69266288,10.6605429 9.32510575,10.0618056 8.68725715,9.87325823 L6.2241163,9.15517344 C5.42404267,8.92275765 4.55816947,8.9521975 3.77995919,9.23827524 L1.52326657,10.0714241 C1.21269922,10.1853637 1.00936585,10.4562947 1.0083291,10.7575466 L1.0083291,14.2520838 C1.00770196,14.4502473 1.09492648,14.6404886 1.25075112,14.7808117 C1.40657576,14.9211348 1.61818697,15 1.83887132,15 L1.88870365,15 L9.1072725,14.6100608 C9.7511458,14.5765298 10.3804148,14.4242045 10.9558146,14.1625896 L14.415602,12.5900478 C14.8478426,12.3965112 15.0821518,11.9669832 14.9874874,11.5416867 Z M14.1023703,12.0189893 L10.633091,13.591531 C10.1449067,13.8139095 9.61099885,13.9437386 9.06455907,13.972947 L1.83887132,14.3607554 C1.80913941,14.3605518 1.78048913,14.3507152 1.7581904,14.3330548 C1.73437707,14.3132282 1.72065463,14.2855034 1.72022291,14.2563454 L1.72022291,10.7575466 C1.72046201,10.7145359 1.74947859,10.6758728 1.79378493,10.6595291 L4.05047755,9.8285111 C4.67240007,9.60030569 5.36415178,9.57690838 6.00343027,9.76245582 L8.46657112,10.4826714 C8.74873031,10.5662234 8.9112567,10.8311485 8.8391271,11.0899538 L8.77505696,11.317951 C8.67042901,11.3062829 8.5666372,11.2892081 8.46419815,11.2668115 L6.64887758,10.8726106 C6.52510172,10.8455856 6.39467199,10.8799087 6.30672001,10.9626506 C6.21876802,11.0453925 6.18665577,11.1639827 6.22247964,11.2737496 C6.25830351,11.3835165 6.356621,11.4677837 6.48039685,11.4948087 L8.29571742,11.8890096 C8.71724235,11.9813723 9.15437005,12.0016128 9.58423908,11.9486724 L13.8935491,11.4159685 C14.0669521,11.3931238 14.2330707,11.4870229 14.2851104,11.6373 C14.3371502,11.7875771 14.2596233,11.9495075 14.1023703,12.0189893 L14.1023703,12.0189893 Z" />
    <path d="M13.6550996,5.99846325 C13.844971,5.99846325 14.0003204,6.15840874 14.0003204,6.35623605 L14.0003204,7.64327948 C14.0003204,7.84005452 13.8459864,8 13.6561149,8 L11.3484294,8 C11.158558,8 11.0032086,7.84005452 11.0032086,7.64222721 L11.0032086,6.35623605 C11.0032086,6.15946101 11.1575426,5.99846325 11.3484294,5.99846325 L13.6550996,5.99846325 Z M9.65987978,4.42061334 C9.84975126,4.42061334 10.0051007,4.58055882 10.0051007,4.77838613 L10.0051007,7.64222721 C10.0051007,7.83900224 9.85076662,8 9.65987978,8 L7.35320966,8 C7.16333818,8 7.00798879,7.84005452 7.00798879,7.64222721 L7.00798879,4.77733386 C7.00798879,4.58055882 7.16232282,4.42061334 7.3521943,4.42061334 L9.65987978,4.42061334 Z M13.310894,6.71295657 L11.6936503,6.71295657 L11.6936503,7.28550668 L13.310894,7.28550668 L13.310894,6.71295657 Z M9.31465891,5.13510666 L7.69741517,5.13510666 L7.69741517,7.28550668 L9.31465891,7.28550668 L9.31465891,5.13510666 Z M13.6550996,1.42960786 C13.844971,1.42960786 14.0003204,1.58955334 14.0003204,1.78738065 L14.0003204,4.652274 C14.0003204,4.84904903 13.8459864,5.00899452 13.6561149,5.00899452 L11.3484294,5.00899452 C11.158558,5.00899452 11.0032086,4.84904903 11.0032086,4.65122172 L11.0032086,1.78738065 C11.0032086,1.59060561 11.1575426,1.42960786 11.3484294,1.42960786 L13.6550996,1.42960786 Z M13.310894,2.14410117 L11.6936503,2.14410117 L11.6936503,4.2945012 L13.310894,4.2945012 L13.310894,2.14410117 Z M9.65987978,1.42960786 C9.84975126,1.42960786 10.0051007,1.58955334 10.0051007,1.78738065 L10.0051007,3.07337181 C10.0051007,3.27014685 9.85076662,3.4311446 9.65987978,3.4311446 L7.35320966,3.4311446 C7.16333818,3.4311446 7.00798879,3.27119912 7.00798879,3.07337181 L7.00798879,1.78632838 C7.00798879,1.58955334 7.16232282,1.42960786 7.3521943,1.42960786 L9.65987978,1.42960786 Z M9.31465891,2.14410117 L7.69741517,2.14410117 L7.69741517,2.71665129 L9.31465891,2.71665129 L9.31465891,2.14410117 Z" />
</svg>