<svg width="200" height="200" viewBox="0 0 17 17" version="1.1" xmlns="http://www.w3.org/2000/svg">
    <path d="M14.9791616,11.5416867 C14.8647937,11.0495017 14.3480469,10.7191233 13.7926776,10.7831164 L9.50235132,11.3094278 L9.52133506,11.2455033 C9.68433714,10.6605429 9.31678001,10.0618056 8.67893141,9.87325823 L6.21579056,9.15517344 C5.41571693,8.92275765 4.54984373,8.9521975 3.77163345,9.23827524 L1.51494083,10.0714241 C1.20437348,10.1853637 1.00104011,10.4562947 1.00000336,10.7575466 L1.00000336,14.2520838 C0.999376225,14.4502473 1.08660074,14.6404886 1.24242538,14.7808117 C1.39825002,14.9211348 1.60986123,15 1.83054558,15 L1.88037791,15 L9.09894676,14.6100608 C9.74282006,14.5765298 10.3720891,14.4242045 10.9474889,14.1625896 L14.4072763,12.5900478 C14.8395168,12.3965112 15.0738261,11.9669832 14.9791616,11.5416867 Z M14.0940445,12.0189893 L10.6247652,13.591531 C10.136581,13.8139095 9.60267311,13.9437386 9.05623333,13.972947 L1.83054558,14.3607554 C1.80081367,14.3605518 1.77216339,14.3507152 1.74986467,14.3330548 C1.72605133,14.3132282 1.71232889,14.2855034 1.71189717,14.2563454 L1.71189717,10.7575466 C1.71213627,10.7145359 1.74115285,10.6758728 1.78545919,10.6595291 L4.04215181,9.8285111 C4.66407433,9.60030569 5.35582604,9.57690838 5.99510453,9.76245582 L8.45824538,10.4826714 C8.74040457,10.5662234 8.90293096,10.8311485 8.83080136,11.0899538 L8.76673122,11.317951 C8.66210327,11.3062829 8.55831146,11.2892081 8.45587241,11.2668115 L6.64055184,10.8726106 C6.51677598,10.8455856 6.38634625,10.8799087 6.29839427,10.9626506 C6.21044228,11.0453925 6.17833003,11.1639827 6.2141539,11.2737496 C6.24997777,11.3835165 6.34829526,11.4677837 6.47207111,11.4948087 L8.28739168,11.8890096 C8.70891661,11.9813723 9.14604431,12.0016128 9.57591334,11.9486724 L13.8852233,11.4159685 C14.0586264,11.3931238 14.224745,11.4870229 14.2767847,11.6373 C14.3288244,11.7875771 14.2512975,11.9495075 14.0940445,12.0189893 L14.0940445,12.0189893 Z" />
    <path d="M11.1390854,2.03816864 C11.3139599,2.10321581 11.4167577,2.34566435 11.3683127,2.49941221 L9.43287787,7.83446266 C9.37379866,7.9882105 9.09848954,8.04852697 8.94370202,7.99175854 C8.77946182,7.93380742 8.60104261,7.70791634 8.66012182,7.5541685 L10.6097357,2.22030071 C10.6688149,2.06655287 10.9559399,1.96957344 11.1390854,2.03816864 Z M12.8015743,2.646064 L14.9355153,4.78197647 C15.0514971,4.89831426 15.0514971,5.08667125 14.9355153,5.20300904 L12.8984642,7.23602871 C12.7909401,7.34246952 12.4849098,7.40988205 12.3076721,7.23602871 C12.1410688,7.0704541 12.1930585,6.72984347 12.3076721,6.61512392 L14.0587799,4.98657937 L12.2509561,3.22912315 C12.1351609,3.1049422 12.0973502,2.79862917 12.2509561,2.646064 C12.4010173,2.49822953 12.6857791,2.53134445 12.8015743,2.646064 Z M7.79047588,2.646064 C7.90627113,2.76078355 7.90627113,3.12268233 7.79047588,3.24686329 L6.00273904,4.98657937 L7.74557568,6.63877745 C7.86137093,6.753497 7.87673152,7.0810982 7.74557568,7.21000985 C7.5872434,7.36730573 7.26348933,7.34246954 7.15478359,7.23602871 L5.11891408,5.20182636 C5.00371616,5.08562612 5.00371616,4.89817671 5.11891408,4.78197647 L7.25285509,2.646064 C7.36865034,2.53134445 7.67468063,2.53134445 7.79047588,2.646064 Z" />
</svg>