<svg width="17px" height="17px" viewBox="0 0 17 17" version="1.1" xmlns="http://www.w3.org/2000/svg" xmlns:xlink="http://www.w3.org/1999/xlink">
    <path d="M11.1818182,1 C11.5332721,1 11.8181818,1.2849097 11.8181818,1.63636363 L11.8181818,1.63636363 L11.8181818,3.54545454 L13.7272727,3.54545454 C14.0787267,3.54545454 14.3636364,3.83036424 14.3636364,4.18181818 L14.3636364,4.18181818 L14.3636364,14.3636364 C14.3636364,14.7150903 14.0787267,15 13.7272727,15 L13.7272727,15 L4.81818182,15 C4.46672789,15 4.18181819,14.7150903 4.18181818,14.3636364 L4.18181818,14.3636364 L4.18181818,13.0909091 L2.27272727,13.0909091 C1.92127334,13.0909091 1.63636363,12.8059994 1.63636363,12.4545455 L1.63636363,12.4545455 L1.63636363,1.63636363 C1.63636363,1.2849097 1.92127334,1 2.27272727,1 L2.27272727,1 Z M13.3636364,4.5 L5.18181817,4.5 L5.18136363,5.568 L6.28971831,5.56894446 L6.28971831,6.56894446 L5.18136363,6.568 L5.18136363,7.383 L6.28971831,7.38317806 L6.28971831,8.38317806 L5.18136363,8.383 L5.18136363,9.197 L6.28971831,9.19741167 L6.28971831,10.1974117 L5.18136363,10.197 L5.18136363,11.011 L6.28971831,11.0116453 L6.28971831,12.0116453 L5.18136363,12.011 L5.18181817,14.0454546 L6.05336363,14.045 L6.0535765,12.8258789 L7.0535765,12.8258789 L7.05336363,14.045 L7.86736363,14.045 L7.8678101,12.8258789 L8.8678101,12.8258789 L8.86736363,14.045 L9.68136363,14.045 L9.68204371,12.8258789 L10.6820437,12.8258789 L10.6813636,14.045 L11.4953636,14.045 L11.4962773,12.8258789 L12.4962773,12.8258789 L12.4953636,14.045 L13.3636364,14.0454546 L13.3636364,4.5 Z M10.6896467,2.09248704 L2.76489873,2.09248704 L2.76489873,11.998422 L4.08569006,11.998422 L4.08569006,4.07367404 C4.08569006,3.70894758 4.38135927,3.41327837 4.74608573,3.41327837 L4.74608573,3.41327837 L10.6896467,3.41327837 L10.6896467,2.09248704 Z" id="形状结合"></path>
</svg>