<svg width="200" height="200" viewBox="1 0 15 16" version="1.1" xmlns="http://www.w3.org/2000/svg" xmlns:xlink="http://www.w3.org/1999/xlink">
    <path d="M8.11299176,0 L14.8249918,3.837 L15.1129918,4.00045147 L15.1099918,4.002 L15.1108303,12 L8.11299176,16 L1.11515324,12 L1.11499176,4.001 L1.11299176,4.00045147 L1.30699176,3.89 L8.11299176,0 Z M11.5239918,11.139 L11.52426,11.5948718 L8.04119499,13.6058203 L4.55813002,11.5948718 L4.55799176,11.228 L3.00499176,12.08 L8.11299176,15 L13.2289918,12.075 L11.5239918,11.139 Z M11.0870542,7.82302634 L8.27005418,9.4322642 L8.27005418,12.9710263 L11.0888768,11.3435033 L11.0888768,7.8243434 L11.0870542,7.82302634 Z M4.99505418,7.82302634 L4.99351314,7.8243434 L4.99351314,11.3435033 L7.76705418,12.9450263 L7.76705418,9.4062642 L4.99505418,7.82302634 Z M1.99299176,4.498 L1.98988305,4.5 L1.98899176,11.494 L4.55799176,10.084 L4.55805418,7.57402634 L4.55705418,7.57320181 L4.55813002,7.57297484 L5.97899176,6.753 L1.99299176,4.498 Z M14.2329918,4.498 L10.1739918,6.794 L11.52426,7.57297484 L11.5253358,7.57320181 L11.5240542,7.57402634 L11.5239918,9.996 L14.2359918,11.484 L14.2361005,4.5 L14.2329918,4.498 Z M6.48899176,7.041 L5.5589359,7.57320181 L8.04119499,8.99163557 L10.5234541,7.57320181 L9.66399176,7.083 L8.11299176,7.96064758 L6.48899176,7.041 Z M8.11299176,1.17902911 L3.12587599,4.00045147 L8.11299176,6.82187383 L13.1001075,4.00045147 L8.11299176,1.17902911 Z" id="形状结合" />
</svg>
