<svg class="icon" viewBox="0 0 1024 1024" version="1.1" xmlns="http://www.w3.org/2000/svg" width="200" height="200">
    <path d="M512 53.312c37.248 0 73.344 1.28 107.968 3.84l34.048 3.008c184.32 18.56 316.672 73.728 316.672 153.152 0 4.352-0.384 8.576-1.152 12.736l0.64 2.88 0.512 5.76v576c0 79.424-132.352 134.656-316.672 153.152l-34.048 2.944c-34.56 2.56-70.72 3.84-107.968 3.84-37.248 0-73.344-1.28-107.968-3.84l-34.048-2.944c-178.688-17.92-308.608-70.4-316.288-146.048l-0.384-7.104v-576a32 32 0 0 1 1.152-8.512 74.496 74.496 0 0 1-1.152-12.8c0-79.488 132.416-134.72 316.672-153.216l34.048-2.944C438.592 54.656 474.752 53.376 512 53.376z m142.08 718.528l-34.112 2.944c-34.56 2.56-70.72 3.84-107.968 3.84-37.248 0-73.344-1.28-107.968-3.84l-34.048-2.944c-106.88-10.752-196.352-33.856-252.608-66.88v105.728c0 18.24 32.64 38.528 87.04 55.68l22.848 6.72 12.224 3.2 26.112 6.016 27.968 5.568c9.664 1.792 19.584 3.456 29.824 4.992l31.36 4.288 16.32 1.92 33.536 3.2a1314.048 1314.048 0 0 0 214.784 0l33.536-3.2 16.32-1.92 31.36-4.288c10.24-1.536 20.16-3.2 29.824-4.992l27.968-5.568 26.112-6.016 12.224-3.2 22.912-6.72c50.752-16 82.56-34.752 86.592-52.032l0.448-3.648v-105.728c-56.256 33.024-145.728 56.128-252.672 66.88z m0-192l-34.112 2.944c-34.56 2.56-70.72 3.84-107.968 3.84-37.248 0-73.344-1.28-107.968-3.84l-34.048-2.944c-106.88-10.752-196.352-33.856-252.608-66.88v105.728c0 18.24 32.64 38.528 87.04 55.68l22.848 6.72 12.224 3.2 26.112 6.016 27.968 5.568c9.664 1.792 19.584 3.456 29.824 4.992l31.36 4.288 16.32 1.92 33.536 3.2a1314.048 1314.048 0 0 0 214.784 0l33.536-3.2 16.32-1.92 31.36-4.288c10.24-1.536 20.16-3.2 29.824-4.992l27.968-5.568 26.112-6.016 12.224-3.2 22.912-6.72c50.752-16 82.56-34.752 86.592-52.032l0.448-3.648V512.96c-56.256 33.024-145.728 56.128-252.672 66.88z m252.608-280.192c-59.2 34.752-155.136 58.496-269.568 68.48l-34.56 2.56a1493.312 1493.312 0 0 1-181.12 0l-34.56-2.56c-114.368-9.984-210.304-33.728-269.504-68.48v127.04c0 18.24 32.64 38.528 87.04 55.68l22.848 6.72 12.224 3.2 26.112 6.016 27.968 5.568c9.664 1.792 19.584 3.456 29.824 4.992l31.36 4.288 16.32 1.92 33.536 3.2a1314.048 1314.048 0 0 0 214.784 0l33.536-3.2 16.32-1.92 31.36-4.288c10.24-1.536 20.16-3.2 29.824-4.992l27.968-5.568 26.112-6.016 12.224-3.2 22.912-6.72c50.752-16 82.56-34.752 86.592-52.032l0.448-3.648zM512 117.312c-37.184 0-73.216 1.6-107.392 4.416l-33.536 3.2-16.32 1.92-31.36 4.288c-10.24 1.536-20.16 3.2-29.824 4.992l-27.968 5.568-26.112 6.016-12.224 3.2-22.912 6.72c-54.4 17.152-87.04 37.44-87.04 55.68 0 29.312 83.584 63.552 206.08 82.176l31.36 4.352 32.896 3.584 34.176 2.816a1319.04 1319.04 0 0 0 180.352 0l34.176-2.816 32.896-3.584 31.36-4.352c122.496-18.56 206.08-52.864 206.08-82.176 0-18.24-32.64-38.528-87.04-55.68l-22.912-6.72a682.88 682.88 0 0 0-12.224-3.2l-26.112-6.016-27.968-5.568c-9.664-1.792-19.584-3.456-29.824-4.992l-31.36-4.288-16.32-1.92-33.536-3.2A1314.048 1314.048 0 0 0 512 117.312z"></path>
</svg>
