<svg width="200" height="200" viewBox="0 0 16 16" version="1.1" xmlns="http://www.w3.org/2000/svg">
  <path d="M4.00032043,1 L5.50032043,1 L7.00032043,1 L7.00032043,3.523 L5.87232043,3.071 L5.50032043,2.923 L5.12932043,3.071 L4.00032043,3.523 L4.00032043,1 Z M5.50032043,15 L2.00032043,15 L2.00032043,15 L2.00032043,1 L3.00032043,1 L3.00032043,4.261 C3.00032043,4.546 3.23632043,4.761 3.50032043,4.761 C3.56132043,4.761 3.62332043,4.75 3.68632043,4.725 L5.50032043,4 L7.31432043,4.725 C7.37532043,4.75 7.43932043,4.761 7.50032043,4.761 C7.76432043,4.761 8.00032043,4.548 8.00032043,4.261 L8.00032043,1 L14.0003204,1 L14.0003204,5.5 C14.0003204,5.77614237 14.2241781,6 14.5003204,6 C14.7764628,6 15.0003204,5.77614237 15.0003204,5.5 L15.0003204,1 L15.0003204,1 C15.0003204,0.448 14.5523204,0 14.0003204,0 L2.00032043,0 C1.44832043,0 1.00032043,0.448 1.00032043,1 L1.00032043,15 C1.00032043,15.552 1.44832043,16 2.00032043,16 L5.50032043,16 C5.77646281,16 6.00032043,15.7761424 6.00032043,15.5 C6.00032043,15.2238576 5.77646281,15 5.50032043,15 Z" />
  <path d="M11.4502203,14.1381221 L11.4502203,12.3182125 C11.9876889,12.1940504 12.3601751,11.6982526 12.3601751,11.1607839 C12.3601751,11.0366219 12.3601751,10.9532802 12.3185043,10.870789 L13.9317607,10.002505 C14.0967431,10.3333203 14.1792344,10.7466269 14.1792344,11.1607839 C14.1792344,12.7323695 12.980135,14.0139601 11.4502203,14.1381221 L11.4502203,14.1381221 Z M10.5819363,11.1607839 C10.5819363,10.8291182 10.8302604,10.5399736 11.2018962,10.5399736 C11.5327115,10.5399736 11.8218561,10.7882978 11.8218561,11.1607839 C11.8218561,11.5324197 11.5743824,11.7807438 11.2018962,11.7807438 C10.8302604,11.7807438 10.5819363,11.4915993 10.5819363,11.1607839 L10.5819363,11.1607839 Z M10.8710808,14.1797929 C9.34116613,14.0139601 8.14121635,12.7323695 8.14121635,11.2016043 C8.14121635,10.7882978 8.22455801,10.3749912 8.38954047,10.002505 L10.0027968,10.870789 C9.961126,10.9532802 9.961126,11.0774423 9.961126,11.1607839 C9.961126,11.739073 10.3336122,12.1940504 10.8710808,12.3182125 L10.8710808,14.1797929 Z M11.1602254,8.14092451 C12.1943422,8.14092451 13.1042971,8.63757275 13.6417657,9.42336552 L12.0293598,10.2916495 C11.8218561,10.0849962 11.5327115,9.96083416 11.1602254,9.96083416 C10.7885896,9.96083416 10.4985946,10.126667 10.2919414,10.3333203 L8.678685,9.42336552 C9.25782447,8.67924358 10.1677793,8.14092451 11.1602254,8.14092451 L11.1602254,8.14092451 Z M11.1602254,7.32071745 C9.04186517,7.32071745 7.32013027,9.04154474 7.32013027,11.1608125 C7.32013027,13.2791727 9.04186517,15 11.1602254,15 C13.2794931,15 15.0003204,13.2791727 15.0003204,11.1608125 C15.0003204,9.04154474 13.2794931,7.32071745 11.1602254,7.32071745 L11.1602254,7.32071745 Z" />
</svg>