<svg width="200" height="200" viewBox="0 0 16 16" version="1.1" xmlns="http://www.w3.org/2000/svg">
    <path d="M4.00032043,1 L5.50032043,1 L7.00032043,1 L7.00032043,3.523 L5.87232043,3.071 L5.50032043,2.923 L5.12932043,3.071 L4.00032043,3.523 L4.00032043,1 Z M5.50032043,15 L2.00032043,15 L2.00032043,15 L2.00032043,1 L3.00032043,1 L3.00032043,4.261 C3.00032043,4.546 3.23632043,4.761 3.50032043,4.761 C3.56132043,4.761 3.62332043,4.75 3.68632043,4.725 L5.50032043,4 L7.31432043,4.725 C7.37532043,4.75 7.43932043,4.761 7.50032043,4.761 C7.76432043,4.761 8.00032043,4.548 8.00032043,4.261 L8.00032043,1 L14.0003204,1 L14.0003204,5.5 C14.0003204,5.77614237 14.2241781,6 14.5003204,6 C14.7764628,6 15.0003204,5.77614237 15.0003204,5.5 L15.0003204,1 L15.0003204,1 C15.0003204,0.448 14.5523204,0 14.0003204,0 L2.00032043,0 C1.44832043,0 1.00032043,0.448 1.00032043,1 L1.00032043,15 C1.00032043,15.552 1.44832043,16 2.00032043,16 L5.50032043,16 C5.77646281,16 6.00032043,15.7761424 6.00032043,15.5 C6.00032043,15.2238576 5.77646281,15 5.50032043,15 Z" />
    <path d="M7.02778625,7.36996966 C7.71814219,7.36996966 8.27778625,7.92961372 8.27778625,8.61996966 C8.27778625,9.3103256 7.71814219,9.86996966 7.02778625,9.86996966 C6.33743032,9.86996966 5.77778625,9.3103256 5.77778625,8.61996966 C5.77778625,7.92961372 6.33743032,7.36996966 7.02778625,7.36996966 Z M7.02778625,8.20330299 C6.79766761,8.20330299 6.61111959,8.38985102 6.61111959,8.61996966 C6.61111959,8.85008831 6.79766761,9.03663633 7.02778625,9.03663633 C7.2579049,9.03663633 7.44445292,8.85008831 7.44445292,8.61996966 C7.44445292,8.38985102 7.2579049,8.20330299 7.02778625,8.20330299 Z" />
    <path d="M13.7503204,8.61996966 C14.4406764,8.61996966 15.0003204,9.17961372 15.0003204,9.86996966 C15.0003204,10.5603256 14.4406764,11.1199697 13.7503204,11.1199697 C13.0599645,11.1199697 12.5003204,10.5603256 12.5003204,9.86996966 C12.5003204,9.17961372 13.0599645,8.61996966 13.7503204,8.61996966 Z M13.7503204,9.45330299 C13.5202018,9.45330299 13.3336538,9.63985102 13.3336538,9.86996966 C13.3336538,10.1000883 13.5202018,10.2866363 13.7503204,10.2866363 C13.9804391,10.2866363 14.1669871,10.1000883 14.1669871,9.86996966 C14.1669871,9.63985102 13.9804391,9.45330299 13.7503204,9.45330299 Z" />
    <path d="M7.99214172,12.5 C8.68249766,12.5 9.24214172,13.0596441 9.24214172,13.75 C9.24214172,14.4403559 8.68249766,15 7.99214172,15 C7.30178579,15 6.74214172,14.4403559 6.74214172,13.75 C6.74214172,13.0596441 7.30178579,12.5 7.99214172,12.5 Z M7.99214172,13.3333333 C7.76202308,13.3333333 7.57547506,13.5198814 7.57547506,13.75 C7.57547506,13.9801186 7.76202308,14.1666667 7.99214172,14.1666667 C8.22226037,14.1666667 8.40880839,13.9801186 8.40880839,13.75 C8.40880839,13.5198814 8.22226037,13.3333333 7.99214172,13.3333333 Z" />
    <path d="M9.60127258,9.2516934 C10.4296997,9.2516934 11.1012726,9.92326627 11.1012726,10.7516934 C11.1012726,11.5801205 10.4296997,12.2516934 9.60127258,12.2516934 C8.77284546,12.2516934 8.10127258,11.5801205 8.10127258,10.7516934 C8.10127258,9.92326627 8.77284546,9.2516934 9.60127258,9.2516934 Z M9.60127258,10.2516934 C9.32513021,10.2516934 9.10127258,10.475551 9.10127258,10.7516934 C9.10127258,11.0278358 9.32513021,11.2516934 9.60127258,11.2516934 C9.87741496,11.2516934 10.1012726,11.0278358 10.1012726,10.7516934 C10.1012726,10.475551 9.87741496,10.2516934 9.60127258,10.2516934 Z" />
    <path d="M12.0271762,9.03120646 C12.06224,8.93995645 12.2326499,8.88239874 12.3413476,8.92311029 C12.4451363,8.96171606 12.5061472,9.10561031 12.477395,9.19686033 L11.5440963,11.705173 C11.5090326,11.796423 11.3456354,11.8322211 11.2537684,11.7985288 C11.1562911,11.7641345 11.0503985,11.6300672 11.0854623,11.5388172 L12.0271762,9.03120646 Z" transform="translate(11.781554, 10.360403) rotate(56.000000) translate(-11.781554, -10.360403) " />
    <path d="M8.78304513,11.3361992 C8.81810889,11.2449491 8.98851879,11.1873914 9.09721646,11.228103 C9.2010052,11.2667088 9.26201614,11.410603 9.23326386,11.501853 L8.79126958,13.1379775 C8.75620581,13.2292275 8.59280867,13.2650256 8.50094161,13.2313333 C8.40346435,13.196939 8.29757177,13.0628717 8.33263554,12.9716217 L8.78304513,11.3361992 Z" transform="translate(8.783075, 12.229302) rotate(15.000000) translate(-8.783075, -12.229302) " />
    <path d="M8.25635643,8.89752014 C8.2914202,8.80627014 8.46183009,8.74871243 8.57052776,8.78942398 C8.6743165,8.82802975 8.73532745,8.971924 8.70657516,9.06317402 L8.26088058,10.4710705 C8.22581682,10.5623205 8.06241967,10.5981186 7.97055261,10.5644263 C7.87307535,10.530032 7.76718278,10.3959647 7.80224654,10.3047147 L8.25635643,8.89752014 Z" transform="translate(8.254537, 9.676509) rotate(110.000000) translate(-8.254537, -9.676509) " />
</svg>