<svg width="200" height="200" viewBox="0 0 16 16" version="1.1" xmlns="http://www.w3.org/2000/svg">
  <path d="M4.00032043,1 L5.50032043,1 L7.00032043,1 L7.00032043,3.523 L5.87232043,3.071 L5.50032043,2.923 L5.12932043,3.071 L4.00032043,3.523 L4.00032043,1 Z M5.50032043,15 L2.00032043,15 L2.00032043,15 L2.00032043,1 L3.00032043,1 L3.00032043,4.261 C3.00032043,4.546 3.23632043,4.761 3.50032043,4.761 C3.56132043,4.761 3.62332043,4.75 3.68632043,4.725 L5.50032043,4 L7.31432043,4.725 C7.37532043,4.75 7.43932043,4.761 7.50032043,4.761 C7.76432043,4.761 8.00032043,4.548 8.00032043,4.261 L8.00032043,1 L14.0003204,1 L14.0003204,5.5 C14.0003204,5.77614237 14.2241781,6 14.5003204,6 C14.7764628,6 15.0003204,5.77614237 15.0003204,5.5 L15.0003204,1 L15.0003204,1 C15.0003204,0.448 14.5523204,0 14.0003204,0 L2.00032043,0 C1.44832043,0 1.00032043,0.448 1.00032043,1 L1.00032043,15 C1.00032043,15.552 1.44832043,16 2.00032043,16 L5.50032043,16 C5.77646281,16 6.00032043,15.7761424 6.00032043,15.5 C6.00032043,15.2238576 5.77646281,15 5.50032043,15 Z" />
  <path d="M11.4611575,8.55504604 C11.6205298,8.61432697 11.7142149,8.83528317 11.6700645,8.97540174 L9.90620017,13.8375158 C9.85235816,13.9776344 9.60145438,14.032604 9.46038831,13.9808679 C9.31070752,13.928054 9.14810463,13.7221875 9.20194665,13.5820689 L10.9787331,8.72103264 C11.0325751,8.58091409 11.2942473,8.4925316 11.4611575,8.55504604 Z M12.9762717,9.10905328 L14.9210452,11.0556235 C15.0267455,11.1616483 15.0267455,11.333308 14.9210452,11.4393327 L13.0645726,13.2921313 C12.9665801,13.3891364 12.6876785,13.450573 12.5261525,13.2921313 C12.374318,13.1412344 12.421699,12.8308178 12.5261525,12.7262678 L14.1220297,11.2420889 L12.4744642,9.64042598 C12.3689338,9.52725329 12.3344749,9.248094 12.4744642,9.10905328 C12.6112229,8.9743239 12.8707414,9.00450328 12.9762717,9.10905328 Z M8.40939224,9.10905328 C8.51492259,9.21360329 8.51492259,9.54342082 8.40939224,9.6565935 L6.78013295,11.2420889 L8.36847231,12.7478246 C8.47400265,12.8523746 8.48800157,13.1509349 8.36847231,13.2684189 C8.22417571,13.411771 7.92912148,13.3891364 7.83005218,13.2921313 L5.97465645,11.4382549 C5.86967049,11.3323555 5.86967049,11.1615229 5.97465645,11.0556235 L7.91942993,9.10905328 C8.02496027,9.00450328 8.3038619,9.00450328 8.40939224,9.10905328 Z" />
</svg>