<svg width="200" height="200" viewBox="0 0 16 16" version="1.1" xmlns="http://www.w3.org/2000/svg">
  <path d="M5.00032043,1 L6.50032043,1 L8.00032043,1 L8.00032043,3.523 L6.87232043,3.071 L6.50032043,2.923 L6.12932043,3.071 L5.00032043,3.523 L5.00032043,1 Z M6.50032043,15 L3.00032043,15 L3.00032043,15 L3.00032043,1 L4.00032043,1 L4.00032043,4.261 C4.00032043,4.546 4.23632043,4.761 4.50032043,4.761 C4.56132043,4.761 4.62332043,4.75 4.68632043,4.725 L6.50032043,4 L8.31432043,4.725 C8.37532043,4.75 8.43932043,4.761 8.50032043,4.761 C8.76432043,4.761 9.00032043,4.548 9.00032043,4.261 L9.00032043,1 L15.0003204,1 L15.0003204,5.5 C15.0003204,5.77614237 15.2241781,6 15.5003204,6 C15.7764628,6 16.0003204,5.77614237 16.0003204,5.5 L16.0003204,1 L16.0003204,1 C16.0003204,0.448 15.5523204,0 15.0003204,0 L3.00032043,0 C2.44832043,0 2.00032043,0.448 2.00032043,1 L2.00032043,15 C2.00032043,15.552 2.44832043,16 3.00032043,16 L6.50032043,16 C6.77646281,16 7.00032043,15.7761424 7.00032043,15.5 C7.00032043,15.2238576 6.77646281,15 6.50032043,15 Z" />
  <path d="M15.6034365,12.6822021 C15.8217227,12.6822021 16.0003204,12.8660838 16.0003204,13.0935164 L16.0003204,14.5731686 C16.0003204,14.7993914 15.82289,14.9832731 15.6046038,14.9832731 L12.9515683,14.9832731 C12.7332822,14.9832731 12.5546844,14.7993914 12.5546844,14.5719588 L12.5546844,13.0935164 C12.5546844,12.8672936 12.7321149,12.6822021 12.9515683,12.6822021 L15.6034365,12.6822021 Z M15.2077199,13.5036209 L13.3484522,13.5036209 L13.3484522,14.1618543 L15.2077199,14.1618543 L15.2077199,13.5036209 Z" />
  <path d="M11.0103237,7.42960786 C11.2286098,7.42960786 11.4072076,7.61348952 11.4072076,7.84092211 L11.4072076,9.32057431 C11.4072076,9.54679715 11.2297771,9.73067881 11.011491,9.73067881 L8.35845545,9.73067881 C8.14016931,9.73067881 7.96157155,9.54679715 7.96157155,9.31936456 L7.96157155,7.84092211 C7.96157155,7.61469927 8.139002,7.42960786 8.35845545,7.42960786 L11.0103237,7.42960786 Z M10.6146071,8.25102661 L8.75533936,8.25102661 L8.75533936,8.90926006 L10.6146071,8.90926006 L10.6146071,8.25102661 Z" transform="translate(9.684390, 8.580143) rotate(-180.000000) translate(-9.684390, -8.580143) " />
  <path d="M15.6034365,7.42960786 C15.8217227,7.42960786 16.0003204,7.61348952 16.0003204,7.84092211 L16.0003204,11.1345528 C16.0003204,11.3607756 15.82289,11.5446573 15.6046038,11.5446573 L12.9515683,11.5446573 C12.7332822,11.5446573 12.5546844,11.3607756 12.5546844,11.1333431 L12.5546844,7.84092211 C12.5546844,7.61469927 12.7321149,7.42960786 12.9515683,7.42960786 L15.6034365,7.42960786 Z M15.2077199,8.25102661 L13.3484522,8.25102661 L13.3484522,10.7232386 L15.2077199,10.7232386 L15.2077199,8.25102661 Z" />
  <path d="M11.0103237,10.8682236 C11.2286098,10.8682236 11.4072076,11.0521053 11.4072076,11.2795379 L11.4072076,14.5731686 C11.4072076,14.7993914 11.2297771,14.9832731 11.011491,14.9832731 L8.35845545,14.9832731 C8.14016931,14.9832731 7.96157155,14.7993914 7.96157155,14.5719588 L7.96157155,11.2795379 C7.96157155,11.0533151 8.139002,10.8682236 8.35845545,10.8682236 L11.0103237,10.8682236 Z M10.6146071,11.6896424 L8.75533936,11.6896424 L8.75533936,14.1618543 L10.6146071,14.1618543 L10.6146071,11.6896424 Z" transform="translate(9.684390, 12.925748) rotate(-180.000000) translate(-9.684390, -12.925748) " />
</svg>