<?xml version="1.0" encoding="UTF-8"?>
<svg viewBox="0 0 16 16" version="1.1" xmlns="http://www.w3.org/2000/svg" xmlns:xlink="http://www.w3.org/1999/xlink">
    <!-- Generator: Sketch 51 (57462) - http://www.bohemiancoding.com/sketch -->
    <title>icon_error_slice</title>
    <desc>Created with Sketch.</desc>
    <defs></defs>
    <g id="Page-1" stroke="none" stroke-width="1" fill="none" fill-rule="evenodd">
        <g id="Artboard" transform="translate(-194.000000, -319.000000)">
            <g id="icon_error" transform="translate(194.000000, 319.000000)">
                <rect id="Rectangle-16" fill="#E11111" x="0" y="0" width="16" height="16" rx="8"></rect>
                <path d="M9.47759225,8 L11.6939806,10.2163884 C12.1020065,10.6244142 12.1020065,11.2859548 11.6939806,11.6939806 C11.2859548,12.1020065 10.6244142,12.1020065 10.2163884,11.6939806 L8,9.47759225 L5.78361162,11.6939806 C5.37558579,12.1020065 4.71404521,12.1020065 4.30601937,11.6939806 C3.89799354,11.2859548 3.89799354,10.6244142 4.30601937,10.2163884 L6.52240775,8 L4.30601937,5.78361162 C3.89799354,5.37558579 3.89799354,4.71404521 4.30601937,4.30601937 C4.71404521,3.89799354 5.37558579,3.89799354 5.78361162,4.30601937 L8,6.52240775 L10.2163884,4.30601937 C10.6244142,3.89799354 11.2859548,3.89799354 11.6939806,4.30601937 C12.1020065,4.71404521 12.1020065,5.37558579 11.6939806,5.78361162 L9.47759225,8 Z" id="btn_pre_close_tabbar" fill="#FFFFFF"></path>
            </g>
        </g>
    </g>
</svg>
