<?xml version="1.0" standalone="no"?><!DOCTYPE svg PUBLIC "-//W3C//DTD SVG 1.1//EN" "http://www.w3.org/Graphics/SVG/1.1/DTD/svg11.dtd"><svg t="1642993554311" class="icon" viewBox="0 0 1024 1024" version="1.1" xmlns="http://www.w3.org/2000/svg" p-id="2266" width="200" height="200" xmlns:xlink="http://www.w3.org/1999/xlink"><defs><style type="text/css"></style></defs><path d="M879.605851 0a144.382334 144.382334 0 1 1-138.94732 183.845263l-241.818748-0.078768V472.609931h241.818748a144.539871 144.539871 0 0 1 127.053303-104.525563l11.815248-0.47261A144.382334 144.382334 0 1 1 740.737299 551.378253L498.839783 551.378253v288.764668h241.818748a144.461102 144.461102 0 1 1 0 78.768322h-281.202909a39.384161 39.384161 0 0 1-38.754015-32.295012l-0.630146-7.089149V551.378253l-136.741807 0.078769a144.539871 144.539871 0 0 1-127.053303 104.446794l-11.815249 0.47261A144.382334 144.382334 0 1 1 283.329654 472.609931h136.663038V144.382334a39.384161 39.384161 0 0 1 32.295012-38.754014l7.089149-0.630147h281.20291A144.461102 144.461102 0 0 1 879.527082 0z m0 813.91307a65.614012 65.614012 0 1 0 0 131.306793 65.614012 65.614012 0 0 0 0-131.306793zM144.382334 446.38008a65.614012 65.614012 0 1 0 0 131.228025 65.614012 65.614012 0 0 0 0-131.228025z m735.223517 0a65.614012 65.614012 0 1 0 0 131.228025 65.614012 65.614012 0 0 0 0-131.228025z m0-367.611758a65.614012 65.614012 0 1 0 0 131.306793 65.614012 65.614012 0 0 0 0-131.306793z" fill="#969CA6" p-id="2267"></path></svg>
