<?xml version="1.0" encoding="UTF-8"?>
<svg width="33px" height="33px" viewBox="0 0 33 33" version="1.1" xmlns="http://www.w3.org/2000/svg" xmlns:xlink="http://www.w3.org/1999/xlink">
    <title>维度表</title>
    <g id="数据建模" stroke="none" stroke-width="1" fill="none" fill-rule="evenodd">
        <g id="数据建模-模型概览" transform="translate(-667.000000, -428.000000)" fill-rule="nonzero">
            <g id="编组-12" transform="translate(667.348354, 428.021528)">
                <path d="M28.3555556,27.0444444 C27.2,27.0444444 26.2222222,27.7555556 25.8666667,28.8222222 L6.04444444,28.8222222 C5.77777778,28.1111111 5.15555556,27.4888889 4.44444444,27.2222222 L4.44444444,6.15555556 C5.51111109,5.8 6.22222222,4.82222222 6.22222222,3.66666666 C6.22222222,2.15555553 5.06666666,1 3.55555556,1 C2.04444447,1 0.888888875,2.15555556 0.888888875,3.66666666 C0.888888875,4.82222222 1.6,5.8 2.66666666,6.15555556 L2.66666666,27.2222222 C1.6,27.5777778 0.888888875,28.5555556 0.888888875,29.7111111 C0.888888875,31.2222222 2.04444444,32.3777778 3.55555556,32.3777778 C4.71111113,32.3777778 5.68888891,31.6666667 6.04444444,30.6 L25.9555556,30.6 C26.3111111,31.6666667 27.2888889,32.3777778 28.4444444,32.3777778 C29.9555556,32.3777778 31.1111111,31.2222222 31.1111111,29.7111111 C31.1111111,28.2 29.8666667,27.0444444 28.3555556,27.0444444 Z" id="路径" fill="#000000"></path>
                <polygon id="路径" fill="#0F71E2" points="25.6888889 25 27.4666667 25 27.4666667 4.55555556 7.91111113 4.55555556 7.91111113 6.33333334 25.6888889 6.33333334"></polygon>
                <polygon id="路径" fill="#005FE1" points="20.8888889 25 22.6666667 25 22.6666667 9.62222222 7.91111113 9.62222222 7.91111113 11.4 20.8888889 11.4"></polygon>
                <polygon id="路径" fill="#005FE1" points="16 25 17.7777778 25 17.7777778 14.7777778 7.91111113 14.7777778 7.91111113 16.5555556 16 16.5555556"></polygon>
            </g>
        </g>
    </g>
</svg>
