<?xml version="1.0" encoding="UTF-8"?>
<svg width="33px" height="33px" viewBox="0 0 33 33" version="1.1" xmlns="http://www.w3.org/2000/svg" xmlns:xlink="http://www.w3.org/1999/xlink">
    <title>事实表</title>
    <g id="数据建模" stroke="none" stroke-width="1" fill="none" fill-rule="evenodd">
        <g id="数据建模-模型概览" transform="translate(-667.000000, -576.000000)" fill-rule="nonzero">
            <g id="编组-2" transform="translate(667.723354, 576.908400)">
                <path d="M31,1 L31,31 L1,31 L1,1 L31,1 Z" id="路径" stroke="#000000" stroke-width="2"></path>
                <path d="M6.21557882,15.6811819 L6.21557882,14.3970226 C6.21557882,14.3871634 6.22050842,14.3773042 6.22790281,14.3699098 C6.37332584,14.2663883 6.65184793,14.0790637 7.06839865,13.8128656 C7.48987897,13.5417379 7.76593626,13.3716669 7.89903531,13.3026526 C7.9039649,13.3001878 7.90889449,13.3001878 7.91382409,13.3001878 L9.30396971,13.3001878 C9.32122329,13.3001878 9.33601207,13.3149766 9.33601207,13.3322302 L9.33601207,20.2607751 C9.33601207,20.2780287 9.32122329,20.2928174 9.30396971,20.2928174 L7.90889449,20.2928174 C7.89164091,20.2928174 7.87685213,20.2780287 7.87685213,20.2607751 L7.87685213,14.7346998 C7.87685213,14.7174462 7.86206335,14.7026574 7.84480977,14.7026574 L7.83002098,14.7026574 C7.82509139,14.7026574 7.82016179,14.7051222 7.8152322,14.707587 C7.71910511,14.7593478 7.465231,14.9220244 7.05114507,15.1906873 C6.6740311,15.4347022 6.41522739,15.607238 6.26980436,15.7082947 C6.24515639,15.7230835 6.21557882,15.7082947 6.21557882,15.6811819 L6.21557882,15.6811819 Z M10.6226362,15.4297726 C10.6053826,15.4297726 10.5905938,15.4149838 10.5905938,15.3977302 L10.5905938,15.3533639 C10.5905938,15.0773066 10.6398898,14.8135733 10.7409465,14.5572344 C10.8420032,14.3008955 10.9874262,14.0692045 11.1821452,13.8596968 C11.3743993,13.650189 11.6307383,13.4825828 11.9462323,13.3568781 C12.2641911,13.2311735 12.6215867,13.1695536 13.0208839,13.1695536 C13.7430695,13.1695536 14.3296912,13.3568781 14.7758195,13.7315273 C15.2219478,14.1061765 15.4462443,14.5794176 15.4462443,15.1512505 C15.4462443,15.2695608 15.4339203,15.387871 15.4092724,15.5061813 C15.3846244,15.6244916 15.3624412,15.7255482 15.340258,15.8118162 C15.3180749,15.8980841 15.2737085,15.9991407 15.2046942,16.117451 C15.1356799,16.2357613 15.0863839,16.3195644 15.0568064,16.3737899 C15.0272288,16.4280154 14.9606793,16.5167481 14.8571578,16.6424528 C14.7561011,16.7656927 14.6895516,16.8445662 14.6624388,16.8766085 C14.635326,16.9086509 14.5589173,16.992454 14.4307479,17.1280179 C14.3025784,17.2635817 14.2310993,17.3424552 14.2138457,17.3621736 L12.6979954,19.0407005 C12.6930658,19.0456301 12.690601,19.0554893 12.690601,19.0628836 C12.690601,19.0801372 12.7053898,19.094926 12.7226434,19.094926 L15.5399066,19.094926 C15.5571602,19.094926 15.571949,19.1097148 15.571949,19.1269684 L15.571949,20.2607751 C15.571949,20.2780287 15.5571602,20.2928174 15.5399066,20.2928174 L10.7162985,20.2928174 C10.6990449,20.2928174 10.6842561,20.2780287 10.6842561,20.2607751 L10.6842561,19.3857721 C10.6842561,19.3783777 10.6867209,19.3685185 10.6941153,19.3635889 L13.2106733,16.6794248 C13.3363779,16.5463257 13.432505,16.4428042 13.4990545,16.3663955 C13.5631393,16.2899868 13.6420128,16.1889301 13.7332103,16.0607607 C13.8244078,15.9325912 13.8909573,15.8068866 13.930394,15.6811819 C13.9722956,15.5554772 13.992014,15.4273078 13.992014,15.2942087 C13.992014,15.0255458 13.8983517,14.8037141 13.7085623,14.6287135 C13.5212377,14.4537129 13.2821524,14.367445 12.9937711,14.367445 C12.6881363,14.367445 12.4441213,14.4635721 12.2617263,14.6533615 C12.0793313,14.8431509 11.9856691,15.0748418 11.9856691,15.3459695 C11.9856691,15.3558287 11.9856691,15.3730823 11.9881338,15.3952654 L11.9881338,15.3977302 C11.9905986,15.4174486 11.9758099,15.4322374 11.9560915,15.4322374 L10.6226362,15.4322374 L10.6226362,15.4297726 Z M16.4001208,18.3209797 L17.7015337,18.3209797 C17.7187873,18.3209797 17.7311113,18.3333037 17.7335761,18.3505573 C17.7656185,18.621685 17.8863935,18.8459815 18.0959013,19.0209821 C18.3128034,19.2033771 18.5987199,19.2945746 18.9536507,19.2945746 C19.3258351,19.2945746 19.6216108,19.1984475 19.8434425,19.0037285 C20.0628095,18.8090095 20.1712605,18.5625298 20.1687957,18.2618246 C20.1663309,17.9635841 20.0554151,17.7195692 19.8360481,17.5347094 C19.619146,17.3498496 19.3159759,17.2561873 18.9314675,17.2561873 L18.2018876,17.2561873 C18.184634,17.2561873 18.1698452,17.2413985 18.1698452,17.2241449 L18.1698452,16.1519582 C18.1698452,16.1347046 18.184634,16.1199158 18.2018876,16.1199158 L18.8969604,16.1199158 C19.2198488,16.1199158 19.4811173,16.0336479 19.6783011,15.8611121 C19.8754849,15.6885763 19.9740768,15.4642797 19.9740768,15.1906873 C19.971612,14.9343484 19.8730201,14.7223758 19.6783011,14.5547696 C19.4860469,14.3896282 19.2321728,14.3058251 18.9216084,14.3058251 C18.6011847,14.3058251 18.3473106,14.3994874 18.1624508,14.5868119 C17.9849854,14.7667421 17.8888583,14.9713203 17.8716047,15.2030112 C17.86914,15.2202648 17.856816,15.2325888 17.8395624,15.2325888 L16.5208959,15.2325888 C16.5036423,15.2325888 16.4863887,15.2178 16.4888535,15.1980817 C16.5135015,14.6114599 16.7402628,14.1283597 17.1691375,13.7487809 C17.6054067,13.3618077 18.2068172,13.1670888 18.9733691,13.1670888 C19.6758363,13.1670888 20.2575284,13.3371598 20.7159807,13.6797666 C21.174433,14.0199086 21.4061239,14.4561777 21.4135183,14.9885739 C21.4159831,15.2227296 21.3790112,15.4420966 21.3001376,15.6442099 C21.2212641,15.8463233 21.1177427,16.0089999 20.9895732,16.1347046 C20.8614037,16.2604092 20.7283047,16.3614659 20.5853465,16.4378746 C20.4522474,16.5093538 20.3216132,16.5561849 20.1909789,16.5783681 C20.1761901,16.5808329 20.1638661,16.5931569 20.1638661,16.6104104 C20.1638661,16.627664 20.1761901,16.639988 20.1934437,16.6424528 C20.3536555,16.6597064 20.5138673,16.7016079 20.6740792,16.7706223 C20.8416854,16.8445662 20.9994324,16.9456229 21.1473202,17.0787219 C21.295208,17.2093562 21.4135183,17.3843568 21.5071806,17.6012589 C21.6008429,17.8181611 21.647674,18.0597112 21.6501758,18.3283741 C21.6526036,18.74246 21.5318286,19.1097148 21.2828841,19.435068 C21.0339395,19.7579565 20.7036567,20.0044362 20.2895708,20.176972 C19.8754849,20.347043 19.4194974,20.4333109 18.9191436,20.4333109 C18.5025928,20.4333109 18.1304085,20.3766206 17.8025904,20.2632399 C17.4747724,20.1498592 17.2085743,19.9970418 17.0064609,19.799858 C16.8043476,19.6026742 16.6466005,19.3808425 16.5406143,19.1294332 C16.4370928,18.887883 16.3804024,18.6315441 16.3705433,18.3554869 C16.3656137,18.3357685 16.3804024,18.3209797 16.4001208,18.3209797 L16.4001208,18.3209797 Z" id="形状" fill="#0F71E2"></path>
                <polygon id="路径" fill="#0F71E2" points="16 9.15688664 6.21557882 9.15688664 6.21557882 7.15688664 16 7.15688664"></polygon>
            </g>
        </g>
    </g>
</svg>
