<?xml version="1.0" encoding="UTF-8"?>
<svg width="33px" height="33px" viewBox="0 0 33 33" version="1.1" xmlns="http://www.w3.org/2000/svg" xmlns:xlink="http://www.w3.org/1999/xlink">
    <title>指标定义</title>
    <g id="数据建模" stroke="none" stroke-width="1" fill="none" fill-rule="evenodd">
        <g id="数据建模-模型概览" transform="translate(-1212.000000, -499.000000)" fill-rule="nonzero">
            <g id="形状结合-2" transform="translate(1212.845338, 499.008106)">
                <path d="M3.74334215,5.71561297 C8.28872208,0.29888818 15.8509019,-1.49148609 22.3424934,1.31219453 L22.3424934,1.31219453 L20.7966645,2.85802347 C14.9878451,0.687466049 8.4425189,2.55088585 4.64795652,7.45547532 C0.853394132,12.3600648 0.693311701,19.1635935 4.25299921,24.2412235 C7.81268672,29.3188535 14.2631281,31.4880549 20.1676061,29.5931034 C26.0720841,27.698152 30.0555041,22.1803632 29.9955481,15.9795481 C29.9912262,14.349748 29.6983646,12.7335863 29.1305246,11.2059002 L29.1305246,11.2059002 L30.6783559,9.65806893 C31.5467059,11.6525545 31.9958524,13.8042321 31.9979301,15.9795481 C32.0068692,23.0507083 27.3727684,29.2890665 20.6003645,31.3227654 C13.8279606,33.3564643 6.52374277,30.703088 2.63566969,24.796797 C-1.2524034,18.890506 -0.802037778,11.1323378 3.74334215,5.71561297 Z M15.9789644,8.97125633 C16.1832061,8.97125633 16.3844442,8.98427171 16.5846811,9.00129186 L16.5846811,9.00129186 L14.3019803,11.2839926 C12.114188,12.057681 10.7484685,14.2375171 11.0057624,16.5441117 C11.2630563,18.8507064 13.0755389,20.6760233 15.3802607,20.9495861 C17.6849825,21.2231489 19.8744008,19.8728442 20.6645081,17.6905725 L20.6645081,17.6905725 L22.9572207,15.3968587 C22.9732397,15.5890862 22.9872563,15.783316 22.9872563,15.9795481 C22.9872563,19.8501208 19.8495372,22.98784 15.9789645,22.98784 C12.1083918,22.98784 8.97067265,19.8501208 8.97067265,15.9795482 C8.97067265,12.1089755 12.1083917,8.97125633 15.9789644,8.97125633 Z" id="形状结合" fill="#000000"></path>
                <path d="M15.7256648,12.3052009 L14.8456235,15.4479192 L14.8115833,15.6481561 C14.7945066,16.0299628 14.9323107,16.4024908 15.193749,16.6812704 C15.4551873,16.9600499 15.8181103,17.1214624 16.2002262,17.128908 C16.2232535,17.128908 16.2462807,17.128908 16.2703092,17.1269056 L19.6523105,16.2558751 C19.9005988,16.2147644 20.1298567,16.0971603 20.3080864,15.9194771 L31.6054528,4.62311183 C31.8428685,4.37184363 31.9696444,4.03588603 31.9574136,3.69041198 C31.9451828,3.34493793 31.7949662,3.01878671 31.5403759,2.78493701 L29.1935993,0.439161607 C28.702334,-0.0843505467 27.8803999,-0.112538808 27.3544233,0.376086996 L16.058058,11.6724522 C15.8857137,11.8452224 15.7698158,12.0661963 15.7256648,12.306202 L15.7256648,12.3052009 Z M28.2434751,2.31938618 L29.6611525,3.7370635 L28.693007,4.70520897 L27.2753297,3.28853282 L28.2434751,2.31938618 Z M17.6309189,12.9319424 L25.8596547,4.70420777 L27.277332,6.12088391 L19.0546034,14.3436126 L17.0902793,14.8622262 L17.6309189,12.9319424 Z" id="形状" fill="#0F71E2"></path>
            </g>
        </g>
    </g>
</svg>
