<?xml version="1.0" encoding="UTF-8"?>
<svg width="33px" height="33px" viewBox="0 0 33 33" version="1.1" xmlns="http://www.w3.org/2000/svg" xmlns:xlink="http://www.w3.org/1999/xlink">
    <title>业务板块</title>
    <g id="数据建模" stroke="none" stroke-width="1" fill="none" fill-rule="evenodd">
        <g id="数据建模-模型概览" transform="translate(-359.000000, -498.000000)" fill-rule="nonzero">
            <g id="编组-11" transform="translate(359.223354, 498.666683)">
                <path d="M16,0 C17.7543178,0 19.4436679,0.2839173 21.0245073,0.808208917 C20.5504063,1.35216031 20.186005,1.993672 19.9653552,2.6981368 C18.7129241,2.3000426 17.3823609,2.0591318 16,2 C8.1688261,2.33498591 2,8.50381201 2,16 C2,23.496188 8.1688261,29.6650141 16,30 C23.8311739,29.6650141 30,23.496188 30,16 C30,13.3388533 29.2225737,10.8449873 27.8693358,8.72001691 C28.4676279,8.33456223 28.9838942,7.83054564 29.3844699,7.24171914 C31.0373024,9.75947577 32,12.7695927 32,16 C32,24.8266666 24.8213334,32 16,32 C7.17333337,32 0,24.8266666 0,16 C0,7.17866662 7.17333337,0 16,0 Z" id="形状结合" fill="#303030"></path>
                <path d="M15.666876,6.75555557 L23.6729635,11.3777778 L23.6729635,20.6222222 L15.666876,25.2444444 L7.66036981,20.6222222 L7.66036981,11.3777778 L15.666876,6.75555557 Z M22.3363698,12.9025556 L16.3054202,16.3866856 L16.3053698,23.3335556 L22.3364173,19.8522008 L22.3363698,12.9025556 Z M8.99636981,12.9365556 L8.99670663,19.8522008 L14.9683698,23.2995556 L14.9690834,16.3866856 L8.99636981,12.9365556 Z M15.666876,8.29790139 L9.64936981,11.7715556 L15.6369377,15.2299786 L21.6543698,11.7545556 L15.666876,8.29790139 Z" id="形状结合" fill="#0F71E2"></path>
                <path d="M25.0109499,2.7755983 C24.2085892,2.81148965 23.5765482,3.4724353 23.5765482,4.2755983 C23.5765482,5.0787613 24.2085892,5.73970695 25.0109499,5.7755983 C25.8133105,5.73970695 26.4453516,5.0787613 26.4453516,4.2755983 C26.4453516,3.4724353 25.8133105,2.81148965 25.0109499,2.7755983 L25.0109499,2.7755983 Z M25.0109499,7.2950968 C23.3451932,7.2950968 21.9914514,5.94135497 21.9914514,4.2755983 C21.9914514,2.61084812 23.3451932,1.2560998 25.0109499,1.2560998 C26.6757,1.2560998 28.0304484,2.61084812 28.0304484,4.2755983 C28.0304484,5.94135497 26.6757,7.2950968 25.0109499,7.2950968 Z" id="形状" fill="#303030"></path>
            </g>
        </g>
    </g>
</svg>
