<?xml version="1.0" encoding="UTF-8"?>
<svg width="33px" height="33px" viewBox="0 0 33 33" version="1.1" xmlns="http://www.w3.org/2000/svg" xmlns:xlink="http://www.w3.org/1999/xlink">
    <title>汇总表</title>
    <g id="数据建模" stroke="none" stroke-width="1" fill="none" fill-rule="evenodd">
        <g id="数据建模-模型概览" transform="translate(-941.000000, -498.000000)" fill-rule="nonzero">
            <g id="编组" transform="translate(941.223354, 499.000000)">
                <polygon id="路径" fill="#0F71E2" points="20.4931437 29.4734123 20.4931437 32 13.5890299 28.5479431 20.4931437 25.0958862 20.4931437 27.6542337 27.720947 27.6542337 27.720947 20.4931437 25.0958862 20.4931437 28.5479431 13.5890299 32 20.4931437 29.4721703 20.4931437 29.4721703 29.4734123"></polygon>
                <path d="M32,0 L32,8 L10.6666667,8 L10.6666667,0 L32,0 Z M29.9050108,1.76768092 L12.7616559,1.76768092 L12.7616559,6.23231908 L29.9050108,6.23231908 L29.9050108,1.76768092 Z" id="形状结合" fill="#000000"></path>
                <path d="M8,0 L8,8 L1.8189894e-12,8 L1.8189894e-12,0 L8,0 Z M5.90501081,1.76768092 L2.09498919,1.76768092 L2.09498919,6.23231908 L5.90501081,6.23231908 L5.90501081,1.76768092 Z" id="形状结合备份" fill="#000000"></path>
                <path d="M14.6666667,17.3333333 L14.6666667,25.3333333 L-6.66666667,25.3333333 L-6.66666667,17.3333333 L14.6666667,17.3333333 Z M12.5716775,19.1010143 L-4.57167748,19.1010143 L-4.57167748,23.5656524 L12.5716775,23.5656524 L12.5716775,19.1010143 Z" id="形状结合" fill="#000000" transform="translate(4.000000, 21.333333) rotate(-270.000000) translate(-4.000000, -21.333333) "></path>
            </g>
        </g>
    </g>
</svg>
