<?xml version="1.0" encoding="UTF-8"?>
<svg width="79px" height="88px" viewBox="0 0 79 88" version="1.1" xmlns="http://www.w3.org/2000/svg" xmlns:xlink="http://www.w3.org/1999/xlink">
    <title>编组 35备份 12</title>
    <defs>
        <linearGradient x1="69.9747546%" y1="63.9700768%" x2="63.8070403%" y2="63.9700768%" id="linearGradient-1">
            <stop stop-color="#B7C8D6" offset="0%"></stop>
            <stop stop-color="#DAE2EB" offset="100%"></stop>
        </linearGradient>
    </defs>
    <g id="首页" stroke="none" stroke-width="1" fill="none" fill-rule="evenodd">
        <g id="首页备份" transform="translate(-1168.000000, -523.000000)">
            <g id="编组-35备份-12" transform="translate(1168.417242, 523.690404)">
                <path d="M2.82079467,32.4049489 L2.79681228,35.2410185 C2.78767289,36.3218099 3.36061161,37.3239679 4.29662022,37.8644135 L47.3242493,62.7082995 C49.1806814,63.7801918 51.4679519,63.7802292 53.3244189,62.7083974 L70.3390306,52.8850068 C71.233263,52.3687215 71.799138,51.4288439 71.8370119,50.3969681 L71.9636486,46.9467392 L71.9636486,46.9467392 L51.2394024,36.0044209 L56.8528497,31.727197 L56.7435066,28.3447944 L44.5560219,31.2841121 L29.0676343,21.70549 C27.2449776,20.5782881 24.959495,20.5087985 23.0717237,21.5231855 L2.82079467,32.4049489 L2.82079467,32.4049489 Z" id="Fill-6163" fill="url(#linearGradient-1)" transform="translate(37.372836, 42.162244) rotate(-240.000000) translate(-37.372836, -42.162244) "></path>
                <path d="M6.54910527,38.5190048 L49.6168254,63.51622 C51.4750273,64.594751 53.7680884,64.5973821 55.6287604,63.5231181 L72.6728372,53.6826748 C74.1077136,52.8542451 74.5993357,51.019473 73.770906,49.5845966 C73.5010434,49.1171829 73.110082,48.7312281 72.6392292,48.4674118 L52.4689184,37.1660994 L52.4689184,37.1660994 L59.022384,32.2990263 L43.6333425,32.0648212 L29.7287399,23.5631969 C27.8537757,22.4167965 25.5020904,22.3871902 23.59886,23.4860254 L6.5550634,33.3263069 C5.12018703,34.1547366 4.62856487,35.9895087 5.45699458,37.4243851 C5.71913136,37.8784174 6.0956757,38.2558268 6.54910527,38.5190048 Z" id="Fill-6163备份" fill="#FFFFFF" transform="translate(39.653763, 43.481505) rotate(-240.000000) translate(-39.653763, -43.481505) "></path>
                <path d="M26.9202736,57.8435464 C27.6061615,56.9143424 28.2086731,55.880621 28.7278085,54.7423824 C29.1305316,55.1978265 29.6071923,55.5022461 30.1577904,55.6556412 C30.4787104,54.6818976 30.7524363,53.952278 30.9789681,53.4667826 C30.393761,53.3726887 29.8997958,53.1358601 29.4970727,52.7562969 C30.0696947,50.9653524 30.4236506,48.9109947 30.5589404,46.5932237 L30.9412128,46.3572843 L30.9412128,44.8143734 L28.5767873,46.2737025 C28.7183696,45.5919174 28.8520863,44.8854779 28.9779373,44.1543838 L27.6848184,44.7880914 C27.3104117,47.0510969 26.8652138,48.9826063 26.3492247,50.5826194 C25.9968419,50.5260967 25.6240084,50.4779806 25.230724,50.4382712 L24.909804,51.2180971 L24.909804,50.3328204 L26.5615983,49.313329 L26.5615983,48.0233544 L26.0141464,48.3612429 C26.3256276,47.6631236 26.5867685,47.0087212 26.7975689,46.3980359 L25.9103194,46.2374271 C25.6963727,46.8584855 25.4320856,47.5232609 25.1174581,48.2317533 L25.9008805,48.4311509 L24.909804,49.0428457 L24.909804,46.5640709 L23.7110733,47.3039304 L23.7110733,49.7827052 L22.6539249,50.4351796 L23.5034191,49.227942 C23.169914,48.7677169 22.9056269,48.4418255 22.7105579,48.2502679 L21.8610637,49.4827991 C22.1410821,49.8200591 22.3644677,50.1627638 22.5312202,50.5109133 L21.7949919,50.9653151 L21.7949919,52.2552898 L23.2060962,51.3843529 C22.7026922,52.2472991 22.1379359,53.0342908 21.5118272,53.745328 C21.6754335,54.0912038 21.8233084,54.5058074 21.9554519,54.989139 C22.6602175,53.9892651 23.2454246,53.0168114 23.7110733,52.0717778 L23.7110733,53.2858716 L23.2013768,53.5372235 C23.1258662,53.9168614 23.0361973,54.3052379 22.9323703,54.7023529 L21.6911648,55.4684279 L21.6911648,56.7584025 L22.4651485,56.280698 C22.2952496,56.8029047 22.1033269,57.3387046 21.8893802,57.8880977 C22.3739065,57.85463 22.8332626,57.8324817 23.2674485,57.8216529 C22.7671908,58.3917806 22.1882763,58.9261433 21.5307048,59.4247413 C21.7509441,59.8621312 21.9176966,60.2777303 22.0309625,60.6715387 C22.9905763,59.8178954 23.8149003,58.8706979 24.5039345,57.8299462 C24.9507056,57.8535059 25.3628676,57.8942108 25.7404205,57.9520608 L26.0754988,56.9990879 C26.3838337,57.2345588 26.6654253,57.516045 26.9202736,57.8435464 Z M28.7325279,51.6030606 C28.4179004,50.8529543 28.1976612,49.8148409 28.0718102,48.4887205 C28.1095655,48.347381 28.1441745,48.2058755 28.1756372,48.0642041 L29.4026844,47.3068677 C29.3303201,48.8354235 29.1069346,50.2674878 28.7325279,51.6030606 Z M26.4105771,56.0587618 L25.471414,56.1388665 C25.8395282,55.3804995 26.14629,54.5820107 26.3916994,53.7434001 L26.3916994,52.5672467 L24.1924533,53.9246267 C24.280549,53.6468268 24.360779,53.3823129 24.4331433,53.1310849 L24.909804,52.8368888 L24.909804,51.8757312 C25.3628676,51.9586412 25.7844684,52.0567545 26.1746065,52.170071 L26.4530518,51.4354308 C26.6449745,51.6753019 26.8133002,51.9191982 26.9580289,52.1671196 C27.0712948,51.8527066 27.1829875,51.5287256 27.2931072,51.1951765 C27.4567134,52.1438835 27.6926841,52.9467527 28.001019,53.6037839 C27.5102001,54.6781739 26.9171273,55.6723448 26.2218006,56.5862965 L26.4105771,56.0587618 Z M23.3995921,56.3615913 L23.6780374,55.5321 L25.0797028,54.6669888 C24.8972189,55.2180411 24.6643945,55.7453607 24.3812298,56.2489477 L23.3995921,56.3615913 Z M31.573614,54.8070851 C31.881949,54.6336425 32.202869,54.422923 32.5363741,54.1749268 C33.1089961,53.7962095 33.3953071,53.1389189 33.3953071,52.203055 L33.3953071,48.737829 C33.6658868,48.4780833 33.9396127,48.2163957 34.2164849,47.9527663 C34.2101923,47.5350897 34.2227774,46.9792937 34.2542402,46.2853783 C33.9521978,46.5729741 33.6658868,46.8382136 33.3953071,47.0810968 L33.3953071,45.3105434 L34.2070461,44.8095362 L34.2070461,43.1907445 L33.3953071,43.6917517 L33.3953071,41.4532663 L32.2532094,42.1581717 L32.2532094,44.3966571 L31.3565211,44.9500953 L31.3565211,46.568887 L32.2532094,46.0154488 L32.2532094,48.1274661 C31.8630713,48.477866 31.5264199,48.7783913 31.2432552,49.0290421 L31.3470822,50.7102196 C31.6491246,50.4226239 31.951167,50.1308125 32.2532094,49.8347855 L32.2532094,52.1617986 C32.2532094,52.5749277 32.146236,52.8433009 31.9322894,52.9669181 C31.7183427,53.0905353 31.5075423,53.2122106 31.2998881,53.331944 C31.4194466,53.856768 31.5106885,54.3484817 31.573614,54.8070851 Z M36.8216004,51.6944835 L36.8216004,51.062143 L38.9264583,49.7630197 L38.9264583,50.3953602 L40.0402396,49.7079318 L40.0402396,45.1677269 L38.454517,46.1464386 L38.454517,45.0841065 L40.606569,43.7558549 L40.606569,42.4279399 L38.454517,43.7561915 L38.454517,42.6306253 L40.2101384,41.5470517 L40.2101384,37.5886001 L34.4996496,41.1131273 L34.4996496,45.7292131 C34.4996496,48.2585751 34.1850221,50.4551756 33.5557672,52.3190144 C33.8578095,52.5288599 34.1409743,52.7840815 34.4052614,53.0846792 C35.0974418,51.3000395 35.500165,49.2176903 35.6134309,46.8376317 L37.2652252,45.8181403 L37.2652252,46.8804724 L35.7078191,47.8417071 L35.7078191,52.381912 L36.8216004,51.6944835 Z M39.049163,40.9356934 L35.6511862,43.0329328 L35.6511862,41.7303113 L39.049163,39.6330719 L39.049163,40.9356934 Z M37.2652252,44.4902252 L35.6511862,45.4864139 L35.6511862,44.3608478 L37.2652252,43.3646591 L37.2652252,44.4902252 Z M38.9264583,48.4351046 L36.8216004,49.7342279 L36.8216004,48.4821937 L38.9264583,47.1830704 L38.9264583,48.4351046 Z M43.3815834,44.939229 L43.3815834,42.7513308 L47.8933415,39.966663 L47.8933415,42.0154463 L49.2147769,41.1998532 L49.2147769,37.6334527 L44.1933223,40.7327064 C45.3951993,39.704244 46.2541323,38.5080432 46.7701214,37.1441039 C47.327012,37.9217401 48.3180886,37.9929731 49.7433511,37.3578027 C49.8817872,36.8507993 50.0642711,36.2196505 50.2908029,35.4643565 C48.8403702,36.199374 47.8241234,36.1900478 47.2420626,35.4363779 C47.2735253,35.2820597 47.3018418,35.1254678 47.327012,34.9666022 L48.7145192,34.1102294 L48.4124768,35.1186934 L49.4035534,35.0002241 L50.0359546,33.0669937 L50.0359546,31.8655468 L45.6280236,34.5861323 C45.7161193,34.2872544 45.804215,33.9799453 45.8923107,33.6642051 L44.5897529,34.3543255 C44.2940031,35.5739015 43.8566709,36.7796879 43.2777563,37.9716848 C43.7056497,38.0279739 44.0548862,38.0990853 44.3254658,38.1850191 C44.5740216,37.626912 44.8147116,37.0230724 45.0475359,36.3735002 L46.0952454,35.7268514 C45.8907376,37.2273609 44.9232581,38.659181 43.1928069,40.0223118 L43.778014,40.9890357 L42.060148,42.0493067 L42.060148,45.7548221 L43.3815834,44.939229 Z M43.3721446,36.5349258 C43.0323469,36.3905391 42.5320892,36.235583 41.8713715,36.0700574 L41.0973879,37.8377366 C41.6196695,37.9959619 42.0979033,38.2066673 42.5320892,38.4698528 L43.3721446,36.5349258 Z M41.465502,42.4289704 C42.0318315,41.5651269 42.7428896,40.5192132 43.5986764,39.2912294 L43.0606634,38.0424411 C42.4125308,39.0073609 41.6951801,40.0150023 40.9086114,41.0653652 L41.465502,42.4289704 Z M41.5976456,48.7719907 C43.5986764,47.2924447 44.9122461,45.8809829 45.5383548,44.5376051 C47.2845373,44.2270969 48.5792294,44.0245178 49.422431,43.9298677 L50.0642711,41.9022839 C48.5005725,42.2181995 47.1980147,42.514161 46.1565978,42.7901686 C46.2761562,42.3032477 46.3642519,41.7872662 46.4208849,41.2422242 L45.0428165,42.0927713 C44.9673059,43.2101399 44.5685156,44.1739807 43.8464455,44.9842938 C43.1243754,45.7946068 42.1608288,46.6116832 40.9558055,47.4355229 C41.2263852,47.943017 41.4403318,48.3885063 41.5976456,48.7719907 Z M51.5367277,42.6628591 C52.3610517,40.3666686 52.7732137,38.2869249 52.7732137,36.4236282 L52.7732137,36.1201048 L59.6352391,31.8848464 L59.6352391,30.2913483 L57.4218347,31.6574667 L58.3893143,29.5933061 L57.1811447,29.5548889 L59.7956991,27.9411797 L59.7956991,26.3476817 L56.119277,28.6167781 L55.8502705,27.3663668 L54.3589362,28.5903453 C54.4659096,28.886863 54.5697366,29.1937538 54.6704174,29.5110177 L50.9043265,31.835458 L50.9043265,33.4289561 L53.3961761,31.8909806 L52.4145384,33.2809519 C52.7700674,33.609547 53.0784024,33.908252 53.3395432,34.1770668 L51.5272889,35.2955944 L51.5272889,36.9776202 C51.4958261,38.5230875 51.1654673,40.1898002 50.5362123,41.9777582 C50.9703982,42.2325124 51.3039034,42.4608794 51.5367277,42.6628591 Z M54.3117421,33.5770233 L54.7836833,32.8936889 L53.6132691,31.7569903 L57.0301235,29.6480996 C56.6336929,30.7148202 56.2514205,31.701137 55.8833064,32.6070501 L54.3117421,33.5770233 Z" id="数据资产" fill="#0F71E2" fill-rule="nonzero"></path>
            </g>
        </g>
    </g>
</svg>