<?xml version="1.0" standalone="no"?><!DOCTYPE svg PUBLIC "-//W3C//DTD SVG 1.1//EN" "http://www.w3.org/Graphics/SVG/1.1/DTD/svg11.dtd"><svg t="1642993548721" class="icon" viewBox="0 0 1024 1024" version="1.1" xmlns="http://www.w3.org/2000/svg" p-id="2136" xmlns:xlink="http://www.w3.org/1999/xlink" width="200" height="200"><defs><style type="text/css"></style></defs><path d="M927.976727 40.634182a9.309091 9.309091 0 0 1 6.749091 2.699636l50.082909 50.129455a9.634909 9.634909 0 0 1 0 13.498182L894.882909 196.887273a236.590545 236.590545 0 0 1-28.718545 299.566545l-120.413091 120.413091a10.007273 10.007273 0 0 1-6.749091 2.746182 9.309091 9.309091 0 0 1-6.749091-2.746182L411.182545 295.796364a9.495273 9.495273 0 0 1 0-13.358546L531.549091 161.978182a235.706182 235.706182 0 0 1 167.237818-69.259637c46.312727 0 92.625455 13.498182 132.468364 40.494546L921.227636 43.380364a9.774545 9.774545 0 0 1 6.749091-2.699637z m-435.106909 603.229091l78.568727-78.522182a9.448727 9.448727 0 0 1 13.358546 0l40.122182 40.122182a9.448727 9.448727 0 0 1 0 13.358545l-78.568728 78.568727 55.482182 55.435637a9.495273 9.495273 0 0 1-2.141091 10.007273l-120.459636 120.41309a235.706182 235.706182 0 0 1-167.191273 69.259637 235.52 235.52 0 0 1-132.514909-40.494546l-89.925818 89.925819a9.774545 9.774545 0 0 1-13.498182 0L26.065455 951.808a9.495273 9.495273 0 0 1 0-13.358545l89.925818-89.925819a236.590545 236.590545 0 0 1 28.718545-299.613091l120.32-120.41309a10.007273 10.007273 0 0 1 10.705455-1.908364H275.549091l53.527273 53.527273 78.522181-78.568728c3.723636-3.723636 9.681455-3.723636 13.358546 0l40.122182 40.122182c3.723636 3.723636 3.723636 9.681455 0 13.358546L382.603636 533.597091l110.312728 110.312727z" fill="#7F8FA4" p-id="2137"></path></svg>