<?xml version="1.0" standalone="no"?><!DOCTYPE svg PUBLIC "-//W3C//DTD SVG 1.1//EN" "http://www.w3.org/Graphics/SVG/1.1/DTD/svg11.dtd"><svg t="1642993538494" class="icon" viewBox="0 0 1121 1024" version="1.1" xmlns="http://www.w3.org/2000/svg" p-id="2006" xmlns:xlink="http://www.w3.org/1999/xlink" width="218.9453125" height="200"><defs><style type="text/css"></style></defs><path d="M963.242667 42.569143c68.071619 0 123.465143 56.417524 123.465143 125.561905v575.195428c0 69.241905-55.393524 125.513143-123.465143 125.513143h-395.264v93.037714h247.027809c13.653333 0 24.673524 11.361524 24.673524 25.502477a25.014857 25.014857 0 0 1-24.673524 25.453714H271.652571a25.014857 25.014857 0 0 1-24.673523-25.453714c0-14.140952 11.068952-25.502476 24.673523-25.502477h247.02781v-93.037714H123.367619C55.393524 868.839619 0 812.422095 0 743.326476V168.131048C0 98.889143 55.393524 42.569143 123.416381 42.569143h839.826286z m-115.078096 222.841905h-178.614857a25.014857 25.014857 0 0 0-24.673524 25.502476c0 14.140952 11.02019 25.502476 24.673524 25.502476h120.003048l-184.271238 193.487238-137.849905-144.822857a24.771048 24.771048 0 0 0-35.206095 0l-239.518476 251.318857a26.087619 26.087619 0 0 0 0.292571 36.08381c4.534857 4.681143 10.727619 7.314286 17.261714 7.314285 6.339048 0 12.726857-2.584381 17.554286-7.704381L449.828571 419.352381l137.898667 144.579048c9.313524 9.801143 25.84381 9.801143 35.157333 0l200.704-210.505143v122.392381c0 14.140952 11.02019 25.502476 24.673524 25.502476a24.868571 24.868571 0 0 0 24.673524-25.356191V290.913524a25.063619 25.063619 0 0 0-24.673524-25.502476z" fill="#7F8FA4" p-id="2007"></path></svg>