<?xml version="1.0" encoding="UTF-8"?>
<svg width="32px" height="32px" viewBox="4 4 24 24" version="1.1" xmlns="http://www.w3.org/2000/svg" xmlns:xlink="http://www.w3.org/1999/xlink">
    <title>Icon-对象模型</title>
    <g id="页面-1" stroke="none" stroke-width="1" fill="none" fill-rule="evenodd">
        <g id="数据资产中心" transform="translate(-567.000000, -384.000000)" fill="#7F8FA4" fill-rule="nonzero">
            <g id="Table-2" transform="translate(500.000000, 130.000000)">
                <g id="Row" transform="translate(1.000000, 239.872959)">
                    <g id="Icon" transform="translate(61.000000, 10.000000)">
                        <g id="编组-3" transform="translate(5.000000, 4.557322)">
                            <path d="M16.0002718,4 L26.3927892,10 L26.3927892,22 L16.0002718,28 L5.6072108,22 L5.6072108,10 L16.0002718,4 Z M24.6572108,11.98 L21.9642108,13.534 L21.9650976,19.4437902 L16.8272108,22.409 L16.8282108,25.521 L24.6578494,21.0004529 L24.6572108,11.98 Z M7.3412108,12.023 L7.34187879,21.0004529 L15.0942108,25.476 L15.0932108,22.364 L10.0349024,19.4437902 L10.0342108,13.578 L7.3412108,12.023 Z M20.9682108,14.109 L16.8291512,16.5019476 L16.8272108,21.26 L20.9693028,18.8700851 L20.9682108,14.109 Z M11.0292108,14.153 L11.0305412,18.8700851 L15.0932108,21.215 L15.0944832,16.5019476 L11.0292108,14.153 Z M16.000156,10.2615455 L11.8762108,12.641 L15.9614095,15.0004529 L20.0822108,12.619 L16.000156,10.2615455 Z M16.0002718,6.00208352 L8.1882108,10.511 L10.8822108,12.066 L16.000156,9.1124196 L21.0772108,12.044 L23.7722108,10.489 L16.0002718,6.00208352 Z" id="形状结合"></path>
                        </g>
                    </g>
                </g>
            </g>
        </g>
    </g>
</svg>
