<?xml version="1.0" standalone="no"?><!DOCTYPE svg PUBLIC "-//W3C//DTD SVG 1.1//EN" "http://www.w3.org/Graphics/SVG/1.1/DTD/svg11.dtd"><svg t="1642993526929" class="icon" viewBox="0 0 1117 1024" version="1.1" xmlns="http://www.w3.org/2000/svg" p-id="1876" xmlns:xlink="http://www.w3.org/1999/xlink" width="218.1640625" height="200"><defs><style type="text/css"></style></defs><path d="M596.386909 383.906909H861.090909c77.079273 0 75.915636-40.866909 64-64.977454-0.977455-1.210182-304.081455-303.476364-305.803636-304.64a36.538182 36.538182 0 0 0-23.552-8.564364H180.363636a151.319273 151.319273 0 0 0-151.272727 151.272727v680.727273a151.319273 151.319273 0 0 0 151.272727 151.272727h264.750546a37.841455 37.841455 0 0 0 0-75.636363H180.363636a75.589818 75.589818 0 0 1-75.636363-75.636364V156.997818c0-41.844364 33.792-75.636364 75.636363-75.636363H558.545455v264.704c0 20.898909 16.942545 37.841455 37.841454 37.841454z m37.794909-246.877091l171.240727 171.240727h-171.240727V137.029818z m-75.357091 397.079273c0 41.844364 118.551273 75.776 264.750546 75.776 146.199273 0 264.750545-33.978182 264.750545-75.776 0-41.890909-118.551273-75.776-264.750545-75.776-146.199273 0-264.750545 33.978182-264.750546 75.776z m264.750546 152.203636c-146.199273 0-264.750545-33.885091-264.750546-75.822545v302.545454c0 41.890909 118.551273 75.822545 264.750546 75.822546 146.199273 0 264.750545-33.885091 264.750545-75.822546v-302.545454c0 41.890909-118.551273 75.822545-264.750545 75.822545z" fill="#7F8FA4" p-id="1877"></path></svg>