<?xml version="1.0" encoding="UTF-8"?>
<svg width="16px" height="17px" viewBox="0 0 16 17" version="1.1" xmlns="http://www.w3.org/2000/svg" xmlns:xlink="http://www.w3.org/1999/xlink">
    <title>形状结合</title>
    <g id="指标管理" stroke="none" stroke-width="1" fill="none" fill-rule="evenodd">
        <g id="指标管理-指标开发/新增指标-定义指标" transform="translate(-246.000000, -446.000000)">
            <rect fill="#FFFFFF" x="0" y="0" width="1580" height="1020"></rect>
            <g id="编组-2" transform="translate(208.000000, 112.000000)" fill="#FFFFFF">
                <rect id="矩形" transform="translate(686.000000, 468.000000) scale(1, -1) translate(-686.000000, -468.000000) " x="0" y="88" width="1372" height="760"></rect>
            </g>
            <polygon id="矩形备份-2" fill="#FFFFFF" points="208 200 448 200 448 960 208 960"></polygon>
            <rect id="Base备份-5" fill="#F6F8FA" x="216" y="434" width="224" height="40"></rect>
            <g id="编组-8" transform="translate(246.000000, 446.000000)" fill="#0F71E2" fill-rule="nonzero">
                <path d="M1.79835,1.0014 C2.192625,1.025025 2.505,1.352275 2.505,1.7525 L2.505,13.49255 C2.505,13.49395 2.50605,13.495 2.50745,13.495 L14.2475,13.495 C14.647725,13.495 14.974975,13.807375 14.9986,14.20165 C15.02485,14.636875 14.667675,15 14.231575,15 L1.7525,15 C1.336875,15 1,14.663125 1,14.2475 L1,1.768425 C1,1.3325 1.363125,0.975325 1.79835,1.0014 Z M14.2475,1 C14.663125,1 15,1.336875 15,1.7525 L15,11.956575 C15,12.3925 14.636875,12.74985 14.20165,12.7236 C13.807375,12.699975 13.495,12.372725 13.495,11.9725 L13.495,2.50745 L13.4943,2.5057 L4.2025,2.505 C3.802275,2.505 3.475025,2.192625 3.4514,1.79835 C3.42515,1.363125 3.782325,1 4.218425,1 L14.2475,1 Z M10.67855,4.569125 C11.094175,4.569125 11.43105,4.906 11.43105,5.321625 L11.43105,11.95675 C11.43105,12.392675 11.067925,12.750025 10.6327,12.723775 C10.238425,12.70015 9.92605,12.3729 9.92605,11.972675 L9.92605,6.076575 L9.92535,6.074825 L4.2025,6.074125 C3.802275,6.074125 3.475025,5.76175 3.4514,5.367475 C3.42515,4.93225 3.782325,4.569125 4.218425,4.569125 L10.67855,4.569125 Z M7.178725,8.068775 C7.59435,8.068775 7.931225,8.40565 7.931225,8.821275 L7.931225,11.956575 C7.931225,12.3925 7.5681,12.74985 7.132875,12.7236 C6.7386,12.699975 6.426225,12.372725 6.426225,11.9725 L6.426225,9.576225 C6.426225,9.574825 6.425175,9.573775 6.423775,9.573775 L4.2025,9.573775 C3.802275,9.573775 3.475025,9.2614 3.4514,8.867125 C3.42515,8.4319 3.782325,8.068775 4.218425,8.068775 L7.178725,8.068775 Z" id="形状结合"></path>
            </g>
        </g>
    </g>
</svg>