<?xml version="1.0" encoding="UTF-8"?>
<svg width="16px" height="16px" viewBox="0 0 16 16" version="1.1" xmlns="http://www.w3.org/2000/svg" xmlns:xlink="http://www.w3.org/1999/xlink">
    <title>切换</title>
    <g id="指标管理" stroke="none" stroke-width="1" fill="none" fill-rule="evenodd">
        <g id="指标管理-指标开发/新增指标-定义指标" transform="translate(-416.000000, -262.000000)">
            <rect fill="#FFFFFF" x="0" y="0" width="1580" height="1020"></rect>
            <g id="编组-2" transform="translate(208.000000, 112.000000)" fill="#FFFFFF">
                <rect id="矩形" transform="translate(686.000000, 468.000000) scale(1, -1) translate(-686.000000, -468.000000) " x="0" y="88" width="1372" height="760"></rect>
            </g>
            <polygon id="矩形备份-2" fill="#FFFFFF" points="208 200 448 200 448 960 208 960"></polygon>
            <rect id="Base" stroke="#DFE3E9" fill="#F6F8FA" x="216.5" y="242.5" width="223" height="55"></rect>
            <g id="编组-3" transform="translate(416.000000, 262.000000)" fill="#0F71E2" fill-rule="nonzero">
                <path d="M7.99996708,1 C11.8597568,1 15,4.14022677 15,7.99995061 C15,11.8598391 11.8597732,15 7.99996708,15 C4.14022677,15 1.00000001,11.8598391 1.00000001,7.99995061 C1.00000001,4.14022677 4.14022677,1 7.99996708,1 Z M7.99996708,1.57454074 C4.457007,1.57454074 1.57452429,4.45694113 1.57452429,7.99995061 C1.57452429,11.5429107 4.45692468,14.4254428 7.99996708,14.4254428 C11.542993,14.4254428 14.4254593,11.5429107 14.4254593,7.99995061 C14.4254593,4.45700699 11.542993,1.57454074 7.99996708,1.57454074 Z M11.7255178,8.92408224 C11.8235877,8.92408224 11.9031367,9.00356543 11.9031367,9.10163526 L11.9031367,9.10163526 L11.9031367,9.57748057 C11.9031367,9.67556687 11.8235877,9.75503356 11.7255178,9.75503356 L11.7255178,9.75503356 L6.51558455,9.75503356 C6.4175641,9.75503356 6.33803156,9.8345661 6.33803156,9.93258655 L6.33803156,9.93258655 L6.33803156,10.9883889 C6.33803156,11.1466309 6.14674846,11.2257683 6.03491559,11.1139519 L6.03491559,11.1139519 L4.67599725,9.75503354 L4.14816193,9.22719822 C4.03627967,9.11528303 4.11543356,8.92408224 4.27365905,8.92408224 L4.27365905,8.92408224 Z M9.66196845,5.01152878 C9.66196845,4.85336915 9.85325156,4.77413293 9.96508443,4.88604812 L9.96508443,4.88604812 L11.3240028,6.24488413 L11.8519039,6.77280178 C11.9637203,6.88461818 11.8845006,7.07590128 11.726341,7.07590128 L11.726341,7.07590128 L4.27472914,7.07590128 C4.17662639,7.07590128 4.09717615,6.99636874 4.09717615,6.89834829 L4.09717615,6.89834829 L4.09717615,6.42243712 C4.09717615,6.32433437 4.17670869,6.24488413 4.27472914,6.24488413 L4.27472914,6.24488413 L9.48441547,6.24488413 C9.58251822,6.24488413 9.66196845,6.16540098 9.66196845,6.06733115 L9.66196845,6.06733115 Z" id="形状结合"></path>
            </g>
        </g>
    </g>
</svg>