<?xml version="1.0" encoding="UTF-8"?>
<svg width="16px" height="16px" viewBox="0 0 16 16" version="1.1" xmlns="http://www.w3.org/2000/svg" xmlns:xlink="http://www.w3.org/1999/xlink">
    <title>形状</title>
    <g id="指标管理" stroke="none" stroke-width="1" fill="none" fill-rule="evenodd">
        <g id="指标管理-指标开发/新增指标-定义指标" transform="translate(-529.000000, -363.000000)">
            <rect fill="#FFFFFF" x="0" y="0" width="1580" height="1020"></rect>
            <g id="编组-2" transform="translate(208.000000, 112.000000)" fill="#FFFFFF">
                <rect id="矩形" transform="translate(686.000000, 468.000000) scale(1, -1) translate(-686.000000, -468.000000) " x="0" y="88" width="1372" height="760"></rect>
            </g>
            <g id="形状-2" transform="translate(529.000000, 363.000000)" fill="#354052" fill-rule="nonzero">
                <path d="M9.8899662,5.21100917 C9.14635972,4.6972477 8.25403194,4.55045872 7.36170417,4.6972477 C6.46937639,4.91743119 5.7257699,5.43119266 5.20524538,6.16513761 C4.68472084,6.89908256 4.53599955,7.77981652 4.68472084,8.66055045 C4.98216343,10.2752294 6.39501574,11.3761468 8.03094999,11.3761468 C8.17967128,11.3761468 8.40275324,11.3761468 8.55147453,11.3027523 L8.70019584,11.3027523 C10.0386875,11.0091743 11.0797366,9.98165138 11.3771792,8.66055045 C11.4515398,8.22018348 11.4515398,7.77981652 11.3771792,7.33944955 C11.1540972,6.45871561 10.6335727,5.72477064 9.8899662,5.21100917 L9.8899662,5.21100917 Z M9.8899662,8.36697248 C9.74124491,9.10091744 9.22072038,9.61467891 8.4771139,9.83486239 L8.40275324,9.83486239 C7.36170417,10.0550459 6.39501574,9.39449542 6.1719338,8.36697248 C6.09757315,7.85321102 6.1719338,7.41284405 6.46937639,6.97247706 C6.76681899,6.53211009 7.21298288,6.31192661 7.65914676,6.16513761 L8.03094999,6.16513761 C8.92327776,6.16513761 9.7412449,6.75229358 9.8899662,7.63302752 L9.8899662,8.36697248 L9.8899662,8.36697248 Z M15.3926542,9.02752294 L14.5003264,8.51376147 L14.5003264,8 L14.5003264,7.55963303 L15.3926542,7.04587156 C15.9875394,6.67889908 16.1362606,5.94495413 15.8388181,5.43119266 L14.2028838,2.64220183 C13.8310806,2.05504586 13.0874741,1.90825688 12.5669495,2.20183486 L11.6002611,2.71559633 C11.3771792,2.49541284 11.1540972,2.34862384 10.8566546,2.20183486 L10.8566546,1.17431192 C10.8566546,0.587155969 10.3361301,0 9.66688426,0 L6.39501574,0 C5.72576991,0 5.13088472,0.513761469 5.13088472,1.17431192 L5.13088472,2.20183486 C4.90780278,2.34862384 4.61036018,2.49541284 4.38727824,2.64220183 L3.42058982,2.12844036 C2.90006528,1.83486237 2.1564588,1.98165137 1.78465555,2.56880734 L0.148721299,5.43119266 C-0.148721297,5.94495413 -1.30293643e-09,6.67889908 0.594885184,7.04587156 L1.48721295,7.55963303 L1.48721295,8.51376147 L0.594885184,9.02752294 C-1.30293643e-09,9.39449542 -0.148721297,10.1284404 0.148721299,10.6422018 L1.78465555,13.4311927 C2.1564588,14.0183486 2.90006528,14.1651376 3.42058982,13.8715596 L4.31291759,13.3577982 C4.53599953,13.5045872 4.83344213,13.7247707 5.13088472,13.7981651 L5.13088472,14.8256881 C5.13088472,15.4862385 5.65140926,16 6.32065509,16 L9.66688426,16 C10.3361301,16 10.8566546,15.4862385 10.8566546,14.8256881 L10.8566546,13.7981651 C11.1540972,13.6513762 11.3771792,13.5045872 11.6002611,13.3577982 L12.4925889,13.8715596 C13.0874741,14.1651376 13.8310806,14.0183486 14.1285231,13.4311927 L15.7644574,10.6422018 C16.2106213,10.0550459 15.9875394,9.32110091 15.3926542,9.02752294 Z M13.6079986,9.68807339 L14.4259657,10.1284404 L13.0874741,12.4770642 L12.3438676,12.0366972 C11.9720643,11.7431193 11.4515398,11.7431193 11.0053759,12.0366972 C10.7079333,12.2568807 10.4848514,12.4036697 10.1130481,12.5504587 C9.66688426,12.7706422 9.44380232,13.2110092 9.44380232,13.6513761 L9.44380232,14.6055046 L6.61809768,14.6055046 L6.61809768,13.6513761 C6.61809768,13.1376147 6.32065509,12.7706422 5.8744912,12.5504587 C5.57704861,12.4036697 5.27960601,12.2568807 4.98216343,12.0366972 C4.61036018,11.7431193 4.08983566,11.7431193 3.71803241,11.9633028 L2.97442592,12.4770642 L1.63593426,10.1284404 L2.45390139,9.68807339 C2.90006528,9.46788991 3.12314722,8.95412844 3.04878657,8.51376147 L3.04878657,7.55963303 C3.04878657,7.04587156 2.82570463,6.60550459 2.37954074,6.38532109 L1.56157361,5.87155964 L2.97442592,3.52293578 L3.71803241,3.96330275 C4.08983566,4.25688073 4.61036018,4.25688073 5.05652407,3.96330275 C5.35396667,3.74311927 5.57704861,3.59633027 5.8744912,3.44954128 C6.32065509,3.2293578 6.61809768,2.86238531 6.61809768,2.34862386 L6.61809768,1.46788991 L9.36944167,1.46788991 L9.36944167,2.42201834 C9.36944167,2.86238531 9.66688426,3.30275228 10.1130481,3.52293578 C10.4104907,3.66972477 10.7079333,3.81651377 11.0053759,4.03669725 C11.3771792,4.33027523 11.8977037,4.33027523 12.269507,4.03669725 L13.0874741,3.59633028 L14.4259657,5.87155964 L13.6079986,6.31192661 C13.1618347,6.53211009 12.9387528,7.04587156 13.0131134,7.41284403 L13.0131134,8.36697248 C12.9387528,8.95412845 13.2361954,9.46788991 13.6079986,9.68807339 Z" id="形状" transform="translate(8.000000, 8.000000) rotate(-360.000000) translate(-8.000000, -8.000000) "></path>
            </g>
        </g>
    </g>
</svg>