<?xml version="1.0" encoding="UTF-8"?>
<svg width="16px" height="16px" viewBox="0 0 16 16" version="1.1" xmlns="http://www.w3.org/2000/svg" xmlns:xlink="http://www.w3.org/1999/xlink">
    <title>形状结合</title>
    <g id="指标管理" stroke="none" stroke-width="1" fill="none" fill-rule="evenodd">
        <g id="指标管理-指标开发/新增指标-定义指标" transform="translate(-246.000000, -608.000000)">
            <rect fill="#FFFFFF" x="0" y="0" width="1580" height="1020"></rect>
            <g id="编组-2" transform="translate(208.000000, 112.000000)" fill="#FFFFFF">
                <rect id="矩形" transform="translate(686.000000, 468.000000) scale(1, -1) translate(-686.000000, -468.000000) " x="0" y="88" width="1372" height="760"></rect>
            </g>
            <polygon id="矩形备份-2" fill="#FFFFFF" points="208 200 448 200 448 960 208 960"></polygon>
            <g id="编组-7" transform="translate(216.000000, 596.000000)" fill="#F6F8FA">
                <rect id="Base备份-12" x="0" y="1.0658141e-14" width="224" height="40"></rect>
            </g>
            <g id="编组-8" transform="translate(246.000000, 608.000000)" fill="#0F71E2" fill-rule="nonzero">
                <polygon id="路径" points="12.9821569 11.5 1 11.5 1 10 13 10.0024379"></polygon>
                <polygon id="路径备份-2" transform="translate(10.657407, 8.000000) rotate(-60.000000) translate(-10.657407, -8.000000) " points="17.6395641 8.75 3.65740724 8.75 3.65740724 7.25 17.6574072 7.25243789"></polygon>
                <polygon id="路径备份" points="14.9821569 6 3 6 3 4.5 15 4.50243789"></polygon>
                <polygon id="路径备份-3" transform="translate(5.342593, 8.000000) rotate(-60.000000) translate(-5.342593, -8.000000) " points="12.3247496 8.75 -1.65740724 8.75 -1.65740724 7.25 12.3425928 7.25243789"></polygon>
            </g>
        </g>
    </g>
</svg>