<?xml version="1.0" encoding="UTF-8"?>
<svg width="16px" height="16px" viewBox="0 0 16 16" version="1.1" xmlns="http://www.w3.org/2000/svg" xmlns:xlink="http://www.w3.org/1999/xlink">
    <title>形状结合</title>
    <g id="指标管理" stroke="none" stroke-width="1" fill="none" fill-rule="evenodd">
        <g id="指标管理-指标开发/新增指标-定义指标" transform="translate(-246.000000, -364.000000)">
            <rect fill="#FFFFFF" x="0" y="0" width="1580" height="1020"></rect>
            <g id="编组-2" transform="translate(208.000000, 112.000000)" fill="#FFFFFF">
                <rect id="矩形" transform="translate(686.000000, 468.000000) scale(1, -1) translate(-686.000000, -468.000000) " x="0" y="88" width="1372" height="760"></rect>
            </g>
            <polygon id="矩形备份-2" fill="#FFFFFF" points="208 200 448 200 448 960 208 960"></polygon>
            <rect id="Base备份" fill="#F6F8FA" x="216" y="352" width="224" height="40"></rect>
            <g id="编组" transform="translate(246.000000, 364.000000)" fill="#0F71E2" fill-rule="nonzero">
                <path d="M8,0 C12.4363636,0 16,3.56363636 16,8 C16,12.4363636 12.4363636,16 8,16 C3.56363636,16 0,12.4363636 0,8 C0,3.56363636 3.56363636,0 8,0 Z M8,1.45454545 C4.4,1.45454545 1.45454545,4.4 1.45454545,8 C1.45454545,11.6 4.4,14.5454545 8,14.5454545 C11.6,14.5454545 14.5454545,11.6 14.5454545,8 C14.5454545,4.4 11.6,1.45454545 8,1.45454545 Z M8,3.63636364 C8.4,3.63636364 8.72727273,3.96363637 8.72727273,4.36363636 L8.72727273,7.70909091 L11.0909091,10.4 C11.3454545,10.6909091 11.3090909,11.1636364 11.0181818,11.4181818 C10.8727273,11.5636364 10.7272727,11.6363636 10.5454545,11.6363636 C10.3272727,11.6363636 10.1454545,11.5636364 10,11.3818182 L7.45454545,8.47272727 C7.34545455,8.36363636 7.27272727,8.18181817 7.27272727,8 L7.27272727,4.36363636 C7.27272727,3.96363636 7.6,3.63636364 8,3.63636364 Z" id="形状结合"></path>
            </g>
        </g>
    </g>
</svg>