<svg xmlns="http://www.w3.org/2000/svg" width="308" height="49" viewBox="0 0 308 49">
  <metadata><?xpacket begin="﻿" id="W5M0MpCehiHzreSzNTczkc9d"?>
<x:xmpmeta xmlns:x="adobe:ns:meta/" x:xmptk="Adobe XMP Core 5.6-c140 79.160451, 2017/05/06-01:08:21        ">
   <rdf:RDF xmlns:rdf="http://www.w3.org/1999/02/22-rdf-syntax-ns#">
      <rdf:Description rdf:about=""/>
   </rdf:RDF>
</x:xmpmeta>
                                                                                                    
                                                                                                    
                                                                                                    
                                                                                                    
                                                                                                    
                                                                                                    
                                                                                                    
                                                                                                    
                                                                                                    
                                                                                                    
                                                                                                    
                                                                                                    
                                                                                                    
                                                                                                    
                                                                                                    
                                                                                                    
                                                                                                    
                                                                                                    
                                                                                                    
                                                                                                    
                           
<?xpacket end="w"?></metadata>
<defs>
    <style>
      .cls-1 {
        fill: #fff;
        fill-rule: evenodd;
      }
    </style>
  </defs>
  <path id="icon_supos_login" class="cls-1" d="M338.291,120.756l-1.492,3.623h6.828l-0.664-1.964h3.207l1.742,5.006h-3.235l-0.138-.387H344.1v5.337a0.852,0.852,0,0,0,.885.885h2.709l-1.217,2.738H343.1a2.38,2.38,0,0,1-1.77-.733,2.451,2.451,0,0,1-.718-1.784v-6.443h-2.571l-1.714,8.96H332.68l1.714-8.96h-2.82l2.681-6.278h-1.769v-2.738h6.027L337.6,116h4.368l0.885,2.019H348v2.738h-9.7Zm-8.735,2.046h2.128l-3.1,6.831h3.1v2.517h-7.961l3.262-6.859h-3.262l4.091-8.877H332.1L328.92,122.8h0.636Zm-12.662,7.91h3.622l2.046,5.254H318.94Zm2.212-6.14,3.456,4.978h-9.178v3.4a2.863,2.863,0,0,1-.249,1.189,3.226,3.226,0,0,1-.664.968,3.043,3.043,0,0,1-.967.65,2.952,2.952,0,0,1-1.161.235h-5.557l1.52-2.821h1.825a0.828,0.828,0,0,0,.608-0.249,0.861,0.861,0,0,0,.249-0.636V129.55h-10.7l7.022-4.563h-7.022l7.52-4.922-7.52.414v-3.125l24.273-1.327v3.125l-10.367.581-3.732,2.433h7.022l-7.022,4.563h8.155l-1.493-2.157h3.981Zm-29.414-1.051h6.662v2.738h-6.662v2.517h6.662v2.738h-6.662v4.48h-3.843V121.143h-0.774l-1.05,2.378h-4.009l3.318-7.494h4.008l-1.05,2.378h10.836v2.738h-7.436v2.378Zm-10.947-2.876v15.321h-3.539V123.494h-2.35l3.069-7.5h3.732l-1.908,4.646h1Zm-13.132,15.321h-3.759V130.96h-6.082v-1.852h6.082v-0.664h3.759v0.664H271.7v1.852h-6.082v5.006Zm5.2-8.956a3.028,3.028,0,0,1-2.157.881h-4.478v-5.559H271.7v2.532a2.971,2.971,0,0,1-.235,1.183A3.023,3.023,0,0,1,270.811,127.01Zm-2.267-2.742H267.3v1.6h0.387a0.828,0.828,0,0,0,.608-0.249,0.861,0.861,0,0,0,.249-0.636v-0.719Zm-5.059-1.936v2.532a3,3,0,0,1-.885,2.146,3.028,3.028,0,0,1-.968.647,2.944,2.944,0,0,1-1.161.234h-4.478v-5.559h7.492Zm-4.368,3.54h0.359a0.852,0.852,0,0,0,.885-0.885v-0.719h-1.244v1.6Zm10.5-5.116a3.048,3.048,0,0,1-.968.65,3,3,0,0,1-1.188.235H256.988v-5.586h13.518V118.6A3.025,3.025,0,0,1,269.622,120.756Zm-2.9-2.766h-5.971v1.6h5.087a0.861,0.861,0,0,0,.635-0.249,0.825,0.825,0,0,0,.249-0.608V117.99Zm-11.528,5.7-1.631,3.593V133.4a2.459,2.459,0,0,1-.76,1.824,2.527,2.527,0,0,1-1.838.746h-3.29l0.719-1.908h0.525a0.861,0.861,0,0,0,.636-0.249,0.828,0.828,0,0,0,.249-0.608v-1.107h-2.378l2.378-5.226v-6.444h-2.35v-2.738h2.35v-1.631h3.759v1.631h1.6v2.738h-1.6V123.7h1.631Zm-32.98,9.561h6.082V116.027h3.843v17.229h3.98V116.027h3.843v17.229h6.082v2.738h-23.83v-2.738Zm18.356-1.8,1.88-12.555h3.317l-1.879,12.555h-3.318Zm-18.19-12.915h3.317l2.046,12.915h-3.317ZM197,133.284h9.759v-14.6h-8.791v-2.544h21.424v2.544H210.6v14.6h9.759v2.571H197v-2.571Zm-22.363,10.322v0h-0.183c-0.195,0-.389,0-0.584,0H133.136c-0.157,0-.313,0-0.47,0h-0.912v-0.022A24.059,24.059,0,0,1,115.79,136.5a24.391,24.391,0,0,1,0-34.381,24.118,24.118,0,0,1,34.14-.078A17.967,17.967,0,0,1,178.3,116.469a13.757,13.757,0,0,1,5.645,3.433,13.934,13.934,0,0,1,0,19.646A13.749,13.749,0,0,1,174.636,143.606Zm-32.278-34.871q-4.309-4.48-11.486-4.48a17.748,17.748,0,0,0-7,1.292,12.646,12.646,0,0,0-4.2,2.943,15.375,15.375,0,0,0-3.024,4.48,20.91,20.91,0,0,0-1.484,8.382q0,7.8,4.275,12.249t11.519,4.447q7.155,0,11.43-4.47t4.275-12.382Q146.666,113.216,142.358,108.735Zm12.5,2.162a7.462,7.462,0,0,1,4.475-1.181,6.582,6.582,0,0,1,4.153,1.1,5.618,5.618,0,0,1,1.806,3.622l6.556-.289a9.544,9.544,0,0,0-3.245-7.2q-3.09-2.7-9.2-2.7a16.149,16.149,0,0,0-6.39,1.136,8.816,8.816,0,0,0-4.054,3.311,8.433,8.433,0,0,0-1.407,4.67,8.524,8.524,0,0,0,2.991,6.575q2.125,1.918,7.4,3.233,4.1,1.024,5.25,1.426a5.386,5.386,0,0,1,2.359,1.416,2.982,2.982,0,0,1,.676,1.972,4.02,4.02,0,0,1-1.606,3.154,7.266,7.266,0,0,1-4.774,1.349,7.034,7.034,0,0,1-4.751-1.516,7.847,7.847,0,0,1-2.337-4.748l-6.38.625q0.642,5.483,3.943,8.347t9.459,2.865a18.29,18.29,0,0,0,7.066-1.193,9.306,9.306,0,0,0,4.386-3.644,10.342,10.342,0,0,0,.255-10.466,9.144,9.144,0,0,0-3.589-3.321,31.641,31.641,0,0,0-7.077-2.352q-4.785-1.137-6.025-2.184a2.515,2.515,0,0,1-.975-1.984A2.387,2.387,0,0,1,154.855,110.9Zm-23.916,21.511a8.277,8.277,0,0,1-6.468-2.864q-2.548-2.865-2.548-8.415,0-5.64,2.481-8.437a9.029,9.029,0,0,1,13.036-.034q2.448,2.765,2.448,8.382,0,5.683-2.514,8.526A8.2,8.2,0,0,1,130.939,132.408ZM98.28,136.274a7.022,7.022,0,0,1-3.179-.711,10.745,10.745,0,0,1-3-2.44V144H86.5V114.2h5.223v3.171a7.889,7.889,0,0,1,2.751-2.643,7.473,7.473,0,0,1,3.847-1.016,8.01,8.01,0,0,1,6.259,2.947q2.571,2.948,2.571,8.213,0,5.408-2.591,8.405A8.012,8.012,0,0,1,98.28,136.274Zm1.834-16.4a4.1,4.1,0,0,0-3.309-1.646A4.262,4.262,0,0,0,93.4,119.84a7.29,7.29,0,0,0-1.356,4.787q0,3.639,1.415,5.376a4.3,4.3,0,0,0,3.449,1.738,4.016,4.016,0,0,0,3.249-1.6q1.3-1.6,1.3-5.235A7.918,7.918,0,0,0,100.114,119.87ZM77.095,132.554a8.212,8.212,0,0,1-3.04,2.724,8.389,8.389,0,0,1-3.977,1,7.654,7.654,0,0,1-3.827-.955,5.6,5.6,0,0,1-2.452-2.683,12.185,12.185,0,0,1-.758-4.777V114.2h5.6v9.919a28.019,28.019,0,0,0,.309,5.58,3.042,3.042,0,0,0,1.126,1.627,3.418,3.418,0,0,0,2.073.6,4.343,4.343,0,0,0,2.571-.8,4.07,4.07,0,0,0,1.555-1.992,23.574,23.574,0,0,0,.418-5.824V114.2h5.6v21.587h-5.2v-3.232ZM51.768,122.248q4.475,1.036,6.249,2.541a5.333,5.333,0,0,1,1.754,4.249,6.571,6.571,0,0,1-2.432,5.1q-2.432,2.135-7.2,2.134a11.63,11.63,0,0,1-6.847-1.789,8.238,8.238,0,0,1-3.3-4.858l5.621-.874a4.218,4.218,0,0,0,1.455,2.531,4.847,4.847,0,0,0,3.07.864,5.461,5.461,0,0,0,3.269-.813,1.829,1.829,0,0,0,.738-1.525,1.517,1.517,0,0,0-.4-1.077,4.414,4.414,0,0,0-1.874-.752q-6.778-1.525-8.591-2.785a5.593,5.593,0,0,1-2.512-4.858,6.034,6.034,0,0,1,2.173-4.716q2.172-1.911,6.738-1.911,4.345,0,6.458,1.443a7.377,7.377,0,0,1,2.91,4.269l-5.282,1a3.334,3.334,0,0,0-1.286-1.931,4.633,4.633,0,0,0-2.7-.671,5.988,5.988,0,0,0-3.169.63,1.36,1.36,0,0,0-.638,1.159,1.268,1.268,0,0,0,.558,1.036Q47.292,121.212,51.768,122.248Zm208.1,9.625-0.829,4.093h-3.953l0.829-4.093h3.953Zm11.805,4.093h-3.954l-0.857-4.093h3.981Zm32.372-5.254-2.074,5.254h-3.594l2.046-5.254h3.622Zm27.644,5.282h-7.961v-2.517h7.961v2.517Z" transform="translate(-40 -95)"/>
</svg>
