<svg xmlns="http://www.w3.org/2000/svg" width="851.128" height="163.344" viewBox="0 0 851.128 163.344">
  <metadata><?xpacket begin="﻿" id="W5M0MpCehiHzreSzNTczkc9d"?>
<x:xmpmeta xmlns:x="adobe:ns:meta/" x:xmptk="Adobe XMP Core 5.6-c140 79.160451, 2017/05/06-01:08:21        ">
   <rdf:RDF xmlns:rdf="http://www.w3.org/1999/02/22-rdf-syntax-ns#">
      <rdf:Description rdf:about=""/>
   </rdf:RDF>
</x:xmpmeta>
                                                                                                    
                                                                                                    
                                                                                                    
                                                                                                    
                                                                                                    
                                                                                                    
                                                                                                    
                                                                                                    
                                                                                                    
                                                                                                    
                                                                                                    
                                                                                                    
                                                                                                    
                                                                                                    
                                                                                                    
                                                                                                    
                                                                                                    
                                                                                                    
                                                                                                    
                                                                                                    
                           
<?xpacket end="w"?></metadata>
<defs>
    <style>
      .cls-1 {
        fill: #fff;
        fill-rule: evenodd;
      }
    </style>
  </defs>
  <path id="text__login" data-name="text _login" class="cls-1" d="M255.463,479.181h5.49a6.173,6.173,0,0,0,4.59-1.935,6.507,6.507,0,0,0,1.89-4.725v-36.99h-11.97v-7.29h-9.09v7.29H234.4v43.65h11.97v6.84l-12.87.72v6.3l24.75-1.26,0.27,1.17h8.46l-2.25-10.89h-8.46l0.72,3.42-1.53.09v-6.39Zm1.98-37.53v30.51a0.875,0.875,0,0,1-.99.99h-0.99v-31.5h1.98Zm-13.05,31.5v-31.5h1.98v31.5h-1.98Zm-11.43-44.91h-44.64v6.3h44.64v-6.3Zm-43.38,15.84v11.16h31.86a10.357,10.357,0,0,0,4-.765,10.827,10.827,0,0,0,3.285-2.115,9.779,9.779,0,0,0,2.25-3.15,9.317,9.317,0,0,0,.81-3.87v-7.56h-42.21v6.3Zm29.34,2.032a2.657,2.657,0,0,1-.855,2.033,2.987,2.987,0,0,1-2.115.795h-13.5v-4.86h16.47v2.032Zm-19.26,34.148h5.13v12.78h11.07v-12.78h4.95v4.5a2.085,2.085,0,0,1-.63,1.53,2.2,2.2,0,0,1-1.62.63l-2.43,6.21h6.57a9.729,9.729,0,0,0,3.735-.72,10.039,10.039,0,0,0,3.06-1.935,9.078,9.078,0,0,0,2.07-2.88,8.428,8.428,0,0,0,.765-3.555V457.4h-44.01v35.64h11.34v-12.78Zm21.15-16.56v10.26H219.1l1.26-8.1H211.9l-1.17,8.1h-0.72l-1.26-8.1h-8.37l1.17,8.1h-1.89V463.7h21.15Zm56.52-7.2h67.14v-8.82h5.58l-10.08-19.44h-58.59l-10.08,19.44h6.03v8.82Zm53.55-20.61,6.12,11.7h-52.56l6.12-11.7h40.32Zm16.29,25.47h-72.63v31.86h62.73a9.833,9.833,0,0,0,9.9-9.9v-21.96Zm-12.51,20.07a2.8,2.8,0,0,1-.81,2.07,2.7,2.7,0,0,1-1.98.81h-44.82v-14.04h47.61v11.16Zm60.536-53.19h-31.95l-9.27,21.6h11.88l6.12-13.95h14.94l5.85,14.76h11.88Zm13.353,4.32V480.8h10.44v-48.24h-10.44Zm-28.243,38.16-3.144,8.55h13.4a9.833,9.833,0,0,0,9.89-9.9v-16.02H358.6v29.97a9.842,9.842,0,0,0,9.913,9.9h30l2.974-8.55H372.827a2.851,2.851,0,0,1-2.028-.81,2.723,2.723,0,0,1-.857-2.07v-19.98h19.17v6.12a2.7,2.7,0,0,1-.808,1.98,2.8,2.8,0,0,1-2.066.81h-5.929Zm52.813-42.57h-10.44v53.37a2.816,2.816,0,0,1-.8,2.07,2.759,2.759,0,0,1-2.05.81h-0.714l-3.3,8.82h7.391a9.851,9.851,0,0,0,7.03-2.88,10.037,10.037,0,0,0,2.119-3.105,9.465,9.465,0,0,0,.766-3.825v-55.26Zm3.78,11.7h39.87v-8.91h-14.04l-1.17-2.7h-14.67l1.17,2.7H436.9v8.91Zm0,24.39v8.91h13.86v12.33a1.273,1.273,0,0,1-1.44,1.44h-0.36l-2.34,6.21h7.92a8.259,8.259,0,0,0,3.285-.675,8.172,8.172,0,0,0,2.7-1.845,9.216,9.216,0,0,0,1.8-2.7,7.938,7.938,0,0,0,.675-3.24v-11.52h13.77v-8.91H463v-5.49h13.77v-8.91h-4.68l3.24-7.65h-11.61l-3.15,7.65h-7.38l-3.24-7.65h-11.61l3.24,7.65H436.9v8.91h13.86v5.49H436.9Zm9.45,28.89,1.89-16.56H438.7l-1.89,16.56h9.54Zm20.97,0h9.45l-1.89-16.56h-9.45Zm48.51-57.15v-7.65L481,430.311v55.17l-2.34,7.65h12.15l2.34-7.65v-31.77h7.47v39.33h12.15v-39.33h3.06v-7.65h-22.68v-8.82ZM663.8,493.131h8.82l-9.45-42.48h10.35l-4.68-19.8H661.1l2.52,10.89h-2.43l-2.97-13.41h-8.73l2.97,13.41h-26.01v8.91h27.99Zm-15.39-63.45h-21.24v8.91h21.24v-8.91Zm9,53.55h-8.82v-9.81h6.39v-8.91h-6.39V453.8h-9.54v29.43h-2.07v-25.65h-9.54v25.65h-1.71v8.91h31.68v-8.91Zm-53.01,9.9,5.76-10.26,5.13,10.26h9.99l-7.74-15.57h-4.41l0.9-1.53v-29.88h-7.92v26.19l-0.99,1.8v-36h7.2a2.7,2.7,0,0,1,1.98.81,2.8,2.8,0,0,1,.81,2.07v34.56h9.54v-36.45a9.59,9.59,0,0,0-.765-3.78,9.881,9.881,0,0,0-2.115-3.15,10.522,10.522,0,0,0-3.15-2.16,9.327,9.327,0,0,0-3.87-.81h-19.17v46.35h8.73l-9.81,17.55h9.9Zm104.219-5.58-2.52,5.94h9.9a8.223,8.223,0,0,0,1.98-.27,4.477,4.477,0,0,0,1.8-1.26,7.463,7.463,0,0,0,1.62-2.34,8.863,8.863,0,0,0,.54-3.42v-28.26a7.838,7.838,0,0,0-7.74-7.74h-32.04v34.56l-1.71,8.73h9.81l1.98-8.73V481.7h18.99v4.77l-0.18.45a0.852,0.852,0,0,0-.27.36,0.811,0.811,0,0,1-.72.27h-1.44Zm31.5-36.81a2.516,2.516,0,0,1-2.79-2.79h5.85l14.67-18.45h-11.7l-8.82,11.25v-12.24h-11.7v21.78a8.53,8.53,0,0,0,.72,3.33,7.109,7.109,0,0,0,1.8,2.7,7.011,7.011,0,0,0,2.79,1.8,8,8,0,0,0,3.24.63h22.14l4.05-8.01h-20.25Zm0,33.57a3.23,3.23,0,0,1-2.07-.81,2.67,2.67,0,0,1-.72-1.98h5.85l14.67-18.54h-11.7l-8.82,11.43v-12.24h-11.7v21.6a8.1,8.1,0,0,0,.72,3.33,6.288,6.288,0,0,0,1.8,2.7q0.629,0.54,1.3,1.035a5.361,5.361,0,0,0,1.485.765,7.612,7.612,0,0,0,3.24.63h22.14l4.05-7.92h-20.25Zm-58.23-37.44h34.83v-0.09h6.57l-4.95-12.69h-11.07l1.98,5.04h-12.78l5.31-11.25h-11.61Zm10.35,27.9v-4.95h18.99v4.95h-18.99Zm16.11-16.65a2.92,2.92,0,0,1,2.88,2.88v1.89h-18.99v-4.77h16.11Zm137.97,26.19h-25.56v-12.42h15.66V461.9h-15.66v-16.56h-13.32v38.97h-12.15v-23.58h-13.23v23.58h-14.76v8.91h79.02v-8.91Zm-66.24-26.46,7.47-21.15h39.33l7.47,21.15h11.97l-10.08-29.61h-58.05l-10.17,29.61h12.06Zm71.28-21.42,6.66,42.03h10.8l-6.66-42.03h-10.8Zm65.34,1.17-6.12,40.86h10.8l6.12-40.86h-10.8Zm-65.88,55.62h77.58v-8.91h-19.8v-56.07h-12.51v56.07h-12.96v-56.07h-12.51v56.07h-19.8v8.91ZM560,454a7,7,0,1,1-7,7A7,7,0,0,1,560,454ZM442.726,363.359h-10.08v-17.92h7.28v-7.76h-7.28v-6.96h-10.56v6.96h-26.64v-6.96h-10.56v6.96h-7.36v7.76h7.36v17.92h-10.08v7.92h67.92v-7.92Zm-47.28-17.92h26.64v17.92h-26.64v-17.92Zm-6.56,42.24,10.08-12.48h-13.44l-10,12.48h13.36Zm54.48,0-10.08-12.48h-13.36l10,12.48h13.44Zm40.85-57.36h-28.4l-8.24,19.2h10.56l5.44-12.4h13.28l5.2,13.12h10.56Zm11.87,3.84v42.88h9.28v-42.88h-9.28Zm-25.105,33.92-2.8,7.6H480.1a8.675,8.675,0,0,0,3.436-.68,8.745,8.745,0,0,0,5.355-8.12v-14.24h-37.2v26.64a8.731,8.731,0,0,0,2.562,6.24,8.759,8.759,0,0,0,6.249,2.56h26.671l2.644-7.6H464.33a2.536,2.536,0,0,1-1.8-.72,2.422,2.422,0,0,1-.761-1.84v-17.76h17.04v5.44a2.4,2.4,0,0,1-.719,1.76,2.485,2.485,0,0,1-1.836.72h-5.27Zm46.945-37.84h-9.28v47.44a2.506,2.506,0,0,1-.714,1.84,2.453,2.453,0,0,1-1.822.72h-0.635l-2.933,7.84h6.57a8.759,8.759,0,0,0,6.249-2.56,8.919,8.919,0,0,0,1.884-2.76,8.421,8.421,0,0,0,.681-3.4v-49.12Zm4.64,49.68v7.92h67.28v-7.92h-28.08V366.8h26.32v-7.92h-26.32v-11.92h28.88v-7.92h-28.88v-8.56h-11.12v8.56l-16.24.08,2.48-7.12h-10.96l-4,14.96h28.72v11.92h-26.32v7.92h26.32v13.12h-28.08Zm99.679-16.48h-11.12V379.2a8.638,8.638,0,0,0,.685,3.44,8.765,8.765,0,0,0,1.894,2.8,8.954,8.954,0,0,0,2.78,1.88,8.521,8.521,0,0,0,3.425.68h27.616l1.76-8H624.8a2.5,2.5,0,0,1-1.84-.716,2.378,2.378,0,0,1-.72-1.752V363.439Zm-14.88,0h-10.96l-2,24.48h10.96Zm42.32,0,4.72,24.48h10.96l-4.72-24.48h-10.96Zm-6.64,0h-10.8l2.32,13.76h10.8Zm21.6-28.4h-29.28v-4.72h-11.6v4.72H594.442v7.92h21.68l-21.477,16.72h16l10.878-8.72,4.722,8.96h11.6l-4.88-9.28h-11.12l9.464-7.68h3.9l16.08,16.72h13.36l-16.16-16.72h16.16v-7.92Zm151.6-4.64h-10.8v57.52h10.8V330.4Zm-18.4,32.96h-35.6l1.44-8.8h33.44v-23.6h-46.32v7.92h35.2v7.76h-31.68l-3.52,24.64h35.92v6.32a2.1,2.1,0,0,1-.68,1.76,2.53,2.53,0,0,1-1.8.72h-29.6l-3.52,7.92h37.92a8.741,8.741,0,0,0,8.8-8.8v-15.84Zm38.48-8.16h7.04l-2.16-12.08h-7.04Zm10.24,0.32h8.16l-4-25.2h-25.04l-3.68,25.2h8.88l2.64-17.36h9.92Zm10.56-17.28h10.8l-1.12,3.92h-9.68v34.08h8.4l-9.36,11.84h11.351l6.929-8.96,6.9,8.96h10.5l-10.788-13.76h-2.892l0.96-1.2v-18.56h-9.28V370.8l-3.12,4v-24.72h13.36a2.493,2.493,0,0,1,1.84.72,2.4,2.4,0,0,1,.72,1.76v23.68h9.6v-25.28a8.056,8.056,0,0,0-.724-3.36,9.294,9.294,0,0,0-4.742-4.72,8.177,8.177,0,0,0-3.377-.72h-5.546l1.045-3.92h13.344v-7.92h-35.12v7.92Zm-8.48,46.64,6.8-26.72h-33.44v7.44h21.04l-3.04,11.92h-3.84l-3.04-8.16h-9.76l6.8,18.56h9.76l-1.04-3.04h9.76Zm47.04-33.84v8.24h29.12v28.24h11.68v-28.24h29.04v-8.24h-29.04v-7.52h26.4v-8.24h-26.4v-4.96h-11.68v4.96h-26.48v8.24h26.48v7.52h-29.12Zm58.32,11.6h-11.2l11.68,25.44h11.2Zm-47.12,25.44,11.76-25.44h-11.2l-11.76,25.44h11.2Zm91.84,0.08h11.115v-24.4h29.52v-7.92h-10l4.48-9.6h-11.12l-4.4,9.6h-8.48v-12.16h28v-7.92h-28v-5.6H998.725v5.6h-27.84v7.92h27.84v12.16h-8.56l-4.4-9.6h-11.12l4.4,9.6h-9.92v7.92h29.6v24.4Zm-7.76-21.36h-11.6l-10.08,21.28h11.6Zm26.795,0,10.08,21.28h11.6l-10.08-21.28h-11.6ZM708,353a7,7,0,1,1-7,7A7,7,0,0,1,708,353Z" transform="translate(-188.312 -330.156)"/>
</svg>
