<?xml version="1.0" encoding="UTF-8"?>
<svg width="64px" height="53px" viewBox="0 0 64 53" version="1.1" xmlns="http://www.w3.org/2000/svg" xmlns:xlink="http://www.w3.org/1999/xlink">
    <!-- Generator: Sketch 63.1 (92452) - https://sketch.com -->
    <title>empty_b_slice</title>
    <desc>Created with Sketch.</desc>
    <g id="B-数据开发--一期" stroke="none" stroke-width="1" fill="none" fill-rule="evenodd">
        <g id="画板" transform="translate(-409.000000, -525.000000)" fill="#7F8FA4" fill-rule="nonzero">
            <path d="M456.750479,525 L472.323396,544.280754 C472.473153,544.466168 472.545808,544.688823 472.545487,544.909936 L473,544.909091 L473,574.363636 C473,576.572775 471.209139,578.363636 469,578.363636 L413,578.363636 C410.790861,578.363636 409,576.572775 409,574.363636 L409,544.909091 L409.454513,544.909936 C409.454192,544.688823 409.526847,544.466168 409.676604,544.280754 L409.676604,544.280754 L425.249521,525 L456.750479,525 Z M425.103693,546.909091 L411,546.909091 L411,574.363636 C411,575.468206 411.895431,576.363636 413,576.363636 L469,576.363636 C470.104569,576.363636 471,575.468206 471,574.363636 L471,546.909091 L457.808239,546.909091 C457.255954,546.909091 456.808239,547.356806 456.808239,547.909091 L456.808239,549.181818 C456.808239,551.943242 454.569662,554.181818 451.808239,554.181818 L431.103693,554.181818 C428.342269,554.181818 426.103693,551.943242 426.103693,549.181818 L426.103693,547.909091 C426.103693,547.356806 425.655978,546.909091 425.103693,546.909091 Z M455.794975,527 L426.205025,527 L411.739,544.909 L425.103693,544.909091 C426.760547,544.909091 428.103693,546.252237 428.103693,547.909091 L428.103693,549.181818 C428.103693,550.838672 429.446839,552.181818 431.103693,552.181818 L451.808239,552.181818 C453.465093,552.181818 454.808239,550.838672 454.808239,549.181818 L454.808239,547.909091 C454.808239,546.252237 456.151384,544.909091 457.808239,544.909091 L470.26,544.909 L455.794975,527 Z" id="empty_b"></path>
        </g>
    </g>
</svg>
