<?xml version="1.0" encoding="UTF-8"?>
<svg width="64px" height="53px" viewBox="0 0 64 53" version="1.1" xmlns="http://www.w3.org/2000/svg" xmlns:xlink="http://www.w3.org/1999/xlink">
    <!-- Generator: Sketch 63.1 (92452) - https://sketch.com -->
    <title>empty_slice</title>
    <desc>Created with Sketch.</desc>
    <g id="页面-1" stroke="none" stroke-width="1" fill="none" fill-rule="evenodd">
        <g id="画板" transform="translate(-877.000000, -523.000000)" fill="#BFC7D1" fill-rule="nonzero">
            <path d="M924.750479,523 L940.323396,542.280754 C940.473153,542.466168 940.545808,542.688823 940.545487,542.909936 L941,542.909091 L941,572.363636 C941,574.572775 939.209139,576.363636 937,576.363636 L881,576.363636 C878.790861,576.363636 877,574.572775 877,572.363636 L877,542.909091 L877.454513,542.909936 C877.454192,542.688823 877.526847,542.466168 877.676604,542.280754 L877.676604,542.280754 L893.249521,523 L924.750479,523 Z M893.103693,544.909091 L879,544.909091 L879,572.363636 C879,573.468206 879.895431,574.363636 881,574.363636 L937,574.363636 C938.104569,574.363636 939,573.468206 939,572.363636 L939,544.909091 L925.808239,544.909091 C925.255954,544.909091 924.808239,545.356806 924.808239,545.909091 L924.808239,547.181818 C924.808239,549.943242 922.569662,552.181818 919.808239,552.181818 L899.103693,552.181818 C896.342269,552.181818 894.103693,549.943242 894.103693,547.181818 L894.103693,545.909091 C894.103693,545.356806 893.655978,544.909091 893.103693,544.909091 Z M923.794975,525 L894.205025,525 L879.739,542.909 L893.103693,542.909091 C894.760547,542.909091 896.103693,544.252237 896.103693,545.909091 L896.103693,547.181818 C896.103693,548.838672 897.446839,550.181818 899.103693,550.181818 L919.808239,550.181818 C921.465093,550.181818 922.808239,548.838672 922.808239,547.181818 L922.808239,545.909091 C922.808239,544.252237 924.151384,542.909091 925.808239,542.909091 L938.26,542.909 L923.794975,525 Z" id="empty"></path>
        </g>
    </g>
</svg>
