<?xml version="1.0" encoding="UTF-8"?>
<svg width="208px" height="200px" viewBox="0 0 208 200" version="1.1" xmlns="http://www.w3.org/2000/svg" xmlns:xlink="http://www.w3.org/1999/xlink">
    <title>menu-bg</title>
    <defs>
        <linearGradient x1="50%" y1="0%" x2="50%" y2="100%" id="linearGradient-1">
            <stop stop-color="#738FBA" stop-opacity="0.3" offset="0%"></stop>
            <stop stop-color="#87B0E1" offset="100%"></stop>
        </linearGradient>
        <linearGradient x1="50%" y1="87.2330898%" x2="50%" y2="-25.776653%" id="linearGradient-2">
            <stop stop-color="#061A30" offset="0%"></stop>
            <stop stop-color="#0F2539" stop-opacity="0.2" offset="100%"></stop>
        </linearGradient>
        <linearGradient x1="50%" y1="0%" x2="50%" y2="100%" id="linearGradient-3">
            <stop stop-color="#537481" stop-opacity="0.2" offset="0%"></stop>
            <stop stop-color="#3D5466" offset="100%"></stop>
        </linearGradient>
        <path d="M194.840415,57.7248879 C209.534297,57.7248879 220.593788,60.941617 228.018888,67.3677479 C235.446431,73.7987638 239.344608,82.3791506 239.718306,93.111351 L239.718306,93.111351 L216.082552,94.146957 C215.068928,88.1433729 212.900017,83.8275336 209.573377,81.1969966 C206.246737,78.5664595 201.254334,77.2499698 194.601054,77.2499698 C187.732836,77.2499698 182.354524,78.6592733 178.471001,81.4754378 C175.967472,83.2828634 174.716929,85.6984634 174.716929,88.7271226 C174.716929,91.4895528 175.886871,93.8563034 178.231639,95.820047 C181.211449,98.3186908 188.450921,100.919918 199.950057,103.631057 C211.449192,106.339753 219.953862,109.143705 225.464068,112.038028 C230.974273,114.934794 235.285228,118.891591 238.399373,123.913303 C241.513519,128.935016 243.071813,135.138882 243.071813,142.52246 C243.071813,149.21482 241.20821,155.487075 237.481006,161.329457 C233.756243,167.17428 228.485399,171.519429 221.670916,174.360018 C214.856433,177.20305 206.366418,178.624566 196.198427,178.624566 C181.397077,178.624566 170.032277,175.209997 162.099144,168.383302 C154.168454,161.556606 149.430067,151.608438 147.886428,138.536354 L147.886428,138.536354 L170.884698,136.306381 C172.269577,144.009923 175.075972,149.669119 179.308767,153.281528 C183.541563,156.893936 189.252051,158.69892 196.437789,158.69892 C204.048516,158.69892 209.785871,157.094219 213.647412,153.87749 C217.50651,150.665645 219.436059,146.904246 219.436059,142.600619 C219.436059,139.840631 218.622717,137.488535 217.000919,135.549217 C215.374236,133.609898 212.540974,131.922153 208.496249,130.488425 C205.726491,129.530978 199.417599,127.831021 189.569571,125.386111 C176.900495,122.252426 168.009914,118.400655 162.900273,113.830799 C155.712093,107.402226 152.119224,99.564349 152.119224,90.3220536 C152.119224,84.3722038 153.806968,78.8058213 157.189785,73.6253486 C160.57016,68.4448759 165.440439,64.5002916 171.803066,61.7891531 C178.16325,59.0804571 185.842367,57.7248879 194.840415,57.7248879 Z M92.0149937,57.7248879 C109.263696,57.7248879 123.063635,63.0665634 133.419696,73.7450295 C143.770871,84.4234956 148.948901,99.2761379 148.948901,118.295629 C148.948901,137.15636 143.812393,151.913746 133.539377,162.565345 C123.263918,173.219386 109.529925,178.543965 92.3349569,178.543965 C74.9250515,178.543965 61.0835906,173.243811 50.810574,162.645946 C40.535115,152.045639 35.3986067,137.449456 35.3986067,118.852512 C35.3986067,106.950369 37.1816077,96.9631216 40.7476096,88.8858829 C43.4098988,82.9360331 47.0442898,77.5968001 51.6483402,72.8681838 C56.2523907,68.1395675 61.2960852,64.6321848 66.7818663,62.3484781 C74.0726305,59.2660846 82.4844871,57.7248879 92.0149937,57.7248879 Z M92.2934349,77.8886749 C82.5504338,77.8886749 74.6979021,81.2226425 68.7358399,87.8881351 C62.7737778,94.5585127 59.7939679,104.611707 59.7939679,118.055046 C59.7939679,131.283448 62.8543792,141.312218 68.9752017,148.138913 C75.0960242,154.968051 82.8703969,158.380178 92.2934349,158.380178 C101.716473,158.380178 109.446881,154.992476 115.489545,148.219515 C121.532208,141.444111 124.55354,131.283448 124.55354,117.735083 C124.55354,104.345478 121.610367,94.3582304 115.728907,87.7708967 C109.847446,81.1811205 102.033994,77.8886749 92.2934349,77.8886749 Z" id="path-4"></path>
        <filter x="-6.3%" y="-12.4%" width="112.5%" height="121.5%" filterUnits="objectBoundingBox" id="filter-5">
            <feOffset dx="0" dy="-2" in="SourceAlpha" result="shadowOffsetOuter1"></feOffset>
            <feGaussianBlur stdDeviation="4" in="shadowOffsetOuter1" result="shadowBlurOuter1"></feGaussianBlur>
            <feColorMatrix values="0 0 0 0 0   0 0 0 0 0.196237807   0 0 0 0 0.42504529  0 0 0 0.5 0" type="matrix" in="shadowBlurOuter1"></feColorMatrix>
        </filter>
        <filter x="-8.9%" y="-17.0%" width="117.8%" height="130.6%" filterUnits="objectBoundingBox" id="filter-6">
            <feGaussianBlur stdDeviation="10" in="SourceAlpha" result="shadowBlurInner1"></feGaussianBlur>
            <feOffset dx="0" dy="1" in="shadowBlurInner1" result="shadowOffsetInner1"></feOffset>
            <feComposite in="shadowOffsetInner1" in2="SourceAlpha" operator="arithmetic" k2="-1" k3="1" result="shadowInnerInner1"></feComposite>
            <feColorMatrix values="0 0 0 0 1   0 0 0 0 1   0 0 0 0 1  0 0 0 0.5 0" type="matrix" in="shadowInnerInner1"></feColorMatrix>
        </filter>
    </defs>
    <g id="数据治理" stroke="none" stroke-width="1" fill="none" fill-rule="evenodd">
        <g id="标准管理" transform="translate(0.000000, -820.000000)">
            <g id="menu-bg" transform="translate(-1.000000, 48.000000)">
                <g id="编组" transform="translate(0.273555, 0.000000)">
                    <g id="编组-2" transform="translate(-67.000000, 772.000000)">
                        <path d="M250.231988,200.947939 L249.537706,200.965939 C248.799711,200.981368 248.059144,200.981368 247.321148,200.965939 L92.7303234,200.965939 C92.1337554,200.971082 91.5397588,200.971082 90.9457622,200.965939 L87.4872107,200.965939 L87.4872107,200.883654 C65.4553375,199.847374 43.7243197,190.950283 26.8995594,174.184665 C-8.96651981,138.449728 -8.96651981,80.5106325 26.8995594,44.7731239 C62.6627821,9.14104335 120.578734,9.04847245 156.465385,44.4799828 C183.105232,25.5955201 220.303303,28.0357917 244.194309,51.8316547 C257.241662,64.8301514 263.883624,81.7809109 264.151051,98.8139557 C271.978434,101.254227 279.348106,105.55106 285.550356,111.727596 C306.052238,132.147192 306.052238,165.256716 285.550356,185.676313 C275.758413,195.429685 263.0582,200.51337 250.231988,200.947939 Z" id="路径" fill="url(#linearGradient-1)" opacity="0.2"></path>
                        <path d="M68.9361222,157.466075 C62.8152997,150.63938 59.7548885,140.61061 59.7548885,127.382208 C59.7548885,113.938869 62.7346983,103.885675 68.6967605,97.2152971 C74.6588226,90.5498044 82.5113543,87.2158368 92.2543555,87.2158368 C101.994914,87.2158368 109.808366,90.5082825 115.689827,97.0980586 C121.571288,103.685392 124.514461,113.67264 124.514461,127.062245 C124.514461,140.61061 121.493129,150.771273 115.450465,157.546676 C109.407802,164.319638 101.677393,167.70734 92.2543555,167.70734 C82.8313175,167.70734 75.0569447,164.295213 68.9361222,157.466075 Z M194.601054,86.5759105 C201.254334,86.5759105 206.246737,87.8924002 209.573377,90.5229373 C212.900017,93.1534743 215.068928,97.4693136 216.082552,103.472898 L239.718306,102.437292 C239.344608,91.7050913 235.446431,83.1247045 228.018888,76.6936886 C220.593788,70.2675577 209.534297,67.0508286 194.840415,67.0508286 C185.842367,67.0508286 178.16325,68.4063978 171.803066,71.1150938 C165.440439,73.8262323 160.57016,77.7708166 157.189785,82.9512893 C153.806968,88.131762 152.119224,93.6981445 152.119224,99.6479943 C152.119224,108.89029 155.712093,116.728167 162.900273,123.15674 C168.009914,127.726596 176.900495,131.578366 189.569571,134.712052 C199.417599,137.156961 205.726491,138.856918 208.496249,139.814365 C212.540974,141.248094 215.374236,142.935838 217.000919,144.875157 C218.622717,146.814476 219.436059,149.166572 219.436059,151.92656 C219.436059,156.230187 217.50651,159.991586 213.647412,163.20343 C209.785871,166.420159 204.048516,168.02486 196.437789,168.02486 C189.252051,168.02486 183.541563,166.219877 179.308767,162.607468 C175.075972,158.995059 172.269577,153.335863 170.884698,145.632322 L147.886428,147.862294 C149.430067,160.934378 154.168454,170.882547 162.099144,177.709242 C170.032277,184.535938 181.397077,187.950507 196.198427,187.950507 C206.366418,187.950507 214.856433,186.528991 221.670916,183.685959 C228.485399,180.84537 233.756243,176.500221 237.481006,170.655397 C241.20821,164.813016 243.071813,158.540761 243.071813,151.848401 C243.071813,144.464823 241.513519,138.260956 238.399373,133.239244 C235.285228,128.217532 230.974273,124.260735 225.464068,121.363969 C219.953862,118.469646 211.449192,115.665693 199.950057,112.956997 C188.450921,110.245859 181.211449,107.644632 178.231639,105.145988 C175.886871,103.182244 174.716929,100.815494 174.716929,98.0530633 C174.716929,95.0244041 175.967472,92.6088041 178.471001,90.8013785 C182.354524,87.985214 187.732836,86.5759105 194.601054,86.5759105 Z M92.0149937,67.0508286 C82.4844871,67.0508286 74.0726305,68.5920253 66.7818663,71.6744188 C61.2960852,73.9581255 56.2523907,77.4655082 51.6483402,82.1941245 C47.0442898,86.9227408 43.4098988,92.2619738 40.7476096,98.2118236 C37.1816077,106.289062 35.3986067,116.27631 35.3986067,128.178452 C35.3986067,146.775397 40.535115,161.37158 50.810574,171.971887 C61.0835906,182.569752 74.9250515,187.869905 92.3349569,187.869905 C109.529925,187.869905 123.263918,182.545327 133.539377,171.891286 C143.812393,161.239687 148.948901,146.482301 148.948901,127.62157 C148.948901,108.602079 143.770871,93.7494363 133.419696,83.0709702 C123.063635,72.3925041 109.263696,67.0508286 92.0149937,67.0508286 Z" id="Fill-3" fill="url(#linearGradient-2)" fill-rule="nonzero" opacity="0.2"></path>
                        <g id="形状结合" opacity="0.15">
                            <use fill="black" fill-opacity="1" filter="url(#filter-5)" xlink:href="#path-4"></use>
                            <use fill="url(#linearGradient-3)" fill-rule="evenodd" xlink:href="#path-4"></use>
                            <use fill="black" fill-opacity="1" filter="url(#filter-6)" xlink:href="#path-4"></use>
                        </g>
                    </g>
                </g>
            </g>
        </g>
    </g>
</svg>