<?xml version="1.0" standalone="no"?><!DOCTYPE svg PUBLIC "-//W3C//DTD SVG 1.1//EN" "http://www.w3.org/Graphics/SVG/1.1/DTD/svg11.dtd"><svg t="1605688918263" class="icon" viewBox="0 0 1024 1024" version="1.1" xmlns="http://www.w3.org/2000/svg" p-id="1224" xmlns:xlink="http://www.w3.org/1999/xlink" width="200" height="200"><defs><style type="text/css"></style></defs><path d="M833.90359 354.986667c32.557949-31.507692 40.96-36.758974 68.266666-36.758975 7.351795 0 42.010256 2.100513 50.412308 3.15077 34.658462 4.201026 49.362051 47.261538 49.362051 141.784615 0 81.92-11.552821 147.035897-33.608205 185.895385-7.351795 12.603077-19.954872 16.804103-49.362051 16.804102-21.005128 0-51.462564-3.150769-58.814359-6.301538-9.452308-3.150769-17.854359-9.452308-29.407179-21.005129-24.155897 9.452308-32.557949 13.653333-63.015385 32.557949-90.322051 54.613333-117.628718 65.115897-166.990769 65.115898-7.351795 0-24.155897-1.050256-43.060513-2.100513-26.25641 8.402051-42.010256 11.552821-52.512821 11.55282-30.457436 0-58.814359-23.105641-58.814359-48.311795 0-4.201026 0-7.351795 2.100513-13.653333-10.502564 4.201026-17.854359 5.251282-23.105641 5.251282-34.658462 0-65.115897-32.557949-65.115897-69.316923 0-7.351795 2.100513-14.70359 6.301538-28.356923-36.758974-2.100513-61.965128-28.356923-61.965128-64.065641 0-16.804103 4.201026-29.407179 15.753846-48.311795H202.699487c-94.523077 0-129.181538-5.251282-153.337436-24.155897-11.552821-8.402051-17.854359-22.055385-17.854359-35.708718 0-29.407179 19.954872-48.311795 60.914872-56.713846 24.155897-4.201026 35.708718-5.251282 157.538462-12.603077 56.713846-3.150769 80.869744-6.301538 138.633846-15.753847 29.407179-34.658462 55.66359-55.66359 78.769231-60.914871 43.060513-9.452308 43.060513-9.452308 67.21641-15.753846 30.457436-7.351795 38.859487-8.402051 59.864615-8.402052 32.557949 0 64.065641 6.301538 92.422564 19.954872 31.507692 13.653333 85.070769 46.211282 107.126154 65.115897 18.904615 16.804103 25.206154 19.954872 39.909744 21.005129z m-544.032821 94.523077h43.060513c1.050256-15.753846 3.150769-25.206154 11.552821-45.161026 0-2.100513 8.402051-13.653333 23.105641-37.809231-45.161026 5.251282-159.638974 14.70359-247.860513 19.954872-37.809231 3.150769-58.814359 14.70359-58.814359 33.608205 0 8.402051 11.552821 18.904615 23.105641 22.055385 17.854359 5.251282 69.316923 7.351795 205.850256 7.351795z m423.253334 219.503589l49.362051-28.356923c50.412308-25.206154 50.412308-25.206154 68.266667-35.708718 14.70359-18.904615 18.904615-29.407179 23.105641-56.713846 3.150769-15.753846 5.251282-38.859487 5.251282-50.412308 0-13.653333-2.100513-63.015385-3.15077-75.618461-2.100513-15.753846-3.150769-19.954872-11.55282-37.809231-4.201026 1.050256-7.351795 2.100513-8.402051 2.100513-16.804103 0-31.507692-7.351795-55.66359-26.25641-33.608205-25.206154-88.221538-57.764103-118.678975-70.36718-22.055385-8.402051-44.110769-12.603077-66.166153-12.603077-28.356923 0-112.377436 21.005128-136.533334 33.608205-24.155897 12.603077-50.412308 43.060513-77.718974 91.372308-13.653333 22.055385-18.904615 35.708718-18.904615 43.060513 0 12.603077 12.603077 21.005128 31.507692 21.005128 28.356923 0 52.512821-14.70359 73.517949-44.110769 7.351795-11.552821 7.351795-11.552821 26.25641-17.854359 24.155897-9.452308 24.155897-9.452308 35.708718-12.603077 21.005128 25.206154 43.060513 45.161026 77.718974 67.21641 27.306667 17.854359 55.66359 25.206154 98.724103 25.206154 3.150769 0 3.150769 0 33.608205-3.150769h4.201025c8.402051 0 13.653333 4.201026 13.653334 11.55282 0 11.552821-17.854359 19.954872-43.060513 19.954872-18.904615 0-63.015385-6.301538-78.769231-10.502564-13.653333-4.201026-18.904615-7.351795-65.115897-31.507692-2.100513 9.452308-3.150769 12.603077-7.351795 19.954872 33.608205 4.201026 53.563077 23.105641 53.563077 51.462564 0 5.251282-1.050256 9.452308-2.100513 17.854359 15.753846 0 24.155897 4.201026 37.809231 16.804102 9.452308 8.402051 13.653333 21.005128 13.653333 38.859487 0 29.407179-19.954872 57.764103-66.166154 94.523077 37.809231-3.150769 72.467692-15.753846 113.427693-40.96z m-359.187693-183.794871c-14.70359 16.804103-21.005128 29.407179-21.005128 42.010256 0 19.954872 18.904615 37.809231 38.859487 37.809231 7.351795 0 18.904615-3.150769 46.211282-12.603077 18.904615-6.301538 18.904615-6.301538 46.211282-21.005128 42.010256-23.105641 51.462564-28.356923 59.864616-35.708718 12.603077-12.603077 19.954872-25.206154 19.954872-36.758975 0-13.653333-18.904615-31.507692-33.608206-31.507692-8.402051 0-12.603077 3.150769-22.055384 16.804103-14.70359 19.954872-33.608205 35.708718-51.462564 42.010256-14.70359 5.251282-32.557949 8.402051-46.211282 8.402051-12.603077 0-12.603077 0-36.758975-9.452307z m235.257436 63.015384c0-15.753846-14.70359-30.457436-31.507692-30.457436-10.502564 0-16.804103 2.100513-36.758975 14.70359-12.603077 7.351795-70.367179 37.809231-86.121025 44.110769-24.155897 11.552821-24.155897 11.552821-31.507692 19.954872-8.402051 8.402051-12.603077 17.854359-12.603077 26.25641 0 17.854359 16.804103 34.658462 34.658461 34.658462s46.211282-12.603077 93.472821-40.96c51.462564-30.457436 70.367179-49.362051 70.367179-68.266667z m48.311795 65.115898c0-12.603077-11.552821-23.105641-26.25641-23.105641-6.301538 0-10.502564 2.100513-18.904616 10.502564-10.502564 10.502564-27.306667 22.055385-49.362051 35.708718-47.261538 28.356923-48.311795 28.356923-57.764102 38.859487-7.351795 6.301538-10.502564 12.603077-10.502565 18.904615 0 13.653333 15.753846 24.155897 34.658462 24.155898 27.306667 0 57.764103-16.804103 93.47282-49.362052 21.005128-18.904615 34.658462-40.96 34.658462-55.663589z m233.156923-251.011282c0 2.100513 1.050256 5.251282 2.100513 8.402051 11.552821 27.306667 15.753846 57.764103 15.753846 108.17641 0 48.311795-6.301538 90.322051-17.854359 116.578462-7.351795 17.854359-9.452308 23.105641-9.452308 26.25641 0 10.502564 11.552821 12.603077 60.914872 12.603077 21.005128 0 24.155897-3.150769 32.557949-24.155898 14.70359-42.010256 19.954872-78.769231 19.954872-140.734359 0-50.412308-4.201026-88.221538-10.502564-105.025641-5.251282-12.603077-12.603077-15.753846-34.658462-15.753846h-21.005128c-6.301538-1.050256-9.452308-1.050256-13.653333-1.050256-11.552821 0-24.155897 7.351795-24.155898 14.70359z" fill="#7F8FA4" p-id="1225"></path></svg>