<?xml version="1.0" encoding="UTF-8"?>
<svg width="79px" height="88px" viewBox="0 0 79 88" version="1.1" xmlns="http://www.w3.org/2000/svg" xmlns:xlink="http://www.w3.org/1999/xlink">
    <title>编组 35备份 9</title>
    <defs>
        <linearGradient x1="69.9747546%" y1="63.9700768%" x2="63.8070403%" y2="63.9700768%" id="linearGradient-1">
            <stop stop-color="#B7C8D6" offset="0%"></stop>
            <stop stop-color="#DAE2EB" offset="100%"></stop>
        </linearGradient>
    </defs>
    <g id="首页" stroke="none" stroke-width="1" fill="none" fill-rule="evenodd">
        <g id="首页备份" transform="translate(-948.000000, -105.000000)">
            <g id="编组-35备份-9" transform="translate(948.719780, 105.026603)">
                <path d="M2.82079467,32.4049489 L2.79681228,35.2410185 C2.78767289,36.3218099 3.36061161,37.3239679 4.29662022,37.8644135 L47.3242493,62.7082995 C49.1806814,63.7801918 51.4679519,63.7802292 53.3244189,62.7083974 L70.3390306,52.8850068 C71.233263,52.3687215 71.799138,51.4288439 71.8370119,50.3969681 L71.9636486,46.9467392 L71.9636486,46.9467392 L51.2394024,36.0044209 L56.8528497,31.727197 L56.7435066,28.3447944 L44.5560219,31.2841121 L29.0676343,21.70549 C27.2449776,20.5782881 24.959495,20.5087985 23.0717237,21.5231855 L2.82079467,32.4049489 L2.82079467,32.4049489 Z" id="Fill-6163" fill="url(#linearGradient-1)" transform="translate(37.372836, 42.162244) rotate(-240.000000) translate(-37.372836, -42.162244) "></path>
                <path d="M6.54910527,38.5190048 L49.6168254,63.51622 C51.4750273,64.594751 53.7680884,64.5973821 55.6287604,63.5231181 L72.6728372,53.6826748 C74.1077136,52.8542451 74.5993357,51.019473 73.770906,49.5845966 C73.5010434,49.1171829 73.110082,48.7312281 72.6392292,48.4674118 L52.4689184,37.1660994 L52.4689184,37.1660994 L59.022384,32.2990263 L43.6333425,32.0648212 L29.7287399,23.5631969 C27.8537757,22.4167965 25.5020904,22.3871902 23.59886,23.4860254 L6.5550634,33.3263069 C5.12018703,34.1547366 4.62856487,35.9895087 5.45699458,37.4243851 C5.71913136,37.8784174 6.0956757,38.2558268 6.54910527,38.5190048 Z" id="Fill-6163备份" fill="#FFFFFF" transform="translate(39.653763, 43.481505) rotate(-240.000000) translate(-39.653763, -43.481505) "></path>
                <path d="M34.0785973,42.5588837 L34.0785973,40.6520754 L26.7952763,45.0354414 L26.7952763,46.9422498 L34.0785973,42.5588837 Z M26.9034445,57.9815048 C28.5800505,55.6778893 29.4619213,52.8197197 29.5490567,49.4069961 L30.8425673,48.6285146 L30.8425673,53.2693497 C30.8425673,54.6807617 31.3203099,55.098945 32.2757951,54.5238994 L33.1501541,53.9976785 C33.5047052,53.7936439 33.8059234,53.513047 34.0538088,53.1558877 C34.3016941,52.7987284 34.4774673,52.310879 34.5811284,51.6923395 C34.6847895,51.0738001 34.7937088,50.2838483 34.9078863,49.3224841 C34.6254473,49.3522596 34.2047934,49.3717468 33.6459247,49.3809457 C33.55278,50.638106 33.4671469,51.4082014 33.3890254,51.6912319 C33.310904,51.9742625 33.1802008,52.1709315 32.9969159,52.281239 L32.6994536,52.4602626 C32.3328838,52.6808776 32.1495989,52.4546895 32.1495989,51.7816983 L32.1495989,47.8418957 L34.8177462,46.2361082 L34.8177462,44.3012585 L26.0561274,49.5743177 L26.0561274,51.5091673 L28.2645601,50.1800526 C28.192448,52.7004337 27.4202478,54.9411208 25.9479593,56.9021137 C26.3565944,57.3385206 26.6750895,57.6983176 26.9034445,57.9815048 Z M40.2892509,49.9815248 C40.9442691,49.0264852 41.5196634,47.9464447 42.015434,46.7414033 C42.4000319,47.2904213 42.8552394,47.680105 43.3810567,47.9104544 C43.6875331,46.8660727 43.9489394,46.0871668 44.1652757,45.5737367 C43.606407,45.4053407 43.1346738,45.0886957 42.7500759,44.6238016 C43.296926,42.701007 43.6349514,40.4622401 43.7641522,37.9075009 L44.1292196,37.6877901 L44.1292196,35.9772709 L41.8712099,37.3362228 C42.00642,36.5958779 42.1341185,35.827339 42.2543053,35.030606 L41.0193858,35.5915568 C40.66183,38.0593978 40.2366692,40.1519801 39.7439033,41.8693037 C39.4073802,41.7680547 39.0513267,41.6738862 38.6757429,41.5867983 L38.3692666,42.4161968 L38.3692666,41.4347513 L39.9467185,40.4853836 L39.9467185,39.0552774 L39.4239059,39.3699249 C39.7213682,38.6300753 39.9707559,37.9331795 40.1720688,37.2792374 L39.3247517,37.0040271 C39.1204342,37.6691246 38.8680418,38.3771758 38.5675748,39.1281809 L39.3157377,39.4350244 L38.3692666,40.004645 L38.3692666,37.2565977 L37.2244872,37.9455673 L37.2244872,40.6936147 L36.2149179,41.30121 L37.0261789,40.0558487 C36.7076838,39.5091096 36.4552915,39.1188767 36.269002,38.8851498 L35.457741,40.1585524 C35.7251566,40.5631115 35.9384882,40.9675055 36.0977358,41.3717344 L35.3946429,41.7948812 L35.3946429,43.2249874 L36.7422376,42.4139562 C36.2614903,43.3155223 35.722152,44.1261648 35.1242226,44.8458837 C35.2804654,45.2472474 35.4216849,45.7230824 35.5478811,46.2733887 C36.2209272,45.2420694 36.7797959,44.2280573 37.2244872,43.2313523 L37.2244872,44.5773346 L36.7377306,44.8001791 C36.6656185,45.2127892 36.5799854,45.6335368 36.4808312,46.0624217 L35.2954888,46.7758037 L35.2954888,48.20591 L36.0346377,47.7610634 C35.8723855,48.3213941 35.6891006,48.894383 35.484783,49.4800302 C35.9475022,49.4959826 36.3861841,49.5217281 36.8008286,49.5572666 C36.323086,50.1345495 35.7702267,50.6635693 35.1422506,51.1443261 C35.3525775,51.6533466 35.511825,52.1323523 35.6199932,52.5813433 C36.5364176,51.7400458 37.3236413,50.7802169 37.9816641,49.7018567 C38.4083273,49.7768974 38.8019391,49.8671561 39.1624995,49.9726327 L39.4824969,48.9528284 C39.7769546,49.2476416 40.0458726,49.5905404 40.2892509,49.9815248 Z M42.0199411,43.2615697 C41.719474,42.3955265 41.5091471,41.2205252 41.3889603,39.7365659 C41.4250163,39.5840066 41.4580677,39.430919 41.4881144,39.2773028 L42.6599358,38.5720583 C42.5908284,40.2587392 42.3774968,41.8219097 42.0199411,43.2615697 Z M39.8024943,47.9470447 L38.9056002,47.9330123 C39.2571467,47.1325717 39.550102,46.2809326 39.7844663,45.3780951 L39.7844663,44.0741746 L37.6842017,45.3381899 C37.7683325,45.0398588 37.8449516,44.7553956 37.914059,44.4848003 L38.3692666,44.2108399 L38.3692666,43.1452705 C38.8019391,43.2867978 39.2045649,43.4417348 39.577144,43.6100814 L39.8430574,42.8261262 C40.0263423,43.1130705 40.1870921,43.4018933 40.325307,43.6925946 C40.4334751,43.3564292 40.5401409,43.0094841 40.6453044,42.6517592 C40.8015472,43.7214406 41.0268975,44.6373653 41.3213552,45.3995336 C40.8526266,46.536891 40.2862463,47.5741181 39.6222141,48.5112149 L39.8024943,47.9470447 Z M36.9270248,47.9530664 L37.1929381,47.0639563 L38.5315188,46.2583501 C38.3572479,46.8492818 38.1349023,47.4083904 37.8644819,47.9356761 L36.9270248,47.9530664 Z M44.7331584,47.124752 C45.0276161,46.966231 45.3340925,46.7677617 45.6525875,46.5293444 C46.1994375,46.172189 46.4728625,45.4748472 46.4728625,44.4373191 L46.4728625,40.5956611 C46.7312642,40.3373276 46.9926705,40.0771857 47.2570815,39.8152355 C47.2510722,39.3514972 47.2630908,38.7367024 47.2931375,37.9708512 C47.0046892,38.2566151 46.7312642,38.5193167 46.4728625,38.758956 L46.4728625,36.7960651 L47.2480675,36.3295187 L47.2480675,34.5348755 L46.4728625,35.0014219 L46.4728625,32.5197669 L45.3821672,33.1761869 L45.3821672,35.6578418 L44.5258361,36.1732129 L44.5258361,37.967856 L45.3821672,37.452485 L45.3821672,39.7939335 C45.0095881,40.1396774 44.6880883,40.4359857 44.417668,40.6828583 L44.5168221,42.5580334 C44.8052705,42.2722696 45.0937188,41.9818322 45.3821672,41.6867212 L45.3821672,44.2665207 C45.3821672,44.7245286 45.2800084,45.0103419 45.0756908,45.1239605 C44.8713732,45.2375791 44.6700603,45.3493894 44.4717521,45.4593914 C44.5859295,46.0543193 44.673065,46.6094395 44.7331584,47.124752 Z M49.7449486,44.2486819 L49.7449486,43.5476494 L51.755073,42.3378838 L51.755073,43.0389163 L52.8187263,42.3987712 L52.8187263,37.365358 L51.3043725,38.2767509 L51.3043725,37.0990164 L53.359567,35.8621259 L53.359567,34.3899577 L51.3043725,35.6268482 L51.3043725,34.3790103 L52.9809785,33.3699682 L52.9809785,28.9815048 L47.5275018,32.2636044 L47.5275018,37.3811415 C47.5275018,40.1852714 47.2270348,42.5860396 46.6261007,44.5834459 C46.9145491,44.8491609 47.1849694,45.1631143 47.4373617,45.5253059 C48.0983892,43.6225926 48.482987,41.3581336 48.5911551,38.7319287 L50.1686071,37.7825611 L50.1686071,38.9602956 L48.6812952,39.8554137 L48.6812952,44.8888269 L49.7449486,44.2486819 Z M51.8722552,32.5650698 L48.6272112,34.5180546 L48.6272112,33.0739277 L51.8722552,31.1209429 L51.8722552,32.5650698 Z M50.1686071,36.3103929 L48.6272112,37.2380607 L48.6272112,35.9902229 L50.1686071,35.062555 L50.1686071,36.3103929 Z M51.755073,40.8657156 L49.7449486,42.0754812 L49.7449486,40.6874369 L51.755073,39.4776713 L51.755073,40.8657156 Z" id="元数据" fill="#0F71E2" fill-rule="nonzero"></path>
            </g>
        </g>
    </g>
</svg>