<?xml version="1.0" encoding="UTF-8"?>
<svg width="79px" height="88px" viewBox="0 0 79 88" version="1.1" xmlns="http://www.w3.org/2000/svg" xmlns:xlink="http://www.w3.org/1999/xlink">
    <title>编组 35备份</title>
    <defs>
        <linearGradient x1="69.9747546%" y1="63.9700768%" x2="63.8070403%" y2="63.9700768%" id="linearGradient-1">
            <stop stop-color="#B7C8D6" offset="0%"></stop>
            <stop stop-color="#DAE2EB" offset="100%"></stop>
        </linearGradient>
    </defs>
    <g id="首页" stroke="none" stroke-width="1" fill="none" fill-rule="evenodd">
        <g id="首页备份" transform="translate(-795.000000, -334.000000)">
            <g id="编组-35备份" transform="translate(795.352092, 334.355229)">
                <path d="M2.82079467,32.4049489 L2.79681228,35.2410185 C2.78767289,36.3218099 3.36061161,37.3239679 4.29662022,37.8644135 L47.3242493,62.7082995 C49.1806814,63.7801918 51.4679519,63.7802292 53.3244189,62.7083974 L70.3390306,52.8850068 C71.233263,52.3687215 71.799138,51.4288439 71.8370119,50.3969681 L71.9636486,46.9467392 L71.9636486,46.9467392 L51.2394024,36.0044209 L56.8528497,31.727197 L56.7435066,28.3447944 L44.5560219,31.2841121 L29.0676343,21.70549 C27.2449776,20.5782881 24.959495,20.5087985 23.0717237,21.5231855 L2.82079467,32.4049489 L2.82079467,32.4049489 Z" id="Fill-6163" fill="url(#linearGradient-1)" transform="translate(37.372836, 42.162244) rotate(-240.000000) translate(-37.372836, -42.162244) "></path>
                <path d="M6.54910527,38.5190048 L49.6168254,63.51622 C51.4750273,64.594751 53.7680884,64.5973821 55.6287604,63.5231181 L72.6728372,53.6826748 C74.1077136,52.8542451 74.5993357,51.019473 73.770906,49.5845966 C73.5010434,49.1171829 73.110082,48.7312281 72.6392292,48.4674118 L52.4689184,37.1660994 L52.4689184,37.1660994 L59.022384,32.2990263 L43.6333425,32.0648212 L29.7287399,23.5631969 C27.8537757,22.4167965 25.5020904,22.3871902 23.59886,23.4860254 L6.5550634,33.3263069 C5.12018703,34.1547366 4.62856487,35.9895087 5.45699458,37.4243851 C5.71913136,37.8784174 6.0956757,38.2558268 6.54910527,38.5190048 Z" id="Fill-6163备份" fill="#FFFFFF" transform="translate(39.653763, 43.481505) rotate(-240.000000) translate(-39.653763, -43.481505) "></path>
                <path d="M25.958682,58.3158856 C26.6521189,57.3659496 27.2612618,56.2963896 27.7861108,55.1072059 C28.1932664,55.6316139 28.6751732,55.9986403 29.2318312,56.2082853 C29.5562834,55.1811554 29.8330219,54.4141809 30.0620469,53.9073619 C29.470399,53.7590706 28.9709972,53.4637365 28.5638416,53.0213598 C29.142766,51.1308228 29.5006176,48.9381206 29.6373964,46.4432531 L30.0238761,46.2186113 L30.0238761,44.5506425 L27.6334275,45.9400939 C27.7765681,45.2143151 27.9117565,44.4612575 28.0389926,43.6809211 L26.7316414,44.2630863 C26.353114,46.6797205 25.9030162,48.732356 25.3813481,50.420993 C25.0250869,50.3318463 24.6481499,50.2501601 24.250537,50.1759346 L23.9260849,50.9934291 L23.9260849,50.0363978 L25.596059,49.0657232 L25.596059,47.6711919 L25.0425819,47.9929012 C25.3574913,47.2629847 25.6215063,46.5763226 25.8346268,45.9329148 L24.9376121,45.6886807 C24.7213107,46.343052 24.4541148,47.0406777 24.1360245,47.7815576 L24.9280694,48.0594618 L23.9260849,48.6418666 L23.9260849,45.9621791 L22.7141609,46.6666115 L22.7141609,49.346299 L21.6453774,49.9675307 L22.5042213,48.7300454 C22.1670455,48.2059771 21.8998497,47.8326393 21.7026337,47.6100317 L20.8437899,48.8748608 C21.1268902,49.2617406 21.3527344,49.6499997 21.5213222,50.039638 L20.7769909,50.4722815 L20.7769909,51.8668128 L22.2036259,51.0375793 C21.6946814,51.9304092 21.1237093,52.7362458 20.4907096,53.4550892 C20.6561166,53.8420191 20.805619,54.3019956 20.939217,54.8350187 C21.6517392,53.8101871 22.2433872,52.8054837 22.7141609,51.8209084 L22.7141609,53.1334084 L22.1988546,53.3645714 C22.1225129,53.7689712 22.0318572,54.181691 21.9268874,54.6027309 L20.6720211,55.3321235 L20.6720211,56.7266547 L21.4545233,56.2718244 C21.2827545,56.822837 21.0887194,57.3867921 20.872418,57.9636894 C21.3622771,57.9660676 21.8266889,57.9786797 22.2656535,58.0015257 C21.75989,58.5780535 21.1746038,59.1096581 20.509795,59.5963395 C20.7324583,60.0867079 20.9010461,60.5492628 21.0155586,60.9840044 C21.9857341,60.1375366 22.8191307,59.1791654 23.5157484,58.1088908 C23.9674367,58.1699141 24.384135,58.2467181 24.7658433,58.3393028 L25.1046095,57.3357539 C25.416338,57.6148477 25.7010288,57.9415583 25.958682,58.3158856 Z M27.7908822,51.7138075 C27.4727918,50.8778646 27.2501286,49.7380822 27.1228925,48.2944602 C27.1610633,48.1446692 27.1960533,47.9944484 27.2278623,47.8437979 L28.4684145,47.1227254 C28.3952537,48.7694168 28.1694096,50.2997775 27.7908822,51.7138075 Z M25.4433757,56.3458768 L24.4938761,56.3577356 C24.8660418,55.5671951 25.1761798,54.7283983 25.4242903,53.8413453 L25.4242903,52.5698609 L23.200839,53.8622448 C23.2899043,53.568939 23.3710174,53.2893701 23.4441781,53.023538 L23.9260849,52.7434291 L23.9260849,51.7043666 C24.384135,51.8300515 24.810376,51.9696681 25.204808,52.1232165 L25.4863179,51.3511901 C25.680353,51.6257767 25.8505313,51.9028369 25.9968528,52.1823707 C26.1113653,51.8514872 26.2242874,51.510135 26.335619,51.1583139 C26.501026,52.1969366 26.7395937,53.0836594 27.0513222,53.8184824 C26.5551013,54.9408958 25.9555011,55.9684507 25.2525215,56.901147 L25.4433757,56.3458768 Z M22.3992515,56.4336374 L22.6807614,55.5590719 L24.0978537,54.7353851 C23.9133613,55.3165799 23.6779745,55.8681123 23.3916932,56.3899824 L22.3992515,56.4336374 Z M30.6632376,55.4036222 C30.9749661,55.2406588 31.2994182,55.0383987 31.636594,54.7968419 C32.2155183,54.4329977 32.5049805,53.7452161 32.5049805,52.7334974 L32.5049805,48.9874036 C32.7785382,48.7281375 33.0552767,48.4670224 33.3351962,48.2040584 C33.3288344,47.7520271 33.341558,47.1521836 33.373367,46.4045278 C33.0680003,46.6913976 32.7785382,46.955351 32.5049805,47.196388 L32.5049805,45.2823255 L33.3256535,44.8053083 L33.3256535,43.0553083 L32.5049805,43.5323255 L32.5049805,41.1124036 L31.3503127,41.7835558 L31.3503127,44.2034777 L30.4437553,44.7304153 L30.4437553,46.4804153 L31.3503127,45.9534777 L31.3503127,48.2366808 C30.9558807,48.5844345 30.6155241,48.8825276 30.3292428,49.1309602 L30.4342126,50.9566652 C30.7395793,50.6697954 31.044946,50.3783683 31.3503127,50.0823839 L31.3503127,52.5980089 C31.3503127,53.0446235 31.242162,53.3262363 31.0258606,53.4428471 C30.8095592,53.559458 30.5964387,53.67422 30.3864991,53.7871331 C30.5073734,54.3640102 30.5996196,54.9028399 30.6632376,55.4036222 Z M35.9689839,52.456369 L35.9689839,51.7727753 L38.0970081,50.5358585 L38.0970081,51.2194522 L39.2230478,50.5649402 L39.2230478,45.6567371 L37.6198726,46.5885847 L37.6198726,45.4401472 L39.7956103,44.1754969 L39.7956103,42.73995 L37.6198726,44.0046003 L37.6198726,42.7878035 L39.3948165,41.756115 L39.3948165,37.4768181 L33.6214775,40.832579 L33.6214775,45.8228133 C33.6214775,48.5571883 33.3033872,50.9067923 32.6672065,52.8716252 C32.9725732,53.1225158 33.2588545,53.4209582 33.5260504,53.7669523 C34.225849,51.8927455 34.6330046,49.6736639 34.7475171,47.1097076 L36.4174913,46.1390329 L36.4174913,47.2874704 L34.8429442,48.2026779 L34.8429442,53.1108811 L35.9689839,52.456369 Z M38.2210633,41.0028137 L34.785688,42.9996301 L34.785688,41.591427 L38.2210633,39.5946106 L38.2210633,41.0028137 Z M36.4174913,44.7034861 L34.785688,45.6519738 L34.785688,44.435177 L36.4174913,43.4866892 L36.4174913,44.7034861 Z M38.0970081,49.1003116 L35.9689839,50.3372284 L35.9689839,48.9837128 L38.0970081,47.746796 L38.0970081,49.1003116 Z M40.5017708,49.8216808 C40.9693635,49.0166888 41.3733382,48.1689222 41.7136949,47.2783812 C41.9459008,47.4396351 42.3419232,47.5216211 42.9017621,47.524339 C43.4616011,47.5270568 44.2647791,47.2242711 45.3112962,46.6159817 L49.2906059,44.3030027 C49.386033,43.6368585 49.4910028,43.0016259 49.6055153,42.397305 L46.4850494,44.2726033 L46.4850494,43.4181111 L49.2333497,41.820658 L49.2333497,40.5765174 L46.4850494,42.1739704 L46.4850494,41.4356892 L48.9088976,40.0268243 L48.9088976,38.7690118 L46.4850494,40.1778767 L46.4850494,39.4532673 L48.9088976,38.0444025 L48.9088976,36.0619806 L49.4910028,35.7236311 L49.4910028,34.3290999 L48.9088976,34.6674493 L48.9088976,32.5346368 L46.4850494,33.9435017 L46.4850494,32.8497517 L45.2635827,33.5597308 L45.2635827,34.6534808 L43.5840659,35.6297022 L43.5840659,36.9695459 L45.2635827,35.9933246 L45.2635827,36.7862933 L43.087845,38.0509437 L43.087845,39.4454749 L45.2635827,38.1808246 L45.2635827,38.9737933 L43.5840659,39.9500147 L43.5840659,41.1394678 L45.2635827,40.1632465 L45.2635827,40.8878558 L43.4504679,41.9417311 L43.4504679,43.1995436 L45.2635827,42.1456683 L45.2635827,42.8839496 L43.1260158,44.1264131 L43.1260158,45.3705537 L45.2635827,44.1280902 L45.2635827,44.9894183 C43.8576235,45.8066339 42.8667722,45.9906404 42.2910288,45.5414379 C42.6345663,44.3118084 42.8747245,43.0055494 43.0115033,41.6226611 L43.0115033,39.9273486 L41.7327803,40.6706081 L42.9924179,37.4638327 L42.9924179,35.8915671 L40.2250322,37.5001136 L40.2250322,39.1680823 L41.5228407,38.4137295 L40.4158864,41.3266793 L40.4158864,43.1040231 L41.8472928,42.2720163 C41.7804938,42.9989943 41.6691622,43.7040054 41.513298,44.3870496 C41.3637955,44.0318908 41.2238358,43.6051046 41.0934188,43.1066909 L40.1105197,44.2932366 C40.330002,45.1910529 40.594017,45.898922 40.9025646,46.4168439 C40.6735396,47.0148087 40.4063437,47.5939448 40.100977,48.1542521 C40.2600222,48.6998277 40.3936201,49.2556373 40.5017708,49.8216808 Z M47.7828579,35.3219614 L46.4850494,36.0763142 L46.4850494,35.2833454 L47.7828579,34.5289926 L47.7828579,35.3219614 Z M47.7828579,37.5094614 L46.4850494,38.2638142 L46.4850494,37.4708454 L47.7828579,36.7164926 L47.7828579,37.5094614 Z M53.4035136,42.4182292 C54.7140457,41.082262 55.6110603,39.6630846 56.0945576,38.160697 C56.705291,39.0544054 57.5927629,39.4090038 58.7569735,39.2244925 C58.9796367,38.4297046 59.1895763,37.7197863 59.3867923,37.0947376 C58.4643304,37.4303989 57.7009136,37.4457505 57.0965421,37.1407922 L59.2722798,35.8761419 L59.2722798,34.54997 L56.6289493,36.0864093 C56.6543965,35.852868 56.673482,35.6093527 56.6862056,35.3558634 L58.9287422,34.052386 L58.9287422,29.1441829 L53.4321417,32.3390891 L53.4321417,35.6066672 C53.0822424,35.29963 52.6814486,34.9766023 52.2297604,34.6375841 L52.2297604,33.8582873 L53.1172323,33.3424431 L53.1172323,31.7291618 L52.2297604,32.245006 L52.2297604,29.5653185 L51.0464644,30.2531108 L51.0464644,32.9327983 L49.9395102,33.5762169 L49.9395102,35.1894982 L50.9319519,34.6126401 C50.6647561,36.0439897 50.3021331,37.4487752 49.8440831,38.8269965 C49.9840428,39.7847073 50.0858317,40.5595267 50.1494498,41.1514549 C50.4993491,40.08219 50.798354,38.9923774 51.0464644,37.8820171 L51.0464644,43.6652202 L52.2297604,42.9774279 L52.2297604,36.5243029 C52.3951673,36.7653995 52.5510316,37.0029282 52.6973531,37.236889 L53.4321417,35.7707297 L53.4321417,37.2472922 L55.4838242,36.0547491 C55.4711006,36.317353 55.4456534,36.5645661 55.4074825,36.7963884 L52.9168354,38.2440803 L52.9168354,39.5702521 L54.9494325,38.3888025 C54.5359151,39.3127537 53.7756793,40.2605012 52.668725,41.2320448 C52.9550063,41.5760601 53.1999358,41.9714549 53.4035136,42.4182292 Z M55.4074825,30.8627947 L55.4074825,30.0971697 L56.867517,29.2485227 L56.867517,30.0141477 L57.9935567,29.3596357 L57.9935567,28.5940107 L59.3104506,27.8285644 L59.3104506,26.4750488 L57.9935567,27.2404951 L57.9935567,26.2151044 L56.867517,26.8696165 L56.867517,27.8950071 L55.4074825,28.743654 L55.4074825,27.7182634 L54.2814429,28.3727754 L54.2814429,29.3981661 L53.0504334,30.1136919 L53.0504334,31.4672075 L54.2814429,30.7516817 L54.2814429,31.5173067 L55.4074825,30.8627947 Z M57.7454463,31.7733814 L54.6154377,33.592703 L54.6154377,32.8680936 L57.7454463,31.0487721 L57.7454463,31.7733814 Z M57.7454463,33.5370533 L54.6154377,35.3563749 L54.6154377,34.6044218 L57.7454463,32.7851002 L57.7454463,33.5370533 Z" id="数据建模" fill="#0F71E2" fill-rule="nonzero"></path>
            </g>
        </g>
    </g>
</svg>