<?xml version="1.0" encoding="UTF-8"?>
<svg width="79px" height="88px" viewBox="0 0 79 88" version="1.1" xmlns="http://www.w3.org/2000/svg" xmlns:xlink="http://www.w3.org/1999/xlink">
    <title>编组 35</title>
    <defs>
        <linearGradient x1="69.9747546%" y1="63.9700768%" x2="63.8070403%" y2="63.9700768%" id="linearGradient-1">
            <stop stop-color="#B7C8D6" offset="0%"></stop>
            <stop stop-color="#DAE2EB" offset="100%"></stop>
        </linearGradient>
    </defs>
    <g id="首页" stroke="none" stroke-width="1" fill="none" fill-rule="evenodd">
        <g id="首页备份" transform="translate(-681.000000, -396.000000)">
            <g id="编组-35" transform="translate(681.696700, 396.430011)">
                <path d="M2.82079467,32.4049489 L2.79681228,35.2410185 C2.78767289,36.3218099 3.36061161,37.3239679 4.29662022,37.8644135 L47.3242493,62.7082995 C49.1806814,63.7801918 51.4679519,63.7802292 53.3244189,62.7083974 L70.3390306,52.8850068 C71.233263,52.3687215 71.799138,51.4288439 71.8370119,50.3969681 L71.9636486,46.9467392 L71.9636486,46.9467392 L51.2394024,36.0044209 L56.8528497,31.727197 L56.7435066,28.3447944 L44.5560219,31.2841121 L29.0676343,21.70549 C27.2449776,20.5782881 24.959495,20.5087985 23.0717237,21.5231855 L2.82079467,32.4049489 L2.82079467,32.4049489 Z" id="Fill-6163" fill="url(#linearGradient-1)" transform="translate(37.372836, 42.162244) rotate(-240.000000) translate(-37.372836, -42.162244) "></path>
                <path d="M6.54910527,38.5190048 L49.6168254,63.51622 C51.4750273,64.594751 53.7680884,64.5973821 55.6287604,63.5231181 L72.6728372,53.6826748 C74.1077136,52.8542451 74.5993357,51.019473 73.770906,49.5845966 C73.5010434,49.1171829 73.110082,48.7312281 72.6392292,48.4674118 L52.4689184,37.1660994 L52.4689184,37.1660994 L59.022384,32.2990263 L43.6333425,32.0648212 L29.7287399,23.5631969 C27.8537757,22.4167965 25.5020904,22.3871902 23.59886,23.4860254 L6.5550634,33.3263069 C5.12018703,34.1547366 4.62856487,35.9895087 5.45699458,37.4243851 C5.71913136,37.8784174 6.0956757,38.2558268 6.54910527,38.5190048 Z" id="Fill-6163备份" fill="#FFFFFF" transform="translate(39.653763, 43.481505) rotate(-240.000000) translate(-39.653763, -43.481505) "></path>
                <path d="M27.0021372,58.0408975 C27.701085,57.0453319 28.3150689,55.9192816 28.844089,54.6627468 C29.2544803,55.2358876 29.740217,55.6428909 30.3012989,55.8837569 C30.6283295,54.7946133 30.9072674,53.9823594 31.1381125,53.4469951 C30.5417626,53.2707217 30.0383919,52.9398928 29.6280006,52.4545082 C30.2115258,50.4492844 30.5722213,48.1142187 30.7100872,45.449311 L31.0996383,45.2205096 L31.0996383,43.4361335 L28.6901922,44.8513125 C28.8344705,44.0791477 28.9707332,43.2775633 29.0989805,42.4465593 L27.7812395,43.030391 C27.3997038,45.6044007 26.946029,47.7868753 26.4202151,49.5778149 C26.0611227,49.4718291 25.68119,49.3732083 25.2804172,49.2819526 L24.9533866,50.1468303 L24.9533866,49.123008 L26.6366324,48.1343599 L26.6366324,46.6425045 L26.0787567,46.9701707 C26.3961687,46.1986986 26.6622819,45.4719827 26.8770961,44.7900231 L25.9729526,44.5020104 C25.7549322,45.1956038 25.4856129,45.9339535 25.1649947,46.7170595 L25.9633341,47.0379637 L24.9533866,47.6311525 L24.9533866,44.7644499 L23.7318311,45.4819258 L23.7318311,48.3486285 L22.6545538,48.9813632 L23.5202231,47.6831098 C23.1803678,47.1124181 22.9110484,46.7050618 22.7122651,46.461041 L21.8465959,47.7885464 C22.1319461,48.2108637 22.3595851,48.6329502 22.5295127,49.0548057 L21.779266,49.4954602 L21.779266,50.9873157 L23.2172389,50.1427278 C22.7042497,51.0827002 22.1287399,51.9277595 21.4907096,52.6779057 C21.6574311,53.096769 21.8081217,53.5933028 21.9427813,54.1675072 C22.6609662,53.0923878 23.2573161,52.035199 23.7318311,50.9959406 L23.7318311,52.4000399 L23.2124296,52.6319783 C23.1354812,53.0623258 23.044105,53.5011475 22.938301,53.9484433 L21.673462,54.6913417 L21.673462,56.1831972 L22.4621829,55.7199449 C22.2890491,56.3042936 22.0934719,56.9018242 21.8754515,57.5125368 C22.3692036,57.52968 22.8373062,57.5570131 23.2797594,57.5945359 C22.7699764,58.1962264 22.1800388,58.7474885 21.5099467,59.2483221 C21.7343795,59.7795493 21.9043072,60.2794103 22.0197297,60.7479052 C22.9976154,59.8712764 23.8376352,58.8708581 24.5397891,57.7466503 C24.995067,57.8253941 25.4150769,57.919977 25.7998188,58.030399 L26.1412772,56.9669087 C26.4554831,57.2747709 26.7424364,57.6327672 27.0021372,58.0408975 Z M28.8488983,51.0326657 C28.52828,50.1289024 28.3038473,48.9029387 28.1756,47.3547745 C28.2140742,47.1956671 28.2493422,47.0360053 28.281404,46.8757889 L29.5318151,46.1413647 C29.4580729,47.9007982 29.230434,49.5312318 28.8488983,51.0326657 Z M26.4827357,55.9180444 L25.5256902,55.9024331 C25.9008135,55.0678124 26.2134163,54.1797191 26.4634986,53.238153 L26.4634986,51.8779319 L24.222377,53.1942461 C24.3121502,52.883125 24.3939078,52.5864623 24.46765,52.3042582 L24.9533866,52.0189627 L24.9533866,50.9073841 C25.4150769,51.0554917 25.8447053,51.2175554 26.242272,51.3935751 L26.5260191,50.5760587 C26.7215962,50.8755916 26.893127,51.1770595 27.0406114,51.4804627 C27.156034,51.1298997 27.2698534,50.7680899 27.3820698,50.3950334 C27.5487913,51.5110709 27.789255,52.466788 28.1034609,53.2621847 C27.6032964,54.4481425 26.998931,55.5295405 26.2903647,56.5063789 L26.4827357,55.9180444 Z M23.4144191,55.9212064 L23.6981662,54.9939948 L25.1265205,54.1550564 C24.9405619,54.7713143 24.7033044,55.3543229 24.414748,55.9040823 L23.4144191,55.9212064 Z M31.744081,55.0655964 C32.0582869,54.9005501 32.3853175,54.6938439 32.7251728,54.4454777 C33.308698,54.0734943 33.6004606,53.3463394 33.6004606,52.2640129 L33.6004606,48.2564796 C33.8761923,47.987272 34.1551302,47.7161814 34.4372742,47.4432075 C34.4308619,46.9594393 34.4436866,46.318112 34.4757484,45.5192255 C34.1679549,45.8170151 33.8761923,46.090763 33.6004606,46.3404691 L33.6004606,44.2928244 L34.4276557,43.8069745 L34.4276557,41.9348422 L33.6004606,42.4206921 L33.6004606,39.8318841 L32.4366164,40.5154635 L32.4366164,43.1042715 L31.5228544,43.6409662 L31.5228544,45.5130985 L32.4366164,44.9764039 L32.4366164,47.4189515 C32.0390498,47.7792198 31.6959883,48.0879732 31.4074318,48.3452119 L31.5132359,50.301461 C31.8210294,50.0036714 32.1288229,49.7010064 32.4366164,49.3934661 L32.4366164,52.0846564 C32.4366164,52.5624401 32.3276062,52.8604834 32.1095858,52.9787862 C31.8915654,53.097089 31.6767512,53.2135086 31.4651431,53.3280451 C31.5869781,53.9487847 31.6799573,54.5279685 31.744081,55.0655964 Z M37.0919933,52.0707807 L37.0919933,51.339479 L39.2369293,50.079659 L39.2369293,50.8109607 L40.3719179,50.1443294 L40.3719179,44.8935832 L38.7560019,45.8426853 L38.7560019,44.6140985 L40.9490307,43.3260314 L40.9490307,41.7902978 L38.7560019,43.0783649 L38.7560019,41.7766479 L40.5450517,40.7258563 L40.5450517,36.1479077 L34.7258306,39.5658051 L34.7258306,44.9043075 C34.7258306,47.8295143 34.4052124,50.3336169 33.7639759,52.4166154 C34.0717694,52.6941164 34.3603258,53.021919 34.6296452,53.4000233 C35.3350053,51.4158717 35.7453966,49.054055 35.8608192,46.3145731 L37.544065,45.3259251 L37.544065,46.5545119 L35.9570047,47.4866658 L35.9570047,52.7374119 L37.0919933,52.0707807 Z M39.3619704,39.8850011 L35.8992934,41.9187913 L35.8992934,40.4123098 L39.3619704,38.3785196 L39.3619704,39.8850011 Z M37.544065,43.7901915 L35.8992934,44.7562419 L35.8992934,43.4545248 L37.544065,42.4884745 L37.544065,43.7901915 Z M39.2369293,48.5439254 L37.0919933,49.8037455 L37.0919933,48.3557681 L39.2369293,47.095948 L39.2369293,48.5439254 Z M41.9974524,49.248082 C43.11641,46.4359642 43.6935229,42.7037592 43.7287909,38.0514673 L44.6617899,37.5034738 C44.6521714,39.4592611 44.6345374,41.0967646 44.6088879,42.4159844 C44.5832385,43.7352043 44.5607952,44.4882198 44.5415581,44.675031 C44.522321,44.8618423 44.4702205,45.0301718 44.3852567,45.1800195 C44.3002929,45.3298673 44.1808626,45.4499865 44.0269658,45.5403771 C43.7704712,45.6910283 43.4434406,45.8636071 43.045874,46.0581136 C43.1741213,46.7628432 43.2863377,47.428235 43.3825232,48.0542891 C44.135976,47.6117514 44.6353389,47.277012 44.8806119,47.050071 C45.1258849,46.82313 45.3374929,46.4770147 45.515436,46.0117249 C45.6933791,45.5464352 45.7903662,44.9604954 45.8063971,44.2539054 L45.8689176,40.7873792 L45.9314382,34.8417403 L43.7528372,36.1213333 L43.7768836,33.6939142 L42.5264725,34.4283384 C42.5264725,35.1986429 42.5216632,36.0058995 42.5120446,36.8501082 L41.3818653,37.5139147 L41.3818653,39.4299251 L42.483189,38.7830669 C42.4543334,42.4613989 42.0391327,45.401331 41.2375871,47.6028631 C41.5197312,48.1684486 41.7730196,48.7168549 41.9974524,49.248082 Z M47.7878178,45.4668559 L47.7878178,44.179765 L49.0959402,43.4114442 L49.0959402,44.610779 L50.3848256,43.8537571 L50.3848256,31.0413514 L46.4989325,33.3237159 L46.4989325,46.2238779 L47.7878178,45.4668559 Z M49.0959402,41.4954338 L47.7878178,42.2637545 L47.7878178,34.4827045 L49.0959402,33.7143837 L49.0959402,41.4954338 Z M60.5708671,37.4614952 L60.5708671,35.3845984 L56.6561184,37.6839112 L56.6561184,29.3031938 L60.0803212,27.2920012 L60.0803212,25.2151044 L51.7314222,30.1187986 L51.7314222,32.1956954 L55.0786766,30.2296982 L55.0786766,38.6104157 L51.2120206,40.8814814 L51.2120206,42.9583782 L60.5708671,37.4614952 Z" id="数据加工" fill="#0F71E2" fill-rule="nonzero"></path>
            </g>
        </g>
    </g>
</svg>