<?xml version="1.0" encoding="UTF-8"?>
<svg width="77px" height="87px" viewBox="0 0 77 87" version="1.1" xmlns="http://www.w3.org/2000/svg" xmlns:xlink="http://www.w3.org/1999/xlink">
    <title>编组 35备份 3</title>
    <defs>
        <linearGradient x1="69.9747546%" y1="63.9700768%" x2="63.8070403%" y2="63.9700768%" id="linearGradient-1">
            <stop stop-color="#B7C8D6" offset="0%"></stop>
            <stop stop-color="#DAE2EB" offset="100%"></stop>
        </linearGradient>
    </defs>
    <g id="首页" stroke="none" stroke-width="1" fill="none" fill-rule="evenodd">
        <g id="首页备份" transform="translate(-625.000000, -276.000000)">
            <g id="编组-35备份-3" transform="translate(625.636474, 276.435907)">
                <path d="M2.75380737,32.5209743 L2.72986822,35.3519305 C2.72070576,36.4354503 3.29654032,37.4397086 4.23628639,37.979131 L45.395656,61.6049664 C47.2500815,62.6694227 49.5308572,62.6665605 51.3826052,61.5974533 L68.4060179,51.7689814 C69.3002503,51.2526961 69.8661253,50.3128185 69.9039992,49.2809427 L70.0306359,45.8307138 L70.0306359,45.8307138 L50.6724151,35.2544209 L56.2858624,30.977197 L56.1765193,27.5947944 L43.9890346,30.5341121 L28.9633414,21.7081555 C27.1575147,20.6474292 24.9292785,20.6050652 23.0844377,21.5963837 L2.75380737,32.5209743 L2.75380737,32.5209743 Z" id="Fill-6163" fill="url(#linearGradient-1)" transform="translate(36.372836, 41.662244) rotate(-240.000000) translate(-36.372836, -41.662244) "></path>
                <path d="M6.49995354,38.631613 L47.6877691,62.4116707 C49.5441827,63.4834833 51.8313865,63.4834867 53.6878032,62.4116795 L70.8075651,52.5275392 C72.2424414,51.6991095 72.7340636,49.8643374 71.9056339,48.4294611 C71.6423314,47.9734097 71.2636233,47.5947005 70.8075727,47.3313967 L51.9019311,36.4160994 L51.9019311,36.4160994 L58.4553967,31.5490263 L43.0663552,31.3148212 L29.6197572,23.551339 C27.7633436,22.4795263 25.4761398,22.4795229 23.6197231,23.5513301 L6.49996122,33.4354704 C5.06508484,34.2639001 4.57346269,36.0986722 5.4018924,37.5335486 C5.66519488,37.9895999 6.04390295,38.3683091 6.49995354,38.631613 Z" id="Fill-6163备份" fill="#FFFFFF" transform="translate(38.653763, 42.981505) rotate(-240.000000) translate(-38.653763, -42.981505) "></path>
                <path d="M26.1946592,56.9377574 L26.1946592,56.1944622 L28.8502169,54.6370752 L28.8502169,55.3803704 L29.5558896,54.9665193 L29.5558896,48.8535573 L27.689571,49.9480845 L27.689571,47.0646119 L30.0572886,45.6760326 L30.0572886,44.7020596 L27.689571,46.0906389 L27.689571,43.3737669 L26.9374725,43.814845 L26.9374725,50.3891627 L25.4889865,51.2386465 L25.4889865,57.3516085 L26.1946592,56.9377574 Z M21.9884786,55.4958203 L21.9884786,48.3191773 L24.2169187,47.0122791 L24.2169187,54.1120295 L24.8854507,53.7199601 L24.8854507,45.684683 L21.3199466,47.77572 L21.3199466,55.8878898 L21.9884786,55.4958203 Z M21.3849428,59.6431404 C22.3382199,58.0844745 22.9200904,56.7564405 23.1305542,55.6590382 C23.6443334,56.1522825 24.1302571,56.6789502 24.5883253,57.2390415 L25.2104315,56.1821656 C24.6966523,55.6889213 24.1426373,55.1722839 23.5483867,54.6322533 L23.2048355,55.2566428 C23.3595883,54.2688056 23.4369647,52.937612 23.4369647,51.2630619 L23.4369647,48.5333745 L22.7684327,48.9254439 L22.7684327,52.026779 C22.7684327,53.8123961 22.6508205,55.1116529 22.4155963,55.9245495 C22.1679919,56.8728609 21.6511176,57.9320993 20.8649735,59.1022646 C21.063057,59.2765791 21.2363801,59.456871 21.3849428,59.6431404 Z M28.8502169,53.7656257 L26.1946592,55.3230127 L26.1946592,51.6962449 L28.8502169,50.1388579 L28.8502169,53.7656257 Z M32.1371659,43.4694726 C32.2919187,43.1480379 32.477622,42.7785493 32.6942759,42.3610065 C32.1743066,42.0166341 31.6698125,41.7358068 31.1807937,41.5185246 L30.7072502,42.5010894 C31.1219877,42.7277603 31.5986262,43.0505547 32.1371659,43.4694726 Z M32.3600099,53.2707441 C33.313287,51.2592662 33.7899256,48.5747055 33.7899256,45.2170618 L33.7899256,41.5262168 L36.1390728,40.1485283 C36.0121755,40.7483817 35.8821832,41.3286911 35.7490958,41.8894567 L34.5420241,42.5973599 L34.5420241,47.8516878 L35.2105561,47.4596183 L35.2105561,47.1264171 L36.3340613,46.4675226 L36.3340613,49.3894415 C36.3340613,49.7995354 36.1916887,50.0880786 35.9069436,50.2550712 C35.6779095,50.3893912 35.4086397,50.5302209 35.0991341,50.67756 C35.1548451,50.9780888 35.1981759,51.2474319 35.2291264,51.4855892 C35.5572023,51.3017284 35.8264722,51.1480833 36.0369359,51.0246541 C36.6807075,50.6471057 37.0025933,50.0012477 37.0025933,49.0870801 L37.0025933,46.0754531 L38.2003798,45.3729954 L38.2003798,45.7061966 L38.8689118,45.3141272 L38.8689118,40.0597993 L36.4176278,41.4973872 C36.597141,40.8965792 36.7720116,40.2899503 36.9422397,39.6775004 L39.546729,38.1500632 L39.546729,37.2786137 L33.1028233,41.0577275 L33.1028233,45.6328375 C33.1028233,48.5889309 32.6757056,50.9753254 31.8214702,52.7920209 C32.031934,52.9334439 32.2114472,53.0930183 32.3600099,53.2707441 Z M31.8864664,46.9485114 C32.0226489,46.6721421 32.199067,46.2910116 32.4157209,45.8051199 C31.80909,45.4944841 31.2643602,45.2415253 30.7815316,45.0462437 L30.3172732,46.0489939 C30.7691513,46.2709705 31.2922157,46.5708097 31.8864664,46.9485114 Z M38.2003798,42.4895227 L35.2105561,44.2429444 L35.2105561,43.051109 L38.2003798,41.2976873 L38.2003798,42.4895227 Z M38.2003798,44.5271767 L35.2105561,46.2805984 L35.2105561,45.0631322 L38.2003798,43.3097105 L38.2003798,44.5271767 Z M31.2272196,53.7812988 C31.5429152,51.7251015 31.8276604,49.8963744 32.0814549,48.2951173 C31.864801,48.328197 31.6450521,48.3118301 31.4222081,48.2460166 C31.1746036,50.0316031 30.8712882,51.9053955 30.5122617,53.867394 L31.2272196,53.7812988 Z M39.5281586,47.8366067 C39.1072311,47.2718211 38.6151173,46.7017937 38.0518171,46.1265245 L37.5132775,46.967791 C38.0270567,47.5293842 38.5036952,48.13839 38.9431931,48.7948083 L39.5281586,47.8366067 Z M34.2448988,51.6398933 C34.7401077,50.5720018 35.2229363,49.3832165 35.6933848,48.0735374 L35.0991341,47.9222417 C34.6905868,49.1358127 34.2232334,50.2856196 33.6970739,51.3716624 L34.2448988,51.6398933 Z M44.7464224,46.1859845 C45.5325665,45.0072756 46.2103837,43.7639421 46.7798739,42.455984 C47.2812729,43.0931868 47.9095692,43.5278147 48.6647627,43.7598676 C48.8009452,43.3809748 48.9680782,42.9454844 49.1661617,42.4533962 C48.3923978,42.3091267 47.7548164,41.9141188 47.2534174,41.2683724 C47.8909988,39.4164076 48.287166,37.1891342 48.4419187,34.5865523 L49.0268842,34.2434916 L49.0268842,33.3720421 L46.1856232,35.0383372 C46.3589463,34.2190253 46.510604,33.3568858 46.6405964,32.4519186 L45.897783,32.7337661 C45.6563687,34.9258162 45.1766351,36.9457896 44.4585822,38.7936862 C44.6442855,38.9838048 44.7990383,39.1664439 44.9228405,39.3416035 C45.0652131,38.9847113 45.2013955,38.6100903 45.3313879,38.2177406 C45.4923308,39.6868364 45.8235017,40.8724119 46.3249007,41.774467 C45.786361,43.0899045 45.0837834,44.3947491 44.2171679,45.6890005 C44.4338217,45.8524241 44.6102399,46.0180855 44.7464224,46.1859845 Z M40.1874055,42.823611 C40.9364089,41.7692071 41.5925607,40.6710057 42.1558608,39.5290068 L42.1558608,41.3231675 L42.8429632,40.9202073 L42.8429632,39.4592478 C43.3567424,39.7132706 43.7838601,39.9625837 44.1243162,40.2071871 L44.5700042,39.2281432 C44.1800272,39.012582 43.6971985,38.7831259 43.1215182,38.5397749 L42.8429632,39.1388619 L42.8429632,38.3571205 L44.6257152,37.3116019 L44.6257152,36.4657833 L42.8429632,37.5113018 L42.8429632,34.6406446 L42.1558608,35.0436049 L42.1558608,37.9142621 L40.0202725,39.1667062 L40.0202725,40.0125248 L41.9330168,38.8907706 C41.2830552,40.1092242 40.5680973,41.2376414 39.7881433,42.2760221 C39.936706,42.4622915 40.0697934,42.6448211 40.1874055,42.823611 Z M43.7621947,36.6518205 C44.1026508,35.9309945 44.4431069,35.1631786 44.783563,34.3483728 L44.2078827,34.1605553 C43.8983771,34.9486662 43.5826815,35.6976892 43.2607957,36.4076243 C43.4526891,36.4830456 43.6198221,36.5644443 43.7621947,36.6518205 Z M41.6544618,37.2343412 C41.3573365,36.8703461 41.0694963,36.53508 40.7909413,36.228543 L40.2616868,37.0387333 C40.5340517,37.3745314 40.8064166,37.7402322 41.0787815,38.1358356 L41.6544618,37.2343412 Z M46.789159,40.5282235 C46.2815699,39.5358189 45.9720644,38.166665 45.8606424,36.4207619 C45.897783,36.2964568 45.9318287,36.169695 45.9627792,36.0404766 L47.6991054,35.0221851 C47.5876834,37.1550867 47.2843679,38.9904328 46.789159,40.5282235 Z M40.0945538,48.8628727 C41.1592529,47.8369156 42.0413438,46.7728098 42.7408263,45.6705556 C43.1555638,45.7263541 43.554826,45.7912283 43.9386129,45.8651782 L44.3471602,44.7413153 C43.9943239,44.7261066 43.6476776,44.7072677 43.3072215,44.6847985 C43.7838601,43.7730394 44.1397915,42.8295472 44.3750157,41.8543218 L44.3750157,41.0213186 L42.1001498,42.3554438 C42.1991916,42.0666817 42.2982334,41.7736477 42.3972752,41.4763419 L41.7287432,41.5736563 C41.5987508,41.991637 41.4656634,42.4028891 41.329481,42.8074128 L39.9181357,43.635115 L39.9181357,44.4809336 L40.9766447,43.860157 C40.7909413,44.3877027 40.5990479,44.9060632 40.4009643,45.4152386 C40.9828348,45.4669996 41.5399448,45.524738 42.0722943,45.588454 C41.4470931,46.4848161 40.6826144,47.3389769 39.7788582,48.1509362 C39.8902802,48.410249 39.995512,48.6475612 40.0945538,48.8628727 Z M42.666545,44.6504379 C42.2022867,44.6236815 41.7504086,44.6024801 41.3109107,44.5868335 C41.4532832,44.2043104 41.5956558,43.8132437 41.7380283,43.4136334 L43.669343,42.2809884 C43.4279287,43.1060588 43.0936627,43.8958753 42.666545,44.6504379 Z M49.5468536,42.9990605 C49.9244504,42.7947011 50.2091955,42.6319804 50.4010889,42.5108983 C51.0139099,42.1344141 51.3203204,41.4634573 51.3203204,40.4980279 L51.3203204,36.6213591 C51.6143507,36.3122232 51.9207612,35.9936908 52.2395519,35.665762 C52.2086014,35.4019738 52.190031,35.0796634 52.1838409,34.6988306 C51.9021909,34.9964342 51.6143507,35.2955321 51.3203204,35.5961244 L51.3203204,32.9625527 L52.3324036,32.3690031 L52.3324036,31.4462919 L51.3203204,32.0398415 L51.3203204,29.5920936 L50.6332181,29.9950539 L50.6332181,32.4428017 L49.4632871,33.1289233 L49.4632871,34.0516345 L50.6332181,33.365513 L50.6332181,36.2938397 C50.2184806,36.7079404 49.791363,37.1271657 49.3518651,37.5515157 L49.4447167,38.599189 C49.8130284,38.2037717 50.2091955,37.7834745 50.6332181,37.3382975 L50.6332181,40.7215721 C50.6332181,41.1572969 50.4939406,41.4568404 50.2153856,41.6202026 C50.0358724,41.7254805 49.7758877,41.8523211 49.4354316,42.0007244 C49.4849525,42.339058 49.5220931,42.6718367 49.5468536,42.9990605 Z M51.9424266,41.7863765 C52.7533312,39.879754 53.1928291,37.5928942 53.2609203,34.9257973 L55.4243641,33.657017 L55.4243641,35.2845771 L53.5116198,36.4063313 L53.5116198,40.737948 L54.1801518,40.3458786 L54.1801518,39.6025834 L57.3556788,37.7402535 L57.3556788,38.4835487 L58.0242108,38.0914793 L58.0242108,33.7598626 L56.0928961,34.8925076 L56.0928961,33.2649475 L58.5441802,31.8273595 L58.5441802,30.95591 L56.0928961,32.393498 L56.0928961,31.0478774 L55.4243641,31.4399469 L55.4243641,32.7855675 L53.2702054,34.0489023 L53.2702054,32.4597885 L57.4113898,30.0311361 L57.4113898,30.4284146 L58.0799218,30.0363451 L58.0799218,26.3198693 L52.6016734,29.5326606 L52.6016734,34.5306798 C52.6016734,37.2560955 52.2147915,39.5035543 51.4410276,41.2730562 C51.6267309,41.437544 51.7938639,41.6086507 51.9424266,41.7863765 Z M57.4113898,29.1853175 L53.2702054,31.6139699 L53.2702054,29.9864098 L57.4113898,27.5577574 L57.4113898,29.1853175 Z M57.3556788,36.9072503 L54.1801518,38.7695802 L54.1801518,36.8600805 L57.3556788,34.9977507 L57.3556788,36.9072503 Z" id="贴源数据" fill="#000000" fill-rule="nonzero"></path>
            </g>
        </g>
    </g>
</svg>