<?xml version="1.0" encoding="UTF-8"?>
<svg width="60px" height="60px" viewBox="0 0 16 16" version="1.1" xmlns="http://www.w3.org/2000/svg" xmlns:xlink="http://www.w3.org/1999/xlink">
    <!-- Generator: Sketch 57.1 (83088) - https://sketch.com -->
    <title>Shape</title>
    <desc>Created with Sketch.</desc>
    <g id="组件库" stroke="none" stroke-width="1" fill="none" fill-rule="evenodd">
        <g id="组件2" transform="translate(-1064.000000, -929.000000)" fill="#D1D6DA" fill-rule="nonzero">
            <g id="图标" transform="translate(40.000000, 749.000000)">
                <g id="Component" transform="translate(40.000000, 104.000000)">
                    <g id="Iconography" transform="translate(0.000000, 52.000000)">
                        <g id="Icon" transform="translate(960.000000, 0.000000)">
                            <path d="M39.1198408,24.8801451 C38.5332385,24.2934243 37.8265796,24 37.0002477,24 L27.000008,24 C26.1736761,24 25.4670172,24.2934243 24.8801592,24.8801451 C24.293429,25.4669938 24,26.1736414 24,26.99996 L24,36.9999121 C24,37.8262308 24.293429,38.5328784 24.8801592,39.119727 C25.4670172,39.7065757 26.1736761,40 27.000008,40 L37.0001199,40 C37.8264518,40 38.5331107,39.7065757 39.119713,39.119727 C39.706571,38.5328784 40,37.8262308 40,36.9999121 L40,26.99996 C40,26.1736414 39.706571,25.4668659 39.1198408,24.8801451 L39.1198408,24.8801451 Z M37.3334399,32.6665654 C37.3334399,32.8470949 37.2674663,33.0035879 37.135647,33.1354051 C37.003572,33.2672223 36.8473322,33.3333227 36.6667998,33.3333227 L33.3335997,33.3333227 L33.3335997,36.6665974 C33.3335997,36.8471269 33.2673704,37.0033642 33.1355511,37.1353092 C33.0037318,37.2672543 32.8473642,37.3332268 32.6668318,37.3332268 L31.3334239,37.3332268 C31.1528915,37.3332268 30.9966518,37.2672543 30.8647046,37.1353092 C30.7327574,37.0033642 30.6667839,36.8471269 30.6667839,36.6665974 L30.6667839,33.3333227 L27.333328,33.3333227 C27.1527956,33.3333227 26.9965559,33.2672223 26.8646087,33.1354051 C26.7326616,33.0035879 26.666688,32.8470949 26.666688,32.6665654 L26.666688,31.3331788 C26.666688,31.1526494 26.7326616,30.9964121 26.8646087,30.864467 C26.9965559,30.732522 27.1527956,30.6665495 27.333328,30.6665495 L30.6667839,30.6665495 L30.6667839,27.3332747 C30.6667839,27.1527453 30.7327574,26.9963801 30.8647046,26.8645629 C30.9966518,26.7326179 31.1528915,26.6665175 31.3334239,26.6665175 L32.6668318,26.6665175 C32.8473642,26.6665175 33.0037318,26.7326179 33.1355511,26.8645629 C33.2673704,26.9963801 33.3335997,27.1527453 33.3335997,27.3332747 L33.3335997,30.6665495 L36.6667998,30.6665495 C36.8473322,30.6665495 37.003572,30.732522 37.135647,30.864467 C37.2674663,30.9964121 37.3334399,31.1526494 37.3334399,31.3331788 L37.3334399,32.6665654 L37.3334399,32.6665654 Z" id="Shape"></path>
                        </g>
                    </g>
                </g>
            </g>
        </g>
    </g>
</svg>
