<?xml version="1.0" encoding="UTF-8"?>
<svg width="39px" height="24px" viewBox="0 0 39 24" version="1.1" xmlns="http://www.w3.org/2000/svg" xmlns:xlink="http://www.w3.org/1999/xlink">
    <!-- Generator: Sketch 57.1 (83088) - https://sketch.com -->
    <title>出错-内联</title>
    <desc>Created with Sketch.</desc>
    <g id="页面-1" stroke="none" stroke-width="1" fill="none" fill-rule="evenodd">
        <g id="a1关系数据源-关联浮框" transform="translate(-765.000000, -746.000000)">
            <g id="编组-5" transform="translate(730.000000, 644.000000)">
                <g id="内联" transform="translate(19.000000, 88.000000)">
                    <g id="出错-内联" transform="translate(16.000000, 14.000000)">
                        <circle id="椭圆形" stroke="#BCBCBC" fill-opacity="0.7" fill="#FFFFFF" cx="27" cy="12" r="11.5"></circle>
                        <circle id="椭圆形" stroke="#BCBCBC" fill-opacity="0.7" fill="#FFFFFF" cx="12" cy="12" r="11.5"></circle>
                        <path d="M19.5000083,3.28186484 C16.9819644,5.4491409 15.5,8.60249681 15.5,12 C15.5,15.3983701 16.9827805,18.5516518 19.5009549,20.7173204 C22.0179023,18.5506133 23.5,15.3975468 23.5,12 C23.5,8.60202729 22.0175307,5.4485962 19.5000083,3.28186484 Z" id="形状结合" stroke="#ED1C24" fill-opacity="0.7" fill="#ED1C24"></path>
                        <path d="M20.2415125,16.5020729 C20.2415125,16.5956651 20.1649371,16.6722405 20.071345,16.6722405 L19.0503396,16.6722405 C18.9567474,16.6722405 18.880172,16.5956651 18.880172,16.5020729 L18.880172,10.7163759 C18.880172,10.6227837 18.9567474,10.5462083 19.0503396,10.5462083 L20.071345,10.5462083 C20.1649371,10.5462083 20.2415125,10.6227837 20.2415125,10.7163759 L20.2415125,16.5020729 Z M19.5608423,9.18486786 C18.9971622,9.17423239 18.5483453,8.7062716 18.5611079,8.14259156 C18.5717433,7.59592827 19.014179,7.15349262 19.5608423,7.14285714 C20.1245223,7.15349262 20.5733393,7.62145341 20.5605767,8.18513345 C20.5499412,8.73179673 20.1075056,9.17423239 19.5608423,9.18486786 Z" id="info-circle" fill="#FFFFFF" transform="translate(19.560842, 11.907549) scale(1, -1) translate(-19.560842, -11.907549) "></path>
                    </g>
                </g>
            </g>
        </g>
    </g>
</svg>