<?xml version="1.0" encoding="UTF-8"?>
<svg width="39px" height="24px" viewBox="0 0 39 24" version="1.1" xmlns="http://www.w3.org/2000/svg" xmlns:xlink="http://www.w3.org/1999/xlink">
    <!-- Generator: Sketch 57.1 (83088) - https://sketch.com -->
    <title>出错-左联</title>
    <desc>Created with Sketch.</desc>
    <g id="页面-1" stroke="none" stroke-width="1" fill="none" fill-rule="evenodd">
        <g id="a1关系数据源-关联浮框" transform="translate(-845.000000, -746.000000)">
            <g id="编组-5" transform="translate(730.000000, 644.000000)">
                <g id="内联" transform="translate(99.000000, 88.000000)">
                    <g id="出错-左联" transform="translate(16.000000, 14.000000)">
                        <circle id="椭圆形" stroke="#BCBCBC" fill-opacity="0.7" fill="#FFFFFF" cx="27" cy="12" r="11.5"></circle>
                        <circle id="椭圆形" stroke="#ED1C24" fill-opacity="0.7" fill="#ED1C24" cx="12" cy="12" r="11.5"></circle>
                        <path d="M12.6806702,16.3592158 C12.6806702,16.452808 12.6040948,16.5293834 12.5105027,16.5293834 L11.4894973,16.5293834 C11.3959052,16.5293834 11.3193298,16.452808 11.3193298,16.3592158 L11.3193298,10.5735188 C11.3193298,10.4799266 11.3959052,10.4033512 11.4894973,10.4033512 L12.5105027,10.4033512 C12.6040948,10.4033512 12.6806702,10.4799266 12.6806702,10.5735188 L12.6806702,16.3592158 Z M12,9.04201072 C11.43632,9.03137525 10.987503,8.56341446 11.0002656,7.99973442 C11.0109011,7.45307113 11.4533367,7.01063547 12,7 C12.56368,7.01063547 13.012497,7.47859626 12.9997344,8.04227631 C12.9890989,8.58893959 12.5466633,9.03137525 12,9.04201072 Z" id="info-circle" fill="#FFFFFF" transform="translate(12.000000, 11.764692) scale(1, -1) translate(-12.000000, -11.764692) "></path>
                    </g>
                </g>
            </g>
        </g>
    </g>
</svg>