<?xml version="1.0" standalone="no"?><!DOCTYPE svg PUBLIC "-//W3C//DTD SVG 1.1//EN" "http://www.w3.org/Graphics/SVG/1.1/DTD/svg11.dtd"><svg t="1605598614425" class="icon" viewBox="0 0 1024 1024" version="1.1" xmlns="http://www.w3.org/2000/svg" p-id="1264" xmlns:xlink="http://www.w3.org/1999/xlink" width="200" height="200"><defs><style type="text/css"></style></defs><path d="M739.555556 853.333333a56.888889 56.888889 0 0 1 0 113.777778h-455.111112a56.888889 56.888889 0 0 1 0-113.777778h455.111112zM910.222222 0a113.777778 113.777778 0 0 1 113.777778 113.777778v568.888889a113.777778 113.777778 0 0 1-113.777778 113.777777H113.777778a113.777778 113.777778 0 0 1-113.777778-113.777777V113.777778a113.777778 113.777778 0 0 1 113.777778-113.777778h796.444444z m0 113.777778H113.777778v568.888889h796.444444V113.777778z" fill="#0075DB" p-id="1265"></path></svg>