<?xml version="1.0" encoding="UTF-8"?>
<svg width="18px" height="18px" viewBox="0 0 18 18" version="1.1" xmlns="http://www.w3.org/2000/svg" xmlns:xlink="http://www.w3.org/1999/xlink">
    <!-- Generator: Sketch 57.1 (83088) - https://sketch.com -->
    <title>mappingPointDel</title>
    <desc>Created with Sketch.</desc>
    <defs>
        <linearGradient x1="50%" y1="97.783801%" x2="50%" y2="1.55905295%" id="linearGradient-1">
            <stop stop-color="#1991EB" offset="0%"></stop>
            <stop stop-color="#2DA1F8" offset="100%"></stop>
        </linearGradient>
    </defs>
    <g id="B-数据开发--一期(改)" stroke="none" stroke-width="1" fill="none" fill-rule="evenodd">
        <g id="b2.2.1-映射配置" transform="translate(-1171.000000, -457.000000)">
            <g id="数据源" transform="translate(638.000000, 110.000000)">
                <g id="编组" transform="translate(389.000000, 303.000000)">
                    <g id="mappingPointDel" transform="translate(144.000000, 44.000000)">
                        <circle id="椭圆形" stroke="#1A91EB" fill-opacity="0.400000006" fill="url(#linearGradient-1)" cx="9" cy="9" r="8.5"></circle>
                        <path d="M5.64644661,5.64644661 C5.84170876,5.45118446 6.15829124,5.45118446 6.35355339,5.64644661 L6.35355339,5.64644661 L9.239,8.532 L12.1247075,5.64644661 C12.2982738,5.47288026 12.5676982,5.45359511 12.7625664,5.58859116 L12.8318143,5.64644661 C13.0270764,5.84170876 13.0270764,6.15829124 12.8318143,6.35355339 L12.8318143,6.35355339 L9.946,9.239 L12.8318143,12.1247075 C13.0053806,12.2982738 13.0246658,12.5676982 12.8896697,12.7625664 L12.8318143,12.8318143 C12.6365521,13.0270764 12.3199696,13.0270764 12.1247075,12.8318143 L12.1247075,12.8318143 L9.239,9.946 L6.35355339,12.8318143 C6.17998704,13.0053806 5.91056264,13.0246658 5.7156945,12.8896697 L5.64644661,12.8318143 C5.45118446,12.6365521 5.45118446,12.3199696 5.64644661,12.1247075 L5.64644661,12.1247075 L8.532,9.239 L5.64644661,6.35355339 C5.47288026,6.17998704 5.45359511,5.91056264 5.58859116,5.7156945 Z" id="形状结合" fill="#FFFFFF" fill-rule="nonzero"></path>
                    </g>
                </g>
            </g>
        </g>
    </g>
</svg>