<svg width="81.000000" height="81.000000" viewBox="0 0 81 81" fill="none" xmlns="http://www.w3.org/2000/svg" xmlns:xlink="http://www.w3.org/1999/xlink">
	<desc>
			Created with Pixso.
	</desc>
	<g clip-path="url(#clip2_1)">
		<path d="M68.4564 26.5L79.5 26.1363C79.4593 25.0116 79.3489 23.8934 79.1687 22.7819L68.3045 24.5062C68.3962 25.1678 68.4468 25.8324 68.4564 26.5ZM67.4763 21.5694L77.8573 17.9052C77.4595 16.8503 76.9993 15.822 76.4768 14.8202L66.648 19.7643C66.9654 20.3526 67.2415 20.9453 67.4763 21.5694ZM64.9776 17.1777L73.7021 10.5632C72.9906 9.68238 72.2313 8.84266 71.4243 8.04404L63.611 15.7228C64.1012 16.1815 64.5567 16.6575 64.9776 17.1777ZM61.2228 13.7155L67.4348 4.82435C66.4884 4.18707 65.5037 3.61228 64.4807 3.1L59.442 12.6917C60.0577 13.0014 60.6513 13.3337 61.2228 13.7155ZM56.5707 11.587L59.6767 1.24093C58.5694 0.926888 57.4467 0.679909 56.3084 0.5L54.5 11.1425C55.1997 11.2486 55.8899 11.3968 56.5707 11.587Z" fill-rule="evenodd" fill="#13EFBE"/>
		<path d="M12.5436 26.5L1.5 26.1363C1.54066 25.0116 1.65111 23.8934 1.83131 22.7819L12.6955 24.5062C12.6038 25.1678 12.5532 25.8324 12.5436 26.5ZM13.5237 21.5694L3.14273 17.9052C3.54053 16.8503 4.00069 15.822 4.52319 14.8202L14.352 19.7643C14.0346 20.3526 13.7585 20.9453 13.5237 21.5694ZM16.0224 17.1777L7.2979 10.5632C8.00941 9.68238 8.76866 8.84266 9.57565 8.04404L17.389 15.7228C16.8988 16.1815 16.4433 16.6575 16.0224 17.1777ZM19.7772 13.7155L13.5652 4.82435C14.5116 4.18707 15.4963 3.61228 16.5193 3.1L21.558 12.6917C20.9423 13.0014 20.3487 13.3337 19.7772 13.7155ZM24.4293 11.587L21.3233 1.24093C22.4306 0.926888 23.5533 0.679909 24.6916 0.5L26.5 11.1425C25.8003 11.2486 25.1101 11.3968 24.4293 11.587Z" fill-rule="evenodd" fill="#13EFBE"/>
		<path d="M68.4564 55L79.5 55.3637C79.4593 56.4884 79.3489 57.6066 79.1687 58.7181L68.3045 56.9938C68.3962 56.3322 68.4468 55.6676 68.4564 55ZM67.4763 59.9306L77.8573 63.5948C77.4595 64.6497 76.9993 65.678 76.4768 66.6798L66.648 61.7357C66.9654 61.1474 67.2415 60.5547 67.4763 59.9306ZM64.9776 64.3223L73.7021 70.9368C72.9906 71.8176 72.2313 72.6573 71.4243 73.456L63.611 65.7772C64.1012 65.3185 64.5567 64.8425 64.9776 64.3223ZM61.2228 67.7845L67.4348 76.6756C66.4884 77.3129 65.5037 77.8877 64.4807 78.4L59.442 68.8083C60.0577 68.4986 60.6513 68.1663 61.2228 67.7845ZM56.5707 69.9129L59.6767 80.2591C58.5694 80.5731 57.4467 80.8201 56.3084 81L54.5 70.3575C55.1997 70.2514 55.8899 70.1032 56.5707 69.9129Z" fill-rule="evenodd" fill="#13EFBE"/>
		<path d="M12.5436 55L1.5 55.3637C1.54066 56.4884 1.65111 57.6066 1.83131 58.7181L12.6955 56.9938C12.6038 56.3322 12.5532 55.6676 12.5436 55ZM13.5237 59.9306L3.14273 63.5948C3.54053 64.6497 4.00069 65.678 4.52319 66.6798L14.352 61.7357C14.0346 61.1474 13.7585 60.5547 13.5237 59.9306ZM16.0224 64.3223L7.2979 70.9368C8.00941 71.8176 8.76866 72.6573 9.57565 73.456L17.389 65.7772C16.8988 65.3185 16.4433 64.8425 16.0224 64.3223ZM19.7772 67.7845L13.5652 76.6756C14.5116 77.3129 15.4963 77.8877 16.5193 78.4L21.558 68.8083C20.9423 68.4986 20.3487 68.1663 19.7772 67.7845ZM24.4293 69.9129L21.3233 80.2591C22.4306 80.5731 23.5533 80.8201 24.6916 81L26.5 70.3575C25.8003 70.2514 25.1101 70.1032 24.4293 69.9129Z" fill-rule="evenodd" fill="#13EFBE"/>
		<path d="M80 47L80 44.3333L54 44.3333L54 47L80 47ZM80 40.3333L80 37.6667L54 37.6667L54 40.3333L80 40.3333ZM80 33.6667L80 31L54 31L54 33.6667L80 33.6667Z" fill-rule="evenodd" fill="#50E3C2"/>
		<path d="M1 47L1 44.3333L12 44.3333L12 47L1 47ZM1 40.3333L1 37.6667L12 37.6667L12 40.3333L1 40.3333ZM1 33.6667L1 31L12 31L12 33.6667L1 33.6667Z" fill-rule="evenodd" fill="#50E3C2"/>
		<path d="M33 1L35.6667 1L35.6667 11L33 11L33 1ZM39.6667 1L42.3333 1L42.3333 11L39.6667 11L39.6667 1ZM46.3333 1L49 1L49 11L46.3333 11L46.3333 1Z" fill-rule="evenodd" fill="#50E3C2"/>
		<path d="M33 81L35.6667 81L35.6667 70L33 70L33 81ZM39.6667 81L42.3333 81L42.3333 70L39.6667 70L39.6667 81ZM46.3333 81L49 81L49 70L46.3333 70L46.3333 81Z" fill-rule="evenodd" fill="#50E3C2"/>
	</g>
	<defs>
		<clipPath id="clip2_1">
			<rect width="81.000000" height="81.000000" fill="white"/>
		</clipPath>
	</defs>
</svg>
