<?xml version="1.0" encoding="UTF-8"?>
<svg width="79px" height="88px" viewBox="0 0 79 88" version="1.1" xmlns="http://www.w3.org/2000/svg" xmlns:xlink="http://www.w3.org/1999/xlink">
    <title>编组 35备份 15</title>
    <defs>
        <linearGradient x1="69.9747546%" y1="63.9700768%" x2="63.8070403%" y2="63.9700768%" id="linearGradient-1">
            <stop stop-color="#B7C8D6" offset="0%"></stop>
            <stop stop-color="#DAE2EB" offset="100%"></stop>
        </linearGradient>
        <path d="M26.5107361,58.5704193 C27.2279215,57.5996557 27.8579261,56.5118 28.4007498,55.3068523 C28.8218495,55.8190312 29.3202604,56.1715835 29.8959826,56.364509 C30.2315464,55.3276341 30.5177626,54.5523477 30.7546312,54.0386499 C30.1427207,53.9081289 29.6262157,53.6277945 29.205116,53.1976468 C29.8038671,51.2897216 30.1739742,49.0862712 30.3154374,46.5872956 L30.7151531,46.3510457 L30.7151531,44.683077 L28.2428375,46.1443262 C28.3908803,45.4142481 28.5306986,44.6571301 28.6622922,43.8729721 L27.3101675,44.494404 C26.9186764,46.9224073 26.4531639,48.9885617 25.91363,50.6928671 C25.5451677,50.6144208 25.1553216,50.544056 24.7440914,50.4817729 L24.4085276,51.3090124 L24.4085276,50.3519811 L26.1356942,49.3311484 L26.1356942,47.9366171 L25.5632619,48.2749503 C25.8889561,47.5355754 26.162013,46.8409835 26.3824323,46.1911745 L25.4546971,45.9738825 C25.2309879,46.6347505 24.9546413,47.3404015 24.6256572,48.0908354 L25.4448276,48.3449502 L24.4085276,48.9574499 L24.4085276,46.2777624 L23.1550982,47.0185953 L23.1550982,49.6982828 L22.0497115,50.3516158 L22.9379687,49.0883348 C22.5892455,48.5743937 22.3128988,48.2090812 22.1089287,47.9923971 L21.2206716,49.2830218 C21.5134674,49.6613986 21.7470462,50.0428744 21.9214077,50.4274491 L21.1515849,50.8824488 L21.1515849,52.2769801 L22.6270787,51.4048972 C22.1007041,52.3130134 21.5101776,53.1359993 20.8554992,53.873855 C21.026571,54.2558168 21.1811935,54.711303 21.3193668,55.2403135 C22.0562912,54.1940811 22.6682017,53.1716073 23.1550982,52.1728922 L23.1550982,53.4853922 L22.6221439,53.7320326 C22.5431877,54.1387253 22.4494272,54.554168 22.3408625,54.9783607 L21.0430202,55.7454436 L21.0430202,57.1399748 L21.8523211,56.6616418 C21.6746697,57.2178136 21.4739893,57.7875965 21.2502802,58.3709905 C21.7569157,58.3586556 22.2372325,58.357319 22.6912306,58.3669806 C22.1681458,58.9586992 21.5628151,59.507883 20.8752383,60.0145321 C21.1055271,60.4982127 21.2798887,60.9557041 21.398323,61.3870062 C22.4017245,60.5113989 23.2636629,59.5279964 23.9841381,58.4367987 C24.4512956,58.4842555 24.8822648,58.5485438 25.2770457,58.6296637 L25.6274138,57.6159399 C25.9498182,57.8856709 26.244259,58.2038307 26.5107361,58.5704193 Z M28.4056846,51.9133106 C28.0767005,51.0869216 27.8464116,49.9538269 27.714818,48.5140265 C27.7542961,48.363089 27.7904843,48.2118173 27.8233827,48.0602114 L29.1064208,47.3018785 C29.0307544,48.9507674 28.7971757,50.4879114 28.4056846,51.9133106 Z M25.9777819,56.6158879 L24.9957643,56.6562652 C25.3806757,55.8545466 25.7014352,55.0064347 25.9580428,54.1119296 L25.9580428,52.8404452 L23.6584439,54.1996111 C23.7505594,53.9036302 23.8344504,53.6216251 23.9101167,53.3535956 L24.4085276,53.0590124 L24.4085276,52.0199499 C24.8822648,52.1318771 25.3231035,52.2586915 25.7310438,52.400393 L26.0221947,51.6199114 C26.222875,51.8886701 26.3988815,52.160619 26.5502142,52.4357579 C26.6686485,52.101435 26.7854379,51.7566911 26.9005823,51.4015262 C27.071654,52.4351808 27.3183921,53.3147382 27.6407965,54.0401984 C27.1275813,55.1775159 26.5074463,56.2230799 25.7803914,57.1768905 L25.9777819,56.6158879 Z M22.8294039,56.7950796 L23.1205548,55.9120589 L24.5861791,55.0458093 C24.3953683,55.6325454 24.15192,56.1911477 23.8558343,56.7216164 L22.8294039,56.7950796 Z M31.3764112,55.5168532 C31.6988156,55.3445269 32.0343794,55.1325219 32.3831025,54.8808379 C32.9818536,54.4996055 33.2812292,53.8031299 33.2812292,52.7914112 L33.2812292,49.0453174 C33.5641555,48.7778349 33.8503717,48.5084079 34.1398777,48.2370364 C34.133298,47.7851962 34.1464574,47.1849705 34.1793558,46.4363594 C33.863531,46.7324009 33.5641555,47.0050484 33.2812292,47.2543018 L33.2812292,45.3402393 L34.1300082,44.8385729 L34.1300082,43.0885729 L33.2812292,43.5902393 L33.2812292,41.1703174 L32.0870168,41.8761503 L32.0870168,44.2960722 L31.1494121,44.8502386 L31.1494121,46.6002386 L32.0870168,46.0460722 L32.0870168,48.3292753 C31.6790765,48.6888759 31.3270635,48.9971918 31.0309778,49.2542229 L31.1395426,51.076775 C31.4553673,50.7807335 31.7711921,50.4801346 32.0870168,50.1749785 L32.0870168,52.6906035 C32.0870168,53.137218 31.9751622,53.4220791 31.751453,53.5451867 C31.5277438,53.6682943 31.3073245,53.7894574 31.090195,53.9086761 C31.2152089,54.4819226 31.3106143,55.0179817 31.3764112,55.5168532 Z M36.8638662,52.4102405 L36.8638662,51.7266467 L39.0647699,50.4258141 L39.0647699,51.1094078 L40.2293736,50.4210749 L40.2293736,45.5128718 L38.5712937,46.4928712 L38.5712937,45.3444337 L40.821545,44.0144345 L40.821545,42.5788876 L38.5712937,43.9088868 L38.5712937,42.69209 L40.4070251,41.6070906 L40.4070251,37.3277937 L34.4359634,40.8569584 L34.4359634,45.8471928 C34.4359634,48.5815678 34.1069793,50.9407257 33.4490111,52.9246664 C33.7648358,53.1663853 34.0609215,53.4562291 34.3372682,53.794198 C35.0610332,51.8989725 35.4821329,49.6676619 35.6005672,47.1002661 L37.3277338,46.0794333 L37.3277338,47.2278708 L35.6992624,48.1903703 L35.6992624,53.0985734 L36.8638662,52.4102405 Z M39.1930737,40.8890433 L35.6400453,42.9890421 L35.6400453,41.580839 L39.1930737,39.4808402 L39.1930737,40.8890433 Z M37.3277338,44.6438864 L35.6400453,45.6413859 L35.6400453,44.424589 L37.3277338,43.4270896 L37.3277338,44.6438864 Z M39.0647699,48.9902672 L36.8638662,50.2910998 L36.8638662,48.9375842 L39.0647699,47.6367516 L39.0647699,48.9902672 Z M42.2427564,49.2584193 C42.9204637,47.4223171 43.2593173,44.7747738 43.2593173,41.3157894 L43.2593173,38.4583676 L50.8193722,33.9900367 L50.8193722,32.3083961 L47.468669,34.2888116 C47.2844379,33.7414505 47.118301,33.2654261 46.9702581,32.8607386 L45.3812648,34.319436 C45.4996991,34.6322485 45.6197783,34.962318 45.7415024,35.3096444 L41.9565402,37.5467265 L41.9565402,41.8396953 C41.9631199,44.7251293 41.6867733,46.9802594 41.1275003,48.6050856 C41.568339,48.8276031 41.940091,49.045381 42.2427564,49.2584193 Z M48.1151228,41.0161035 C47.7071825,39.2702353 47.3288508,37.8714505 46.9801276,36.819749 L45.7464372,38.0547746 C46.0491026,39.1792713 46.3945359,40.5975005 46.7827372,42.3094625 L48.1151228,41.0161035 Z M50.8588503,43.4823284 L50.8588503,41.5819378 L49.1760966,42.5765205 C49.7649782,39.7629704 50.2304907,37.3641337 50.5726341,35.3800106 L49.2007704,35.698656 C48.6546568,38.8104961 48.1809196,41.3782563 47.779559,43.4019368 L43.0816659,46.1786019 L43.0816659,48.0789925 L50.8588503,43.4823284 Z M46.1116096,43.2666758 C45.6181334,41.6989673 45.0818893,40.2112241 44.5028773,38.8034461 L43.3185345,40.2007113 C43.8778074,41.7659893 44.3679938,43.2763974 44.7890934,44.7319358 L46.1116096,43.2666758 Z M52.6551036,43.1179279 C53.1091017,42.0520687 53.3870932,40.4841174 53.4890783,38.414074 L55.6258301,37.1511581 L55.6258301,40.9792831 L57.0174329,40.1567835 L57.0174329,36.3286585 L59.0702938,35.1153259 L59.0702938,36.3594665 C59.0702938,36.9154561 58.8630338,37.3159508 58.4485138,37.5609507 C58.3892967,37.5959507 58.0208345,37.7863846 57.3431272,38.1322524 C57.4944599,38.6625997 57.6260535,39.2456292 57.7379081,39.8813411 C58.3794272,39.5158465 58.8967547,39.1884356 59.2898907,38.8991085 C59.6830267,38.6097814 59.9750001,38.2503631 60.1658109,37.8208536 C60.3566217,37.3913441 60.4520271,36.8872013 60.4520271,36.3084253 L60.4520271,25.5760034 L52.1517579,30.481834 L52.1517579,36.9212871 C52.1714969,39.4708184 51.9148893,41.404386 51.3819351,42.72199 C51.8096144,42.8155665 52.2340039,42.9475459 52.6551036,43.1179279 Z M55.6258301,31.9285018 L53.5334912,33.1651678 L53.5334912,31.4698553 L55.6258301,30.2331893 L55.6258301,31.9285018 Z M59.0702938,29.8926696 L57.0174329,31.1060023 L57.0174329,29.4106898 L59.0702938,28.1973571 L59.0702938,29.8926696 Z M55.6258301,35.3874862 L53.5334912,36.6241522 L53.5334912,34.9288397 L55.6258301,33.6921737 L55.6258301,35.3874862 Z M59.0702938,33.351654 L57.0174329,34.5649867 L57.0174329,32.8696742 L59.0702938,31.6563415 L59.0702938,33.351654 Z" id="path-2"></path>
    </defs>
    <g id="首页" stroke="none" stroke-width="1" fill="none" fill-rule="evenodd">
        <g id="首页备份" transform="translate(-1451.000000, -748.000000)">
            <g id="编组-35备份-15" transform="translate(1451.402496, 748.740965)">
                <path d="M2.82079467,32.4049489 L2.79681228,35.2410185 C2.78767289,36.3218099 3.36061161,37.3239679 4.29662022,37.8644135 L47.3242493,62.7082995 C49.1806814,63.7801918 51.4679519,63.7802292 53.3244189,62.7083974 L70.3390306,52.8850068 C71.233263,52.3687215 71.799138,51.4288439 71.8370119,50.3969681 L71.9636486,46.9467392 L71.9636486,46.9467392 L51.2394024,36.0044209 L56.8528497,31.727197 L56.7435066,28.3447944 L44.5560219,31.2841121 L29.0676343,21.70549 C27.2449776,20.5782881 24.959495,20.5087985 23.0717237,21.5231855 L2.82079467,32.4049489 L2.82079467,32.4049489 Z" id="Fill-6163" fill="url(#linearGradient-1)" transform="translate(37.372836, 42.162244) rotate(-240.000000) translate(-37.372836, -42.162244) "></path>
                <path d="M6.54910527,38.5190048 L49.6168254,63.51622 C51.4750273,64.594751 53.7680884,64.5973821 55.6287604,63.5231181 L72.6728372,53.6826748 C74.1077136,52.8542451 74.5993357,51.019473 73.770906,49.5845966 C73.5010434,49.1171829 73.110082,48.7312281 72.6392292,48.4674118 L52.4689184,37.1660994 L52.4689184,37.1660994 L59.022384,32.2990263 L43.6333425,32.0648212 L29.7287399,23.5631969 C27.8537757,22.4167965 25.5020904,22.3871902 23.59886,23.4860254 L6.5550634,33.3263069 C5.12018703,34.1547366 4.62856487,35.9895087 5.45699458,37.4243851 C5.71913136,37.8784174 6.0956757,38.2558268 6.54910527,38.5190048 Z" id="Fill-6163备份" fill="#FFFFFF" transform="translate(39.653763, 43.481505) rotate(-240.000000) translate(-39.653763, -43.481505) "></path>
                <g id="数据应用" fill-rule="nonzero">
                    <use fill="#50E3C2" xlink:href="#path-2"></use>
                    <use fill="#0F71E2" xlink:href="#path-2"></use>
                </g>
            </g>
        </g>
    </g>
</svg>