<?xml version="1.0" encoding="UTF-8"?>
<svg width="86px" height="96px" viewBox="0 0 86 96" version="1.1" xmlns="http://www.w3.org/2000/svg" xmlns:xlink="http://www.w3.org/1999/xlink">
    <title>编组 35备份 7</title>
    <defs>
        <linearGradient x1="69.9747546%" y1="63.9700768%" x2="63.8070403%" y2="63.9700768%" id="linearGradient-1">
            <stop stop-color="#B7C8D6" offset="0%"></stop>
            <stop stop-color="#DAE2EB" offset="100%"></stop>
        </linearGradient>
    </defs>
    <g id="首页" stroke="none" stroke-width="1" fill="none" fill-rule="evenodd">
        <g id="首页备份" transform="translate(-522.000000, -168.000000)">
            <g id="编组-35备份-7" transform="translate(522.683150, 168.083000)">
                <path d="M2.83874387,34.37386 L2.81475186,37.2110669 C2.8056176,38.291251 3.37791275,39.2929412 4.31308957,39.8336124 L54.3053207,68.7365573 C56.1621962,69.8101075 58.450913,69.8107926 60.3084308,68.7383541 L77.3210814,58.9160957 C78.2153138,58.3998104 78.7811888,57.4599328 78.8190627,56.428057 L78.9456994,52.9778281 L78.9456994,52.9778281 L54.4894024,39.5714082 L60.1028497,35.2941843 L59.9935066,31.9117817 L47.8060219,34.8510994 L29.0638002,23.6068527 C27.2508779,22.5192043 24.999338,22.465945 23.1370163,23.4666568 L2.83874387,34.37386 L2.83874387,34.37386 Z" id="Fill-6163" fill="url(#linearGradient-1)" transform="translate(40.872836, 46.162244) rotate(-240.000000) translate(-40.872836, -46.162244) "></path>
                <path d="M6.5650242,40.488303 L56.5984267,69.5459982 C58.4568313,70.6252962 60.7505605,70.6282278 62.6117178,69.5536837 L79.7070738,59.6836341 C81.1419502,58.8552044 81.6335723,57.0204323 80.8051426,55.5855559 C80.5403212,55.1268737 80.1587876,54.7464765 79.6993175,54.4830244 L55.7189184,40.7330867 L55.7189184,40.7330867 L62.272384,35.8660136 L46.8833425,35.6318085 L29.7241495,25.4617518 C27.8590198,24.3563109 25.5425972,24.3430776 23.6649593,25.4271368 L6.57166035,35.2959987 C5.13678398,36.1244284 4.64516182,37.9592005 5.47359153,39.3940769 C5.73559539,39.847879 6.11189329,40.22514 6.5650242,40.488303 Z" id="Fill-6163备份" fill="#FFFFFF" transform="translate(43.153763, 47.481505) rotate(-240.000000) translate(-43.153763, -47.481505) "></path>
                <path d="M24.7958039,63.8499638 C25.3469179,63.0567462 25.8310387,62.1581173 26.2481663,61.154077 C26.5717562,61.6173912 26.9547552,61.9479968 27.3971632,62.1458937 C27.6550239,61.2745299 27.8749639,60.6249775 28.0569832,60.1972368 C27.5867667,60.0508867 27.1898634,59.781267 26.8662735,59.3883777 C27.3263779,57.7839562 27.6107831,55.9130073 27.7194891,53.775531 L28.0266467,53.5951103 L28.0266467,52.1631362 L26.1268201,53.2790719 C26.2405822,52.6605872 26.3480241,52.0184275 26.449146,51.3525926 L25.410119,51.8103173 C25.1092816,53.8728494 24.7515631,55.6205806 24.3369635,57.0535107 C24.0538224,56.9655121 23.7542489,56.8832532 23.4382431,56.8067339 L23.1803825,57.4981228 L23.1803825,56.6764984 L24.5076066,55.8969026 L24.5076066,54.6996784 L24.0677266,54.9580587 C24.3180032,54.3415495 24.527831,53.7605369 24.6972101,53.2150209 L23.9843011,52.9764756 C23.812394,53.5313016 23.6000381,54.1216241 23.3472335,54.7474432 L23.9767169,55.0115167 L23.1803825,55.4792741 L23.1803825,53.1787256 L22.2171969,53.7444894 L22.2171969,56.0450379 L21.3677735,56.5439792 L22.0503459,55.5092196 C21.782373,55.0484491 21.5700171,54.7193347 21.4132783,54.5218765 L20.7307059,55.580111 C20.955702,55.9213631 21.1351932,56.2619568 21.2691797,56.601892 L20.6776169,56.949369 L20.6776169,58.1465932 L21.8114455,57.4805957 C21.4069582,58.2307239 20.9531739,58.9041712 20.4500928,59.5009374 C20.5815511,59.838445 20.7003693,60.2381524 20.8065472,60.7000594 C21.3728295,59.8431572 21.8430461,58.9996454 22.2171969,58.169524 L22.2171969,59.2963233 L21.8076535,59.4781968 C21.7469804,59.8229228 21.674931,60.174331 21.5915055,60.5324215 L20.5941914,61.118232 L20.5941914,62.3154562 L21.2160907,61.9501599 C21.0795762,62.4176842 20.9253654,62.895603 20.7534583,63.3839165 C21.1427774,63.4017224 21.5118721,63.4274954 21.8607424,63.4612354 C21.4587831,63.9399164 20.9936226,64.3774711 20.465261,64.7738994 C20.6422242,65.2020529 20.7762107,65.6045881 20.8672203,65.9815048 C21.6382744,65.286022 22.3006224,64.4900668 22.8542645,63.5936394 C23.213247,63.6605646 23.5444211,63.7399117 23.8477866,63.8316808 L24.1170235,62.9810221 C24.364772,63.2306598 24.5910321,63.5203071 24.7958039,63.8499638 Z M26.2519584,58.2409514 C25.9991538,57.5130464 25.8221905,56.5273619 25.7210687,55.283898 C25.7514053,55.1565288 25.7792138,55.0286882 25.8044942,54.9003763 L26.7904322,54.3212481 C26.7322871,55.7326009 26.5527958,57.0391687 26.2519584,58.2409514 Z M24.3862604,62.142101 L23.6316387,62.1217259 C23.9274201,61.4550127 24.1739045,60.7448748 24.3710921,59.991312 L24.3710921,58.8997252 L22.603988,59.9377013 C22.6747732,59.6887605 22.7392384,59.451357 22.7973835,59.2254909 L23.1803825,59.0005219 L23.1803825,58.1084724 C23.5444211,58.2311153 23.8831792,58.364695 24.196657,58.5092117 L24.420389,57.8554757 C24.5745998,58.0974564 24.7098503,58.3407929 24.8261404,58.5854853 C24.9171501,58.3051024 25.0068957,58.0156808 25.0953773,57.7172204 C25.2268357,58.6142152 25.4164392,59.3831563 25.6641877,60.0240438 C25.2698125,60.9716821 24.7932758,61.8345563 24.2345776,62.6126662 L24.3862604,62.142101 Z M21.9669204,62.1194811 L22.1906524,61.3777139 L23.3168969,60.7161712 C23.1702703,61.2091977 22.9831949,61.6751209 22.7556707,62.1139407 L21.9669204,62.1194811 Z M28.5347839,61.5011438 C28.7825324,61.3712692 29.0403931,61.2080674 29.308366,61.0115383 C29.7684704,60.7178035 29.9985226,60.1366489 29.9985226,59.2680744 L29.9985226,56.0520015 C30.2159345,55.8382213 30.4358745,55.6229562 30.6583426,55.4062062 C30.6532865,55.0179263 30.6633987,54.5033619 30.6886791,53.8625128 C30.4459867,54.0989674 30.2159345,54.3162598 29.9985226,54.5143899 L29.9985226,52.871141 L30.6507584,52.4880254 L30.6507584,50.9856263 L29.9985226,51.368742 L29.9985226,49.2912058 L29.0808419,49.8302406 L29.0808419,51.9077767 L28.3603487,52.3309858 L28.3603487,53.8333849 L29.0808419,53.4101758 L29.0808419,55.370337 C28.7673642,55.656195 28.4968632,55.901159 28.2693391,56.105229 L28.3527646,57.6759998 C28.595457,57.4395452 28.8381494,57.1991781 29.0808419,56.9548985 L29.0808419,59.1145971 C29.0808419,59.4980219 28.9948883,59.7363099 28.8229812,59.8294611 C28.651074,59.9226123 28.481695,60.0142786 28.3148439,60.1044599 C28.4109097,60.6036067 28.484223,61.069168 28.5347839,61.5011438 Z M32.7515647,59.1416316 L32.7515647,58.554757 L34.4428275,57.5613293 L34.4428275,58.1482039 L35.3377558,57.6225336 L35.3377558,53.4087738 L34.0636206,54.1571857 L34.0636206,53.1712364 L35.792804,52.1555345 L35.792804,50.9230978 L34.0636206,51.9387997 L34.0636206,50.8941628 L35.4742702,50.0655639 L35.4742702,46.3917287 L30.8858667,49.0869026 L30.8858667,53.3710874 C30.8858667,55.7185859 30.6330621,57.7255166 30.1274529,59.3918796 C30.3701453,59.6170997 30.5976695,59.8825295 30.8100253,60.1881689 C31.3661955,58.601657 31.6897854,56.7096477 31.780795,54.5121411 L33.1080192,53.7325453 L33.1080192,54.7184947 L31.8566364,55.4535421 L31.8566364,59.6673019 L32.7515647,59.1416316 Z M34.5414213,49.3810716 L31.8111316,50.9848115 L31.8111316,49.7758497 L34.5414213,48.1721099 L34.5414213,49.3810716 Z M33.1080192,52.5001086 L31.8111316,53.261885 L31.8111316,52.2172482 L33.1080192,51.4554718 L33.1080192,52.5001086 Z M34.4428275,56.3288926 L32.7515647,57.3223203 L32.7515647,56.1603085 L34.4428275,55.1668808 L34.4428275,56.3288926 Z M37.878442,51.8459799 L37.878442,51.4234301 L43.26318,48.2604988 L43.26318,47.2275995 L40.6239,48.7778813 L40.6239,48.1557942 L42.8839731,46.828254 L42.8839731,45.8892546 L40.6239,47.2167948 L40.6239,46.5947077 L42.8839731,45.2671675 L42.8839731,44.3281681 L40.6239,45.6557083 L40.6239,45.0336212 L43.1570021,43.545707 L43.1570021,42.5362826 L40.6921572,43.9841033 C40.568283,43.6421409 40.4393526,43.3266233 40.3053662,43.0375505 L39.3270124,43.8821863 C39.4256062,44.1020608 39.5216719,44.3468952 39.6152096,44.6166896 L38.3145299,45.3806934 C38.4080676,45.0831756 38.4978133,44.7800603 38.5837668,44.4713473 L37.5295717,44.7384443 C37.1402526,46.093925 36.6396995,47.3191184 36.0279123,48.4140245 C36.1795951,48.8335525 36.3211657,49.3216202 36.4526241,49.8782277 C36.5992507,49.6003886 36.7408213,49.3196506 36.8773358,49.0360137 L36.8773358,52.4340178 L37.878442,51.8459799 Z M39.6227938,46.2437462 L37.878442,47.2683578 L37.878442,46.6697457 L37.8860261,46.6418158 L39.6227938,45.6216591 L39.6227938,46.2437462 Z M39.6227938,47.8048327 L37.878442,48.8294443 L37.878442,48.2073572 L39.6227938,47.1827456 L39.6227938,47.8048327 Z M39.6227938,49.3659192 L37.878442,50.3905308 L37.878442,49.7684437 L39.6227938,48.7438321 L39.6227938,49.3659192 Z M40.297782,54.6738605 L40.297782,52.2676745 C40.9297936,52.8784753 41.8474743,53.0867275 43.0508242,52.8924312 C43.1873386,52.4131695 43.3643019,51.8436362 43.5817138,51.1838313 C42.6488648,51.4813759 41.8727547,51.5420916 41.2533834,51.3659783 L43.4755359,50.0607122 L43.4755359,48.933913 L40.297782,50.8004879 L40.297782,50.2605633 L39.2966758,50.8486012 L39.2966758,51.3885259 L36.1947634,53.2105525 L36.1947634,54.3373518 L38.3562427,53.0677244 C37.7722641,53.9311087 36.9961539,54.8330113 36.0279123,55.7734323 C36.2503804,56.1435568 36.4248155,56.4949454 36.5512178,56.8275979 C37.714119,55.5459114 38.6292717,54.2552058 39.2966758,52.9554811 L39.2966758,55.2618984 L40.297782,54.6738605 Z M47.6695642,50.3907129 C48.0740516,49.6679721 48.4583146,48.8945109 48.8223532,48.0703293 C49.1838638,48.9221816 49.6401761,49.1862488 50.1912901,48.862531 C50.3758375,48.7541301 50.5591208,48.5506154 50.7411402,48.251987 C50.9231595,47.9533587 51.0697861,47.4270759 51.1810202,46.6731388 C51.2922542,45.9192017 51.3554553,45.3265035 51.3706236,44.8950441 C50.950968,44.86767 50.6273781,44.8190805 50.3998539,44.7492756 C50.3973259,45.0794104 50.3733095,45.483789 50.3278046,45.9624114 C50.2822998,46.4410339 50.240587,46.7482134 50.2026664,46.88395 C50.1647457,47.0196866 50.1167128,47.1046317 50.0585677,47.1387855 C49.906885,47.2278821 49.7362419,46.9466474 49.5466384,46.2950812 C50.1053366,44.8048967 50.6071537,43.1681486 51.0520898,41.3848369 L50.1192408,41.2637443 C49.8588521,42.3478679 49.5618067,43.3850546 49.2281046,44.3753042 C49.1446791,43.532258 49.0903261,42.5097662 49.0650456,41.3078289 L51.2416933,40.0292919 L51.2416933,38.6207928 L50.4074381,39.1108244 L50.9914167,38.2748276 C50.6627707,37.8340457 50.4099661,37.516953 50.2330029,37.3235493 L49.4366684,38.4603438 C49.7324498,38.82653 49.9473337,39.1072094 50.0813201,39.3023822 L49.0460853,39.9104669 L49.0347091,37.9804629 L47.9577615,38.6130491 L47.9918901,40.5296887 L44.4311373,42.6212327 L44.4311373,46.6002427 C44.4260812,48.5751113 44.2137253,50.2139831 43.7940697,51.5168582 C44.1126035,51.689705 44.4109129,51.8979063 44.688998,52.1414622 C45.1769109,50.6459062 45.4246594,48.6810703 45.4322435,46.2469546 L46.5395277,45.596549 C46.5395277,46.2460236 46.5211993,46.7888891 46.4845427,47.2251455 C46.447886,47.6614019 46.2943072,47.9589746 46.0238063,48.1178637 C45.8847638,48.1995356 45.6951603,48.275694 45.4549959,48.3463387 C45.5257812,48.782085 45.5864543,49.3176709 45.6370152,49.9530966 C46.3322279,49.5916869 46.7638918,49.2706421 46.9320068,48.9899622 C47.1001219,48.7092823 47.2372684,48.3949523 47.3434463,48.0469723 C47.4496242,47.6989923 47.5178815,46.8930275 47.548218,45.6290777 C47.5785546,44.3651279 47.5937229,43.6744655 47.5937229,43.5570906 L45.4322435,44.826718 L45.4322435,43.4416939 L48.0298108,41.9159136 C48.09554,43.9431037 48.2206783,45.489373 48.4052256,46.5547213 C47.9476493,47.6412082 47.4395121,48.6595815 46.8808139,49.6098413 C47.163955,49.8113023 47.4268718,50.0715928 47.6695642,50.3907129 Z M58.9699299,35.05553 L58.9699299,33.5766059 L56.0348685,35.3006262 C55.842737,34.7913949 55.6859982,34.3865743 55.564652,34.0861643 L54.4421995,35.2736668 C54.520569,35.4975958 54.6103146,35.7657051 54.7114364,36.0779946 L51.6512367,37.8755196 L51.6512367,39.3544437 L58.9699299,35.05553 Z M52.4096505,42.9936078 C53.2186253,41.6029012 53.9846232,40.1865762 54.7076444,38.7446328 L53.8885574,38.063743 C53.2666581,39.3602137 52.5360528,40.689237 51.6967416,42.050813 C52.0051632,42.4095744 52.2427995,42.7238394 52.4096505,42.9936078 Z M58.9623458,37.6891831 C58.2949417,37.2830589 57.544112,36.8672504 56.7098568,36.4417576 L56.0121161,37.990139 C56.7553616,38.4221399 57.4758548,38.9261926 58.1735955,39.5022974 L58.9623458,37.6891831 Z M52.1745422,47.7093297 C53.4158128,46.6750472 54.4725361,45.4342097 55.344712,43.986817 C56.2219439,44.4261907 57.2634989,44.4188745 58.4693768,43.9648684 C58.6362279,43.4051874 58.8460557,42.7224499 59.0988603,41.9166559 C57.9005665,42.4053321 56.9335889,42.5409923 56.1979275,42.3236365 C56.609999,41.4047286 56.9753016,40.4056984 57.2938354,39.3265459 L56.3989071,38.9249543 C56.1284062,39.9563303 55.7757438,40.918592 55.3409199,41.8117396 C54.9364325,41.4428935 54.5686018,40.9116659 54.2374278,40.2180567 L53.3880043,41.6912098 C53.698954,42.3419236 54.0629926,42.8832037 54.4801202,43.3150499 C53.696426,44.4561572 52.7231282,45.4817105 51.5602271,46.3917097 C51.8433682,46.9061705 52.0481399,47.3453772 52.1745422,47.7093297 Z M61.9429121,42.0184549 C63.0805328,40.7868304 63.8465307,39.5348303 64.2409059,38.2624546 C64.6807859,39.1308736 65.3532461,39.5222904 66.2582866,39.4367051 C66.445362,38.8025445 66.6425496,38.1546192 66.8498494,37.4929291 C65.896776,37.7593158 65.2293719,37.5801165 64.8476369,36.9553311 L66.8574335,35.7748004 L66.8574335,34.4484637 L66.4251377,34.7023892 L66.4251377,31.1811415 L65.454368,31.7513601 L66.0535149,30.2608915 L66.0535149,28.9815048 L63.8882435,30.2533596 C63.9868373,29.9215719 64.081639,29.5880992 64.1726487,29.2529414 L63.0653645,29.7038096 C62.8024477,30.8794057 62.3297031,32.2682395 61.6471307,33.8703112 L61.6471307,32.7669869 L61.0859045,33.0966446 L61.0859045,31.0073709 L60.1454713,31.5597702 L60.1454713,33.6490438 L59.3946417,34.0900723 L59.3946417,35.5924713 L60.1454713,35.1514429 L60.1454713,37.000098 C59.8117693,37.3447855 59.5336842,37.6235481 59.3112162,37.8363856 L59.3718893,39.4909459 L60.1454713,38.6374782 L60.1454713,40.9145517 C60.1454713,41.2745015 60.0569897,41.5064494 59.8800265,41.6103955 C59.6727267,41.7321609 59.4957635,41.8243696 59.3491369,41.8870213 C59.4502587,42.3910232 59.5261001,42.8629245 59.576661,43.3027254 C60.0544617,43.0025084 60.3786836,42.7788081 60.5493267,42.6316244 C60.7199698,42.4844406 60.8520602,42.2796961 60.9455979,42.0173908 C61.0391356,41.7550855 61.0859045,41.4380892 61.0859045,41.066402 L61.0859045,37.6038417 L61.662299,36.9718371 C61.6572429,36.5835572 61.6673551,36.0455178 61.6926355,35.3577188 L61.0859045,36.0075427 L61.0859045,34.5990436 L61.6471307,34.269386 L61.6471307,33.8879175 C61.7710049,33.9325301 61.8872951,33.9835539 61.996001,34.0409887 L61.996001,37.3040116 L61.3741017,37.6693079 L61.3741017,38.9956445 L63.4787,37.7594284 C63.2081991,38.8103669 62.4940261,39.8558633 61.336181,40.8959175 C61.5738173,41.2727824 61.776061,41.6469616 61.9429121,42.0184549 Z M64.2788266,32.4418592 L62.8378404,33.2882774 C63.0299719,32.8037344 63.2119912,32.3133936 63.3838983,31.8172552 L64.8628052,30.9485628 L64.2788266,32.4418592 Z M65.4922887,35.2503337 L64.6580335,35.7403653 C64.6681457,35.3353507 64.6732018,34.6007438 64.6732018,33.5365445 L65.4922887,33.0554226 L65.4922887,35.2503337 Z M62.92885,36.7560672 L62.92885,34.5611561 L63.7403528,34.0844889 C63.7403528,35.3051882 63.7315046,36.0420225 63.7138083,36.294992 L62.92885,36.7560672 Z" id="数据集成交换" fill="#0F71E2" fill-rule="nonzero"></path>
            </g>
        </g>
    </g>
</svg>