<?xml version="1.0" encoding="UTF-8"?>
<svg width="79px" height="88px" viewBox="0 0 79 88" version="1.1" xmlns="http://www.w3.org/2000/svg" xmlns:xlink="http://www.w3.org/1999/xlink">
    <title>编组 35备份 13</title>
    <defs>
        <linearGradient x1="69.9747546%" y1="63.9700768%" x2="63.8070403%" y2="63.9700768%" id="linearGradient-1">
            <stop stop-color="#B7C8D6" offset="0%"></stop>
            <stop stop-color="#DAE2EB" offset="100%"></stop>
        </linearGradient>
    </defs>
    <g id="首页" stroke="none" stroke-width="1" fill="none" fill-rule="evenodd">
        <g id="首页备份" transform="translate(-1384.000000, -567.000000)">
            <g id="编组-35备份-13" transform="translate(1384.402496, 567.190404)">
                <path d="M2.82079467,32.4049489 L2.79681228,35.2410185 C2.78767289,36.3218099 3.36061161,37.3239679 4.29662022,37.8644135 L47.3242493,62.7082995 C49.1806814,63.7801918 51.4679519,63.7802292 53.3244189,62.7083974 L70.3390306,52.8850068 C71.233263,52.3687215 71.799138,51.4288439 71.8370119,50.3969681 L71.9636486,46.9467392 L71.9636486,46.9467392 L51.2394024,36.0044209 L56.8528497,31.727197 L56.7435066,28.3447944 L44.5560219,31.2841121 L29.0676343,21.70549 C27.2449776,20.5782881 24.959495,20.5087985 23.0717237,21.5231855 L2.82079467,32.4049489 L2.82079467,32.4049489 Z" id="Fill-6163" fill="url(#linearGradient-1)" transform="translate(37.372836, 42.162244) rotate(-240.000000) translate(-37.372836, -42.162244) "></path>
                <path d="M6.54910527,38.5190048 L49.6168254,63.51622 C51.4750273,64.594751 53.7680884,64.5973821 55.6287604,63.5231181 L72.6728372,53.6826748 C74.1077136,52.8542451 74.5993357,51.019473 73.770906,49.5845966 C73.5010434,49.1171829 73.110082,48.7312281 72.6392292,48.4674118 L52.4689184,37.1660994 L52.4689184,37.1660994 L59.022384,32.2990263 L43.6333425,32.0648212 L29.7287399,23.5631969 C27.8537757,22.4167965 25.5020904,22.3871902 23.59886,23.4860254 L6.5550634,33.3263069 C5.12018703,34.1547366 4.62856487,35.9895087 5.45699458,37.4243851 C5.71913136,37.8784174 6.0956757,38.2558268 6.54910527,38.5190048 Z" id="Fill-6163备份" fill="#FFFFFF" transform="translate(39.653763, 43.481505) rotate(-240.000000) translate(-39.653763, -43.481505) "></path>
                <path d="M26.9054113,57.620613 C27.5908637,56.6874753 28.1929928,55.6326718 28.7117985,54.4562025 C29.114266,54.9904738 29.590624,55.3691743 30.1408725,55.5923042 C30.4615888,54.5730341 30.7351409,53.8127637 30.9615288,53.3114928 C30.3766933,53.1488688 29.8830418,52.8414368 29.4805743,52.3891968 C30.0528327,50.5126842 30.4065639,48.3286508 30.5417678,45.8370968 L30.9237975,45.6218174 L30.9237975,43.9538487 L28.5608732,45.2853918 C28.7023657,44.5630805 28.8359975,43.8132978 28.9617686,43.0360438 L27.6694706,43.5865385 C27.2953017,45.9940029 26.8503864,48.0357349 26.334725,49.7117345 C25.982566,49.6139574 25.6099691,49.52314 25.2169345,49.4392824 L24.8962182,50.248917 L24.8962182,49.2918858 L26.5469637,48.3616661 L26.5469637,46.9671348 L25.9998595,47.2754362 C26.3111429,46.5531484 26.5721179,45.8728819 26.7827845,45.2346369 L25.8960983,44.9686728 C25.6822875,45.6178042 25.4181682,46.3089571 25.1037405,47.0421314 L25.8866655,47.3392227 L24.8962182,47.8973545 L24.8962182,45.217667 L23.6982486,45.8927408 L23.6982486,48.5724283 L22.6417715,49.1677689 L23.4907263,47.9510889 C23.1574329,47.4188527 22.8933137,47.039042 22.6983685,46.8116569 L21.8494136,48.0556806 C22.1292543,48.4494185 22.352498,48.8431486 22.5191447,49.2368709 L21.7833838,49.6514832 L21.7833838,51.0460144 L23.1935921,50.251341 C22.6905078,51.1318417 22.12611,51.9238466 21.5003989,52.6273557 C21.6639013,53.0182925 21.8116823,53.4818907 21.943742,54.0181502 C22.64806,53.0105794 23.2328956,52.0202085 23.6982486,51.0470377 L23.6982486,52.3595377 L23.1888757,52.5782175 C23.1134131,52.9807679 23.0238012,53.3912916 22.92004,53.8097886 L21.6796227,54.5087822 L21.6796227,55.9033135 L22.4531148,55.4674391 C22.2833239,56.0142907 22.091523,56.5735453 21.8777121,57.1452027 C22.3619308,57.1594477 22.8209953,57.1833101 23.2549055,57.21679 C22.7549655,57.7810657 22.1764185,58.2984919 21.5192645,58.7690683 C21.7393639,59.2648307 21.9060106,59.7314697 22.0192046,60.1689853 C22.9782091,59.3460198 23.8020097,58.4078375 24.4906064,57.3544384 C24.9370938,57.4264039 25.3489941,57.5133023 25.7263074,57.6151338 L26.0611729,56.6197914 C26.369312,56.9064369 26.6507248,57.2400441 26.9054113,57.620613 Z M28.7165149,51.0629197 C28.4020872,50.2192711 28.1819878,49.0740946 28.0562167,47.6273904 C28.0939481,47.4785241 28.1285351,47.3291509 28.1599779,47.179271 L29.386246,46.4882506 C29.3139276,48.1331698 29.0906839,49.6580595 28.7165149,51.0629197 Z M26.3960384,55.638121 L25.4574717,55.6269783 C25.8253521,54.8454534 26.1319191,54.0141697 26.3771727,53.1331271 L26.3771727,51.8616427 L24.179323,53.1001638 C24.2673628,52.8090156 24.3475418,52.5314117 24.4198602,52.2673519 L24.8962182,51.998917 L24.8962182,50.9598545 C25.3489941,51.0966356 25.7703272,51.2465779 26.1602176,51.4096814 L26.4384861,50.6444745 C26.630287,50.9237616 26.7985059,51.2049443 26.9431426,51.4880227 C27.0563366,51.1599133 27.1679584,50.8212966 27.2780081,50.4721726 C27.4415105,51.5148021 27.6773313,52.4073042 27.9854705,53.1496788 C27.4949633,54.2600714 26.902267,55.273101 26.2073818,56.1887677 L26.3960384,55.638121 Z M23.3869652,55.652138 L23.6652337,54.7843921 L25.0660092,53.9950342 C24.8836411,54.5717596 24.6509646,55.1175899 24.3679796,55.6325249 L23.3869652,55.652138 Z M31.5557972,54.8223168 C31.8639364,54.6669049 32.1846526,54.4725046 32.517946,54.2391159 C33.0902045,53.889296 33.3763337,53.2085267 33.3763337,52.1968079 L33.3763337,48.4507142 C33.6467415,48.1980749 33.9202936,47.9436638 34.19699,47.6874808 C34.1907015,47.2352954 34.2032786,46.6357601 34.2347213,45.8888749 C33.9328707,46.1683473 33.6467415,46.4252885 33.3763337,46.6596986 L33.3763337,44.7456361 L34.1875572,44.2884995 L34.1875572,42.5384995 L33.3763337,42.9956361 L33.3763337,40.5757142 L32.2349611,41.2188947 L32.2349611,43.6388166 L31.3388421,44.143793 L31.3388421,45.893793 L32.2349611,45.3888166 L32.2349611,47.6720197 C31.8450707,48.0102183 31.508633,48.3000664 31.2256481,48.5415638 L31.3294092,50.3698116 C31.6312599,50.0903393 31.9331105,49.8063097 32.2349611,49.5177228 L32.2349611,52.0333478 C32.2349611,52.4799624 32.1280556,52.7589552 31.9142448,52.8703262 C31.700434,52.9816972 31.4897674,53.0912964 31.2822451,53.1991237 C31.4017276,53.778929 31.4929117,54.3199933 31.5557972,54.8223168 Z M36.8004515,52.0035946 L36.8004515,51.3200008 L38.9039729,50.1346351 L38.9039729,50.8182289 L40.017047,50.190995 L40.017047,45.2827919 L38.4323313,46.1758028 L38.4323313,45.0273653 L40.5830169,43.8154219 L40.5830169,42.379875 L38.4323313,43.5918184 L38.4323313,42.3750216 L40.186838,41.3863309 L40.186838,37.107034 L34.479975,40.3229365 L34.479975,45.3131709 C34.479975,48.0475459 34.1655472,50.3894441 33.5366918,52.3388656 C33.8385424,52.5971537 34.1215274,52.9025312 34.3856466,53.2549981 C35.0773876,51.3977439 35.4798551,49.1885256 35.5930491,46.6273432 L37.2437946,45.6971235 L37.2437946,46.845561 L35.6873774,47.7226253 L35.6873774,52.6308284 L36.8004515,52.0035946 Z M39.0265997,40.6045956 L35.6307804,42.5181904 L35.6307804,41.1099873 L39.0265997,39.1963925 L39.0265997,40.6045956 Z M37.2437946,44.2615766 L35.6307804,45.1705342 L35.6307804,43.9537373 L37.2437946,43.0447798 L37.2437946,44.2615766 Z M38.9039729,48.6990882 L36.8004515,49.884454 L36.8004515,48.5309383 L38.9039729,47.3455726 L38.9039729,48.6990882 Z M48.9027742,45.1427395 L48.9027742,41.6085598 L50.2894005,40.6426049 L50.1856393,38.9647478 L48.9027742,39.8585598 L48.9027742,31.7032864 L47.572745,32.4527777 L47.572745,40.7857855 L44.5070748,42.9166567 L44.6674329,44.5489488 L47.572745,42.5289496 L47.572745,45.8922308 L48.9027742,45.1427395 Z M43.5354931,48.1672825 L43.5354931,42.2678684 C43.7650254,42.4985496 44.0354332,42.7905067 44.3467167,43.1437397 L45.1390745,41.6581717 C44.8246468,41.3613981 44.441045,41.0489176 43.9882691,40.7207303 L43.5354931,41.5911106 L43.5354931,40.4153294 L44.7617612,39.724309 L44.7617612,37.9606371 L43.5354931,38.6516575 L43.5354931,36.9358372 C44.0291447,36.5756259 44.4882091,36.2326264 44.9126865,35.9068385 L44.5542389,34.5092196 C43.4537419,35.3572307 42.2526281,36.2209253 40.9508973,37.1003033 C41.0326485,37.519079 41.1049669,38.0206442 41.1678525,38.604999 L42.3092251,37.8114278 L42.3092251,39.3426778 L40.9603302,40.1028002 L40.9603302,41.8664721 L42.2667773,41.1302697 C41.9397725,42.567797 41.4759916,43.9821392 40.8754347,45.3732964 C41.0578028,46.1273001 41.2024395,46.7749618 41.3093449,47.3162815 C41.6803696,46.3324639 42.013663,45.3061065 42.3092251,44.2372091 L42.3092251,48.8583028 L43.5354931,48.1672825 Z M47.4972824,35.3800676 C46.9124468,34.9440062 46.381064,34.6054275 45.9031338,34.3643316 L45.110776,35.9729465 C45.6453031,36.2824095 46.1483875,36.6688359 46.620029,37.1322255 L47.4972824,35.3800676 Z M47.1954318,39.0364931 C46.6734817,38.6379114 46.1358104,38.2983191 45.5824176,38.0177163 L44.7806269,39.6589904 C45.371751,39.9912477 45.8811239,40.3650158 46.3087456,40.7802946 L47.1954318,39.0364931 Z M52.1476683,35.6579433 L52.1476683,33.9626308 L58.3073072,30.4915823 L58.3073072,32.1868948 L59.6279036,31.4427191 L59.6279036,28.0794378 L58.2695759,28.8448758 L59.0336352,27.088145 L57.760203,26.7940244 C57.4646409,27.6213853 57.1014769,28.6053305 56.6707109,29.74586 L55.5151891,30.3970138 L56.1660545,29.5927415 C55.8264725,28.8999864 55.5309105,28.3464879 55.2793683,27.9322461 L54.1285629,29.3190234 C54.3518065,29.6990816 54.595488,30.1815551 54.8596073,30.7664439 L53.2843245,31.6541393 L53.7040855,31.0074415 C53.3141951,30.4615255 52.9305933,29.9849825 52.55328,29.5778125 L51.5628327,31.1066475 C51.8238077,31.4198706 52.0926434,31.7742371 52.3693398,32.1697468 L50.8270719,33.0388378 L50.8270719,36.4021191 L52.1476683,35.6579433 Z M53.1381156,42.6877021 C53.6632099,42.3918036 54.174941,42.1011569 54.6733089,41.8157618 C55.1716768,41.5303668 55.5419155,41.1439974 55.7840248,40.6566537 C56.0261341,40.16931 56.1471888,39.611185 56.1471888,38.9822788 L56.1471888,37.5877475 L59.8071274,35.5253175 L59.8071274,33.830005 L56.2886813,35.8127019 L57.9111283,33.3398351 L57.9111283,31.6855382 L52.6004442,34.6781879 L52.6004442,36.3461567 L56.0528605,34.4006686 L54.7888611,36.3024042 L54.7888611,36.657873 L50.6667137,38.9807645 L50.6667137,40.676077 L54.7888611,38.3531855 L54.7888611,39.173498 C54.7888611,39.7294876 54.5687617,40.1315117 54.1285629,40.3795703 C53.732384,40.602823 53.2953294,40.8308806 52.8173993,41.063743 C52.9431704,41.5670879 53.0500758,42.1084076 53.1381156,42.6877021 Z" id="数据科学" fill="#0F71E2" fill-rule="nonzero"></path>
            </g>
        </g>
    </g>
</svg>